<?xml version="1.0" encoding="utf-8" standalone="no"?>
<!DOCTYPE svg PUBLIC "-//W3C//DTD SVG 1.1//EN"
  "http://www.w3.org/Graphics/SVG/1.1/DTD/svg11.dtd">
<svg xmlns:xlink="http://www.w3.org/1999/xlink" width="864pt" height="648pt" viewBox="0 0 864 648" xmlns="http://www.w3.org/2000/svg" version="1.1">
 <metadata>
  <rdf:RDF xmlns:dc="http://purl.org/dc/elements/1.1/" xmlns:cc="http://creativecommons.org/ns#" xmlns:rdf="http://www.w3.org/1999/02/22-rdf-syntax-ns#">
   <cc:Work>
    <dc:type rdf:resource="http://purl.org/dc/dcmitype/StillImage"/>
    <dc:date>2022-03-16T14:13:14.312237</dc:date>
    <dc:format>image/svg+xml</dc:format>
    <dc:creator>
     <cc:Agent>
      <dc:title>Matplotlib v3.5.0, https://matplotlib.org/</dc:title>
     </cc:Agent>
    </dc:creator>
   </cc:Work>
  </rdf:RDF>
 </metadata>
 <defs>
  <style type="text/css">*{stroke-linejoin: round; stroke-linecap: butt}</style>
 </defs>
 <g id="figure_1">
  <g id="patch_1">
   <path d="M 0 648 
L 864 648 
L 864 0 
L 0 0 
z
" style="fill: #ffffff"/>
  </g>
  <g id="axes_1">
   <g id="patch_2">
    <path d="M 108 304.56 
L 777.6 304.56 
L 777.6 77.76 
L 108 77.76 
z
" style="fill: #eaeaf2"/>
   </g>
   <g id="matplotlib.axis_1">
    <g id="xtick_1">
     <g id="line2d_1"/>
     <g id="text_1">
      <!-- 0 -->
      <g style="fill: #262626" transform="translate(135.655895 318.806875)scale(0.1 -0.1)">
       <defs>
        <path id="LiberationSans-30" d="M 3309 2203 
Q 3309 1569 3189 1136 
Q 3069 703 2861 436 
Q 2653 169 2372 53 
Q 2091 -63 1772 -63 
Q 1450 -63 1172 53 
Q 894 169 689 434 
Q 484 700 367 1133 
Q 250 1566 250 2203 
Q 250 2869 367 3305 
Q 484 3741 690 4000 
Q 897 4259 1178 4364 
Q 1459 4469 1791 4469 
Q 2106 4469 2382 4364 
Q 2659 4259 2865 4000 
Q 3072 3741 3190 3305 
Q 3309 2869 3309 2203 
z
M 2738 2203 
Q 2738 2728 2675 3076 
Q 2613 3425 2491 3633 
Q 2369 3841 2192 3927 
Q 2016 4013 1791 4013 
Q 1553 4013 1372 3925 
Q 1191 3838 1067 3630 
Q 944 3422 881 3073 
Q 819 2725 819 2203 
Q 819 1697 883 1350 
Q 947 1003 1070 792 
Q 1194 581 1372 489 
Q 1550 397 1778 397 
Q 2000 397 2178 489 
Q 2356 581 2479 792 
Q 2603 1003 2670 1350 
Q 2738 1697 2738 2203 
z
" transform="scale(0.015625)"/>
       </defs>
       <use xlink:href="#LiberationSans-30"/>
      </g>
     </g>
    </g>
    <g id="xtick_2">
     <g id="line2d_2"/>
     <g id="text_2">
      <!-- 25 -->
      <g style="fill: #262626" transform="translate(209.348702 318.806875)scale(0.1 -0.1)">
       <defs>
        <path id="LiberationSans-32" d="M 322 0 
L 322 397 
Q 481 763 711 1042 
Q 941 1322 1194 1548 
Q 1447 1775 1695 1969 
Q 1944 2163 2144 2356 
Q 2344 2550 2467 2762 
Q 2591 2975 2591 3244 
Q 2591 3431 2534 3573 
Q 2478 3716 2372 3812 
Q 2266 3909 2117 3957 
Q 1969 4006 1788 4006 
Q 1619 4006 1470 3959 
Q 1322 3913 1206 3819 
Q 1091 3725 1017 3586 
Q 944 3447 922 3263 
L 347 3316 
Q 375 3553 478 3762 
Q 581 3972 762 4130 
Q 944 4288 1198 4378 
Q 1453 4469 1788 4469 
Q 2116 4469 2372 4391 
Q 2628 4313 2804 4159 
Q 2981 4006 3075 3781 
Q 3169 3556 3169 3263 
Q 3169 3041 3089 2841 
Q 3009 2641 2876 2459 
Q 2744 2278 2569 2109 
Q 2394 1941 2203 1780 
Q 2013 1619 1819 1461 
Q 1625 1303 1454 1143 
Q 1284 984 1150 820 
Q 1016 656 941 478 
L 3238 478 
L 3238 0 
L 322 0 
z
" transform="scale(0.015625)"/>
        <path id="LiberationSans-35" d="M 3291 1434 
Q 3291 1103 3191 828 
Q 3091 553 2894 354 
Q 2697 156 2405 46 
Q 2113 -63 1728 -63 
Q 1381 -63 1123 18 
Q 866 100 687 242 
Q 509 384 404 575 
Q 300 766 256 984 
L 825 1050 
Q 859 925 921 808 
Q 984 691 1092 598 
Q 1200 506 1358 451 
Q 1516 397 1741 397 
Q 1959 397 2137 464 
Q 2316 531 2442 662 
Q 2569 794 2637 984 
Q 2706 1175 2706 1422 
Q 2706 1625 2640 1795 
Q 2575 1966 2453 2089 
Q 2331 2213 2154 2281 
Q 1978 2350 1753 2350 
Q 1613 2350 1494 2325 
Q 1375 2300 1273 2256 
Q 1172 2213 1089 2155 
Q 1006 2097 934 2034 
L 384 2034 
L 531 4403 
L 3034 4403 
L 3034 3925 
L 1044 3925 
L 959 2528 
Q 1109 2644 1334 2726 
Q 1559 2809 1869 2809 
Q 2197 2809 2459 2709 
Q 2722 2609 2906 2426 
Q 3091 2244 3191 1991 
Q 3291 1738 3291 1434 
z
" transform="scale(0.015625)"/>
       </defs>
       <use xlink:href="#LiberationSans-32"/>
       <use xlink:href="#LiberationSans-35" x="55.615234"/>
      </g>
     </g>
    </g>
    <g id="xtick_3">
     <g id="line2d_3"/>
     <g id="text_3">
      <!-- 50 -->
      <g style="fill: #262626" transform="translate(285.821977 318.806875)scale(0.1 -0.1)">
       <use xlink:href="#LiberationSans-35"/>
       <use xlink:href="#LiberationSans-30" x="55.615234"/>
      </g>
     </g>
    </g>
    <g id="xtick_4">
     <g id="line2d_4"/>
     <g id="text_4">
      <!-- 75 -->
      <g style="fill: #262626" transform="translate(362.295253 318.806875)scale(0.1 -0.1)">
       <defs>
        <path id="LiberationSans-37" d="M 3238 3947 
Q 2906 3441 2628 2973 
Q 2350 2506 2150 2032 
Q 1950 1559 1839 1061 
Q 1728 563 1728 0 
L 1141 0 
Q 1141 528 1266 1036 
Q 1391 1544 1603 2033 
Q 1816 2522 2097 2994 
Q 2378 3466 2694 3925 
L 328 3925 
L 328 4403 
L 3238 4403 
L 3238 3947 
z
" transform="scale(0.015625)"/>
       </defs>
       <use xlink:href="#LiberationSans-37"/>
       <use xlink:href="#LiberationSans-35" x="55.615234"/>
      </g>
     </g>
    </g>
    <g id="xtick_5">
     <g id="line2d_5"/>
     <g id="text_5">
      <!-- 100 -->
      <g style="fill: #262626" transform="translate(435.988059 318.806875)scale(0.1 -0.1)">
       <defs>
        <path id="LiberationSans-31" d="M 488 0 
L 488 478 
L 1609 478 
L 1609 3866 
L 616 3156 
L 616 3688 
L 1656 4403 
L 2175 4403 
L 2175 478 
L 3247 478 
L 3247 0 
L 488 0 
z
" transform="scale(0.015625)"/>
       </defs>
       <use xlink:href="#LiberationSans-31"/>
       <use xlink:href="#LiberationSans-30" x="55.615234"/>
       <use xlink:href="#LiberationSans-30" x="111.230469"/>
      </g>
     </g>
    </g>
    <g id="xtick_6">
     <g id="line2d_6"/>
     <g id="text_6">
      <!-- 125 -->
      <g style="fill: #262626" transform="translate(512.461335 318.806875)scale(0.1 -0.1)">
       <use xlink:href="#LiberationSans-31"/>
       <use xlink:href="#LiberationSans-32" x="55.615234"/>
       <use xlink:href="#LiberationSans-35" x="111.230469"/>
      </g>
     </g>
    </g>
    <g id="xtick_7">
     <g id="line2d_7"/>
     <g id="text_7">
      <!-- 150 -->
      <g style="fill: #262626" transform="translate(588.93461 318.806875)scale(0.1 -0.1)">
       <use xlink:href="#LiberationSans-31"/>
       <use xlink:href="#LiberationSans-35" x="55.615234"/>
       <use xlink:href="#LiberationSans-30" x="111.230469"/>
      </g>
     </g>
    </g>
    <g id="xtick_8">
     <g id="line2d_8"/>
     <g id="text_8">
      <!-- 175 -->
      <g style="fill: #262626" transform="translate(665.407886 318.806875)scale(0.1 -0.1)">
       <use xlink:href="#LiberationSans-31"/>
       <use xlink:href="#LiberationSans-37" x="55.615234"/>
       <use xlink:href="#LiberationSans-35" x="111.230469"/>
      </g>
     </g>
    </g>
    <g id="xtick_9">
     <g id="line2d_9"/>
     <g id="text_9">
      <!-- 200 -->
      <g style="fill: #262626" transform="translate(741.881161 318.806875)scale(0.1 -0.1)">
       <use xlink:href="#LiberationSans-32"/>
       <use xlink:href="#LiberationSans-30" x="55.615234"/>
       <use xlink:href="#LiberationSans-30" x="111.230469"/>
      </g>
     </g>
    </g>
   </g>
   <g id="matplotlib.axis_2">
    <g id="ytick_1">
     <g id="line2d_10"/>
     <g id="text_10">
      <!-- 10 -->
      <g style="fill: #262626" transform="translate(89.878125 280.519828)scale(0.1 -0.1)">
       <use xlink:href="#LiberationSans-31"/>
       <use xlink:href="#LiberationSans-30" x="55.615234"/>
      </g>
     </g>
    </g>
    <g id="ytick_2">
     <g id="line2d_11"/>
     <g id="text_11">
      <!-- 12 -->
      <g style="fill: #262626" transform="translate(89.878125 247.889577)scale(0.1 -0.1)">
       <use xlink:href="#LiberationSans-31"/>
       <use xlink:href="#LiberationSans-32" x="55.615234"/>
      </g>
     </g>
    </g>
    <g id="ytick_3">
     <g id="line2d_12"/>
     <g id="text_12">
      <!-- 14 -->
      <g style="fill: #262626" transform="translate(89.878125 215.259326)scale(0.1 -0.1)">
       <defs>
        <path id="LiberationSans-34" d="M 2753 997 
L 2753 0 
L 2222 0 
L 2222 997 
L 147 997 
L 147 1434 
L 2163 4403 
L 2753 4403 
L 2753 1441 
L 3372 1441 
L 3372 997 
L 2753 997 
z
M 2222 3769 
Q 2216 3753 2191 3708 
Q 2166 3663 2134 3606 
Q 2103 3550 2070 3492 
Q 2038 3434 2013 3397 
L 884 1734 
Q 869 1709 839 1668 
Q 809 1628 778 1586 
Q 747 1544 715 1503 
Q 684 1463 666 1441 
L 2222 1441 
L 2222 3769 
z
" transform="scale(0.015625)"/>
       </defs>
       <use xlink:href="#LiberationSans-31"/>
       <use xlink:href="#LiberationSans-34" x="55.615234"/>
      </g>
     </g>
    </g>
    <g id="ytick_4">
     <g id="line2d_13"/>
     <g id="text_13">
      <!-- 16 -->
      <g style="fill: #262626" transform="translate(89.878125 182.629076)scale(0.1 -0.1)">
       <defs>
        <path id="LiberationSans-36" d="M 3278 1441 
Q 3278 1109 3186 832 
Q 3094 556 2914 357 
Q 2734 159 2468 48 
Q 2203 -63 1856 -63 
Q 1472 -63 1184 84 
Q 897 231 706 507 
Q 516 784 420 1186 
Q 325 1588 325 2100 
Q 325 2688 433 3131 
Q 541 3575 744 3872 
Q 947 4169 1239 4319 
Q 1531 4469 1900 4469 
Q 2125 4469 2322 4422 
Q 2519 4375 2680 4270 
Q 2841 4166 2962 3994 
Q 3084 3822 3156 3572 
L 2619 3475 
Q 2531 3759 2339 3886 
Q 2147 4013 1894 4013 
Q 1663 4013 1475 3903 
Q 1288 3794 1156 3576 
Q 1025 3359 954 3031 
Q 884 2703 884 2266 
Q 1038 2550 1316 2698 
Q 1594 2847 1953 2847 
Q 2253 2847 2497 2750 
Q 2741 2653 2914 2470 
Q 3088 2288 3183 2027 
Q 3278 1766 3278 1441 
z
M 2706 1416 
Q 2706 1644 2650 1828 
Q 2594 2013 2481 2142 
Q 2369 2272 2203 2342 
Q 2038 2413 1819 2413 
Q 1666 2413 1509 2367 
Q 1353 2322 1226 2220 
Q 1100 2119 1020 1953 
Q 941 1788 941 1550 
Q 941 1306 1003 1095 
Q 1066 884 1183 728 
Q 1300 572 1465 481 
Q 1631 391 1838 391 
Q 2041 391 2202 461 
Q 2363 531 2475 664 
Q 2588 797 2647 987 
Q 2706 1178 2706 1416 
z
" transform="scale(0.015625)"/>
       </defs>
       <use xlink:href="#LiberationSans-31"/>
       <use xlink:href="#LiberationSans-36" x="55.615234"/>
      </g>
     </g>
    </g>
    <g id="ytick_5">
     <g id="line2d_14"/>
     <g id="text_14">
      <!-- 18 -->
      <g style="fill: #262626" transform="translate(89.878125 149.998825)scale(0.1 -0.1)">
       <defs>
        <path id="LiberationSans-38" d="M 3281 1228 
Q 3281 947 3192 711 
Q 3103 475 2920 303 
Q 2738 131 2453 34 
Q 2169 -63 1781 -63 
Q 1394 -63 1111 34 
Q 828 131 642 301 
Q 456 472 367 708 
Q 278 944 278 1222 
Q 278 1463 351 1650 
Q 425 1838 548 1973 
Q 672 2109 830 2192 
Q 988 2275 1156 2303 
L 1156 2316 
Q 972 2359 826 2456 
Q 681 2553 582 2689 
Q 484 2825 432 2990 
Q 381 3156 381 3341 
Q 381 3572 470 3776 
Q 559 3981 734 4136 
Q 909 4291 1168 4380 
Q 1428 4469 1769 4469 
Q 2128 4469 2392 4378 
Q 2656 4288 2829 4133 
Q 3003 3978 3087 3772 
Q 3172 3566 3172 3334 
Q 3172 3153 3120 2987 
Q 3069 2822 2970 2686 
Q 2872 2550 2726 2454 
Q 2581 2359 2391 2322 
L 2391 2309 
Q 2581 2278 2743 2195 
Q 2906 2113 3025 1977 
Q 3144 1841 3212 1653 
Q 3281 1466 3281 1228 
z
M 2588 3303 
Q 2588 3469 2545 3606 
Q 2503 3744 2406 3842 
Q 2309 3941 2153 3995 
Q 1997 4050 1769 4050 
Q 1547 4050 1394 3995 
Q 1241 3941 1142 3842 
Q 1044 3744 1000 3606 
Q 956 3469 956 3303 
Q 956 3172 990 3034 
Q 1025 2897 1115 2784 
Q 1206 2672 1365 2600 
Q 1525 2528 1775 2528 
Q 2041 2528 2202 2600 
Q 2363 2672 2448 2784 
Q 2534 2897 2561 3034 
Q 2588 3172 2588 3303 
z
M 2697 1281 
Q 2697 1441 2653 1589 
Q 2609 1738 2503 1852 
Q 2397 1966 2217 2036 
Q 2038 2106 1769 2106 
Q 1522 2106 1348 2036 
Q 1175 1966 1067 1850 
Q 959 1734 909 1582 
Q 859 1431 859 1269 
Q 859 1066 909 898 
Q 959 731 1068 611 
Q 1178 491 1356 425 
Q 1534 359 1788 359 
Q 2044 359 2219 425 
Q 2394 491 2500 611 
Q 2606 731 2651 901 
Q 2697 1072 2697 1281 
z
" transform="scale(0.015625)"/>
       </defs>
       <use xlink:href="#LiberationSans-31"/>
       <use xlink:href="#LiberationSans-38" x="55.615234"/>
      </g>
     </g>
    </g>
    <g id="ytick_6">
     <g id="line2d_15"/>
     <g id="text_15">
      <!-- 20 -->
      <g style="fill: #262626" transform="translate(89.878125 117.368574)scale(0.1 -0.1)">
       <use xlink:href="#LiberationSans-32"/>
       <use xlink:href="#LiberationSans-30" x="55.615234"/>
      </g>
     </g>
    </g>
    <g id="ytick_7">
     <g id="line2d_16"/>
     <g id="text_16">
      <!-- 22 -->
      <g style="fill: #262626" transform="translate(89.878125 84.738323)scale(0.1 -0.1)">
       <use xlink:href="#LiberationSans-32"/>
       <use xlink:href="#LiberationSans-32" x="55.615234"/>
      </g>
     </g>
    </g>
   </g>
   <g id="line2d_17">
    <path d="M 138.436364 98.621108 
L 141.495295 105.128076 
L 144.554226 108.655249 
L 147.613157 111.94704 
L 150.672088 114.952571 
L 153.731019 117.181816 
L 156.78995 120.186351 
L 159.848881 122.797235 
L 162.907812 124.816617 
L 165.966743 127.556052 
L 169.025674 128.812311 
L 175.143536 133.742685 
L 178.202467 135.815653 
L 181.261398 138.705111 
L 184.320329 140.263875 
L 187.37926 143.042862 
L 190.438191 144.305376 
L 196.556053 148.63211 
L 199.614984 149.919675 
L 202.673915 152.628427 
L 205.732846 153.7824 
L 208.791777 155.438813 
L 211.850708 157.818766 
L 214.909639 159.209676 
L 217.96857 161.303462 
L 221.027501 163.124898 
L 224.086432 164.614391 
L 227.145363 166.38417 
L 233.263225 169.359204 
L 236.322156 171.243811 
L 242.440018 173.597655 
L 245.498949 175.115747 
L 248.55788 176.022793 
L 251.616811 178.461404 
L 254.675742 179.047835 
L 257.734673 180.587523 
L 260.793604 182.353987 
L 263.852535 182.963119 
L 266.911466 184.554977 
L 269.970397 185.938154 
L 273.029328 187.010719 
L 276.088259 188.883688 
L 279.14719 189.298452 
L 285.265053 192.36328 
L 288.323984 193.055031 
L 291.382915 194.474057 
L 294.441846 195.42971 
L 300.559708 198.191955 
L 303.618639 198.83317 
L 306.67757 199.310997 
L 309.736501 200.968002 
L 312.795432 201.947507 
L 315.854363 203.428412 
L 318.913294 204.170949 
L 321.972225 206.03217 
L 325.031156 206.287032 
L 328.090087 207.155693 
L 331.149018 208.842805 
L 334.207949 209.134962 
L 337.26688 209.911154 
L 343.384742 212.329725 
L 346.443673 212.994342 
L 349.502604 213.502026 
L 352.561535 214.839381 
L 355.620466 215.995469 
L 358.679397 217.02937 
L 361.738328 217.6877 
L 364.797259 218.637986 
L 370.915121 219.791367 
L 373.974052 220.849213 
L 377.032983 221.445633 
L 380.091914 223.096881 
L 383.150845 223.440789 
L 386.209776 224.553684 
L 389.268707 225.519326 
L 392.327638 225.841078 
L 395.386569 226.528628 
L 398.4455 227.907728 
L 401.504431 228.642844 
L 404.563362 229.184479 
L 410.681224 230.852251 
L 413.740155 231.843115 
L 416.799086 232.011918 
L 419.858017 233.1887 
L 422.916948 233.712909 
L 425.975879 234.424825 
L 429.03481 234.947525 
L 432.093741 236.077598 
L 435.152672 236.682887 
L 441.270534 238.26779 
L 444.329466 238.798362 
L 447.388397 239.502157 
L 450.447328 239.929385 
L 453.506259 241.157279 
L 456.56519 241.632539 
L 459.624121 242.387585 
L 462.683052 242.833111 
L 465.741983 243.921672 
L 468.800914 244.802033 
L 471.859845 245.15176 
L 474.918776 245.792835 
L 481.036638 246.661278 
L 484.095569 247.601294 
L 487.1545 248.275884 
L 493.272362 249.984951 
L 499.390224 250.659774 
L 502.449155 251.268314 
L 505.508086 252.358586 
L 508.567017 252.635356 
L 511.625948 253.341609 
L 514.684879 253.638636 
L 517.74381 254.799081 
L 520.802741 255.183365 
L 523.861672 255.694379 
L 529.979534 257.090081 
L 533.038465 257.760999 
L 536.097396 258.649436 
L 539.156327 258.907518 
L 542.215258 259.319871 
L 545.274189 259.909196 
L 548.33312 260.726356 
L 551.392051 261.686365 
L 554.450982 261.756896 
L 557.509913 262.590937 
L 563.627775 263.896208 
L 566.686706 263.860515 
L 569.745637 264.777099 
L 572.804568 265.217085 
L 575.863499 265.791442 
L 578.92243 266.486601 
L 581.981361 266.808648 
L 585.040292 267.326477 
L 588.099223 268.432185 
L 591.158154 268.792803 
L 594.217085 269.465199 
L 597.276016 269.920558 
L 603.393878 271.292236 
L 609.511741 271.88433 
L 615.629603 273.133261 
L 621.747465 273.884838 
L 624.806396 274.833256 
L 627.865327 275.361526 
L 633.983189 275.99367 
L 637.04212 276.573286 
L 640.101051 277.355966 
L 649.277844 279.117887 
L 652.336775 279.473371 
L 655.395706 279.642252 
L 658.454637 280.441331 
L 664.572499 281.442636 
L 667.63143 281.736318 
L 676.808223 283.166297 
L 679.867154 283.869282 
L 685.985016 284.693148 
L 689.043947 285.521806 
L 692.102878 285.763115 
L 695.161809 286.218957 
L 698.22074 286.485037 
L 701.279671 287.260544 
L 707.397533 288.32225 
L 710.456464 288.673875 
L 713.515395 289.359636 
L 716.574326 289.696931 
L 719.633257 289.792792 
L 722.692188 290.611803 
L 725.751119 290.924483 
L 728.81005 291.449439 
L 731.868981 291.747384 
L 734.927912 292.304641 
L 741.045774 292.983463 
L 744.104705 293.534854 
L 747.163636 294.250909 
L 747.163636 294.250909 
" clip-path="url(#pbe9843a8a2)" style="fill: none; stroke: #ff0000; stroke-width: 1.75; stroke-linecap: round"/>
   </g>
   <g id="line2d_18">
    <path d="M 138.436364 88.069091 
L 144.554226 98.328437 
L 147.613157 107.261383 
L 150.672088 114.952602 
L 153.731019 118.874203 
L 156.78995 121.393349 
L 159.848881 123.595148 
L 162.907812 126.263166 
L 165.966743 128.300721 
L 175.143536 135.046431 
L 181.261398 138.802793 
L 187.37926 143.235548 
L 190.438191 144.491901 
L 193.497122 146.183634 
L 196.556053 148.508445 
L 202.673915 152.031634 
L 205.732846 153.341169 
L 208.791777 155.381555 
L 211.850708 156.351243 
L 214.909639 158.588921 
L 217.96857 160.584341 
L 221.027501 162.189254 
L 224.086432 162.30598 
L 227.145363 165.112818 
L 230.204294 166.267226 
L 233.263225 167.252846 
L 236.322156 169.177067 
L 239.381087 169.964586 
L 242.440018 171.460428 
L 245.498949 173.56803 
L 251.616811 176.327849 
L 254.675742 176.880329 
L 257.734673 177.847029 
L 260.793604 180.113368 
L 263.852535 180.492066 
L 269.970397 183.634768 
L 276.088259 184.929225 
L 279.14719 186.79737 
L 282.206122 187.816692 
L 285.265053 189.102343 
L 288.323984 189.607445 
L 291.382915 190.815968 
L 294.441846 192.318671 
L 297.500777 192.893354 
L 300.559708 194.053846 
L 303.618639 194.706886 
L 306.67757 195.021449 
L 312.795432 197.697293 
L 315.854363 198.341091 
L 318.913294 198.764102 
L 321.972225 200.865855 
L 325.031156 201.108113 
L 328.090087 201.797204 
L 331.149018 201.94077 
L 334.207949 204.153912 
L 337.26688 205.158172 
L 340.325811 204.986957 
L 343.384742 206.008722 
L 346.443673 208.148097 
L 349.502604 208.523668 
L 352.561535 209.415512 
L 355.620466 208.54433 
L 358.679397 210.366124 
L 361.738328 210.536016 
L 364.797259 211.908768 
L 367.85619 213.556095 
L 370.915121 214.543194 
L 373.974052 214.637685 
L 377.032983 215.363076 
L 383.150845 216.393554 
L 386.209776 216.262109 
L 389.268707 217.081074 
L 392.327638 218.461854 
L 395.386569 220.273472 
L 398.4455 220.151954 
L 401.504431 220.372211 
L 404.563362 221.270591 
L 407.622293 222.553067 
L 410.681224 223.276669 
L 413.740155 223.550855 
L 416.799086 222.944182 
L 419.858017 224.749996 
L 422.916948 226.018796 
L 425.975879 225.339399 
L 429.03481 226.304123 
L 432.093741 226.917222 
L 435.152672 228.451075 
L 438.211603 227.250845 
L 441.270534 227.132765 
L 444.329466 230.80702 
L 447.388397 230.0893 
L 450.447328 231.181844 
L 453.506259 232.507731 
L 456.56519 232.155546 
L 459.624121 232.956135 
L 462.683052 233.232562 
L 465.741983 234.434659 
L 468.800914 235.116328 
L 471.859845 234.981242 
L 474.918776 236.930373 
L 481.036638 236.974328 
L 484.095569 237.764602 
L 487.1545 235.869166 
L 490.213431 238.82682 
L 493.272362 238.868084 
L 496.331293 239.043515 
L 499.390224 240.770117 
L 502.449155 241.069851 
L 505.508086 242.453012 
L 508.567017 241.864544 
L 514.684879 242.469863 
L 517.74381 244.338241 
L 520.802741 244.343718 
L 523.861672 245.279082 
L 526.920603 245.420236 
L 529.979534 242.983243 
L 533.038465 246.055632 
L 536.097396 247.900391 
L 539.156327 247.604095 
L 542.215258 247.812886 
L 545.274189 248.662611 
L 551.392051 249.43983 
L 554.450982 247.045656 
L 557.509913 250.92604 
L 560.568844 251.430644 
L 566.686706 253.236007 
L 569.745637 253.900919 
L 572.804568 253.346572 
L 575.863499 253.013711 
L 578.92243 253.952701 
L 581.981361 254.029984 
L 585.040292 255.43916 
L 588.099223 255.764132 
L 591.158154 256.617296 
L 594.217085 257.995696 
L 597.276016 256.142752 
L 600.334947 258.169462 
L 603.393878 258.358072 
L 606.45281 258.07956 
L 609.511741 260.059748 
L 612.570672 259.667186 
L 615.629603 260.602892 
L 618.688534 259.685064 
L 621.747465 260.02505 
L 624.806396 262.512129 
L 627.865327 261.600385 
L 630.924258 261.087923 
L 633.983189 263.758664 
L 637.04212 263.642903 
L 640.101051 261.785587 
L 643.159982 264.786357 
L 646.218913 263.663145 
L 649.277844 263.016578 
L 652.336775 266.319058 
L 655.395706 265.443178 
L 658.454637 266.658251 
L 661.513568 265.082295 
L 664.572499 267.56746 
L 667.63143 267.560987 
L 670.690361 268.02243 
L 673.749292 269.397734 
L 676.808223 267.817903 
L 679.867154 269.762086 
L 682.926085 271.932875 
L 685.985016 272.105054 
L 689.043947 271.628582 
L 692.102878 272.440591 
L 695.161809 270.943567 
L 698.22074 272.083878 
L 701.279671 274.144196 
L 704.338602 273.540915 
L 707.397533 274.961045 
L 710.456464 273.990346 
L 713.515395 272.75643 
L 716.574326 275.300767 
L 719.633257 274.152334 
L 722.692188 275.973536 
L 725.751119 277.159374 
L 728.81005 275.066599 
L 731.868981 274.397082 
L 734.927912 275.092988 
L 737.986843 277.303578 
L 741.045774 277.928253 
L 744.104705 278.35268 
L 747.163636 278.091937 
L 747.163636 278.091937 
" clip-path="url(#pbe9843a8a2)" style="fill: none; stroke: #008000; stroke-width: 1.75; stroke-linecap: round"/>
   </g>
   <g id="patch_3">
    <path d="M 108 304.56 
L 108 77.76 
" style="fill: none"/>
   </g>
   <g id="patch_4">
    <path d="M 777.6 304.56 
L 777.6 77.76 
" style="fill: none"/>
   </g>
   <g id="patch_5">
    <path d="M 108 304.56 
L 777.6 304.56 
" style="fill: none"/>
   </g>
   <g id="patch_6">
    <path d="M 108 77.76 
L 777.6 77.76 
" style="fill: none"/>
   </g>
  </g>
  <g id="axes_2">
   <g id="patch_7">
    <path d="M 108 576.72 
L 777.6 576.72 
L 777.6 349.92 
L 108 349.92 
z
" style="fill: #eaeaf2"/>
   </g>
   <g id="matplotlib.axis_3">
    <g id="xtick_10">
     <g id="line2d_19"/>
     <g id="text_17">
      <!-- 0 -->
      <g style="fill: #262626" transform="translate(135.655895 590.966875)scale(0.1 -0.1)">
       <use xlink:href="#LiberationSans-30"/>
      </g>
     </g>
    </g>
    <g id="xtick_11">
     <g id="line2d_20"/>
     <g id="text_18">
      <!-- 25 -->
      <g style="fill: #262626" transform="translate(209.348702 590.966875)scale(0.1 -0.1)">
       <use xlink:href="#LiberationSans-32"/>
       <use xlink:href="#LiberationSans-35" x="55.615234"/>
      </g>
     </g>
    </g>
    <g id="xtick_12">
     <g id="line2d_21"/>
     <g id="text_19">
      <!-- 50 -->
      <g style="fill: #262626" transform="translate(285.821977 590.966875)scale(0.1 -0.1)">
       <use xlink:href="#LiberationSans-35"/>
       <use xlink:href="#LiberationSans-30" x="55.615234"/>
      </g>
     </g>
    </g>
    <g id="xtick_13">
     <g id="line2d_22"/>
     <g id="text_20">
      <!-- 75 -->
      <g style="fill: #262626" transform="translate(362.295253 590.966875)scale(0.1 -0.1)">
       <use xlink:href="#LiberationSans-37"/>
       <use xlink:href="#LiberationSans-35" x="55.615234"/>
      </g>
     </g>
    </g>
    <g id="xtick_14">
     <g id="line2d_23"/>
     <g id="text_21">
      <!-- 100 -->
      <g style="fill: #262626" transform="translate(435.988059 590.966875)scale(0.1 -0.1)">
       <use xlink:href="#LiberationSans-31"/>
       <use xlink:href="#LiberationSans-30" x="55.615234"/>
       <use xlink:href="#LiberationSans-30" x="111.230469"/>
      </g>
     </g>
    </g>
    <g id="xtick_15">
     <g id="line2d_24"/>
     <g id="text_22">
      <!-- 125 -->
      <g style="fill: #262626" transform="translate(512.461335 590.966875)scale(0.1 -0.1)">
       <use xlink:href="#LiberationSans-31"/>
       <use xlink:href="#LiberationSans-32" x="55.615234"/>
       <use xlink:href="#LiberationSans-35" x="111.230469"/>
      </g>
     </g>
    </g>
    <g id="xtick_16">
     <g id="line2d_25"/>
     <g id="text_23">
      <!-- 150 -->
      <g style="fill: #262626" transform="translate(588.93461 590.966875)scale(0.1 -0.1)">
       <use xlink:href="#LiberationSans-31"/>
       <use xlink:href="#LiberationSans-35" x="55.615234"/>
       <use xlink:href="#LiberationSans-30" x="111.230469"/>
      </g>
     </g>
    </g>
    <g id="xtick_17">
     <g id="line2d_26"/>
     <g id="text_24">
      <!-- 175 -->
      <g style="fill: #262626" transform="translate(665.407886 590.966875)scale(0.1 -0.1)">
       <use xlink:href="#LiberationSans-31"/>
       <use xlink:href="#LiberationSans-37" x="55.615234"/>
       <use xlink:href="#LiberationSans-35" x="111.230469"/>
      </g>
     </g>
    </g>
    <g id="xtick_18">
     <g id="line2d_27"/>
     <g id="text_25">
      <!-- 200 -->
      <g style="fill: #262626" transform="translate(741.881161 590.966875)scale(0.1 -0.1)">
       <use xlink:href="#LiberationSans-32"/>
       <use xlink:href="#LiberationSans-30" x="55.615234"/>
       <use xlink:href="#LiberationSans-30" x="111.230469"/>
      </g>
     </g>
    </g>
   </g>
   <g id="matplotlib.axis_4">
    <g id="ytick_8">
     <g id="line2d_28"/>
     <g id="text_26">
      <!-- 0.2 -->
      <g style="fill: #262626" transform="translate(87.1 558.619455)scale(0.1 -0.1)">
       <defs>
        <path id="LiberationSans-2e" d="M 584 0 
L 584 684 
L 1194 684 
L 1194 0 
L 584 0 
z
" transform="scale(0.015625)"/>
       </defs>
       <use xlink:href="#LiberationSans-30"/>
       <use xlink:href="#LiberationSans-2e" x="55.615234"/>
       <use xlink:href="#LiberationSans-32" x="83.398438"/>
      </g>
     </g>
    </g>
    <g id="ytick_9">
     <g id="line2d_29"/>
     <g id="text_27">
      <!-- 0.4 -->
      <g style="fill: #262626" transform="translate(87.1 508.552596)scale(0.1 -0.1)">
       <use xlink:href="#LiberationSans-30"/>
       <use xlink:href="#LiberationSans-2e" x="55.615234"/>
       <use xlink:href="#LiberationSans-34" x="83.398438"/>
      </g>
     </g>
    </g>
    <g id="ytick_10">
     <g id="line2d_30"/>
     <g id="text_28">
      <!-- 0.6 -->
      <g style="fill: #262626" transform="translate(87.1 458.485737)scale(0.1 -0.1)">
       <use xlink:href="#LiberationSans-30"/>
       <use xlink:href="#LiberationSans-2e" x="55.615234"/>
       <use xlink:href="#LiberationSans-36" x="83.398438"/>
      </g>
     </g>
    </g>
    <g id="ytick_11">
     <g id="line2d_31"/>
     <g id="text_29">
      <!-- 0.8 -->
      <g style="fill: #262626" transform="translate(87.1 408.418878)scale(0.1 -0.1)">
       <use xlink:href="#LiberationSans-30"/>
       <use xlink:href="#LiberationSans-2e" x="55.615234"/>
       <use xlink:href="#LiberationSans-38" x="83.398438"/>
      </g>
     </g>
    </g>
    <g id="ytick_12">
     <g id="line2d_32"/>
     <g id="text_30">
      <!-- 1.0 -->
      <g style="fill: #262626" transform="translate(87.1 358.352019)scale(0.1 -0.1)">
       <use xlink:href="#LiberationSans-31"/>
       <use xlink:href="#LiberationSans-2e" x="55.615234"/>
       <use xlink:href="#LiberationSans-30" x="83.398438"/>
      </g>
     </g>
    </g>
   </g>
   <g id="line2d_33">
    <path d="M 138.436364 532.333919 
L 141.495295 511.798683 
L 144.554226 505.198072 
L 147.613157 493.708119 
L 150.672088 486.374107 
L 153.731019 485.396238 
L 156.78995 483.807202 
L 159.848881 476.228723 
L 162.907812 474.517453 
L 165.966743 473.539585 
L 169.025674 476.47319 
L 172.084605 472.928417 
L 175.143536 468.89471 
L 178.202467 467.550141 
L 181.261398 461.071763 
L 184.320329 459.971662 
L 187.37926 454.593386 
L 190.438191 457.16029 
L 193.497122 454.593386 
L 196.556053 451.537547 
L 199.614984 451.29308 
L 202.673915 444.081301 
L 205.732846 447.50384 
L 208.791777 450.315212 
L 211.850708 442.981199 
L 214.909639 445.059169 
L 221.027501 437.358456 
L 224.086432 438.947492 
L 227.145363 434.669318 
L 230.204294 435.036019 
L 233.263225 431.491246 
L 236.322156 429.657743 
L 239.381087 431.491246 
L 242.440018 430.880078 
L 245.498949 429.535509 
L 248.55788 430.024444 
L 251.616811 426.846372 
L 254.675742 429.779977 
L 257.734673 425.624036 
L 260.793604 422.201497 
L 263.852535 424.401701 
L 266.911466 425.501803 
L 269.970397 418.656724 
L 273.029328 424.646168 
L 276.088259 415.723119 
L 279.14719 422.445964 
L 282.206122 419.512359 
L 285.265053 416.334287 
L 288.323984 416.08982 
L 291.382915 417.923323 
L 294.441846 413.278448 
L 297.500777 410.956011 
L 300.559708 412.178346 
L 303.618639 414.745251 
L 306.67757 412.911748 
L 309.736501 409.733676 
L 312.795432 411.567179 
L 315.854363 406.677837 
L 318.913294 409.000274 
L 321.972225 402.888597 
L 325.031156 406.800071 
L 328.090087 406.555603 
L 331.149018 397.999256 
L 334.207949 402.888597 
L 337.26688 404.110933 
L 340.325811 403.255298 
L 343.384742 400.56616 
L 346.443673 401.055094 
L 349.502604 403.499765 
L 355.620466 396.043519 
L 358.679397 395.799052 
L 361.738328 395.676818 
L 364.797259 393.965549 
L 367.85619 397.021387 
L 370.915121 397.632555 
L 373.974052 395.187884 
L 377.032983 398.243723 
L 380.091914 391.276411 
L 383.150845 394.210016 
L 386.209776 389.442908 
L 389.268707 389.565141 
L 392.327638 393.476614 
L 395.386569 389.931842 
L 398.4455 387.976105 
L 401.504431 389.19844 
L 404.563362 392.009812 
L 407.622293 387.364937 
L 410.681224 387.731638 
L 413.740155 386.509303 
L 416.799086 389.076207 
L 419.858017 386.876003 
L 422.916948 385.164734 
L 429.03481 385.653668 
L 432.093741 383.208997 
L 435.152672 384.675799 
L 438.211603 380.030925 
L 441.270534 381.864428 
L 444.329466 381.986661 
L 447.388397 381.497727 
L 450.447328 382.353362 
L 456.56519 378.441889 
L 459.624121 377.952955 
L 462.683052 380.642092 
L 465.741983 377.708487 
L 468.800914 375.38605 
L 471.859845 378.441889 
L 474.918776 378.197422 
L 477.977707 378.930823 
L 481.036638 380.275392 
L 484.095569 376.363919 
L 487.1545 377.341787 
L 490.213431 373.919248 
L 493.272362 374.285948 
L 496.331293 375.141583 
L 499.390224 375.141583 
L 502.449155 374.897116 
L 505.508086 372.941379 
L 508.567017 373.919248 
L 511.625948 375.508284 
L 514.684879 374.652649 
L 517.74381 370.618942 
L 520.802741 372.696912 
L 523.861672 373.063613 
L 526.920603 370.863409 
L 529.979534 371.107876 
L 533.038465 370.130008 
L 536.097396 369.029906 
L 539.156327 369.396607 
L 542.215258 370.496708 
L 545.274189 370.863409 
L 548.33312 368.785439 
L 551.392051 368.052038 
L 554.450982 369.274373 
L 557.509913 367.563103 
L 560.568844 366.951936 
L 563.627775 367.929804 
L 566.686706 372.696912 
L 569.745637 367.196403 
L 572.804568 367.318636 
L 575.863499 366.951936 
L 578.92243 367.44087 
L 581.981361 369.396607 
L 585.040292 369.15214 
L 588.099223 364.996199 
L 591.158154 366.463002 
L 594.217085 365.974067 
L 597.276016 365.7296 
L 600.334947 364.751732 
L 603.393878 364.873966 
L 606.45281 365.7296 
L 609.511741 366.707469 
L 612.570672 365.3629 
L 615.629603 363.65163 
L 618.688534 366.340768 
L 621.747465 365.7296 
L 624.806396 363.65163 
L 627.865327 364.262798 
L 630.924258 365.7296 
L 633.983189 366.707469 
L 637.04212 366.340768 
L 640.101051 364.507265 
L 643.159982 363.162696 
L 646.218913 362.795995 
L 649.277844 362.307061 
L 652.336775 363.284929 
L 655.395706 364.873966 
L 658.454637 362.429295 
L 661.513568 362.551528 
L 664.572499 363.284929 
L 667.63143 364.507265 
L 670.690361 363.65163 
L 673.749292 364.385031 
L 676.808223 364.385031 
L 679.867154 362.795995 
L 682.926085 363.773864 
L 685.985016 362.184828 
L 689.043947 361.57366 
L 692.102878 361.451426 
L 695.161809 362.551528 
L 698.22074 363.284929 
L 704.338602 360.229091 
L 707.397533 361.084726 
L 710.456464 361.329193 
L 713.515395 360.595792 
L 716.574326 361.57366 
L 719.633257 364.140564 
L 722.692188 361.206959 
L 725.751119 362.184828 
L 728.81005 362.551528 
L 731.868981 362.551528 
L 734.927912 362.429295 
L 737.986843 362.551528 
L 744.104705 361.57366 
L 747.163636 361.57366 
L 747.163636 361.57366 
" clip-path="url(#p92cf7535bf)" style="fill: none; stroke: #ff0000; stroke-width: 1.75; stroke-linecap: round"/>
   </g>
   <g id="line2d_34">
    <path d="M 138.436364 566.410909 
L 141.495295 552.175349 
L 144.554226 550.720943 
L 147.613157 527.670796 
L 150.672088 495.453476 
L 153.731019 481.746794 
L 156.78995 479.719436 
L 159.848881 477.912448 
L 162.907812 473.549224 
L 165.966743 474.38661 
L 169.025674 471.169281 
L 172.084605 469.141938 
L 175.143536 465.572023 
L 178.202467 466.673841 
L 181.261398 465.351653 
L 184.320329 459.269595 
L 187.37926 457.991484 
L 190.438191 462.486924 
L 193.497122 460.812151 
L 196.556053 456.360773 
L 199.614984 455.523387 
L 202.673915 456.052265 
L 205.732846 457.418529 
L 208.791777 453.848615 
L 211.850708 456.052265 
L 214.909639 452.967166 
L 217.96857 448.692081 
L 221.027501 447.546186 
L 224.086432 456.316711 
L 227.145363 449.176897 
L 233.263225 447.898772 
L 236.322156 446.973246 
L 239.381087 448.471726 
L 242.440018 449.13282 
L 245.498949 443.667778 
L 248.55788 443.050746 
L 251.616811 440.626741 
L 257.734673 448.868374 
L 260.793604 438.423091 
L 263.852535 444.152579 
L 266.911466 442.610022 
L 269.970397 440.450449 
L 273.029328 442.962607 
L 276.088259 445.827352 
L 279.14719 440.494525 
L 282.206122 438.687537 
L 285.265053 438.070505 
L 288.323984 442.21336 
L 291.382915 441.111542 
L 294.441846 435.558346 
L 297.500777 438.599383 
L 300.559708 435.6465 
L 303.618639 439.392693 
L 306.67757 445.915491 
L 309.736501 440.803034 
L 312.795432 437.321273 
L 315.854363 438.731599 
L 318.913294 441.067465 
L 321.972225 438.114582 
L 325.031156 440.626741 
L 328.090087 442.654099 
L 331.149018 445.21032 
L 334.207949 434.765037 
L 337.26688 435.029483 
L 340.325811 440.979326 
L 343.384742 441.023403 
L 346.443673 432.86991 
L 349.502604 435.293915 
L 352.561535 432.64954 
L 355.620466 441.420051 
L 358.679397 437.189057 
L 361.738328 440.406372 
L 367.85619 432.64954 
L 370.915121 434.456529 
L 373.974052 433.575065 
L 377.032983 436.087224 
L 380.091914 435.999085 
L 383.150845 434.853191 
L 386.209776 441.728559 
L 389.268707 439.745278 
L 392.327638 437.409412 
L 395.386569 431.988447 
L 398.4455 433.310634 
L 401.504431 439.657139 
L 404.563362 436.748318 
L 407.622293 433.44285 
L 410.681224 430.357751 
L 413.740155 434.280236 
L 416.799086 440.406372 
L 419.858017 434.765037 
L 422.916948 432.737679 
L 425.975879 435.999085 
L 429.03481 434.36839 
L 432.093741 435.955009 
L 435.152672 432.605463 
L 438.211603 440.494525 
L 441.270534 442.962607 
L 444.329466 430.754398 
L 447.388397 437.100903 
L 453.506259 430.049228 
L 456.56519 435.470208 
L 459.624121 434.36839 
L 462.683052 435.337992 
L 465.741983 432.120662 
L 468.800914 431.988447 
L 471.859845 437.056826 
L 474.918776 430.578105 
L 481.036638 434.015804 
L 484.095569 432.517325 
L 487.1545 442.345591 
L 490.213431 432.252878 
L 493.272362 435.337992 
L 496.331293 437.541627 
L 499.390224 434.324313 
L 502.449155 435.778716 
L 505.508086 431.018845 
L 508.567017 434.676898 
L 511.625948 435.205761 
L 514.684879 432.913972 
L 517.74381 429.564427 
L 520.802741 433.134341 
L 523.861672 429.696657 
L 526.920603 433.663219 
L 529.979534 438.731599 
L 533.038465 431.94437 
L 536.097396 429.255918 
L 539.156327 429.828873 
L 542.215258 433.839512 
L 545.274189 433.310634 
L 548.33312 435.293915 
L 551.392051 431.94437 
L 554.450982 447.281755 
L 557.509913 431.679938 
L 560.568844 429.608503 
L 563.627775 429.299995 
L 566.686706 426.699697 
L 569.745637 426.523405 
L 572.804568 432.429171 
L 575.863499 432.208816 
L 578.92243 433.971728 
L 581.981361 437.36535 
L 585.040292 430.798475 
L 588.099223 430.622182 
L 591.158154 430.313674 
L 594.217085 426.920052 
L 597.276016 434.897253 
L 600.334947 427.889654 
L 603.393878 430.886614 
L 606.45281 433.134341 
L 609.511741 428.462609 
L 612.570672 431.415492 
L 615.629603 429.87295 
L 618.688534 439.128261 
L 621.747465 433.927651 
L 624.806396 427.845592 
L 627.865327 432.517325 
L 630.924258 438.731599 
L 633.983189 429.520365 
L 637.04212 431.459569 
L 640.101051 441.111542 
L 643.159982 429.784796 
L 646.218913 433.22248 
L 649.277844 438.64346 
L 652.336775 430.622182 
L 655.395706 436.704241 
L 658.454637 434.059866 
L 661.513568 439.172338 
L 664.572499 432.64954 
L 667.63143 433.266557 
L 670.690361 430.974768 
L 673.749292 431.239199 
L 676.808223 435.778716 
L 679.867154 435.470208 
L 682.926085 428.550748 
L 685.985016 426.126742 
L 689.043947 431.459569 
L 692.102878 428.506686 
L 695.161809 433.575065 
L 698.22074 431.988447 
L 701.279671 429.740719 
L 704.338602 433.002126 
L 707.397533 428.859271 
L 710.456464 430.886614 
L 713.515395 434.72096 
L 716.574326 431.94437 
L 719.633257 437.629781 
L 722.692188 433.090264 
L 725.751119 428.021885 
L 728.81005 433.134341 
L 731.868981 437.982366 
L 734.927912 439.128261 
L 741.045774 433.134341 
L 744.104705 436.351671 
L 747.163636 436.43981 
L 747.163636 436.43981 
" clip-path="url(#p92cf7535bf)" style="fill: none; stroke: #008000; stroke-width: 1.75; stroke-linecap: round"/>
   </g>
   <g id="patch_8">
    <path d="M 108 576.72 
L 108 349.92 
" style="fill: none"/>
   </g>
   <g id="patch_9">
    <path d="M 777.6 576.72 
L 777.6 349.92 
" style="fill: none"/>
   </g>
   <g id="patch_10">
    <path d="M 108 576.72 
L 777.6 576.72 
" style="fill: none"/>
   </g>
   <g id="patch_11">
    <path d="M 108 349.92 
L 777.6 349.92 
" style="fill: none"/>
   </g>
  </g>
  <g id="text_31">
   <!-- Plots of model performance: mel_spectrogram, draghici20_crnn - lr 1e-05, batch 16, 128 steps/epoch -->
   <g style="fill: #262626" transform="translate(163.544062 21.65625)scale(0.12 -0.12)">
    <defs>
     <path id="LiberationSans-50" d="M 3931 3078 
Q 3931 2791 3836 2542 
Q 3741 2294 3552 2111 
Q 3363 1928 3078 1822 
Q 2794 1716 2416 1716 
L 1122 1716 
L 1122 0 
L 525 0 
L 525 4403 
L 2378 4403 
Q 2769 4403 3059 4308 
Q 3350 4213 3544 4039 
Q 3738 3866 3834 3620 
Q 3931 3375 3931 3078 
z
M 3331 3072 
Q 3331 3491 3075 3708 
Q 2819 3925 2306 3925 
L 1122 3925 
L 1122 2188 
L 2331 2188 
Q 2847 2188 3089 2416 
Q 3331 2644 3331 3072 
z
" transform="scale(0.015625)"/>
     <path id="LiberationSans-6c" d="M 431 0 
L 431 4638 
L 994 4638 
L 994 0 
L 431 0 
z
" transform="scale(0.015625)"/>
     <path id="LiberationSans-6f" d="M 3291 1694 
Q 3291 806 2900 371 
Q 2509 -63 1766 -63 
Q 1413 -63 1134 43 
Q 856 150 664 369 
Q 472 588 370 917 
Q 269 1247 269 1694 
Q 269 3444 1784 3444 
Q 2178 3444 2464 3334 
Q 2750 3225 2933 3006 
Q 3116 2788 3203 2459 
Q 3291 2131 3291 1694 
z
M 2700 1694 
Q 2700 2088 2639 2344 
Q 2578 2600 2461 2753 
Q 2344 2906 2175 2967 
Q 2006 3028 1794 3028 
Q 1578 3028 1404 2964 
Q 1231 2900 1109 2745 
Q 988 2591 923 2334 
Q 859 2078 859 1694 
Q 859 1300 928 1042 
Q 997 784 1117 631 
Q 1238 478 1402 415 
Q 1566 353 1759 353 
Q 1975 353 2150 414 
Q 2325 475 2447 628 
Q 2569 781 2634 1040 
Q 2700 1300 2700 1694 
z
" transform="scale(0.015625)"/>
     <path id="LiberationSans-74" d="M 1731 25 
Q 1603 -9 1470 -29 
Q 1338 -50 1163 -50 
Q 488 -50 488 716 
L 488 2972 
L 97 2972 
L 97 3381 
L 509 3381 
L 675 4138 
L 1050 4138 
L 1050 3381 
L 1675 3381 
L 1675 2972 
L 1050 2972 
L 1050 838 
Q 1050 594 1129 495 
Q 1209 397 1406 397 
Q 1488 397 1564 409 
Q 1641 422 1731 441 
L 1731 25 
z
" transform="scale(0.015625)"/>
     <path id="LiberationSans-73" d="M 2969 934 
Q 2969 697 2876 511 
Q 2784 325 2609 198 
Q 2434 72 2179 4 
Q 1925 -63 1597 -63 
Q 1303 -63 1067 -17 
Q 831 28 653 128 
Q 475 228 354 392 
Q 234 556 178 794 
L 675 891 
Q 747 619 972 492 
Q 1197 366 1597 366 
Q 1778 366 1929 391 
Q 2081 416 2190 477 
Q 2300 538 2361 639 
Q 2422 741 2422 891 
Q 2422 1044 2350 1142 
Q 2278 1241 2150 1306 
Q 2022 1372 1839 1420 
Q 1656 1469 1438 1528 
Q 1234 1581 1034 1647 
Q 834 1713 673 1820 
Q 513 1928 413 2087 
Q 313 2247 313 2488 
Q 313 2950 642 3192 
Q 972 3434 1603 3434 
Q 2163 3434 2492 3237 
Q 2822 3041 2909 2606 
L 2403 2544 
Q 2375 2675 2300 2764 
Q 2225 2853 2119 2908 
Q 2013 2963 1880 2986 
Q 1747 3009 1603 3009 
Q 1222 3009 1040 2893 
Q 859 2778 859 2544 
Q 859 2406 926 2317 
Q 994 2228 1114 2167 
Q 1234 2106 1403 2061 
Q 1572 2016 1775 1966 
Q 1909 1931 2050 1892 
Q 2191 1853 2323 1798 
Q 2456 1744 2573 1670 
Q 2691 1597 2778 1494 
Q 2866 1391 2917 1253 
Q 2969 1116 2969 934 
z
" transform="scale(0.015625)"/>
     <path id="LiberationSans-20" transform="scale(0.015625)"/>
     <path id="LiberationSans-66" d="M 1128 2972 
L 1128 0 
L 566 0 
L 566 2972 
L 91 2972 
L 91 3381 
L 566 3381 
L 566 3763 
Q 566 3947 600 4105 
Q 634 4263 726 4380 
Q 819 4497 978 4564 
Q 1138 4631 1391 4631 
Q 1491 4631 1598 4622 
Q 1706 4613 1788 4594 
L 1788 4166 
Q 1734 4175 1664 4183 
Q 1594 4191 1538 4191 
Q 1413 4191 1333 4156 
Q 1253 4122 1208 4058 
Q 1163 3994 1145 3900 
Q 1128 3806 1128 3684 
L 1128 3381 
L 1788 3381 
L 1788 2972 
L 1128 2972 
z
" transform="scale(0.015625)"/>
     <path id="LiberationSans-6d" d="M 2400 0 
L 2400 2144 
Q 2400 2391 2369 2556 
Q 2338 2722 2264 2823 
Q 2191 2925 2072 2967 
Q 1953 3009 1781 3009 
Q 1603 3009 1459 2939 
Q 1316 2869 1214 2736 
Q 1113 2603 1058 2408 
Q 1003 2213 1003 1959 
L 1003 0 
L 444 0 
L 444 2659 
Q 444 2766 442 2883 
Q 441 3000 437 3104 
Q 434 3209 431 3284 
Q 428 3359 425 3381 
L 956 3381 
Q 959 3366 962 3297 
Q 966 3228 970 3139 
Q 975 3050 978 2958 
Q 981 2866 981 2803 
L 991 2803 
Q 1066 2950 1153 3069 
Q 1241 3188 1358 3270 
Q 1475 3353 1626 3398 
Q 1778 3444 1978 3444 
Q 2363 3444 2586 3291 
Q 2809 3138 2897 2803 
L 2906 2803 
Q 2981 2950 3075 3069 
Q 3169 3188 3294 3270 
Q 3419 3353 3575 3398 
Q 3731 3444 3931 3444 
Q 4188 3444 4373 3375 
Q 4559 3306 4678 3162 
Q 4797 3019 4853 2792 
Q 4909 2566 4909 2253 
L 4909 0 
L 4353 0 
L 4353 2144 
Q 4353 2391 4322 2556 
Q 4291 2722 4217 2823 
Q 4144 2925 4025 2967 
Q 3906 3009 3734 3009 
Q 3556 3009 3412 2942 
Q 3269 2875 3167 2744 
Q 3066 2613 3011 2416 
Q 2956 2219 2956 1959 
L 2956 0 
L 2400 0 
z
" transform="scale(0.015625)"/>
     <path id="LiberationSans-64" d="M 2566 544 
Q 2409 219 2151 78 
Q 1894 -63 1513 -63 
Q 872 -63 570 368 
Q 269 800 269 1675 
Q 269 3444 1513 3444 
Q 1897 3444 2153 3303 
Q 2409 3163 2566 2856 
L 2572 2856 
Q 2572 2888 2570 2955 
Q 2569 3022 2567 3095 
Q 2566 3169 2566 3234 
Q 2566 3300 2566 3328 
L 2566 4638 
L 3128 4638 
L 3128 697 
Q 3128 575 3129 462 
Q 3131 350 3134 256 
Q 3138 163 3141 95 
Q 3144 28 3147 0 
L 2609 0 
Q 2603 31 2598 89 
Q 2594 147 2589 222 
Q 2584 297 2581 380 
Q 2578 463 2578 544 
L 2566 544 
z
M 859 1694 
Q 859 1344 903 1094 
Q 947 844 1044 683 
Q 1141 522 1291 447 
Q 1441 372 1656 372 
Q 1878 372 2048 444 
Q 2219 516 2333 677 
Q 2447 838 2506 1097 
Q 2566 1356 2566 1731 
Q 2566 2091 2506 2339 
Q 2447 2588 2331 2741 
Q 2216 2894 2048 2961 
Q 1881 3028 1663 3028 
Q 1456 3028 1306 2956 
Q 1156 2884 1056 2725 
Q 956 2566 907 2311 
Q 859 2056 859 1694 
z
" transform="scale(0.015625)"/>
     <path id="LiberationSans-65" d="M 863 1572 
Q 863 1306 917 1082 
Q 972 859 1086 698 
Q 1200 538 1378 448 
Q 1556 359 1806 359 
Q 2172 359 2392 506 
Q 2613 653 2691 878 
L 3184 738 
Q 3131 597 3036 455 
Q 2941 313 2781 198 
Q 2622 84 2383 10 
Q 2144 -63 1806 -63 
Q 1056 -63 664 384 
Q 272 831 272 1713 
Q 272 2188 390 2517 
Q 509 2847 715 3053 
Q 922 3259 1197 3351 
Q 1472 3444 1784 3444 
Q 2209 3444 2495 3306 
Q 2781 3169 2954 2926 
Q 3128 2684 3201 2356 
Q 3275 2028 3275 1647 
L 3275 1572 
L 863 1572 
z
M 2694 2003 
Q 2647 2538 2422 2783 
Q 2197 3028 1775 3028 
Q 1634 3028 1479 2983 
Q 1325 2938 1194 2822 
Q 1063 2706 972 2507 
Q 881 2309 869 2003 
L 2694 2003 
z
" transform="scale(0.015625)"/>
     <path id="LiberationSans-70" d="M 3291 1706 
Q 3291 1322 3228 997 
Q 3166 672 3020 437 
Q 2875 203 2636 70 
Q 2397 -63 2047 -63 
Q 1684 -63 1412 75 
Q 1141 213 997 525 
L 981 525 
Q 984 519 986 469 
Q 988 419 989 344 
Q 991 269 992 176 
Q 994 84 994 -6 
L 994 -1328 
L 431 -1328 
L 431 2691 
Q 431 2813 429 2925 
Q 428 3038 425 3130 
Q 422 3222 419 3287 
Q 416 3353 413 3381 
L 956 3381 
Q 959 3372 964 3315 
Q 969 3259 973 3179 
Q 978 3100 983 3009 
Q 988 2919 988 2838 
L 1000 2838 
Q 1078 3000 1178 3114 
Q 1278 3228 1406 3301 
Q 1534 3375 1692 3408 
Q 1850 3441 2047 3441 
Q 2397 3441 2636 3316 
Q 2875 3191 3020 2964 
Q 3166 2738 3228 2417 
Q 3291 2097 3291 1706 
z
M 2700 1694 
Q 2700 2006 2662 2250 
Q 2625 2494 2533 2662 
Q 2441 2831 2287 2918 
Q 2134 3006 1903 3006 
Q 1716 3006 1550 2953 
Q 1384 2900 1261 2750 
Q 1138 2600 1066 2336 
Q 994 2072 994 1650 
Q 994 1291 1053 1042 
Q 1113 794 1227 641 
Q 1341 488 1509 420 
Q 1678 353 1897 353 
Q 2131 353 2286 443 
Q 2441 534 2533 706 
Q 2625 878 2662 1126 
Q 2700 1375 2700 1694 
z
" transform="scale(0.015625)"/>
     <path id="LiberationSans-72" d="M 444 0 
L 444 2594 
Q 444 2700 442 2811 
Q 441 2922 437 3025 
Q 434 3128 431 3218 
Q 428 3309 425 3381 
L 956 3381 
Q 959 3309 964 3217 
Q 969 3125 973 3028 
Q 978 2931 979 2842 
Q 981 2753 981 2691 
L 994 2691 
Q 1053 2884 1120 3026 
Q 1188 3169 1278 3261 
Q 1369 3353 1494 3398 
Q 1619 3444 1797 3444 
Q 1866 3444 1928 3433 
Q 1991 3422 2025 3413 
L 2025 2897 
Q 1969 2913 1894 2920 
Q 1819 2928 1725 2928 
Q 1531 2928 1395 2840 
Q 1259 2753 1173 2598 
Q 1088 2444 1047 2230 
Q 1006 2016 1006 1763 
L 1006 0 
L 444 0 
z
" transform="scale(0.015625)"/>
     <path id="LiberationSans-61" d="M 1294 -63 
Q 784 -63 528 206 
Q 272 475 272 944 
Q 272 1278 398 1492 
Q 525 1706 729 1828 
Q 934 1950 1196 1997 
Q 1459 2044 1731 2050 
L 2491 2063 
L 2491 2247 
Q 2491 2456 2447 2603 
Q 2403 2750 2312 2840 
Q 2222 2931 2086 2973 
Q 1950 3016 1766 3016 
Q 1603 3016 1472 2992 
Q 1341 2969 1244 2908 
Q 1147 2847 1087 2742 
Q 1028 2638 1009 2478 
L 422 2531 
Q 453 2731 540 2898 
Q 628 3066 789 3187 
Q 950 3309 1192 3376 
Q 1434 3444 1778 3444 
Q 2416 3444 2737 3151 
Q 3059 2859 3059 2306 
L 3059 850 
Q 3059 600 3125 473 
Q 3191 347 3375 347 
Q 3422 347 3469 353 
Q 3516 359 3559 369 
L 3559 19 
Q 3453 -6 3348 -18 
Q 3244 -31 3125 -31 
Q 2966 -31 2852 11 
Q 2738 53 2666 139 
Q 2594 225 2556 351 
Q 2519 478 2509 647 
L 2491 647 
Q 2400 484 2292 353 
Q 2184 222 2040 130 
Q 1897 38 1714 -12 
Q 1531 -63 1294 -63 
z
M 1422 359 
Q 1691 359 1892 457 
Q 2094 556 2226 709 
Q 2359 863 2425 1044 
Q 2491 1225 2491 1391 
L 2491 1669 
L 1875 1656 
Q 1669 1653 1483 1626 
Q 1297 1600 1156 1522 
Q 1016 1444 933 1303 
Q 850 1163 850 934 
Q 850 659 998 509 
Q 1147 359 1422 359 
z
" transform="scale(0.015625)"/>
     <path id="LiberationSans-6e" d="M 2578 0 
L 2578 2144 
Q 2578 2391 2542 2556 
Q 2506 2722 2425 2823 
Q 2344 2925 2211 2967 
Q 2078 3009 1881 3009 
Q 1681 3009 1520 2939 
Q 1359 2869 1245 2736 
Q 1131 2603 1068 2408 
Q 1006 2213 1006 1959 
L 1006 0 
L 444 0 
L 444 2659 
Q 444 2766 442 2883 
Q 441 3000 437 3104 
Q 434 3209 431 3284 
Q 428 3359 425 3381 
L 956 3381 
Q 959 3366 962 3297 
Q 966 3228 970 3139 
Q 975 3050 978 2958 
Q 981 2866 981 2803 
L 991 2803 
Q 1072 2950 1169 3069 
Q 1266 3188 1394 3270 
Q 1522 3353 1687 3398 
Q 1853 3444 2072 3444 
Q 2353 3444 2556 3375 
Q 2759 3306 2890 3162 
Q 3022 3019 3083 2792 
Q 3144 2566 3144 2253 
L 3144 0 
L 2578 0 
z
" transform="scale(0.015625)"/>
     <path id="LiberationSans-63" d="M 859 1706 
Q 859 1416 901 1172 
Q 944 928 1044 751 
Q 1144 575 1308 478 
Q 1472 381 1713 381 
Q 2013 381 2214 543 
Q 2416 706 2463 1044 
L 3031 1006 
Q 3003 797 2909 603 
Q 2816 409 2655 262 
Q 2494 116 2262 26 
Q 2031 -63 1728 -63 
Q 1331 -63 1053 71 
Q 775 206 601 442 
Q 428 678 350 998 
Q 272 1319 272 1694 
Q 272 2034 328 2295 
Q 384 2556 486 2751 
Q 588 2947 725 3080 
Q 863 3213 1023 3292 
Q 1184 3372 1362 3408 
Q 1541 3444 1722 3444 
Q 2006 3444 2228 3366 
Q 2450 3288 2611 3152 
Q 2772 3016 2872 2831 
Q 2972 2647 3013 2434 
L 2434 2391 
Q 2391 2672 2212 2837 
Q 2034 3003 1706 3003 
Q 1466 3003 1305 2923 
Q 1144 2844 1044 2683 
Q 944 2522 901 2278 
Q 859 2034 859 1706 
z
" transform="scale(0.015625)"/>
     <path id="LiberationSans-3a" d="M 584 2734 
L 584 3381 
L 1194 3381 
L 1194 2734 
L 584 2734 
z
M 584 0 
L 584 647 
L 1194 647 
L 1194 0 
L 584 0 
z
" transform="scale(0.015625)"/>
     <path id="LiberationSans-5f" d="M -97 -1272 
L -97 -866 
L 3631 -866 
L 3631 -1272 
L -97 -1272 
z
" transform="scale(0.015625)"/>
     <path id="LiberationSans-67" d="M 1713 -1328 
Q 1422 -1328 1197 -1268 
Q 972 -1209 812 -1098 
Q 653 -988 553 -834 
Q 453 -681 409 -494 
L 975 -413 
Q 1031 -647 1223 -773 
Q 1416 -900 1728 -900 
Q 1919 -900 2075 -847 
Q 2231 -794 2340 -676 
Q 2450 -559 2509 -371 
Q 2569 -184 2569 84 
L 2569 628 
L 2563 628 
Q 2500 500 2408 383 
Q 2316 266 2183 175 
Q 2050 84 1875 29 
Q 1700 -25 1475 -25 
Q 1153 -25 923 83 
Q 694 191 548 406 
Q 403 622 336 942 
Q 269 1263 269 1684 
Q 269 2091 336 2416 
Q 403 2741 554 2967 
Q 706 3194 948 3314 
Q 1191 3434 1538 3434 
Q 1897 3434 2161 3270 
Q 2425 3106 2569 2803 
L 2575 2803 
Q 2575 2881 2579 2978 
Q 2584 3075 2589 3161 
Q 2594 3247 2600 3309 
Q 2606 3372 2613 3381 
L 3147 3381 
Q 3144 3353 3141 3286 
Q 3138 3219 3134 3125 
Q 3131 3031 3129 2917 
Q 3128 2803 3128 2681 
L 3128 97 
Q 3128 -613 2779 -970 
Q 2431 -1328 1713 -1328 
z
M 2569 1691 
Q 2569 2044 2492 2295 
Q 2416 2547 2291 2706 
Q 2166 2866 2005 2941 
Q 1844 3016 1675 3016 
Q 1459 3016 1304 2941 
Q 1150 2866 1048 2705 
Q 947 2544 898 2292 
Q 850 2041 850 1691 
Q 850 1325 898 1076 
Q 947 828 1047 675 
Q 1147 522 1300 456 
Q 1453 391 1666 391 
Q 1834 391 1995 462 
Q 2156 534 2284 690 
Q 2413 847 2491 1094 
Q 2569 1341 2569 1691 
z
" transform="scale(0.015625)"/>
     <path id="LiberationSans-2c" d="M 1203 684 
L 1203 159 
Q 1203 -6 1189 -142 
Q 1175 -278 1144 -395 
Q 1113 -513 1067 -616 
Q 1022 -719 959 -819 
L 575 -819 
Q 716 -616 792 -409 
Q 869 -203 869 0 
L 594 0 
L 594 684 
L 1203 684 
z
" transform="scale(0.015625)"/>
     <path id="LiberationSans-68" d="M 991 2803 
Q 1084 2975 1193 3095 
Q 1303 3216 1434 3294 
Q 1566 3372 1722 3408 
Q 1878 3444 2072 3444 
Q 2397 3444 2605 3356 
Q 2813 3269 2933 3111 
Q 3053 2953 3098 2734 
Q 3144 2516 3144 2253 
L 3144 0 
L 2578 0 
L 2578 2144 
Q 2578 2359 2551 2521 
Q 2525 2684 2450 2792 
Q 2375 2900 2237 2954 
Q 2100 3009 1881 3009 
Q 1681 3009 1520 2937 
Q 1359 2866 1245 2734 
Q 1131 2603 1068 2415 
Q 1006 2228 1006 1994 
L 1006 0 
L 444 0 
L 444 4638 
L 1006 4638 
L 1006 3431 
Q 1006 3328 1003 3225 
Q 1000 3122 995 3034 
Q 991 2947 987 2886 
Q 984 2825 981 2803 
L 991 2803 
z
" transform="scale(0.015625)"/>
     <path id="LiberationSans-69" d="M 428 4100 
L 428 4638 
L 991 4638 
L 991 4100 
L 428 4100 
z
M 428 0 
L 428 3381 
L 991 3381 
L 991 0 
L 428 0 
z
" transform="scale(0.015625)"/>
     <path id="LiberationSans-2d" d="M 284 1450 
L 284 1950 
L 1847 1950 
L 1847 1450 
L 284 1450 
z
" transform="scale(0.015625)"/>
     <path id="LiberationSans-62" d="M 3291 1706 
Q 3291 -63 2047 -63 
Q 1663 -63 1408 76 
Q 1153 216 994 525 
L 988 525 
Q 988 444 983 356 
Q 978 269 973 194 
Q 969 119 964 66 
Q 959 13 956 0 
L 413 0 
Q 416 28 419 95 
Q 422 163 425 256 
Q 428 350 429 462 
Q 431 575 431 697 
L 431 4638 
L 994 4638 
L 994 3316 
Q 994 3222 992 3136 
Q 991 3050 988 2984 
Q 984 2906 981 2838 
L 994 2838 
Q 1150 3163 1408 3303 
Q 1666 3444 2047 3444 
Q 2688 3444 2989 3012 
Q 3291 2581 3291 1706 
z
M 2700 1688 
Q 2700 2038 2656 2288 
Q 2613 2538 2516 2698 
Q 2419 2859 2269 2934 
Q 2119 3009 1903 3009 
Q 1681 3009 1511 2937 
Q 1341 2866 1227 2706 
Q 1113 2547 1053 2287 
Q 994 2028 994 1653 
Q 994 1291 1053 1044 
Q 1113 797 1227 642 
Q 1341 488 1509 420 
Q 1678 353 1897 353 
Q 2103 353 2253 425 
Q 2403 497 2503 656 
Q 2603 816 2651 1070 
Q 2700 1325 2700 1688 
z
" transform="scale(0.015625)"/>
     <path id="LiberationSans-2f" d="M 0 -63 
L 1284 4638 
L 1778 4638 
L 506 -63 
L 0 -63 
z
" transform="scale(0.015625)"/>
    </defs>
    <use xlink:href="#LiberationSans-50"/>
    <use xlink:href="#LiberationSans-6c" x="66.699219"/>
    <use xlink:href="#LiberationSans-6f" x="88.916016"/>
    <use xlink:href="#LiberationSans-74" x="144.53125"/>
    <use xlink:href="#LiberationSans-73" x="172.314453"/>
    <use xlink:href="#LiberationSans-20" x="222.314453"/>
    <use xlink:href="#LiberationSans-6f" x="250.097656"/>
    <use xlink:href="#LiberationSans-66" x="305.712891"/>
    <use xlink:href="#LiberationSans-20" x="333.496094"/>
    <use xlink:href="#LiberationSans-6d" x="361.279297"/>
    <use xlink:href="#LiberationSans-6f" x="444.580078"/>
    <use xlink:href="#LiberationSans-64" x="500.195312"/>
    <use xlink:href="#LiberationSans-65" x="555.810547"/>
    <use xlink:href="#LiberationSans-6c" x="611.425781"/>
    <use xlink:href="#LiberationSans-20" x="633.642578"/>
    <use xlink:href="#LiberationSans-70" x="661.425781"/>
    <use xlink:href="#LiberationSans-65" x="717.041016"/>
    <use xlink:href="#LiberationSans-72" x="772.65625"/>
    <use xlink:href="#LiberationSans-66" x="805.957031"/>
    <use xlink:href="#LiberationSans-6f" x="833.740234"/>
    <use xlink:href="#LiberationSans-72" x="889.355469"/>
    <use xlink:href="#LiberationSans-6d" x="922.65625"/>
    <use xlink:href="#LiberationSans-61" x="1005.957031"/>
    <use xlink:href="#LiberationSans-6e" x="1061.572266"/>
    <use xlink:href="#LiberationSans-63" x="1117.1875"/>
    <use xlink:href="#LiberationSans-65" x="1167.1875"/>
    <use xlink:href="#LiberationSans-3a" x="1222.802734"/>
    <use xlink:href="#LiberationSans-20" x="1250.585938"/>
    <use xlink:href="#LiberationSans-6d" x="1278.369141"/>
    <use xlink:href="#LiberationSans-65" x="1361.669922"/>
    <use xlink:href="#LiberationSans-6c" x="1417.285156"/>
    <use xlink:href="#LiberationSans-5f" x="1439.501953"/>
    <use xlink:href="#LiberationSans-73" x="1495.117188"/>
    <use xlink:href="#LiberationSans-70" x="1545.117188"/>
    <use xlink:href="#LiberationSans-65" x="1600.732422"/>
    <use xlink:href="#LiberationSans-63" x="1656.347656"/>
    <use xlink:href="#LiberationSans-74" x="1706.347656"/>
    <use xlink:href="#LiberationSans-72" x="1734.130859"/>
    <use xlink:href="#LiberationSans-6f" x="1767.431641"/>
    <use xlink:href="#LiberationSans-67" x="1823.046875"/>
    <use xlink:href="#LiberationSans-72" x="1878.662109"/>
    <use xlink:href="#LiberationSans-61" x="1911.962891"/>
    <use xlink:href="#LiberationSans-6d" x="1967.578125"/>
    <use xlink:href="#LiberationSans-2c" x="2050.878906"/>
    <use xlink:href="#LiberationSans-20" x="2078.662109"/>
    <use xlink:href="#LiberationSans-64" x="2106.445312"/>
    <use xlink:href="#LiberationSans-72" x="2162.060547"/>
    <use xlink:href="#LiberationSans-61" x="2195.361328"/>
    <use xlink:href="#LiberationSans-67" x="2250.976562"/>
    <use xlink:href="#LiberationSans-68" x="2306.591797"/>
    <use xlink:href="#LiberationSans-69" x="2362.207031"/>
    <use xlink:href="#LiberationSans-63" x="2384.423828"/>
    <use xlink:href="#LiberationSans-69" x="2434.423828"/>
    <use xlink:href="#LiberationSans-32" x="2456.640625"/>
    <use xlink:href="#LiberationSans-30" x="2512.255859"/>
    <use xlink:href="#LiberationSans-5f" x="2567.871094"/>
    <use xlink:href="#LiberationSans-63" x="2623.486328"/>
    <use xlink:href="#LiberationSans-72" x="2673.486328"/>
    <use xlink:href="#LiberationSans-6e" x="2706.787109"/>
    <use xlink:href="#LiberationSans-6e" x="2762.402344"/>
    <use xlink:href="#LiberationSans-20" x="2818.017578"/>
    <use xlink:href="#LiberationSans-2d" x="2845.800781"/>
    <use xlink:href="#LiberationSans-20" x="2879.101562"/>
    <use xlink:href="#LiberationSans-6c" x="2906.884766"/>
    <use xlink:href="#LiberationSans-72" x="2929.101562"/>
    <use xlink:href="#LiberationSans-20" x="2962.402344"/>
    <use xlink:href="#LiberationSans-31" x="2990.185547"/>
    <use xlink:href="#LiberationSans-65" x="3045.800781"/>
    <use xlink:href="#LiberationSans-2d" x="3101.416016"/>
    <use xlink:href="#LiberationSans-30" x="3134.716797"/>
    <use xlink:href="#LiberationSans-35" x="3190.332031"/>
    <use xlink:href="#LiberationSans-2c" x="3245.947266"/>
    <use xlink:href="#LiberationSans-20" x="3273.730469"/>
    <use xlink:href="#LiberationSans-62" x="3301.513672"/>
    <use xlink:href="#LiberationSans-61" x="3357.128906"/>
    <use xlink:href="#LiberationSans-74" x="3412.744141"/>
    <use xlink:href="#LiberationSans-63" x="3440.527344"/>
    <use xlink:href="#LiberationSans-68" x="3490.527344"/>
    <use xlink:href="#LiberationSans-20" x="3546.142578"/>
    <use xlink:href="#LiberationSans-31" x="3573.925781"/>
    <use xlink:href="#LiberationSans-36" x="3629.541016"/>
    <use xlink:href="#LiberationSans-2c" x="3685.15625"/>
    <use xlink:href="#LiberationSans-20" x="3712.939453"/>
    <use xlink:href="#LiberationSans-31" x="3740.722656"/>
    <use xlink:href="#LiberationSans-32" x="3796.337891"/>
    <use xlink:href="#LiberationSans-38" x="3851.953125"/>
    <use xlink:href="#LiberationSans-20" x="3907.568359"/>
    <use xlink:href="#LiberationSans-73" x="3935.351562"/>
    <use xlink:href="#LiberationSans-74" x="3985.351562"/>
    <use xlink:href="#LiberationSans-65" x="4013.134766"/>
    <use xlink:href="#LiberationSans-70" x="4068.75"/>
    <use xlink:href="#LiberationSans-73" x="4124.365234"/>
    <use xlink:href="#LiberationSans-2f" x="4174.365234"/>
    <use xlink:href="#LiberationSans-65" x="4202.148438"/>
    <use xlink:href="#LiberationSans-70" x="4257.763672"/>
    <use xlink:href="#LiberationSans-6f" x="4313.378906"/>
    <use xlink:href="#LiberationSans-63" x="4368.994141"/>
    <use xlink:href="#LiberationSans-68" x="4418.994141"/>
   </g>
  </g>
 </g>
 <defs>
  <clipPath id="pbe9843a8a2">
   <rect x="108" y="77.76" width="669.6" height="226.8"/>
  </clipPath>
  <clipPath id="p92cf7535bf">
   <rect x="108" y="349.92" width="669.6" height="226.8"/>
  </clipPath>
 </defs>
</svg>
