<?xml version="1.0" encoding="utf-8" standalone="no"?>
<!DOCTYPE svg PUBLIC "-//W3C//DTD SVG 1.1//EN"
  "http://www.w3.org/Graphics/SVG/1.1/DTD/svg11.dtd">
<svg xmlns:xlink="http://www.w3.org/1999/xlink" width="864pt" height="648pt" viewBox="0 0 864 648" xmlns="http://www.w3.org/2000/svg" version="1.1">
 <metadata>
  <rdf:RDF xmlns:dc="http://purl.org/dc/elements/1.1/" xmlns:cc="http://creativecommons.org/ns#" xmlns:rdf="http://www.w3.org/1999/02/22-rdf-syntax-ns#">
   <cc:Work>
    <dc:type rdf:resource="http://purl.org/dc/dcmitype/StillImage"/>
    <dc:date>2022-03-16T19:01:21.600501</dc:date>
    <dc:format>image/svg+xml</dc:format>
    <dc:creator>
     <cc:Agent>
      <dc:title>Matplotlib v3.5.0, https://matplotlib.org/</dc:title>
     </cc:Agent>
    </dc:creator>
   </cc:Work>
  </rdf:RDF>
 </metadata>
 <defs>
  <style type="text/css">*{stroke-linejoin: round; stroke-linecap: butt}</style>
 </defs>
 <g id="figure_1">
  <g id="patch_1">
   <path d="M 0 648 
L 864 648 
L 864 0 
L 0 0 
z
" style="fill: #ffffff"/>
  </g>
  <g id="axes_1">
   <g id="patch_2">
    <path d="M 108 304.56 
L 777.6 304.56 
L 777.6 77.76 
L 108 77.76 
z
" style="fill: #eaeaf2"/>
   </g>
   <g id="matplotlib.axis_1">
    <g id="xtick_1">
     <g id="line2d_1"/>
     <g id="text_1">
      <!-- 0 -->
      <g style="fill: #262626" transform="translate(135.655895 318.806875)scale(0.1 -0.1)">
       <defs>
        <path id="LiberationSans-30" d="M 3309 2203 
Q 3309 1569 3189 1136 
Q 3069 703 2861 436 
Q 2653 169 2372 53 
Q 2091 -63 1772 -63 
Q 1450 -63 1172 53 
Q 894 169 689 434 
Q 484 700 367 1133 
Q 250 1566 250 2203 
Q 250 2869 367 3305 
Q 484 3741 690 4000 
Q 897 4259 1178 4364 
Q 1459 4469 1791 4469 
Q 2106 4469 2382 4364 
Q 2659 4259 2865 4000 
Q 3072 3741 3190 3305 
Q 3309 2869 3309 2203 
z
M 2738 2203 
Q 2738 2728 2675 3076 
Q 2613 3425 2491 3633 
Q 2369 3841 2192 3927 
Q 2016 4013 1791 4013 
Q 1553 4013 1372 3925 
Q 1191 3838 1067 3630 
Q 944 3422 881 3073 
Q 819 2725 819 2203 
Q 819 1697 883 1350 
Q 947 1003 1070 792 
Q 1194 581 1372 489 
Q 1550 397 1778 397 
Q 2000 397 2178 489 
Q 2356 581 2479 792 
Q 2603 1003 2670 1350 
Q 2738 1697 2738 2203 
z
" transform="scale(0.015625)"/>
       </defs>
       <use xlink:href="#LiberationSans-30"/>
      </g>
     </g>
    </g>
    <g id="xtick_2">
     <g id="line2d_2"/>
     <g id="text_2">
      <!-- 25 -->
      <g style="fill: #262626" transform="translate(209.348702 318.806875)scale(0.1 -0.1)">
       <defs>
        <path id="LiberationSans-32" d="M 322 0 
L 322 397 
Q 481 763 711 1042 
Q 941 1322 1194 1548 
Q 1447 1775 1695 1969 
Q 1944 2163 2144 2356 
Q 2344 2550 2467 2762 
Q 2591 2975 2591 3244 
Q 2591 3431 2534 3573 
Q 2478 3716 2372 3812 
Q 2266 3909 2117 3957 
Q 1969 4006 1788 4006 
Q 1619 4006 1470 3959 
Q 1322 3913 1206 3819 
Q 1091 3725 1017 3586 
Q 944 3447 922 3263 
L 347 3316 
Q 375 3553 478 3762 
Q 581 3972 762 4130 
Q 944 4288 1198 4378 
Q 1453 4469 1788 4469 
Q 2116 4469 2372 4391 
Q 2628 4313 2804 4159 
Q 2981 4006 3075 3781 
Q 3169 3556 3169 3263 
Q 3169 3041 3089 2841 
Q 3009 2641 2876 2459 
Q 2744 2278 2569 2109 
Q 2394 1941 2203 1780 
Q 2013 1619 1819 1461 
Q 1625 1303 1454 1143 
Q 1284 984 1150 820 
Q 1016 656 941 478 
L 3238 478 
L 3238 0 
L 322 0 
z
" transform="scale(0.015625)"/>
        <path id="LiberationSans-35" d="M 3291 1434 
Q 3291 1103 3191 828 
Q 3091 553 2894 354 
Q 2697 156 2405 46 
Q 2113 -63 1728 -63 
Q 1381 -63 1123 18 
Q 866 100 687 242 
Q 509 384 404 575 
Q 300 766 256 984 
L 825 1050 
Q 859 925 921 808 
Q 984 691 1092 598 
Q 1200 506 1358 451 
Q 1516 397 1741 397 
Q 1959 397 2137 464 
Q 2316 531 2442 662 
Q 2569 794 2637 984 
Q 2706 1175 2706 1422 
Q 2706 1625 2640 1795 
Q 2575 1966 2453 2089 
Q 2331 2213 2154 2281 
Q 1978 2350 1753 2350 
Q 1613 2350 1494 2325 
Q 1375 2300 1273 2256 
Q 1172 2213 1089 2155 
Q 1006 2097 934 2034 
L 384 2034 
L 531 4403 
L 3034 4403 
L 3034 3925 
L 1044 3925 
L 959 2528 
Q 1109 2644 1334 2726 
Q 1559 2809 1869 2809 
Q 2197 2809 2459 2709 
Q 2722 2609 2906 2426 
Q 3091 2244 3191 1991 
Q 3291 1738 3291 1434 
z
" transform="scale(0.015625)"/>
       </defs>
       <use xlink:href="#LiberationSans-32"/>
       <use xlink:href="#LiberationSans-35" x="55.615234"/>
      </g>
     </g>
    </g>
    <g id="xtick_3">
     <g id="line2d_3"/>
     <g id="text_3">
      <!-- 50 -->
      <g style="fill: #262626" transform="translate(285.821977 318.806875)scale(0.1 -0.1)">
       <use xlink:href="#LiberationSans-35"/>
       <use xlink:href="#LiberationSans-30" x="55.615234"/>
      </g>
     </g>
    </g>
    <g id="xtick_4">
     <g id="line2d_4"/>
     <g id="text_4">
      <!-- 75 -->
      <g style="fill: #262626" transform="translate(362.295253 318.806875)scale(0.1 -0.1)">
       <defs>
        <path id="LiberationSans-37" d="M 3238 3947 
Q 2906 3441 2628 2973 
Q 2350 2506 2150 2032 
Q 1950 1559 1839 1061 
Q 1728 563 1728 0 
L 1141 0 
Q 1141 528 1266 1036 
Q 1391 1544 1603 2033 
Q 1816 2522 2097 2994 
Q 2378 3466 2694 3925 
L 328 3925 
L 328 4403 
L 3238 4403 
L 3238 3947 
z
" transform="scale(0.015625)"/>
       </defs>
       <use xlink:href="#LiberationSans-37"/>
       <use xlink:href="#LiberationSans-35" x="55.615234"/>
      </g>
     </g>
    </g>
    <g id="xtick_5">
     <g id="line2d_5"/>
     <g id="text_5">
      <!-- 100 -->
      <g style="fill: #262626" transform="translate(435.988059 318.806875)scale(0.1 -0.1)">
       <defs>
        <path id="LiberationSans-31" d="M 488 0 
L 488 478 
L 1609 478 
L 1609 3866 
L 616 3156 
L 616 3688 
L 1656 4403 
L 2175 4403 
L 2175 478 
L 3247 478 
L 3247 0 
L 488 0 
z
" transform="scale(0.015625)"/>
       </defs>
       <use xlink:href="#LiberationSans-31"/>
       <use xlink:href="#LiberationSans-30" x="55.615234"/>
       <use xlink:href="#LiberationSans-30" x="111.230469"/>
      </g>
     </g>
    </g>
    <g id="xtick_6">
     <g id="line2d_6"/>
     <g id="text_6">
      <!-- 125 -->
      <g style="fill: #262626" transform="translate(512.461335 318.806875)scale(0.1 -0.1)">
       <use xlink:href="#LiberationSans-31"/>
       <use xlink:href="#LiberationSans-32" x="55.615234"/>
       <use xlink:href="#LiberationSans-35" x="111.230469"/>
      </g>
     </g>
    </g>
    <g id="xtick_7">
     <g id="line2d_7"/>
     <g id="text_7">
      <!-- 150 -->
      <g style="fill: #262626" transform="translate(588.93461 318.806875)scale(0.1 -0.1)">
       <use xlink:href="#LiberationSans-31"/>
       <use xlink:href="#LiberationSans-35" x="55.615234"/>
       <use xlink:href="#LiberationSans-30" x="111.230469"/>
      </g>
     </g>
    </g>
    <g id="xtick_8">
     <g id="line2d_8"/>
     <g id="text_8">
      <!-- 175 -->
      <g style="fill: #262626" transform="translate(665.407886 318.806875)scale(0.1 -0.1)">
       <use xlink:href="#LiberationSans-31"/>
       <use xlink:href="#LiberationSans-37" x="55.615234"/>
       <use xlink:href="#LiberationSans-35" x="111.230469"/>
      </g>
     </g>
    </g>
    <g id="xtick_9">
     <g id="line2d_9"/>
     <g id="text_9">
      <!-- 200 -->
      <g style="fill: #262626" transform="translate(741.881161 318.806875)scale(0.1 -0.1)">
       <use xlink:href="#LiberationSans-32"/>
       <use xlink:href="#LiberationSans-30" x="55.615234"/>
       <use xlink:href="#LiberationSans-30" x="111.230469"/>
      </g>
     </g>
    </g>
   </g>
   <g id="matplotlib.axis_2">
    <g id="ytick_1">
     <g id="line2d_10"/>
     <g id="text_10">
      <!-- 8 -->
      <g style="fill: #262626" transform="translate(95.439063 305.225021)scale(0.1 -0.1)">
       <defs>
        <path id="LiberationSans-38" d="M 3281 1228 
Q 3281 947 3192 711 
Q 3103 475 2920 303 
Q 2738 131 2453 34 
Q 2169 -63 1781 -63 
Q 1394 -63 1111 34 
Q 828 131 642 301 
Q 456 472 367 708 
Q 278 944 278 1222 
Q 278 1463 351 1650 
Q 425 1838 548 1973 
Q 672 2109 830 2192 
Q 988 2275 1156 2303 
L 1156 2316 
Q 972 2359 826 2456 
Q 681 2553 582 2689 
Q 484 2825 432 2990 
Q 381 3156 381 3341 
Q 381 3572 470 3776 
Q 559 3981 734 4136 
Q 909 4291 1168 4380 
Q 1428 4469 1769 4469 
Q 2128 4469 2392 4378 
Q 2656 4288 2829 4133 
Q 3003 3978 3087 3772 
Q 3172 3566 3172 3334 
Q 3172 3153 3120 2987 
Q 3069 2822 2970 2686 
Q 2872 2550 2726 2454 
Q 2581 2359 2391 2322 
L 2391 2309 
Q 2581 2278 2743 2195 
Q 2906 2113 3025 1977 
Q 3144 1841 3212 1653 
Q 3281 1466 3281 1228 
z
M 2588 3303 
Q 2588 3469 2545 3606 
Q 2503 3744 2406 3842 
Q 2309 3941 2153 3995 
Q 1997 4050 1769 4050 
Q 1547 4050 1394 3995 
Q 1241 3941 1142 3842 
Q 1044 3744 1000 3606 
Q 956 3469 956 3303 
Q 956 3172 990 3034 
Q 1025 2897 1115 2784 
Q 1206 2672 1365 2600 
Q 1525 2528 1775 2528 
Q 2041 2528 2202 2600 
Q 2363 2672 2448 2784 
Q 2534 2897 2561 3034 
Q 2588 3172 2588 3303 
z
M 2697 1281 
Q 2697 1441 2653 1589 
Q 2609 1738 2503 1852 
Q 2397 1966 2217 2036 
Q 2038 2106 1769 2106 
Q 1522 2106 1348 2036 
Q 1175 1966 1067 1850 
Q 959 1734 909 1582 
Q 859 1431 859 1269 
Q 859 1066 909 898 
Q 959 731 1068 611 
Q 1178 491 1356 425 
Q 1534 359 1788 359 
Q 2044 359 2219 425 
Q 2394 491 2500 611 
Q 2606 731 2651 901 
Q 2697 1072 2697 1281 
z
" transform="scale(0.015625)"/>
       </defs>
       <use xlink:href="#LiberationSans-38"/>
      </g>
     </g>
    </g>
    <g id="ytick_2">
     <g id="line2d_11"/>
     <g id="text_11">
      <!-- 10 -->
      <g style="fill: #262626" transform="translate(89.878125 274.115817)scale(0.1 -0.1)">
       <use xlink:href="#LiberationSans-31"/>
       <use xlink:href="#LiberationSans-30" x="55.615234"/>
      </g>
     </g>
    </g>
    <g id="ytick_3">
     <g id="line2d_12"/>
     <g id="text_12">
      <!-- 12 -->
      <g style="fill: #262626" transform="translate(89.878125 243.006612)scale(0.1 -0.1)">
       <use xlink:href="#LiberationSans-31"/>
       <use xlink:href="#LiberationSans-32" x="55.615234"/>
      </g>
     </g>
    </g>
    <g id="ytick_4">
     <g id="line2d_13"/>
     <g id="text_13">
      <!-- 14 -->
      <g style="fill: #262626" transform="translate(89.878125 211.897407)scale(0.1 -0.1)">
       <defs>
        <path id="LiberationSans-34" d="M 2753 997 
L 2753 0 
L 2222 0 
L 2222 997 
L 147 997 
L 147 1434 
L 2163 4403 
L 2753 4403 
L 2753 1441 
L 3372 1441 
L 3372 997 
L 2753 997 
z
M 2222 3769 
Q 2216 3753 2191 3708 
Q 2166 3663 2134 3606 
Q 2103 3550 2070 3492 
Q 2038 3434 2013 3397 
L 884 1734 
Q 869 1709 839 1668 
Q 809 1628 778 1586 
Q 747 1544 715 1503 
Q 684 1463 666 1441 
L 2222 1441 
L 2222 3769 
z
" transform="scale(0.015625)"/>
       </defs>
       <use xlink:href="#LiberationSans-31"/>
       <use xlink:href="#LiberationSans-34" x="55.615234"/>
      </g>
     </g>
    </g>
    <g id="ytick_5">
     <g id="line2d_14"/>
     <g id="text_14">
      <!-- 16 -->
      <g style="fill: #262626" transform="translate(89.878125 180.788203)scale(0.1 -0.1)">
       <defs>
        <path id="LiberationSans-36" d="M 3278 1441 
Q 3278 1109 3186 832 
Q 3094 556 2914 357 
Q 2734 159 2468 48 
Q 2203 -63 1856 -63 
Q 1472 -63 1184 84 
Q 897 231 706 507 
Q 516 784 420 1186 
Q 325 1588 325 2100 
Q 325 2688 433 3131 
Q 541 3575 744 3872 
Q 947 4169 1239 4319 
Q 1531 4469 1900 4469 
Q 2125 4469 2322 4422 
Q 2519 4375 2680 4270 
Q 2841 4166 2962 3994 
Q 3084 3822 3156 3572 
L 2619 3475 
Q 2531 3759 2339 3886 
Q 2147 4013 1894 4013 
Q 1663 4013 1475 3903 
Q 1288 3794 1156 3576 
Q 1025 3359 954 3031 
Q 884 2703 884 2266 
Q 1038 2550 1316 2698 
Q 1594 2847 1953 2847 
Q 2253 2847 2497 2750 
Q 2741 2653 2914 2470 
Q 3088 2288 3183 2027 
Q 3278 1766 3278 1441 
z
M 2706 1416 
Q 2706 1644 2650 1828 
Q 2594 2013 2481 2142 
Q 2369 2272 2203 2342 
Q 2038 2413 1819 2413 
Q 1666 2413 1509 2367 
Q 1353 2322 1226 2220 
Q 1100 2119 1020 1953 
Q 941 1788 941 1550 
Q 941 1306 1003 1095 
Q 1066 884 1183 728 
Q 1300 572 1465 481 
Q 1631 391 1838 391 
Q 2041 391 2202 461 
Q 2363 531 2475 664 
Q 2588 797 2647 987 
Q 2706 1178 2706 1416 
z
" transform="scale(0.015625)"/>
       </defs>
       <use xlink:href="#LiberationSans-31"/>
       <use xlink:href="#LiberationSans-36" x="55.615234"/>
      </g>
     </g>
    </g>
    <g id="ytick_6">
     <g id="line2d_15"/>
     <g id="text_15">
      <!-- 18 -->
      <g style="fill: #262626" transform="translate(89.878125 149.678998)scale(0.1 -0.1)">
       <use xlink:href="#LiberationSans-31"/>
       <use xlink:href="#LiberationSans-38" x="55.615234"/>
      </g>
     </g>
    </g>
    <g id="ytick_7">
     <g id="line2d_16"/>
     <g id="text_16">
      <!-- 20 -->
      <g style="fill: #262626" transform="translate(89.878125 118.569793)scale(0.1 -0.1)">
       <use xlink:href="#LiberationSans-32"/>
       <use xlink:href="#LiberationSans-30" x="55.615234"/>
      </g>
     </g>
    </g>
    <g id="ytick_8">
     <g id="line2d_17"/>
     <g id="text_17">
      <!-- 22 -->
      <g style="fill: #262626" transform="translate(89.878125 87.460589)scale(0.1 -0.1)">
       <use xlink:href="#LiberationSans-32"/>
       <use xlink:href="#LiberationSans-32" x="55.615234"/>
      </g>
     </g>
    </g>
   </g>
   <g id="line2d_18">
    <path d="M 138.436364 100.684242 
L 141.495295 106.280081 
L 144.554226 109.897685 
L 150.672088 114.894852 
L 153.731019 116.66734 
L 156.78995 119.75077 
L 159.848881 121.027594 
L 162.907812 123.67796 
L 165.966743 125.91232 
L 169.025674 127.393645 
L 175.143536 130.680539 
L 178.202467 132.327145 
L 184.320329 136.157261 
L 187.37926 138.061297 
L 190.438191 139.575465 
L 193.497122 141.743369 
L 196.556053 143.014526 
L 199.614984 144.596516 
L 205.732846 146.992151 
L 208.791777 149.235649 
L 211.850708 150.617943 
L 214.909639 151.450399 
L 217.96857 153.495121 
L 224.086432 156.19073 
L 227.145363 158.315378 
L 230.204294 159.560101 
L 233.263225 161.467816 
L 236.322156 162.266005 
L 242.440018 164.658792 
L 245.498949 165.998453 
L 248.55788 166.917006 
L 251.616811 167.713949 
L 254.675742 168.935679 
L 257.734673 170.98138 
L 260.793604 172.458968 
L 263.852535 173.0701 
L 266.911466 174.088722 
L 269.970397 176.018243 
L 273.029328 176.60303 
L 276.088259 178.105969 
L 279.14719 179.081648 
L 282.206122 180.327735 
L 285.265053 181.765568 
L 288.323984 182.370855 
L 291.382915 184.284281 
L 294.441846 184.492862 
L 297.500777 186.391024 
L 303.618639 187.943598 
L 312.795432 190.798524 
L 315.854363 192.049938 
L 318.913294 193.028301 
L 321.972225 194.197311 
L 325.031156 194.724913 
L 328.090087 195.993163 
L 334.207949 197.979676 
L 337.26688 198.623176 
L 340.325811 200.023701 
L 343.384742 200.733049 
L 352.561535 203.611799 
L 355.620466 204.763379 
L 358.679397 205.696603 
L 361.738328 206.291951 
L 364.797259 207.587421 
L 370.915121 209.11629 
L 373.974052 210.238811 
L 377.032983 211.171752 
L 380.091914 211.389649 
L 386.209776 213.229706 
L 389.268707 214.490954 
L 401.504431 217.517599 
L 404.563362 218.798087 
L 407.622293 219.269602 
L 410.681224 219.970331 
L 413.740155 221.140884 
L 416.799086 221.600086 
L 419.858017 222.70534 
L 425.975879 223.992755 
L 432.093741 225.446415 
L 444.329466 229.012233 
L 447.388397 229.35125 
L 450.447328 230.206862 
L 453.506259 231.374255 
L 456.56519 231.528484 
L 459.624121 232.582308 
L 462.683052 233.231326 
L 465.741983 233.730892 
L 471.859845 235.752072 
L 474.918776 236.145204 
L 477.977707 237.156765 
L 481.036638 237.751372 
L 484.095569 238.773808 
L 487.1545 239.282081 
L 490.213431 240.230969 
L 493.272362 240.754951 
L 502.449155 243.041927 
L 505.508086 243.885954 
L 511.625948 245.210424 
L 514.684879 245.657388 
L 520.802741 247.155714 
L 523.861672 247.941977 
L 526.920603 249.032337 
L 529.979534 249.148116 
L 533.038465 249.960709 
L 536.097396 250.65147 
L 539.156327 251.532641 
L 545.274189 253.051378 
L 548.33312 253.485081 
L 551.392051 254.278479 
L 554.450982 255.288705 
L 557.509913 255.722927 
L 563.627775 257.113379 
L 566.686706 257.894005 
L 569.745637 258.246224 
L 588.099223 262.50172 
L 591.158154 263.209006 
L 594.217085 263.770815 
L 600.334947 265.172601 
L 603.393878 265.715675 
L 609.511741 267.121332 
L 612.570672 267.736855 
L 618.688534 269.275826 
L 627.865327 270.918813 
L 630.924258 271.683358 
L 637.04212 272.747893 
L 640.101051 273.650899 
L 643.159982 274.140674 
L 646.218913 274.960758 
L 649.277844 275.409576 
L 652.336775 276.246527 
L 655.395706 276.469082 
L 658.454637 277.285725 
L 667.63143 278.963037 
L 670.690361 279.712156 
L 673.749292 280.307875 
L 679.867154 281.754816 
L 685.985016 282.80634 
L 689.043947 283.33768 
L 692.102878 283.627552 
L 698.22074 285.282332 
L 704.338602 286.449592 
L 707.397533 286.81844 
L 710.456464 287.627754 
L 713.515395 288.261508 
L 716.574326 288.708472 
L 722.692188 289.817954 
L 725.751119 290.566864 
L 728.81005 290.959195 
L 737.986843 292.774167 
L 741.045774 293.197946 
L 744.104705 293.806586 
L 747.163636 294.250909 
L 747.163636 294.250909 
" clip-path="url(#p426d650ac4)" style="fill: none; stroke: #ff0000; stroke-width: 1.75; stroke-linecap: round"/>
   </g>
   <g id="line2d_19">
    <path d="M 138.436364 88.069091 
L 141.495295 93.201456 
L 144.554226 99.212885 
L 147.613157 103.980867 
L 150.672088 110.838726 
L 153.731019 117.319325 
L 156.78995 119.728104 
L 165.966743 126.106942 
L 169.025674 127.857001 
L 172.084605 129.381078 
L 175.143536 131.218005 
L 178.202467 132.788098 
L 181.261398 134.544031 
L 184.320329 136.586024 
L 190.438191 139.75018 
L 196.556053 141.917847 
L 199.614984 144.245454 
L 205.732846 147.220032 
L 208.791777 148.547766 
L 214.909639 150.979715 
L 217.96857 152.482491 
L 221.027501 154.129987 
L 227.145363 156.476552 
L 230.204294 157.944972 
L 233.263225 159.235443 
L 236.322156 160.720833 
L 239.381087 162.030915 
L 242.440018 163.197107 
L 245.498949 163.705884 
L 248.55788 165.663886 
L 251.616811 166.489786 
L 254.675742 167.811112 
L 257.734673 167.607055 
L 260.793604 170.057161 
L 266.911466 172.220229 
L 269.970397 172.335608 
L 273.029328 174.660663 
L 276.088259 175.259958 
L 279.14719 176.538146 
L 282.206122 177.262284 
L 285.265053 178.190998 
L 288.323984 179.261035 
L 291.382915 180.203485 
L 294.441846 181.81409 
L 297.500777 182.073196 
L 300.559708 182.676317 
L 303.618639 184.289577 
L 306.67757 185.113711 
L 309.736501 186.154659 
L 312.795432 186.867567 
L 315.854363 188.023954 
L 318.913294 188.99223 
L 321.972225 189.729496 
L 325.031156 190.669721 
L 328.090087 190.461288 
L 331.149018 192.490033 
L 334.207949 193.686145 
L 337.26688 194.142959 
L 340.325811 195.353178 
L 343.384742 194.323563 
L 346.443673 197.033858 
L 352.561535 198.186047 
L 355.620466 199.254482 
L 358.679397 200.150354 
L 361.738328 200.792355 
L 364.797259 201.574346 
L 367.85619 201.983542 
L 373.974052 204.039523 
L 377.032983 204.853259 
L 380.091914 205.435286 
L 383.150845 206.467408 
L 386.209776 206.382706 
L 389.268707 207.996143 
L 392.327638 208.679161 
L 395.386569 209.477128 
L 398.4455 207.526276 
L 401.504431 210.853325 
L 404.563362 211.631874 
L 410.681224 212.441159 
L 413.740155 211.607798 
L 416.799086 214.795571 
L 419.858017 214.251933 
L 422.916948 215.519293 
L 425.975879 216.475776 
L 429.03481 217.138768 
L 432.093741 218.30898 
L 435.152672 219.025003 
L 441.270534 220.197055 
L 444.329466 220.205065 
L 447.388397 218.912576 
L 450.447328 222.660838 
L 459.624121 224.271071 
L 462.683052 225.529071 
L 465.741983 225.141383 
L 468.800914 226.432374 
L 471.859845 225.605184 
L 474.918776 227.644803 
L 477.977707 227.946186 
L 481.036638 228.495015 
L 484.095569 230.394601 
L 487.1545 230.597085 
L 490.213431 231.053039 
L 493.272362 232.328305 
L 496.331293 232.142079 
L 499.390224 233.143509 
L 502.449155 233.903085 
L 505.508086 233.725626 
L 508.567017 232.998625 
L 511.625948 236.007544 
L 514.684879 235.735977 
L 517.74381 236.820493 
L 520.802741 237.76143 
L 523.861672 239.037319 
L 526.920603 238.999893 
L 533.038465 239.368118 
L 536.097396 240.909002 
L 539.156327 239.592497 
L 542.215258 242.488099 
L 545.274189 241.681187 
L 548.33312 242.240638 
L 551.392051 244.41136 
L 554.450982 244.768949 
L 557.509913 245.29664 
L 563.627775 246.872087 
L 566.686706 245.530943 
L 569.745637 248.69019 
L 572.804568 248.51325 
L 575.863499 250.163579 
L 578.92243 249.573067 
L 581.981361 250.85888 
L 585.040292 250.519833 
L 588.099223 252.162642 
L 591.158154 252.998851 
L 594.217085 252.290022 
L 597.276016 254.253409 
L 600.334947 254.783592 
L 603.393878 254.007891 
L 606.45281 255.532903 
L 609.511741 255.849283 
L 612.570672 256.549657 
L 615.629603 256.759098 
L 618.688534 257.803369 
L 621.747465 258.647054 
L 624.806396 259.215435 
L 627.865327 257.026126 
L 630.924258 260.72855 
L 633.983189 259.651021 
L 637.04212 262.143167 
L 640.101051 262.513454 
L 643.159982 261.677616 
L 646.218913 263.80397 
L 649.277844 262.242021 
L 652.336775 264.997841 
L 655.395706 263.076628 
L 658.454637 265.265655 
L 661.513568 266.902649 
L 664.572499 266.652755 
L 667.63143 265.241327 
L 670.690361 268.812233 
L 673.749292 268.530624 
L 676.808223 269.494643 
L 679.867154 268.480322 
L 682.926085 271.569018 
L 685.985016 270.220115 
L 689.043947 270.824632 
L 692.102878 271.062718 
L 695.161809 273.767925 
L 698.22074 274.773597 
L 701.279671 274.401871 
L 704.338602 274.781044 
L 707.397533 275.81143 
L 710.456464 274.139428 
L 713.515395 277.42509 
L 716.574326 277.334781 
L 719.633257 275.72253 
L 722.692188 277.622086 
L 725.751119 278.135759 
L 728.81005 279.459087 
L 731.868981 279.556324 
L 734.927912 280.211528 
L 737.986843 278.619452 
L 741.045774 280.36328 
L 744.104705 280.982749 
L 747.163636 278.373889 
L 747.163636 278.373889 
" clip-path="url(#p426d650ac4)" style="fill: none; stroke: #008000; stroke-width: 1.75; stroke-linecap: round"/>
   </g>
   <g id="patch_3">
    <path d="M 108 304.56 
L 108 77.76 
" style="fill: none"/>
   </g>
   <g id="patch_4">
    <path d="M 777.6 304.56 
L 777.6 77.76 
" style="fill: none"/>
   </g>
   <g id="patch_5">
    <path d="M 108 304.56 
L 777.6 304.56 
" style="fill: none"/>
   </g>
   <g id="patch_6">
    <path d="M 108 77.76 
L 777.6 77.76 
" style="fill: none"/>
   </g>
  </g>
  <g id="axes_2">
   <g id="patch_7">
    <path d="M 108 576.72 
L 777.6 576.72 
L 777.6 349.92 
L 108 349.92 
z
" style="fill: #eaeaf2"/>
   </g>
   <g id="matplotlib.axis_3">
    <g id="xtick_10">
     <g id="line2d_20"/>
     <g id="text_18">
      <!-- 0 -->
      <g style="fill: #262626" transform="translate(135.655895 590.966875)scale(0.1 -0.1)">
       <use xlink:href="#LiberationSans-30"/>
      </g>
     </g>
    </g>
    <g id="xtick_11">
     <g id="line2d_21"/>
     <g id="text_19">
      <!-- 25 -->
      <g style="fill: #262626" transform="translate(209.348702 590.966875)scale(0.1 -0.1)">
       <use xlink:href="#LiberationSans-32"/>
       <use xlink:href="#LiberationSans-35" x="55.615234"/>
      </g>
     </g>
    </g>
    <g id="xtick_12">
     <g id="line2d_22"/>
     <g id="text_20">
      <!-- 50 -->
      <g style="fill: #262626" transform="translate(285.821977 590.966875)scale(0.1 -0.1)">
       <use xlink:href="#LiberationSans-35"/>
       <use xlink:href="#LiberationSans-30" x="55.615234"/>
      </g>
     </g>
    </g>
    <g id="xtick_13">
     <g id="line2d_23"/>
     <g id="text_21">
      <!-- 75 -->
      <g style="fill: #262626" transform="translate(362.295253 590.966875)scale(0.1 -0.1)">
       <use xlink:href="#LiberationSans-37"/>
       <use xlink:href="#LiberationSans-35" x="55.615234"/>
      </g>
     </g>
    </g>
    <g id="xtick_14">
     <g id="line2d_24"/>
     <g id="text_22">
      <!-- 100 -->
      <g style="fill: #262626" transform="translate(435.988059 590.966875)scale(0.1 -0.1)">
       <use xlink:href="#LiberationSans-31"/>
       <use xlink:href="#LiberationSans-30" x="55.615234"/>
       <use xlink:href="#LiberationSans-30" x="111.230469"/>
      </g>
     </g>
    </g>
    <g id="xtick_15">
     <g id="line2d_25"/>
     <g id="text_23">
      <!-- 125 -->
      <g style="fill: #262626" transform="translate(512.461335 590.966875)scale(0.1 -0.1)">
       <use xlink:href="#LiberationSans-31"/>
       <use xlink:href="#LiberationSans-32" x="55.615234"/>
       <use xlink:href="#LiberationSans-35" x="111.230469"/>
      </g>
     </g>
    </g>
    <g id="xtick_16">
     <g id="line2d_26"/>
     <g id="text_24">
      <!-- 150 -->
      <g style="fill: #262626" transform="translate(588.93461 590.966875)scale(0.1 -0.1)">
       <use xlink:href="#LiberationSans-31"/>
       <use xlink:href="#LiberationSans-35" x="55.615234"/>
       <use xlink:href="#LiberationSans-30" x="111.230469"/>
      </g>
     </g>
    </g>
    <g id="xtick_17">
     <g id="line2d_27"/>
     <g id="text_25">
      <!-- 175 -->
      <g style="fill: #262626" transform="translate(665.407886 590.966875)scale(0.1 -0.1)">
       <use xlink:href="#LiberationSans-31"/>
       <use xlink:href="#LiberationSans-37" x="55.615234"/>
       <use xlink:href="#LiberationSans-35" x="111.230469"/>
      </g>
     </g>
    </g>
    <g id="xtick_18">
     <g id="line2d_28"/>
     <g id="text_26">
      <!-- 200 -->
      <g style="fill: #262626" transform="translate(741.881161 590.966875)scale(0.1 -0.1)">
       <use xlink:href="#LiberationSans-32"/>
       <use xlink:href="#LiberationSans-30" x="55.615234"/>
       <use xlink:href="#LiberationSans-30" x="111.230469"/>
      </g>
     </g>
    </g>
   </g>
   <g id="matplotlib.axis_4">
    <g id="ytick_9">
     <g id="line2d_29"/>
     <g id="text_27">
      <!-- 0.0 -->
      <g style="fill: #262626" transform="translate(87.1 570.474092)scale(0.1 -0.1)">
       <defs>
        <path id="LiberationSans-2e" d="M 584 0 
L 584 684 
L 1194 684 
L 1194 0 
L 584 0 
z
" transform="scale(0.015625)"/>
       </defs>
       <use xlink:href="#LiberationSans-30"/>
       <use xlink:href="#LiberationSans-2e" x="55.615234"/>
       <use xlink:href="#LiberationSans-30" x="83.398438"/>
      </g>
     </g>
    </g>
    <g id="ytick_10">
     <g id="line2d_30"/>
     <g id="text_28">
      <!-- 0.2 -->
      <g style="fill: #262626" transform="translate(87.1 528.844878)scale(0.1 -0.1)">
       <use xlink:href="#LiberationSans-30"/>
       <use xlink:href="#LiberationSans-2e" x="55.615234"/>
       <use xlink:href="#LiberationSans-32" x="83.398438"/>
      </g>
     </g>
    </g>
    <g id="ytick_11">
     <g id="line2d_31"/>
     <g id="text_29">
      <!-- 0.4 -->
      <g style="fill: #262626" transform="translate(87.1 487.215664)scale(0.1 -0.1)">
       <use xlink:href="#LiberationSans-30"/>
       <use xlink:href="#LiberationSans-2e" x="55.615234"/>
       <use xlink:href="#LiberationSans-34" x="83.398438"/>
      </g>
     </g>
    </g>
    <g id="ytick_12">
     <g id="line2d_32"/>
     <g id="text_30">
      <!-- 0.6 -->
      <g style="fill: #262626" transform="translate(87.1 445.586449)scale(0.1 -0.1)">
       <use xlink:href="#LiberationSans-30"/>
       <use xlink:href="#LiberationSans-2e" x="55.615234"/>
       <use xlink:href="#LiberationSans-36" x="83.398438"/>
      </g>
     </g>
    </g>
    <g id="ytick_13">
     <g id="line2d_33"/>
     <g id="text_31">
      <!-- 0.8 -->
      <g style="fill: #262626" transform="translate(87.1 403.957235)scale(0.1 -0.1)">
       <use xlink:href="#LiberationSans-30"/>
       <use xlink:href="#LiberationSans-2e" x="55.615234"/>
       <use xlink:href="#LiberationSans-38" x="83.398438"/>
      </g>
     </g>
    </g>
    <g id="ytick_14">
     <g id="line2d_34"/>
     <g id="text_32">
      <!-- 1.0 -->
      <g style="fill: #262626" transform="translate(87.1 362.328021)scale(0.1 -0.1)">
       <use xlink:href="#LiberationSans-31"/>
       <use xlink:href="#LiberationSans-2e" x="55.615234"/>
       <use xlink:href="#LiberationSans-30" x="83.398438"/>
      </g>
     </g>
    </g>
   </g>
   <g id="line2d_35">
    <path d="M 138.436364 507.293234 
L 141.495295 487.677906 
L 144.554226 478.022692 
L 147.613157 471.009959 
L 150.672088 465.725 
L 153.731019 462.26945 
L 156.78995 456.577956 
L 159.848881 459.830238 
L 162.907812 452.410969 
L 165.966743 447.12601 
L 169.025674 447.227644 
L 172.084605 447.12601 
L 175.143536 445.906404 
L 178.202467 443.162291 
L 181.261398 444.890066 
L 184.320329 436.860994 
L 187.37926 437.674065 
L 190.438191 436.962628 
L 193.497122 433.30381 
L 196.556053 431.677669 
L 199.614984 433.507078 
L 202.673915 432.592373 
L 205.732846 432.389106 
L 208.791777 427.917217 
L 211.850708 425.274738 
L 214.909639 427.71395 
L 217.96857 423.038794 
L 221.027501 424.360034 
L 224.086432 422.733892 
L 227.145363 417.3473 
L 230.204294 418.566906 
L 233.263225 414.908088 
L 236.322156 414.908088 
L 239.381087 413.89175 
L 242.440018 414.603187 
L 245.498949 412.367242 
L 248.55788 415.314623 
L 251.616811 415.416257 
L 254.675742 416.127694 
L 257.734673 407.387185 
L 260.793604 408.505157 
L 263.852535 408.403523 
L 266.911466 410.029664 
L 269.970397 406.777382 
L 273.029328 406.98065 
L 276.088259 404.744706 
L 279.14719 404.033269 
L 282.206122 404.033269 
L 285.265053 400.374451 
L 288.323984 398.443409 
L 291.382915 396.105831 
L 294.441846 400.272817 
L 297.500777 394.784591 
L 300.559708 396.918901 
L 303.618639 396.512366 
L 306.67757 397.122169 
L 309.736501 396.512366 
L 312.795432 395.089492 
L 315.854363 395.089492 
L 318.913294 392.853548 
L 321.972225 393.056816 
L 325.031156 394.073154 
L 328.090087 393.361717 
L 331.149018 393.15845 
L 334.207949 389.906167 
L 337.26688 391.532309 
L 340.325811 388.280026 
L 343.384742 389.194731 
L 346.443673 389.397998 
L 349.502604 387.06042 
L 352.561535 386.450617 
L 355.620466 385.535913 
L 358.679397 383.198335 
L 361.738328 386.958787 
L 364.797259 380.860757 
L 367.85619 382.7918 
L 370.915121 382.181997 
L 373.974052 380.352588 
L 377.032983 380.454222 
L 380.091914 382.690166 
L 383.150845 380.962391 
L 386.209776 382.080363 
L 389.268707 379.132982 
L 392.327638 378.116644 
L 398.4455 377.405207 
L 401.504431 378.01501 
L 404.563362 375.169263 
L 407.622293 376.490503 
L 410.681224 378.421545 
L 413.740155 375.067629 
L 416.799086 376.388869 
L 419.858017 374.457826 
L 422.916948 375.372531 
L 425.975879 374.356192 
L 429.03481 375.067629 
L 432.093741 373.848023 
L 435.152672 373.949657 
L 438.211603 373.746389 
L 441.270534 373.23822 
L 444.329466 371.815347 
L 447.388397 373.23822 
L 450.447328 371.916981 
L 453.506259 369.681037 
L 456.56519 373.339854 
L 459.624121 371.307178 
L 462.683052 370.595741 
L 465.741983 371.307178 
L 468.800914 370.290839 
L 471.859845 367.64836 
L 474.918776 370.494107 
L 477.977707 368.258163 
L 481.036638 368.9696 
L 484.095569 366.835289 
L 487.1545 368.461431 
L 490.213431 366.530388 
L 493.272362 366.936923 
L 496.331293 368.9696 
L 499.390224 368.054895 
L 502.449155 365.107514 
L 505.508086 367.038557 
L 508.567017 365.310782 
L 511.625948 366.733656 
L 514.684879 367.749994 
L 517.74381 368.461431 
L 520.802741 366.835289 
L 523.861672 366.530388 
L 526.920603 363.583007 
L 529.979534 368.054895 
L 533.038465 366.123853 
L 536.097396 365.107514 
L 542.215258 364.294444 
L 545.274189 365.107514 
L 548.33312 366.225487 
L 551.392051 365.107514 
L 554.450982 362.973204 
L 557.509913 365.310782 
L 560.568844 363.786275 
L 566.686706 363.278106 
L 569.745637 364.700979 
L 575.863499 364.19281 
L 578.92243 363.379739 
L 581.981361 363.887909 
L 585.040292 363.379739 
L 588.099223 362.566669 
L 591.158154 362.465035 
L 594.217085 363.074838 
L 597.276016 362.973204 
L 600.334947 363.176472 
L 603.393878 363.786275 
L 606.45281 362.668303 
L 612.570672 363.379739 
L 615.629603 362.363401 
L 618.688534 361.855232 
L 621.747465 362.566669 
L 624.806396 362.0585 
L 630.924258 363.583007 
L 633.983189 362.566669 
L 637.04212 363.684641 
L 640.101051 361.956866 
L 643.159982 362.261767 
L 646.218913 361.753598 
L 649.277844 362.465035 
L 652.336775 360.838894 
L 655.395706 363.684641 
L 658.454637 362.261767 
L 661.513568 362.465035 
L 664.572499 361.448697 
L 667.63143 363.176472 
L 670.690361 361.550331 
L 673.749292 361.753598 
L 676.808223 361.753598 
L 679.867154 360.940528 
L 682.926085 361.245429 
L 685.985016 361.245429 
L 692.102878 362.465035 
L 695.161809 361.753598 
L 698.22074 360.432359 
L 701.279671 360.229091 
L 704.338602 360.838894 
L 707.397533 361.753598 
L 710.456464 360.432359 
L 713.515395 360.635626 
L 716.574326 361.347063 
L 731.868981 360.73726 
L 734.927912 360.940528 
L 737.986843 360.533992 
L 741.045774 361.651964 
L 747.163636 361.347063 
L 747.163636 361.347063 
" clip-path="url(#p20923819c0)" style="fill: none; stroke: #ff0000; stroke-width: 1.75; stroke-linecap: round"/>
   </g>
   <g id="line2d_36">
    <path d="M 138.436364 566.410909 
L 141.495295 546.549084 
L 144.554226 529.948703 
L 147.613157 512.322247 
L 150.672088 492.240547 
L 153.731019 466.955201 
L 156.78995 462.227938 
L 159.848881 456.364664 
L 162.907812 454.019356 
L 165.966743 449.915072 
L 169.025674 449.805138 
L 172.084605 447.789632 
L 175.143536 445.480974 
L 178.202467 446.763567 
L 181.261398 445.114524 
L 184.320329 440.900293 
L 187.37926 438.188536 
L 190.438191 438.335119 
L 193.497122 440.863645 
L 196.556053 442.072953 
L 199.614984 436.099745 
L 202.673915 435.659998 
L 205.732846 434.084239 
L 208.791777 433.864372 
L 211.850708 435.000383 
L 214.909639 434.780503 
L 217.96857 432.435196 
L 221.027501 430.932735 
L 224.086432 430.602921 
L 227.145363 429.540207 
L 230.204294 429.90667 
L 233.263225 428.880592 
L 236.322156 427.231549 
L 239.381087 425.948955 
L 242.440018 425.692439 
L 245.498949 427.634648 
L 248.55788 424.043396 
L 251.616811 425.912307 
L 254.675742 424.666362 
L 257.734673 432.801658 
L 260.793604 423.090616 
L 263.852535 422.61422 
L 266.911466 422.724153 
L 269.970397 428.14768 
L 273.029328 420.672011 
L 276.088259 423.053967 
L 282.206122 422.24777 
L 285.265053 423.237198 
L 288.323984 421.111759 
L 291.382915 421.991253 
L 294.441846 418.21677 
L 297.500777 422.24777 
L 300.559708 422.321055 
L 303.618639 420.891891 
L 306.67757 421.185056 
L 309.736501 420.635375 
L 312.795432 421.478209 
L 315.854363 420.488792 
L 318.913294 418.58322 
L 321.972225 419.242848 
L 325.031156 419.352781 
L 328.090087 423.090616 
L 331.149018 419.132901 
L 334.207949 416.274562 
L 337.26688 418.290055 
L 340.325811 417.227342 
L 343.384742 425.692439 
L 346.443673 416.641012 
L 349.502604 417.85032 
L 352.561535 418.619869 
L 355.620466 416.934177 
L 358.679397 417.007474 
L 361.738328 418.253419 
L 364.797259 417.960254 
L 367.85619 419.792529 
L 370.915121 417.886957 
L 373.974052 416.824243 
L 377.032983 416.860892 
L 380.091914 417.227342 
L 383.150845 416.604375 
L 386.209776 420.049045 
L 389.268707 415.651596 
L 392.327638 416.018045 
L 395.386569 416.164628 
L 398.4455 426.278769 
L 401.504431 416.31121 
L 404.563362 415.541649 
L 407.622293 415.248484 
L 410.681224 417.373924 
L 413.740155 424.556428 
L 416.799086 414.918683 
L 419.858017 419.352781 
L 422.916948 416.384495 
L 425.975879 415.175199 
L 429.03481 415.651596 
L 432.093741 412.463442 
L 435.152672 414.259068 
L 438.211603 414.918683 
L 441.270534 413.63609 
L 444.329466 417.703738 
L 447.388397 425.802373 
L 450.447328 413.782672 
L 453.506259 413.379573 
L 456.56519 414.478936 
L 459.624121 414.772101 
L 462.683052 413.526156 
L 465.741983 417.557155 
L 468.800914 414.442287 
L 471.859845 419.499364 
L 474.918776 415.138551 
L 477.977707 415.138551 
L 481.036638 416.457793 
L 484.095569 411.840464 
L 487.1545 413.232991 
L 490.213431 416.091331 
L 493.272362 411.583947 
L 496.331293 415.798166 
L 499.390224 413.63609 
L 502.449155 413.63609 
L 505.508086 416.67766 
L 508.567017 424.556428 
L 511.625948 412.463442 
L 514.684879 419.206199 
L 517.74381 415.871463 
L 520.802741 414.552221 
L 523.861672 411.693881 
L 526.920603 414.478936 
L 529.979534 415.688232 
L 533.038465 417.667089 
L 536.097396 414.955332 
L 539.156327 424.226627 
L 542.215258 413.672738 
L 545.274189 419.242848 
L 548.33312 419.939111 
L 551.392051 412.903177 
L 554.450982 414.405651 
L 560.568844 415.395067 
L 563.627775 413.562805 
L 566.686706 420.085681 
L 569.745637 412.243562 
L 572.804568 415.505013 
L 575.863499 412.500079 
L 578.92243 416.421144 
L 581.981361 414.698803 
L 585.040292 416.970825 
L 588.099223 414.442287 
L 591.158154 412.829892 
L 594.217085 420.965176 
L 597.276016 412.463442 
L 600.334947 414.698803 
L 603.393878 420.635375 
L 606.45281 415.468364 
L 612.570672 416.31121 
L 615.629603 416.237913 
L 618.688534 415.908112 
L 621.747465 414.991968 
L 624.806396 416.531078 
L 627.865327 425.65579 
L 630.924258 414.772101 
L 633.983189 420.305561 
L 637.04212 414.552221 
L 640.101051 414.332353 
L 643.159982 418.290055 
L 646.218913 414.222419 
L 649.277844 423.786879 
L 652.336775 414.222419 
L 655.395706 423.090616 
L 658.454637 417.410573 
L 661.513568 412.939826 
L 664.572499 417.117408 
L 667.63143 422.284418 
L 670.690361 412.133629 
L 673.749292 415.688232 
L 676.808223 413.819321 
L 679.867154 423.896813 
L 682.926085 410.55787 
L 685.985016 417.483858 
L 689.043947 417.080759 
L 692.102878 419.645946 
L 695.161809 412.719958 
L 698.22074 410.301354 
L 701.279671 412.390145 
L 704.338602 413.746023 
L 707.397533 411.400716 
L 710.456464 418.949683 
L 713.515395 412.170277 
L 716.574326 412.829892 
L 719.633257 420.855242 
L 722.692188 414.369002 
L 725.751119 416.494429 
L 728.81005 415.101902 
L 731.868981 414.772101 
L 734.927912 414.149122 
L 737.986843 422.760802 
L 741.045774 418.436638 
L 744.104705 419.096265 
L 747.163636 425.839022 
L 747.163636 425.839022 
" clip-path="url(#p20923819c0)" style="fill: none; stroke: #008000; stroke-width: 1.75; stroke-linecap: round"/>
   </g>
   <g id="patch_8">
    <path d="M 108 576.72 
L 108 349.92 
" style="fill: none"/>
   </g>
   <g id="patch_9">
    <path d="M 777.6 576.72 
L 777.6 349.92 
" style="fill: none"/>
   </g>
   <g id="patch_10">
    <path d="M 108 576.72 
L 777.6 576.72 
" style="fill: none"/>
   </g>
   <g id="patch_11">
    <path d="M 108 349.92 
L 777.6 349.92 
" style="fill: none"/>
   </g>
  </g>
  <g id="text_33">
   <!-- Plots of model performance: spectrogram, draghici20_crnn - lr 1e-05, batch 16, 128 steps/epoch -->
   <g style="fill: #262626" transform="translate(176.548125 21.65625)scale(0.12 -0.12)">
    <defs>
     <path id="LiberationSans-50" d="M 3931 3078 
Q 3931 2791 3836 2542 
Q 3741 2294 3552 2111 
Q 3363 1928 3078 1822 
Q 2794 1716 2416 1716 
L 1122 1716 
L 1122 0 
L 525 0 
L 525 4403 
L 2378 4403 
Q 2769 4403 3059 4308 
Q 3350 4213 3544 4039 
Q 3738 3866 3834 3620 
Q 3931 3375 3931 3078 
z
M 3331 3072 
Q 3331 3491 3075 3708 
Q 2819 3925 2306 3925 
L 1122 3925 
L 1122 2188 
L 2331 2188 
Q 2847 2188 3089 2416 
Q 3331 2644 3331 3072 
z
" transform="scale(0.015625)"/>
     <path id="LiberationSans-6c" d="M 431 0 
L 431 4638 
L 994 4638 
L 994 0 
L 431 0 
z
" transform="scale(0.015625)"/>
     <path id="LiberationSans-6f" d="M 3291 1694 
Q 3291 806 2900 371 
Q 2509 -63 1766 -63 
Q 1413 -63 1134 43 
Q 856 150 664 369 
Q 472 588 370 917 
Q 269 1247 269 1694 
Q 269 3444 1784 3444 
Q 2178 3444 2464 3334 
Q 2750 3225 2933 3006 
Q 3116 2788 3203 2459 
Q 3291 2131 3291 1694 
z
M 2700 1694 
Q 2700 2088 2639 2344 
Q 2578 2600 2461 2753 
Q 2344 2906 2175 2967 
Q 2006 3028 1794 3028 
Q 1578 3028 1404 2964 
Q 1231 2900 1109 2745 
Q 988 2591 923 2334 
Q 859 2078 859 1694 
Q 859 1300 928 1042 
Q 997 784 1117 631 
Q 1238 478 1402 415 
Q 1566 353 1759 353 
Q 1975 353 2150 414 
Q 2325 475 2447 628 
Q 2569 781 2634 1040 
Q 2700 1300 2700 1694 
z
" transform="scale(0.015625)"/>
     <path id="LiberationSans-74" d="M 1731 25 
Q 1603 -9 1470 -29 
Q 1338 -50 1163 -50 
Q 488 -50 488 716 
L 488 2972 
L 97 2972 
L 97 3381 
L 509 3381 
L 675 4138 
L 1050 4138 
L 1050 3381 
L 1675 3381 
L 1675 2972 
L 1050 2972 
L 1050 838 
Q 1050 594 1129 495 
Q 1209 397 1406 397 
Q 1488 397 1564 409 
Q 1641 422 1731 441 
L 1731 25 
z
" transform="scale(0.015625)"/>
     <path id="LiberationSans-73" d="M 2969 934 
Q 2969 697 2876 511 
Q 2784 325 2609 198 
Q 2434 72 2179 4 
Q 1925 -63 1597 -63 
Q 1303 -63 1067 -17 
Q 831 28 653 128 
Q 475 228 354 392 
Q 234 556 178 794 
L 675 891 
Q 747 619 972 492 
Q 1197 366 1597 366 
Q 1778 366 1929 391 
Q 2081 416 2190 477 
Q 2300 538 2361 639 
Q 2422 741 2422 891 
Q 2422 1044 2350 1142 
Q 2278 1241 2150 1306 
Q 2022 1372 1839 1420 
Q 1656 1469 1438 1528 
Q 1234 1581 1034 1647 
Q 834 1713 673 1820 
Q 513 1928 413 2087 
Q 313 2247 313 2488 
Q 313 2950 642 3192 
Q 972 3434 1603 3434 
Q 2163 3434 2492 3237 
Q 2822 3041 2909 2606 
L 2403 2544 
Q 2375 2675 2300 2764 
Q 2225 2853 2119 2908 
Q 2013 2963 1880 2986 
Q 1747 3009 1603 3009 
Q 1222 3009 1040 2893 
Q 859 2778 859 2544 
Q 859 2406 926 2317 
Q 994 2228 1114 2167 
Q 1234 2106 1403 2061 
Q 1572 2016 1775 1966 
Q 1909 1931 2050 1892 
Q 2191 1853 2323 1798 
Q 2456 1744 2573 1670 
Q 2691 1597 2778 1494 
Q 2866 1391 2917 1253 
Q 2969 1116 2969 934 
z
" transform="scale(0.015625)"/>
     <path id="LiberationSans-20" transform="scale(0.015625)"/>
     <path id="LiberationSans-66" d="M 1128 2972 
L 1128 0 
L 566 0 
L 566 2972 
L 91 2972 
L 91 3381 
L 566 3381 
L 566 3763 
Q 566 3947 600 4105 
Q 634 4263 726 4380 
Q 819 4497 978 4564 
Q 1138 4631 1391 4631 
Q 1491 4631 1598 4622 
Q 1706 4613 1788 4594 
L 1788 4166 
Q 1734 4175 1664 4183 
Q 1594 4191 1538 4191 
Q 1413 4191 1333 4156 
Q 1253 4122 1208 4058 
Q 1163 3994 1145 3900 
Q 1128 3806 1128 3684 
L 1128 3381 
L 1788 3381 
L 1788 2972 
L 1128 2972 
z
" transform="scale(0.015625)"/>
     <path id="LiberationSans-6d" d="M 2400 0 
L 2400 2144 
Q 2400 2391 2369 2556 
Q 2338 2722 2264 2823 
Q 2191 2925 2072 2967 
Q 1953 3009 1781 3009 
Q 1603 3009 1459 2939 
Q 1316 2869 1214 2736 
Q 1113 2603 1058 2408 
Q 1003 2213 1003 1959 
L 1003 0 
L 444 0 
L 444 2659 
Q 444 2766 442 2883 
Q 441 3000 437 3104 
Q 434 3209 431 3284 
Q 428 3359 425 3381 
L 956 3381 
Q 959 3366 962 3297 
Q 966 3228 970 3139 
Q 975 3050 978 2958 
Q 981 2866 981 2803 
L 991 2803 
Q 1066 2950 1153 3069 
Q 1241 3188 1358 3270 
Q 1475 3353 1626 3398 
Q 1778 3444 1978 3444 
Q 2363 3444 2586 3291 
Q 2809 3138 2897 2803 
L 2906 2803 
Q 2981 2950 3075 3069 
Q 3169 3188 3294 3270 
Q 3419 3353 3575 3398 
Q 3731 3444 3931 3444 
Q 4188 3444 4373 3375 
Q 4559 3306 4678 3162 
Q 4797 3019 4853 2792 
Q 4909 2566 4909 2253 
L 4909 0 
L 4353 0 
L 4353 2144 
Q 4353 2391 4322 2556 
Q 4291 2722 4217 2823 
Q 4144 2925 4025 2967 
Q 3906 3009 3734 3009 
Q 3556 3009 3412 2942 
Q 3269 2875 3167 2744 
Q 3066 2613 3011 2416 
Q 2956 2219 2956 1959 
L 2956 0 
L 2400 0 
z
" transform="scale(0.015625)"/>
     <path id="LiberationSans-64" d="M 2566 544 
Q 2409 219 2151 78 
Q 1894 -63 1513 -63 
Q 872 -63 570 368 
Q 269 800 269 1675 
Q 269 3444 1513 3444 
Q 1897 3444 2153 3303 
Q 2409 3163 2566 2856 
L 2572 2856 
Q 2572 2888 2570 2955 
Q 2569 3022 2567 3095 
Q 2566 3169 2566 3234 
Q 2566 3300 2566 3328 
L 2566 4638 
L 3128 4638 
L 3128 697 
Q 3128 575 3129 462 
Q 3131 350 3134 256 
Q 3138 163 3141 95 
Q 3144 28 3147 0 
L 2609 0 
Q 2603 31 2598 89 
Q 2594 147 2589 222 
Q 2584 297 2581 380 
Q 2578 463 2578 544 
L 2566 544 
z
M 859 1694 
Q 859 1344 903 1094 
Q 947 844 1044 683 
Q 1141 522 1291 447 
Q 1441 372 1656 372 
Q 1878 372 2048 444 
Q 2219 516 2333 677 
Q 2447 838 2506 1097 
Q 2566 1356 2566 1731 
Q 2566 2091 2506 2339 
Q 2447 2588 2331 2741 
Q 2216 2894 2048 2961 
Q 1881 3028 1663 3028 
Q 1456 3028 1306 2956 
Q 1156 2884 1056 2725 
Q 956 2566 907 2311 
Q 859 2056 859 1694 
z
" transform="scale(0.015625)"/>
     <path id="LiberationSans-65" d="M 863 1572 
Q 863 1306 917 1082 
Q 972 859 1086 698 
Q 1200 538 1378 448 
Q 1556 359 1806 359 
Q 2172 359 2392 506 
Q 2613 653 2691 878 
L 3184 738 
Q 3131 597 3036 455 
Q 2941 313 2781 198 
Q 2622 84 2383 10 
Q 2144 -63 1806 -63 
Q 1056 -63 664 384 
Q 272 831 272 1713 
Q 272 2188 390 2517 
Q 509 2847 715 3053 
Q 922 3259 1197 3351 
Q 1472 3444 1784 3444 
Q 2209 3444 2495 3306 
Q 2781 3169 2954 2926 
Q 3128 2684 3201 2356 
Q 3275 2028 3275 1647 
L 3275 1572 
L 863 1572 
z
M 2694 2003 
Q 2647 2538 2422 2783 
Q 2197 3028 1775 3028 
Q 1634 3028 1479 2983 
Q 1325 2938 1194 2822 
Q 1063 2706 972 2507 
Q 881 2309 869 2003 
L 2694 2003 
z
" transform="scale(0.015625)"/>
     <path id="LiberationSans-70" d="M 3291 1706 
Q 3291 1322 3228 997 
Q 3166 672 3020 437 
Q 2875 203 2636 70 
Q 2397 -63 2047 -63 
Q 1684 -63 1412 75 
Q 1141 213 997 525 
L 981 525 
Q 984 519 986 469 
Q 988 419 989 344 
Q 991 269 992 176 
Q 994 84 994 -6 
L 994 -1328 
L 431 -1328 
L 431 2691 
Q 431 2813 429 2925 
Q 428 3038 425 3130 
Q 422 3222 419 3287 
Q 416 3353 413 3381 
L 956 3381 
Q 959 3372 964 3315 
Q 969 3259 973 3179 
Q 978 3100 983 3009 
Q 988 2919 988 2838 
L 1000 2838 
Q 1078 3000 1178 3114 
Q 1278 3228 1406 3301 
Q 1534 3375 1692 3408 
Q 1850 3441 2047 3441 
Q 2397 3441 2636 3316 
Q 2875 3191 3020 2964 
Q 3166 2738 3228 2417 
Q 3291 2097 3291 1706 
z
M 2700 1694 
Q 2700 2006 2662 2250 
Q 2625 2494 2533 2662 
Q 2441 2831 2287 2918 
Q 2134 3006 1903 3006 
Q 1716 3006 1550 2953 
Q 1384 2900 1261 2750 
Q 1138 2600 1066 2336 
Q 994 2072 994 1650 
Q 994 1291 1053 1042 
Q 1113 794 1227 641 
Q 1341 488 1509 420 
Q 1678 353 1897 353 
Q 2131 353 2286 443 
Q 2441 534 2533 706 
Q 2625 878 2662 1126 
Q 2700 1375 2700 1694 
z
" transform="scale(0.015625)"/>
     <path id="LiberationSans-72" d="M 444 0 
L 444 2594 
Q 444 2700 442 2811 
Q 441 2922 437 3025 
Q 434 3128 431 3218 
Q 428 3309 425 3381 
L 956 3381 
Q 959 3309 964 3217 
Q 969 3125 973 3028 
Q 978 2931 979 2842 
Q 981 2753 981 2691 
L 994 2691 
Q 1053 2884 1120 3026 
Q 1188 3169 1278 3261 
Q 1369 3353 1494 3398 
Q 1619 3444 1797 3444 
Q 1866 3444 1928 3433 
Q 1991 3422 2025 3413 
L 2025 2897 
Q 1969 2913 1894 2920 
Q 1819 2928 1725 2928 
Q 1531 2928 1395 2840 
Q 1259 2753 1173 2598 
Q 1088 2444 1047 2230 
Q 1006 2016 1006 1763 
L 1006 0 
L 444 0 
z
" transform="scale(0.015625)"/>
     <path id="LiberationSans-61" d="M 1294 -63 
Q 784 -63 528 206 
Q 272 475 272 944 
Q 272 1278 398 1492 
Q 525 1706 729 1828 
Q 934 1950 1196 1997 
Q 1459 2044 1731 2050 
L 2491 2063 
L 2491 2247 
Q 2491 2456 2447 2603 
Q 2403 2750 2312 2840 
Q 2222 2931 2086 2973 
Q 1950 3016 1766 3016 
Q 1603 3016 1472 2992 
Q 1341 2969 1244 2908 
Q 1147 2847 1087 2742 
Q 1028 2638 1009 2478 
L 422 2531 
Q 453 2731 540 2898 
Q 628 3066 789 3187 
Q 950 3309 1192 3376 
Q 1434 3444 1778 3444 
Q 2416 3444 2737 3151 
Q 3059 2859 3059 2306 
L 3059 850 
Q 3059 600 3125 473 
Q 3191 347 3375 347 
Q 3422 347 3469 353 
Q 3516 359 3559 369 
L 3559 19 
Q 3453 -6 3348 -18 
Q 3244 -31 3125 -31 
Q 2966 -31 2852 11 
Q 2738 53 2666 139 
Q 2594 225 2556 351 
Q 2519 478 2509 647 
L 2491 647 
Q 2400 484 2292 353 
Q 2184 222 2040 130 
Q 1897 38 1714 -12 
Q 1531 -63 1294 -63 
z
M 1422 359 
Q 1691 359 1892 457 
Q 2094 556 2226 709 
Q 2359 863 2425 1044 
Q 2491 1225 2491 1391 
L 2491 1669 
L 1875 1656 
Q 1669 1653 1483 1626 
Q 1297 1600 1156 1522 
Q 1016 1444 933 1303 
Q 850 1163 850 934 
Q 850 659 998 509 
Q 1147 359 1422 359 
z
" transform="scale(0.015625)"/>
     <path id="LiberationSans-6e" d="M 2578 0 
L 2578 2144 
Q 2578 2391 2542 2556 
Q 2506 2722 2425 2823 
Q 2344 2925 2211 2967 
Q 2078 3009 1881 3009 
Q 1681 3009 1520 2939 
Q 1359 2869 1245 2736 
Q 1131 2603 1068 2408 
Q 1006 2213 1006 1959 
L 1006 0 
L 444 0 
L 444 2659 
Q 444 2766 442 2883 
Q 441 3000 437 3104 
Q 434 3209 431 3284 
Q 428 3359 425 3381 
L 956 3381 
Q 959 3366 962 3297 
Q 966 3228 970 3139 
Q 975 3050 978 2958 
Q 981 2866 981 2803 
L 991 2803 
Q 1072 2950 1169 3069 
Q 1266 3188 1394 3270 
Q 1522 3353 1687 3398 
Q 1853 3444 2072 3444 
Q 2353 3444 2556 3375 
Q 2759 3306 2890 3162 
Q 3022 3019 3083 2792 
Q 3144 2566 3144 2253 
L 3144 0 
L 2578 0 
z
" transform="scale(0.015625)"/>
     <path id="LiberationSans-63" d="M 859 1706 
Q 859 1416 901 1172 
Q 944 928 1044 751 
Q 1144 575 1308 478 
Q 1472 381 1713 381 
Q 2013 381 2214 543 
Q 2416 706 2463 1044 
L 3031 1006 
Q 3003 797 2909 603 
Q 2816 409 2655 262 
Q 2494 116 2262 26 
Q 2031 -63 1728 -63 
Q 1331 -63 1053 71 
Q 775 206 601 442 
Q 428 678 350 998 
Q 272 1319 272 1694 
Q 272 2034 328 2295 
Q 384 2556 486 2751 
Q 588 2947 725 3080 
Q 863 3213 1023 3292 
Q 1184 3372 1362 3408 
Q 1541 3444 1722 3444 
Q 2006 3444 2228 3366 
Q 2450 3288 2611 3152 
Q 2772 3016 2872 2831 
Q 2972 2647 3013 2434 
L 2434 2391 
Q 2391 2672 2212 2837 
Q 2034 3003 1706 3003 
Q 1466 3003 1305 2923 
Q 1144 2844 1044 2683 
Q 944 2522 901 2278 
Q 859 2034 859 1706 
z
" transform="scale(0.015625)"/>
     <path id="LiberationSans-3a" d="M 584 2734 
L 584 3381 
L 1194 3381 
L 1194 2734 
L 584 2734 
z
M 584 0 
L 584 647 
L 1194 647 
L 1194 0 
L 584 0 
z
" transform="scale(0.015625)"/>
     <path id="LiberationSans-67" d="M 1713 -1328 
Q 1422 -1328 1197 -1268 
Q 972 -1209 812 -1098 
Q 653 -988 553 -834 
Q 453 -681 409 -494 
L 975 -413 
Q 1031 -647 1223 -773 
Q 1416 -900 1728 -900 
Q 1919 -900 2075 -847 
Q 2231 -794 2340 -676 
Q 2450 -559 2509 -371 
Q 2569 -184 2569 84 
L 2569 628 
L 2563 628 
Q 2500 500 2408 383 
Q 2316 266 2183 175 
Q 2050 84 1875 29 
Q 1700 -25 1475 -25 
Q 1153 -25 923 83 
Q 694 191 548 406 
Q 403 622 336 942 
Q 269 1263 269 1684 
Q 269 2091 336 2416 
Q 403 2741 554 2967 
Q 706 3194 948 3314 
Q 1191 3434 1538 3434 
Q 1897 3434 2161 3270 
Q 2425 3106 2569 2803 
L 2575 2803 
Q 2575 2881 2579 2978 
Q 2584 3075 2589 3161 
Q 2594 3247 2600 3309 
Q 2606 3372 2613 3381 
L 3147 3381 
Q 3144 3353 3141 3286 
Q 3138 3219 3134 3125 
Q 3131 3031 3129 2917 
Q 3128 2803 3128 2681 
L 3128 97 
Q 3128 -613 2779 -970 
Q 2431 -1328 1713 -1328 
z
M 2569 1691 
Q 2569 2044 2492 2295 
Q 2416 2547 2291 2706 
Q 2166 2866 2005 2941 
Q 1844 3016 1675 3016 
Q 1459 3016 1304 2941 
Q 1150 2866 1048 2705 
Q 947 2544 898 2292 
Q 850 2041 850 1691 
Q 850 1325 898 1076 
Q 947 828 1047 675 
Q 1147 522 1300 456 
Q 1453 391 1666 391 
Q 1834 391 1995 462 
Q 2156 534 2284 690 
Q 2413 847 2491 1094 
Q 2569 1341 2569 1691 
z
" transform="scale(0.015625)"/>
     <path id="LiberationSans-2c" d="M 1203 684 
L 1203 159 
Q 1203 -6 1189 -142 
Q 1175 -278 1144 -395 
Q 1113 -513 1067 -616 
Q 1022 -719 959 -819 
L 575 -819 
Q 716 -616 792 -409 
Q 869 -203 869 0 
L 594 0 
L 594 684 
L 1203 684 
z
" transform="scale(0.015625)"/>
     <path id="LiberationSans-68" d="M 991 2803 
Q 1084 2975 1193 3095 
Q 1303 3216 1434 3294 
Q 1566 3372 1722 3408 
Q 1878 3444 2072 3444 
Q 2397 3444 2605 3356 
Q 2813 3269 2933 3111 
Q 3053 2953 3098 2734 
Q 3144 2516 3144 2253 
L 3144 0 
L 2578 0 
L 2578 2144 
Q 2578 2359 2551 2521 
Q 2525 2684 2450 2792 
Q 2375 2900 2237 2954 
Q 2100 3009 1881 3009 
Q 1681 3009 1520 2937 
Q 1359 2866 1245 2734 
Q 1131 2603 1068 2415 
Q 1006 2228 1006 1994 
L 1006 0 
L 444 0 
L 444 4638 
L 1006 4638 
L 1006 3431 
Q 1006 3328 1003 3225 
Q 1000 3122 995 3034 
Q 991 2947 987 2886 
Q 984 2825 981 2803 
L 991 2803 
z
" transform="scale(0.015625)"/>
     <path id="LiberationSans-69" d="M 428 4100 
L 428 4638 
L 991 4638 
L 991 4100 
L 428 4100 
z
M 428 0 
L 428 3381 
L 991 3381 
L 991 0 
L 428 0 
z
" transform="scale(0.015625)"/>
     <path id="LiberationSans-5f" d="M -97 -1272 
L -97 -866 
L 3631 -866 
L 3631 -1272 
L -97 -1272 
z
" transform="scale(0.015625)"/>
     <path id="LiberationSans-2d" d="M 284 1450 
L 284 1950 
L 1847 1950 
L 1847 1450 
L 284 1450 
z
" transform="scale(0.015625)"/>
     <path id="LiberationSans-62" d="M 3291 1706 
Q 3291 -63 2047 -63 
Q 1663 -63 1408 76 
Q 1153 216 994 525 
L 988 525 
Q 988 444 983 356 
Q 978 269 973 194 
Q 969 119 964 66 
Q 959 13 956 0 
L 413 0 
Q 416 28 419 95 
Q 422 163 425 256 
Q 428 350 429 462 
Q 431 575 431 697 
L 431 4638 
L 994 4638 
L 994 3316 
Q 994 3222 992 3136 
Q 991 3050 988 2984 
Q 984 2906 981 2838 
L 994 2838 
Q 1150 3163 1408 3303 
Q 1666 3444 2047 3444 
Q 2688 3444 2989 3012 
Q 3291 2581 3291 1706 
z
M 2700 1688 
Q 2700 2038 2656 2288 
Q 2613 2538 2516 2698 
Q 2419 2859 2269 2934 
Q 2119 3009 1903 3009 
Q 1681 3009 1511 2937 
Q 1341 2866 1227 2706 
Q 1113 2547 1053 2287 
Q 994 2028 994 1653 
Q 994 1291 1053 1044 
Q 1113 797 1227 642 
Q 1341 488 1509 420 
Q 1678 353 1897 353 
Q 2103 353 2253 425 
Q 2403 497 2503 656 
Q 2603 816 2651 1070 
Q 2700 1325 2700 1688 
z
" transform="scale(0.015625)"/>
     <path id="LiberationSans-2f" d="M 0 -63 
L 1284 4638 
L 1778 4638 
L 506 -63 
L 0 -63 
z
" transform="scale(0.015625)"/>
    </defs>
    <use xlink:href="#LiberationSans-50"/>
    <use xlink:href="#LiberationSans-6c" x="66.699219"/>
    <use xlink:href="#LiberationSans-6f" x="88.916016"/>
    <use xlink:href="#LiberationSans-74" x="144.53125"/>
    <use xlink:href="#LiberationSans-73" x="172.314453"/>
    <use xlink:href="#LiberationSans-20" x="222.314453"/>
    <use xlink:href="#LiberationSans-6f" x="250.097656"/>
    <use xlink:href="#LiberationSans-66" x="305.712891"/>
    <use xlink:href="#LiberationSans-20" x="333.496094"/>
    <use xlink:href="#LiberationSans-6d" x="361.279297"/>
    <use xlink:href="#LiberationSans-6f" x="444.580078"/>
    <use xlink:href="#LiberationSans-64" x="500.195312"/>
    <use xlink:href="#LiberationSans-65" x="555.810547"/>
    <use xlink:href="#LiberationSans-6c" x="611.425781"/>
    <use xlink:href="#LiberationSans-20" x="633.642578"/>
    <use xlink:href="#LiberationSans-70" x="661.425781"/>
    <use xlink:href="#LiberationSans-65" x="717.041016"/>
    <use xlink:href="#LiberationSans-72" x="772.65625"/>
    <use xlink:href="#LiberationSans-66" x="805.957031"/>
    <use xlink:href="#LiberationSans-6f" x="833.740234"/>
    <use xlink:href="#LiberationSans-72" x="889.355469"/>
    <use xlink:href="#LiberationSans-6d" x="922.65625"/>
    <use xlink:href="#LiberationSans-61" x="1005.957031"/>
    <use xlink:href="#LiberationSans-6e" x="1061.572266"/>
    <use xlink:href="#LiberationSans-63" x="1117.1875"/>
    <use xlink:href="#LiberationSans-65" x="1167.1875"/>
    <use xlink:href="#LiberationSans-3a" x="1222.802734"/>
    <use xlink:href="#LiberationSans-20" x="1250.585938"/>
    <use xlink:href="#LiberationSans-73" x="1278.369141"/>
    <use xlink:href="#LiberationSans-70" x="1328.369141"/>
    <use xlink:href="#LiberationSans-65" x="1383.984375"/>
    <use xlink:href="#LiberationSans-63" x="1439.599609"/>
    <use xlink:href="#LiberationSans-74" x="1489.599609"/>
    <use xlink:href="#LiberationSans-72" x="1517.382812"/>
    <use xlink:href="#LiberationSans-6f" x="1550.683594"/>
    <use xlink:href="#LiberationSans-67" x="1606.298828"/>
    <use xlink:href="#LiberationSans-72" x="1661.914062"/>
    <use xlink:href="#LiberationSans-61" x="1695.214844"/>
    <use xlink:href="#LiberationSans-6d" x="1750.830078"/>
    <use xlink:href="#LiberationSans-2c" x="1834.130859"/>
    <use xlink:href="#LiberationSans-20" x="1861.914062"/>
    <use xlink:href="#LiberationSans-64" x="1889.697266"/>
    <use xlink:href="#LiberationSans-72" x="1945.3125"/>
    <use xlink:href="#LiberationSans-61" x="1978.613281"/>
    <use xlink:href="#LiberationSans-67" x="2034.228516"/>
    <use xlink:href="#LiberationSans-68" x="2089.84375"/>
    <use xlink:href="#LiberationSans-69" x="2145.458984"/>
    <use xlink:href="#LiberationSans-63" x="2167.675781"/>
    <use xlink:href="#LiberationSans-69" x="2217.675781"/>
    <use xlink:href="#LiberationSans-32" x="2239.892578"/>
    <use xlink:href="#LiberationSans-30" x="2295.507812"/>
    <use xlink:href="#LiberationSans-5f" x="2351.123047"/>
    <use xlink:href="#LiberationSans-63" x="2406.738281"/>
    <use xlink:href="#LiberationSans-72" x="2456.738281"/>
    <use xlink:href="#LiberationSans-6e" x="2490.039062"/>
    <use xlink:href="#LiberationSans-6e" x="2545.654297"/>
    <use xlink:href="#LiberationSans-20" x="2601.269531"/>
    <use xlink:href="#LiberationSans-2d" x="2629.052734"/>
    <use xlink:href="#LiberationSans-20" x="2662.353516"/>
    <use xlink:href="#LiberationSans-6c" x="2690.136719"/>
    <use xlink:href="#LiberationSans-72" x="2712.353516"/>
    <use xlink:href="#LiberationSans-20" x="2745.654297"/>
    <use xlink:href="#LiberationSans-31" x="2773.4375"/>
    <use xlink:href="#LiberationSans-65" x="2829.052734"/>
    <use xlink:href="#LiberationSans-2d" x="2884.667969"/>
    <use xlink:href="#LiberationSans-30" x="2917.96875"/>
    <use xlink:href="#LiberationSans-35" x="2973.583984"/>
    <use xlink:href="#LiberationSans-2c" x="3029.199219"/>
    <use xlink:href="#LiberationSans-20" x="3056.982422"/>
    <use xlink:href="#LiberationSans-62" x="3084.765625"/>
    <use xlink:href="#LiberationSans-61" x="3140.380859"/>
    <use xlink:href="#LiberationSans-74" x="3195.996094"/>
    <use xlink:href="#LiberationSans-63" x="3223.779297"/>
    <use xlink:href="#LiberationSans-68" x="3273.779297"/>
    <use xlink:href="#LiberationSans-20" x="3329.394531"/>
    <use xlink:href="#LiberationSans-31" x="3357.177734"/>
    <use xlink:href="#LiberationSans-36" x="3412.792969"/>
    <use xlink:href="#LiberationSans-2c" x="3468.408203"/>
    <use xlink:href="#LiberationSans-20" x="3496.191406"/>
    <use xlink:href="#LiberationSans-31" x="3523.974609"/>
    <use xlink:href="#LiberationSans-32" x="3579.589844"/>
    <use xlink:href="#LiberationSans-38" x="3635.205078"/>
    <use xlink:href="#LiberationSans-20" x="3690.820312"/>
    <use xlink:href="#LiberationSans-73" x="3718.603516"/>
    <use xlink:href="#LiberationSans-74" x="3768.603516"/>
    <use xlink:href="#LiberationSans-65" x="3796.386719"/>
    <use xlink:href="#LiberationSans-70" x="3852.001953"/>
    <use xlink:href="#LiberationSans-73" x="3907.617188"/>
    <use xlink:href="#LiberationSans-2f" x="3957.617188"/>
    <use xlink:href="#LiberationSans-65" x="3985.400391"/>
    <use xlink:href="#LiberationSans-70" x="4041.015625"/>
    <use xlink:href="#LiberationSans-6f" x="4096.630859"/>
    <use xlink:href="#LiberationSans-63" x="4152.246094"/>
    <use xlink:href="#LiberationSans-68" x="4202.246094"/>
   </g>
  </g>
 </g>
 <defs>
  <clipPath id="p426d650ac4">
   <rect x="108" y="77.76" width="669.6" height="226.8"/>
  </clipPath>
  <clipPath id="p20923819c0">
   <rect x="108" y="349.92" width="669.6" height="226.8"/>
  </clipPath>
 </defs>
</svg>
