<?xml version="1.0" encoding="utf-8" standalone="no"?>
<!DOCTYPE svg PUBLIC "-//W3C//DTD SVG 1.1//EN"
  "http://www.w3.org/Graphics/SVG/1.1/DTD/svg11.dtd">
<svg xmlns:xlink="http://www.w3.org/1999/xlink" width="864pt" height="648pt" viewBox="0 0 864 648" xmlns="http://www.w3.org/2000/svg" version="1.1">
 <metadata>
  <rdf:RDF xmlns:dc="http://purl.org/dc/elements/1.1/" xmlns:cc="http://creativecommons.org/ns#" xmlns:rdf="http://www.w3.org/1999/02/22-rdf-syntax-ns#">
   <cc:Work>
    <dc:type rdf:resource="http://purl.org/dc/dcmitype/StillImage"/>
    <dc:date>2022-03-16T08:38:29.907194</dc:date>
    <dc:format>image/svg+xml</dc:format>
    <dc:creator>
     <cc:Agent>
      <dc:title>Matplotlib v3.5.0, https://matplotlib.org/</dc:title>
     </cc:Agent>
    </dc:creator>
   </cc:Work>
  </rdf:RDF>
 </metadata>
 <defs>
  <style type="text/css">*{stroke-linejoin: round; stroke-linecap: butt}</style>
 </defs>
 <g id="figure_1">
  <g id="patch_1">
   <path d="M 0 648 
L 864 648 
L 864 0 
L 0 0 
z
" style="fill: #ffffff"/>
  </g>
  <g id="axes_1">
   <g id="patch_2">
    <path d="M 108 304.56 
L 777.6 304.56 
L 777.6 77.76 
L 108 77.76 
z
" style="fill: #eaeaf2"/>
   </g>
   <g id="matplotlib.axis_1">
    <g id="xtick_1">
     <g id="line2d_1"/>
     <g id="text_1">
      <!-- 0 -->
      <g style="fill: #262626" transform="translate(135.655895 318.806875)scale(0.1 -0.1)">
       <defs>
        <path id="LiberationSans-30" d="M 3309 2203 
Q 3309 1569 3189 1136 
Q 3069 703 2861 436 
Q 2653 169 2372 53 
Q 2091 -63 1772 -63 
Q 1450 -63 1172 53 
Q 894 169 689 434 
Q 484 700 367 1133 
Q 250 1566 250 2203 
Q 250 2869 367 3305 
Q 484 3741 690 4000 
Q 897 4259 1178 4364 
Q 1459 4469 1791 4469 
Q 2106 4469 2382 4364 
Q 2659 4259 2865 4000 
Q 3072 3741 3190 3305 
Q 3309 2869 3309 2203 
z
M 2738 2203 
Q 2738 2728 2675 3076 
Q 2613 3425 2491 3633 
Q 2369 3841 2192 3927 
Q 2016 4013 1791 4013 
Q 1553 4013 1372 3925 
Q 1191 3838 1067 3630 
Q 944 3422 881 3073 
Q 819 2725 819 2203 
Q 819 1697 883 1350 
Q 947 1003 1070 792 
Q 1194 581 1372 489 
Q 1550 397 1778 397 
Q 2000 397 2178 489 
Q 2356 581 2479 792 
Q 2603 1003 2670 1350 
Q 2738 1697 2738 2203 
z
" transform="scale(0.015625)"/>
       </defs>
       <use xlink:href="#LiberationSans-30"/>
      </g>
     </g>
    </g>
    <g id="xtick_2">
     <g id="line2d_2"/>
     <g id="text_2">
      <!-- 25 -->
      <g style="fill: #262626" transform="translate(209.348702 318.806875)scale(0.1 -0.1)">
       <defs>
        <path id="LiberationSans-32" d="M 322 0 
L 322 397 
Q 481 763 711 1042 
Q 941 1322 1194 1548 
Q 1447 1775 1695 1969 
Q 1944 2163 2144 2356 
Q 2344 2550 2467 2762 
Q 2591 2975 2591 3244 
Q 2591 3431 2534 3573 
Q 2478 3716 2372 3812 
Q 2266 3909 2117 3957 
Q 1969 4006 1788 4006 
Q 1619 4006 1470 3959 
Q 1322 3913 1206 3819 
Q 1091 3725 1017 3586 
Q 944 3447 922 3263 
L 347 3316 
Q 375 3553 478 3762 
Q 581 3972 762 4130 
Q 944 4288 1198 4378 
Q 1453 4469 1788 4469 
Q 2116 4469 2372 4391 
Q 2628 4313 2804 4159 
Q 2981 4006 3075 3781 
Q 3169 3556 3169 3263 
Q 3169 3041 3089 2841 
Q 3009 2641 2876 2459 
Q 2744 2278 2569 2109 
Q 2394 1941 2203 1780 
Q 2013 1619 1819 1461 
Q 1625 1303 1454 1143 
Q 1284 984 1150 820 
Q 1016 656 941 478 
L 3238 478 
L 3238 0 
L 322 0 
z
" transform="scale(0.015625)"/>
        <path id="LiberationSans-35" d="M 3291 1434 
Q 3291 1103 3191 828 
Q 3091 553 2894 354 
Q 2697 156 2405 46 
Q 2113 -63 1728 -63 
Q 1381 -63 1123 18 
Q 866 100 687 242 
Q 509 384 404 575 
Q 300 766 256 984 
L 825 1050 
Q 859 925 921 808 
Q 984 691 1092 598 
Q 1200 506 1358 451 
Q 1516 397 1741 397 
Q 1959 397 2137 464 
Q 2316 531 2442 662 
Q 2569 794 2637 984 
Q 2706 1175 2706 1422 
Q 2706 1625 2640 1795 
Q 2575 1966 2453 2089 
Q 2331 2213 2154 2281 
Q 1978 2350 1753 2350 
Q 1613 2350 1494 2325 
Q 1375 2300 1273 2256 
Q 1172 2213 1089 2155 
Q 1006 2097 934 2034 
L 384 2034 
L 531 4403 
L 3034 4403 
L 3034 3925 
L 1044 3925 
L 959 2528 
Q 1109 2644 1334 2726 
Q 1559 2809 1869 2809 
Q 2197 2809 2459 2709 
Q 2722 2609 2906 2426 
Q 3091 2244 3191 1991 
Q 3291 1738 3291 1434 
z
" transform="scale(0.015625)"/>
       </defs>
       <use xlink:href="#LiberationSans-32"/>
       <use xlink:href="#LiberationSans-35" x="55.615234"/>
      </g>
     </g>
    </g>
    <g id="xtick_3">
     <g id="line2d_3"/>
     <g id="text_3">
      <!-- 50 -->
      <g style="fill: #262626" transform="translate(285.821977 318.806875)scale(0.1 -0.1)">
       <use xlink:href="#LiberationSans-35"/>
       <use xlink:href="#LiberationSans-30" x="55.615234"/>
      </g>
     </g>
    </g>
    <g id="xtick_4">
     <g id="line2d_4"/>
     <g id="text_4">
      <!-- 75 -->
      <g style="fill: #262626" transform="translate(362.295253 318.806875)scale(0.1 -0.1)">
       <defs>
        <path id="LiberationSans-37" d="M 3238 3947 
Q 2906 3441 2628 2973 
Q 2350 2506 2150 2032 
Q 1950 1559 1839 1061 
Q 1728 563 1728 0 
L 1141 0 
Q 1141 528 1266 1036 
Q 1391 1544 1603 2033 
Q 1816 2522 2097 2994 
Q 2378 3466 2694 3925 
L 328 3925 
L 328 4403 
L 3238 4403 
L 3238 3947 
z
" transform="scale(0.015625)"/>
       </defs>
       <use xlink:href="#LiberationSans-37"/>
       <use xlink:href="#LiberationSans-35" x="55.615234"/>
      </g>
     </g>
    </g>
    <g id="xtick_5">
     <g id="line2d_5"/>
     <g id="text_5">
      <!-- 100 -->
      <g style="fill: #262626" transform="translate(435.988059 318.806875)scale(0.1 -0.1)">
       <defs>
        <path id="LiberationSans-31" d="M 488 0 
L 488 478 
L 1609 478 
L 1609 3866 
L 616 3156 
L 616 3688 
L 1656 4403 
L 2175 4403 
L 2175 478 
L 3247 478 
L 3247 0 
L 488 0 
z
" transform="scale(0.015625)"/>
       </defs>
       <use xlink:href="#LiberationSans-31"/>
       <use xlink:href="#LiberationSans-30" x="55.615234"/>
       <use xlink:href="#LiberationSans-30" x="111.230469"/>
      </g>
     </g>
    </g>
    <g id="xtick_6">
     <g id="line2d_6"/>
     <g id="text_6">
      <!-- 125 -->
      <g style="fill: #262626" transform="translate(512.461335 318.806875)scale(0.1 -0.1)">
       <use xlink:href="#LiberationSans-31"/>
       <use xlink:href="#LiberationSans-32" x="55.615234"/>
       <use xlink:href="#LiberationSans-35" x="111.230469"/>
      </g>
     </g>
    </g>
    <g id="xtick_7">
     <g id="line2d_7"/>
     <g id="text_7">
      <!-- 150 -->
      <g style="fill: #262626" transform="translate(588.93461 318.806875)scale(0.1 -0.1)">
       <use xlink:href="#LiberationSans-31"/>
       <use xlink:href="#LiberationSans-35" x="55.615234"/>
       <use xlink:href="#LiberationSans-30" x="111.230469"/>
      </g>
     </g>
    </g>
    <g id="xtick_8">
     <g id="line2d_8"/>
     <g id="text_8">
      <!-- 175 -->
      <g style="fill: #262626" transform="translate(665.407886 318.806875)scale(0.1 -0.1)">
       <use xlink:href="#LiberationSans-31"/>
       <use xlink:href="#LiberationSans-37" x="55.615234"/>
       <use xlink:href="#LiberationSans-35" x="111.230469"/>
      </g>
     </g>
    </g>
    <g id="xtick_9">
     <g id="line2d_9"/>
     <g id="text_9">
      <!-- 200 -->
      <g style="fill: #262626" transform="translate(741.881161 318.806875)scale(0.1 -0.1)">
       <use xlink:href="#LiberationSans-32"/>
       <use xlink:href="#LiberationSans-30" x="55.615234"/>
       <use xlink:href="#LiberationSans-30" x="111.230469"/>
      </g>
     </g>
    </g>
   </g>
   <g id="matplotlib.axis_2">
    <g id="ytick_1">
     <g id="line2d_10"/>
     <g id="text_10">
      <!-- 0.0 -->
      <g style="fill: #262626" transform="translate(87.1 306.927058)scale(0.1 -0.1)">
       <defs>
        <path id="LiberationSans-2e" d="M 584 0 
L 584 684 
L 1194 684 
L 1194 0 
L 584 0 
z
" transform="scale(0.015625)"/>
       </defs>
       <use xlink:href="#LiberationSans-30"/>
       <use xlink:href="#LiberationSans-2e" x="55.615234"/>
       <use xlink:href="#LiberationSans-30" x="83.398438"/>
      </g>
     </g>
    </g>
    <g id="ytick_2">
     <g id="line2d_11"/>
     <g id="text_11">
      <!-- 2.5 -->
      <g style="fill: #262626" transform="translate(87.1 280.5661)scale(0.1 -0.1)">
       <use xlink:href="#LiberationSans-32"/>
       <use xlink:href="#LiberationSans-2e" x="55.615234"/>
       <use xlink:href="#LiberationSans-35" x="83.398438"/>
      </g>
     </g>
    </g>
    <g id="ytick_3">
     <g id="line2d_12"/>
     <g id="text_12">
      <!-- 5.0 -->
      <g style="fill: #262626" transform="translate(87.1 254.205142)scale(0.1 -0.1)">
       <use xlink:href="#LiberationSans-35"/>
       <use xlink:href="#LiberationSans-2e" x="55.615234"/>
       <use xlink:href="#LiberationSans-30" x="83.398438"/>
      </g>
     </g>
    </g>
    <g id="ytick_4">
     <g id="line2d_13"/>
     <g id="text_13">
      <!-- 7.5 -->
      <g style="fill: #262626" transform="translate(87.1 227.844184)scale(0.1 -0.1)">
       <use xlink:href="#LiberationSans-37"/>
       <use xlink:href="#LiberationSans-2e" x="55.615234"/>
       <use xlink:href="#LiberationSans-35" x="83.398438"/>
      </g>
     </g>
    </g>
    <g id="ytick_5">
     <g id="line2d_14"/>
     <g id="text_14">
      <!-- 10.0 -->
      <g style="fill: #262626" transform="translate(81.539062 201.483227)scale(0.1 -0.1)">
       <use xlink:href="#LiberationSans-31"/>
       <use xlink:href="#LiberationSans-30" x="55.615234"/>
       <use xlink:href="#LiberationSans-2e" x="111.230469"/>
       <use xlink:href="#LiberationSans-30" x="139.013672"/>
      </g>
     </g>
    </g>
    <g id="ytick_6">
     <g id="line2d_15"/>
     <g id="text_15">
      <!-- 12.5 -->
      <g style="fill: #262626" transform="translate(81.539062 175.122269)scale(0.1 -0.1)">
       <use xlink:href="#LiberationSans-31"/>
       <use xlink:href="#LiberationSans-32" x="55.615234"/>
       <use xlink:href="#LiberationSans-2e" x="111.230469"/>
       <use xlink:href="#LiberationSans-35" x="139.013672"/>
      </g>
     </g>
    </g>
    <g id="ytick_7">
     <g id="line2d_16"/>
     <g id="text_16">
      <!-- 15.0 -->
      <g style="fill: #262626" transform="translate(81.539062 148.761311)scale(0.1 -0.1)">
       <use xlink:href="#LiberationSans-31"/>
       <use xlink:href="#LiberationSans-35" x="55.615234"/>
       <use xlink:href="#LiberationSans-2e" x="111.230469"/>
       <use xlink:href="#LiberationSans-30" x="139.013672"/>
      </g>
     </g>
    </g>
    <g id="ytick_8">
     <g id="line2d_17"/>
     <g id="text_17">
      <!-- 17.5 -->
      <g style="fill: #262626" transform="translate(81.539062 122.400353)scale(0.1 -0.1)">
       <use xlink:href="#LiberationSans-31"/>
       <use xlink:href="#LiberationSans-37" x="55.615234"/>
       <use xlink:href="#LiberationSans-2e" x="111.230469"/>
       <use xlink:href="#LiberationSans-35" x="139.013672"/>
      </g>
     </g>
    </g>
    <g id="ytick_9">
     <g id="line2d_18"/>
     <g id="text_18">
      <!-- 20.0 -->
      <g style="fill: #262626" transform="translate(81.539062 96.039395)scale(0.1 -0.1)">
       <use xlink:href="#LiberationSans-32"/>
       <use xlink:href="#LiberationSans-30" x="55.615234"/>
       <use xlink:href="#LiberationSans-2e" x="111.230469"/>
       <use xlink:href="#LiberationSans-30" x="139.013672"/>
      </g>
     </g>
    </g>
   </g>
   <g id="line2d_19">
    <path d="M 138.436364 91.17876 
L 147.613157 144.045772 
L 153.731019 174.040924 
L 156.78995 187.293434 
L 159.848881 199.842442 
L 165.966743 221.143247 
L 169.025674 229.384923 
L 172.084605 237.122562 
L 175.143536 243.273187 
L 178.202467 249.863185 
L 181.261398 254.3842 
L 184.320329 259.462227 
L 187.37926 263.307259 
L 190.438191 266.687007 
L 196.556053 271.980716 
L 202.673915 276.588418 
L 208.791777 279.069701 
L 211.850708 280.72482 
L 217.96857 282.736546 
L 221.027501 283.290934 
L 224.086432 283.705128 
L 227.145363 284.300112 
L 230.204294 285.418773 
L 233.263225 285.904799 
L 236.322156 285.483058 
L 239.381087 286.417306 
L 242.440018 286.760993 
L 245.498949 287.238868 
L 248.55788 287.436584 
L 254.675742 287.567333 
L 260.793604 288.437314 
L 263.852535 288.464631 
L 266.911466 289.41382 
L 269.970397 288.87372 
L 273.029328 288.675482 
L 276.088259 289.241257 
L 279.14719 289.171176 
L 282.206122 289.664789 
L 285.265053 289.420127 
L 288.323984 289.692869 
L 291.382915 290.091018 
L 294.441846 289.40202 
L 297.500777 289.821023 
L 300.559708 289.951414 
L 303.618639 290.215688 
L 306.67757 289.999993 
L 312.795432 290.281545 
L 315.854363 290.272477 
L 318.913294 290.789069 
L 321.972225 290.122111 
L 325.031156 290.410734 
L 328.090087 290.541658 
L 331.149018 290.892787 
L 334.207949 290.882742 
L 337.26688 291.010271 
L 340.325811 290.693647 
L 346.443673 290.804306 
L 349.502604 290.690413 
L 352.561535 291.353599 
L 355.620466 291.277428 
L 358.679397 291.025878 
L 361.738328 290.940399 
L 364.797259 291.44702 
L 367.85619 290.734272 
L 370.915121 291.234504 
L 377.032983 291.499527 
L 380.091914 291.909845 
L 386.209776 291.09043 
L 392.327638 291.401502 
L 395.386569 291.439739 
L 398.4455 291.869644 
L 401.504431 291.370089 
L 404.563362 291.847598 
L 407.622293 291.487341 
L 410.681224 291.819022 
L 413.740155 291.322806 
L 416.799086 292.142506 
L 419.858017 291.82301 
L 422.916948 291.868314 
L 425.975879 292.270063 
L 432.093741 291.403578 
L 435.152672 292.093815 
L 438.211603 292.065987 
L 441.270534 291.893768 
L 444.329466 292.049309 
L 447.388397 291.982308 
L 450.447328 292.559929 
L 456.56519 292.059863 
L 459.624121 292.388796 
L 462.683052 291.887832 
L 465.741983 291.889372 
L 468.800914 292.04766 
L 474.918776 292.117043 
L 481.036638 292.675186 
L 484.095569 292.382407 
L 487.1545 292.446672 
L 490.213431 292.099001 
L 493.272362 292.648523 
L 499.390224 292.162472 
L 502.449155 292.093282 
L 505.508086 292.262224 
L 508.567017 292.294398 
L 511.625948 291.995765 
L 520.802741 292.905167 
L 523.861672 292.706812 
L 526.920603 293.386585 
L 529.979534 292.781028 
L 539.156327 292.748775 
L 542.215258 292.22829 
L 545.274189 293.029874 
L 548.33312 292.587541 
L 551.392051 292.964974 
L 554.450982 292.749165 
L 557.509913 293.227219 
L 560.568844 293.26893 
L 563.627775 292.991778 
L 566.686706 293.046629 
L 569.745637 292.675874 
L 572.804568 293.184163 
L 575.863499 293.227893 
L 578.92243 292.944167 
L 581.981361 293.218037 
L 585.040292 293.326988 
L 588.099223 293.320655 
L 591.158154 292.91543 
L 594.217085 293.252841 
L 597.276016 293.4053 
L 600.334947 292.79877 
L 603.393878 293.450536 
L 606.45281 293.565418 
L 612.570672 293.316279 
L 618.688534 293.200811 
L 621.747465 293.141497 
L 624.806396 293.359796 
L 627.865327 293.229117 
L 630.924258 293.64552 
L 633.983189 293.134438 
L 637.04212 293.378415 
L 640.101051 292.94344 
L 643.159982 293.551302 
L 646.218913 292.866724 
L 649.277844 293.316665 
L 652.336775 293.641781 
L 658.454637 293.546014 
L 661.513568 293.831622 
L 664.572499 293.437177 
L 667.63143 293.527288 
L 670.690361 293.232029 
L 673.749292 293.361017 
L 676.808223 292.802048 
L 679.867154 293.986967 
L 685.985016 293.660162 
L 689.043947 293.772775 
L 698.22074 293.612608 
L 704.338602 293.75426 
L 707.397533 294.166675 
L 710.456464 293.77501 
L 713.515395 294.123217 
L 716.574326 293.972259 
L 719.633257 293.956595 
L 722.692188 293.367085 
L 725.751119 294.153923 
L 728.81005 293.582657 
L 731.868981 294.005595 
L 734.927912 293.829362 
L 737.986843 294.250909 
L 741.045774 294.22033 
L 744.104705 293.90442 
L 747.163636 294.238839 
L 747.163636 294.238839 
" clip-path="url(#pc077366cef)" style="fill: none; stroke: #ff0000; stroke-width: 1.75; stroke-linecap: round"/>
   </g>
   <g id="line2d_20">
    <path d="M 138.436364 88.069091 
L 141.495295 106.273441 
L 144.554226 123.717805 
L 147.613157 143.030246 
L 153.731019 179.130792 
L 156.78995 191.796107 
L 159.848881 202.977874 
L 162.907812 214.676534 
L 165.966743 223.771328 
L 169.025674 225.147273 
L 172.084605 231.505226 
L 175.143536 244.205651 
L 178.202467 251.287393 
L 181.261398 255.480918 
L 184.320329 250.729139 
L 187.37926 262.300698 
L 190.438191 266.740185 
L 193.497122 268.85902 
L 196.556053 269.882317 
L 199.614984 269.975319 
L 202.673915 276.541067 
L 205.732846 276.705527 
L 208.791777 277.66881 
L 211.850708 277.732856 
L 214.909639 280.891527 
L 221.027501 277.360309 
L 224.086432 282.880878 
L 227.145363 284.503733 
L 230.204294 280.836461 
L 233.263225 283.005975 
L 236.322156 284.555159 
L 239.381087 285.144799 
L 242.440018 285.053405 
L 245.498949 285.947196 
L 248.55788 284.88667 
L 251.616811 285.679871 
L 254.675742 284.929598 
L 257.734673 283.536185 
L 260.793604 285.627545 
L 263.852535 286.541897 
L 266.911466 283.840692 
L 269.970397 281.354169 
L 273.029328 286.784894 
L 276.088259 284.032417 
L 279.14719 284.506536 
L 282.206122 287.321381 
L 285.265053 284.039193 
L 288.323984 285.141836 
L 291.382915 283.257833 
L 294.441846 288.084656 
L 297.500777 286.189909 
L 300.559708 289.165986 
L 303.618639 285.183683 
L 306.67757 282.064201 
L 309.736501 289.72873 
L 312.795432 288.623476 
L 315.854363 289.278666 
L 318.913294 286.260747 
L 321.972225 280.963849 
L 325.031156 286.21115 
L 328.090087 286.662019 
L 331.149018 286.393032 
L 334.207949 287.596094 
L 337.26688 284.702077 
L 340.325811 286.954908 
L 343.384742 282.577275 
L 346.443673 279.203784 
L 349.502604 287.94667 
L 352.561535 289.610205 
L 355.620466 283.171099 
L 358.679397 279.592301 
L 361.738328 287.331246 
L 364.797259 289.25027 
L 367.85619 285.793751 
L 370.915121 284.199107 
L 373.974052 289.583935 
L 377.032983 290.127218 
L 380.091914 285.777846 
L 383.150845 285.086865 
L 386.209776 284.678509 
L 389.268707 289.021533 
L 392.327638 287.933897 
L 395.386569 285.062129 
L 398.4455 288.352819 
L 404.563362 288.119848 
L 407.622293 287.792147 
L 410.681224 290.384322 
L 413.740155 284.43621 
L 416.799086 289.603422 
L 419.858017 284.412173 
L 422.916948 281.493843 
L 425.975879 288.89884 
L 429.03481 289.229752 
L 432.093741 288.207916 
L 435.152672 288.699972 
L 438.211603 290.162684 
L 441.270534 289.407227 
L 444.329466 287.169824 
L 447.388397 287.294964 
L 450.447328 288.199207 
L 453.506259 287.636901 
L 456.56519 286.397252 
L 459.624121 291.12165 
L 462.683052 287.29746 
L 465.741983 289.649925 
L 468.800914 286.91158 
L 471.859845 285.740058 
L 474.918776 290.18994 
L 477.977707 290.71313 
L 481.036638 278.98192 
L 484.095569 290.010201 
L 487.1545 288.273749 
L 490.213431 287.789545 
L 493.272362 285.092955 
L 496.331293 288.170358 
L 499.390224 289.485487 
L 502.449155 287.516518 
L 505.508086 285.92247 
L 508.567017 286.291301 
L 511.625948 289.817916 
L 514.684879 290.925799 
L 517.74381 290.716219 
L 520.802741 288.07796 
L 523.861672 290.221968 
L 526.920603 291.337747 
L 529.979534 285.596984 
L 533.038465 286.460177 
L 536.097396 286.27035 
L 539.156327 289.024873 
L 542.215258 285.809847 
L 545.274189 289.048777 
L 548.33312 290.541795 
L 551.392051 289.637079 
L 554.450982 288.519997 
L 557.509913 284.880694 
L 560.568844 290.64654 
L 563.627775 290.603909 
L 566.686706 281.688221 
L 569.745637 286.655895 
L 572.804568 289.085397 
L 575.863499 282.105343 
L 578.92243 288.73969 
L 581.981361 289.683195 
L 585.040292 283.691529 
L 588.099223 290.977125 
L 591.158154 287.588419 
L 594.217085 288.627539 
L 597.276016 290.830416 
L 600.334947 286.354098 
L 603.393878 289.589127 
L 606.45281 289.825387 
L 609.511741 288.751736 
L 612.570672 287.162384 
L 615.629603 289.374842 
L 618.688534 289.685797 
L 621.747465 285.822983 
L 624.806396 287.973325 
L 627.865327 288.104232 
L 630.924258 291.378374 
L 633.983189 289.808984 
L 637.04212 290.496868 
L 640.101051 286.834679 
L 643.159982 291.247604 
L 646.218913 286.533321 
L 649.277844 273.94474 
L 652.336775 289.561239 
L 655.395706 287.908421 
L 658.454637 289.728719 
L 661.513568 289.919308 
L 664.572499 283.789407 
L 667.63143 290.239317 
L 670.690361 289.571949 
L 673.749292 291.288524 
L 676.808223 284.358243 
L 679.867154 292.02649 
L 682.926085 291.191716 
L 685.985016 289.077533 
L 689.043947 288.287652 
L 692.102878 291.473426 
L 695.161809 288.570901 
L 698.22074 289.881363 
L 701.279671 289.662478 
L 704.338602 288.450322 
L 707.397533 288.491856 
L 710.456464 290.178713 
L 713.515395 290.727044 
L 716.574326 287.869696 
L 719.633257 290.256113 
L 722.692188 289.228362 
L 725.751119 291.251991 
L 728.81005 290.399346 
L 731.868981 288.708256 
L 734.927912 291.107585 
L 737.986843 289.627347 
L 741.045774 292.438465 
L 744.104705 290.784041 
L 747.163636 286.426036 
L 747.163636 286.426036 
" clip-path="url(#pc077366cef)" style="fill: none; stroke: #008000; stroke-width: 1.75; stroke-linecap: round"/>
   </g>
   <g id="patch_3">
    <path d="M 108 304.56 
L 108 77.76 
" style="fill: none"/>
   </g>
   <g id="patch_4">
    <path d="M 777.6 304.56 
L 777.6 77.76 
" style="fill: none"/>
   </g>
   <g id="patch_5">
    <path d="M 108 304.56 
L 777.6 304.56 
" style="fill: none"/>
   </g>
   <g id="patch_6">
    <path d="M 108 77.76 
L 777.6 77.76 
" style="fill: none"/>
   </g>
  </g>
  <g id="axes_2">
   <g id="patch_7">
    <path d="M 108 576.72 
L 777.6 576.72 
L 777.6 349.92 
L 108 349.92 
z
" style="fill: #eaeaf2"/>
   </g>
   <g id="matplotlib.axis_3">
    <g id="xtick_10">
     <g id="line2d_21"/>
     <g id="text_19">
      <!-- 0 -->
      <g style="fill: #262626" transform="translate(135.655895 590.966875)scale(0.1 -0.1)">
       <use xlink:href="#LiberationSans-30"/>
      </g>
     </g>
    </g>
    <g id="xtick_11">
     <g id="line2d_22"/>
     <g id="text_20">
      <!-- 25 -->
      <g style="fill: #262626" transform="translate(209.348702 590.966875)scale(0.1 -0.1)">
       <use xlink:href="#LiberationSans-32"/>
       <use xlink:href="#LiberationSans-35" x="55.615234"/>
      </g>
     </g>
    </g>
    <g id="xtick_12">
     <g id="line2d_23"/>
     <g id="text_21">
      <!-- 50 -->
      <g style="fill: #262626" transform="translate(285.821977 590.966875)scale(0.1 -0.1)">
       <use xlink:href="#LiberationSans-35"/>
       <use xlink:href="#LiberationSans-30" x="55.615234"/>
      </g>
     </g>
    </g>
    <g id="xtick_13">
     <g id="line2d_24"/>
     <g id="text_22">
      <!-- 75 -->
      <g style="fill: #262626" transform="translate(362.295253 590.966875)scale(0.1 -0.1)">
       <use xlink:href="#LiberationSans-37"/>
       <use xlink:href="#LiberationSans-35" x="55.615234"/>
      </g>
     </g>
    </g>
    <g id="xtick_14">
     <g id="line2d_25"/>
     <g id="text_23">
      <!-- 100 -->
      <g style="fill: #262626" transform="translate(435.988059 590.966875)scale(0.1 -0.1)">
       <use xlink:href="#LiberationSans-31"/>
       <use xlink:href="#LiberationSans-30" x="55.615234"/>
       <use xlink:href="#LiberationSans-30" x="111.230469"/>
      </g>
     </g>
    </g>
    <g id="xtick_15">
     <g id="line2d_26"/>
     <g id="text_24">
      <!-- 125 -->
      <g style="fill: #262626" transform="translate(512.461335 590.966875)scale(0.1 -0.1)">
       <use xlink:href="#LiberationSans-31"/>
       <use xlink:href="#LiberationSans-32" x="55.615234"/>
       <use xlink:href="#LiberationSans-35" x="111.230469"/>
      </g>
     </g>
    </g>
    <g id="xtick_16">
     <g id="line2d_27"/>
     <g id="text_25">
      <!-- 150 -->
      <g style="fill: #262626" transform="translate(588.93461 590.966875)scale(0.1 -0.1)">
       <use xlink:href="#LiberationSans-31"/>
       <use xlink:href="#LiberationSans-35" x="55.615234"/>
       <use xlink:href="#LiberationSans-30" x="111.230469"/>
      </g>
     </g>
    </g>
    <g id="xtick_17">
     <g id="line2d_28"/>
     <g id="text_26">
      <!-- 175 -->
      <g style="fill: #262626" transform="translate(665.407886 590.966875)scale(0.1 -0.1)">
       <use xlink:href="#LiberationSans-31"/>
       <use xlink:href="#LiberationSans-37" x="55.615234"/>
       <use xlink:href="#LiberationSans-35" x="111.230469"/>
      </g>
     </g>
    </g>
    <g id="xtick_18">
     <g id="line2d_29"/>
     <g id="text_27">
      <!-- 200 -->
      <g style="fill: #262626" transform="translate(741.881161 590.966875)scale(0.1 -0.1)">
       <use xlink:href="#LiberationSans-32"/>
       <use xlink:href="#LiberationSans-30" x="55.615234"/>
       <use xlink:href="#LiberationSans-30" x="111.230469"/>
      </g>
     </g>
    </g>
   </g>
   <g id="matplotlib.axis_4">
    <g id="ytick_10">
     <g id="line2d_30"/>
     <g id="text_28">
      <!-- 0.2 -->
      <g style="fill: #262626" transform="translate(87.1 553.395057)scale(0.1 -0.1)">
       <use xlink:href="#LiberationSans-30"/>
       <use xlink:href="#LiberationSans-2e" x="55.615234"/>
       <use xlink:href="#LiberationSans-32" x="83.398438"/>
      </g>
     </g>
    </g>
    <g id="ytick_11">
     <g id="line2d_31"/>
     <g id="text_29">
      <!-- 0.3 -->
      <g style="fill: #262626" transform="translate(87.1 524.755312)scale(0.1 -0.1)">
       <defs>
        <path id="LiberationSans-33" d="M 3278 1216 
Q 3278 913 3179 675 
Q 3081 438 2892 273 
Q 2703 109 2423 23 
Q 2144 -63 1784 -63 
Q 1375 -63 1095 39 
Q 816 141 634 308 
Q 453 475 362 689 
Q 272 903 244 1131 
L 825 1184 
Q 850 1009 917 865 
Q 984 722 1100 619 
Q 1216 516 1384 459 
Q 1553 403 1784 403 
Q 2209 403 2451 612 
Q 2694 822 2694 1234 
Q 2694 1478 2586 1626 
Q 2478 1775 2317 1858 
Q 2156 1941 1967 1969 
Q 1778 1997 1619 1997 
L 1300 1997 
L 1300 2484 
L 1606 2484 
Q 1766 2484 1937 2517 
Q 2109 2550 2251 2636 
Q 2394 2722 2486 2869 
Q 2578 3016 2578 3244 
Q 2578 3597 2370 3801 
Q 2163 4006 1753 4006 
Q 1381 4006 1151 3815 
Q 922 3625 884 3278 
L 319 3322 
Q 353 3613 478 3828 
Q 603 4044 795 4186 
Q 988 4328 1234 4398 
Q 1481 4469 1759 4469 
Q 2128 4469 2393 4376 
Q 2659 4284 2828 4126 
Q 2997 3969 3076 3756 
Q 3156 3544 3156 3303 
Q 3156 3109 3103 2940 
Q 3050 2772 2937 2637 
Q 2825 2503 2651 2406 
Q 2478 2309 2234 2259 
L 2234 2247 
Q 2500 2219 2697 2126 
Q 2894 2034 3022 1896 
Q 3150 1759 3214 1584 
Q 3278 1409 3278 1216 
z
" transform="scale(0.015625)"/>
       </defs>
       <use xlink:href="#LiberationSans-30"/>
       <use xlink:href="#LiberationSans-2e" x="55.615234"/>
       <use xlink:href="#LiberationSans-33" x="83.398438"/>
      </g>
     </g>
    </g>
    <g id="ytick_12">
     <g id="line2d_32"/>
     <g id="text_30">
      <!-- 0.4 -->
      <g style="fill: #262626" transform="translate(87.1 496.115568)scale(0.1 -0.1)">
       <defs>
        <path id="LiberationSans-34" d="M 2753 997 
L 2753 0 
L 2222 0 
L 2222 997 
L 147 997 
L 147 1434 
L 2163 4403 
L 2753 4403 
L 2753 1441 
L 3372 1441 
L 3372 997 
L 2753 997 
z
M 2222 3769 
Q 2216 3753 2191 3708 
Q 2166 3663 2134 3606 
Q 2103 3550 2070 3492 
Q 2038 3434 2013 3397 
L 884 1734 
Q 869 1709 839 1668 
Q 809 1628 778 1586 
Q 747 1544 715 1503 
Q 684 1463 666 1441 
L 2222 1441 
L 2222 3769 
z
" transform="scale(0.015625)"/>
       </defs>
       <use xlink:href="#LiberationSans-30"/>
       <use xlink:href="#LiberationSans-2e" x="55.615234"/>
       <use xlink:href="#LiberationSans-34" x="83.398438"/>
      </g>
     </g>
    </g>
    <g id="ytick_13">
     <g id="line2d_33"/>
     <g id="text_31">
      <!-- 0.5 -->
      <g style="fill: #262626" transform="translate(87.1 467.475823)scale(0.1 -0.1)">
       <use xlink:href="#LiberationSans-30"/>
       <use xlink:href="#LiberationSans-2e" x="55.615234"/>
       <use xlink:href="#LiberationSans-35" x="83.398438"/>
      </g>
     </g>
    </g>
    <g id="ytick_14">
     <g id="line2d_34"/>
     <g id="text_32">
      <!-- 0.6 -->
      <g style="fill: #262626" transform="translate(87.1 438.836079)scale(0.1 -0.1)">
       <defs>
        <path id="LiberationSans-36" d="M 3278 1441 
Q 3278 1109 3186 832 
Q 3094 556 2914 357 
Q 2734 159 2468 48 
Q 2203 -63 1856 -63 
Q 1472 -63 1184 84 
Q 897 231 706 507 
Q 516 784 420 1186 
Q 325 1588 325 2100 
Q 325 2688 433 3131 
Q 541 3575 744 3872 
Q 947 4169 1239 4319 
Q 1531 4469 1900 4469 
Q 2125 4469 2322 4422 
Q 2519 4375 2680 4270 
Q 2841 4166 2962 3994 
Q 3084 3822 3156 3572 
L 2619 3475 
Q 2531 3759 2339 3886 
Q 2147 4013 1894 4013 
Q 1663 4013 1475 3903 
Q 1288 3794 1156 3576 
Q 1025 3359 954 3031 
Q 884 2703 884 2266 
Q 1038 2550 1316 2698 
Q 1594 2847 1953 2847 
Q 2253 2847 2497 2750 
Q 2741 2653 2914 2470 
Q 3088 2288 3183 2027 
Q 3278 1766 3278 1441 
z
M 2706 1416 
Q 2706 1644 2650 1828 
Q 2594 2013 2481 2142 
Q 2369 2272 2203 2342 
Q 2038 2413 1819 2413 
Q 1666 2413 1509 2367 
Q 1353 2322 1226 2220 
Q 1100 2119 1020 1953 
Q 941 1788 941 1550 
Q 941 1306 1003 1095 
Q 1066 884 1183 728 
Q 1300 572 1465 481 
Q 1631 391 1838 391 
Q 2041 391 2202 461 
Q 2363 531 2475 664 
Q 2588 797 2647 987 
Q 2706 1178 2706 1416 
z
" transform="scale(0.015625)"/>
       </defs>
       <use xlink:href="#LiberationSans-30"/>
       <use xlink:href="#LiberationSans-2e" x="55.615234"/>
       <use xlink:href="#LiberationSans-36" x="83.398438"/>
      </g>
     </g>
    </g>
    <g id="ytick_15">
     <g id="line2d_35"/>
     <g id="text_33">
      <!-- 0.7 -->
      <g style="fill: #262626" transform="translate(87.1 410.196334)scale(0.1 -0.1)">
       <use xlink:href="#LiberationSans-30"/>
       <use xlink:href="#LiberationSans-2e" x="55.615234"/>
       <use xlink:href="#LiberationSans-37" x="83.398438"/>
      </g>
     </g>
    </g>
    <g id="ytick_16">
     <g id="line2d_36"/>
     <g id="text_34">
      <!-- 0.8 -->
      <g style="fill: #262626" transform="translate(87.1 381.556589)scale(0.1 -0.1)">
       <defs>
        <path id="LiberationSans-38" d="M 3281 1228 
Q 3281 947 3192 711 
Q 3103 475 2920 303 
Q 2738 131 2453 34 
Q 2169 -63 1781 -63 
Q 1394 -63 1111 34 
Q 828 131 642 301 
Q 456 472 367 708 
Q 278 944 278 1222 
Q 278 1463 351 1650 
Q 425 1838 548 1973 
Q 672 2109 830 2192 
Q 988 2275 1156 2303 
L 1156 2316 
Q 972 2359 826 2456 
Q 681 2553 582 2689 
Q 484 2825 432 2990 
Q 381 3156 381 3341 
Q 381 3572 470 3776 
Q 559 3981 734 4136 
Q 909 4291 1168 4380 
Q 1428 4469 1769 4469 
Q 2128 4469 2392 4378 
Q 2656 4288 2829 4133 
Q 3003 3978 3087 3772 
Q 3172 3566 3172 3334 
Q 3172 3153 3120 2987 
Q 3069 2822 2970 2686 
Q 2872 2550 2726 2454 
Q 2581 2359 2391 2322 
L 2391 2309 
Q 2581 2278 2743 2195 
Q 2906 2113 3025 1977 
Q 3144 1841 3212 1653 
Q 3281 1466 3281 1228 
z
M 2588 3303 
Q 2588 3469 2545 3606 
Q 2503 3744 2406 3842 
Q 2309 3941 2153 3995 
Q 1997 4050 1769 4050 
Q 1547 4050 1394 3995 
Q 1241 3941 1142 3842 
Q 1044 3744 1000 3606 
Q 956 3469 956 3303 
Q 956 3172 990 3034 
Q 1025 2897 1115 2784 
Q 1206 2672 1365 2600 
Q 1525 2528 1775 2528 
Q 2041 2528 2202 2600 
Q 2363 2672 2448 2784 
Q 2534 2897 2561 3034 
Q 2588 3172 2588 3303 
z
M 2697 1281 
Q 2697 1441 2653 1589 
Q 2609 1738 2503 1852 
Q 2397 1966 2217 2036 
Q 2038 2106 1769 2106 
Q 1522 2106 1348 2036 
Q 1175 1966 1067 1850 
Q 959 1734 909 1582 
Q 859 1431 859 1269 
Q 859 1066 909 898 
Q 959 731 1068 611 
Q 1178 491 1356 425 
Q 1534 359 1788 359 
Q 2044 359 2219 425 
Q 2394 491 2500 611 
Q 2606 731 2651 901 
Q 2697 1072 2697 1281 
z
" transform="scale(0.015625)"/>
       </defs>
       <use xlink:href="#LiberationSans-30"/>
       <use xlink:href="#LiberationSans-2e" x="55.615234"/>
       <use xlink:href="#LiberationSans-38" x="83.398438"/>
      </g>
     </g>
    </g>
   </g>
   <g id="line2d_37">
    <path d="M 138.436364 509.720727 
L 141.495295 486.367029 
L 144.554226 473.641361 
L 147.613157 459.097741 
L 150.672088 457.839158 
L 153.731019 445.67286 
L 156.78995 441.058058 
L 159.848881 432.80735 
L 162.907812 435.744043 
L 165.966743 424.556642 
L 169.025674 426.933965 
L 172.084605 424.696485 
L 175.143536 427.073807 
L 178.202467 420.920737 
L 181.261398 423.018375 
L 184.320329 415.46688 
L 187.37926 418.403572 
L 190.438191 415.327037 
L 193.497122 420.50121 
L 199.614984 413.089557 
L 202.673915 410.852077 
L 205.732846 413.648927 
L 208.791777 413.78877 
L 211.850708 409.453652 
L 214.909639 411.691132 
L 217.96857 408.614597 
L 221.027501 406.656802 
L 224.086432 412.11066 
L 230.204294 406.656802 
L 233.263225 404.838849 
L 236.322156 412.250502 
L 239.381087 404.699007 
L 242.440018 402.881054 
L 245.498949 401.902157 
L 248.55788 403.440424 
L 251.616811 405.258377 
L 254.675742 404.279479 
L 257.734673 400.783417 
L 260.793604 400.363889 
L 263.852535 403.580267 
L 266.911466 390.994442 
L 269.970397 397.287354 
L 273.029328 399.804519 
L 276.088259 396.168614 
L 279.14719 396.588142 
L 282.206122 398.406094 
L 285.265053 395.749087 
L 288.323984 396.867827 
L 291.382915 390.854599 
L 294.441846 399.524834 
L 297.500777 391.973339 
L 300.559708 394.490504 
L 303.618639 389.456174 
L 306.67757 391.693654 
L 309.736501 391.693654 
L 312.795432 392.672552 
L 315.854363 393.791292 
L 318.913294 390.155387 
L 321.972225 396.727984 
L 325.031156 391.134284 
L 328.090087 387.778064 
L 331.149018 387.358536 
L 334.207949 385.540584 
L 337.26688 386.379639 
L 340.325811 391.413969 
L 343.384742 387.358536 
L 346.443673 390.155387 
L 349.502604 389.036647 
L 352.561535 384.002316 
L 355.620466 385.680426 
L 358.679397 385.820269 
L 361.738328 391.274127 
L 364.797259 382.324206 
L 367.85619 389.176489 
L 370.915121 382.883576 
L 373.974052 385.960111 
L 377.032983 386.379639 
L 380.091914 380.646096 
L 383.150845 382.464049 
L 386.209776 388.896804 
L 389.268707 384.421844 
L 392.327638 388.477277 
L 395.386569 382.883576 
L 398.4455 386.239796 
L 401.504431 383.582789 
L 404.563362 384.142159 
L 407.622293 383.582789 
L 410.681224 380.506254 
L 413.740155 385.820269 
L 416.799086 378.548459 
L 419.858017 383.163261 
L 422.916948 382.324206 
L 425.975879 378.548459 
L 429.03481 382.044521 
L 432.093741 388.896804 
L 435.152672 377.010191 
L 438.211603 378.128931 
L 441.270534 380.646096 
L 444.329466 378.967986 
L 447.388397 378.548459 
L 450.447328 377.289876 
L 453.506259 377.989089 
L 456.56519 383.163261 
L 459.624121 375.751609 
L 462.683052 381.065624 
L 465.741983 384.421844 
L 468.800914 381.485151 
L 471.859845 379.667199 
L 474.918776 381.624994 
L 477.977707 377.010191 
L 481.036638 373.653971 
L 484.095569 375.611766 
L 487.1545 378.408616 
L 490.213431 378.548459 
L 493.272362 374.353184 
L 496.331293 378.548459 
L 499.390224 380.086726 
L 502.449155 378.548459 
L 505.508086 377.849246 
L 508.567017 372.954759 
L 511.625948 380.226569 
L 514.684879 375.611766 
L 517.74381 375.052396 
L 520.802741 371.836019 
L 523.861672 375.891451 
L 526.920603 366.382161 
L 529.979534 375.751609 
L 533.038465 375.611766 
L 536.097396 374.213341 
L 539.156327 376.031294 
L 542.215258 378.828144 
L 545.274189 369.458696 
L 548.33312 375.192239 
L 551.392051 372.954759 
L 554.450982 373.374286 
L 557.509913 370.018066 
L 560.568844 369.458696 
L 563.627775 372.115704 
L 566.686706 371.276649 
L 569.745637 375.052396 
L 572.804568 370.996964 
L 575.863499 370.857121 
L 578.92243 373.653971 
L 581.981361 368.060271 
L 585.040292 370.157909 
L 588.099223 369.318854 
L 591.158154 373.234444 
L 594.217085 367.361059 
L 597.276016 369.179011 
L 600.334947 373.653971 
L 603.393878 368.479799 
L 606.45281 366.522004 
L 609.511741 370.437594 
L 612.570672 369.318854 
L 615.629603 370.996964 
L 618.688534 371.556334 
L 621.747465 371.136806 
L 624.806396 368.899326 
L 627.865327 369.039169 
L 630.924258 367.640744 
L 633.983189 371.696176 
L 637.04212 368.339956 
L 640.101051 372.395389 
L 643.159982 365.543106 
L 646.218913 373.094601 
L 649.277844 366.522004 
L 652.336775 367.920429 
L 655.395706 366.941531 
L 658.454637 366.382161 
L 661.513568 361.627516 
L 664.572499 366.801689 
L 667.63143 365.543106 
L 670.690361 366.102476 
L 673.749292 368.200114 
L 676.808223 373.234444 
L 679.867154 362.606413 
L 682.926085 364.424366 
L 685.985016 366.102476 
L 689.043947 367.221216 
L 692.102878 364.144681 
L 695.161809 366.522004 
L 698.22074 366.941531 
L 701.279671 365.263421 
L 704.338602 365.123579 
L 707.397533 361.907201 
L 710.456464 365.822791 
L 713.515395 361.207988 
L 716.574326 362.047043 
L 719.633257 363.725153 
L 722.692188 368.200114 
L 725.751119 360.229091 
L 728.81005 365.822791 
L 731.868981 360.928303 
L 734.927912 363.025941 
L 737.986843 360.788461 
L 741.045774 364.144681 
L 744.104705 363.445468 
L 747.163636 362.886098 
L 747.163636 362.886098 
" clip-path="url(#pfeefb01046)" style="fill: none; stroke: #ff0000; stroke-width: 1.75; stroke-linecap: round"/>
   </g>
   <g id="line2d_38">
    <path d="M 138.436364 566.410909 
L 141.495295 547.300937 
L 144.554226 561.116589 
L 147.613157 520.526812 
L 150.672088 494.156061 
L 153.731019 456.188224 
L 156.78995 455.734436 
L 159.848881 452.305734 
L 162.907812 448.271964 
L 165.966743 440.204424 
L 169.025674 484.878394 
L 172.084605 483.920374 
L 175.143536 446.910565 
L 178.202467 430.42255 
L 181.261398 432.741952 
L 184.320329 489.365961 
L 187.37926 446.45676 
L 190.438191 428.809036 
L 193.497122 433.750399 
L 196.556053 436.473197 
L 199.614984 467.381932 
L 202.673915 419.581786 
L 205.732846 424.321477 
L 208.791777 432.136901 
L 211.850708 442.876795 
L 214.909639 419.531377 
L 217.96857 444.792836 
L 221.027501 458.154691 
L 224.086432 419.934755 
L 227.145363 411.41341 
L 230.204294 447.263518 
L 233.263225 430.876339 
L 236.322156 419.682639 
L 239.381087 417.817026 
L 242.440018 420.64066 
L 245.498949 410.203291 
L 248.55788 423.716409 
L 251.616811 419.228834 
L 254.675742 430.47296 
L 257.734673 444.389457 
L 260.793604 427.5989 
L 263.852535 417.716173 
L 266.911466 444.591146 
L 269.970397 457.045408 
L 273.029328 415.548033 
L 276.088259 444.591146 
L 279.14719 439.448094 
L 282.206122 416.102675 
L 285.265053 441.313707 
L 288.323984 430.674649 
L 291.382915 450.288841 
L 294.441846 410.808359 
L 297.500777 424.220624 
L 300.559708 402.287014 
L 306.67757 463.146481 
L 309.736501 397.396077 
L 312.795432 409.094008 
L 315.854363 401.732372 
L 318.913294 425.834139 
L 321.972225 471.214013 
L 325.031156 432.893232 
L 328.090087 420.741496 
L 331.149018 431.582243 
L 334.207949 416.556463 
L 337.26688 434.557157 
L 340.325811 421.094465 
L 343.384742 442.675106 
L 346.443673 482.558983 
L 349.502604 413.32945 
L 352.561535 400.774352 
L 355.620466 446.406351 
L 358.679397 471.718228 
L 361.738328 419.48095 
L 364.797259 403.749266 
L 367.85619 431.783932 
L 370.915121 442.775959 
L 373.974052 404.102218 
L 377.032983 397.950718 
L 380.091914 427.044258 
L 383.150845 433.750399 
L 386.209776 441.868349 
L 389.268707 410.60667 
L 392.327638 417.211958 
L 395.386569 438.943879 
L 398.4455 411.41341 
L 401.504431 413.783256 
L 404.563362 413.682403 
L 407.622293 417.917862 
L 410.681224 395.984252 
L 413.740155 443.834816 
L 416.799086 402.034915 
L 419.858017 435.817702 
L 422.916948 463.902804 
L 425.975879 410.052028 
L 429.03481 406.219948 
L 432.093741 414.590013 
L 435.152672 409.900749 
L 438.211603 399.362544 
L 441.270534 401.58111 
L 444.329466 425.279498 
L 447.388397 421.800369 
L 450.447328 414.741276 
L 453.506259 420.237281 
L 456.56519 424.624003 
L 459.624121 388.118418 
L 462.683052 418.119551 
L 465.741983 403.093771 
L 468.800914 418.724619 
L 471.859845 428.002278 
L 474.918776 397.799456 
L 477.977707 392.202597 
L 481.036638 482.65982 
L 484.095569 399.060001 
L 487.1545 418.270814 
L 490.213431 418.724619 
L 493.272362 442.977649 
L 496.331293 411.867215 
L 499.390224 401.934062 
L 502.449155 414.741276 
L 505.508086 433.195758 
L 508.567017 432.994068 
L 511.625948 400.219711 
L 514.684879 390.740362 
L 517.74381 391.395857 
L 520.802741 421.850796 
L 523.861672 397.950718 
L 526.920603 389.026012 
L 529.979534 430.725076 
L 533.038465 429.565366 
L 536.097396 431.935212 
L 539.156327 404.253481 
L 542.215258 436.473197 
L 545.274189 406.623326 
L 548.33312 396.286794 
L 551.392051 400.522253 
L 554.450982 410.909195 
L 557.509913 436.725296 
L 560.568844 393.059782 
L 563.627775 394.269901 
L 566.686706 453.213328 
L 569.745637 427.094685 
L 572.804568 409.799912 
L 575.863499 459.314401 
L 578.92243 408.640203 
L 581.981361 399.160855 
L 585.040292 450.288841 
L 588.099223 390.689936 
L 591.158154 417.161531 
L 594.217085 404.051791 
L 597.276016 395.933842 
L 600.334947 424.624003 
L 603.393878 404.303907 
L 606.45281 397.698602 
L 609.511741 405.362764 
L 612.570672 414.237061 
L 615.629603 403.547577 
L 618.688534 404.152645 
L 621.747465 433.54871 
L 624.806396 415.800132 
L 627.865327 415.648869 
L 630.924258 386.656166 
L 633.983189 401.833226 
L 637.04212 393.160618 
L 640.101051 421.699516 
L 643.159982 387.059545 
L 646.218913 427.750179 
L 649.277844 490.223136 
L 652.336775 402.791246 
L 655.395706 418.825455 
L 658.454637 403.850102 
L 661.513568 398.152408 
L 664.572499 449.229984 
L 667.63143 394.169064 
L 670.690361 398.858312 
L 673.749292 388.017565 
L 676.808223 444.389457 
L 679.867154 380.302994 
L 682.926085 387.261234 
L 685.985016 407.732609 
L 689.043947 409.900749 
L 692.102878 387.51335 
L 695.161809 408.337677 
L 698.22074 399.211264 
L 701.279671 398.50536 
L 704.338602 407.379657 
L 707.397533 410.505817 
L 710.456464 396.841436 
L 713.515395 393.412734 
L 716.574326 413.833682 
L 719.633257 393.715259 
L 722.692188 405.816569 
L 725.751119 386.605756 
L 728.81005 394.673279 
L 731.868981 407.783019 
L 734.927912 389.782342 
L 737.986843 400.270137 
L 741.045774 377.630623 
L 744.104705 390.841199 
L 747.163636 421.800369 
L 747.163636 421.800369 
" clip-path="url(#pfeefb01046)" style="fill: none; stroke: #008000; stroke-width: 1.75; stroke-linecap: round"/>
   </g>
   <g id="patch_8">
    <path d="M 108 576.72 
L 108 349.92 
" style="fill: none"/>
   </g>
   <g id="patch_9">
    <path d="M 777.6 576.72 
L 777.6 349.92 
" style="fill: none"/>
   </g>
   <g id="patch_10">
    <path d="M 108 576.72 
L 777.6 576.72 
" style="fill: none"/>
   </g>
   <g id="patch_11">
    <path d="M 108 349.92 
L 777.6 349.92 
" style="fill: none"/>
   </g>
  </g>
  <g id="text_35">
   <!-- Plots of model performance: mel_spectrogram, draghici20_crnn - lr 0.0001, batch 16, 128 steps/epoch -->
   <g style="fill: #262626" transform="translate(160.538437 21.65625)scale(0.12 -0.12)">
    <defs>
     <path id="LiberationSans-50" d="M 3931 3078 
Q 3931 2791 3836 2542 
Q 3741 2294 3552 2111 
Q 3363 1928 3078 1822 
Q 2794 1716 2416 1716 
L 1122 1716 
L 1122 0 
L 525 0 
L 525 4403 
L 2378 4403 
Q 2769 4403 3059 4308 
Q 3350 4213 3544 4039 
Q 3738 3866 3834 3620 
Q 3931 3375 3931 3078 
z
M 3331 3072 
Q 3331 3491 3075 3708 
Q 2819 3925 2306 3925 
L 1122 3925 
L 1122 2188 
L 2331 2188 
Q 2847 2188 3089 2416 
Q 3331 2644 3331 3072 
z
" transform="scale(0.015625)"/>
     <path id="LiberationSans-6c" d="M 431 0 
L 431 4638 
L 994 4638 
L 994 0 
L 431 0 
z
" transform="scale(0.015625)"/>
     <path id="LiberationSans-6f" d="M 3291 1694 
Q 3291 806 2900 371 
Q 2509 -63 1766 -63 
Q 1413 -63 1134 43 
Q 856 150 664 369 
Q 472 588 370 917 
Q 269 1247 269 1694 
Q 269 3444 1784 3444 
Q 2178 3444 2464 3334 
Q 2750 3225 2933 3006 
Q 3116 2788 3203 2459 
Q 3291 2131 3291 1694 
z
M 2700 1694 
Q 2700 2088 2639 2344 
Q 2578 2600 2461 2753 
Q 2344 2906 2175 2967 
Q 2006 3028 1794 3028 
Q 1578 3028 1404 2964 
Q 1231 2900 1109 2745 
Q 988 2591 923 2334 
Q 859 2078 859 1694 
Q 859 1300 928 1042 
Q 997 784 1117 631 
Q 1238 478 1402 415 
Q 1566 353 1759 353 
Q 1975 353 2150 414 
Q 2325 475 2447 628 
Q 2569 781 2634 1040 
Q 2700 1300 2700 1694 
z
" transform="scale(0.015625)"/>
     <path id="LiberationSans-74" d="M 1731 25 
Q 1603 -9 1470 -29 
Q 1338 -50 1163 -50 
Q 488 -50 488 716 
L 488 2972 
L 97 2972 
L 97 3381 
L 509 3381 
L 675 4138 
L 1050 4138 
L 1050 3381 
L 1675 3381 
L 1675 2972 
L 1050 2972 
L 1050 838 
Q 1050 594 1129 495 
Q 1209 397 1406 397 
Q 1488 397 1564 409 
Q 1641 422 1731 441 
L 1731 25 
z
" transform="scale(0.015625)"/>
     <path id="LiberationSans-73" d="M 2969 934 
Q 2969 697 2876 511 
Q 2784 325 2609 198 
Q 2434 72 2179 4 
Q 1925 -63 1597 -63 
Q 1303 -63 1067 -17 
Q 831 28 653 128 
Q 475 228 354 392 
Q 234 556 178 794 
L 675 891 
Q 747 619 972 492 
Q 1197 366 1597 366 
Q 1778 366 1929 391 
Q 2081 416 2190 477 
Q 2300 538 2361 639 
Q 2422 741 2422 891 
Q 2422 1044 2350 1142 
Q 2278 1241 2150 1306 
Q 2022 1372 1839 1420 
Q 1656 1469 1438 1528 
Q 1234 1581 1034 1647 
Q 834 1713 673 1820 
Q 513 1928 413 2087 
Q 313 2247 313 2488 
Q 313 2950 642 3192 
Q 972 3434 1603 3434 
Q 2163 3434 2492 3237 
Q 2822 3041 2909 2606 
L 2403 2544 
Q 2375 2675 2300 2764 
Q 2225 2853 2119 2908 
Q 2013 2963 1880 2986 
Q 1747 3009 1603 3009 
Q 1222 3009 1040 2893 
Q 859 2778 859 2544 
Q 859 2406 926 2317 
Q 994 2228 1114 2167 
Q 1234 2106 1403 2061 
Q 1572 2016 1775 1966 
Q 1909 1931 2050 1892 
Q 2191 1853 2323 1798 
Q 2456 1744 2573 1670 
Q 2691 1597 2778 1494 
Q 2866 1391 2917 1253 
Q 2969 1116 2969 934 
z
" transform="scale(0.015625)"/>
     <path id="LiberationSans-20" transform="scale(0.015625)"/>
     <path id="LiberationSans-66" d="M 1128 2972 
L 1128 0 
L 566 0 
L 566 2972 
L 91 2972 
L 91 3381 
L 566 3381 
L 566 3763 
Q 566 3947 600 4105 
Q 634 4263 726 4380 
Q 819 4497 978 4564 
Q 1138 4631 1391 4631 
Q 1491 4631 1598 4622 
Q 1706 4613 1788 4594 
L 1788 4166 
Q 1734 4175 1664 4183 
Q 1594 4191 1538 4191 
Q 1413 4191 1333 4156 
Q 1253 4122 1208 4058 
Q 1163 3994 1145 3900 
Q 1128 3806 1128 3684 
L 1128 3381 
L 1788 3381 
L 1788 2972 
L 1128 2972 
z
" transform="scale(0.015625)"/>
     <path id="LiberationSans-6d" d="M 2400 0 
L 2400 2144 
Q 2400 2391 2369 2556 
Q 2338 2722 2264 2823 
Q 2191 2925 2072 2967 
Q 1953 3009 1781 3009 
Q 1603 3009 1459 2939 
Q 1316 2869 1214 2736 
Q 1113 2603 1058 2408 
Q 1003 2213 1003 1959 
L 1003 0 
L 444 0 
L 444 2659 
Q 444 2766 442 2883 
Q 441 3000 437 3104 
Q 434 3209 431 3284 
Q 428 3359 425 3381 
L 956 3381 
Q 959 3366 962 3297 
Q 966 3228 970 3139 
Q 975 3050 978 2958 
Q 981 2866 981 2803 
L 991 2803 
Q 1066 2950 1153 3069 
Q 1241 3188 1358 3270 
Q 1475 3353 1626 3398 
Q 1778 3444 1978 3444 
Q 2363 3444 2586 3291 
Q 2809 3138 2897 2803 
L 2906 2803 
Q 2981 2950 3075 3069 
Q 3169 3188 3294 3270 
Q 3419 3353 3575 3398 
Q 3731 3444 3931 3444 
Q 4188 3444 4373 3375 
Q 4559 3306 4678 3162 
Q 4797 3019 4853 2792 
Q 4909 2566 4909 2253 
L 4909 0 
L 4353 0 
L 4353 2144 
Q 4353 2391 4322 2556 
Q 4291 2722 4217 2823 
Q 4144 2925 4025 2967 
Q 3906 3009 3734 3009 
Q 3556 3009 3412 2942 
Q 3269 2875 3167 2744 
Q 3066 2613 3011 2416 
Q 2956 2219 2956 1959 
L 2956 0 
L 2400 0 
z
" transform="scale(0.015625)"/>
     <path id="LiberationSans-64" d="M 2566 544 
Q 2409 219 2151 78 
Q 1894 -63 1513 -63 
Q 872 -63 570 368 
Q 269 800 269 1675 
Q 269 3444 1513 3444 
Q 1897 3444 2153 3303 
Q 2409 3163 2566 2856 
L 2572 2856 
Q 2572 2888 2570 2955 
Q 2569 3022 2567 3095 
Q 2566 3169 2566 3234 
Q 2566 3300 2566 3328 
L 2566 4638 
L 3128 4638 
L 3128 697 
Q 3128 575 3129 462 
Q 3131 350 3134 256 
Q 3138 163 3141 95 
Q 3144 28 3147 0 
L 2609 0 
Q 2603 31 2598 89 
Q 2594 147 2589 222 
Q 2584 297 2581 380 
Q 2578 463 2578 544 
L 2566 544 
z
M 859 1694 
Q 859 1344 903 1094 
Q 947 844 1044 683 
Q 1141 522 1291 447 
Q 1441 372 1656 372 
Q 1878 372 2048 444 
Q 2219 516 2333 677 
Q 2447 838 2506 1097 
Q 2566 1356 2566 1731 
Q 2566 2091 2506 2339 
Q 2447 2588 2331 2741 
Q 2216 2894 2048 2961 
Q 1881 3028 1663 3028 
Q 1456 3028 1306 2956 
Q 1156 2884 1056 2725 
Q 956 2566 907 2311 
Q 859 2056 859 1694 
z
" transform="scale(0.015625)"/>
     <path id="LiberationSans-65" d="M 863 1572 
Q 863 1306 917 1082 
Q 972 859 1086 698 
Q 1200 538 1378 448 
Q 1556 359 1806 359 
Q 2172 359 2392 506 
Q 2613 653 2691 878 
L 3184 738 
Q 3131 597 3036 455 
Q 2941 313 2781 198 
Q 2622 84 2383 10 
Q 2144 -63 1806 -63 
Q 1056 -63 664 384 
Q 272 831 272 1713 
Q 272 2188 390 2517 
Q 509 2847 715 3053 
Q 922 3259 1197 3351 
Q 1472 3444 1784 3444 
Q 2209 3444 2495 3306 
Q 2781 3169 2954 2926 
Q 3128 2684 3201 2356 
Q 3275 2028 3275 1647 
L 3275 1572 
L 863 1572 
z
M 2694 2003 
Q 2647 2538 2422 2783 
Q 2197 3028 1775 3028 
Q 1634 3028 1479 2983 
Q 1325 2938 1194 2822 
Q 1063 2706 972 2507 
Q 881 2309 869 2003 
L 2694 2003 
z
" transform="scale(0.015625)"/>
     <path id="LiberationSans-70" d="M 3291 1706 
Q 3291 1322 3228 997 
Q 3166 672 3020 437 
Q 2875 203 2636 70 
Q 2397 -63 2047 -63 
Q 1684 -63 1412 75 
Q 1141 213 997 525 
L 981 525 
Q 984 519 986 469 
Q 988 419 989 344 
Q 991 269 992 176 
Q 994 84 994 -6 
L 994 -1328 
L 431 -1328 
L 431 2691 
Q 431 2813 429 2925 
Q 428 3038 425 3130 
Q 422 3222 419 3287 
Q 416 3353 413 3381 
L 956 3381 
Q 959 3372 964 3315 
Q 969 3259 973 3179 
Q 978 3100 983 3009 
Q 988 2919 988 2838 
L 1000 2838 
Q 1078 3000 1178 3114 
Q 1278 3228 1406 3301 
Q 1534 3375 1692 3408 
Q 1850 3441 2047 3441 
Q 2397 3441 2636 3316 
Q 2875 3191 3020 2964 
Q 3166 2738 3228 2417 
Q 3291 2097 3291 1706 
z
M 2700 1694 
Q 2700 2006 2662 2250 
Q 2625 2494 2533 2662 
Q 2441 2831 2287 2918 
Q 2134 3006 1903 3006 
Q 1716 3006 1550 2953 
Q 1384 2900 1261 2750 
Q 1138 2600 1066 2336 
Q 994 2072 994 1650 
Q 994 1291 1053 1042 
Q 1113 794 1227 641 
Q 1341 488 1509 420 
Q 1678 353 1897 353 
Q 2131 353 2286 443 
Q 2441 534 2533 706 
Q 2625 878 2662 1126 
Q 2700 1375 2700 1694 
z
" transform="scale(0.015625)"/>
     <path id="LiberationSans-72" d="M 444 0 
L 444 2594 
Q 444 2700 442 2811 
Q 441 2922 437 3025 
Q 434 3128 431 3218 
Q 428 3309 425 3381 
L 956 3381 
Q 959 3309 964 3217 
Q 969 3125 973 3028 
Q 978 2931 979 2842 
Q 981 2753 981 2691 
L 994 2691 
Q 1053 2884 1120 3026 
Q 1188 3169 1278 3261 
Q 1369 3353 1494 3398 
Q 1619 3444 1797 3444 
Q 1866 3444 1928 3433 
Q 1991 3422 2025 3413 
L 2025 2897 
Q 1969 2913 1894 2920 
Q 1819 2928 1725 2928 
Q 1531 2928 1395 2840 
Q 1259 2753 1173 2598 
Q 1088 2444 1047 2230 
Q 1006 2016 1006 1763 
L 1006 0 
L 444 0 
z
" transform="scale(0.015625)"/>
     <path id="LiberationSans-61" d="M 1294 -63 
Q 784 -63 528 206 
Q 272 475 272 944 
Q 272 1278 398 1492 
Q 525 1706 729 1828 
Q 934 1950 1196 1997 
Q 1459 2044 1731 2050 
L 2491 2063 
L 2491 2247 
Q 2491 2456 2447 2603 
Q 2403 2750 2312 2840 
Q 2222 2931 2086 2973 
Q 1950 3016 1766 3016 
Q 1603 3016 1472 2992 
Q 1341 2969 1244 2908 
Q 1147 2847 1087 2742 
Q 1028 2638 1009 2478 
L 422 2531 
Q 453 2731 540 2898 
Q 628 3066 789 3187 
Q 950 3309 1192 3376 
Q 1434 3444 1778 3444 
Q 2416 3444 2737 3151 
Q 3059 2859 3059 2306 
L 3059 850 
Q 3059 600 3125 473 
Q 3191 347 3375 347 
Q 3422 347 3469 353 
Q 3516 359 3559 369 
L 3559 19 
Q 3453 -6 3348 -18 
Q 3244 -31 3125 -31 
Q 2966 -31 2852 11 
Q 2738 53 2666 139 
Q 2594 225 2556 351 
Q 2519 478 2509 647 
L 2491 647 
Q 2400 484 2292 353 
Q 2184 222 2040 130 
Q 1897 38 1714 -12 
Q 1531 -63 1294 -63 
z
M 1422 359 
Q 1691 359 1892 457 
Q 2094 556 2226 709 
Q 2359 863 2425 1044 
Q 2491 1225 2491 1391 
L 2491 1669 
L 1875 1656 
Q 1669 1653 1483 1626 
Q 1297 1600 1156 1522 
Q 1016 1444 933 1303 
Q 850 1163 850 934 
Q 850 659 998 509 
Q 1147 359 1422 359 
z
" transform="scale(0.015625)"/>
     <path id="LiberationSans-6e" d="M 2578 0 
L 2578 2144 
Q 2578 2391 2542 2556 
Q 2506 2722 2425 2823 
Q 2344 2925 2211 2967 
Q 2078 3009 1881 3009 
Q 1681 3009 1520 2939 
Q 1359 2869 1245 2736 
Q 1131 2603 1068 2408 
Q 1006 2213 1006 1959 
L 1006 0 
L 444 0 
L 444 2659 
Q 444 2766 442 2883 
Q 441 3000 437 3104 
Q 434 3209 431 3284 
Q 428 3359 425 3381 
L 956 3381 
Q 959 3366 962 3297 
Q 966 3228 970 3139 
Q 975 3050 978 2958 
Q 981 2866 981 2803 
L 991 2803 
Q 1072 2950 1169 3069 
Q 1266 3188 1394 3270 
Q 1522 3353 1687 3398 
Q 1853 3444 2072 3444 
Q 2353 3444 2556 3375 
Q 2759 3306 2890 3162 
Q 3022 3019 3083 2792 
Q 3144 2566 3144 2253 
L 3144 0 
L 2578 0 
z
" transform="scale(0.015625)"/>
     <path id="LiberationSans-63" d="M 859 1706 
Q 859 1416 901 1172 
Q 944 928 1044 751 
Q 1144 575 1308 478 
Q 1472 381 1713 381 
Q 2013 381 2214 543 
Q 2416 706 2463 1044 
L 3031 1006 
Q 3003 797 2909 603 
Q 2816 409 2655 262 
Q 2494 116 2262 26 
Q 2031 -63 1728 -63 
Q 1331 -63 1053 71 
Q 775 206 601 442 
Q 428 678 350 998 
Q 272 1319 272 1694 
Q 272 2034 328 2295 
Q 384 2556 486 2751 
Q 588 2947 725 3080 
Q 863 3213 1023 3292 
Q 1184 3372 1362 3408 
Q 1541 3444 1722 3444 
Q 2006 3444 2228 3366 
Q 2450 3288 2611 3152 
Q 2772 3016 2872 2831 
Q 2972 2647 3013 2434 
L 2434 2391 
Q 2391 2672 2212 2837 
Q 2034 3003 1706 3003 
Q 1466 3003 1305 2923 
Q 1144 2844 1044 2683 
Q 944 2522 901 2278 
Q 859 2034 859 1706 
z
" transform="scale(0.015625)"/>
     <path id="LiberationSans-3a" d="M 584 2734 
L 584 3381 
L 1194 3381 
L 1194 2734 
L 584 2734 
z
M 584 0 
L 584 647 
L 1194 647 
L 1194 0 
L 584 0 
z
" transform="scale(0.015625)"/>
     <path id="LiberationSans-5f" d="M -97 -1272 
L -97 -866 
L 3631 -866 
L 3631 -1272 
L -97 -1272 
z
" transform="scale(0.015625)"/>
     <path id="LiberationSans-67" d="M 1713 -1328 
Q 1422 -1328 1197 -1268 
Q 972 -1209 812 -1098 
Q 653 -988 553 -834 
Q 453 -681 409 -494 
L 975 -413 
Q 1031 -647 1223 -773 
Q 1416 -900 1728 -900 
Q 1919 -900 2075 -847 
Q 2231 -794 2340 -676 
Q 2450 -559 2509 -371 
Q 2569 -184 2569 84 
L 2569 628 
L 2563 628 
Q 2500 500 2408 383 
Q 2316 266 2183 175 
Q 2050 84 1875 29 
Q 1700 -25 1475 -25 
Q 1153 -25 923 83 
Q 694 191 548 406 
Q 403 622 336 942 
Q 269 1263 269 1684 
Q 269 2091 336 2416 
Q 403 2741 554 2967 
Q 706 3194 948 3314 
Q 1191 3434 1538 3434 
Q 1897 3434 2161 3270 
Q 2425 3106 2569 2803 
L 2575 2803 
Q 2575 2881 2579 2978 
Q 2584 3075 2589 3161 
Q 2594 3247 2600 3309 
Q 2606 3372 2613 3381 
L 3147 3381 
Q 3144 3353 3141 3286 
Q 3138 3219 3134 3125 
Q 3131 3031 3129 2917 
Q 3128 2803 3128 2681 
L 3128 97 
Q 3128 -613 2779 -970 
Q 2431 -1328 1713 -1328 
z
M 2569 1691 
Q 2569 2044 2492 2295 
Q 2416 2547 2291 2706 
Q 2166 2866 2005 2941 
Q 1844 3016 1675 3016 
Q 1459 3016 1304 2941 
Q 1150 2866 1048 2705 
Q 947 2544 898 2292 
Q 850 2041 850 1691 
Q 850 1325 898 1076 
Q 947 828 1047 675 
Q 1147 522 1300 456 
Q 1453 391 1666 391 
Q 1834 391 1995 462 
Q 2156 534 2284 690 
Q 2413 847 2491 1094 
Q 2569 1341 2569 1691 
z
" transform="scale(0.015625)"/>
     <path id="LiberationSans-2c" d="M 1203 684 
L 1203 159 
Q 1203 -6 1189 -142 
Q 1175 -278 1144 -395 
Q 1113 -513 1067 -616 
Q 1022 -719 959 -819 
L 575 -819 
Q 716 -616 792 -409 
Q 869 -203 869 0 
L 594 0 
L 594 684 
L 1203 684 
z
" transform="scale(0.015625)"/>
     <path id="LiberationSans-68" d="M 991 2803 
Q 1084 2975 1193 3095 
Q 1303 3216 1434 3294 
Q 1566 3372 1722 3408 
Q 1878 3444 2072 3444 
Q 2397 3444 2605 3356 
Q 2813 3269 2933 3111 
Q 3053 2953 3098 2734 
Q 3144 2516 3144 2253 
L 3144 0 
L 2578 0 
L 2578 2144 
Q 2578 2359 2551 2521 
Q 2525 2684 2450 2792 
Q 2375 2900 2237 2954 
Q 2100 3009 1881 3009 
Q 1681 3009 1520 2937 
Q 1359 2866 1245 2734 
Q 1131 2603 1068 2415 
Q 1006 2228 1006 1994 
L 1006 0 
L 444 0 
L 444 4638 
L 1006 4638 
L 1006 3431 
Q 1006 3328 1003 3225 
Q 1000 3122 995 3034 
Q 991 2947 987 2886 
Q 984 2825 981 2803 
L 991 2803 
z
" transform="scale(0.015625)"/>
     <path id="LiberationSans-69" d="M 428 4100 
L 428 4638 
L 991 4638 
L 991 4100 
L 428 4100 
z
M 428 0 
L 428 3381 
L 991 3381 
L 991 0 
L 428 0 
z
" transform="scale(0.015625)"/>
     <path id="LiberationSans-2d" d="M 284 1450 
L 284 1950 
L 1847 1950 
L 1847 1450 
L 284 1450 
z
" transform="scale(0.015625)"/>
     <path id="LiberationSans-62" d="M 3291 1706 
Q 3291 -63 2047 -63 
Q 1663 -63 1408 76 
Q 1153 216 994 525 
L 988 525 
Q 988 444 983 356 
Q 978 269 973 194 
Q 969 119 964 66 
Q 959 13 956 0 
L 413 0 
Q 416 28 419 95 
Q 422 163 425 256 
Q 428 350 429 462 
Q 431 575 431 697 
L 431 4638 
L 994 4638 
L 994 3316 
Q 994 3222 992 3136 
Q 991 3050 988 2984 
Q 984 2906 981 2838 
L 994 2838 
Q 1150 3163 1408 3303 
Q 1666 3444 2047 3444 
Q 2688 3444 2989 3012 
Q 3291 2581 3291 1706 
z
M 2700 1688 
Q 2700 2038 2656 2288 
Q 2613 2538 2516 2698 
Q 2419 2859 2269 2934 
Q 2119 3009 1903 3009 
Q 1681 3009 1511 2937 
Q 1341 2866 1227 2706 
Q 1113 2547 1053 2287 
Q 994 2028 994 1653 
Q 994 1291 1053 1044 
Q 1113 797 1227 642 
Q 1341 488 1509 420 
Q 1678 353 1897 353 
Q 2103 353 2253 425 
Q 2403 497 2503 656 
Q 2603 816 2651 1070 
Q 2700 1325 2700 1688 
z
" transform="scale(0.015625)"/>
     <path id="LiberationSans-2f" d="M 0 -63 
L 1284 4638 
L 1778 4638 
L 506 -63 
L 0 -63 
z
" transform="scale(0.015625)"/>
    </defs>
    <use xlink:href="#LiberationSans-50"/>
    <use xlink:href="#LiberationSans-6c" x="66.699219"/>
    <use xlink:href="#LiberationSans-6f" x="88.916016"/>
    <use xlink:href="#LiberationSans-74" x="144.53125"/>
    <use xlink:href="#LiberationSans-73" x="172.314453"/>
    <use xlink:href="#LiberationSans-20" x="222.314453"/>
    <use xlink:href="#LiberationSans-6f" x="250.097656"/>
    <use xlink:href="#LiberationSans-66" x="305.712891"/>
    <use xlink:href="#LiberationSans-20" x="333.496094"/>
    <use xlink:href="#LiberationSans-6d" x="361.279297"/>
    <use xlink:href="#LiberationSans-6f" x="444.580078"/>
    <use xlink:href="#LiberationSans-64" x="500.195312"/>
    <use xlink:href="#LiberationSans-65" x="555.810547"/>
    <use xlink:href="#LiberationSans-6c" x="611.425781"/>
    <use xlink:href="#LiberationSans-20" x="633.642578"/>
    <use xlink:href="#LiberationSans-70" x="661.425781"/>
    <use xlink:href="#LiberationSans-65" x="717.041016"/>
    <use xlink:href="#LiberationSans-72" x="772.65625"/>
    <use xlink:href="#LiberationSans-66" x="805.957031"/>
    <use xlink:href="#LiberationSans-6f" x="833.740234"/>
    <use xlink:href="#LiberationSans-72" x="889.355469"/>
    <use xlink:href="#LiberationSans-6d" x="922.65625"/>
    <use xlink:href="#LiberationSans-61" x="1005.957031"/>
    <use xlink:href="#LiberationSans-6e" x="1061.572266"/>
    <use xlink:href="#LiberationSans-63" x="1117.1875"/>
    <use xlink:href="#LiberationSans-65" x="1167.1875"/>
    <use xlink:href="#LiberationSans-3a" x="1222.802734"/>
    <use xlink:href="#LiberationSans-20" x="1250.585938"/>
    <use xlink:href="#LiberationSans-6d" x="1278.369141"/>
    <use xlink:href="#LiberationSans-65" x="1361.669922"/>
    <use xlink:href="#LiberationSans-6c" x="1417.285156"/>
    <use xlink:href="#LiberationSans-5f" x="1439.501953"/>
    <use xlink:href="#LiberationSans-73" x="1495.117188"/>
    <use xlink:href="#LiberationSans-70" x="1545.117188"/>
    <use xlink:href="#LiberationSans-65" x="1600.732422"/>
    <use xlink:href="#LiberationSans-63" x="1656.347656"/>
    <use xlink:href="#LiberationSans-74" x="1706.347656"/>
    <use xlink:href="#LiberationSans-72" x="1734.130859"/>
    <use xlink:href="#LiberationSans-6f" x="1767.431641"/>
    <use xlink:href="#LiberationSans-67" x="1823.046875"/>
    <use xlink:href="#LiberationSans-72" x="1878.662109"/>
    <use xlink:href="#LiberationSans-61" x="1911.962891"/>
    <use xlink:href="#LiberationSans-6d" x="1967.578125"/>
    <use xlink:href="#LiberationSans-2c" x="2050.878906"/>
    <use xlink:href="#LiberationSans-20" x="2078.662109"/>
    <use xlink:href="#LiberationSans-64" x="2106.445312"/>
    <use xlink:href="#LiberationSans-72" x="2162.060547"/>
    <use xlink:href="#LiberationSans-61" x="2195.361328"/>
    <use xlink:href="#LiberationSans-67" x="2250.976562"/>
    <use xlink:href="#LiberationSans-68" x="2306.591797"/>
    <use xlink:href="#LiberationSans-69" x="2362.207031"/>
    <use xlink:href="#LiberationSans-63" x="2384.423828"/>
    <use xlink:href="#LiberationSans-69" x="2434.423828"/>
    <use xlink:href="#LiberationSans-32" x="2456.640625"/>
    <use xlink:href="#LiberationSans-30" x="2512.255859"/>
    <use xlink:href="#LiberationSans-5f" x="2567.871094"/>
    <use xlink:href="#LiberationSans-63" x="2623.486328"/>
    <use xlink:href="#LiberationSans-72" x="2673.486328"/>
    <use xlink:href="#LiberationSans-6e" x="2706.787109"/>
    <use xlink:href="#LiberationSans-6e" x="2762.402344"/>
    <use xlink:href="#LiberationSans-20" x="2818.017578"/>
    <use xlink:href="#LiberationSans-2d" x="2845.800781"/>
    <use xlink:href="#LiberationSans-20" x="2879.101562"/>
    <use xlink:href="#LiberationSans-6c" x="2906.884766"/>
    <use xlink:href="#LiberationSans-72" x="2929.101562"/>
    <use xlink:href="#LiberationSans-20" x="2962.402344"/>
    <use xlink:href="#LiberationSans-30" x="2990.185547"/>
    <use xlink:href="#LiberationSans-2e" x="3045.800781"/>
    <use xlink:href="#LiberationSans-30" x="3073.583984"/>
    <use xlink:href="#LiberationSans-30" x="3129.199219"/>
    <use xlink:href="#LiberationSans-30" x="3184.814453"/>
    <use xlink:href="#LiberationSans-31" x="3240.429688"/>
    <use xlink:href="#LiberationSans-2c" x="3296.044922"/>
    <use xlink:href="#LiberationSans-20" x="3323.828125"/>
    <use xlink:href="#LiberationSans-62" x="3351.611328"/>
    <use xlink:href="#LiberationSans-61" x="3407.226562"/>
    <use xlink:href="#LiberationSans-74" x="3462.841797"/>
    <use xlink:href="#LiberationSans-63" x="3490.625"/>
    <use xlink:href="#LiberationSans-68" x="3540.625"/>
    <use xlink:href="#LiberationSans-20" x="3596.240234"/>
    <use xlink:href="#LiberationSans-31" x="3624.023438"/>
    <use xlink:href="#LiberationSans-36" x="3679.638672"/>
    <use xlink:href="#LiberationSans-2c" x="3735.253906"/>
    <use xlink:href="#LiberationSans-20" x="3763.037109"/>
    <use xlink:href="#LiberationSans-31" x="3790.820312"/>
    <use xlink:href="#LiberationSans-32" x="3846.435547"/>
    <use xlink:href="#LiberationSans-38" x="3902.050781"/>
    <use xlink:href="#LiberationSans-20" x="3957.666016"/>
    <use xlink:href="#LiberationSans-73" x="3985.449219"/>
    <use xlink:href="#LiberationSans-74" x="4035.449219"/>
    <use xlink:href="#LiberationSans-65" x="4063.232422"/>
    <use xlink:href="#LiberationSans-70" x="4118.847656"/>
    <use xlink:href="#LiberationSans-73" x="4174.462891"/>
    <use xlink:href="#LiberationSans-2f" x="4224.462891"/>
    <use xlink:href="#LiberationSans-65" x="4252.246094"/>
    <use xlink:href="#LiberationSans-70" x="4307.861328"/>
    <use xlink:href="#LiberationSans-6f" x="4363.476562"/>
    <use xlink:href="#LiberationSans-63" x="4419.091797"/>
    <use xlink:href="#LiberationSans-68" x="4469.091797"/>
   </g>
  </g>
 </g>
 <defs>
  <clipPath id="pc077366cef">
   <rect x="108" y="77.76" width="669.6" height="226.8"/>
  </clipPath>
  <clipPath id="pfeefb01046">
   <rect x="108" y="349.92" width="669.6" height="226.8"/>
  </clipPath>
 </defs>
</svg>
