<?xml version="1.0" encoding="utf-8" standalone="no"?>
<!DOCTYPE svg PUBLIC "-//W3C//DTD SVG 1.1//EN"
  "http://www.w3.org/Graphics/SVG/1.1/DTD/svg11.dtd">
<svg xmlns:xlink="http://www.w3.org/1999/xlink" width="864pt" height="648pt" viewBox="0 0 864 648" xmlns="http://www.w3.org/2000/svg" version="1.1">
 <metadata>
  <rdf:RDF xmlns:dc="http://purl.org/dc/elements/1.1/" xmlns:cc="http://creativecommons.org/ns#" xmlns:rdf="http://www.w3.org/1999/02/22-rdf-syntax-ns#">
   <cc:Work>
    <dc:type rdf:resource="http://purl.org/dc/dcmitype/StillImage"/>
    <dc:date>2022-03-13T00:04:22.585359</dc:date>
    <dc:format>image/svg+xml</dc:format>
    <dc:creator>
     <cc:Agent>
      <dc:title>Matplotlib v3.5.0, https://matplotlib.org/</dc:title>
     </cc:Agent>
    </dc:creator>
   </cc:Work>
  </rdf:RDF>
 </metadata>
 <defs>
  <style type="text/css">*{stroke-linejoin: round; stroke-linecap: butt}</style>
 </defs>
 <g id="figure_1">
  <g id="patch_1">
   <path d="M 0 648 
L 864 648 
L 864 0 
L 0 0 
z
" style="fill: #ffffff"/>
  </g>
  <g id="axes_1">
   <g id="patch_2">
    <path d="M 108 304.56 
L 777.6 304.56 
L 777.6 77.76 
L 108 77.76 
z
" style="fill: #eaeaf2"/>
   </g>
   <g id="matplotlib.axis_1">
    <g id="xtick_1">
     <g id="line2d_1"/>
     <g id="text_1">
      <!-- 0 -->
      <g style="fill: #262626" transform="translate(135.655895 318.806875)scale(0.1 -0.1)">
       <defs>
        <path id="LiberationSans-30" d="M 3309 2203 
Q 3309 1569 3189 1136 
Q 3069 703 2861 436 
Q 2653 169 2372 53 
Q 2091 -63 1772 -63 
Q 1450 -63 1172 53 
Q 894 169 689 434 
Q 484 700 367 1133 
Q 250 1566 250 2203 
Q 250 2869 367 3305 
Q 484 3741 690 4000 
Q 897 4259 1178 4364 
Q 1459 4469 1791 4469 
Q 2106 4469 2382 4364 
Q 2659 4259 2865 4000 
Q 3072 3741 3190 3305 
Q 3309 2869 3309 2203 
z
M 2738 2203 
Q 2738 2728 2675 3076 
Q 2613 3425 2491 3633 
Q 2369 3841 2192 3927 
Q 2016 4013 1791 4013 
Q 1553 4013 1372 3925 
Q 1191 3838 1067 3630 
Q 944 3422 881 3073 
Q 819 2725 819 2203 
Q 819 1697 883 1350 
Q 947 1003 1070 792 
Q 1194 581 1372 489 
Q 1550 397 1778 397 
Q 2000 397 2178 489 
Q 2356 581 2479 792 
Q 2603 1003 2670 1350 
Q 2738 1697 2738 2203 
z
" transform="scale(0.015625)"/>
       </defs>
       <use xlink:href="#LiberationSans-30"/>
      </g>
     </g>
    </g>
    <g id="xtick_2">
     <g id="line2d_2"/>
     <g id="text_2">
      <!-- 25 -->
      <g style="fill: #262626" transform="translate(209.348702 318.806875)scale(0.1 -0.1)">
       <defs>
        <path id="LiberationSans-32" d="M 322 0 
L 322 397 
Q 481 763 711 1042 
Q 941 1322 1194 1548 
Q 1447 1775 1695 1969 
Q 1944 2163 2144 2356 
Q 2344 2550 2467 2762 
Q 2591 2975 2591 3244 
Q 2591 3431 2534 3573 
Q 2478 3716 2372 3812 
Q 2266 3909 2117 3957 
Q 1969 4006 1788 4006 
Q 1619 4006 1470 3959 
Q 1322 3913 1206 3819 
Q 1091 3725 1017 3586 
Q 944 3447 922 3263 
L 347 3316 
Q 375 3553 478 3762 
Q 581 3972 762 4130 
Q 944 4288 1198 4378 
Q 1453 4469 1788 4469 
Q 2116 4469 2372 4391 
Q 2628 4313 2804 4159 
Q 2981 4006 3075 3781 
Q 3169 3556 3169 3263 
Q 3169 3041 3089 2841 
Q 3009 2641 2876 2459 
Q 2744 2278 2569 2109 
Q 2394 1941 2203 1780 
Q 2013 1619 1819 1461 
Q 1625 1303 1454 1143 
Q 1284 984 1150 820 
Q 1016 656 941 478 
L 3238 478 
L 3238 0 
L 322 0 
z
" transform="scale(0.015625)"/>
        <path id="LiberationSans-35" d="M 3291 1434 
Q 3291 1103 3191 828 
Q 3091 553 2894 354 
Q 2697 156 2405 46 
Q 2113 -63 1728 -63 
Q 1381 -63 1123 18 
Q 866 100 687 242 
Q 509 384 404 575 
Q 300 766 256 984 
L 825 1050 
Q 859 925 921 808 
Q 984 691 1092 598 
Q 1200 506 1358 451 
Q 1516 397 1741 397 
Q 1959 397 2137 464 
Q 2316 531 2442 662 
Q 2569 794 2637 984 
Q 2706 1175 2706 1422 
Q 2706 1625 2640 1795 
Q 2575 1966 2453 2089 
Q 2331 2213 2154 2281 
Q 1978 2350 1753 2350 
Q 1613 2350 1494 2325 
Q 1375 2300 1273 2256 
Q 1172 2213 1089 2155 
Q 1006 2097 934 2034 
L 384 2034 
L 531 4403 
L 3034 4403 
L 3034 3925 
L 1044 3925 
L 959 2528 
Q 1109 2644 1334 2726 
Q 1559 2809 1869 2809 
Q 2197 2809 2459 2709 
Q 2722 2609 2906 2426 
Q 3091 2244 3191 1991 
Q 3291 1738 3291 1434 
z
" transform="scale(0.015625)"/>
       </defs>
       <use xlink:href="#LiberationSans-32"/>
       <use xlink:href="#LiberationSans-35" x="55.615234"/>
      </g>
     </g>
    </g>
    <g id="xtick_3">
     <g id="line2d_3"/>
     <g id="text_3">
      <!-- 50 -->
      <g style="fill: #262626" transform="translate(285.821977 318.806875)scale(0.1 -0.1)">
       <use xlink:href="#LiberationSans-35"/>
       <use xlink:href="#LiberationSans-30" x="55.615234"/>
      </g>
     </g>
    </g>
    <g id="xtick_4">
     <g id="line2d_4"/>
     <g id="text_4">
      <!-- 75 -->
      <g style="fill: #262626" transform="translate(362.295253 318.806875)scale(0.1 -0.1)">
       <defs>
        <path id="LiberationSans-37" d="M 3238 3947 
Q 2906 3441 2628 2973 
Q 2350 2506 2150 2032 
Q 1950 1559 1839 1061 
Q 1728 563 1728 0 
L 1141 0 
Q 1141 528 1266 1036 
Q 1391 1544 1603 2033 
Q 1816 2522 2097 2994 
Q 2378 3466 2694 3925 
L 328 3925 
L 328 4403 
L 3238 4403 
L 3238 3947 
z
" transform="scale(0.015625)"/>
       </defs>
       <use xlink:href="#LiberationSans-37"/>
       <use xlink:href="#LiberationSans-35" x="55.615234"/>
      </g>
     </g>
    </g>
    <g id="xtick_5">
     <g id="line2d_5"/>
     <g id="text_5">
      <!-- 100 -->
      <g style="fill: #262626" transform="translate(435.988059 318.806875)scale(0.1 -0.1)">
       <defs>
        <path id="LiberationSans-31" d="M 488 0 
L 488 478 
L 1609 478 
L 1609 3866 
L 616 3156 
L 616 3688 
L 1656 4403 
L 2175 4403 
L 2175 478 
L 3247 478 
L 3247 0 
L 488 0 
z
" transform="scale(0.015625)"/>
       </defs>
       <use xlink:href="#LiberationSans-31"/>
       <use xlink:href="#LiberationSans-30" x="55.615234"/>
       <use xlink:href="#LiberationSans-30" x="111.230469"/>
      </g>
     </g>
    </g>
    <g id="xtick_6">
     <g id="line2d_6"/>
     <g id="text_6">
      <!-- 125 -->
      <g style="fill: #262626" transform="translate(512.461335 318.806875)scale(0.1 -0.1)">
       <use xlink:href="#LiberationSans-31"/>
       <use xlink:href="#LiberationSans-32" x="55.615234"/>
       <use xlink:href="#LiberationSans-35" x="111.230469"/>
      </g>
     </g>
    </g>
    <g id="xtick_7">
     <g id="line2d_7"/>
     <g id="text_7">
      <!-- 150 -->
      <g style="fill: #262626" transform="translate(588.93461 318.806875)scale(0.1 -0.1)">
       <use xlink:href="#LiberationSans-31"/>
       <use xlink:href="#LiberationSans-35" x="55.615234"/>
       <use xlink:href="#LiberationSans-30" x="111.230469"/>
      </g>
     </g>
    </g>
    <g id="xtick_8">
     <g id="line2d_8"/>
     <g id="text_8">
      <!-- 175 -->
      <g style="fill: #262626" transform="translate(665.407886 318.806875)scale(0.1 -0.1)">
       <use xlink:href="#LiberationSans-31"/>
       <use xlink:href="#LiberationSans-37" x="55.615234"/>
       <use xlink:href="#LiberationSans-35" x="111.230469"/>
      </g>
     </g>
    </g>
    <g id="xtick_9">
     <g id="line2d_9"/>
     <g id="text_9">
      <!-- 200 -->
      <g style="fill: #262626" transform="translate(741.881161 318.806875)scale(0.1 -0.1)">
       <use xlink:href="#LiberationSans-32"/>
       <use xlink:href="#LiberationSans-30" x="55.615234"/>
       <use xlink:href="#LiberationSans-30" x="111.230469"/>
      </g>
     </g>
    </g>
   </g>
   <g id="matplotlib.axis_2">
    <g id="ytick_1">
     <g id="line2d_10"/>
     <g id="text_10">
      <!-- 0.75 -->
      <g style="fill: #262626" transform="translate(81.539062 304.966759)scale(0.1 -0.1)">
       <defs>
        <path id="LiberationSans-2e" d="M 584 0 
L 584 684 
L 1194 684 
L 1194 0 
L 584 0 
z
" transform="scale(0.015625)"/>
       </defs>
       <use xlink:href="#LiberationSans-30"/>
       <use xlink:href="#LiberationSans-2e" x="55.615234"/>
       <use xlink:href="#LiberationSans-37" x="83.398438"/>
       <use xlink:href="#LiberationSans-35" x="139.013672"/>
      </g>
     </g>
    </g>
    <g id="ytick_2">
     <g id="line2d_11"/>
     <g id="text_11">
      <!-- 1.00 -->
      <g style="fill: #262626" transform="translate(81.539062 277.283194)scale(0.1 -0.1)">
       <use xlink:href="#LiberationSans-31"/>
       <use xlink:href="#LiberationSans-2e" x="55.615234"/>
       <use xlink:href="#LiberationSans-30" x="83.398438"/>
       <use xlink:href="#LiberationSans-30" x="139.013672"/>
      </g>
     </g>
    </g>
    <g id="ytick_3">
     <g id="line2d_12"/>
     <g id="text_12">
      <!-- 1.25 -->
      <g style="fill: #262626" transform="translate(81.539062 249.599628)scale(0.1 -0.1)">
       <use xlink:href="#LiberationSans-31"/>
       <use xlink:href="#LiberationSans-2e" x="55.615234"/>
       <use xlink:href="#LiberationSans-32" x="83.398438"/>
       <use xlink:href="#LiberationSans-35" x="139.013672"/>
      </g>
     </g>
    </g>
    <g id="ytick_4">
     <g id="line2d_13"/>
     <g id="text_13">
      <!-- 1.50 -->
      <g style="fill: #262626" transform="translate(81.539062 221.916062)scale(0.1 -0.1)">
       <use xlink:href="#LiberationSans-31"/>
       <use xlink:href="#LiberationSans-2e" x="55.615234"/>
       <use xlink:href="#LiberationSans-35" x="83.398438"/>
       <use xlink:href="#LiberationSans-30" x="139.013672"/>
      </g>
     </g>
    </g>
    <g id="ytick_5">
     <g id="line2d_14"/>
     <g id="text_14">
      <!-- 1.75 -->
      <g style="fill: #262626" transform="translate(81.539062 194.232496)scale(0.1 -0.1)">
       <use xlink:href="#LiberationSans-31"/>
       <use xlink:href="#LiberationSans-2e" x="55.615234"/>
       <use xlink:href="#LiberationSans-37" x="83.398438"/>
       <use xlink:href="#LiberationSans-35" x="139.013672"/>
      </g>
     </g>
    </g>
    <g id="ytick_6">
     <g id="line2d_15"/>
     <g id="text_15">
      <!-- 2.00 -->
      <g style="fill: #262626" transform="translate(81.539062 166.54893)scale(0.1 -0.1)">
       <use xlink:href="#LiberationSans-32"/>
       <use xlink:href="#LiberationSans-2e" x="55.615234"/>
       <use xlink:href="#LiberationSans-30" x="83.398438"/>
       <use xlink:href="#LiberationSans-30" x="139.013672"/>
      </g>
     </g>
    </g>
    <g id="ytick_7">
     <g id="line2d_16"/>
     <g id="text_16">
      <!-- 2.25 -->
      <g style="fill: #262626" transform="translate(81.539062 138.865364)scale(0.1 -0.1)">
       <use xlink:href="#LiberationSans-32"/>
       <use xlink:href="#LiberationSans-2e" x="55.615234"/>
       <use xlink:href="#LiberationSans-32" x="83.398438"/>
       <use xlink:href="#LiberationSans-35" x="139.013672"/>
      </g>
     </g>
    </g>
    <g id="ytick_8">
     <g id="line2d_17"/>
     <g id="text_17">
      <!-- 2.50 -->
      <g style="fill: #262626" transform="translate(81.539062 111.181798)scale(0.1 -0.1)">
       <use xlink:href="#LiberationSans-32"/>
       <use xlink:href="#LiberationSans-2e" x="55.615234"/>
       <use xlink:href="#LiberationSans-35" x="83.398438"/>
       <use xlink:href="#LiberationSans-30" x="139.013672"/>
      </g>
     </g>
    </g>
    <g id="ytick_9">
     <g id="line2d_18"/>
     <g id="text_18">
      <!-- 2.75 -->
      <g style="fill: #262626" transform="translate(81.539062 83.498232)scale(0.1 -0.1)">
       <use xlink:href="#LiberationSans-32"/>
       <use xlink:href="#LiberationSans-2e" x="55.615234"/>
       <use xlink:href="#LiberationSans-37" x="83.398438"/>
       <use xlink:href="#LiberationSans-35" x="139.013672"/>
      </g>
     </g>
    </g>
   </g>
   <g id="line2d_19">
    <path d="M 138.436364 88.069091 
L 141.495295 115.930811 
L 144.554226 127.134675 
L 147.613157 130.23031 
L 150.672088 134.703503 
L 153.731019 135.224766 
L 156.78995 134.612683 
L 159.848881 136.714976 
L 162.907812 135.16209 
L 165.966743 137.567494 
L 169.025674 139.396827 
L 172.084605 138.532296 
L 175.143536 139.286022 
L 178.202467 139.660046 
L 181.261398 142.157512 
L 184.320329 142.593103 
L 187.37926 142.832165 
L 190.438191 144.95521 
L 193.497122 147.268607 
L 196.556053 146.817386 
L 199.614984 147.448214 
L 202.673915 150.465227 
L 205.732846 153.227231 
L 208.791777 154.710736 
L 211.850708 151.221724 
L 214.909639 154.295473 
L 217.96857 158.021989 
L 221.027501 155.832017 
L 224.086432 159.307643 
L 227.145363 157.453943 
L 230.204294 158.168568 
L 233.263225 160.975639 
L 236.322156 164.037005 
L 239.381087 165.54641 
L 242.440018 163.364635 
L 245.498949 163.857584 
L 248.55788 166.282934 
L 251.616811 169.440335 
L 254.675742 167.302321 
L 257.734673 171.031675 
L 260.793604 170.609614 
L 263.852535 172.889204 
L 266.911466 171.714038 
L 269.970397 173.555607 
L 273.029328 173.00686 
L 276.088259 178.304044 
L 279.14719 178.329548 
L 282.206122 178.870612 
L 285.265053 177.907539 
L 288.323984 177.499405 
L 291.382915 178.265947 
L 294.441846 181.146863 
L 297.500777 177.361644 
L 300.559708 184.227291 
L 303.618639 186.729825 
L 306.67757 185.810737 
L 309.736501 184.069399 
L 312.795432 180.464843 
L 315.854363 185.983585 
L 318.913294 189.142371 
L 321.972225 189.388733 
L 325.031156 190.071519 
L 328.090087 190.968668 
L 331.149018 193.481618 
L 334.207949 192.078082 
L 337.26688 191.494842 
L 340.325811 196.005946 
L 343.384742 194.27274 
L 346.443673 195.848635 
L 349.502604 196.008362 
L 352.561535 196.945535 
L 355.620466 198.463308 
L 358.679397 200.411763 
L 361.738328 199.292659 
L 364.797259 200.32687 
L 367.85619 201.211888 
L 370.915121 204.157987 
L 373.974052 202.387291 
L 377.032983 206.669247 
L 380.091914 206.67858 
L 383.150845 201.749757 
L 386.209776 204.751392 
L 389.268707 208.634202 
L 392.327638 205.775741 
L 395.386569 209.099535 
L 398.4455 206.914645 
L 401.504431 208.864578 
L 404.563362 208.471888 
L 407.622293 212.455274 
L 410.681224 214.154594 
L 413.740155 214.839267 
L 416.799086 208.964876 
L 419.858017 215.012261 
L 422.916948 216.855361 
L 425.975879 215.028299 
L 429.03481 217.555756 
L 432.093741 220.681093 
L 435.152672 216.77068 
L 438.211603 221.445009 
L 441.270534 216.558877 
L 444.329466 221.799404 
L 447.388397 225.239798 
L 450.447328 226.223912 
L 453.506259 225.718727 
L 456.56519 223.398493 
L 459.624121 227.244856 
L 462.683052 224.704027 
L 465.741983 225.300903 
L 468.800914 227.970253 
L 471.859845 227.666363 
L 474.918776 227.245015 
L 477.977707 235.324624 
L 481.036638 230.184752 
L 484.095569 233.404116 
L 487.1545 236.808327 
L 490.213431 235.340954 
L 493.272362 235.910795 
L 496.331293 233.088622 
L 499.390224 237.130592 
L 502.449155 240.206479 
L 505.508086 241.944979 
L 508.567017 241.940649 
L 511.625948 244.30042 
L 514.684879 239.383544 
L 517.74381 238.875811 
L 520.802741 239.593723 
L 523.861672 244.683935 
L 526.920603 244.537396 
L 529.979534 244.071601 
L 533.038465 243.131075 
L 536.097396 245.584728 
L 539.156327 249.881151 
L 542.215258 245.857596 
L 545.274189 246.510245 
L 548.33312 249.073357 
L 551.392051 250.713209 
L 554.450982 249.35268 
L 557.509913 252.811001 
L 560.568844 252.021713 
L 563.627775 250.668485 
L 566.686706 252.095372 
L 569.745637 254.009875 
L 572.804568 256.150252 
L 575.863499 256.335245 
L 578.92243 259.987627 
L 581.981361 257.018941 
L 585.040292 257.525499 
L 588.099223 262.357363 
L 591.158154 257.485343 
L 594.217085 261.032107 
L 597.276016 263.546152 
L 600.334947 261.100776 
L 603.393878 264.924845 
L 606.45281 263.942816 
L 609.511741 264.697386 
L 612.570672 265.892142 
L 615.629603 264.214734 
L 618.688534 268.041152 
L 621.747465 267.751175 
L 624.806396 263.629527 
L 627.865327 266.47917 
L 630.924258 268.568593 
L 633.983189 269.297158 
L 637.04212 270.60235 
L 640.101051 268.21701 
L 643.159982 269.858776 
L 646.218913 273.543697 
L 649.277844 271.1302 
L 652.336775 272.726543 
L 655.395706 268.574692 
L 658.454637 275.395721 
L 661.513568 275.319943 
L 664.572499 273.145489 
L 667.63143 277.725342 
L 670.690361 278.033046 
L 673.749292 279.463392 
L 676.808223 278.539307 
L 679.867154 281.632534 
L 682.926085 278.964847 
L 685.985016 280.48429 
L 689.043947 281.557561 
L 692.102878 283.542053 
L 695.161809 286.850607 
L 698.22074 281.186249 
L 701.279671 284.384169 
L 704.338602 282.386114 
L 707.397533 284.041588 
L 710.456464 281.966527 
L 713.515395 282.509275 
L 716.574326 281.215753 
L 719.633257 287.764177 
L 722.692188 287.860851 
L 725.751119 287.284845 
L 728.81005 288.439234 
L 731.868981 289.817899 
L 734.927912 290.325018 
L 737.986843 292.212572 
L 741.045774 294.250909 
L 744.104705 289.78633 
L 747.163636 289.074662 
L 747.163636 289.074662 
" clip-path="url(#p24f66cebe8)" style="fill: none; stroke: #ff0000; stroke-width: 1.75; stroke-linecap: round"/>
   </g>
   <g id="line2d_20">
    <path d="M 138.436364 104.742234 
L 141.495295 122.92655 
L 144.554226 129.744741 
L 147.613157 132.706523 
L 150.672088 134.382439 
L 153.731019 135.501634 
L 156.78995 136.044599 
L 162.907812 137.346121 
L 165.966743 138.339463 
L 169.025674 138.909991 
L 178.202467 141.317481 
L 181.261398 142.317529 
L 184.320329 143.050397 
L 187.37926 144.049204 
L 190.438191 144.859506 
L 193.497122 146.485788 
L 199.614984 148.720747 
L 202.673915 150.304866 
L 205.732846 151.408591 
L 208.791777 153.159486 
L 211.850708 153.206453 
L 214.909639 155.532285 
L 217.96857 155.770714 
L 221.027501 157.367558 
L 224.086432 157.480396 
L 227.145363 158.336373 
L 230.204294 159.500794 
L 233.263225 161.637699 
L 236.322156 162.132905 
L 239.381087 163.107581 
L 242.440018 163.215377 
L 245.498949 165.107095 
L 248.55788 165.585853 
L 251.616811 166.711728 
L 254.675742 167.493082 
L 257.734673 167.759311 
L 260.793604 169.170727 
L 263.852535 168.52019 
L 266.911466 170.135767 
L 269.970397 171.269483 
L 273.029328 171.031068 
L 279.14719 172.861535 
L 282.206122 173.513445 
L 285.265053 173.502924 
L 288.323984 174.836206 
L 291.382915 174.352023 
L 294.441846 175.577351 
L 297.500777 175.824386 
L 300.559708 177.506374 
L 303.618639 178.256588 
L 306.67757 179.334598 
L 309.736501 179.225799 
L 312.795432 178.533905 
L 315.854363 180.444738 
L 318.913294 182.035933 
L 321.972225 180.666574 
L 325.031156 179.620496 
L 328.090087 182.96846 
L 331.149018 184.074613 
L 334.207949 182.656689 
L 337.26688 182.799704 
L 340.325811 184.871465 
L 343.384742 184.88588 
L 346.443673 186.576039 
L 349.502604 185.678731 
L 352.561535 187.684766 
L 355.620466 186.729918 
L 358.679397 187.941913 
L 361.738328 189.365461 
L 364.797259 189.635095 
L 367.85619 188.301615 
L 370.915121 189.052344 
L 373.974052 187.227842 
L 377.032983 189.806399 
L 380.091914 188.580846 
L 383.150845 189.692821 
L 386.209776 188.835723 
L 389.268707 190.455193 
L 392.327638 191.633633 
L 395.386569 189.828299 
L 398.4455 191.284623 
L 401.504431 193.232629 
L 404.563362 191.101941 
L 407.622293 191.846333 
L 410.681224 193.39493 
L 413.740155 191.803392 
L 416.799086 194.734456 
L 419.858017 193.734949 
L 422.916948 193.630177 
L 425.975879 194.945229 
L 429.03481 195.913397 
L 435.152672 195.282635 
L 438.211603 196.969626 
L 441.270534 194.234313 
L 444.329466 197.506136 
L 447.388397 197.159674 
L 450.447328 196.634609 
L 453.506259 197.805723 
L 456.56519 197.768141 
L 459.624121 196.981507 
L 462.683052 197.013201 
L 465.741983 196.676336 
L 468.800914 197.230179 
L 474.918776 196.407269 
L 477.977707 198.229183 
L 481.036638 199.093344 
L 484.095569 200.276932 
L 487.1545 198.531687 
L 490.213431 199.678947 
L 493.272362 198.865054 
L 496.331293 197.288142 
L 499.390224 198.935017 
L 502.449155 201.400207 
L 505.508086 198.085706 
L 508.567017 200.326817 
L 511.625948 199.96 
L 514.684879 200.764495 
L 517.74381 198.888023 
L 520.802741 198.662755 
L 523.861672 199.73794 
L 526.920603 201.292913 
L 529.979534 200.619222 
L 533.038465 195.207392 
L 536.097396 200.055902 
L 539.156327 199.116617 
L 542.215258 196.07975 
L 545.274189 199.716555 
L 548.33312 197.149589 
L 551.392051 200.212408 
L 554.450982 199.584207 
L 557.509913 199.366081 
L 560.568844 198.955478 
L 563.627775 198.316914 
L 566.686706 200.566183 
L 569.745637 200.552929 
L 572.804568 199.582161 
L 575.863499 195.134155 
L 578.92243 199.508449 
L 581.981361 198.803658 
L 585.040292 198.397121 
L 588.099223 195.719138 
L 591.158154 199.091681 
L 594.217085 197.093513 
L 597.276016 197.225044 
L 600.334947 198.178704 
L 603.393878 195.373019 
L 606.45281 198.953564 
L 609.511741 196.763183 
L 612.570672 198.856025 
L 615.629603 200.080891 
L 618.688534 196.462434 
L 621.747465 193.353269 
L 624.806396 197.049621 
L 627.865327 192.45575 
L 630.924258 196.694566 
L 633.983189 196.134665 
L 637.04212 196.653552 
L 640.101051 196.561188 
L 643.159982 193.681764 
L 646.218913 192.474455 
L 649.277844 193.962659 
L 652.336775 194.278561 
L 655.395706 195.722306 
L 658.454637 192.390275 
L 661.513568 194.618159 
L 664.572499 195.979189 
L 667.63143 190.05313 
L 670.690361 194.809448 
L 673.749292 195.05379 
L 676.808223 192.617681 
L 679.867154 188.468087 
L 682.926085 187.9134 
L 685.985016 191.687847 
L 689.043947 190.2994 
L 692.102878 190.882838 
L 695.161809 190.163936 
L 698.22074 191.512372 
L 701.279671 188.856804 
L 704.338602 188.693223 
L 707.397533 187.200583 
L 710.456464 187.651527 
L 713.515395 187.510506 
L 716.574326 189.081847 
L 719.633257 188.338009 
L 722.692188 187.771784 
L 725.751119 189.828035 
L 728.81005 188.221488 
L 731.868981 182.220371 
L 734.927912 186.569082 
L 737.986843 183.604251 
L 741.045774 185.383818 
L 744.104705 181.746194 
L 747.163636 182.689981 
L 747.163636 182.689981 
" clip-path="url(#p24f66cebe8)" style="fill: none; stroke: #008000; stroke-width: 1.75; stroke-linecap: round"/>
   </g>
   <g id="patch_3">
    <path d="M 108 304.56 
L 108 77.76 
" style="fill: none"/>
   </g>
   <g id="patch_4">
    <path d="M 777.6 304.56 
L 777.6 77.76 
" style="fill: none"/>
   </g>
   <g id="patch_5">
    <path d="M 108 304.56 
L 777.6 304.56 
" style="fill: none"/>
   </g>
   <g id="patch_6">
    <path d="M 108 77.76 
L 777.6 77.76 
" style="fill: none"/>
   </g>
  </g>
  <g id="axes_2">
   <g id="patch_7">
    <path d="M 108 576.72 
L 777.6 576.72 
L 777.6 349.92 
L 108 349.92 
z
" style="fill: #eaeaf2"/>
   </g>
   <g id="matplotlib.axis_3">
    <g id="xtick_10">
     <g id="line2d_21"/>
     <g id="text_19">
      <!-- 0 -->
      <g style="fill: #262626" transform="translate(135.655895 590.966875)scale(0.1 -0.1)">
       <use xlink:href="#LiberationSans-30"/>
      </g>
     </g>
    </g>
    <g id="xtick_11">
     <g id="line2d_22"/>
     <g id="text_20">
      <!-- 25 -->
      <g style="fill: #262626" transform="translate(209.348702 590.966875)scale(0.1 -0.1)">
       <use xlink:href="#LiberationSans-32"/>
       <use xlink:href="#LiberationSans-35" x="55.615234"/>
      </g>
     </g>
    </g>
    <g id="xtick_12">
     <g id="line2d_23"/>
     <g id="text_21">
      <!-- 50 -->
      <g style="fill: #262626" transform="translate(285.821977 590.966875)scale(0.1 -0.1)">
       <use xlink:href="#LiberationSans-35"/>
       <use xlink:href="#LiberationSans-30" x="55.615234"/>
      </g>
     </g>
    </g>
    <g id="xtick_13">
     <g id="line2d_24"/>
     <g id="text_22">
      <!-- 75 -->
      <g style="fill: #262626" transform="translate(362.295253 590.966875)scale(0.1 -0.1)">
       <use xlink:href="#LiberationSans-37"/>
       <use xlink:href="#LiberationSans-35" x="55.615234"/>
      </g>
     </g>
    </g>
    <g id="xtick_14">
     <g id="line2d_25"/>
     <g id="text_23">
      <!-- 100 -->
      <g style="fill: #262626" transform="translate(435.988059 590.966875)scale(0.1 -0.1)">
       <use xlink:href="#LiberationSans-31"/>
       <use xlink:href="#LiberationSans-30" x="55.615234"/>
       <use xlink:href="#LiberationSans-30" x="111.230469"/>
      </g>
     </g>
    </g>
    <g id="xtick_15">
     <g id="line2d_26"/>
     <g id="text_24">
      <!-- 125 -->
      <g style="fill: #262626" transform="translate(512.461335 590.966875)scale(0.1 -0.1)">
       <use xlink:href="#LiberationSans-31"/>
       <use xlink:href="#LiberationSans-32" x="55.615234"/>
       <use xlink:href="#LiberationSans-35" x="111.230469"/>
      </g>
     </g>
    </g>
    <g id="xtick_16">
     <g id="line2d_27"/>
     <g id="text_25">
      <!-- 150 -->
      <g style="fill: #262626" transform="translate(588.93461 590.966875)scale(0.1 -0.1)">
       <use xlink:href="#LiberationSans-31"/>
       <use xlink:href="#LiberationSans-35" x="55.615234"/>
       <use xlink:href="#LiberationSans-30" x="111.230469"/>
      </g>
     </g>
    </g>
    <g id="xtick_17">
     <g id="line2d_28"/>
     <g id="text_26">
      <!-- 175 -->
      <g style="fill: #262626" transform="translate(665.407886 590.966875)scale(0.1 -0.1)">
       <use xlink:href="#LiberationSans-31"/>
       <use xlink:href="#LiberationSans-37" x="55.615234"/>
       <use xlink:href="#LiberationSans-35" x="111.230469"/>
      </g>
     </g>
    </g>
    <g id="xtick_18">
     <g id="line2d_29"/>
     <g id="text_27">
      <!-- 200 -->
      <g style="fill: #262626" transform="translate(741.881161 590.966875)scale(0.1 -0.1)">
       <use xlink:href="#LiberationSans-32"/>
       <use xlink:href="#LiberationSans-30" x="55.615234"/>
       <use xlink:href="#LiberationSans-30" x="111.230469"/>
      </g>
     </g>
    </g>
   </g>
   <g id="matplotlib.axis_4">
    <g id="ytick_10">
     <g id="line2d_30"/>
     <g id="text_28">
      <!-- 0.1 -->
      <g style="fill: #262626" transform="translate(87.1 553.951888)scale(0.1 -0.1)">
       <use xlink:href="#LiberationSans-30"/>
       <use xlink:href="#LiberationSans-2e" x="55.615234"/>
       <use xlink:href="#LiberationSans-31" x="83.398438"/>
      </g>
     </g>
    </g>
    <g id="ytick_11">
     <g id="line2d_31"/>
     <g id="text_29">
      <!-- 0.2 -->
      <g style="fill: #262626" transform="translate(87.1 525.631274)scale(0.1 -0.1)">
       <use xlink:href="#LiberationSans-30"/>
       <use xlink:href="#LiberationSans-2e" x="55.615234"/>
       <use xlink:href="#LiberationSans-32" x="83.398438"/>
      </g>
     </g>
    </g>
    <g id="ytick_12">
     <g id="line2d_32"/>
     <g id="text_30">
      <!-- 0.3 -->
      <g style="fill: #262626" transform="translate(87.1 497.310659)scale(0.1 -0.1)">
       <defs>
        <path id="LiberationSans-33" d="M 3278 1216 
Q 3278 913 3179 675 
Q 3081 438 2892 273 
Q 2703 109 2423 23 
Q 2144 -63 1784 -63 
Q 1375 -63 1095 39 
Q 816 141 634 308 
Q 453 475 362 689 
Q 272 903 244 1131 
L 825 1184 
Q 850 1009 917 865 
Q 984 722 1100 619 
Q 1216 516 1384 459 
Q 1553 403 1784 403 
Q 2209 403 2451 612 
Q 2694 822 2694 1234 
Q 2694 1478 2586 1626 
Q 2478 1775 2317 1858 
Q 2156 1941 1967 1969 
Q 1778 1997 1619 1997 
L 1300 1997 
L 1300 2484 
L 1606 2484 
Q 1766 2484 1937 2517 
Q 2109 2550 2251 2636 
Q 2394 2722 2486 2869 
Q 2578 3016 2578 3244 
Q 2578 3597 2370 3801 
Q 2163 4006 1753 4006 
Q 1381 4006 1151 3815 
Q 922 3625 884 3278 
L 319 3322 
Q 353 3613 478 3828 
Q 603 4044 795 4186 
Q 988 4328 1234 4398 
Q 1481 4469 1759 4469 
Q 2128 4469 2393 4376 
Q 2659 4284 2828 4126 
Q 2997 3969 3076 3756 
Q 3156 3544 3156 3303 
Q 3156 3109 3103 2940 
Q 3050 2772 2937 2637 
Q 2825 2503 2651 2406 
Q 2478 2309 2234 2259 
L 2234 2247 
Q 2500 2219 2697 2126 
Q 2894 2034 3022 1896 
Q 3150 1759 3214 1584 
Q 3278 1409 3278 1216 
z
" transform="scale(0.015625)"/>
       </defs>
       <use xlink:href="#LiberationSans-30"/>
       <use xlink:href="#LiberationSans-2e" x="55.615234"/>
       <use xlink:href="#LiberationSans-33" x="83.398438"/>
      </g>
     </g>
    </g>
    <g id="ytick_13">
     <g id="line2d_33"/>
     <g id="text_31">
      <!-- 0.4 -->
      <g style="fill: #262626" transform="translate(87.1 468.990044)scale(0.1 -0.1)">
       <defs>
        <path id="LiberationSans-34" d="M 2753 997 
L 2753 0 
L 2222 0 
L 2222 997 
L 147 997 
L 147 1434 
L 2163 4403 
L 2753 4403 
L 2753 1441 
L 3372 1441 
L 3372 997 
L 2753 997 
z
M 2222 3769 
Q 2216 3753 2191 3708 
Q 2166 3663 2134 3606 
Q 2103 3550 2070 3492 
Q 2038 3434 2013 3397 
L 884 1734 
Q 869 1709 839 1668 
Q 809 1628 778 1586 
Q 747 1544 715 1503 
Q 684 1463 666 1441 
L 2222 1441 
L 2222 3769 
z
" transform="scale(0.015625)"/>
       </defs>
       <use xlink:href="#LiberationSans-30"/>
       <use xlink:href="#LiberationSans-2e" x="55.615234"/>
       <use xlink:href="#LiberationSans-34" x="83.398438"/>
      </g>
     </g>
    </g>
    <g id="ytick_14">
     <g id="line2d_34"/>
     <g id="text_32">
      <!-- 0.5 -->
      <g style="fill: #262626" transform="translate(87.1 440.66943)scale(0.1 -0.1)">
       <use xlink:href="#LiberationSans-30"/>
       <use xlink:href="#LiberationSans-2e" x="55.615234"/>
       <use xlink:href="#LiberationSans-35" x="83.398438"/>
      </g>
     </g>
    </g>
    <g id="ytick_15">
     <g id="line2d_35"/>
     <g id="text_33">
      <!-- 0.6 -->
      <g style="fill: #262626" transform="translate(87.1 412.348815)scale(0.1 -0.1)">
       <defs>
        <path id="LiberationSans-36" d="M 3278 1441 
Q 3278 1109 3186 832 
Q 3094 556 2914 357 
Q 2734 159 2468 48 
Q 2203 -63 1856 -63 
Q 1472 -63 1184 84 
Q 897 231 706 507 
Q 516 784 420 1186 
Q 325 1588 325 2100 
Q 325 2688 433 3131 
Q 541 3575 744 3872 
Q 947 4169 1239 4319 
Q 1531 4469 1900 4469 
Q 2125 4469 2322 4422 
Q 2519 4375 2680 4270 
Q 2841 4166 2962 3994 
Q 3084 3822 3156 3572 
L 2619 3475 
Q 2531 3759 2339 3886 
Q 2147 4013 1894 4013 
Q 1663 4013 1475 3903 
Q 1288 3794 1156 3576 
Q 1025 3359 954 3031 
Q 884 2703 884 2266 
Q 1038 2550 1316 2698 
Q 1594 2847 1953 2847 
Q 2253 2847 2497 2750 
Q 2741 2653 2914 2470 
Q 3088 2288 3183 2027 
Q 3278 1766 3278 1441 
z
M 2706 1416 
Q 2706 1644 2650 1828 
Q 2594 2013 2481 2142 
Q 2369 2272 2203 2342 
Q 2038 2413 1819 2413 
Q 1666 2413 1509 2367 
Q 1353 2322 1226 2220 
Q 1100 2119 1020 1953 
Q 941 1788 941 1550 
Q 941 1306 1003 1095 
Q 1066 884 1183 728 
Q 1300 572 1465 481 
Q 1631 391 1838 391 
Q 2041 391 2202 461 
Q 2363 531 2475 664 
Q 2588 797 2647 987 
Q 2706 1178 2706 1416 
z
" transform="scale(0.015625)"/>
       </defs>
       <use xlink:href="#LiberationSans-30"/>
       <use xlink:href="#LiberationSans-2e" x="55.615234"/>
       <use xlink:href="#LiberationSans-36" x="83.398438"/>
      </g>
     </g>
    </g>
    <g id="ytick_16">
     <g id="line2d_36"/>
     <g id="text_34">
      <!-- 0.7 -->
      <g style="fill: #262626" transform="translate(87.1 384.028201)scale(0.1 -0.1)">
       <use xlink:href="#LiberationSans-30"/>
       <use xlink:href="#LiberationSans-2e" x="55.615234"/>
       <use xlink:href="#LiberationSans-37" x="83.398438"/>
      </g>
     </g>
    </g>
    <g id="ytick_17">
     <g id="line2d_37"/>
     <g id="text_35">
      <!-- 0.8 -->
      <g style="fill: #262626" transform="translate(87.1 355.707586)scale(0.1 -0.1)">
       <defs>
        <path id="LiberationSans-38" d="M 3281 1228 
Q 3281 947 3192 711 
Q 3103 475 2920 303 
Q 2738 131 2453 34 
Q 2169 -63 1781 -63 
Q 1394 -63 1111 34 
Q 828 131 642 301 
Q 456 472 367 708 
Q 278 944 278 1222 
Q 278 1463 351 1650 
Q 425 1838 548 1973 
Q 672 2109 830 2192 
Q 988 2275 1156 2303 
L 1156 2316 
Q 972 2359 826 2456 
Q 681 2553 582 2689 
Q 484 2825 432 2990 
Q 381 3156 381 3341 
Q 381 3572 470 3776 
Q 559 3981 734 4136 
Q 909 4291 1168 4380 
Q 1428 4469 1769 4469 
Q 2128 4469 2392 4378 
Q 2656 4288 2829 4133 
Q 3003 3978 3087 3772 
Q 3172 3566 3172 3334 
Q 3172 3153 3120 2987 
Q 3069 2822 2970 2686 
Q 2872 2550 2726 2454 
Q 2581 2359 2391 2322 
L 2391 2309 
Q 2581 2278 2743 2195 
Q 2906 2113 3025 1977 
Q 3144 1841 3212 1653 
Q 3281 1466 3281 1228 
z
M 2588 3303 
Q 2588 3469 2545 3606 
Q 2503 3744 2406 3842 
Q 2309 3941 2153 3995 
Q 1997 4050 1769 4050 
Q 1547 4050 1394 3995 
Q 1241 3941 1142 3842 
Q 1044 3744 1000 3606 
Q 956 3469 956 3303 
Q 956 3172 990 3034 
Q 1025 2897 1115 2784 
Q 1206 2672 1365 2600 
Q 1525 2528 1775 2528 
Q 2041 2528 2202 2600 
Q 2363 2672 2448 2784 
Q 2534 2897 2561 3034 
Q 2588 3172 2588 3303 
z
M 2697 1281 
Q 2697 1441 2653 1589 
Q 2609 1738 2503 1852 
Q 2397 1966 2217 2036 
Q 2038 2106 1769 2106 
Q 1522 2106 1348 2036 
Q 1175 1966 1067 1850 
Q 959 1734 909 1582 
Q 859 1431 859 1269 
Q 859 1066 909 898 
Q 959 731 1068 611 
Q 1178 491 1356 425 
Q 1534 359 1788 359 
Q 2044 359 2219 425 
Q 2394 491 2500 611 
Q 2606 731 2651 901 
Q 2697 1072 2697 1281 
z
" transform="scale(0.015625)"/>
       </defs>
       <use xlink:href="#LiberationSans-30"/>
       <use xlink:href="#LiberationSans-2e" x="55.615234"/>
       <use xlink:href="#LiberationSans-38" x="83.398438"/>
      </g>
     </g>
    </g>
   </g>
   <g id="line2d_38">
    <path d="M 138.436364 566.410909 
L 141.495295 510.613214 
L 144.554226 516.282868 
L 147.613157 519.532548 
L 150.672088 516.421152 
L 153.731019 515.937157 
L 156.78995 518.149706 
L 159.848881 517.803995 
L 162.907812 519.117695 
L 165.966743 517.112574 
L 169.025674 513.378899 
L 172.084605 517.942279 
L 175.143536 519.878259 
L 178.202467 503.284149 
L 181.261398 492.91283 
L 184.320329 490.492855 
L 187.37926 493.051114 
L 190.438191 493.25854 
L 193.497122 488.487734 
L 196.556053 492.636261 
L 199.614984 491.045992 
L 202.673915 486.759181 
L 205.732846 487.243175 
L 208.791777 488.971729 
L 211.850708 491.529987 
L 217.96857 486.275186 
L 221.027501 491.94484 
L 224.086432 487.38146 
L 227.145363 490.216287 
L 230.204294 493.880819 
L 233.263225 486.620896 
L 236.322156 487.174033 
L 239.381087 486.690038 
L 242.440018 488.556876 
L 245.498949 489.524866 
L 248.55788 486.551754 
L 251.616811 484.270064 
L 254.675742 489.386581 
L 257.734673 485.791191 
L 260.793604 485.307196 
L 263.852535 484.684917 
L 266.911466 481.020384 
L 269.970397 479.91411 
L 273.029328 483.924353 
L 276.088259 476.802714 
L 279.14719 475.558156 
L 282.206122 479.430115 
L 285.265053 470.510781 
L 288.323984 469.81936 
L 291.382915 470.994776 
L 294.441846 468.574802 
L 297.500777 468.298233 
L 300.559708 463.112574 
L 303.618639 464.28799 
L 306.67757 460.001178 
L 309.736501 461.798873 
L 312.795432 468.229091 
L 315.854363 460.416031 
L 318.913294 455.50694 
L 321.972225 455.161229 
L 325.031156 458.134341 
L 328.090087 453.22525 
L 331.149018 453.847529 
L 334.207949 452.672113 
L 337.26688 453.501818 
L 340.325811 453.22525 
L 343.384742 451.704123 
L 346.443673 447.970448 
L 349.502604 446.449321 
L 352.561535 449.00758 
L 355.620466 448.108732 
L 358.679397 443.061357 
L 361.738328 446.933316 
L 364.797259 444.167631 
L 367.85619 444.651626 
L 370.915121 440.22653 
L 373.974052 441.955083 
L 377.032983 435.455723 
L 380.091914 439.25854 
L 383.150845 442.231652 
L 386.209776 436.769424 
L 389.268707 434.072881 
L 392.327638 438.774545 
L 395.386569 434.764302 
L 398.4455 437.806556 
L 401.504431 434.280307 
L 404.563362 439.396825 
L 407.622293 430.270064 
L 410.681224 433.243175 
L 413.740155 433.588886 
L 416.799086 438.083124 
L 419.858017 430.546633 
L 422.916948 429.025506 
L 425.975879 433.243175 
L 429.03481 427.573521 
L 432.093741 424.60041 
L 435.152672 429.716927 
L 438.211603 427.85009 
L 441.270534 429.440359 
L 444.329466 425.568399 
L 447.388397 423.424994 
L 450.447328 423.079283 
L 453.506259 420.935877 
L 456.56519 424.807836 
L 459.624121 421.281588 
L 462.683052 422.042151 
L 465.741983 421.558156 
L 468.800914 418.861613 
L 471.859845 421.973009 
L 474.918776 421.419872 
L 477.977707 413.191959 
L 481.036638 419.829603 
L 484.095569 413.88338 
L 487.1545 414.574802 
L 490.213431 413.53767 
L 493.272362 414.574802 
L 496.331293 416.718207 
L 499.390224 413.399385 
L 502.449155 408.075442 
L 505.508086 407.660589 
L 508.567017 405.724609 
L 511.625948 404.341767 
L 514.684879 410.771985 
L 517.74381 410.910269 
L 520.802741 408.974289 
L 523.861672 404.687478 
L 526.920603 406.692599 
L 529.979534 405.586325 
L 533.038465 407.107452 
L 536.097396 406.346889 
L 539.156327 400.262382 
L 542.215258 403.650346 
L 545.274189 402.613214 
L 548.33312 400.884661 
L 551.392051 400.193239 
L 554.450982 402.47493 
L 557.509913 394.592727 
L 560.568844 397.704123 
L 563.627775 399.363534 
L 566.686706 397.842407 
L 569.745637 395.629859 
L 572.804568 393.624738 
L 575.863499 393.348169 
L 578.92243 390.859052 
L 581.981361 395.215006 
L 585.040292 392.311037 
L 588.099223 389.199641 
L 591.158154 392.72589 
L 594.217085 388.715647 
L 597.276016 385.327682 
L 600.334947 391.204763 
L 603.393878 386.917951 
L 606.45281 385.604251 
L 612.570672 382.769424 
L 615.629603 384.428835 
L 618.688534 384.359693 
L 621.747465 382.00886 
L 624.806396 386.22653 
L 627.865327 383.322561 
L 630.924258 381.66315 
L 637.04212 376.754059 
L 640.101051 380.833444 
L 643.159982 378.551754 
L 649.277844 377.929475 
L 652.336775 378.136901 
L 655.395706 382.561997 
L 658.454637 374.887222 
L 661.513568 376.823201 
L 664.572499 377.791191 
L 667.63143 372.052394 
L 670.690361 372.467247 
L 673.749292 371.91411 
L 676.808223 372.052394 
L 679.867154 369.286709 
L 682.926085 372.812958 
L 685.985016 369.839846 
L 689.043947 368.249577 
L 692.102878 369.079283 
L 695.161809 365.345608 
L 698.22074 368.387862 
L 701.279671 369.079283 
L 704.338602 368.249577 
L 707.397533 367.558156 
L 710.456464 369.010141 
L 713.515395 370.254699 
L 716.574326 370.254699 
L 719.633257 364.930755 
L 722.692188 364.792471 
L 725.751119 365.622177 
L 728.81005 364.377618 
L 731.868981 363.478771 
L 734.927912 361.681076 
L 737.986843 360.229091 
L 741.045774 360.436517 
L 744.104705 361.473649 
L 747.163636 363.340487 
L 747.163636 363.340487 
" clip-path="url(#pb3024a5e26)" style="fill: none; stroke: #ff0000; stroke-width: 1.75; stroke-linecap: round"/>
   </g>
   <g id="line2d_39">
    <path d="M 138.436364 518.647762 
L 141.495295 517.347735 
L 144.554226 517.397734 
L 147.613157 517.297735 
L 150.672088 517.397734 
L 153.731019 517.297735 
L 156.78995 517.397734 
L 159.848881 517.247731 
L 162.907812 517.397734 
L 169.025674 517.347735 
L 172.084605 517.547738 
L 175.143536 517.447738 
L 178.202467 491.947186 
L 184.320329 492.497192 
L 187.37926 491.547171 
L 190.438191 491.797179 
L 193.497122 490.097145 
L 196.556053 491.247165 
L 199.614984 491.047166 
L 202.673915 489.897137 
L 205.732846 489.847138 
L 208.791777 489.997145 
L 211.850708 492.047186 
L 214.909639 489.197124 
L 217.96857 489.64713 
L 221.027501 488.947117 
L 224.086432 490.947166 
L 227.145363 490.497151 
L 230.204294 489.197124 
L 233.263225 488.497111 
L 236.322156 489.747138 
L 239.381087 490.597151 
L 242.440018 489.447131 
L 245.498949 488.59711 
L 248.55788 489.047125 
L 254.675742 488.347103 
L 257.734673 488.947117 
L 260.793604 487.297083 
L 263.852535 487.147084 
L 266.911466 481.296953 
L 269.970397 483.647 
L 273.029328 477.046864 
L 276.088259 485.747049 
L 279.14719 486.797069 
L 282.206122 479.196904 
L 285.265053 473.896796 
L 288.323984 471.946746 
L 291.382915 471.796747 
L 294.441846 474.146794 
L 297.500777 474.396801 
L 300.559708 468.846686 
L 303.618639 467.396651 
L 306.67757 467.49665 
L 309.736501 469.946706 
L 312.795432 469.046685 
L 315.854363 466.346631 
L 318.913294 464.39659 
L 321.972225 463.596569 
L 325.031156 466.296631 
L 328.090087 465.296602 
L 331.149018 461.896535 
L 334.207949 466.946645 
L 337.26688 463.346561 
L 340.325811 461.696527 
L 343.384742 462.996555 
L 346.443673 458.846466 
L 349.502604 462.646548 
L 352.561535 459.896486 
L 355.620466 462.096534 
L 358.679397 459.896486 
L 361.738328 453.746356 
L 364.797259 455.146383 
L 367.85619 461.246521 
L 370.915121 456.946425 
L 373.974052 454.496369 
L 377.032983 454.646377 
L 380.091914 455.546398 
L 383.150845 456.796417 
L 386.209776 455.44639 
L 389.268707 454.946384 
L 392.327638 455.646397 
L 395.386569 456.896425 
L 398.4455 457.446439 
L 401.504431 452.396329 
L 404.563362 452.996335 
L 407.622293 451.696307 
L 410.681224 451.246301 
L 413.740155 458.746466 
L 416.799086 452.546328 
L 419.858017 451.496308 
L 422.916948 450.146273 
L 425.975879 452.546328 
L 429.03481 449.34626 
L 432.093741 451.846315 
L 435.152672 449.846266 
L 438.211603 448.146232 
L 441.270534 452.496329 
L 444.329466 450.996294 
L 447.388397 451.046294 
L 450.447328 450.34628 
L 453.506259 448.046233 
L 456.56519 449.596267 
L 459.624121 449.496259 
L 462.683052 449.796266 
L 465.741983 449.24626 
L 468.800914 449.946274 
L 471.859845 447.546218 
L 474.918776 451.096293 
L 477.977707 446.446199 
L 481.036638 448.396239 
L 484.095569 447.646226 
L 487.1545 448.046233 
L 490.213431 447.546218 
L 493.272362 449.746266 
L 496.331293 448.29624 
L 499.390224 446.646198 
L 502.449155 446.346191 
L 505.508086 447.546218 
L 508.567017 446.446199 
L 511.625948 448.34624 
L 514.684879 445.796185 
L 517.74381 447.546218 
L 520.802741 449.996274 
L 523.861672 448.096232 
L 526.920603 445.246171 
L 529.979534 447.946225 
L 533.038465 450.34628 
L 536.097396 445.596177 
L 539.156327 446.196191 
L 542.215258 448.696246 
L 545.274189 445.846185 
L 548.33312 448.146232 
L 551.392051 446.796205 
L 554.450982 445.046163 
L 557.509913 449.34626 
L 560.568844 445.896184 
L 563.627775 446.646198 
L 566.686706 444.946164 
L 569.745637 443.946143 
L 572.804568 444.796165 
L 575.863499 448.596247 
L 578.92243 445.546178 
L 581.981361 445.246171 
L 585.040292 446.246191 
L 588.099223 448.396239 
L 591.158154 443.896144 
L 594.217085 447.396219 
L 597.276016 442.846115 
L 600.334947 443.546137 
L 603.393878 449.596267 
L 606.45281 443.946143 
L 609.511741 444.29615 
L 612.570672 444.846164 
L 615.629603 443.896144 
L 618.688534 444.996164 
L 621.747465 446.546198 
L 624.806396 445.146171 
L 627.865327 448.896245 
L 630.924258 442.796115 
L 633.983189 446.196191 
L 637.04212 442.29611 
L 640.101051 443.396129 
L 643.159982 444.896164 
L 649.277844 445.34617 
L 652.336775 444.24615 
L 655.395706 441.396089 
L 658.454637 443.546137 
L 661.513568 443.196122 
L 664.572499 442.996123 
L 667.63143 448.046233 
L 670.690361 441.996103 
L 673.749292 442.846115 
L 676.808223 441.946103 
L 679.867154 446.996204 
L 682.926085 447.096212 
L 685.985016 445.146171 
L 689.043947 444.046143 
L 692.102878 443.596137 
L 695.161809 445.846185 
L 698.22074 442.29611 
L 701.279671 443.34613 
L 704.338602 442.946123 
L 707.397533 448.496239 
L 710.456464 446.496198 
L 713.515395 443.746136 
L 716.574326 440.496068 
L 719.633257 443.24613 
L 722.692188 442.846115 
L 725.751119 442.996123 
L 728.81005 441.396089 
L 731.868981 448.496239 
L 734.927912 443.396129 
L 737.986843 443.496129 
L 741.045774 444.596157 
L 744.104705 445.896184 
L 747.163636 445.846185 
L 747.163636 445.846185 
" clip-path="url(#pb3024a5e26)" style="fill: none; stroke: #008000; stroke-width: 1.75; stroke-linecap: round"/>
   </g>
   <g id="patch_8">
    <path d="M 108 576.72 
L 108 349.92 
" style="fill: none"/>
   </g>
   <g id="patch_9">
    <path d="M 777.6 576.72 
L 777.6 349.92 
" style="fill: none"/>
   </g>
   <g id="patch_10">
    <path d="M 108 576.72 
L 777.6 576.72 
" style="fill: none"/>
   </g>
   <g id="patch_11">
    <path d="M 108 349.92 
L 777.6 349.92 
" style="fill: none"/>
   </g>
  </g>
  <g id="text_36">
   <!-- Plots of model performance: spectrogram, warohma18 - lr 5e-05, batch 32 -->
   <g style="fill: #262626" transform="translate(235.254375 21.65625)scale(0.12 -0.12)">
    <defs>
     <path id="LiberationSans-50" d="M 3931 3078 
Q 3931 2791 3836 2542 
Q 3741 2294 3552 2111 
Q 3363 1928 3078 1822 
Q 2794 1716 2416 1716 
L 1122 1716 
L 1122 0 
L 525 0 
L 525 4403 
L 2378 4403 
Q 2769 4403 3059 4308 
Q 3350 4213 3544 4039 
Q 3738 3866 3834 3620 
Q 3931 3375 3931 3078 
z
M 3331 3072 
Q 3331 3491 3075 3708 
Q 2819 3925 2306 3925 
L 1122 3925 
L 1122 2188 
L 2331 2188 
Q 2847 2188 3089 2416 
Q 3331 2644 3331 3072 
z
" transform="scale(0.015625)"/>
     <path id="LiberationSans-6c" d="M 431 0 
L 431 4638 
L 994 4638 
L 994 0 
L 431 0 
z
" transform="scale(0.015625)"/>
     <path id="LiberationSans-6f" d="M 3291 1694 
Q 3291 806 2900 371 
Q 2509 -63 1766 -63 
Q 1413 -63 1134 43 
Q 856 150 664 369 
Q 472 588 370 917 
Q 269 1247 269 1694 
Q 269 3444 1784 3444 
Q 2178 3444 2464 3334 
Q 2750 3225 2933 3006 
Q 3116 2788 3203 2459 
Q 3291 2131 3291 1694 
z
M 2700 1694 
Q 2700 2088 2639 2344 
Q 2578 2600 2461 2753 
Q 2344 2906 2175 2967 
Q 2006 3028 1794 3028 
Q 1578 3028 1404 2964 
Q 1231 2900 1109 2745 
Q 988 2591 923 2334 
Q 859 2078 859 1694 
Q 859 1300 928 1042 
Q 997 784 1117 631 
Q 1238 478 1402 415 
Q 1566 353 1759 353 
Q 1975 353 2150 414 
Q 2325 475 2447 628 
Q 2569 781 2634 1040 
Q 2700 1300 2700 1694 
z
" transform="scale(0.015625)"/>
     <path id="LiberationSans-74" d="M 1731 25 
Q 1603 -9 1470 -29 
Q 1338 -50 1163 -50 
Q 488 -50 488 716 
L 488 2972 
L 97 2972 
L 97 3381 
L 509 3381 
L 675 4138 
L 1050 4138 
L 1050 3381 
L 1675 3381 
L 1675 2972 
L 1050 2972 
L 1050 838 
Q 1050 594 1129 495 
Q 1209 397 1406 397 
Q 1488 397 1564 409 
Q 1641 422 1731 441 
L 1731 25 
z
" transform="scale(0.015625)"/>
     <path id="LiberationSans-73" d="M 2969 934 
Q 2969 697 2876 511 
Q 2784 325 2609 198 
Q 2434 72 2179 4 
Q 1925 -63 1597 -63 
Q 1303 -63 1067 -17 
Q 831 28 653 128 
Q 475 228 354 392 
Q 234 556 178 794 
L 675 891 
Q 747 619 972 492 
Q 1197 366 1597 366 
Q 1778 366 1929 391 
Q 2081 416 2190 477 
Q 2300 538 2361 639 
Q 2422 741 2422 891 
Q 2422 1044 2350 1142 
Q 2278 1241 2150 1306 
Q 2022 1372 1839 1420 
Q 1656 1469 1438 1528 
Q 1234 1581 1034 1647 
Q 834 1713 673 1820 
Q 513 1928 413 2087 
Q 313 2247 313 2488 
Q 313 2950 642 3192 
Q 972 3434 1603 3434 
Q 2163 3434 2492 3237 
Q 2822 3041 2909 2606 
L 2403 2544 
Q 2375 2675 2300 2764 
Q 2225 2853 2119 2908 
Q 2013 2963 1880 2986 
Q 1747 3009 1603 3009 
Q 1222 3009 1040 2893 
Q 859 2778 859 2544 
Q 859 2406 926 2317 
Q 994 2228 1114 2167 
Q 1234 2106 1403 2061 
Q 1572 2016 1775 1966 
Q 1909 1931 2050 1892 
Q 2191 1853 2323 1798 
Q 2456 1744 2573 1670 
Q 2691 1597 2778 1494 
Q 2866 1391 2917 1253 
Q 2969 1116 2969 934 
z
" transform="scale(0.015625)"/>
     <path id="LiberationSans-20" transform="scale(0.015625)"/>
     <path id="LiberationSans-66" d="M 1128 2972 
L 1128 0 
L 566 0 
L 566 2972 
L 91 2972 
L 91 3381 
L 566 3381 
L 566 3763 
Q 566 3947 600 4105 
Q 634 4263 726 4380 
Q 819 4497 978 4564 
Q 1138 4631 1391 4631 
Q 1491 4631 1598 4622 
Q 1706 4613 1788 4594 
L 1788 4166 
Q 1734 4175 1664 4183 
Q 1594 4191 1538 4191 
Q 1413 4191 1333 4156 
Q 1253 4122 1208 4058 
Q 1163 3994 1145 3900 
Q 1128 3806 1128 3684 
L 1128 3381 
L 1788 3381 
L 1788 2972 
L 1128 2972 
z
" transform="scale(0.015625)"/>
     <path id="LiberationSans-6d" d="M 2400 0 
L 2400 2144 
Q 2400 2391 2369 2556 
Q 2338 2722 2264 2823 
Q 2191 2925 2072 2967 
Q 1953 3009 1781 3009 
Q 1603 3009 1459 2939 
Q 1316 2869 1214 2736 
Q 1113 2603 1058 2408 
Q 1003 2213 1003 1959 
L 1003 0 
L 444 0 
L 444 2659 
Q 444 2766 442 2883 
Q 441 3000 437 3104 
Q 434 3209 431 3284 
Q 428 3359 425 3381 
L 956 3381 
Q 959 3366 962 3297 
Q 966 3228 970 3139 
Q 975 3050 978 2958 
Q 981 2866 981 2803 
L 991 2803 
Q 1066 2950 1153 3069 
Q 1241 3188 1358 3270 
Q 1475 3353 1626 3398 
Q 1778 3444 1978 3444 
Q 2363 3444 2586 3291 
Q 2809 3138 2897 2803 
L 2906 2803 
Q 2981 2950 3075 3069 
Q 3169 3188 3294 3270 
Q 3419 3353 3575 3398 
Q 3731 3444 3931 3444 
Q 4188 3444 4373 3375 
Q 4559 3306 4678 3162 
Q 4797 3019 4853 2792 
Q 4909 2566 4909 2253 
L 4909 0 
L 4353 0 
L 4353 2144 
Q 4353 2391 4322 2556 
Q 4291 2722 4217 2823 
Q 4144 2925 4025 2967 
Q 3906 3009 3734 3009 
Q 3556 3009 3412 2942 
Q 3269 2875 3167 2744 
Q 3066 2613 3011 2416 
Q 2956 2219 2956 1959 
L 2956 0 
L 2400 0 
z
" transform="scale(0.015625)"/>
     <path id="LiberationSans-64" d="M 2566 544 
Q 2409 219 2151 78 
Q 1894 -63 1513 -63 
Q 872 -63 570 368 
Q 269 800 269 1675 
Q 269 3444 1513 3444 
Q 1897 3444 2153 3303 
Q 2409 3163 2566 2856 
L 2572 2856 
Q 2572 2888 2570 2955 
Q 2569 3022 2567 3095 
Q 2566 3169 2566 3234 
Q 2566 3300 2566 3328 
L 2566 4638 
L 3128 4638 
L 3128 697 
Q 3128 575 3129 462 
Q 3131 350 3134 256 
Q 3138 163 3141 95 
Q 3144 28 3147 0 
L 2609 0 
Q 2603 31 2598 89 
Q 2594 147 2589 222 
Q 2584 297 2581 380 
Q 2578 463 2578 544 
L 2566 544 
z
M 859 1694 
Q 859 1344 903 1094 
Q 947 844 1044 683 
Q 1141 522 1291 447 
Q 1441 372 1656 372 
Q 1878 372 2048 444 
Q 2219 516 2333 677 
Q 2447 838 2506 1097 
Q 2566 1356 2566 1731 
Q 2566 2091 2506 2339 
Q 2447 2588 2331 2741 
Q 2216 2894 2048 2961 
Q 1881 3028 1663 3028 
Q 1456 3028 1306 2956 
Q 1156 2884 1056 2725 
Q 956 2566 907 2311 
Q 859 2056 859 1694 
z
" transform="scale(0.015625)"/>
     <path id="LiberationSans-65" d="M 863 1572 
Q 863 1306 917 1082 
Q 972 859 1086 698 
Q 1200 538 1378 448 
Q 1556 359 1806 359 
Q 2172 359 2392 506 
Q 2613 653 2691 878 
L 3184 738 
Q 3131 597 3036 455 
Q 2941 313 2781 198 
Q 2622 84 2383 10 
Q 2144 -63 1806 -63 
Q 1056 -63 664 384 
Q 272 831 272 1713 
Q 272 2188 390 2517 
Q 509 2847 715 3053 
Q 922 3259 1197 3351 
Q 1472 3444 1784 3444 
Q 2209 3444 2495 3306 
Q 2781 3169 2954 2926 
Q 3128 2684 3201 2356 
Q 3275 2028 3275 1647 
L 3275 1572 
L 863 1572 
z
M 2694 2003 
Q 2647 2538 2422 2783 
Q 2197 3028 1775 3028 
Q 1634 3028 1479 2983 
Q 1325 2938 1194 2822 
Q 1063 2706 972 2507 
Q 881 2309 869 2003 
L 2694 2003 
z
" transform="scale(0.015625)"/>
     <path id="LiberationSans-70" d="M 3291 1706 
Q 3291 1322 3228 997 
Q 3166 672 3020 437 
Q 2875 203 2636 70 
Q 2397 -63 2047 -63 
Q 1684 -63 1412 75 
Q 1141 213 997 525 
L 981 525 
Q 984 519 986 469 
Q 988 419 989 344 
Q 991 269 992 176 
Q 994 84 994 -6 
L 994 -1328 
L 431 -1328 
L 431 2691 
Q 431 2813 429 2925 
Q 428 3038 425 3130 
Q 422 3222 419 3287 
Q 416 3353 413 3381 
L 956 3381 
Q 959 3372 964 3315 
Q 969 3259 973 3179 
Q 978 3100 983 3009 
Q 988 2919 988 2838 
L 1000 2838 
Q 1078 3000 1178 3114 
Q 1278 3228 1406 3301 
Q 1534 3375 1692 3408 
Q 1850 3441 2047 3441 
Q 2397 3441 2636 3316 
Q 2875 3191 3020 2964 
Q 3166 2738 3228 2417 
Q 3291 2097 3291 1706 
z
M 2700 1694 
Q 2700 2006 2662 2250 
Q 2625 2494 2533 2662 
Q 2441 2831 2287 2918 
Q 2134 3006 1903 3006 
Q 1716 3006 1550 2953 
Q 1384 2900 1261 2750 
Q 1138 2600 1066 2336 
Q 994 2072 994 1650 
Q 994 1291 1053 1042 
Q 1113 794 1227 641 
Q 1341 488 1509 420 
Q 1678 353 1897 353 
Q 2131 353 2286 443 
Q 2441 534 2533 706 
Q 2625 878 2662 1126 
Q 2700 1375 2700 1694 
z
" transform="scale(0.015625)"/>
     <path id="LiberationSans-72" d="M 444 0 
L 444 2594 
Q 444 2700 442 2811 
Q 441 2922 437 3025 
Q 434 3128 431 3218 
Q 428 3309 425 3381 
L 956 3381 
Q 959 3309 964 3217 
Q 969 3125 973 3028 
Q 978 2931 979 2842 
Q 981 2753 981 2691 
L 994 2691 
Q 1053 2884 1120 3026 
Q 1188 3169 1278 3261 
Q 1369 3353 1494 3398 
Q 1619 3444 1797 3444 
Q 1866 3444 1928 3433 
Q 1991 3422 2025 3413 
L 2025 2897 
Q 1969 2913 1894 2920 
Q 1819 2928 1725 2928 
Q 1531 2928 1395 2840 
Q 1259 2753 1173 2598 
Q 1088 2444 1047 2230 
Q 1006 2016 1006 1763 
L 1006 0 
L 444 0 
z
" transform="scale(0.015625)"/>
     <path id="LiberationSans-61" d="M 1294 -63 
Q 784 -63 528 206 
Q 272 475 272 944 
Q 272 1278 398 1492 
Q 525 1706 729 1828 
Q 934 1950 1196 1997 
Q 1459 2044 1731 2050 
L 2491 2063 
L 2491 2247 
Q 2491 2456 2447 2603 
Q 2403 2750 2312 2840 
Q 2222 2931 2086 2973 
Q 1950 3016 1766 3016 
Q 1603 3016 1472 2992 
Q 1341 2969 1244 2908 
Q 1147 2847 1087 2742 
Q 1028 2638 1009 2478 
L 422 2531 
Q 453 2731 540 2898 
Q 628 3066 789 3187 
Q 950 3309 1192 3376 
Q 1434 3444 1778 3444 
Q 2416 3444 2737 3151 
Q 3059 2859 3059 2306 
L 3059 850 
Q 3059 600 3125 473 
Q 3191 347 3375 347 
Q 3422 347 3469 353 
Q 3516 359 3559 369 
L 3559 19 
Q 3453 -6 3348 -18 
Q 3244 -31 3125 -31 
Q 2966 -31 2852 11 
Q 2738 53 2666 139 
Q 2594 225 2556 351 
Q 2519 478 2509 647 
L 2491 647 
Q 2400 484 2292 353 
Q 2184 222 2040 130 
Q 1897 38 1714 -12 
Q 1531 -63 1294 -63 
z
M 1422 359 
Q 1691 359 1892 457 
Q 2094 556 2226 709 
Q 2359 863 2425 1044 
Q 2491 1225 2491 1391 
L 2491 1669 
L 1875 1656 
Q 1669 1653 1483 1626 
Q 1297 1600 1156 1522 
Q 1016 1444 933 1303 
Q 850 1163 850 934 
Q 850 659 998 509 
Q 1147 359 1422 359 
z
" transform="scale(0.015625)"/>
     <path id="LiberationSans-6e" d="M 2578 0 
L 2578 2144 
Q 2578 2391 2542 2556 
Q 2506 2722 2425 2823 
Q 2344 2925 2211 2967 
Q 2078 3009 1881 3009 
Q 1681 3009 1520 2939 
Q 1359 2869 1245 2736 
Q 1131 2603 1068 2408 
Q 1006 2213 1006 1959 
L 1006 0 
L 444 0 
L 444 2659 
Q 444 2766 442 2883 
Q 441 3000 437 3104 
Q 434 3209 431 3284 
Q 428 3359 425 3381 
L 956 3381 
Q 959 3366 962 3297 
Q 966 3228 970 3139 
Q 975 3050 978 2958 
Q 981 2866 981 2803 
L 991 2803 
Q 1072 2950 1169 3069 
Q 1266 3188 1394 3270 
Q 1522 3353 1687 3398 
Q 1853 3444 2072 3444 
Q 2353 3444 2556 3375 
Q 2759 3306 2890 3162 
Q 3022 3019 3083 2792 
Q 3144 2566 3144 2253 
L 3144 0 
L 2578 0 
z
" transform="scale(0.015625)"/>
     <path id="LiberationSans-63" d="M 859 1706 
Q 859 1416 901 1172 
Q 944 928 1044 751 
Q 1144 575 1308 478 
Q 1472 381 1713 381 
Q 2013 381 2214 543 
Q 2416 706 2463 1044 
L 3031 1006 
Q 3003 797 2909 603 
Q 2816 409 2655 262 
Q 2494 116 2262 26 
Q 2031 -63 1728 -63 
Q 1331 -63 1053 71 
Q 775 206 601 442 
Q 428 678 350 998 
Q 272 1319 272 1694 
Q 272 2034 328 2295 
Q 384 2556 486 2751 
Q 588 2947 725 3080 
Q 863 3213 1023 3292 
Q 1184 3372 1362 3408 
Q 1541 3444 1722 3444 
Q 2006 3444 2228 3366 
Q 2450 3288 2611 3152 
Q 2772 3016 2872 2831 
Q 2972 2647 3013 2434 
L 2434 2391 
Q 2391 2672 2212 2837 
Q 2034 3003 1706 3003 
Q 1466 3003 1305 2923 
Q 1144 2844 1044 2683 
Q 944 2522 901 2278 
Q 859 2034 859 1706 
z
" transform="scale(0.015625)"/>
     <path id="LiberationSans-3a" d="M 584 2734 
L 584 3381 
L 1194 3381 
L 1194 2734 
L 584 2734 
z
M 584 0 
L 584 647 
L 1194 647 
L 1194 0 
L 584 0 
z
" transform="scale(0.015625)"/>
     <path id="LiberationSans-67" d="M 1713 -1328 
Q 1422 -1328 1197 -1268 
Q 972 -1209 812 -1098 
Q 653 -988 553 -834 
Q 453 -681 409 -494 
L 975 -413 
Q 1031 -647 1223 -773 
Q 1416 -900 1728 -900 
Q 1919 -900 2075 -847 
Q 2231 -794 2340 -676 
Q 2450 -559 2509 -371 
Q 2569 -184 2569 84 
L 2569 628 
L 2563 628 
Q 2500 500 2408 383 
Q 2316 266 2183 175 
Q 2050 84 1875 29 
Q 1700 -25 1475 -25 
Q 1153 -25 923 83 
Q 694 191 548 406 
Q 403 622 336 942 
Q 269 1263 269 1684 
Q 269 2091 336 2416 
Q 403 2741 554 2967 
Q 706 3194 948 3314 
Q 1191 3434 1538 3434 
Q 1897 3434 2161 3270 
Q 2425 3106 2569 2803 
L 2575 2803 
Q 2575 2881 2579 2978 
Q 2584 3075 2589 3161 
Q 2594 3247 2600 3309 
Q 2606 3372 2613 3381 
L 3147 3381 
Q 3144 3353 3141 3286 
Q 3138 3219 3134 3125 
Q 3131 3031 3129 2917 
Q 3128 2803 3128 2681 
L 3128 97 
Q 3128 -613 2779 -970 
Q 2431 -1328 1713 -1328 
z
M 2569 1691 
Q 2569 2044 2492 2295 
Q 2416 2547 2291 2706 
Q 2166 2866 2005 2941 
Q 1844 3016 1675 3016 
Q 1459 3016 1304 2941 
Q 1150 2866 1048 2705 
Q 947 2544 898 2292 
Q 850 2041 850 1691 
Q 850 1325 898 1076 
Q 947 828 1047 675 
Q 1147 522 1300 456 
Q 1453 391 1666 391 
Q 1834 391 1995 462 
Q 2156 534 2284 690 
Q 2413 847 2491 1094 
Q 2569 1341 2569 1691 
z
" transform="scale(0.015625)"/>
     <path id="LiberationSans-2c" d="M 1203 684 
L 1203 159 
Q 1203 -6 1189 -142 
Q 1175 -278 1144 -395 
Q 1113 -513 1067 -616 
Q 1022 -719 959 -819 
L 575 -819 
Q 716 -616 792 -409 
Q 869 -203 869 0 
L 594 0 
L 594 684 
L 1203 684 
z
" transform="scale(0.015625)"/>
     <path id="LiberationSans-77" d="M 3669 0 
L 3016 0 
L 2475 2181 
Q 2450 2266 2423 2391 
Q 2397 2516 2372 2634 
Q 2341 2772 2313 2919 
Q 2284 2778 2253 2641 
Q 2228 2522 2198 2394 
Q 2169 2266 2144 2169 
L 1588 0 
L 938 0 
L -9 3381 
L 547 3381 
L 1119 1084 
Q 1141 1013 1162 908 
Q 1184 803 1206 703 
Q 1228 588 1253 466 
Q 1278 584 1306 697 
Q 1331 794 1356 894 
Q 1381 994 1400 1059 
L 2013 3381 
L 2616 3381 
L 3206 1059 
Q 3228 978 3253 875 
Q 3278 772 3300 681 
Q 3325 575 3350 466 
Q 3375 584 3400 697 
Q 3422 794 3445 898 
Q 3469 1003 3491 1084 
L 4088 3381 
L 4638 3381 
L 3669 0 
z
" transform="scale(0.015625)"/>
     <path id="LiberationSans-68" d="M 991 2803 
Q 1084 2975 1193 3095 
Q 1303 3216 1434 3294 
Q 1566 3372 1722 3408 
Q 1878 3444 2072 3444 
Q 2397 3444 2605 3356 
Q 2813 3269 2933 3111 
Q 3053 2953 3098 2734 
Q 3144 2516 3144 2253 
L 3144 0 
L 2578 0 
L 2578 2144 
Q 2578 2359 2551 2521 
Q 2525 2684 2450 2792 
Q 2375 2900 2237 2954 
Q 2100 3009 1881 3009 
Q 1681 3009 1520 2937 
Q 1359 2866 1245 2734 
Q 1131 2603 1068 2415 
Q 1006 2228 1006 1994 
L 1006 0 
L 444 0 
L 444 4638 
L 1006 4638 
L 1006 3431 
Q 1006 3328 1003 3225 
Q 1000 3122 995 3034 
Q 991 2947 987 2886 
Q 984 2825 981 2803 
L 991 2803 
z
" transform="scale(0.015625)"/>
     <path id="LiberationSans-2d" d="M 284 1450 
L 284 1950 
L 1847 1950 
L 1847 1450 
L 284 1450 
z
" transform="scale(0.015625)"/>
     <path id="LiberationSans-62" d="M 3291 1706 
Q 3291 -63 2047 -63 
Q 1663 -63 1408 76 
Q 1153 216 994 525 
L 988 525 
Q 988 444 983 356 
Q 978 269 973 194 
Q 969 119 964 66 
Q 959 13 956 0 
L 413 0 
Q 416 28 419 95 
Q 422 163 425 256 
Q 428 350 429 462 
Q 431 575 431 697 
L 431 4638 
L 994 4638 
L 994 3316 
Q 994 3222 992 3136 
Q 991 3050 988 2984 
Q 984 2906 981 2838 
L 994 2838 
Q 1150 3163 1408 3303 
Q 1666 3444 2047 3444 
Q 2688 3444 2989 3012 
Q 3291 2581 3291 1706 
z
M 2700 1688 
Q 2700 2038 2656 2288 
Q 2613 2538 2516 2698 
Q 2419 2859 2269 2934 
Q 2119 3009 1903 3009 
Q 1681 3009 1511 2937 
Q 1341 2866 1227 2706 
Q 1113 2547 1053 2287 
Q 994 2028 994 1653 
Q 994 1291 1053 1044 
Q 1113 797 1227 642 
Q 1341 488 1509 420 
Q 1678 353 1897 353 
Q 2103 353 2253 425 
Q 2403 497 2503 656 
Q 2603 816 2651 1070 
Q 2700 1325 2700 1688 
z
" transform="scale(0.015625)"/>
    </defs>
    <use xlink:href="#LiberationSans-50"/>
    <use xlink:href="#LiberationSans-6c" x="66.699219"/>
    <use xlink:href="#LiberationSans-6f" x="88.916016"/>
    <use xlink:href="#LiberationSans-74" x="144.53125"/>
    <use xlink:href="#LiberationSans-73" x="172.314453"/>
    <use xlink:href="#LiberationSans-20" x="222.314453"/>
    <use xlink:href="#LiberationSans-6f" x="250.097656"/>
    <use xlink:href="#LiberationSans-66" x="305.712891"/>
    <use xlink:href="#LiberationSans-20" x="333.496094"/>
    <use xlink:href="#LiberationSans-6d" x="361.279297"/>
    <use xlink:href="#LiberationSans-6f" x="444.580078"/>
    <use xlink:href="#LiberationSans-64" x="500.195312"/>
    <use xlink:href="#LiberationSans-65" x="555.810547"/>
    <use xlink:href="#LiberationSans-6c" x="611.425781"/>
    <use xlink:href="#LiberationSans-20" x="633.642578"/>
    <use xlink:href="#LiberationSans-70" x="661.425781"/>
    <use xlink:href="#LiberationSans-65" x="717.041016"/>
    <use xlink:href="#LiberationSans-72" x="772.65625"/>
    <use xlink:href="#LiberationSans-66" x="805.957031"/>
    <use xlink:href="#LiberationSans-6f" x="833.740234"/>
    <use xlink:href="#LiberationSans-72" x="889.355469"/>
    <use xlink:href="#LiberationSans-6d" x="922.65625"/>
    <use xlink:href="#LiberationSans-61" x="1005.957031"/>
    <use xlink:href="#LiberationSans-6e" x="1061.572266"/>
    <use xlink:href="#LiberationSans-63" x="1117.1875"/>
    <use xlink:href="#LiberationSans-65" x="1167.1875"/>
    <use xlink:href="#LiberationSans-3a" x="1222.802734"/>
    <use xlink:href="#LiberationSans-20" x="1250.585938"/>
    <use xlink:href="#LiberationSans-73" x="1278.369141"/>
    <use xlink:href="#LiberationSans-70" x="1328.369141"/>
    <use xlink:href="#LiberationSans-65" x="1383.984375"/>
    <use xlink:href="#LiberationSans-63" x="1439.599609"/>
    <use xlink:href="#LiberationSans-74" x="1489.599609"/>
    <use xlink:href="#LiberationSans-72" x="1517.382812"/>
    <use xlink:href="#LiberationSans-6f" x="1550.683594"/>
    <use xlink:href="#LiberationSans-67" x="1606.298828"/>
    <use xlink:href="#LiberationSans-72" x="1661.914062"/>
    <use xlink:href="#LiberationSans-61" x="1695.214844"/>
    <use xlink:href="#LiberationSans-6d" x="1750.830078"/>
    <use xlink:href="#LiberationSans-2c" x="1834.130859"/>
    <use xlink:href="#LiberationSans-20" x="1861.914062"/>
    <use xlink:href="#LiberationSans-77" x="1889.697266"/>
    <use xlink:href="#LiberationSans-61" x="1961.914062"/>
    <use xlink:href="#LiberationSans-72" x="2017.529297"/>
    <use xlink:href="#LiberationSans-6f" x="2050.830078"/>
    <use xlink:href="#LiberationSans-68" x="2106.445312"/>
    <use xlink:href="#LiberationSans-6d" x="2162.060547"/>
    <use xlink:href="#LiberationSans-61" x="2245.361328"/>
    <use xlink:href="#LiberationSans-31" x="2300.976562"/>
    <use xlink:href="#LiberationSans-38" x="2356.591797"/>
    <use xlink:href="#LiberationSans-20" x="2412.207031"/>
    <use xlink:href="#LiberationSans-2d" x="2439.990234"/>
    <use xlink:href="#LiberationSans-20" x="2473.291016"/>
    <use xlink:href="#LiberationSans-6c" x="2501.074219"/>
    <use xlink:href="#LiberationSans-72" x="2523.291016"/>
    <use xlink:href="#LiberationSans-20" x="2556.591797"/>
    <use xlink:href="#LiberationSans-35" x="2584.375"/>
    <use xlink:href="#LiberationSans-65" x="2639.990234"/>
    <use xlink:href="#LiberationSans-2d" x="2695.605469"/>
    <use xlink:href="#LiberationSans-30" x="2728.90625"/>
    <use xlink:href="#LiberationSans-35" x="2784.521484"/>
    <use xlink:href="#LiberationSans-2c" x="2840.136719"/>
    <use xlink:href="#LiberationSans-20" x="2867.919922"/>
    <use xlink:href="#LiberationSans-62" x="2895.703125"/>
    <use xlink:href="#LiberationSans-61" x="2951.318359"/>
    <use xlink:href="#LiberationSans-74" x="3006.933594"/>
    <use xlink:href="#LiberationSans-63" x="3034.716797"/>
    <use xlink:href="#LiberationSans-68" x="3084.716797"/>
    <use xlink:href="#LiberationSans-20" x="3140.332031"/>
    <use xlink:href="#LiberationSans-33" x="3168.115234"/>
    <use xlink:href="#LiberationSans-32" x="3223.730469"/>
   </g>
  </g>
 </g>
 <defs>
  <clipPath id="p24f66cebe8">
   <rect x="108" y="77.76" width="669.6" height="226.8"/>
  </clipPath>
  <clipPath id="pb3024a5e26">
   <rect x="108" y="349.92" width="669.6" height="226.8"/>
  </clipPath>
 </defs>
</svg>
