<?xml version="1.0" encoding="utf-8" standalone="no"?>
<!DOCTYPE svg PUBLIC "-//W3C//DTD SVG 1.1//EN"
  "http://www.w3.org/Graphics/SVG/1.1/DTD/svg11.dtd">
<svg xmlns:xlink="http://www.w3.org/1999/xlink" width="864pt" height="648pt" viewBox="0 0 864 648" xmlns="http://www.w3.org/2000/svg" version="1.1">
 <metadata>
  <rdf:RDF xmlns:dc="http://purl.org/dc/elements/1.1/" xmlns:cc="http://creativecommons.org/ns#" xmlns:rdf="http://www.w3.org/1999/02/22-rdf-syntax-ns#">
   <cc:Work>
    <dc:type rdf:resource="http://purl.org/dc/dcmitype/StillImage"/>
    <dc:date>2022-03-13T00:27:57.446887</dc:date>
    <dc:format>image/svg+xml</dc:format>
    <dc:creator>
     <cc:Agent>
      <dc:title>Matplotlib v3.5.0, https://matplotlib.org/</dc:title>
     </cc:Agent>
    </dc:creator>
   </cc:Work>
  </rdf:RDF>
 </metadata>
 <defs>
  <style type="text/css">*{stroke-linejoin: round; stroke-linecap: butt}</style>
 </defs>
 <g id="figure_1">
  <g id="patch_1">
   <path d="M 0 648 
L 864 648 
L 864 0 
L 0 0 
z
" style="fill: #ffffff"/>
  </g>
  <g id="axes_1">
   <g id="patch_2">
    <path d="M 108 304.56 
L 777.6 304.56 
L 777.6 77.76 
L 108 77.76 
z
" style="fill: #eaeaf2"/>
   </g>
   <g id="matplotlib.axis_1">
    <g id="xtick_1">
     <g id="line2d_1"/>
     <g id="text_1">
      <!-- 0 -->
      <g style="fill: #262626" transform="translate(135.655895 318.806875)scale(0.1 -0.1)">
       <defs>
        <path id="LiberationSans-30" d="M 3309 2203 
Q 3309 1569 3189 1136 
Q 3069 703 2861 436 
Q 2653 169 2372 53 
Q 2091 -63 1772 -63 
Q 1450 -63 1172 53 
Q 894 169 689 434 
Q 484 700 367 1133 
Q 250 1566 250 2203 
Q 250 2869 367 3305 
Q 484 3741 690 4000 
Q 897 4259 1178 4364 
Q 1459 4469 1791 4469 
Q 2106 4469 2382 4364 
Q 2659 4259 2865 4000 
Q 3072 3741 3190 3305 
Q 3309 2869 3309 2203 
z
M 2738 2203 
Q 2738 2728 2675 3076 
Q 2613 3425 2491 3633 
Q 2369 3841 2192 3927 
Q 2016 4013 1791 4013 
Q 1553 4013 1372 3925 
Q 1191 3838 1067 3630 
Q 944 3422 881 3073 
Q 819 2725 819 2203 
Q 819 1697 883 1350 
Q 947 1003 1070 792 
Q 1194 581 1372 489 
Q 1550 397 1778 397 
Q 2000 397 2178 489 
Q 2356 581 2479 792 
Q 2603 1003 2670 1350 
Q 2738 1697 2738 2203 
z
" transform="scale(0.015625)"/>
       </defs>
       <use xlink:href="#LiberationSans-30"/>
      </g>
     </g>
    </g>
    <g id="xtick_2">
     <g id="line2d_2"/>
     <g id="text_2">
      <!-- 25 -->
      <g style="fill: #262626" transform="translate(209.348702 318.806875)scale(0.1 -0.1)">
       <defs>
        <path id="LiberationSans-32" d="M 322 0 
L 322 397 
Q 481 763 711 1042 
Q 941 1322 1194 1548 
Q 1447 1775 1695 1969 
Q 1944 2163 2144 2356 
Q 2344 2550 2467 2762 
Q 2591 2975 2591 3244 
Q 2591 3431 2534 3573 
Q 2478 3716 2372 3812 
Q 2266 3909 2117 3957 
Q 1969 4006 1788 4006 
Q 1619 4006 1470 3959 
Q 1322 3913 1206 3819 
Q 1091 3725 1017 3586 
Q 944 3447 922 3263 
L 347 3316 
Q 375 3553 478 3762 
Q 581 3972 762 4130 
Q 944 4288 1198 4378 
Q 1453 4469 1788 4469 
Q 2116 4469 2372 4391 
Q 2628 4313 2804 4159 
Q 2981 4006 3075 3781 
Q 3169 3556 3169 3263 
Q 3169 3041 3089 2841 
Q 3009 2641 2876 2459 
Q 2744 2278 2569 2109 
Q 2394 1941 2203 1780 
Q 2013 1619 1819 1461 
Q 1625 1303 1454 1143 
Q 1284 984 1150 820 
Q 1016 656 941 478 
L 3238 478 
L 3238 0 
L 322 0 
z
" transform="scale(0.015625)"/>
        <path id="LiberationSans-35" d="M 3291 1434 
Q 3291 1103 3191 828 
Q 3091 553 2894 354 
Q 2697 156 2405 46 
Q 2113 -63 1728 -63 
Q 1381 -63 1123 18 
Q 866 100 687 242 
Q 509 384 404 575 
Q 300 766 256 984 
L 825 1050 
Q 859 925 921 808 
Q 984 691 1092 598 
Q 1200 506 1358 451 
Q 1516 397 1741 397 
Q 1959 397 2137 464 
Q 2316 531 2442 662 
Q 2569 794 2637 984 
Q 2706 1175 2706 1422 
Q 2706 1625 2640 1795 
Q 2575 1966 2453 2089 
Q 2331 2213 2154 2281 
Q 1978 2350 1753 2350 
Q 1613 2350 1494 2325 
Q 1375 2300 1273 2256 
Q 1172 2213 1089 2155 
Q 1006 2097 934 2034 
L 384 2034 
L 531 4403 
L 3034 4403 
L 3034 3925 
L 1044 3925 
L 959 2528 
Q 1109 2644 1334 2726 
Q 1559 2809 1869 2809 
Q 2197 2809 2459 2709 
Q 2722 2609 2906 2426 
Q 3091 2244 3191 1991 
Q 3291 1738 3291 1434 
z
" transform="scale(0.015625)"/>
       </defs>
       <use xlink:href="#LiberationSans-32"/>
       <use xlink:href="#LiberationSans-35" x="55.615234"/>
      </g>
     </g>
    </g>
    <g id="xtick_3">
     <g id="line2d_3"/>
     <g id="text_3">
      <!-- 50 -->
      <g style="fill: #262626" transform="translate(285.821977 318.806875)scale(0.1 -0.1)">
       <use xlink:href="#LiberationSans-35"/>
       <use xlink:href="#LiberationSans-30" x="55.615234"/>
      </g>
     </g>
    </g>
    <g id="xtick_4">
     <g id="line2d_4"/>
     <g id="text_4">
      <!-- 75 -->
      <g style="fill: #262626" transform="translate(362.295253 318.806875)scale(0.1 -0.1)">
       <defs>
        <path id="LiberationSans-37" d="M 3238 3947 
Q 2906 3441 2628 2973 
Q 2350 2506 2150 2032 
Q 1950 1559 1839 1061 
Q 1728 563 1728 0 
L 1141 0 
Q 1141 528 1266 1036 
Q 1391 1544 1603 2033 
Q 1816 2522 2097 2994 
Q 2378 3466 2694 3925 
L 328 3925 
L 328 4403 
L 3238 4403 
L 3238 3947 
z
" transform="scale(0.015625)"/>
       </defs>
       <use xlink:href="#LiberationSans-37"/>
       <use xlink:href="#LiberationSans-35" x="55.615234"/>
      </g>
     </g>
    </g>
    <g id="xtick_5">
     <g id="line2d_5"/>
     <g id="text_5">
      <!-- 100 -->
      <g style="fill: #262626" transform="translate(435.988059 318.806875)scale(0.1 -0.1)">
       <defs>
        <path id="LiberationSans-31" d="M 488 0 
L 488 478 
L 1609 478 
L 1609 3866 
L 616 3156 
L 616 3688 
L 1656 4403 
L 2175 4403 
L 2175 478 
L 3247 478 
L 3247 0 
L 488 0 
z
" transform="scale(0.015625)"/>
       </defs>
       <use xlink:href="#LiberationSans-31"/>
       <use xlink:href="#LiberationSans-30" x="55.615234"/>
       <use xlink:href="#LiberationSans-30" x="111.230469"/>
      </g>
     </g>
    </g>
    <g id="xtick_6">
     <g id="line2d_6"/>
     <g id="text_6">
      <!-- 125 -->
      <g style="fill: #262626" transform="translate(512.461335 318.806875)scale(0.1 -0.1)">
       <use xlink:href="#LiberationSans-31"/>
       <use xlink:href="#LiberationSans-32" x="55.615234"/>
       <use xlink:href="#LiberationSans-35" x="111.230469"/>
      </g>
     </g>
    </g>
    <g id="xtick_7">
     <g id="line2d_7"/>
     <g id="text_7">
      <!-- 150 -->
      <g style="fill: #262626" transform="translate(588.93461 318.806875)scale(0.1 -0.1)">
       <use xlink:href="#LiberationSans-31"/>
       <use xlink:href="#LiberationSans-35" x="55.615234"/>
       <use xlink:href="#LiberationSans-30" x="111.230469"/>
      </g>
     </g>
    </g>
    <g id="xtick_8">
     <g id="line2d_8"/>
     <g id="text_8">
      <!-- 175 -->
      <g style="fill: #262626" transform="translate(665.407886 318.806875)scale(0.1 -0.1)">
       <use xlink:href="#LiberationSans-31"/>
       <use xlink:href="#LiberationSans-37" x="55.615234"/>
       <use xlink:href="#LiberationSans-35" x="111.230469"/>
      </g>
     </g>
    </g>
    <g id="xtick_9">
     <g id="line2d_9"/>
     <g id="text_9">
      <!-- 200 -->
      <g style="fill: #262626" transform="translate(741.881161 318.806875)scale(0.1 -0.1)">
       <use xlink:href="#LiberationSans-32"/>
       <use xlink:href="#LiberationSans-30" x="55.615234"/>
       <use xlink:href="#LiberationSans-30" x="111.230469"/>
      </g>
     </g>
    </g>
   </g>
   <g id="matplotlib.axis_2">
    <g id="ytick_1">
     <g id="line2d_10"/>
     <g id="text_10">
      <!-- 1.0 -->
      <g style="fill: #262626" transform="translate(87.1 287.46752)scale(0.1 -0.1)">
       <defs>
        <path id="LiberationSans-2e" d="M 584 0 
L 584 684 
L 1194 684 
L 1194 0 
L 584 0 
z
" transform="scale(0.015625)"/>
       </defs>
       <use xlink:href="#LiberationSans-31"/>
       <use xlink:href="#LiberationSans-2e" x="55.615234"/>
       <use xlink:href="#LiberationSans-30" x="83.398438"/>
      </g>
     </g>
    </g>
    <g id="ytick_2">
     <g id="line2d_11"/>
     <g id="text_11">
      <!-- 1.2 -->
      <g style="fill: #262626" transform="translate(87.1 261.388272)scale(0.1 -0.1)">
       <use xlink:href="#LiberationSans-31"/>
       <use xlink:href="#LiberationSans-2e" x="55.615234"/>
       <use xlink:href="#LiberationSans-32" x="83.398438"/>
      </g>
     </g>
    </g>
    <g id="ytick_3">
     <g id="line2d_12"/>
     <g id="text_12">
      <!-- 1.4 -->
      <g style="fill: #262626" transform="translate(87.1 235.309023)scale(0.1 -0.1)">
       <defs>
        <path id="LiberationSans-34" d="M 2753 997 
L 2753 0 
L 2222 0 
L 2222 997 
L 147 997 
L 147 1434 
L 2163 4403 
L 2753 4403 
L 2753 1441 
L 3372 1441 
L 3372 997 
L 2753 997 
z
M 2222 3769 
Q 2216 3753 2191 3708 
Q 2166 3663 2134 3606 
Q 2103 3550 2070 3492 
Q 2038 3434 2013 3397 
L 884 1734 
Q 869 1709 839 1668 
Q 809 1628 778 1586 
Q 747 1544 715 1503 
Q 684 1463 666 1441 
L 2222 1441 
L 2222 3769 
z
" transform="scale(0.015625)"/>
       </defs>
       <use xlink:href="#LiberationSans-31"/>
       <use xlink:href="#LiberationSans-2e" x="55.615234"/>
       <use xlink:href="#LiberationSans-34" x="83.398438"/>
      </g>
     </g>
    </g>
    <g id="ytick_4">
     <g id="line2d_13"/>
     <g id="text_13">
      <!-- 1.6 -->
      <g style="fill: #262626" transform="translate(87.1 209.229774)scale(0.1 -0.1)">
       <defs>
        <path id="LiberationSans-36" d="M 3278 1441 
Q 3278 1109 3186 832 
Q 3094 556 2914 357 
Q 2734 159 2468 48 
Q 2203 -63 1856 -63 
Q 1472 -63 1184 84 
Q 897 231 706 507 
Q 516 784 420 1186 
Q 325 1588 325 2100 
Q 325 2688 433 3131 
Q 541 3575 744 3872 
Q 947 4169 1239 4319 
Q 1531 4469 1900 4469 
Q 2125 4469 2322 4422 
Q 2519 4375 2680 4270 
Q 2841 4166 2962 3994 
Q 3084 3822 3156 3572 
L 2619 3475 
Q 2531 3759 2339 3886 
Q 2147 4013 1894 4013 
Q 1663 4013 1475 3903 
Q 1288 3794 1156 3576 
Q 1025 3359 954 3031 
Q 884 2703 884 2266 
Q 1038 2550 1316 2698 
Q 1594 2847 1953 2847 
Q 2253 2847 2497 2750 
Q 2741 2653 2914 2470 
Q 3088 2288 3183 2027 
Q 3278 1766 3278 1441 
z
M 2706 1416 
Q 2706 1644 2650 1828 
Q 2594 2013 2481 2142 
Q 2369 2272 2203 2342 
Q 2038 2413 1819 2413 
Q 1666 2413 1509 2367 
Q 1353 2322 1226 2220 
Q 1100 2119 1020 1953 
Q 941 1788 941 1550 
Q 941 1306 1003 1095 
Q 1066 884 1183 728 
Q 1300 572 1465 481 
Q 1631 391 1838 391 
Q 2041 391 2202 461 
Q 2363 531 2475 664 
Q 2588 797 2647 987 
Q 2706 1178 2706 1416 
z
" transform="scale(0.015625)"/>
       </defs>
       <use xlink:href="#LiberationSans-31"/>
       <use xlink:href="#LiberationSans-2e" x="55.615234"/>
       <use xlink:href="#LiberationSans-36" x="83.398438"/>
      </g>
     </g>
    </g>
    <g id="ytick_5">
     <g id="line2d_14"/>
     <g id="text_14">
      <!-- 1.8 -->
      <g style="fill: #262626" transform="translate(87.1 183.150525)scale(0.1 -0.1)">
       <defs>
        <path id="LiberationSans-38" d="M 3281 1228 
Q 3281 947 3192 711 
Q 3103 475 2920 303 
Q 2738 131 2453 34 
Q 2169 -63 1781 -63 
Q 1394 -63 1111 34 
Q 828 131 642 301 
Q 456 472 367 708 
Q 278 944 278 1222 
Q 278 1463 351 1650 
Q 425 1838 548 1973 
Q 672 2109 830 2192 
Q 988 2275 1156 2303 
L 1156 2316 
Q 972 2359 826 2456 
Q 681 2553 582 2689 
Q 484 2825 432 2990 
Q 381 3156 381 3341 
Q 381 3572 470 3776 
Q 559 3981 734 4136 
Q 909 4291 1168 4380 
Q 1428 4469 1769 4469 
Q 2128 4469 2392 4378 
Q 2656 4288 2829 4133 
Q 3003 3978 3087 3772 
Q 3172 3566 3172 3334 
Q 3172 3153 3120 2987 
Q 3069 2822 2970 2686 
Q 2872 2550 2726 2454 
Q 2581 2359 2391 2322 
L 2391 2309 
Q 2581 2278 2743 2195 
Q 2906 2113 3025 1977 
Q 3144 1841 3212 1653 
Q 3281 1466 3281 1228 
z
M 2588 3303 
Q 2588 3469 2545 3606 
Q 2503 3744 2406 3842 
Q 2309 3941 2153 3995 
Q 1997 4050 1769 4050 
Q 1547 4050 1394 3995 
Q 1241 3941 1142 3842 
Q 1044 3744 1000 3606 
Q 956 3469 956 3303 
Q 956 3172 990 3034 
Q 1025 2897 1115 2784 
Q 1206 2672 1365 2600 
Q 1525 2528 1775 2528 
Q 2041 2528 2202 2600 
Q 2363 2672 2448 2784 
Q 2534 2897 2561 3034 
Q 2588 3172 2588 3303 
z
M 2697 1281 
Q 2697 1441 2653 1589 
Q 2609 1738 2503 1852 
Q 2397 1966 2217 2036 
Q 2038 2106 1769 2106 
Q 1522 2106 1348 2036 
Q 1175 1966 1067 1850 
Q 959 1734 909 1582 
Q 859 1431 859 1269 
Q 859 1066 909 898 
Q 959 731 1068 611 
Q 1178 491 1356 425 
Q 1534 359 1788 359 
Q 2044 359 2219 425 
Q 2394 491 2500 611 
Q 2606 731 2651 901 
Q 2697 1072 2697 1281 
z
" transform="scale(0.015625)"/>
       </defs>
       <use xlink:href="#LiberationSans-31"/>
       <use xlink:href="#LiberationSans-2e" x="55.615234"/>
       <use xlink:href="#LiberationSans-38" x="83.398438"/>
      </g>
     </g>
    </g>
    <g id="ytick_6">
     <g id="line2d_15"/>
     <g id="text_15">
      <!-- 2.0 -->
      <g style="fill: #262626" transform="translate(87.1 157.071277)scale(0.1 -0.1)">
       <use xlink:href="#LiberationSans-32"/>
       <use xlink:href="#LiberationSans-2e" x="55.615234"/>
       <use xlink:href="#LiberationSans-30" x="83.398438"/>
      </g>
     </g>
    </g>
    <g id="ytick_7">
     <g id="line2d_16"/>
     <g id="text_16">
      <!-- 2.2 -->
      <g style="fill: #262626" transform="translate(87.1 130.992028)scale(0.1 -0.1)">
       <use xlink:href="#LiberationSans-32"/>
       <use xlink:href="#LiberationSans-2e" x="55.615234"/>
       <use xlink:href="#LiberationSans-32" x="83.398438"/>
      </g>
     </g>
    </g>
    <g id="ytick_8">
     <g id="line2d_17"/>
     <g id="text_17">
      <!-- 2.4 -->
      <g style="fill: #262626" transform="translate(87.1 104.912779)scale(0.1 -0.1)">
       <use xlink:href="#LiberationSans-32"/>
       <use xlink:href="#LiberationSans-2e" x="55.615234"/>
       <use xlink:href="#LiberationSans-34" x="83.398438"/>
      </g>
     </g>
    </g>
   </g>
   <g id="line2d_18">
    <path d="M 138.436364 88.069091 
L 141.495295 103.88351 
L 144.554226 111.865613 
L 147.613157 117.51521 
L 150.672088 118.883681 
L 153.731019 121.721537 
L 156.78995 121.083717 
L 159.848881 123.584289 
L 162.907812 125.690717 
L 165.966743 127.21286 
L 169.025674 131.985439 
L 172.084605 132.739625 
L 175.143536 132.912572 
L 178.202467 137.342397 
L 181.261398 139.939531 
L 184.320329 141.936588 
L 187.37926 141.132878 
L 190.438191 147.722883 
L 193.497122 150.324681 
L 196.556053 153.076545 
L 199.614984 154.33852 
L 202.673915 157.516115 
L 205.732846 159.24859 
L 208.791777 162.969806 
L 211.850708 168.100203 
L 214.909639 165.846771 
L 217.96857 170.409314 
L 221.027501 174.040341 
L 227.145363 174.40921 
L 230.204294 177.720426 
L 233.263225 181.783728 
L 236.322156 183.526508 
L 239.381087 184.323472 
L 242.440018 184.970276 
L 245.498949 187.410956 
L 248.55788 188.684777 
L 251.616811 188.873984 
L 254.675742 190.122933 
L 257.734673 195.310829 
L 260.793604 195.672144 
L 263.852535 198.785167 
L 269.970397 202.342202 
L 273.029328 203.229821 
L 276.088259 202.855573 
L 279.14719 202.687445 
L 282.206122 208.212437 
L 285.265053 210.247454 
L 288.323984 208.978436 
L 291.382915 210.022867 
L 294.441846 212.211976 
L 297.500777 212.685227 
L 300.559708 210.079511 
L 303.618639 219.11273 
L 306.67757 215.245054 
L 309.736501 220.187659 
L 312.795432 215.718958 
L 315.854363 218.352684 
L 318.913294 223.857003 
L 321.972225 223.60582 
L 325.031156 222.794742 
L 328.090087 226.040406 
L 331.149018 222.141735 
L 334.207949 224.959788 
L 337.26688 227.602374 
L 340.325811 231.485532 
L 343.384742 232.556668 
L 346.443673 231.966834 
L 349.502604 227.014514 
L 352.561535 233.900314 
L 355.620466 229.289102 
L 358.679397 233.409296 
L 361.738328 233.846313 
L 364.797259 232.427571 
L 367.85619 237.923791 
L 370.915121 240.600482 
L 373.974052 233.754601 
L 377.032983 239.498366 
L 380.091914 241.470878 
L 383.150845 242.173844 
L 386.209776 242.541051 
L 389.268707 243.198565 
L 392.327638 241.499044 
L 395.386569 244.366404 
L 398.4455 238.567564 
L 401.504431 245.619286 
L 404.563362 238.984451 
L 407.622293 241.373492 
L 410.681224 245.120573 
L 413.740155 249.104708 
L 416.799086 248.575139 
L 419.858017 250.522019 
L 422.916948 246.960118 
L 429.03481 252.979626 
L 432.093741 253.957216 
L 435.152672 250.228338 
L 438.211603 249.725863 
L 441.270534 251.112785 
L 444.329466 255.121791 
L 447.388397 252.985114 
L 450.447328 257.031597 
L 453.506259 257.055675 
L 456.56519 255.791057 
L 459.624121 256.418182 
L 462.683052 255.733418 
L 465.741983 261.976253 
L 468.800914 254.34247 
L 471.859845 259.85854 
L 474.918776 254.534941 
L 477.977707 258.099531 
L 481.036638 260.480582 
L 484.095569 261.624389 
L 487.1545 263.917194 
L 490.213431 261.169574 
L 493.272362 266.133661 
L 496.331293 262.894137 
L 499.390224 263.81314 
L 502.449155 264.992761 
L 505.508086 267.138967 
L 508.567017 264.249939 
L 511.625948 262.722511 
L 514.684879 260.611078 
L 517.74381 261.730215 
L 520.802741 267.261581 
L 523.861672 265.868877 
L 526.920603 262.490075 
L 529.979534 270.767242 
L 533.038465 269.051415 
L 536.097396 266.324034 
L 539.156327 269.863053 
L 542.215258 267.40829 
L 545.274189 272.413041 
L 548.33312 268.344407 
L 551.392051 270.549573 
L 554.450982 271.169221 
L 560.568844 269.864514 
L 563.627775 274.845342 
L 566.686706 272.432285 
L 569.745637 272.349511 
L 572.804568 273.847187 
L 575.863499 273.902432 
L 578.92243 275.163895 
L 581.981361 273.771796 
L 585.040292 278.510054 
L 588.099223 274.287685 
L 591.158154 276.015621 
L 594.217085 275.102354 
L 597.276016 275.851456 
L 600.334947 275.894188 
L 603.393878 278.922899 
L 606.45281 274.622311 
L 609.511741 278.119873 
L 612.570672 278.738635 
L 615.629603 274.799968 
L 618.688534 280.738272 
L 621.747465 280.387558 
L 624.806396 277.416766 
L 627.865327 279.720158 
L 630.924258 282.792968 
L 633.983189 282.931608 
L 637.04212 284.985729 
L 640.101051 280.351309 
L 643.159982 285.505364 
L 646.218913 280.094825 
L 649.277844 283.983625 
L 652.336775 283.036922 
L 655.395706 285.56099 
L 658.454637 285.896688 
L 661.513568 282.919484 
L 664.572499 281.439357 
L 667.63143 282.451363 
L 670.690361 289.908071 
L 673.749292 289.71267 
L 676.808223 288.243961 
L 679.867154 287.863285 
L 682.926085 288.537362 
L 685.985016 288.149256 
L 689.043947 285.332595 
L 692.102878 287.113149 
L 695.161809 292.014748 
L 698.22074 291.349725 
L 701.279671 289.859417 
L 704.338602 291.548671 
L 707.397533 292.695283 
L 710.456464 289.495934 
L 713.515395 289.855842 
L 716.574326 286.898698 
L 719.633257 291.0824 
L 722.692188 291.661897 
L 725.751119 290.686693 
L 728.81005 289.143028 
L 731.868981 294.250909 
L 734.927912 293.456067 
L 737.986843 293.060174 
L 741.045774 293.604936 
L 744.104705 290.606056 
L 747.163636 294.104076 
L 747.163636 294.104076 
" clip-path="url(#pcbf94621c3)" style="fill: none; stroke: #ff0000; stroke-width: 1.75; stroke-linecap: round"/>
   </g>
   <g id="line2d_19">
    <path d="M 138.436364 101.164352 
L 141.495295 112.169445 
L 144.554226 117.033954 
L 147.613157 119.953854 
L 150.672088 121.702603 
L 159.848881 126.384466 
L 162.907812 128.111982 
L 165.966743 129.998269 
L 175.143536 136.826694 
L 178.202467 138.802548 
L 181.261398 141.18175 
L 184.320329 144.452301 
L 187.37926 147.151593 
L 190.438191 149.605501 
L 193.497122 151.402905 
L 196.556053 154.591739 
L 199.614984 157.157769 
L 202.673915 159.543437 
L 205.732846 162.479176 
L 208.791777 164.390583 
L 211.850708 165.670528 
L 214.909639 169.261171 
L 221.027501 173.130509 
L 224.086432 174.294399 
L 227.145363 176.555012 
L 230.204294 179.169059 
L 233.263225 180.920063 
L 236.322156 183.648952 
L 239.381087 185.136431 
L 242.440018 187.113669 
L 245.498949 188.634957 
L 248.55788 190.605339 
L 251.616811 191.400888 
L 254.675742 193.665139 
L 257.734673 194.987442 
L 263.852535 198.546591 
L 266.911466 199.353022 
L 269.970397 201.243848 
L 273.029328 201.927881 
L 276.088259 203.243034 
L 279.14719 203.708481 
L 282.206122 205.652951 
L 285.265053 207.776773 
L 288.323984 208.931445 
L 291.382915 210.299248 
L 294.441846 211.357311 
L 297.500777 211.959736 
L 306.67757 216.125942 
L 312.795432 217.50231 
L 315.854363 219.214608 
L 318.913294 220.119807 
L 321.972225 221.409919 
L 325.031156 222.010634 
L 328.090087 222.108082 
L 331.149018 223.216913 
L 334.207949 223.57414 
L 337.26688 224.133678 
L 340.325811 225.119242 
L 343.384742 226.518911 
L 346.443673 227.781866 
L 349.502604 228.80068 
L 352.561535 229.701853 
L 355.620466 230.283868 
L 358.679397 231.522077 
L 361.738328 231.382161 
L 364.797259 232.695029 
L 367.85619 233.258127 
L 370.915121 234.159518 
L 373.974052 234.358207 
L 377.032983 235.105226 
L 380.091914 235.419581 
L 383.150845 236.785891 
L 386.209776 237.541398 
L 389.268707 235.752528 
L 392.327638 238.269111 
L 395.386569 239.686469 
L 398.4455 239.627944 
L 401.504431 241.036799 
L 404.563362 240.316143 
L 407.622293 240.983668 
L 410.681224 242.073225 
L 413.740155 243.036437 
L 416.799086 242.174497 
L 419.858017 244.354823 
L 422.916948 245.177528 
L 425.975879 245.875925 
L 429.03481 245.027198 
L 432.093741 246.38328 
L 435.152672 247.325724 
L 441.270534 246.992622 
L 444.329466 247.504221 
L 447.388397 249.482453 
L 450.447328 248.629203 
L 453.506259 250.689899 
L 456.56519 251.217431 
L 459.624121 250.846867 
L 462.683052 252.170196 
L 465.741983 252.803928 
L 471.859845 253.063038 
L 474.918776 253.822944 
L 477.977707 251.878474 
L 481.036638 254.463468 
L 484.095569 255.888085 
L 487.1545 253.980098 
L 490.213431 255.478163 
L 493.272362 256.033799 
L 496.331293 254.976528 
L 499.390224 256.462048 
L 502.449155 257.727008 
L 505.508086 257.63312 
L 508.567017 258.153486 
L 511.625948 258.90136 
L 514.684879 255.923946 
L 517.74381 258.041177 
L 520.802741 259.239949 
L 523.861672 259.030752 
L 526.920603 260.012228 
L 529.979534 257.383834 
L 533.038465 260.410601 
L 536.097396 258.763543 
L 539.156327 262.149092 
L 542.215258 261.355284 
L 545.274189 262.641011 
L 548.33312 260.204793 
L 551.392051 263.200269 
L 554.450982 264.059457 
L 557.509913 261.664431 
L 560.568844 259.470831 
L 563.627775 263.172678 
L 566.686706 265.273602 
L 569.745637 264.970159 
L 572.804568 263.843871 
L 575.863499 266.215285 
L 578.92243 266.106303 
L 581.981361 264.435508 
L 585.040292 266.119982 
L 588.099223 267.304702 
L 591.158154 266.967076 
L 594.217085 266.236643 
L 597.276016 262.682266 
L 600.334947 268.127935 
L 603.393878 264.783346 
L 606.45281 266.665856 
L 609.511741 269.395538 
L 612.570672 269.095499 
L 615.629603 270.406564 
L 618.688534 270.381087 
L 621.747465 270.646928 
L 624.806396 269.323552 
L 627.865327 271.151081 
L 630.924258 271.726163 
L 633.983189 271.102489 
L 640.101051 272.055363 
L 643.159982 271.207989 
L 646.218913 271.445151 
L 649.277844 272.591196 
L 652.336775 272.326459 
L 655.395706 272.495116 
L 658.454637 273.97319 
L 661.513568 273.083053 
L 664.572499 269.965957 
L 667.63143 273.435912 
L 670.690361 273.985284 
L 673.749292 274.66582 
L 676.808223 274.480343 
L 682.926085 275.212704 
L 685.985016 273.963102 
L 689.043947 276.676369 
L 692.102878 276.404979 
L 695.161809 275.3455 
L 698.22074 277.800792 
L 701.279671 277.05155 
L 704.338602 277.69366 
L 707.397533 277.223564 
L 710.456464 278.359039 
L 713.515395 276.602144 
L 716.574326 277.812015 
L 719.633257 276.945816 
L 722.692188 278.433031 
L 725.751119 278.668001 
L 728.81005 277.995844 
L 731.868981 279.173833 
L 734.927912 279.159703 
L 737.986843 277.854933 
L 741.045774 279.351101 
L 744.104705 280.065571 
L 747.163636 280.164666 
L 747.163636 280.164666 
" clip-path="url(#pcbf94621c3)" style="fill: none; stroke: #008000; stroke-width: 1.75; stroke-linecap: round"/>
   </g>
   <g id="patch_3">
    <path d="M 108 304.56 
L 108 77.76 
" style="fill: none"/>
   </g>
   <g id="patch_4">
    <path d="M 777.6 304.56 
L 777.6 77.76 
" style="fill: none"/>
   </g>
   <g id="patch_5">
    <path d="M 108 304.56 
L 777.6 304.56 
" style="fill: none"/>
   </g>
   <g id="patch_6">
    <path d="M 108 77.76 
L 777.6 77.76 
" style="fill: none"/>
   </g>
  </g>
  <g id="axes_2">
   <g id="patch_7">
    <path d="M 108 576.72 
L 777.6 576.72 
L 777.6 349.92 
L 108 349.92 
z
" style="fill: #eaeaf2"/>
   </g>
   <g id="matplotlib.axis_3">
    <g id="xtick_10">
     <g id="line2d_20"/>
     <g id="text_18">
      <!-- 0 -->
      <g style="fill: #262626" transform="translate(135.655895 590.966875)scale(0.1 -0.1)">
       <use xlink:href="#LiberationSans-30"/>
      </g>
     </g>
    </g>
    <g id="xtick_11">
     <g id="line2d_21"/>
     <g id="text_19">
      <!-- 25 -->
      <g style="fill: #262626" transform="translate(209.348702 590.966875)scale(0.1 -0.1)">
       <use xlink:href="#LiberationSans-32"/>
       <use xlink:href="#LiberationSans-35" x="55.615234"/>
      </g>
     </g>
    </g>
    <g id="xtick_12">
     <g id="line2d_22"/>
     <g id="text_20">
      <!-- 50 -->
      <g style="fill: #262626" transform="translate(285.821977 590.966875)scale(0.1 -0.1)">
       <use xlink:href="#LiberationSans-35"/>
       <use xlink:href="#LiberationSans-30" x="55.615234"/>
      </g>
     </g>
    </g>
    <g id="xtick_13">
     <g id="line2d_23"/>
     <g id="text_21">
      <!-- 75 -->
      <g style="fill: #262626" transform="translate(362.295253 590.966875)scale(0.1 -0.1)">
       <use xlink:href="#LiberationSans-37"/>
       <use xlink:href="#LiberationSans-35" x="55.615234"/>
      </g>
     </g>
    </g>
    <g id="xtick_14">
     <g id="line2d_24"/>
     <g id="text_22">
      <!-- 100 -->
      <g style="fill: #262626" transform="translate(435.988059 590.966875)scale(0.1 -0.1)">
       <use xlink:href="#LiberationSans-31"/>
       <use xlink:href="#LiberationSans-30" x="55.615234"/>
       <use xlink:href="#LiberationSans-30" x="111.230469"/>
      </g>
     </g>
    </g>
    <g id="xtick_15">
     <g id="line2d_25"/>
     <g id="text_23">
      <!-- 125 -->
      <g style="fill: #262626" transform="translate(512.461335 590.966875)scale(0.1 -0.1)">
       <use xlink:href="#LiberationSans-31"/>
       <use xlink:href="#LiberationSans-32" x="55.615234"/>
       <use xlink:href="#LiberationSans-35" x="111.230469"/>
      </g>
     </g>
    </g>
    <g id="xtick_16">
     <g id="line2d_26"/>
     <g id="text_24">
      <!-- 150 -->
      <g style="fill: #262626" transform="translate(588.93461 590.966875)scale(0.1 -0.1)">
       <use xlink:href="#LiberationSans-31"/>
       <use xlink:href="#LiberationSans-35" x="55.615234"/>
       <use xlink:href="#LiberationSans-30" x="111.230469"/>
      </g>
     </g>
    </g>
    <g id="xtick_17">
     <g id="line2d_27"/>
     <g id="text_25">
      <!-- 175 -->
      <g style="fill: #262626" transform="translate(665.407886 590.966875)scale(0.1 -0.1)">
       <use xlink:href="#LiberationSans-31"/>
       <use xlink:href="#LiberationSans-37" x="55.615234"/>
       <use xlink:href="#LiberationSans-35" x="111.230469"/>
      </g>
     </g>
    </g>
    <g id="xtick_18">
     <g id="line2d_28"/>
     <g id="text_26">
      <!-- 200 -->
      <g style="fill: #262626" transform="translate(741.881161 590.966875)scale(0.1 -0.1)">
       <use xlink:href="#LiberationSans-32"/>
       <use xlink:href="#LiberationSans-30" x="55.615234"/>
       <use xlink:href="#LiberationSans-30" x="111.230469"/>
      </g>
     </g>
    </g>
   </g>
   <g id="matplotlib.axis_4">
    <g id="ytick_9">
     <g id="line2d_29"/>
     <g id="text_27">
      <!-- 0.2 -->
      <g style="fill: #262626" transform="translate(87.1 555.747873)scale(0.1 -0.1)">
       <use xlink:href="#LiberationSans-30"/>
       <use xlink:href="#LiberationSans-2e" x="55.615234"/>
       <use xlink:href="#LiberationSans-32" x="83.398438"/>
      </g>
     </g>
    </g>
    <g id="ytick_10">
     <g id="line2d_30"/>
     <g id="text_28">
      <!-- 0.3 -->
      <g style="fill: #262626" transform="translate(87.1 519.22016)scale(0.1 -0.1)">
       <defs>
        <path id="LiberationSans-33" d="M 3278 1216 
Q 3278 913 3179 675 
Q 3081 438 2892 273 
Q 2703 109 2423 23 
Q 2144 -63 1784 -63 
Q 1375 -63 1095 39 
Q 816 141 634 308 
Q 453 475 362 689 
Q 272 903 244 1131 
L 825 1184 
Q 850 1009 917 865 
Q 984 722 1100 619 
Q 1216 516 1384 459 
Q 1553 403 1784 403 
Q 2209 403 2451 612 
Q 2694 822 2694 1234 
Q 2694 1478 2586 1626 
Q 2478 1775 2317 1858 
Q 2156 1941 1967 1969 
Q 1778 1997 1619 1997 
L 1300 1997 
L 1300 2484 
L 1606 2484 
Q 1766 2484 1937 2517 
Q 2109 2550 2251 2636 
Q 2394 2722 2486 2869 
Q 2578 3016 2578 3244 
Q 2578 3597 2370 3801 
Q 2163 4006 1753 4006 
Q 1381 4006 1151 3815 
Q 922 3625 884 3278 
L 319 3322 
Q 353 3613 478 3828 
Q 603 4044 795 4186 
Q 988 4328 1234 4398 
Q 1481 4469 1759 4469 
Q 2128 4469 2393 4376 
Q 2659 4284 2828 4126 
Q 2997 3969 3076 3756 
Q 3156 3544 3156 3303 
Q 3156 3109 3103 2940 
Q 3050 2772 2937 2637 
Q 2825 2503 2651 2406 
Q 2478 2309 2234 2259 
L 2234 2247 
Q 2500 2219 2697 2126 
Q 2894 2034 3022 1896 
Q 3150 1759 3214 1584 
Q 3278 1409 3278 1216 
z
" transform="scale(0.015625)"/>
       </defs>
       <use xlink:href="#LiberationSans-30"/>
       <use xlink:href="#LiberationSans-2e" x="55.615234"/>
       <use xlink:href="#LiberationSans-33" x="83.398438"/>
      </g>
     </g>
    </g>
    <g id="ytick_11">
     <g id="line2d_31"/>
     <g id="text_29">
      <!-- 0.4 -->
      <g style="fill: #262626" transform="translate(87.1 482.692447)scale(0.1 -0.1)">
       <use xlink:href="#LiberationSans-30"/>
       <use xlink:href="#LiberationSans-2e" x="55.615234"/>
       <use xlink:href="#LiberationSans-34" x="83.398438"/>
      </g>
     </g>
    </g>
    <g id="ytick_12">
     <g id="line2d_32"/>
     <g id="text_30">
      <!-- 0.5 -->
      <g style="fill: #262626" transform="translate(87.1 446.164734)scale(0.1 -0.1)">
       <use xlink:href="#LiberationSans-30"/>
       <use xlink:href="#LiberationSans-2e" x="55.615234"/>
       <use xlink:href="#LiberationSans-35" x="83.398438"/>
      </g>
     </g>
    </g>
    <g id="ytick_13">
     <g id="line2d_33"/>
     <g id="text_31">
      <!-- 0.6 -->
      <g style="fill: #262626" transform="translate(87.1 409.63702)scale(0.1 -0.1)">
       <use xlink:href="#LiberationSans-30"/>
       <use xlink:href="#LiberationSans-2e" x="55.615234"/>
       <use xlink:href="#LiberationSans-36" x="83.398438"/>
      </g>
     </g>
    </g>
    <g id="ytick_14">
     <g id="line2d_34"/>
     <g id="text_32">
      <!-- 0.7 -->
      <g style="fill: #262626" transform="translate(87.1 373.109307)scale(0.1 -0.1)">
       <use xlink:href="#LiberationSans-30"/>
       <use xlink:href="#LiberationSans-2e" x="55.615234"/>
       <use xlink:href="#LiberationSans-37" x="83.398438"/>
      </g>
     </g>
    </g>
   </g>
   <g id="line2d_35">
    <path d="M 138.436364 566.410909 
L 141.495295 550.982944 
L 144.554226 546.613174 
L 147.613157 546.96989 
L 150.672088 548.129217 
L 153.731019 547.237427 
L 156.78995 546.96989 
L 159.848881 548.485933 
L 162.907812 543.848625 
L 165.966743 544.116162 
L 169.025674 539.746392 
L 172.084605 525.923649 
L 175.143536 511.119937 
L 178.202467 501.399427 
L 181.261398 505.055766 
L 184.320329 497.208015 
L 187.37926 502.647933 
L 193.497122 493.194961 
L 196.556053 494.17593 
L 199.614984 495.424435 
L 202.673915 490.519591 
L 205.732846 489.627801 
L 208.791777 487.041611 
L 211.850708 481.958408 
L 214.909639 487.487506 
L 217.96857 479.907292 
L 221.027501 477.588638 
L 224.086432 483.028556 
L 227.145363 485.258031 
L 230.204294 481.334155 
L 233.263225 475.359163 
L 236.322156 471.881183 
L 239.381087 463.409179 
L 242.440018 462.249852 
L 245.498949 459.039409 
L 248.55788 459.663662 
L 251.616811 466.619623 
L 257.734673 457.701724 
L 260.793604 454.134564 
L 263.852535 451.0133 
L 266.911466 451.90509 
L 269.970397 447.535319 
L 273.029328 450.656584 
L 276.088259 451.637553 
L 279.14719 451.994269 
L 282.206122 450.924121 
L 285.265053 446.821887 
L 288.323984 448.962183 
L 291.382915 443.611444 
L 294.441846 443.611444 
L 297.500777 444.770771 
L 300.559708 443.96816 
L 303.618639 441.025253 
L 306.67757 440.579358 
L 309.736501 438.7066 
L 312.795432 441.025253 
L 315.854363 439.063316 
L 318.913294 433.266681 
L 321.972225 434.426008 
L 325.031156 434.426008 
L 328.090087 429.253627 
L 331.149018 435.674514 
L 334.207949 427.024152 
L 337.26688 427.826763 
L 340.325811 423.902888 
L 343.384742 427.024152 
L 346.443673 424.705499 
L 349.502604 424.527141 
L 352.561535 425.062215 
L 355.620466 422.83274 
L 358.679397 421.762592 
L 361.738328 421.851771 
L 364.797259 422.208487 
L 367.85619 414.093199 
L 370.915121 411.150293 
L 373.974052 416.411853 
L 380.091914 408.653281 
L 383.150845 411.061114 
L 386.209776 409.901787 
L 389.268707 410.882756 
L 392.327638 410.882756 
L 395.386569 408.474923 
L 398.4455 414.717452 
L 401.504431 402.945826 
L 404.563362 412.577156 
L 410.681224 407.761491 
L 413.740155 400.359635 
L 416.799086 399.467845 
L 419.858017 399.646203 
L 422.916948 403.748437 
L 425.975879 401.073067 
L 429.03481 399.557024 
L 432.093741 397.505908 
L 435.152672 401.964857 
L 438.211603 399.111129 
L 441.270534 399.378666 
L 444.329466 395.365612 
L 447.388397 397.595087 
L 450.447328 391.352557 
L 453.506259 396.43576 
L 456.56519 396.703297 
L 459.624121 394.830538 
L 462.683052 392.244347 
L 465.741983 390.460768 
L 468.800914 397.149192 
L 471.859845 391.620094 
L 474.918776 392.601063 
L 477.977707 395.633149 
L 481.036638 391.08502 
L 484.095569 389.479799 
L 487.1545 387.60704 
L 490.213431 392.155168 
L 493.272362 385.110028 
L 496.331293 390.460768 
L 499.390224 391.530915 
L 502.449155 387.785398 
L 505.508086 388.320472 
L 508.567017 386.893608 
L 511.625948 392.333526 
L 514.684879 392.8686 
L 517.74381 391.08502 
L 520.802741 384.93167 
L 523.861672 387.339503 
L 526.920603 391.174199 
L 529.979534 382.523838 
L 533.038465 384.03988 
L 536.097396 391.620094 
L 539.156327 387.428682 
L 542.215258 387.071966 
L 545.274189 381.45369 
L 548.33312 388.49883 
L 551.392051 381.45369 
L 554.450982 383.148091 
L 557.509913 384.129059 
L 560.568844 384.218238 
L 566.686706 380.918616 
L 569.745637 384.842491 
L 572.804568 382.256301 
L 575.863499 378.867499 
L 578.92243 377.083919 
L 581.981361 381.45369 
L 585.040292 376.370488 
L 588.099223 381.096974 
L 591.158154 382.791375 
L 594.217085 381.899585 
L 597.276016 379.491752 
L 600.334947 381.45369 
L 603.393878 375.746235 
L 606.45281 378.956678 
L 609.511741 381.096974 
L 612.570672 377.529814 
L 615.629603 380.5619 
L 618.688534 373.070865 
L 621.747465 375.746235 
L 624.806396 377.262277 
L 627.865327 375.211161 
L 630.924258 373.695118 
L 633.983189 373.784297 
L 637.04212 370.663032 
L 640.101051 377.440635 
L 643.159982 370.752211 
L 646.218913 375.30034 
L 649.277844 368.701095 
L 652.336775 372.000717 
L 655.395706 371.287285 
L 658.454637 371.554822 
L 661.513568 373.338402 
L 664.572499 377.083919 
L 667.63143 374.943624 
L 670.690361 366.204083 
L 676.808223 370.127958 
L 679.867154 368.522737 
L 682.926085 368.076842 
L 685.985016 369.414527 
L 689.043947 373.873476 
L 692.102878 369.503706 
L 695.161809 366.025725 
L 698.22074 369.592885 
L 701.279671 365.758188 
L 704.338602 360.853344 
L 707.397533 367.720126 
L 710.456464 368.790274 
L 713.515395 365.401472 
L 716.574326 372.803328 
L 719.633257 366.382441 
L 722.692188 364.509682 
L 725.751119 367.36341 
L 728.81005 367.36341 
L 731.868981 364.955577 
L 734.927912 364.598861 
L 737.986843 365.847367 
L 741.045774 360.229091 
L 744.104705 369.325348 
L 747.163636 362.99364 
L 747.163636 362.99364 
" clip-path="url(#p1e4ffcd070)" style="fill: none; stroke: #ff0000; stroke-width: 1.75; stroke-linecap: round"/>
   </g>
   <g id="line2d_36">
    <path d="M 138.436364 546.500818 
L 141.495295 546.371834 
L 147.613157 546.565308 
L 150.672088 546.371834 
L 153.731019 546.500818 
L 156.78995 546.823276 
L 159.848881 546.694292 
L 162.907812 546.307345 
L 165.966743 546.242856 
L 169.025674 542.824831 
L 172.084605 511.482194 
L 175.143536 498.648487 
L 178.202467 507.290281 
L 181.261398 502.259974 
L 184.320329 500.45423 
L 187.37926 499.809316 
L 190.438191 497.358657 
L 193.497122 499.42238 
L 196.556053 494.392073 
L 199.614984 487.427044 
L 202.673915 490.393628 
L 205.732846 485.6213 
L 208.791777 486.330693 
L 211.850708 487.169076 
L 214.909639 484.073514 
L 217.96857 483.815545 
L 221.027501 481.880812 
L 224.086432 486.653151 
L 227.145363 483.235131 
L 230.204294 477.753388 
L 233.263225 481.816323 
L 236.322156 460.082853 
L 239.381087 460.211831 
L 242.440018 463.178426 
L 245.498949 460.4698 
L 248.55788 460.082853 
L 251.616811 460.598778 
L 254.675742 457.761173 
L 257.734673 452.537409 
L 260.793604 453.698238 
L 263.852535 451.118601 
L 266.911466 455.89094 
L 269.970397 452.924345 
L 273.029328 451.828005 
L 276.088259 452.085962 
L 279.14719 449.635304 
L 282.206122 448.409974 
L 285.265053 448.538964 
L 288.323984 445.50788 
L 291.382915 448.538964 
L 294.441846 446.991177 
L 297.500777 445.572369 
L 300.559708 445.120933 
L 303.618639 446.088305 
L 306.67757 442.347828 
L 309.736501 443.121711 
L 312.795432 439.89717 
L 315.854363 440.155127 
L 318.913294 439.058787 
L 321.972225 435.769746 
L 325.031156 436.737107 
L 328.090087 438.994298 
L 331.149018 429.127174 
L 334.207949 433.254598 
L 337.26688 431.126386 
L 340.325811 433.383576 
L 343.384742 433.383576 
L 346.443673 430.868428 
L 349.502604 428.740216 
L 352.561535 428.611238 
L 355.620466 426.805494 
L 358.679397 426.09609 
L 361.738328 428.030812 
L 364.797259 421.581708 
L 367.85619 423.258474 
L 370.915121 421.839687 
L 373.974052 419.969432 
L 377.032983 416.486923 
L 380.091914 421.388241 
L 383.150845 417.00286 
L 386.209776 414.294222 
L 389.268707 423.580942 
L 392.327638 412.875436 
L 395.386569 412.875436 
L 398.4455 410.424777 
L 401.504431 412.101542 
L 404.563362 411.06967 
L 407.622293 408.490033 
L 410.681224 408.619011 
L 413.740155 411.06967 
L 416.799086 405.32997 
L 419.858017 410.231287 
L 422.916948 408.683501 
L 425.975879 403.846695 
L 429.03481 406.6198 
L 432.093741 405.136502 
L 435.152672 405.716928 
L 438.211603 404.23363 
L 441.270534 405.32997 
L 444.329466 400.557653 
L 447.388397 404.29812 
L 450.447328 403.975673 
L 456.56519 399.203335 
L 459.624121 400.557653 
L 462.683052 400.364164 
L 465.741983 400.686632 
L 468.800914 399.009867 
L 471.859845 398.55842 
L 474.918776 397.397591 
L 477.977707 398.106995 
L 481.036638 400.815611 
L 484.095569 395.269379 
L 487.1545 399.848249 
L 490.213431 398.55842 
L 493.272362 396.043272 
L 496.331293 395.333868 
L 499.390224 396.365718 
L 502.449155 394.366507 
L 505.508086 397.977994 
L 508.567017 395.1404 
L 511.625948 394.237528 
L 514.684879 401.782972 
L 517.74381 395.849804 
L 520.802741 394.366507 
L 523.861672 395.785315 
L 526.920603 393.334656 
L 529.979534 397.075122 
L 533.038465 392.173805 
L 536.097396 396.430208 
L 539.156327 390.883998 
L 542.215258 391.78687 
L 545.274189 391.657891 
L 548.33312 394.495485 
L 551.392051 391.657891 
L 554.450982 390.303572 
L 557.509913 392.754231 
L 560.568844 394.946932 
L 563.627775 393.463635 
L 566.686706 389.142743 
L 569.745637 390.432551 
L 572.804568 391.980337 
L 575.863499 388.497828 
L 578.92243 390.626019 
L 581.981361 392.947699 
L 585.040292 388.691296 
L 588.099223 387.723935 
L 591.158154 389.46519 
L 594.217085 389.916615 
L 597.276016 395.978783 
L 600.334947 388.239849 
L 603.393878 392.044827 
L 606.45281 390.754997 
L 609.511741 386.885552 
L 612.570672 387.530467 
L 615.629603 385.660212 
L 618.688534 384.563872 
L 621.747465 385.789191 
L 624.806396 386.305127 
L 627.865327 386.04717 
L 630.924258 385.660212 
L 633.983189 385.660212 
L 637.04212 385.079808 
L 640.101051 385.402255 
L 643.159982 385.918191 
L 646.218913 385.595723 
L 649.277844 384.950808 
L 655.395706 385.724701 
L 658.454637 382.822618 
L 661.513568 385.144298 
L 664.572499 387.07902 
L 667.63143 383.72549 
L 670.690361 383.467533 
L 673.749292 381.855257 
L 676.808223 384.047936 
L 679.867154 382.693639 
L 682.926085 381.984235 
L 685.985016 383.854468 
L 689.043947 379.469087 
L 692.102878 381.597278 
L 695.161809 382.048724 
L 698.22074 380.371959 
L 701.279671 381.40381 
L 704.338602 378.888662 
L 707.397533 381.081363 
L 710.456464 379.791534 
L 713.515395 382.113214 
L 716.574326 380.694406 
L 719.633257 381.726256 
L 722.692188 380.178491 
L 725.751119 378.437215 
L 728.81005 379.985002 
L 731.868981 378.953151 
L 734.927912 379.598066 
L 737.986843 381.274831 
L 741.045774 379.469087 
L 744.104705 378.243747 
L 747.163636 378.437215 
L 747.163636 378.437215 
" clip-path="url(#p1e4ffcd070)" style="fill: none; stroke: #008000; stroke-width: 1.75; stroke-linecap: round"/>
   </g>
   <g id="patch_8">
    <path d="M 108 576.72 
L 108 349.92 
" style="fill: none"/>
   </g>
   <g id="patch_9">
    <path d="M 777.6 576.72 
L 777.6 349.92 
" style="fill: none"/>
   </g>
   <g id="patch_10">
    <path d="M 108 576.72 
L 777.6 576.72 
" style="fill: none"/>
   </g>
   <g id="patch_11">
    <path d="M 108 349.92 
L 777.6 349.92 
" style="fill: none"/>
   </g>
  </g>
  <g id="text_33">
   <!-- Plots of model performance: mfcc, warohma18 - lr 5e-05, batch 32 -->
   <g style="fill: #262626" transform="translate(255.932813 21.65625)scale(0.12 -0.12)">
    <defs>
     <path id="LiberationSans-50" d="M 3931 3078 
Q 3931 2791 3836 2542 
Q 3741 2294 3552 2111 
Q 3363 1928 3078 1822 
Q 2794 1716 2416 1716 
L 1122 1716 
L 1122 0 
L 525 0 
L 525 4403 
L 2378 4403 
Q 2769 4403 3059 4308 
Q 3350 4213 3544 4039 
Q 3738 3866 3834 3620 
Q 3931 3375 3931 3078 
z
M 3331 3072 
Q 3331 3491 3075 3708 
Q 2819 3925 2306 3925 
L 1122 3925 
L 1122 2188 
L 2331 2188 
Q 2847 2188 3089 2416 
Q 3331 2644 3331 3072 
z
" transform="scale(0.015625)"/>
     <path id="LiberationSans-6c" d="M 431 0 
L 431 4638 
L 994 4638 
L 994 0 
L 431 0 
z
" transform="scale(0.015625)"/>
     <path id="LiberationSans-6f" d="M 3291 1694 
Q 3291 806 2900 371 
Q 2509 -63 1766 -63 
Q 1413 -63 1134 43 
Q 856 150 664 369 
Q 472 588 370 917 
Q 269 1247 269 1694 
Q 269 3444 1784 3444 
Q 2178 3444 2464 3334 
Q 2750 3225 2933 3006 
Q 3116 2788 3203 2459 
Q 3291 2131 3291 1694 
z
M 2700 1694 
Q 2700 2088 2639 2344 
Q 2578 2600 2461 2753 
Q 2344 2906 2175 2967 
Q 2006 3028 1794 3028 
Q 1578 3028 1404 2964 
Q 1231 2900 1109 2745 
Q 988 2591 923 2334 
Q 859 2078 859 1694 
Q 859 1300 928 1042 
Q 997 784 1117 631 
Q 1238 478 1402 415 
Q 1566 353 1759 353 
Q 1975 353 2150 414 
Q 2325 475 2447 628 
Q 2569 781 2634 1040 
Q 2700 1300 2700 1694 
z
" transform="scale(0.015625)"/>
     <path id="LiberationSans-74" d="M 1731 25 
Q 1603 -9 1470 -29 
Q 1338 -50 1163 -50 
Q 488 -50 488 716 
L 488 2972 
L 97 2972 
L 97 3381 
L 509 3381 
L 675 4138 
L 1050 4138 
L 1050 3381 
L 1675 3381 
L 1675 2972 
L 1050 2972 
L 1050 838 
Q 1050 594 1129 495 
Q 1209 397 1406 397 
Q 1488 397 1564 409 
Q 1641 422 1731 441 
L 1731 25 
z
" transform="scale(0.015625)"/>
     <path id="LiberationSans-73" d="M 2969 934 
Q 2969 697 2876 511 
Q 2784 325 2609 198 
Q 2434 72 2179 4 
Q 1925 -63 1597 -63 
Q 1303 -63 1067 -17 
Q 831 28 653 128 
Q 475 228 354 392 
Q 234 556 178 794 
L 675 891 
Q 747 619 972 492 
Q 1197 366 1597 366 
Q 1778 366 1929 391 
Q 2081 416 2190 477 
Q 2300 538 2361 639 
Q 2422 741 2422 891 
Q 2422 1044 2350 1142 
Q 2278 1241 2150 1306 
Q 2022 1372 1839 1420 
Q 1656 1469 1438 1528 
Q 1234 1581 1034 1647 
Q 834 1713 673 1820 
Q 513 1928 413 2087 
Q 313 2247 313 2488 
Q 313 2950 642 3192 
Q 972 3434 1603 3434 
Q 2163 3434 2492 3237 
Q 2822 3041 2909 2606 
L 2403 2544 
Q 2375 2675 2300 2764 
Q 2225 2853 2119 2908 
Q 2013 2963 1880 2986 
Q 1747 3009 1603 3009 
Q 1222 3009 1040 2893 
Q 859 2778 859 2544 
Q 859 2406 926 2317 
Q 994 2228 1114 2167 
Q 1234 2106 1403 2061 
Q 1572 2016 1775 1966 
Q 1909 1931 2050 1892 
Q 2191 1853 2323 1798 
Q 2456 1744 2573 1670 
Q 2691 1597 2778 1494 
Q 2866 1391 2917 1253 
Q 2969 1116 2969 934 
z
" transform="scale(0.015625)"/>
     <path id="LiberationSans-20" transform="scale(0.015625)"/>
     <path id="LiberationSans-66" d="M 1128 2972 
L 1128 0 
L 566 0 
L 566 2972 
L 91 2972 
L 91 3381 
L 566 3381 
L 566 3763 
Q 566 3947 600 4105 
Q 634 4263 726 4380 
Q 819 4497 978 4564 
Q 1138 4631 1391 4631 
Q 1491 4631 1598 4622 
Q 1706 4613 1788 4594 
L 1788 4166 
Q 1734 4175 1664 4183 
Q 1594 4191 1538 4191 
Q 1413 4191 1333 4156 
Q 1253 4122 1208 4058 
Q 1163 3994 1145 3900 
Q 1128 3806 1128 3684 
L 1128 3381 
L 1788 3381 
L 1788 2972 
L 1128 2972 
z
" transform="scale(0.015625)"/>
     <path id="LiberationSans-6d" d="M 2400 0 
L 2400 2144 
Q 2400 2391 2369 2556 
Q 2338 2722 2264 2823 
Q 2191 2925 2072 2967 
Q 1953 3009 1781 3009 
Q 1603 3009 1459 2939 
Q 1316 2869 1214 2736 
Q 1113 2603 1058 2408 
Q 1003 2213 1003 1959 
L 1003 0 
L 444 0 
L 444 2659 
Q 444 2766 442 2883 
Q 441 3000 437 3104 
Q 434 3209 431 3284 
Q 428 3359 425 3381 
L 956 3381 
Q 959 3366 962 3297 
Q 966 3228 970 3139 
Q 975 3050 978 2958 
Q 981 2866 981 2803 
L 991 2803 
Q 1066 2950 1153 3069 
Q 1241 3188 1358 3270 
Q 1475 3353 1626 3398 
Q 1778 3444 1978 3444 
Q 2363 3444 2586 3291 
Q 2809 3138 2897 2803 
L 2906 2803 
Q 2981 2950 3075 3069 
Q 3169 3188 3294 3270 
Q 3419 3353 3575 3398 
Q 3731 3444 3931 3444 
Q 4188 3444 4373 3375 
Q 4559 3306 4678 3162 
Q 4797 3019 4853 2792 
Q 4909 2566 4909 2253 
L 4909 0 
L 4353 0 
L 4353 2144 
Q 4353 2391 4322 2556 
Q 4291 2722 4217 2823 
Q 4144 2925 4025 2967 
Q 3906 3009 3734 3009 
Q 3556 3009 3412 2942 
Q 3269 2875 3167 2744 
Q 3066 2613 3011 2416 
Q 2956 2219 2956 1959 
L 2956 0 
L 2400 0 
z
" transform="scale(0.015625)"/>
     <path id="LiberationSans-64" d="M 2566 544 
Q 2409 219 2151 78 
Q 1894 -63 1513 -63 
Q 872 -63 570 368 
Q 269 800 269 1675 
Q 269 3444 1513 3444 
Q 1897 3444 2153 3303 
Q 2409 3163 2566 2856 
L 2572 2856 
Q 2572 2888 2570 2955 
Q 2569 3022 2567 3095 
Q 2566 3169 2566 3234 
Q 2566 3300 2566 3328 
L 2566 4638 
L 3128 4638 
L 3128 697 
Q 3128 575 3129 462 
Q 3131 350 3134 256 
Q 3138 163 3141 95 
Q 3144 28 3147 0 
L 2609 0 
Q 2603 31 2598 89 
Q 2594 147 2589 222 
Q 2584 297 2581 380 
Q 2578 463 2578 544 
L 2566 544 
z
M 859 1694 
Q 859 1344 903 1094 
Q 947 844 1044 683 
Q 1141 522 1291 447 
Q 1441 372 1656 372 
Q 1878 372 2048 444 
Q 2219 516 2333 677 
Q 2447 838 2506 1097 
Q 2566 1356 2566 1731 
Q 2566 2091 2506 2339 
Q 2447 2588 2331 2741 
Q 2216 2894 2048 2961 
Q 1881 3028 1663 3028 
Q 1456 3028 1306 2956 
Q 1156 2884 1056 2725 
Q 956 2566 907 2311 
Q 859 2056 859 1694 
z
" transform="scale(0.015625)"/>
     <path id="LiberationSans-65" d="M 863 1572 
Q 863 1306 917 1082 
Q 972 859 1086 698 
Q 1200 538 1378 448 
Q 1556 359 1806 359 
Q 2172 359 2392 506 
Q 2613 653 2691 878 
L 3184 738 
Q 3131 597 3036 455 
Q 2941 313 2781 198 
Q 2622 84 2383 10 
Q 2144 -63 1806 -63 
Q 1056 -63 664 384 
Q 272 831 272 1713 
Q 272 2188 390 2517 
Q 509 2847 715 3053 
Q 922 3259 1197 3351 
Q 1472 3444 1784 3444 
Q 2209 3444 2495 3306 
Q 2781 3169 2954 2926 
Q 3128 2684 3201 2356 
Q 3275 2028 3275 1647 
L 3275 1572 
L 863 1572 
z
M 2694 2003 
Q 2647 2538 2422 2783 
Q 2197 3028 1775 3028 
Q 1634 3028 1479 2983 
Q 1325 2938 1194 2822 
Q 1063 2706 972 2507 
Q 881 2309 869 2003 
L 2694 2003 
z
" transform="scale(0.015625)"/>
     <path id="LiberationSans-70" d="M 3291 1706 
Q 3291 1322 3228 997 
Q 3166 672 3020 437 
Q 2875 203 2636 70 
Q 2397 -63 2047 -63 
Q 1684 -63 1412 75 
Q 1141 213 997 525 
L 981 525 
Q 984 519 986 469 
Q 988 419 989 344 
Q 991 269 992 176 
Q 994 84 994 -6 
L 994 -1328 
L 431 -1328 
L 431 2691 
Q 431 2813 429 2925 
Q 428 3038 425 3130 
Q 422 3222 419 3287 
Q 416 3353 413 3381 
L 956 3381 
Q 959 3372 964 3315 
Q 969 3259 973 3179 
Q 978 3100 983 3009 
Q 988 2919 988 2838 
L 1000 2838 
Q 1078 3000 1178 3114 
Q 1278 3228 1406 3301 
Q 1534 3375 1692 3408 
Q 1850 3441 2047 3441 
Q 2397 3441 2636 3316 
Q 2875 3191 3020 2964 
Q 3166 2738 3228 2417 
Q 3291 2097 3291 1706 
z
M 2700 1694 
Q 2700 2006 2662 2250 
Q 2625 2494 2533 2662 
Q 2441 2831 2287 2918 
Q 2134 3006 1903 3006 
Q 1716 3006 1550 2953 
Q 1384 2900 1261 2750 
Q 1138 2600 1066 2336 
Q 994 2072 994 1650 
Q 994 1291 1053 1042 
Q 1113 794 1227 641 
Q 1341 488 1509 420 
Q 1678 353 1897 353 
Q 2131 353 2286 443 
Q 2441 534 2533 706 
Q 2625 878 2662 1126 
Q 2700 1375 2700 1694 
z
" transform="scale(0.015625)"/>
     <path id="LiberationSans-72" d="M 444 0 
L 444 2594 
Q 444 2700 442 2811 
Q 441 2922 437 3025 
Q 434 3128 431 3218 
Q 428 3309 425 3381 
L 956 3381 
Q 959 3309 964 3217 
Q 969 3125 973 3028 
Q 978 2931 979 2842 
Q 981 2753 981 2691 
L 994 2691 
Q 1053 2884 1120 3026 
Q 1188 3169 1278 3261 
Q 1369 3353 1494 3398 
Q 1619 3444 1797 3444 
Q 1866 3444 1928 3433 
Q 1991 3422 2025 3413 
L 2025 2897 
Q 1969 2913 1894 2920 
Q 1819 2928 1725 2928 
Q 1531 2928 1395 2840 
Q 1259 2753 1173 2598 
Q 1088 2444 1047 2230 
Q 1006 2016 1006 1763 
L 1006 0 
L 444 0 
z
" transform="scale(0.015625)"/>
     <path id="LiberationSans-61" d="M 1294 -63 
Q 784 -63 528 206 
Q 272 475 272 944 
Q 272 1278 398 1492 
Q 525 1706 729 1828 
Q 934 1950 1196 1997 
Q 1459 2044 1731 2050 
L 2491 2063 
L 2491 2247 
Q 2491 2456 2447 2603 
Q 2403 2750 2312 2840 
Q 2222 2931 2086 2973 
Q 1950 3016 1766 3016 
Q 1603 3016 1472 2992 
Q 1341 2969 1244 2908 
Q 1147 2847 1087 2742 
Q 1028 2638 1009 2478 
L 422 2531 
Q 453 2731 540 2898 
Q 628 3066 789 3187 
Q 950 3309 1192 3376 
Q 1434 3444 1778 3444 
Q 2416 3444 2737 3151 
Q 3059 2859 3059 2306 
L 3059 850 
Q 3059 600 3125 473 
Q 3191 347 3375 347 
Q 3422 347 3469 353 
Q 3516 359 3559 369 
L 3559 19 
Q 3453 -6 3348 -18 
Q 3244 -31 3125 -31 
Q 2966 -31 2852 11 
Q 2738 53 2666 139 
Q 2594 225 2556 351 
Q 2519 478 2509 647 
L 2491 647 
Q 2400 484 2292 353 
Q 2184 222 2040 130 
Q 1897 38 1714 -12 
Q 1531 -63 1294 -63 
z
M 1422 359 
Q 1691 359 1892 457 
Q 2094 556 2226 709 
Q 2359 863 2425 1044 
Q 2491 1225 2491 1391 
L 2491 1669 
L 1875 1656 
Q 1669 1653 1483 1626 
Q 1297 1600 1156 1522 
Q 1016 1444 933 1303 
Q 850 1163 850 934 
Q 850 659 998 509 
Q 1147 359 1422 359 
z
" transform="scale(0.015625)"/>
     <path id="LiberationSans-6e" d="M 2578 0 
L 2578 2144 
Q 2578 2391 2542 2556 
Q 2506 2722 2425 2823 
Q 2344 2925 2211 2967 
Q 2078 3009 1881 3009 
Q 1681 3009 1520 2939 
Q 1359 2869 1245 2736 
Q 1131 2603 1068 2408 
Q 1006 2213 1006 1959 
L 1006 0 
L 444 0 
L 444 2659 
Q 444 2766 442 2883 
Q 441 3000 437 3104 
Q 434 3209 431 3284 
Q 428 3359 425 3381 
L 956 3381 
Q 959 3366 962 3297 
Q 966 3228 970 3139 
Q 975 3050 978 2958 
Q 981 2866 981 2803 
L 991 2803 
Q 1072 2950 1169 3069 
Q 1266 3188 1394 3270 
Q 1522 3353 1687 3398 
Q 1853 3444 2072 3444 
Q 2353 3444 2556 3375 
Q 2759 3306 2890 3162 
Q 3022 3019 3083 2792 
Q 3144 2566 3144 2253 
L 3144 0 
L 2578 0 
z
" transform="scale(0.015625)"/>
     <path id="LiberationSans-63" d="M 859 1706 
Q 859 1416 901 1172 
Q 944 928 1044 751 
Q 1144 575 1308 478 
Q 1472 381 1713 381 
Q 2013 381 2214 543 
Q 2416 706 2463 1044 
L 3031 1006 
Q 3003 797 2909 603 
Q 2816 409 2655 262 
Q 2494 116 2262 26 
Q 2031 -63 1728 -63 
Q 1331 -63 1053 71 
Q 775 206 601 442 
Q 428 678 350 998 
Q 272 1319 272 1694 
Q 272 2034 328 2295 
Q 384 2556 486 2751 
Q 588 2947 725 3080 
Q 863 3213 1023 3292 
Q 1184 3372 1362 3408 
Q 1541 3444 1722 3444 
Q 2006 3444 2228 3366 
Q 2450 3288 2611 3152 
Q 2772 3016 2872 2831 
Q 2972 2647 3013 2434 
L 2434 2391 
Q 2391 2672 2212 2837 
Q 2034 3003 1706 3003 
Q 1466 3003 1305 2923 
Q 1144 2844 1044 2683 
Q 944 2522 901 2278 
Q 859 2034 859 1706 
z
" transform="scale(0.015625)"/>
     <path id="LiberationSans-3a" d="M 584 2734 
L 584 3381 
L 1194 3381 
L 1194 2734 
L 584 2734 
z
M 584 0 
L 584 647 
L 1194 647 
L 1194 0 
L 584 0 
z
" transform="scale(0.015625)"/>
     <path id="LiberationSans-2c" d="M 1203 684 
L 1203 159 
Q 1203 -6 1189 -142 
Q 1175 -278 1144 -395 
Q 1113 -513 1067 -616 
Q 1022 -719 959 -819 
L 575 -819 
Q 716 -616 792 -409 
Q 869 -203 869 0 
L 594 0 
L 594 684 
L 1203 684 
z
" transform="scale(0.015625)"/>
     <path id="LiberationSans-77" d="M 3669 0 
L 3016 0 
L 2475 2181 
Q 2450 2266 2423 2391 
Q 2397 2516 2372 2634 
Q 2341 2772 2313 2919 
Q 2284 2778 2253 2641 
Q 2228 2522 2198 2394 
Q 2169 2266 2144 2169 
L 1588 0 
L 938 0 
L -9 3381 
L 547 3381 
L 1119 1084 
Q 1141 1013 1162 908 
Q 1184 803 1206 703 
Q 1228 588 1253 466 
Q 1278 584 1306 697 
Q 1331 794 1356 894 
Q 1381 994 1400 1059 
L 2013 3381 
L 2616 3381 
L 3206 1059 
Q 3228 978 3253 875 
Q 3278 772 3300 681 
Q 3325 575 3350 466 
Q 3375 584 3400 697 
Q 3422 794 3445 898 
Q 3469 1003 3491 1084 
L 4088 3381 
L 4638 3381 
L 3669 0 
z
" transform="scale(0.015625)"/>
     <path id="LiberationSans-68" d="M 991 2803 
Q 1084 2975 1193 3095 
Q 1303 3216 1434 3294 
Q 1566 3372 1722 3408 
Q 1878 3444 2072 3444 
Q 2397 3444 2605 3356 
Q 2813 3269 2933 3111 
Q 3053 2953 3098 2734 
Q 3144 2516 3144 2253 
L 3144 0 
L 2578 0 
L 2578 2144 
Q 2578 2359 2551 2521 
Q 2525 2684 2450 2792 
Q 2375 2900 2237 2954 
Q 2100 3009 1881 3009 
Q 1681 3009 1520 2937 
Q 1359 2866 1245 2734 
Q 1131 2603 1068 2415 
Q 1006 2228 1006 1994 
L 1006 0 
L 444 0 
L 444 4638 
L 1006 4638 
L 1006 3431 
Q 1006 3328 1003 3225 
Q 1000 3122 995 3034 
Q 991 2947 987 2886 
Q 984 2825 981 2803 
L 991 2803 
z
" transform="scale(0.015625)"/>
     <path id="LiberationSans-2d" d="M 284 1450 
L 284 1950 
L 1847 1950 
L 1847 1450 
L 284 1450 
z
" transform="scale(0.015625)"/>
     <path id="LiberationSans-62" d="M 3291 1706 
Q 3291 -63 2047 -63 
Q 1663 -63 1408 76 
Q 1153 216 994 525 
L 988 525 
Q 988 444 983 356 
Q 978 269 973 194 
Q 969 119 964 66 
Q 959 13 956 0 
L 413 0 
Q 416 28 419 95 
Q 422 163 425 256 
Q 428 350 429 462 
Q 431 575 431 697 
L 431 4638 
L 994 4638 
L 994 3316 
Q 994 3222 992 3136 
Q 991 3050 988 2984 
Q 984 2906 981 2838 
L 994 2838 
Q 1150 3163 1408 3303 
Q 1666 3444 2047 3444 
Q 2688 3444 2989 3012 
Q 3291 2581 3291 1706 
z
M 2700 1688 
Q 2700 2038 2656 2288 
Q 2613 2538 2516 2698 
Q 2419 2859 2269 2934 
Q 2119 3009 1903 3009 
Q 1681 3009 1511 2937 
Q 1341 2866 1227 2706 
Q 1113 2547 1053 2287 
Q 994 2028 994 1653 
Q 994 1291 1053 1044 
Q 1113 797 1227 642 
Q 1341 488 1509 420 
Q 1678 353 1897 353 
Q 2103 353 2253 425 
Q 2403 497 2503 656 
Q 2603 816 2651 1070 
Q 2700 1325 2700 1688 
z
" transform="scale(0.015625)"/>
    </defs>
    <use xlink:href="#LiberationSans-50"/>
    <use xlink:href="#LiberationSans-6c" x="66.699219"/>
    <use xlink:href="#LiberationSans-6f" x="88.916016"/>
    <use xlink:href="#LiberationSans-74" x="144.53125"/>
    <use xlink:href="#LiberationSans-73" x="172.314453"/>
    <use xlink:href="#LiberationSans-20" x="222.314453"/>
    <use xlink:href="#LiberationSans-6f" x="250.097656"/>
    <use xlink:href="#LiberationSans-66" x="305.712891"/>
    <use xlink:href="#LiberationSans-20" x="333.496094"/>
    <use xlink:href="#LiberationSans-6d" x="361.279297"/>
    <use xlink:href="#LiberationSans-6f" x="444.580078"/>
    <use xlink:href="#LiberationSans-64" x="500.195312"/>
    <use xlink:href="#LiberationSans-65" x="555.810547"/>
    <use xlink:href="#LiberationSans-6c" x="611.425781"/>
    <use xlink:href="#LiberationSans-20" x="633.642578"/>
    <use xlink:href="#LiberationSans-70" x="661.425781"/>
    <use xlink:href="#LiberationSans-65" x="717.041016"/>
    <use xlink:href="#LiberationSans-72" x="772.65625"/>
    <use xlink:href="#LiberationSans-66" x="805.957031"/>
    <use xlink:href="#LiberationSans-6f" x="833.740234"/>
    <use xlink:href="#LiberationSans-72" x="889.355469"/>
    <use xlink:href="#LiberationSans-6d" x="922.65625"/>
    <use xlink:href="#LiberationSans-61" x="1005.957031"/>
    <use xlink:href="#LiberationSans-6e" x="1061.572266"/>
    <use xlink:href="#LiberationSans-63" x="1117.1875"/>
    <use xlink:href="#LiberationSans-65" x="1167.1875"/>
    <use xlink:href="#LiberationSans-3a" x="1222.802734"/>
    <use xlink:href="#LiberationSans-20" x="1250.585938"/>
    <use xlink:href="#LiberationSans-6d" x="1278.369141"/>
    <use xlink:href="#LiberationSans-66" x="1361.669922"/>
    <use xlink:href="#LiberationSans-63" x="1389.453125"/>
    <use xlink:href="#LiberationSans-63" x="1439.453125"/>
    <use xlink:href="#LiberationSans-2c" x="1489.453125"/>
    <use xlink:href="#LiberationSans-20" x="1517.236328"/>
    <use xlink:href="#LiberationSans-77" x="1545.019531"/>
    <use xlink:href="#LiberationSans-61" x="1617.236328"/>
    <use xlink:href="#LiberationSans-72" x="1672.851562"/>
    <use xlink:href="#LiberationSans-6f" x="1706.152344"/>
    <use xlink:href="#LiberationSans-68" x="1761.767578"/>
    <use xlink:href="#LiberationSans-6d" x="1817.382812"/>
    <use xlink:href="#LiberationSans-61" x="1900.683594"/>
    <use xlink:href="#LiberationSans-31" x="1956.298828"/>
    <use xlink:href="#LiberationSans-38" x="2011.914062"/>
    <use xlink:href="#LiberationSans-20" x="2067.529297"/>
    <use xlink:href="#LiberationSans-2d" x="2095.3125"/>
    <use xlink:href="#LiberationSans-20" x="2128.613281"/>
    <use xlink:href="#LiberationSans-6c" x="2156.396484"/>
    <use xlink:href="#LiberationSans-72" x="2178.613281"/>
    <use xlink:href="#LiberationSans-20" x="2211.914062"/>
    <use xlink:href="#LiberationSans-35" x="2239.697266"/>
    <use xlink:href="#LiberationSans-65" x="2295.3125"/>
    <use xlink:href="#LiberationSans-2d" x="2350.927734"/>
    <use xlink:href="#LiberationSans-30" x="2384.228516"/>
    <use xlink:href="#LiberationSans-35" x="2439.84375"/>
    <use xlink:href="#LiberationSans-2c" x="2495.458984"/>
    <use xlink:href="#LiberationSans-20" x="2523.242188"/>
    <use xlink:href="#LiberationSans-62" x="2551.025391"/>
    <use xlink:href="#LiberationSans-61" x="2606.640625"/>
    <use xlink:href="#LiberationSans-74" x="2662.255859"/>
    <use xlink:href="#LiberationSans-63" x="2690.039062"/>
    <use xlink:href="#LiberationSans-68" x="2740.039062"/>
    <use xlink:href="#LiberationSans-20" x="2795.654297"/>
    <use xlink:href="#LiberationSans-33" x="2823.4375"/>
    <use xlink:href="#LiberationSans-32" x="2879.052734"/>
   </g>
  </g>
 </g>
 <defs>
  <clipPath id="pcbf94621c3">
   <rect x="108" y="77.76" width="669.6" height="226.8"/>
  </clipPath>
  <clipPath id="p1e4ffcd070">
   <rect x="108" y="349.92" width="669.6" height="226.8"/>
  </clipPath>
 </defs>
</svg>
