<?xml version="1.0" encoding="utf-8" standalone="no"?>
<!DOCTYPE svg PUBLIC "-//W3C//DTD SVG 1.1//EN"
  "http://www.w3.org/Graphics/SVG/1.1/DTD/svg11.dtd">
<svg xmlns:xlink="http://www.w3.org/1999/xlink" width="864pt" height="648pt" viewBox="0 0 864 648" xmlns="http://www.w3.org/2000/svg" version="1.1">
 <metadata>
  <rdf:RDF xmlns:dc="http://purl.org/dc/elements/1.1/" xmlns:cc="http://creativecommons.org/ns#" xmlns:rdf="http://www.w3.org/1999/02/22-rdf-syntax-ns#">
   <cc:Work>
    <dc:type rdf:resource="http://purl.org/dc/dcmitype/StillImage"/>
    <dc:date>2022-03-13T01:57:20.265982</dc:date>
    <dc:format>image/svg+xml</dc:format>
    <dc:creator>
     <cc:Agent>
      <dc:title>Matplotlib v3.5.0, https://matplotlib.org/</dc:title>
     </cc:Agent>
    </dc:creator>
   </cc:Work>
  </rdf:RDF>
 </metadata>
 <defs>
  <style type="text/css">*{stroke-linejoin: round; stroke-linecap: butt}</style>
 </defs>
 <g id="figure_1">
  <g id="patch_1">
   <path d="M 0 648 
L 864 648 
L 864 0 
L 0 0 
z
" style="fill: #ffffff"/>
  </g>
  <g id="axes_1">
   <g id="patch_2">
    <path d="M 108 304.56 
L 777.6 304.56 
L 777.6 77.76 
L 108 77.76 
z
" style="fill: #eaeaf2"/>
   </g>
   <g id="matplotlib.axis_1">
    <g id="xtick_1">
     <g id="line2d_1"/>
     <g id="text_1">
      <!-- 0 -->
      <g style="fill: #262626" transform="translate(135.655895 318.806875)scale(0.1 -0.1)">
       <defs>
        <path id="LiberationSans-30" d="M 3309 2203 
Q 3309 1569 3189 1136 
Q 3069 703 2861 436 
Q 2653 169 2372 53 
Q 2091 -63 1772 -63 
Q 1450 -63 1172 53 
Q 894 169 689 434 
Q 484 700 367 1133 
Q 250 1566 250 2203 
Q 250 2869 367 3305 
Q 484 3741 690 4000 
Q 897 4259 1178 4364 
Q 1459 4469 1791 4469 
Q 2106 4469 2382 4364 
Q 2659 4259 2865 4000 
Q 3072 3741 3190 3305 
Q 3309 2869 3309 2203 
z
M 2738 2203 
Q 2738 2728 2675 3076 
Q 2613 3425 2491 3633 
Q 2369 3841 2192 3927 
Q 2016 4013 1791 4013 
Q 1553 4013 1372 3925 
Q 1191 3838 1067 3630 
Q 944 3422 881 3073 
Q 819 2725 819 2203 
Q 819 1697 883 1350 
Q 947 1003 1070 792 
Q 1194 581 1372 489 
Q 1550 397 1778 397 
Q 2000 397 2178 489 
Q 2356 581 2479 792 
Q 2603 1003 2670 1350 
Q 2738 1697 2738 2203 
z
" transform="scale(0.015625)"/>
       </defs>
       <use xlink:href="#LiberationSans-30"/>
      </g>
     </g>
    </g>
    <g id="xtick_2">
     <g id="line2d_2"/>
     <g id="text_2">
      <!-- 50 -->
      <g style="fill: #262626" transform="translate(255.109818 318.806875)scale(0.1 -0.1)">
       <defs>
        <path id="LiberationSans-35" d="M 3291 1434 
Q 3291 1103 3191 828 
Q 3091 553 2894 354 
Q 2697 156 2405 46 
Q 2113 -63 1728 -63 
Q 1381 -63 1123 18 
Q 866 100 687 242 
Q 509 384 404 575 
Q 300 766 256 984 
L 825 1050 
Q 859 925 921 808 
Q 984 691 1092 598 
Q 1200 506 1358 451 
Q 1516 397 1741 397 
Q 1959 397 2137 464 
Q 2316 531 2442 662 
Q 2569 794 2637 984 
Q 2706 1175 2706 1422 
Q 2706 1625 2640 1795 
Q 2575 1966 2453 2089 
Q 2331 2213 2154 2281 
Q 1978 2350 1753 2350 
Q 1613 2350 1494 2325 
Q 1375 2300 1273 2256 
Q 1172 2213 1089 2155 
Q 1006 2097 934 2034 
L 384 2034 
L 531 4403 
L 3034 4403 
L 3034 3925 
L 1044 3925 
L 959 2528 
Q 1109 2644 1334 2726 
Q 1559 2809 1869 2809 
Q 2197 2809 2459 2709 
Q 2722 2609 2906 2426 
Q 3091 2244 3191 1991 
Q 3291 1738 3291 1434 
z
" transform="scale(0.015625)"/>
       </defs>
       <use xlink:href="#LiberationSans-35"/>
       <use xlink:href="#LiberationSans-30" x="55.615234"/>
      </g>
     </g>
    </g>
    <g id="xtick_3">
     <g id="line2d_3"/>
     <g id="text_3">
      <!-- 100 -->
      <g style="fill: #262626" transform="translate(374.563742 318.806875)scale(0.1 -0.1)">
       <defs>
        <path id="LiberationSans-31" d="M 488 0 
L 488 478 
L 1609 478 
L 1609 3866 
L 616 3156 
L 616 3688 
L 1656 4403 
L 2175 4403 
L 2175 478 
L 3247 478 
L 3247 0 
L 488 0 
z
" transform="scale(0.015625)"/>
       </defs>
       <use xlink:href="#LiberationSans-31"/>
       <use xlink:href="#LiberationSans-30" x="55.615234"/>
       <use xlink:href="#LiberationSans-30" x="111.230469"/>
      </g>
     </g>
    </g>
    <g id="xtick_4">
     <g id="line2d_4"/>
     <g id="text_4">
      <!-- 150 -->
      <g style="fill: #262626" transform="translate(496.798134 318.806875)scale(0.1 -0.1)">
       <use xlink:href="#LiberationSans-31"/>
       <use xlink:href="#LiberationSans-35" x="55.615234"/>
       <use xlink:href="#LiberationSans-30" x="111.230469"/>
      </g>
     </g>
    </g>
    <g id="xtick_5">
     <g id="line2d_5"/>
     <g id="text_5">
      <!-- 200 -->
      <g style="fill: #262626" transform="translate(619.032526 318.806875)scale(0.1 -0.1)">
       <defs>
        <path id="LiberationSans-32" d="M 322 0 
L 322 397 
Q 481 763 711 1042 
Q 941 1322 1194 1548 
Q 1447 1775 1695 1969 
Q 1944 2163 2144 2356 
Q 2344 2550 2467 2762 
Q 2591 2975 2591 3244 
Q 2591 3431 2534 3573 
Q 2478 3716 2372 3812 
Q 2266 3909 2117 3957 
Q 1969 4006 1788 4006 
Q 1619 4006 1470 3959 
Q 1322 3913 1206 3819 
Q 1091 3725 1017 3586 
Q 944 3447 922 3263 
L 347 3316 
Q 375 3553 478 3762 
Q 581 3972 762 4130 
Q 944 4288 1198 4378 
Q 1453 4469 1788 4469 
Q 2116 4469 2372 4391 
Q 2628 4313 2804 4159 
Q 2981 4006 3075 3781 
Q 3169 3556 3169 3263 
Q 3169 3041 3089 2841 
Q 3009 2641 2876 2459 
Q 2744 2278 2569 2109 
Q 2394 1941 2203 1780 
Q 2013 1619 1819 1461 
Q 1625 1303 1454 1143 
Q 1284 984 1150 820 
Q 1016 656 941 478 
L 3238 478 
L 3238 0 
L 322 0 
z
" transform="scale(0.015625)"/>
       </defs>
       <use xlink:href="#LiberationSans-32"/>
       <use xlink:href="#LiberationSans-30" x="55.615234"/>
       <use xlink:href="#LiberationSans-30" x="111.230469"/>
      </g>
     </g>
    </g>
    <g id="xtick_6">
     <g id="line2d_6"/>
     <g id="text_6">
      <!-- 250 -->
      <g style="fill: #262626" transform="translate(741.266918 318.806875)scale(0.1 -0.1)">
       <use xlink:href="#LiberationSans-32"/>
       <use xlink:href="#LiberationSans-35" x="55.615234"/>
       <use xlink:href="#LiberationSans-30" x="111.230469"/>
      </g>
     </g>
    </g>
   </g>
   <g id="matplotlib.axis_2">
    <g id="ytick_1">
     <g id="line2d_7"/>
     <g id="text_7">
      <!-- 0.75 -->
      <g style="fill: #262626" transform="translate(81.539062 280.713333)scale(0.1 -0.1)">
       <defs>
        <path id="LiberationSans-2e" d="M 584 0 
L 584 684 
L 1194 684 
L 1194 0 
L 584 0 
z
" transform="scale(0.015625)"/>
        <path id="LiberationSans-37" d="M 3238 3947 
Q 2906 3441 2628 2973 
Q 2350 2506 2150 2032 
Q 1950 1559 1839 1061 
Q 1728 563 1728 0 
L 1141 0 
Q 1141 528 1266 1036 
Q 1391 1544 1603 2033 
Q 1816 2522 2097 2994 
Q 2378 3466 2694 3925 
L 328 3925 
L 328 4403 
L 3238 4403 
L 3238 3947 
z
" transform="scale(0.015625)"/>
       </defs>
       <use xlink:href="#LiberationSans-30"/>
       <use xlink:href="#LiberationSans-2e" x="55.615234"/>
       <use xlink:href="#LiberationSans-37" x="83.398438"/>
       <use xlink:href="#LiberationSans-35" x="139.013672"/>
      </g>
     </g>
    </g>
    <g id="ytick_2">
     <g id="line2d_8"/>
     <g id="text_8">
      <!-- 1.00 -->
      <g style="fill: #262626" transform="translate(81.539062 252.077423)scale(0.1 -0.1)">
       <use xlink:href="#LiberationSans-31"/>
       <use xlink:href="#LiberationSans-2e" x="55.615234"/>
       <use xlink:href="#LiberationSans-30" x="83.398438"/>
       <use xlink:href="#LiberationSans-30" x="139.013672"/>
      </g>
     </g>
    </g>
    <g id="ytick_3">
     <g id="line2d_9"/>
     <g id="text_9">
      <!-- 1.25 -->
      <g style="fill: #262626" transform="translate(81.539062 223.441513)scale(0.1 -0.1)">
       <use xlink:href="#LiberationSans-31"/>
       <use xlink:href="#LiberationSans-2e" x="55.615234"/>
       <use xlink:href="#LiberationSans-32" x="83.398438"/>
       <use xlink:href="#LiberationSans-35" x="139.013672"/>
      </g>
     </g>
    </g>
    <g id="ytick_4">
     <g id="line2d_10"/>
     <g id="text_10">
      <!-- 1.50 -->
      <g style="fill: #262626" transform="translate(81.539062 194.805602)scale(0.1 -0.1)">
       <use xlink:href="#LiberationSans-31"/>
       <use xlink:href="#LiberationSans-2e" x="55.615234"/>
       <use xlink:href="#LiberationSans-35" x="83.398438"/>
       <use xlink:href="#LiberationSans-30" x="139.013672"/>
      </g>
     </g>
    </g>
    <g id="ytick_5">
     <g id="line2d_11"/>
     <g id="text_11">
      <!-- 1.75 -->
      <g style="fill: #262626" transform="translate(81.539062 166.169692)scale(0.1 -0.1)">
       <use xlink:href="#LiberationSans-31"/>
       <use xlink:href="#LiberationSans-2e" x="55.615234"/>
       <use xlink:href="#LiberationSans-37" x="83.398438"/>
       <use xlink:href="#LiberationSans-35" x="139.013672"/>
      </g>
     </g>
    </g>
    <g id="ytick_6">
     <g id="line2d_12"/>
     <g id="text_12">
      <!-- 2.00 -->
      <g style="fill: #262626" transform="translate(81.539062 137.533782)scale(0.1 -0.1)">
       <use xlink:href="#LiberationSans-32"/>
       <use xlink:href="#LiberationSans-2e" x="55.615234"/>
       <use xlink:href="#LiberationSans-30" x="83.398438"/>
       <use xlink:href="#LiberationSans-30" x="139.013672"/>
      </g>
     </g>
    </g>
    <g id="ytick_7">
     <g id="line2d_13"/>
     <g id="text_13">
      <!-- 2.25 -->
      <g style="fill: #262626" transform="translate(81.539062 108.897872)scale(0.1 -0.1)">
       <use xlink:href="#LiberationSans-32"/>
       <use xlink:href="#LiberationSans-2e" x="55.615234"/>
       <use xlink:href="#LiberationSans-32" x="83.398438"/>
       <use xlink:href="#LiberationSans-35" x="139.013672"/>
      </g>
     </g>
    </g>
   </g>
   <g id="line2d_14">
    <path d="M 138.436364 88.069091 
L 140.881051 100.721477 
L 143.325739 106.29239 
L 148.215115 110.831255 
L 150.659803 114.921183 
L 153.104491 119.579745 
L 155.549179 118.928636 
L 157.993866 125.600634 
L 160.438554 128.09556 
L 162.883242 131.495653 
L 165.32793 134.640746 
L 167.772618 141.513331 
L 170.217306 142.763607 
L 172.661993 146.083356 
L 175.106681 148.541551 
L 177.551369 149.655089 
L 179.996057 151.843468 
L 182.440745 158.461325 
L 184.885433 159.933721 
L 187.33012 164.265732 
L 189.774808 166.474388 
L 192.219496 168.209814 
L 194.664184 172.049725 
L 197.108872 171.979949 
L 199.55356 174.194013 
L 201.998248 176.195595 
L 204.442935 178.722828 
L 206.887623 183.942365 
L 209.332311 183.474966 
L 211.776999 184.144072 
L 214.221687 185.000138 
L 216.666375 191.614431 
L 219.111062 189.000463 
L 224.000438 197.960246 
L 226.445126 195.133088 
L 228.889814 195.640618 
L 231.334502 200.006288 
L 233.779189 201.678807 
L 236.223877 197.947533 
L 238.668565 204.221156 
L 241.113253 202.000402 
L 243.557941 201.659458 
L 246.002629 203.430264 
L 248.447317 203.717886 
L 250.892004 209.118088 
L 253.336692 209.473819 
L 255.78138 207.766153 
L 258.226068 210.895311 
L 260.670756 216.150268 
L 263.115444 211.674801 
L 265.560131 212.301045 
L 268.004819 215.595192 
L 270.449507 211.649226 
L 272.894195 216.097916 
L 275.338883 214.427786 
L 277.783571 217.82941 
L 280.228258 214.541912 
L 285.117634 217.97901 
L 287.562322 221.611861 
L 290.00701 225.582515 
L 292.451698 223.272296 
L 294.896386 222.805866 
L 297.341073 223.436739 
L 299.785761 220.181043 
L 302.230449 222.613417 
L 304.675137 221.342373 
L 307.119825 226.369502 
L 309.564513 225.345784 
L 312.0092 227.033296 
L 314.453888 224.393808 
L 316.898576 228.292953 
L 319.343264 227.625909 
L 321.787952 228.619668 
L 324.23264 227.991867 
L 326.677327 231.191333 
L 329.122015 231.951011 
L 331.566703 227.796333 
L 334.011391 227.884692 
L 336.456079 229.925559 
L 338.900767 231.336332 
L 341.345455 233.522649 
L 343.790142 227.181381 
L 346.23483 230.267636 
L 348.679518 230.512191 
L 351.124206 235.02129 
L 353.568894 235.095994 
L 356.013582 233.296255 
L 358.458269 235.696185 
L 360.902957 240.092209 
L 363.347645 234.841649 
L 365.792333 238.867113 
L 368.237021 239.731166 
L 370.681709 241.682159 
L 373.126396 236.960512 
L 375.571084 239.369154 
L 378.015772 240.039338 
L 380.46046 239.995698 
L 382.905148 243.168264 
L 385.349836 235.903367 
L 387.794524 244.967362 
L 390.239211 242.991259 
L 392.683899 240.238628 
L 395.128587 247.211766 
L 397.573275 243.273132 
L 402.462651 245.594944 
L 404.907338 244.628276 
L 407.352026 242.700728 
L 409.796714 246.06603 
L 412.241402 246.222376 
L 414.68609 251.868027 
L 417.130778 244.323654 
L 419.575465 246.137717 
L 422.020153 249.9008 
L 424.464841 244.833273 
L 426.909529 249.065639 
L 429.354217 252.239059 
L 431.798905 252.536157 
L 434.243593 251.135072 
L 436.68828 250.132035 
L 439.132968 252.427302 
L 441.577656 252.856953 
L 444.022344 252.392496 
L 446.467032 254.612752 
L 448.91172 252.268696 
L 451.356407 255.153804 
L 453.801095 253.149388 
L 456.245783 254.635098 
L 458.690471 256.276648 
L 461.135159 256.253073 
L 463.579847 257.490541 
L 466.024535 256.27619 
L 468.469222 255.238292 
L 470.91391 258.143753 
L 473.358598 256.017967 
L 475.803286 262.586961 
L 478.247974 263.091057 
L 480.692662 259.972659 
L 485.582037 259.145261 
L 488.026725 258.859012 
L 490.471413 263.559903 
L 492.916101 262.510276 
L 495.360789 259.47455 
L 497.805476 258.947091 
L 502.694852 263.548645 
L 505.13954 263.525098 
L 507.584228 264.294408 
L 510.028916 263.478767 
L 512.473604 264.175032 
L 514.918291 266.307386 
L 517.362979 264.58954 
L 519.807667 266.979387 
L 522.252355 267.258215 
L 524.697043 264.00084 
L 527.141731 265.833385 
L 529.586418 266.702108 
L 532.031106 265.140786 
L 534.475794 268.129458 
L 536.920482 265.558455 
L 539.36517 266.237549 
L 541.809858 265.934498 
L 544.254545 270.235601 
L 546.699233 269.119298 
L 549.143921 269.66201 
L 551.588609 269.469349 
L 554.033297 270.076443 
L 556.477985 272.811643 
L 558.922673 270.909104 
L 561.36736 274.037579 
L 563.812048 272.96379 
L 566.256736 271.042797 
L 568.701424 272.925605 
L 571.146112 273.809287 
L 573.5908 273.817889 
L 576.035487 273.411752 
L 578.480175 273.433415 
L 583.369551 273.753897 
L 585.814239 276.006814 
L 588.258927 272.52269 
L 590.703614 275.481232 
L 593.148302 278.059295 
L 595.59299 274.568288 
L 598.037678 273.301245 
L 600.482366 277.863473 
L 602.927054 278.963575 
L 605.371742 276.791002 
L 607.816429 275.864041 
L 610.261117 277.418693 
L 612.705805 275.16017 
L 615.150493 276.565502 
L 617.595181 281.162604 
L 620.039869 279.097145 
L 622.484556 278.632559 
L 624.929244 278.583088 
L 627.373932 281.189211 
L 629.81862 279.894414 
L 632.263308 280.583647 
L 634.707996 281.991333 
L 637.152683 278.114453 
L 639.597371 280.748035 
L 642.042059 281.068578 
L 644.486747 280.357921 
L 646.931435 281.623504 
L 649.376123 282.240879 
L 651.820811 284.076005 
L 654.265498 280.0706 
L 656.710186 284.114784 
L 659.154874 283.526452 
L 661.599562 288.398267 
L 664.04425 282.191019 
L 666.488938 285.81266 
L 668.933625 282.878054 
L 671.378313 285.114872 
L 673.823001 285.121038 
L 676.267689 286.651289 
L 678.712377 290.313299 
L 681.157065 286.629981 
L 686.04644 291.368464 
L 688.491128 287.330417 
L 690.935816 285.702958 
L 693.380504 287.011103 
L 695.825192 288.449041 
L 698.26988 285.034167 
L 700.714567 285.777001 
L 703.159255 286.325468 
L 705.603943 289.514788 
L 708.048631 286.941908 
L 710.493319 288.504111 
L 712.938007 291.361513 
L 715.382694 287.205217 
L 717.827382 292.288816 
L 720.27207 289.17136 
L 722.716758 291.366757 
L 725.161446 293.172853 
L 727.606134 293.008853 
L 730.050821 287.883745 
L 732.495509 288.377259 
L 734.940197 294.220091 
L 737.384885 290.207052 
L 739.829573 290.109251 
L 742.274261 291.568832 
L 744.718949 294.250909 
L 747.163636 293.006334 
L 747.163636 293.006334 
" clip-path="url(#p190064a355)" style="fill: none; stroke: #ff0000; stroke-width: 1.75; stroke-linecap: round"/>
   </g>
   <g id="line2d_15">
    <path d="M 138.436364 99.95485 
L 140.881051 105.488785 
L 143.325739 108.815007 
L 148.215115 113.841672 
L 150.659803 117.173383 
L 153.104491 120.196608 
L 155.549179 124.246883 
L 162.883242 135.296116 
L 165.32793 137.781907 
L 167.772618 141.54176 
L 170.217306 143.321058 
L 172.661993 147.891739 
L 175.106681 147.789971 
L 177.551369 151.585122 
L 179.996057 155.150369 
L 182.440745 158.14044 
L 184.885433 158.112612 
L 187.33012 162.361726 
L 189.774808 167.280764 
L 192.219496 169.279958 
L 194.664184 172.049971 
L 197.108872 174.634567 
L 199.55356 177.825758 
L 201.998248 179.601124 
L 204.442935 181.95314 
L 206.887623 183.466118 
L 209.332311 186.757657 
L 211.776999 186.863331 
L 214.221687 187.780296 
L 216.666375 189.514821 
L 219.111062 190.090297 
L 221.55575 193.196638 
L 224.000438 195.268037 
L 228.889814 196.881486 
L 231.334502 197.489624 
L 233.779189 197.258805 
L 236.223877 201.131173 
L 238.668565 201.938669 
L 241.113253 198.838964 
L 243.557941 203.924235 
L 246.002629 204.604975 
L 248.447317 205.134871 
L 250.892004 207.256151 
L 253.336692 207.735594 
L 255.78138 206.500993 
L 258.226068 209.404467 
L 260.670756 210.869449 
L 263.115444 210.337436 
L 265.560131 210.023542 
L 268.004819 211.197229 
L 270.449507 211.340794 
L 272.894195 214.044172 
L 275.338883 213.380883 
L 277.783571 213.763473 
L 280.228258 211.390292 
L 282.672946 215.362626 
L 285.117634 217.608409 
L 287.562322 218.163444 
L 290.00701 217.279536 
L 292.451698 218.478498 
L 294.896386 218.784786 
L 297.341073 219.482225 
L 299.785761 219.450273 
L 302.230449 219.153421 
L 304.675137 220.219413 
L 307.119825 221.758376 
L 309.564513 222.010291 
L 312.0092 222.560956 
L 314.453888 222.067354 
L 316.898576 223.771838 
L 319.343264 223.588647 
L 321.787952 224.645368 
L 324.23264 225.532075 
L 326.677327 224.220804 
L 329.122015 226.702239 
L 331.566703 226.031931 
L 334.011391 225.95739 
L 336.456079 222.47627 
L 338.900767 227.640724 
L 341.345455 229.238457 
L 343.790142 225.830935 
L 346.23483 229.219709 
L 348.679518 224.405032 
L 351.124206 229.724904 
L 353.568894 231.460835 
L 356.013582 230.993682 
L 358.458269 231.051428 
L 360.902957 230.582376 
L 363.347645 232.208224 
L 365.792333 231.128426 
L 368.237021 232.519577 
L 370.681709 231.711658 
L 373.126396 233.419911 
L 375.571084 234.820334 
L 378.015772 234.292704 
L 380.46046 232.738598 
L 382.905148 236.546543 
L 385.349836 235.671033 
L 390.239211 236.904596 
L 392.683899 236.305292 
L 395.128587 233.722731 
L 397.573275 235.814161 
L 400.017963 237.469994 
L 402.462651 237.874214 
L 404.907338 238.971543 
L 407.352026 236.551254 
L 409.796714 238.691199 
L 412.241402 239.191165 
L 414.68609 240.339837 
L 417.130778 239.042261 
L 419.575465 241.791997 
L 422.020153 240.731589 
L 424.464841 242.651845 
L 426.909529 240.383531 
L 429.354217 242.768688 
L 431.798905 240.820699 
L 434.243593 242.26509 
L 436.68828 240.829834 
L 439.132968 242.524583 
L 441.577656 238.734321 
L 444.022344 241.445332 
L 446.467032 242.654425 
L 448.91172 242.84402 
L 451.356407 243.543767 
L 453.801095 241.763062 
L 456.245783 243.945023 
L 458.690471 245.136994 
L 461.135159 245.178927 
L 463.579847 246.316252 
L 466.024535 247.146606 
L 468.469222 241.199466 
L 470.91391 243.063683 
L 473.358598 247.887289 
L 475.803286 247.902774 
L 478.247974 245.675875 
L 480.692662 240.10966 
L 483.137349 247.50571 
L 485.582037 248.375143 
L 488.026725 246.761066 
L 490.471413 249.286162 
L 492.916101 249.025843 
L 495.360789 249.462205 
L 497.805476 249.124737 
L 500.250164 248.134084 
L 502.694852 248.531612 
L 505.13954 249.38903 
L 507.584228 249.548564 
L 510.028916 250.951506 
L 512.473604 250.176822 
L 514.918291 251.805796 
L 517.362979 252.14095 
L 519.807667 251.946112 
L 522.252355 252.306888 
L 524.697043 252.169918 
L 527.141731 252.196729 
L 529.586418 251.911511 
L 532.031106 250.495938 
L 534.475794 252.977619 
L 536.920482 254.544833 
L 539.36517 253.351129 
L 541.809858 253.731889 
L 544.254545 253.774417 
L 546.699233 252.082016 
L 549.143921 252.013525 
L 551.588609 250.314946 
L 554.033297 252.746377 
L 556.477985 253.944786 
L 558.922673 253.063937 
L 563.812048 254.208601 
L 566.256736 254.756303 
L 568.701424 253.831425 
L 571.146112 252.593302 
L 573.5908 255.519019 
L 576.035487 256.324398 
L 578.480175 254.477113 
L 580.924863 256.51794 
L 583.369551 255.393874 
L 585.814239 254.518016 
L 588.258927 256.526924 
L 590.703614 256.509494 
L 593.148302 256.782465 
L 595.59299 253.304321 
L 598.037678 254.936634 
L 600.482366 257.204913 
L 602.927054 254.99599 
L 605.371742 256.118964 
L 607.816429 255.75082 
L 610.261117 257.63485 
L 612.705805 252.508793 
L 615.150493 255.762679 
L 617.595181 257.189879 
L 620.039869 257.10496 
L 622.484556 255.971753 
L 624.929244 258.22013 
L 627.373932 255.122344 
L 629.81862 258.276046 
L 632.263308 256.851175 
L 634.707996 258.487646 
L 637.152683 252.641325 
L 639.597371 257.008142 
L 642.042059 258.967498 
L 644.486747 255.038497 
L 646.931435 258.231361 
L 649.376123 257.501806 
L 651.820811 256.651025 
L 654.265498 259.403942 
L 656.710186 257.419434 
L 659.154874 256.411979 
L 661.599562 259.056185 
L 664.04425 259.069553 
L 666.488938 257.980791 
L 668.933625 257.958083 
L 671.378313 257.300359 
L 673.823001 259.672898 
L 676.267689 256.645529 
L 678.712377 260.053945 
L 681.157065 255.122979 
L 683.601752 260.843588 
L 686.04644 260.44369 
L 688.491128 258.033573 
L 690.935816 257.65213 
L 693.380504 259.402836 
L 695.825192 258.8704 
L 698.26988 258.763968 
L 700.714567 258.776305 
L 703.159255 252.432969 
L 705.603943 258.630064 
L 708.048631 256.651626 
L 710.493319 261.175915 
L 712.938007 256.78241 
L 715.382694 260.149596 
L 717.827382 255.975337 
L 722.716758 259.254096 
L 725.161446 258.979487 
L 727.606134 260.860233 
L 730.050821 256.124863 
L 732.495509 259.940338 
L 734.940197 252.33516 
L 737.384885 253.419628 
L 739.829573 260.213274 
L 742.274261 256.283414 
L 744.718949 257.965122 
L 747.163636 257.914034 
L 747.163636 257.914034 
" clip-path="url(#p190064a355)" style="fill: none; stroke: #008000; stroke-width: 1.75; stroke-linecap: round"/>
   </g>
   <g id="patch_3">
    <path d="M 108 304.56 
L 108 77.76 
" style="fill: none"/>
   </g>
   <g id="patch_4">
    <path d="M 777.6 304.56 
L 777.6 77.76 
" style="fill: none"/>
   </g>
   <g id="patch_5">
    <path d="M 108 304.56 
L 777.6 304.56 
" style="fill: none"/>
   </g>
   <g id="patch_6">
    <path d="M 108 77.76 
L 777.6 77.76 
" style="fill: none"/>
   </g>
  </g>
  <g id="axes_2">
   <g id="patch_7">
    <path d="M 108 576.72 
L 777.6 576.72 
L 777.6 349.92 
L 108 349.92 
z
" style="fill: #eaeaf2"/>
   </g>
   <g id="matplotlib.axis_3">
    <g id="xtick_7">
     <g id="line2d_16"/>
     <g id="text_14">
      <!-- 0 -->
      <g style="fill: #262626" transform="translate(135.655895 590.966875)scale(0.1 -0.1)">
       <use xlink:href="#LiberationSans-30"/>
      </g>
     </g>
    </g>
    <g id="xtick_8">
     <g id="line2d_17"/>
     <g id="text_15">
      <!-- 50 -->
      <g style="fill: #262626" transform="translate(255.109818 590.966875)scale(0.1 -0.1)">
       <use xlink:href="#LiberationSans-35"/>
       <use xlink:href="#LiberationSans-30" x="55.615234"/>
      </g>
     </g>
    </g>
    <g id="xtick_9">
     <g id="line2d_18"/>
     <g id="text_16">
      <!-- 100 -->
      <g style="fill: #262626" transform="translate(374.563742 590.966875)scale(0.1 -0.1)">
       <use xlink:href="#LiberationSans-31"/>
       <use xlink:href="#LiberationSans-30" x="55.615234"/>
       <use xlink:href="#LiberationSans-30" x="111.230469"/>
      </g>
     </g>
    </g>
    <g id="xtick_10">
     <g id="line2d_19"/>
     <g id="text_17">
      <!-- 150 -->
      <g style="fill: #262626" transform="translate(496.798134 590.966875)scale(0.1 -0.1)">
       <use xlink:href="#LiberationSans-31"/>
       <use xlink:href="#LiberationSans-35" x="55.615234"/>
       <use xlink:href="#LiberationSans-30" x="111.230469"/>
      </g>
     </g>
    </g>
    <g id="xtick_11">
     <g id="line2d_20"/>
     <g id="text_18">
      <!-- 200 -->
      <g style="fill: #262626" transform="translate(619.032526 590.966875)scale(0.1 -0.1)">
       <use xlink:href="#LiberationSans-32"/>
       <use xlink:href="#LiberationSans-30" x="55.615234"/>
       <use xlink:href="#LiberationSans-30" x="111.230469"/>
      </g>
     </g>
    </g>
    <g id="xtick_12">
     <g id="line2d_21"/>
     <g id="text_19">
      <!-- 250 -->
      <g style="fill: #262626" transform="translate(741.266918 590.966875)scale(0.1 -0.1)">
       <use xlink:href="#LiberationSans-32"/>
       <use xlink:href="#LiberationSans-35" x="55.615234"/>
       <use xlink:href="#LiberationSans-30" x="111.230469"/>
      </g>
     </g>
    </g>
   </g>
   <g id="matplotlib.axis_4">
    <g id="ytick_8">
     <g id="line2d_22"/>
     <g id="text_20">
      <!-- 0.2 -->
      <g style="fill: #262626" transform="translate(87.1 561.203555)scale(0.1 -0.1)">
       <use xlink:href="#LiberationSans-30"/>
       <use xlink:href="#LiberationSans-2e" x="55.615234"/>
       <use xlink:href="#LiberationSans-32" x="83.398438"/>
      </g>
     </g>
    </g>
    <g id="ytick_9">
     <g id="line2d_23"/>
     <g id="text_21">
      <!-- 0.3 -->
      <g style="fill: #262626" transform="translate(87.1 529.250444)scale(0.1 -0.1)">
       <defs>
        <path id="LiberationSans-33" d="M 3278 1216 
Q 3278 913 3179 675 
Q 3081 438 2892 273 
Q 2703 109 2423 23 
Q 2144 -63 1784 -63 
Q 1375 -63 1095 39 
Q 816 141 634 308 
Q 453 475 362 689 
Q 272 903 244 1131 
L 825 1184 
Q 850 1009 917 865 
Q 984 722 1100 619 
Q 1216 516 1384 459 
Q 1553 403 1784 403 
Q 2209 403 2451 612 
Q 2694 822 2694 1234 
Q 2694 1478 2586 1626 
Q 2478 1775 2317 1858 
Q 2156 1941 1967 1969 
Q 1778 1997 1619 1997 
L 1300 1997 
L 1300 2484 
L 1606 2484 
Q 1766 2484 1937 2517 
Q 2109 2550 2251 2636 
Q 2394 2722 2486 2869 
Q 2578 3016 2578 3244 
Q 2578 3597 2370 3801 
Q 2163 4006 1753 4006 
Q 1381 4006 1151 3815 
Q 922 3625 884 3278 
L 319 3322 
Q 353 3613 478 3828 
Q 603 4044 795 4186 
Q 988 4328 1234 4398 
Q 1481 4469 1759 4469 
Q 2128 4469 2393 4376 
Q 2659 4284 2828 4126 
Q 2997 3969 3076 3756 
Q 3156 3544 3156 3303 
Q 3156 3109 3103 2940 
Q 3050 2772 2937 2637 
Q 2825 2503 2651 2406 
Q 2478 2309 2234 2259 
L 2234 2247 
Q 2500 2219 2697 2126 
Q 2894 2034 3022 1896 
Q 3150 1759 3214 1584 
Q 3278 1409 3278 1216 
z
" transform="scale(0.015625)"/>
       </defs>
       <use xlink:href="#LiberationSans-30"/>
       <use xlink:href="#LiberationSans-2e" x="55.615234"/>
       <use xlink:href="#LiberationSans-33" x="83.398438"/>
      </g>
     </g>
    </g>
    <g id="ytick_10">
     <g id="line2d_24"/>
     <g id="text_22">
      <!-- 0.4 -->
      <g style="fill: #262626" transform="translate(87.1 497.297333)scale(0.1 -0.1)">
       <defs>
        <path id="LiberationSans-34" d="M 2753 997 
L 2753 0 
L 2222 0 
L 2222 997 
L 147 997 
L 147 1434 
L 2163 4403 
L 2753 4403 
L 2753 1441 
L 3372 1441 
L 3372 997 
L 2753 997 
z
M 2222 3769 
Q 2216 3753 2191 3708 
Q 2166 3663 2134 3606 
Q 2103 3550 2070 3492 
Q 2038 3434 2013 3397 
L 884 1734 
Q 869 1709 839 1668 
Q 809 1628 778 1586 
Q 747 1544 715 1503 
Q 684 1463 666 1441 
L 2222 1441 
L 2222 3769 
z
" transform="scale(0.015625)"/>
       </defs>
       <use xlink:href="#LiberationSans-30"/>
       <use xlink:href="#LiberationSans-2e" x="55.615234"/>
       <use xlink:href="#LiberationSans-34" x="83.398438"/>
      </g>
     </g>
    </g>
    <g id="ytick_11">
     <g id="line2d_25"/>
     <g id="text_23">
      <!-- 0.5 -->
      <g style="fill: #262626" transform="translate(87.1 465.344222)scale(0.1 -0.1)">
       <use xlink:href="#LiberationSans-30"/>
       <use xlink:href="#LiberationSans-2e" x="55.615234"/>
       <use xlink:href="#LiberationSans-35" x="83.398438"/>
      </g>
     </g>
    </g>
    <g id="ytick_12">
     <g id="line2d_26"/>
     <g id="text_24">
      <!-- 0.6 -->
      <g style="fill: #262626" transform="translate(87.1 433.391111)scale(0.1 -0.1)">
       <defs>
        <path id="LiberationSans-36" d="M 3278 1441 
Q 3278 1109 3186 832 
Q 3094 556 2914 357 
Q 2734 159 2468 48 
Q 2203 -63 1856 -63 
Q 1472 -63 1184 84 
Q 897 231 706 507 
Q 516 784 420 1186 
Q 325 1588 325 2100 
Q 325 2688 433 3131 
Q 541 3575 744 3872 
Q 947 4169 1239 4319 
Q 1531 4469 1900 4469 
Q 2125 4469 2322 4422 
Q 2519 4375 2680 4270 
Q 2841 4166 2962 3994 
Q 3084 3822 3156 3572 
L 2619 3475 
Q 2531 3759 2339 3886 
Q 2147 4013 1894 4013 
Q 1663 4013 1475 3903 
Q 1288 3794 1156 3576 
Q 1025 3359 954 3031 
Q 884 2703 884 2266 
Q 1038 2550 1316 2698 
Q 1594 2847 1953 2847 
Q 2253 2847 2497 2750 
Q 2741 2653 2914 2470 
Q 3088 2288 3183 2027 
Q 3278 1766 3278 1441 
z
M 2706 1416 
Q 2706 1644 2650 1828 
Q 2594 2013 2481 2142 
Q 2369 2272 2203 2342 
Q 2038 2413 1819 2413 
Q 1666 2413 1509 2367 
Q 1353 2322 1226 2220 
Q 1100 2119 1020 1953 
Q 941 1788 941 1550 
Q 941 1306 1003 1095 
Q 1066 884 1183 728 
Q 1300 572 1465 481 
Q 1631 391 1838 391 
Q 2041 391 2202 461 
Q 2363 531 2475 664 
Q 2588 797 2647 987 
Q 2706 1178 2706 1416 
z
" transform="scale(0.015625)"/>
       </defs>
       <use xlink:href="#LiberationSans-30"/>
       <use xlink:href="#LiberationSans-2e" x="55.615234"/>
       <use xlink:href="#LiberationSans-36" x="83.398438"/>
      </g>
     </g>
    </g>
    <g id="ytick_13">
     <g id="line2d_27"/>
     <g id="text_25">
      <!-- 0.7 -->
      <g style="fill: #262626" transform="translate(87.1 401.437999)scale(0.1 -0.1)">
       <use xlink:href="#LiberationSans-30"/>
       <use xlink:href="#LiberationSans-2e" x="55.615234"/>
       <use xlink:href="#LiberationSans-37" x="83.398438"/>
      </g>
     </g>
    </g>
    <g id="ytick_14">
     <g id="line2d_28"/>
     <g id="text_26">
      <!-- 0.8 -->
      <g style="fill: #262626" transform="translate(87.1 369.484888)scale(0.1 -0.1)">
       <defs>
        <path id="LiberationSans-38" d="M 3281 1228 
Q 3281 947 3192 711 
Q 3103 475 2920 303 
Q 2738 131 2453 34 
Q 2169 -63 1781 -63 
Q 1394 -63 1111 34 
Q 828 131 642 301 
Q 456 472 367 708 
Q 278 944 278 1222 
Q 278 1463 351 1650 
Q 425 1838 548 1973 
Q 672 2109 830 2192 
Q 988 2275 1156 2303 
L 1156 2316 
Q 972 2359 826 2456 
Q 681 2553 582 2689 
Q 484 2825 432 2990 
Q 381 3156 381 3341 
Q 381 3572 470 3776 
Q 559 3981 734 4136 
Q 909 4291 1168 4380 
Q 1428 4469 1769 4469 
Q 2128 4469 2392 4378 
Q 2656 4288 2829 4133 
Q 3003 3978 3087 3772 
Q 3172 3566 3172 3334 
Q 3172 3153 3120 2987 
Q 3069 2822 2970 2686 
Q 2872 2550 2726 2454 
Q 2581 2359 2391 2322 
L 2391 2309 
Q 2581 2278 2743 2195 
Q 2906 2113 3025 1977 
Q 3144 1841 3212 1653 
Q 3281 1466 3281 1228 
z
M 2588 3303 
Q 2588 3469 2545 3606 
Q 2503 3744 2406 3842 
Q 2309 3941 2153 3995 
Q 1997 4050 1769 4050 
Q 1547 4050 1394 3995 
Q 1241 3941 1142 3842 
Q 1044 3744 1000 3606 
Q 956 3469 956 3303 
Q 956 3172 990 3034 
Q 1025 2897 1115 2784 
Q 1206 2672 1365 2600 
Q 1525 2528 1775 2528 
Q 2041 2528 2202 2600 
Q 2363 2672 2448 2784 
Q 2534 2897 2561 3034 
Q 2588 3172 2588 3303 
z
M 2697 1281 
Q 2697 1441 2653 1589 
Q 2609 1738 2503 1852 
Q 2397 1966 2217 2036 
Q 2038 2106 1769 2106 
Q 1522 2106 1348 2036 
Q 1175 1966 1067 1850 
Q 959 1734 909 1582 
Q 859 1431 859 1269 
Q 859 1066 909 898 
Q 959 731 1068 611 
Q 1178 491 1356 425 
Q 1534 359 1788 359 
Q 2044 359 2219 425 
Q 2394 491 2500 611 
Q 2606 731 2651 901 
Q 2697 1072 2697 1281 
z
" transform="scale(0.015625)"/>
       </defs>
       <use xlink:href="#LiberationSans-30"/>
       <use xlink:href="#LiberationSans-2e" x="55.615234"/>
       <use xlink:href="#LiberationSans-38" x="83.398438"/>
      </g>
     </g>
    </g>
   </g>
   <g id="line2d_29">
    <path d="M 138.436364 566.410909 
L 140.881051 553.617183 
L 143.325739 555.099383 
L 145.770427 550.652783 
L 148.215115 550.808804 
L 150.659803 531.072141 
L 153.104491 516.406162 
L 155.549179 520.774752 
L 157.993866 517.342289 
L 160.438554 518.746478 
L 162.883242 519.136531 
L 165.32793 516.562183 
L 167.772618 510.16532 
L 170.217306 507.903015 
L 172.661993 503.846468 
L 175.106681 501.818194 
L 177.551369 494.485205 
L 179.996057 492.534942 
L 182.440745 483.251689 
L 184.885433 481.613468 
L 187.33012 474.51451 
L 189.774808 466.089374 
L 192.219496 462.890942 
L 194.664184 464.217121 
L 197.108872 461.174711 
L 199.55356 459.53649 
L 201.998248 458.444342 
L 204.442935 460.082563 
L 206.887623 452.281511 
L 209.332311 454.933869 
L 211.776999 455.791984 
L 214.221687 455.1679 
L 216.666375 450.019205 
L 219.111062 453.841721 
L 221.55575 446.976795 
L 224.000438 446.664753 
L 226.445126 450.799311 
L 228.889814 452.12549 
L 231.334502 447.132816 
L 233.779189 444.012395 
L 236.223877 450.409258 
L 238.668565 445.806637 
L 241.113253 449.473132 
L 243.557941 448.615016 
L 246.002629 446.040669 
L 248.447317 445.962658 
L 250.892004 440.891974 
L 253.336692 441.75009 
L 255.78138 440.735953 
L 258.226068 442.296163 
L 260.670756 435.977311 
L 263.115444 441.282027 
L 265.560131 444.090406 
L 268.004819 434.807153 
L 270.449507 443.076269 
L 272.894195 439.409774 
L 275.338883 436.289353 
L 280.228258 435.743279 
L 282.672946 438.629669 
L 287.562322 430.126522 
L 290.00701 426.92809 
L 292.451698 430.828616 
L 294.896386 433.402964 
L 297.341073 430.906627 
L 299.785761 432.85689 
L 302.230449 432.232806 
L 304.675137 430.906627 
L 307.119825 425.757932 
L 309.564513 424.821806 
L 312.0092 428.4883 
L 314.453888 426.616048 
L 316.898576 423.573637 
L 319.343264 420.99929 
L 321.787952 419.751122 
L 324.23264 424.977827 
L 326.677327 416.708711 
L 329.122015 419.127037 
L 331.566703 420.765258 
L 334.011391 422.715522 
L 336.456079 420.609237 
L 338.900767 417.878869 
L 341.345455 415.538553 
L 343.790142 419.985153 
L 351.124206 415.07049 
L 353.568894 411.403995 
L 356.013582 414.212374 
L 358.458269 414.446406 
L 360.902957 410.311848 
L 363.347645 413.354259 
L 365.792333 411.794048 
L 368.237021 410.389859 
L 370.681709 405.709227 
L 373.126396 408.673627 
L 378.015772 407.113417 
L 380.46046 408.205564 
L 382.905148 404.929122 
L 385.349836 409.843785 
L 387.794524 405.085143 
L 390.239211 410.62389 
L 392.683899 408.751638 
L 395.128587 401.496659 
L 397.573275 406.021269 
L 400.017963 404.461059 
L 402.462651 403.368911 
L 404.907338 403.21289 
L 407.352026 404.69509 
L 409.796714 402.276764 
L 412.241402 400.794564 
L 414.68609 397.908175 
L 417.130778 405.241164 
L 419.575465 399.936448 
L 422.020153 398.610269 
L 424.464841 402.822838 
L 426.909529 399.468385 
L 429.354217 396.503985 
L 431.798905 396.191943 
L 434.243593 398.454248 
L 436.68828 398.142206 
L 439.132968 396.269954 
L 441.577656 397.28409 
L 444.022344 396.660006 
L 446.467032 395.333827 
L 448.91172 396.581996 
L 451.356407 391.199269 
L 453.801095 398.142206 
L 456.245783 396.581996 
L 458.690471 393.929638 
L 461.135159 394.475711 
L 463.579847 390.731206 
L 466.024535 393.851627 
L 468.469222 394.865764 
L 470.91391 392.291417 
L 473.358598 392.75948 
L 475.803286 387.376754 
L 478.247974 390.419164 
L 480.692662 390.653196 
L 485.582037 390.263143 
L 488.026725 392.057385 
L 490.471413 388.546912 
L 492.916101 386.284606 
L 495.360789 389.951101 
L 497.805476 393.227543 
L 500.250164 389.405027 
L 502.694852 386.752669 
L 505.13954 389.249006 
L 507.584228 386.206596 
L 510.028916 390.185133 
L 512.473604 387.532775 
L 514.918291 386.128585 
L 517.362979 386.050575 
L 519.807667 384.334343 
L 522.252355 383.86628 
L 524.697043 387.532775 
L 527.141731 385.504501 
L 532.031106 386.284606 
L 534.475794 384.334343 
L 536.920482 385.582512 
L 539.36517 386.440627 
L 541.809858 385.27047 
L 544.254545 381.447954 
L 546.699233 382.30607 
L 549.143921 382.072038 
L 551.588609 382.38408 
L 554.033297 381.447954 
L 556.477985 379.263659 
L 558.922673 383.476227 
L 561.36736 378.327533 
L 563.812048 379.653712 
L 566.256736 382.38408 
L 568.701424 379.41968 
L 571.146112 377.157375 
L 573.5908 379.34167 
L 576.035487 378.873606 
L 578.480175 379.185649 
L 580.924863 378.795596 
L 583.369551 378.249522 
L 585.814239 378.717585 
L 588.258927 380.355806 
L 590.703614 376.37727 
L 593.148302 374.97308 
L 595.59299 376.37727 
L 598.037678 378.717585 
L 600.482366 376.689312 
L 602.927054 373.49088 
L 605.371742 376.767322 
L 607.816429 378.093501 
L 610.261117 374.661038 
L 612.705805 377.235385 
L 615.150493 375.207112 
L 617.595181 373.022817 
L 620.039869 374.817059 
L 622.484556 373.646901 
L 624.929244 375.051091 
L 627.373932 371.774649 
L 629.81862 374.89507 
L 634.707996 372.866796 
L 637.152683 377.781459 
L 639.597371 373.178838 
L 642.042059 373.646901 
L 644.486747 374.270985 
L 646.931435 373.334859 
L 649.376123 370.214438 
L 651.820811 370.44847 
L 654.265498 373.022817 
L 656.710186 371.696638 
L 659.154874 372.788785 
L 661.599562 365.065743 
L 664.04425 372.788785 
L 666.488938 367.952133 
L 668.933625 371.306585 
L 671.378313 370.058417 
L 673.823001 372.086691 
L 676.267689 368.96627 
L 678.712377 364.675691 
L 681.157065 367.874122 
L 683.601752 367.328049 
L 686.04644 361.321238 
L 688.491128 365.299775 
L 690.935816 369.980407 
L 693.380504 369.434333 
L 695.825192 366.469933 
L 698.26988 370.058417 
L 700.714567 370.136428 
L 703.159255 367.640091 
L 705.603943 365.845849 
L 710.493319 367.406059 
L 712.938007 362.335375 
L 715.382694 368.810249 
L 717.827382 361.945322 
L 720.27207 365.065743 
L 722.716758 364.59768 
L 725.161446 361.867312 
L 727.606134 364.831712 
L 730.050821 367.328049 
L 732.495509 366.391922 
L 734.940197 360.229091 
L 737.384885 362.257365 
L 739.829573 366.625954 
L 742.274261 363.03747 
L 744.718949 361.477259 
L 747.163636 362.257365 
L 747.163636 362.257365 
" clip-path="url(#pd0ef2b45d4)" style="fill: none; stroke: #ff0000; stroke-width: 1.75; stroke-linecap: round"/>
   </g>
   <g id="line2d_30">
    <path d="M 138.436364 550.911936 
L 140.881051 550.855523 
L 143.325739 551.024766 
L 145.770427 550.968353 
L 148.215115 551.137592 
L 150.659803 522.535502 
L 153.104491 522.422667 
L 155.549179 518.135174 
L 157.993866 520.335333 
L 160.438554 519.714782 
L 162.883242 515.540114 
L 165.32793 515.427288 
L 167.772618 514.24258 
L 170.217306 507.642101 
L 172.661993 505.329106 
L 175.106681 500.646713 
L 177.551369 492.635874 
L 179.996057 483.045426 
L 182.440745 487.33292 
L 184.885433 478.70152 
L 187.33012 479.434906 
L 189.774808 465.274891 
L 192.219496 468.26485 
L 194.664184 464.485092 
L 197.108872 461.495133 
L 199.55356 464.146605 
L 201.998248 464.315844 
L 204.442935 459.577037 
L 206.887623 460.987398 
L 209.332311 457.8282 
L 214.221687 457.771768 
L 216.666375 457.376878 
L 219.111062 454.161248 
L 221.55575 454.274093 
L 224.000438 452.130346 
L 226.445126 454.951067 
L 228.889814 451.227702 
L 231.334502 452.581649 
L 233.779189 453.145797 
L 236.223877 449.986599 
L 238.668565 450.945638 
L 241.113253 452.80732 
L 243.557941 448.237743 
L 246.002629 444.57081 
L 248.447317 447.673595 
L 250.892004 446.376061 
L 253.336692 446.206822 
L 255.78138 448.519807 
L 258.226068 446.601731 
L 260.670756 444.288746 
L 263.115444 446.545318 
L 265.560131 446.037583 
L 268.004819 446.488905 
L 270.449507 444.288746 
L 272.894195 441.073116 
L 275.338883 439.888407 
L 277.783571 445.022132 
L 280.228258 445.022132 
L 282.672946 441.75009 
L 285.117634 436.898448 
L 287.562322 436.221475 
L 290.00701 440.903877 
L 292.451698 437.462596 
L 294.896386 429.50817 
L 297.341073 430.410795 
L 299.785761 433.852076 
L 302.230449 434.811115 
L 304.675137 438.365221 
L 307.119825 428.718371 
L 309.564513 435.093198 
L 312.0092 429.338931 
L 314.453888 428.661958 
L 316.898576 433.344341 
L 319.343264 432.498129 
L 321.787952 427.138772 
L 324.23264 427.08234 
L 326.677327 423.697491 
L 329.122015 425.89765 
L 331.566703 427.30801 
L 334.011391 424.543703 
L 336.456079 433.570012 
L 338.900767 424.430877 
L 341.345455 419.692061 
L 343.790142 423.923142 
L 346.23483 419.692061 
L 348.679518 426.461798 
L 351.124206 419.409997 
L 353.568894 417.886811 
L 356.013582 417.096993 
L 358.458269 418.507353 
L 360.902957 422.456369 
L 363.347645 418.225288 
L 365.792333 419.635649 
L 368.237021 415.573807 
L 370.681709 418.958675 
L 373.126396 415.178916 
L 375.571084 416.363606 
L 378.015772 415.573807 
L 380.46046 417.717553 
L 382.905148 413.768556 
L 385.349836 413.03517 
L 387.794524 411.681222 
L 390.239211 412.188957 
L 392.683899 414.44553 
L 395.128587 416.194367 
L 397.573275 415.348155 
L 400.017963 412.132525 
L 402.462651 413.43006 
L 404.907338 411.737635 
L 407.352026 416.137954 
L 414.68609 409.481063 
L 417.130778 409.988779 
L 419.575465 407.788619 
L 422.020153 408.01429 
L 424.464841 406.773168 
L 426.909529 409.142566 
L 429.354217 407.845032 
L 431.798905 409.142566 
L 434.243593 406.660342 
L 436.68828 409.029741 
L 439.132968 408.63485 
L 441.577656 412.696673 
L 444.022344 408.578418 
L 446.467032 407.788619 
L 448.91172 409.706714 
L 451.356407 406.660342 
L 453.801095 410.214449 
L 456.245783 408.070702 
L 458.690471 405.137156 
L 461.135159 405.644872 
L 463.579847 404.40377 
L 466.024535 405.193569 
L 468.469222 407.675793 
L 470.91391 406.152607 
L 473.358598 401.583049 
L 475.803286 402.542087 
L 478.247974 406.99882 
L 480.692662 409.198979 
L 483.137349 403.501125 
L 485.582037 401.413792 
L 488.026725 404.685834 
L 492.916101 401.97794 
L 495.360789 401.865114 
L 497.805476 403.219061 
L 500.250164 403.783209 
L 502.694852 402.20361 
L 505.13954 402.485675 
L 507.584228 399.439303 
L 510.028916 399.77778 
L 512.473604 400.623992 
L 514.918291 399.721367 
L 517.362979 399.890606 
L 519.807667 399.608541 
L 522.252355 400.454754 
L 524.697043 399.552128 
L 527.141731 400.623992 
L 529.586418 399.834193 
L 532.031106 401.18814 
L 534.475794 399.834193 
L 536.920482 397.126298 
L 539.36517 397.464794 
L 541.809858 399.608541 
L 544.254545 398.423833 
L 546.699233 400.398341 
L 549.143921 400.285515 
L 551.588609 402.542087 
L 554.033297 398.028942 
L 556.477985 398.931568 
L 558.922673 400.906076 
L 561.36736 397.126298 
L 563.812048 397.464794 
L 566.256736 397.126298 
L 568.701424 396.562169 
L 571.146112 400.849663 
L 573.5908 395.77237 
L 576.035487 396.392912 
L 578.480175 397.746859 
L 580.924863 395.715938 
L 583.369551 395.998021 
L 585.814239 397.408382 
L 588.258927 397.069885 
L 590.703614 395.151809 
L 593.148302 396.787821 
L 595.59299 399.721367 
L 598.037678 397.408382 
L 600.482366 395.490286 
L 602.927054 397.013472 
L 605.371742 396.223673 
L 607.816429 397.126298 
L 610.261117 395.208222 
L 612.705805 400.285515 
L 615.150493 395.885196 
L 617.595181 394.869726 
L 620.039869 394.813313 
L 622.484556 397.295556 
L 624.929244 395.715938 
L 627.373932 395.490286 
L 629.81862 393.910687 
L 632.263308 393.854275 
L 634.707996 391.936179 
L 637.152683 399.495715 
L 639.597371 394.079926 
L 642.042059 390.638645 
L 644.486747 398.028942 
L 646.931435 395.490286 
L 649.376123 394.474835 
L 651.820811 395.095396 
L 654.265498 393.290127 
L 656.710186 395.264635 
L 659.154874 395.715938 
L 661.599562 393.459365 
L 664.04425 392.725979 
L 666.488938 393.9671 
L 668.933625 392.161831 
L 671.378313 394.813313 
L 673.823001 392.049005 
L 676.267689 394.079926 
L 678.712377 391.766941 
L 681.157065 395.998021 
L 683.601752 391.259206 
L 686.04644 390.243755 
L 688.491128 391.823354 
L 693.380504 394.136339 
L 695.825192 392.218263 
L 698.26988 393.120888 
L 700.714567 393.34654 
L 703.159255 396.957059 
L 705.603943 394.418423 
L 708.048631 395.264635 
L 710.493319 389.510368 
L 712.938007 392.895237 
L 715.382694 390.469406 
L 717.827382 393.854275 
L 720.27207 394.023513 
L 722.716758 391.936179 
L 725.161446 390.807903 
L 727.606134 389.905258 
L 730.050821 394.982551 
L 732.495509 390.187342 
L 734.940197 394.249165 
L 737.384885 395.264635 
L 739.829573 393.290127 
L 742.274261 393.685036 
L 744.718949 393.120888 
L 747.163636 393.120888 
L 747.163636 393.120888 
" clip-path="url(#pd0ef2b45d4)" style="fill: none; stroke: #008000; stroke-width: 1.75; stroke-linecap: round"/>
   </g>
   <g id="patch_8">
    <path d="M 108 576.72 
L 108 349.92 
" style="fill: none"/>
   </g>
   <g id="patch_9">
    <path d="M 777.6 576.72 
L 777.6 349.92 
" style="fill: none"/>
   </g>
   <g id="patch_10">
    <path d="M 108 576.72 
L 777.6 576.72 
" style="fill: none"/>
   </g>
   <g id="patch_11">
    <path d="M 108 349.92 
L 777.6 349.92 
" style="fill: none"/>
   </g>
  </g>
  <g id="text_27">
   <!-- Plots of model performance: mfcc, warohma18 - lr 0.0001, batch 32 -->
   <g style="fill: #262626" transform="translate(252.927188 21.65625)scale(0.12 -0.12)">
    <defs>
     <path id="LiberationSans-50" d="M 3931 3078 
Q 3931 2791 3836 2542 
Q 3741 2294 3552 2111 
Q 3363 1928 3078 1822 
Q 2794 1716 2416 1716 
L 1122 1716 
L 1122 0 
L 525 0 
L 525 4403 
L 2378 4403 
Q 2769 4403 3059 4308 
Q 3350 4213 3544 4039 
Q 3738 3866 3834 3620 
Q 3931 3375 3931 3078 
z
M 3331 3072 
Q 3331 3491 3075 3708 
Q 2819 3925 2306 3925 
L 1122 3925 
L 1122 2188 
L 2331 2188 
Q 2847 2188 3089 2416 
Q 3331 2644 3331 3072 
z
" transform="scale(0.015625)"/>
     <path id="LiberationSans-6c" d="M 431 0 
L 431 4638 
L 994 4638 
L 994 0 
L 431 0 
z
" transform="scale(0.015625)"/>
     <path id="LiberationSans-6f" d="M 3291 1694 
Q 3291 806 2900 371 
Q 2509 -63 1766 -63 
Q 1413 -63 1134 43 
Q 856 150 664 369 
Q 472 588 370 917 
Q 269 1247 269 1694 
Q 269 3444 1784 3444 
Q 2178 3444 2464 3334 
Q 2750 3225 2933 3006 
Q 3116 2788 3203 2459 
Q 3291 2131 3291 1694 
z
M 2700 1694 
Q 2700 2088 2639 2344 
Q 2578 2600 2461 2753 
Q 2344 2906 2175 2967 
Q 2006 3028 1794 3028 
Q 1578 3028 1404 2964 
Q 1231 2900 1109 2745 
Q 988 2591 923 2334 
Q 859 2078 859 1694 
Q 859 1300 928 1042 
Q 997 784 1117 631 
Q 1238 478 1402 415 
Q 1566 353 1759 353 
Q 1975 353 2150 414 
Q 2325 475 2447 628 
Q 2569 781 2634 1040 
Q 2700 1300 2700 1694 
z
" transform="scale(0.015625)"/>
     <path id="LiberationSans-74" d="M 1731 25 
Q 1603 -9 1470 -29 
Q 1338 -50 1163 -50 
Q 488 -50 488 716 
L 488 2972 
L 97 2972 
L 97 3381 
L 509 3381 
L 675 4138 
L 1050 4138 
L 1050 3381 
L 1675 3381 
L 1675 2972 
L 1050 2972 
L 1050 838 
Q 1050 594 1129 495 
Q 1209 397 1406 397 
Q 1488 397 1564 409 
Q 1641 422 1731 441 
L 1731 25 
z
" transform="scale(0.015625)"/>
     <path id="LiberationSans-73" d="M 2969 934 
Q 2969 697 2876 511 
Q 2784 325 2609 198 
Q 2434 72 2179 4 
Q 1925 -63 1597 -63 
Q 1303 -63 1067 -17 
Q 831 28 653 128 
Q 475 228 354 392 
Q 234 556 178 794 
L 675 891 
Q 747 619 972 492 
Q 1197 366 1597 366 
Q 1778 366 1929 391 
Q 2081 416 2190 477 
Q 2300 538 2361 639 
Q 2422 741 2422 891 
Q 2422 1044 2350 1142 
Q 2278 1241 2150 1306 
Q 2022 1372 1839 1420 
Q 1656 1469 1438 1528 
Q 1234 1581 1034 1647 
Q 834 1713 673 1820 
Q 513 1928 413 2087 
Q 313 2247 313 2488 
Q 313 2950 642 3192 
Q 972 3434 1603 3434 
Q 2163 3434 2492 3237 
Q 2822 3041 2909 2606 
L 2403 2544 
Q 2375 2675 2300 2764 
Q 2225 2853 2119 2908 
Q 2013 2963 1880 2986 
Q 1747 3009 1603 3009 
Q 1222 3009 1040 2893 
Q 859 2778 859 2544 
Q 859 2406 926 2317 
Q 994 2228 1114 2167 
Q 1234 2106 1403 2061 
Q 1572 2016 1775 1966 
Q 1909 1931 2050 1892 
Q 2191 1853 2323 1798 
Q 2456 1744 2573 1670 
Q 2691 1597 2778 1494 
Q 2866 1391 2917 1253 
Q 2969 1116 2969 934 
z
" transform="scale(0.015625)"/>
     <path id="LiberationSans-20" transform="scale(0.015625)"/>
     <path id="LiberationSans-66" d="M 1128 2972 
L 1128 0 
L 566 0 
L 566 2972 
L 91 2972 
L 91 3381 
L 566 3381 
L 566 3763 
Q 566 3947 600 4105 
Q 634 4263 726 4380 
Q 819 4497 978 4564 
Q 1138 4631 1391 4631 
Q 1491 4631 1598 4622 
Q 1706 4613 1788 4594 
L 1788 4166 
Q 1734 4175 1664 4183 
Q 1594 4191 1538 4191 
Q 1413 4191 1333 4156 
Q 1253 4122 1208 4058 
Q 1163 3994 1145 3900 
Q 1128 3806 1128 3684 
L 1128 3381 
L 1788 3381 
L 1788 2972 
L 1128 2972 
z
" transform="scale(0.015625)"/>
     <path id="LiberationSans-6d" d="M 2400 0 
L 2400 2144 
Q 2400 2391 2369 2556 
Q 2338 2722 2264 2823 
Q 2191 2925 2072 2967 
Q 1953 3009 1781 3009 
Q 1603 3009 1459 2939 
Q 1316 2869 1214 2736 
Q 1113 2603 1058 2408 
Q 1003 2213 1003 1959 
L 1003 0 
L 444 0 
L 444 2659 
Q 444 2766 442 2883 
Q 441 3000 437 3104 
Q 434 3209 431 3284 
Q 428 3359 425 3381 
L 956 3381 
Q 959 3366 962 3297 
Q 966 3228 970 3139 
Q 975 3050 978 2958 
Q 981 2866 981 2803 
L 991 2803 
Q 1066 2950 1153 3069 
Q 1241 3188 1358 3270 
Q 1475 3353 1626 3398 
Q 1778 3444 1978 3444 
Q 2363 3444 2586 3291 
Q 2809 3138 2897 2803 
L 2906 2803 
Q 2981 2950 3075 3069 
Q 3169 3188 3294 3270 
Q 3419 3353 3575 3398 
Q 3731 3444 3931 3444 
Q 4188 3444 4373 3375 
Q 4559 3306 4678 3162 
Q 4797 3019 4853 2792 
Q 4909 2566 4909 2253 
L 4909 0 
L 4353 0 
L 4353 2144 
Q 4353 2391 4322 2556 
Q 4291 2722 4217 2823 
Q 4144 2925 4025 2967 
Q 3906 3009 3734 3009 
Q 3556 3009 3412 2942 
Q 3269 2875 3167 2744 
Q 3066 2613 3011 2416 
Q 2956 2219 2956 1959 
L 2956 0 
L 2400 0 
z
" transform="scale(0.015625)"/>
     <path id="LiberationSans-64" d="M 2566 544 
Q 2409 219 2151 78 
Q 1894 -63 1513 -63 
Q 872 -63 570 368 
Q 269 800 269 1675 
Q 269 3444 1513 3444 
Q 1897 3444 2153 3303 
Q 2409 3163 2566 2856 
L 2572 2856 
Q 2572 2888 2570 2955 
Q 2569 3022 2567 3095 
Q 2566 3169 2566 3234 
Q 2566 3300 2566 3328 
L 2566 4638 
L 3128 4638 
L 3128 697 
Q 3128 575 3129 462 
Q 3131 350 3134 256 
Q 3138 163 3141 95 
Q 3144 28 3147 0 
L 2609 0 
Q 2603 31 2598 89 
Q 2594 147 2589 222 
Q 2584 297 2581 380 
Q 2578 463 2578 544 
L 2566 544 
z
M 859 1694 
Q 859 1344 903 1094 
Q 947 844 1044 683 
Q 1141 522 1291 447 
Q 1441 372 1656 372 
Q 1878 372 2048 444 
Q 2219 516 2333 677 
Q 2447 838 2506 1097 
Q 2566 1356 2566 1731 
Q 2566 2091 2506 2339 
Q 2447 2588 2331 2741 
Q 2216 2894 2048 2961 
Q 1881 3028 1663 3028 
Q 1456 3028 1306 2956 
Q 1156 2884 1056 2725 
Q 956 2566 907 2311 
Q 859 2056 859 1694 
z
" transform="scale(0.015625)"/>
     <path id="LiberationSans-65" d="M 863 1572 
Q 863 1306 917 1082 
Q 972 859 1086 698 
Q 1200 538 1378 448 
Q 1556 359 1806 359 
Q 2172 359 2392 506 
Q 2613 653 2691 878 
L 3184 738 
Q 3131 597 3036 455 
Q 2941 313 2781 198 
Q 2622 84 2383 10 
Q 2144 -63 1806 -63 
Q 1056 -63 664 384 
Q 272 831 272 1713 
Q 272 2188 390 2517 
Q 509 2847 715 3053 
Q 922 3259 1197 3351 
Q 1472 3444 1784 3444 
Q 2209 3444 2495 3306 
Q 2781 3169 2954 2926 
Q 3128 2684 3201 2356 
Q 3275 2028 3275 1647 
L 3275 1572 
L 863 1572 
z
M 2694 2003 
Q 2647 2538 2422 2783 
Q 2197 3028 1775 3028 
Q 1634 3028 1479 2983 
Q 1325 2938 1194 2822 
Q 1063 2706 972 2507 
Q 881 2309 869 2003 
L 2694 2003 
z
" transform="scale(0.015625)"/>
     <path id="LiberationSans-70" d="M 3291 1706 
Q 3291 1322 3228 997 
Q 3166 672 3020 437 
Q 2875 203 2636 70 
Q 2397 -63 2047 -63 
Q 1684 -63 1412 75 
Q 1141 213 997 525 
L 981 525 
Q 984 519 986 469 
Q 988 419 989 344 
Q 991 269 992 176 
Q 994 84 994 -6 
L 994 -1328 
L 431 -1328 
L 431 2691 
Q 431 2813 429 2925 
Q 428 3038 425 3130 
Q 422 3222 419 3287 
Q 416 3353 413 3381 
L 956 3381 
Q 959 3372 964 3315 
Q 969 3259 973 3179 
Q 978 3100 983 3009 
Q 988 2919 988 2838 
L 1000 2838 
Q 1078 3000 1178 3114 
Q 1278 3228 1406 3301 
Q 1534 3375 1692 3408 
Q 1850 3441 2047 3441 
Q 2397 3441 2636 3316 
Q 2875 3191 3020 2964 
Q 3166 2738 3228 2417 
Q 3291 2097 3291 1706 
z
M 2700 1694 
Q 2700 2006 2662 2250 
Q 2625 2494 2533 2662 
Q 2441 2831 2287 2918 
Q 2134 3006 1903 3006 
Q 1716 3006 1550 2953 
Q 1384 2900 1261 2750 
Q 1138 2600 1066 2336 
Q 994 2072 994 1650 
Q 994 1291 1053 1042 
Q 1113 794 1227 641 
Q 1341 488 1509 420 
Q 1678 353 1897 353 
Q 2131 353 2286 443 
Q 2441 534 2533 706 
Q 2625 878 2662 1126 
Q 2700 1375 2700 1694 
z
" transform="scale(0.015625)"/>
     <path id="LiberationSans-72" d="M 444 0 
L 444 2594 
Q 444 2700 442 2811 
Q 441 2922 437 3025 
Q 434 3128 431 3218 
Q 428 3309 425 3381 
L 956 3381 
Q 959 3309 964 3217 
Q 969 3125 973 3028 
Q 978 2931 979 2842 
Q 981 2753 981 2691 
L 994 2691 
Q 1053 2884 1120 3026 
Q 1188 3169 1278 3261 
Q 1369 3353 1494 3398 
Q 1619 3444 1797 3444 
Q 1866 3444 1928 3433 
Q 1991 3422 2025 3413 
L 2025 2897 
Q 1969 2913 1894 2920 
Q 1819 2928 1725 2928 
Q 1531 2928 1395 2840 
Q 1259 2753 1173 2598 
Q 1088 2444 1047 2230 
Q 1006 2016 1006 1763 
L 1006 0 
L 444 0 
z
" transform="scale(0.015625)"/>
     <path id="LiberationSans-61" d="M 1294 -63 
Q 784 -63 528 206 
Q 272 475 272 944 
Q 272 1278 398 1492 
Q 525 1706 729 1828 
Q 934 1950 1196 1997 
Q 1459 2044 1731 2050 
L 2491 2063 
L 2491 2247 
Q 2491 2456 2447 2603 
Q 2403 2750 2312 2840 
Q 2222 2931 2086 2973 
Q 1950 3016 1766 3016 
Q 1603 3016 1472 2992 
Q 1341 2969 1244 2908 
Q 1147 2847 1087 2742 
Q 1028 2638 1009 2478 
L 422 2531 
Q 453 2731 540 2898 
Q 628 3066 789 3187 
Q 950 3309 1192 3376 
Q 1434 3444 1778 3444 
Q 2416 3444 2737 3151 
Q 3059 2859 3059 2306 
L 3059 850 
Q 3059 600 3125 473 
Q 3191 347 3375 347 
Q 3422 347 3469 353 
Q 3516 359 3559 369 
L 3559 19 
Q 3453 -6 3348 -18 
Q 3244 -31 3125 -31 
Q 2966 -31 2852 11 
Q 2738 53 2666 139 
Q 2594 225 2556 351 
Q 2519 478 2509 647 
L 2491 647 
Q 2400 484 2292 353 
Q 2184 222 2040 130 
Q 1897 38 1714 -12 
Q 1531 -63 1294 -63 
z
M 1422 359 
Q 1691 359 1892 457 
Q 2094 556 2226 709 
Q 2359 863 2425 1044 
Q 2491 1225 2491 1391 
L 2491 1669 
L 1875 1656 
Q 1669 1653 1483 1626 
Q 1297 1600 1156 1522 
Q 1016 1444 933 1303 
Q 850 1163 850 934 
Q 850 659 998 509 
Q 1147 359 1422 359 
z
" transform="scale(0.015625)"/>
     <path id="LiberationSans-6e" d="M 2578 0 
L 2578 2144 
Q 2578 2391 2542 2556 
Q 2506 2722 2425 2823 
Q 2344 2925 2211 2967 
Q 2078 3009 1881 3009 
Q 1681 3009 1520 2939 
Q 1359 2869 1245 2736 
Q 1131 2603 1068 2408 
Q 1006 2213 1006 1959 
L 1006 0 
L 444 0 
L 444 2659 
Q 444 2766 442 2883 
Q 441 3000 437 3104 
Q 434 3209 431 3284 
Q 428 3359 425 3381 
L 956 3381 
Q 959 3366 962 3297 
Q 966 3228 970 3139 
Q 975 3050 978 2958 
Q 981 2866 981 2803 
L 991 2803 
Q 1072 2950 1169 3069 
Q 1266 3188 1394 3270 
Q 1522 3353 1687 3398 
Q 1853 3444 2072 3444 
Q 2353 3444 2556 3375 
Q 2759 3306 2890 3162 
Q 3022 3019 3083 2792 
Q 3144 2566 3144 2253 
L 3144 0 
L 2578 0 
z
" transform="scale(0.015625)"/>
     <path id="LiberationSans-63" d="M 859 1706 
Q 859 1416 901 1172 
Q 944 928 1044 751 
Q 1144 575 1308 478 
Q 1472 381 1713 381 
Q 2013 381 2214 543 
Q 2416 706 2463 1044 
L 3031 1006 
Q 3003 797 2909 603 
Q 2816 409 2655 262 
Q 2494 116 2262 26 
Q 2031 -63 1728 -63 
Q 1331 -63 1053 71 
Q 775 206 601 442 
Q 428 678 350 998 
Q 272 1319 272 1694 
Q 272 2034 328 2295 
Q 384 2556 486 2751 
Q 588 2947 725 3080 
Q 863 3213 1023 3292 
Q 1184 3372 1362 3408 
Q 1541 3444 1722 3444 
Q 2006 3444 2228 3366 
Q 2450 3288 2611 3152 
Q 2772 3016 2872 2831 
Q 2972 2647 3013 2434 
L 2434 2391 
Q 2391 2672 2212 2837 
Q 2034 3003 1706 3003 
Q 1466 3003 1305 2923 
Q 1144 2844 1044 2683 
Q 944 2522 901 2278 
Q 859 2034 859 1706 
z
" transform="scale(0.015625)"/>
     <path id="LiberationSans-3a" d="M 584 2734 
L 584 3381 
L 1194 3381 
L 1194 2734 
L 584 2734 
z
M 584 0 
L 584 647 
L 1194 647 
L 1194 0 
L 584 0 
z
" transform="scale(0.015625)"/>
     <path id="LiberationSans-2c" d="M 1203 684 
L 1203 159 
Q 1203 -6 1189 -142 
Q 1175 -278 1144 -395 
Q 1113 -513 1067 -616 
Q 1022 -719 959 -819 
L 575 -819 
Q 716 -616 792 -409 
Q 869 -203 869 0 
L 594 0 
L 594 684 
L 1203 684 
z
" transform="scale(0.015625)"/>
     <path id="LiberationSans-77" d="M 3669 0 
L 3016 0 
L 2475 2181 
Q 2450 2266 2423 2391 
Q 2397 2516 2372 2634 
Q 2341 2772 2313 2919 
Q 2284 2778 2253 2641 
Q 2228 2522 2198 2394 
Q 2169 2266 2144 2169 
L 1588 0 
L 938 0 
L -9 3381 
L 547 3381 
L 1119 1084 
Q 1141 1013 1162 908 
Q 1184 803 1206 703 
Q 1228 588 1253 466 
Q 1278 584 1306 697 
Q 1331 794 1356 894 
Q 1381 994 1400 1059 
L 2013 3381 
L 2616 3381 
L 3206 1059 
Q 3228 978 3253 875 
Q 3278 772 3300 681 
Q 3325 575 3350 466 
Q 3375 584 3400 697 
Q 3422 794 3445 898 
Q 3469 1003 3491 1084 
L 4088 3381 
L 4638 3381 
L 3669 0 
z
" transform="scale(0.015625)"/>
     <path id="LiberationSans-68" d="M 991 2803 
Q 1084 2975 1193 3095 
Q 1303 3216 1434 3294 
Q 1566 3372 1722 3408 
Q 1878 3444 2072 3444 
Q 2397 3444 2605 3356 
Q 2813 3269 2933 3111 
Q 3053 2953 3098 2734 
Q 3144 2516 3144 2253 
L 3144 0 
L 2578 0 
L 2578 2144 
Q 2578 2359 2551 2521 
Q 2525 2684 2450 2792 
Q 2375 2900 2237 2954 
Q 2100 3009 1881 3009 
Q 1681 3009 1520 2937 
Q 1359 2866 1245 2734 
Q 1131 2603 1068 2415 
Q 1006 2228 1006 1994 
L 1006 0 
L 444 0 
L 444 4638 
L 1006 4638 
L 1006 3431 
Q 1006 3328 1003 3225 
Q 1000 3122 995 3034 
Q 991 2947 987 2886 
Q 984 2825 981 2803 
L 991 2803 
z
" transform="scale(0.015625)"/>
     <path id="LiberationSans-2d" d="M 284 1450 
L 284 1950 
L 1847 1950 
L 1847 1450 
L 284 1450 
z
" transform="scale(0.015625)"/>
     <path id="LiberationSans-62" d="M 3291 1706 
Q 3291 -63 2047 -63 
Q 1663 -63 1408 76 
Q 1153 216 994 525 
L 988 525 
Q 988 444 983 356 
Q 978 269 973 194 
Q 969 119 964 66 
Q 959 13 956 0 
L 413 0 
Q 416 28 419 95 
Q 422 163 425 256 
Q 428 350 429 462 
Q 431 575 431 697 
L 431 4638 
L 994 4638 
L 994 3316 
Q 994 3222 992 3136 
Q 991 3050 988 2984 
Q 984 2906 981 2838 
L 994 2838 
Q 1150 3163 1408 3303 
Q 1666 3444 2047 3444 
Q 2688 3444 2989 3012 
Q 3291 2581 3291 1706 
z
M 2700 1688 
Q 2700 2038 2656 2288 
Q 2613 2538 2516 2698 
Q 2419 2859 2269 2934 
Q 2119 3009 1903 3009 
Q 1681 3009 1511 2937 
Q 1341 2866 1227 2706 
Q 1113 2547 1053 2287 
Q 994 2028 994 1653 
Q 994 1291 1053 1044 
Q 1113 797 1227 642 
Q 1341 488 1509 420 
Q 1678 353 1897 353 
Q 2103 353 2253 425 
Q 2403 497 2503 656 
Q 2603 816 2651 1070 
Q 2700 1325 2700 1688 
z
" transform="scale(0.015625)"/>
    </defs>
    <use xlink:href="#LiberationSans-50"/>
    <use xlink:href="#LiberationSans-6c" x="66.699219"/>
    <use xlink:href="#LiberationSans-6f" x="88.916016"/>
    <use xlink:href="#LiberationSans-74" x="144.53125"/>
    <use xlink:href="#LiberationSans-73" x="172.314453"/>
    <use xlink:href="#LiberationSans-20" x="222.314453"/>
    <use xlink:href="#LiberationSans-6f" x="250.097656"/>
    <use xlink:href="#LiberationSans-66" x="305.712891"/>
    <use xlink:href="#LiberationSans-20" x="333.496094"/>
    <use xlink:href="#LiberationSans-6d" x="361.279297"/>
    <use xlink:href="#LiberationSans-6f" x="444.580078"/>
    <use xlink:href="#LiberationSans-64" x="500.195312"/>
    <use xlink:href="#LiberationSans-65" x="555.810547"/>
    <use xlink:href="#LiberationSans-6c" x="611.425781"/>
    <use xlink:href="#LiberationSans-20" x="633.642578"/>
    <use xlink:href="#LiberationSans-70" x="661.425781"/>
    <use xlink:href="#LiberationSans-65" x="717.041016"/>
    <use xlink:href="#LiberationSans-72" x="772.65625"/>
    <use xlink:href="#LiberationSans-66" x="805.957031"/>
    <use xlink:href="#LiberationSans-6f" x="833.740234"/>
    <use xlink:href="#LiberationSans-72" x="889.355469"/>
    <use xlink:href="#LiberationSans-6d" x="922.65625"/>
    <use xlink:href="#LiberationSans-61" x="1005.957031"/>
    <use xlink:href="#LiberationSans-6e" x="1061.572266"/>
    <use xlink:href="#LiberationSans-63" x="1117.1875"/>
    <use xlink:href="#LiberationSans-65" x="1167.1875"/>
    <use xlink:href="#LiberationSans-3a" x="1222.802734"/>
    <use xlink:href="#LiberationSans-20" x="1250.585938"/>
    <use xlink:href="#LiberationSans-6d" x="1278.369141"/>
    <use xlink:href="#LiberationSans-66" x="1361.669922"/>
    <use xlink:href="#LiberationSans-63" x="1389.453125"/>
    <use xlink:href="#LiberationSans-63" x="1439.453125"/>
    <use xlink:href="#LiberationSans-2c" x="1489.453125"/>
    <use xlink:href="#LiberationSans-20" x="1517.236328"/>
    <use xlink:href="#LiberationSans-77" x="1545.019531"/>
    <use xlink:href="#LiberationSans-61" x="1617.236328"/>
    <use xlink:href="#LiberationSans-72" x="1672.851562"/>
    <use xlink:href="#LiberationSans-6f" x="1706.152344"/>
    <use xlink:href="#LiberationSans-68" x="1761.767578"/>
    <use xlink:href="#LiberationSans-6d" x="1817.382812"/>
    <use xlink:href="#LiberationSans-61" x="1900.683594"/>
    <use xlink:href="#LiberationSans-31" x="1956.298828"/>
    <use xlink:href="#LiberationSans-38" x="2011.914062"/>
    <use xlink:href="#LiberationSans-20" x="2067.529297"/>
    <use xlink:href="#LiberationSans-2d" x="2095.3125"/>
    <use xlink:href="#LiberationSans-20" x="2128.613281"/>
    <use xlink:href="#LiberationSans-6c" x="2156.396484"/>
    <use xlink:href="#LiberationSans-72" x="2178.613281"/>
    <use xlink:href="#LiberationSans-20" x="2211.914062"/>
    <use xlink:href="#LiberationSans-30" x="2239.697266"/>
    <use xlink:href="#LiberationSans-2e" x="2295.3125"/>
    <use xlink:href="#LiberationSans-30" x="2323.095703"/>
    <use xlink:href="#LiberationSans-30" x="2378.710938"/>
    <use xlink:href="#LiberationSans-30" x="2434.326172"/>
    <use xlink:href="#LiberationSans-31" x="2489.941406"/>
    <use xlink:href="#LiberationSans-2c" x="2545.556641"/>
    <use xlink:href="#LiberationSans-20" x="2573.339844"/>
    <use xlink:href="#LiberationSans-62" x="2601.123047"/>
    <use xlink:href="#LiberationSans-61" x="2656.738281"/>
    <use xlink:href="#LiberationSans-74" x="2712.353516"/>
    <use xlink:href="#LiberationSans-63" x="2740.136719"/>
    <use xlink:href="#LiberationSans-68" x="2790.136719"/>
    <use xlink:href="#LiberationSans-20" x="2845.751953"/>
    <use xlink:href="#LiberationSans-33" x="2873.535156"/>
    <use xlink:href="#LiberationSans-32" x="2929.150391"/>
   </g>
  </g>
 </g>
 <defs>
  <clipPath id="p190064a355">
   <rect x="108" y="77.76" width="669.6" height="226.8"/>
  </clipPath>
  <clipPath id="pd0ef2b45d4">
   <rect x="108" y="349.92" width="669.6" height="226.8"/>
  </clipPath>
 </defs>
</svg>
