<?xml version="1.0" encoding="utf-8" standalone="no"?>
<!DOCTYPE svg PUBLIC "-//W3C//DTD SVG 1.1//EN"
  "http://www.w3.org/Graphics/SVG/1.1/DTD/svg11.dtd">
<svg xmlns:xlink="http://www.w3.org/1999/xlink" width="864pt" height="648pt" viewBox="0 0 864 648" xmlns="http://www.w3.org/2000/svg" version="1.1">
 <metadata>
  <rdf:RDF xmlns:dc="http://purl.org/dc/elements/1.1/" xmlns:cc="http://creativecommons.org/ns#" xmlns:rdf="http://www.w3.org/1999/02/22-rdf-syntax-ns#">
   <cc:Work>
    <dc:type rdf:resource="http://purl.org/dc/dcmitype/StillImage"/>
    <dc:date>2022-03-13T01:21:58.429960</dc:date>
    <dc:format>image/svg+xml</dc:format>
    <dc:creator>
     <cc:Agent>
      <dc:title>Matplotlib v3.5.0, https://matplotlib.org/</dc:title>
     </cc:Agent>
    </dc:creator>
   </cc:Work>
  </rdf:RDF>
 </metadata>
 <defs>
  <style type="text/css">*{stroke-linejoin: round; stroke-linecap: butt}</style>
 </defs>
 <g id="figure_1">
  <g id="patch_1">
   <path d="M 0 648 
L 864 648 
L 864 0 
L 0 0 
z
" style="fill: #ffffff"/>
  </g>
  <g id="axes_1">
   <g id="patch_2">
    <path d="M 108 304.56 
L 777.6 304.56 
L 777.6 77.76 
L 108 77.76 
z
" style="fill: #eaeaf2"/>
   </g>
   <g id="matplotlib.axis_1">
    <g id="xtick_1">
     <g id="line2d_1"/>
     <g id="text_1">
      <!-- 0 -->
      <g style="fill: #262626" transform="translate(135.655895 318.806875)scale(0.1 -0.1)">
       <defs>
        <path id="LiberationSans-30" d="M 3309 2203 
Q 3309 1569 3189 1136 
Q 3069 703 2861 436 
Q 2653 169 2372 53 
Q 2091 -63 1772 -63 
Q 1450 -63 1172 53 
Q 894 169 689 434 
Q 484 700 367 1133 
Q 250 1566 250 2203 
Q 250 2869 367 3305 
Q 484 3741 690 4000 
Q 897 4259 1178 4364 
Q 1459 4469 1791 4469 
Q 2106 4469 2382 4364 
Q 2659 4259 2865 4000 
Q 3072 3741 3190 3305 
Q 3309 2869 3309 2203 
z
M 2738 2203 
Q 2738 2728 2675 3076 
Q 2613 3425 2491 3633 
Q 2369 3841 2192 3927 
Q 2016 4013 1791 4013 
Q 1553 4013 1372 3925 
Q 1191 3838 1067 3630 
Q 944 3422 881 3073 
Q 819 2725 819 2203 
Q 819 1697 883 1350 
Q 947 1003 1070 792 
Q 1194 581 1372 489 
Q 1550 397 1778 397 
Q 2000 397 2178 489 
Q 2356 581 2479 792 
Q 2603 1003 2670 1350 
Q 2738 1697 2738 2203 
z
" transform="scale(0.015625)"/>
       </defs>
       <use xlink:href="#LiberationSans-30"/>
      </g>
     </g>
    </g>
    <g id="xtick_2">
     <g id="line2d_2"/>
     <g id="text_2">
      <!-- 50 -->
      <g style="fill: #262626" transform="translate(255.109818 318.806875)scale(0.1 -0.1)">
       <defs>
        <path id="LiberationSans-35" d="M 3291 1434 
Q 3291 1103 3191 828 
Q 3091 553 2894 354 
Q 2697 156 2405 46 
Q 2113 -63 1728 -63 
Q 1381 -63 1123 18 
Q 866 100 687 242 
Q 509 384 404 575 
Q 300 766 256 984 
L 825 1050 
Q 859 925 921 808 
Q 984 691 1092 598 
Q 1200 506 1358 451 
Q 1516 397 1741 397 
Q 1959 397 2137 464 
Q 2316 531 2442 662 
Q 2569 794 2637 984 
Q 2706 1175 2706 1422 
Q 2706 1625 2640 1795 
Q 2575 1966 2453 2089 
Q 2331 2213 2154 2281 
Q 1978 2350 1753 2350 
Q 1613 2350 1494 2325 
Q 1375 2300 1273 2256 
Q 1172 2213 1089 2155 
Q 1006 2097 934 2034 
L 384 2034 
L 531 4403 
L 3034 4403 
L 3034 3925 
L 1044 3925 
L 959 2528 
Q 1109 2644 1334 2726 
Q 1559 2809 1869 2809 
Q 2197 2809 2459 2709 
Q 2722 2609 2906 2426 
Q 3091 2244 3191 1991 
Q 3291 1738 3291 1434 
z
" transform="scale(0.015625)"/>
       </defs>
       <use xlink:href="#LiberationSans-35"/>
       <use xlink:href="#LiberationSans-30" x="55.615234"/>
      </g>
     </g>
    </g>
    <g id="xtick_3">
     <g id="line2d_3"/>
     <g id="text_3">
      <!-- 100 -->
      <g style="fill: #262626" transform="translate(374.563742 318.806875)scale(0.1 -0.1)">
       <defs>
        <path id="LiberationSans-31" d="M 488 0 
L 488 478 
L 1609 478 
L 1609 3866 
L 616 3156 
L 616 3688 
L 1656 4403 
L 2175 4403 
L 2175 478 
L 3247 478 
L 3247 0 
L 488 0 
z
" transform="scale(0.015625)"/>
       </defs>
       <use xlink:href="#LiberationSans-31"/>
       <use xlink:href="#LiberationSans-30" x="55.615234"/>
       <use xlink:href="#LiberationSans-30" x="111.230469"/>
      </g>
     </g>
    </g>
    <g id="xtick_4">
     <g id="line2d_4"/>
     <g id="text_4">
      <!-- 150 -->
      <g style="fill: #262626" transform="translate(496.798134 318.806875)scale(0.1 -0.1)">
       <use xlink:href="#LiberationSans-31"/>
       <use xlink:href="#LiberationSans-35" x="55.615234"/>
       <use xlink:href="#LiberationSans-30" x="111.230469"/>
      </g>
     </g>
    </g>
    <g id="xtick_5">
     <g id="line2d_5"/>
     <g id="text_5">
      <!-- 200 -->
      <g style="fill: #262626" transform="translate(619.032526 318.806875)scale(0.1 -0.1)">
       <defs>
        <path id="LiberationSans-32" d="M 322 0 
L 322 397 
Q 481 763 711 1042 
Q 941 1322 1194 1548 
Q 1447 1775 1695 1969 
Q 1944 2163 2144 2356 
Q 2344 2550 2467 2762 
Q 2591 2975 2591 3244 
Q 2591 3431 2534 3573 
Q 2478 3716 2372 3812 
Q 2266 3909 2117 3957 
Q 1969 4006 1788 4006 
Q 1619 4006 1470 3959 
Q 1322 3913 1206 3819 
Q 1091 3725 1017 3586 
Q 944 3447 922 3263 
L 347 3316 
Q 375 3553 478 3762 
Q 581 3972 762 4130 
Q 944 4288 1198 4378 
Q 1453 4469 1788 4469 
Q 2116 4469 2372 4391 
Q 2628 4313 2804 4159 
Q 2981 4006 3075 3781 
Q 3169 3556 3169 3263 
Q 3169 3041 3089 2841 
Q 3009 2641 2876 2459 
Q 2744 2278 2569 2109 
Q 2394 1941 2203 1780 
Q 2013 1619 1819 1461 
Q 1625 1303 1454 1143 
Q 1284 984 1150 820 
Q 1016 656 941 478 
L 3238 478 
L 3238 0 
L 322 0 
z
" transform="scale(0.015625)"/>
       </defs>
       <use xlink:href="#LiberationSans-32"/>
       <use xlink:href="#LiberationSans-30" x="55.615234"/>
       <use xlink:href="#LiberationSans-30" x="111.230469"/>
      </g>
     </g>
    </g>
    <g id="xtick_6">
     <g id="line2d_6"/>
     <g id="text_6">
      <!-- 250 -->
      <g style="fill: #262626" transform="translate(741.266918 318.806875)scale(0.1 -0.1)">
       <use xlink:href="#LiberationSans-32"/>
       <use xlink:href="#LiberationSans-35" x="55.615234"/>
       <use xlink:href="#LiberationSans-30" x="111.230469"/>
      </g>
     </g>
    </g>
   </g>
   <g id="matplotlib.axis_2">
    <g id="ytick_1">
     <g id="line2d_7"/>
     <g id="text_7">
      <!-- 1.0 -->
      <g style="fill: #262626" transform="translate(87.1 279.011887)scale(0.1 -0.1)">
       <defs>
        <path id="LiberationSans-2e" d="M 584 0 
L 584 684 
L 1194 684 
L 1194 0 
L 584 0 
z
" transform="scale(0.015625)"/>
       </defs>
       <use xlink:href="#LiberationSans-31"/>
       <use xlink:href="#LiberationSans-2e" x="55.615234"/>
       <use xlink:href="#LiberationSans-30" x="83.398438"/>
      </g>
     </g>
    </g>
    <g id="ytick_2">
     <g id="line2d_8"/>
     <g id="text_8">
      <!-- 1.5 -->
      <g style="fill: #262626" transform="translate(87.1 231.452418)scale(0.1 -0.1)">
       <use xlink:href="#LiberationSans-31"/>
       <use xlink:href="#LiberationSans-2e" x="55.615234"/>
       <use xlink:href="#LiberationSans-35" x="83.398438"/>
      </g>
     </g>
    </g>
    <g id="ytick_3">
     <g id="line2d_9"/>
     <g id="text_9">
      <!-- 2.0 -->
      <g style="fill: #262626" transform="translate(87.1 183.89295)scale(0.1 -0.1)">
       <use xlink:href="#LiberationSans-32"/>
       <use xlink:href="#LiberationSans-2e" x="55.615234"/>
       <use xlink:href="#LiberationSans-30" x="83.398438"/>
      </g>
     </g>
    </g>
    <g id="ytick_4">
     <g id="line2d_10"/>
     <g id="text_10">
      <!-- 2.5 -->
      <g style="fill: #262626" transform="translate(87.1 136.333481)scale(0.1 -0.1)">
       <use xlink:href="#LiberationSans-32"/>
       <use xlink:href="#LiberationSans-2e" x="55.615234"/>
       <use xlink:href="#LiberationSans-35" x="83.398438"/>
      </g>
     </g>
    </g>
    <g id="ytick_5">
     <g id="line2d_11"/>
     <g id="text_11">
      <!-- 3.0 -->
      <g style="fill: #262626" transform="translate(87.1 88.774013)scale(0.1 -0.1)">
       <defs>
        <path id="LiberationSans-33" d="M 3278 1216 
Q 3278 913 3179 675 
Q 3081 438 2892 273 
Q 2703 109 2423 23 
Q 2144 -63 1784 -63 
Q 1375 -63 1095 39 
Q 816 141 634 308 
Q 453 475 362 689 
Q 272 903 244 1131 
L 825 1184 
Q 850 1009 917 865 
Q 984 722 1100 619 
Q 1216 516 1384 459 
Q 1553 403 1784 403 
Q 2209 403 2451 612 
Q 2694 822 2694 1234 
Q 2694 1478 2586 1626 
Q 2478 1775 2317 1858 
Q 2156 1941 1967 1969 
Q 1778 1997 1619 1997 
L 1300 1997 
L 1300 2484 
L 1606 2484 
Q 1766 2484 1937 2517 
Q 2109 2550 2251 2636 
Q 2394 2722 2486 2869 
Q 2578 3016 2578 3244 
Q 2578 3597 2370 3801 
Q 2163 4006 1753 4006 
Q 1381 4006 1151 3815 
Q 922 3625 884 3278 
L 319 3322 
Q 353 3613 478 3828 
Q 603 4044 795 4186 
Q 988 4328 1234 4398 
Q 1481 4469 1759 4469 
Q 2128 4469 2393 4376 
Q 2659 4284 2828 4126 
Q 2997 3969 3076 3756 
Q 3156 3544 3156 3303 
Q 3156 3109 3103 2940 
Q 3050 2772 2937 2637 
Q 2825 2503 2651 2406 
Q 2478 2309 2234 2259 
L 2234 2247 
Q 2500 2219 2697 2126 
Q 2894 2034 3022 1896 
Q 3150 1759 3214 1584 
Q 3278 1409 3278 1216 
z
" transform="scale(0.015625)"/>
       </defs>
       <use xlink:href="#LiberationSans-33"/>
       <use xlink:href="#LiberationSans-2e" x="55.615234"/>
       <use xlink:href="#LiberationSans-30" x="83.398438"/>
      </g>
     </g>
    </g>
   </g>
   <g id="line2d_12">
    <path d="M 138.436364 88.069091 
L 140.881051 121.608378 
L 143.325739 137.478845 
L 145.770427 146.672079 
L 148.215115 149.475344 
L 150.659803 152.568436 
L 153.104491 154.442919 
L 155.549179 156.860475 
L 157.993866 158.347162 
L 160.438554 156.898778 
L 162.883242 156.30799 
L 165.32793 158.154579 
L 167.772618 158.511691 
L 170.217306 160.66101 
L 172.661993 161.638143 
L 175.106681 160.974331 
L 177.551369 163.67643 
L 179.996057 167.306471 
L 182.440745 166.20783 
L 184.885433 167.996612 
L 187.33012 169.43225 
L 189.774808 173.557582 
L 192.219496 175.996365 
L 194.664184 175.075678 
L 197.108872 178.139606 
L 199.55356 182.827854 
L 201.998248 181.842104 
L 204.442935 184.890418 
L 206.887623 186.979549 
L 209.332311 191.740775 
L 211.776999 189.638241 
L 214.221687 195.09919 
L 216.666375 197.73898 
L 219.111062 196.997825 
L 224.000438 200.080405 
L 226.445126 203.46939 
L 228.889814 201.25605 
L 231.334502 206.36754 
L 233.779189 207.271434 
L 236.223877 207.733489 
L 238.668565 210.909446 
L 241.113253 210.652492 
L 243.557941 212.265961 
L 246.002629 215.560673 
L 248.447317 213.283891 
L 250.892004 218.787259 
L 253.336692 216.846567 
L 255.78138 216.035643 
L 258.226068 217.722578 
L 260.670756 218.554582 
L 263.115444 224.097126 
L 265.560131 222.564107 
L 268.004819 224.100698 
L 270.449507 223.606258 
L 272.894195 224.75495 
L 275.338883 225.067874 
L 277.783571 225.056751 
L 282.672946 225.871008 
L 285.117634 226.484429 
L 287.562322 231.272472 
L 290.00701 229.468428 
L 292.451698 231.47272 
L 294.896386 231.596996 
L 297.341073 232.252915 
L 299.785761 234.736759 
L 302.230449 233.135321 
L 304.675137 232.677892 
L 307.119825 238.261971 
L 309.564513 233.530714 
L 312.0092 236.382261 
L 314.453888 238.017263 
L 316.898576 234.566719 
L 319.343264 238.163594 
L 321.787952 237.570277 
L 324.23264 239.496693 
L 326.677327 240.830575 
L 329.122015 241.797026 
L 331.566703 241.23589 
L 334.011391 241.599885 
L 336.456079 242.527329 
L 338.900767 241.099605 
L 341.345455 245.069241 
L 343.790142 243.560374 
L 346.23483 244.229254 
L 348.679518 243.709052 
L 351.124206 246.348309 
L 353.568894 244.828263 
L 356.013582 245.824603 
L 358.458269 247.589131 
L 360.902957 246.553886 
L 363.347645 250.964396 
L 365.792333 246.798719 
L 368.237021 248.984221 
L 370.681709 247.546916 
L 373.126396 248.724398 
L 375.571084 250.210167 
L 378.015772 247.879241 
L 380.46046 247.583983 
L 382.905148 253.922507 
L 385.349836 249.401476 
L 387.794524 250.004862 
L 390.239211 251.148463 
L 392.683899 253.41437 
L 395.128587 252.405057 
L 397.573275 251.801978 
L 400.017963 253.282973 
L 402.462651 253.504323 
L 404.907338 253.525289 
L 407.352026 254.89685 
L 409.796714 253.410174 
L 412.241402 256.668601 
L 414.68609 254.356929 
L 417.130778 257.541187 
L 419.575465 255.850272 
L 422.020153 256.247888 
L 424.464841 254.588042 
L 426.909529 256.456935 
L 429.354217 253.27101 
L 434.243593 257.340542 
L 436.68828 258.941833 
L 439.132968 259.103562 
L 441.577656 262.374507 
L 446.467032 260.750379 
L 448.91172 258.50808 
L 451.356407 261.221438 
L 453.801095 258.314749 
L 456.245783 259.186394 
L 458.690471 258.22288 
L 461.135159 262.240479 
L 463.579847 260.987332 
L 466.024535 262.220137 
L 468.469222 264.181001 
L 473.358598 261.984681 
L 475.803286 264.398756 
L 478.247974 263.912775 
L 480.692662 262.022962 
L 483.137349 266.626122 
L 485.582037 266.30068 
L 488.026725 259.048579 
L 490.471413 266.536952 
L 492.916101 265.291515 
L 495.360789 266.220229 
L 497.805476 265.664932 
L 500.250164 267.346935 
L 502.694852 264.182067 
L 505.13954 268.630539 
L 507.584228 269.250797 
L 510.028916 264.784035 
L 512.473604 270.014097 
L 514.918291 267.901211 
L 517.362979 265.395369 
L 519.807667 269.51875 
L 522.252355 267.59551 
L 524.697043 269.339616 
L 527.141731 269.364913 
L 529.586418 268.221902 
L 532.031106 271.414993 
L 534.475794 273.118834 
L 536.920482 268.878218 
L 539.36517 272.828021 
L 541.809858 271.528418 
L 544.254545 268.621048 
L 546.699233 271.556425 
L 549.143921 274.052991 
L 551.588609 271.345961 
L 554.033297 273.441997 
L 556.477985 272.466294 
L 558.922673 273.490699 
L 561.36736 272.754918 
L 563.812048 276.082491 
L 566.256736 274.811575 
L 568.701424 274.228906 
L 571.146112 277.720015 
L 573.5908 276.286798 
L 576.035487 276.930936 
L 578.480175 276.399882 
L 580.924863 277.414518 
L 583.369551 276.922993 
L 585.814239 277.642995 
L 593.148302 277.798397 
L 595.59299 278.722995 
L 598.037678 279.459286 
L 600.482366 279.974232 
L 602.927054 278.847951 
L 605.371742 279.581986 
L 607.816429 281.847394 
L 610.261117 278.116826 
L 612.705805 281.67343 
L 615.150493 278.194907 
L 617.595181 276.815192 
L 620.039869 278.590005 
L 622.484556 278.363054 
L 624.929244 283.837076 
L 627.373932 280.41827 
L 629.81862 282.928721 
L 632.263308 277.908386 
L 634.707996 280.578615 
L 637.152683 280.528015 
L 639.597371 280.790741 
L 642.042059 284.343767 
L 644.486747 285.460279 
L 646.931435 278.947639 
L 649.376123 281.703626 
L 651.820811 283.979869 
L 654.265498 282.134062 
L 656.710186 285.762437 
L 659.154874 285.828232 
L 661.599562 284.824884 
L 664.04425 286.269282 
L 666.488938 287.140144 
L 668.933625 284.0715 
L 671.378313 283.760656 
L 673.823001 282.541055 
L 676.267689 282.937248 
L 678.712377 286.454692 
L 681.157065 283.052555 
L 683.601752 286.917672 
L 686.04644 286.524637 
L 688.491128 286.375773 
L 693.380504 286.698505 
L 695.825192 288.426816 
L 698.26988 285.868389 
L 700.714567 287.168413 
L 703.159255 289.399248 
L 705.603943 288.264724 
L 708.048631 286.730889 
L 710.493319 289.803678 
L 712.938007 290.302665 
L 715.382694 286.697762 
L 717.827382 287.880948 
L 720.27207 289.467912 
L 722.716758 286.537955 
L 725.161446 288.709799 
L 727.606134 288.69325 
L 730.050821 287.538219 
L 732.495509 289.284077 
L 734.940197 290.455578 
L 737.384885 288.031701 
L 739.829573 292.773628 
L 742.274261 294.250909 
L 744.718949 293.367908 
L 747.163636 291.267993 
L 747.163636 291.267993 
" clip-path="url(#p8aa6e662b1)" style="fill: none; stroke: #ff0000; stroke-width: 1.75; stroke-linecap: round"/>
   </g>
   <g id="line2d_13">
    <path d="M 138.436364 107.773045 
L 140.881051 130.452233 
L 143.325739 141.84749 
L 145.770427 147.691234 
L 148.215115 150.543801 
L 150.659803 152.414588 
L 153.104491 153.474382 
L 155.549179 154.406067 
L 162.883242 156.381218 
L 165.32793 157.466797 
L 167.772618 158.010369 
L 172.661993 159.911204 
L 175.106681 161.112736 
L 177.551369 162.030134 
L 182.440745 164.835871 
L 184.885433 166.667016 
L 189.774808 170.819335 
L 192.219496 172.351628 
L 194.664184 174.407966 
L 197.108872 177.480421 
L 199.55356 179.87133 
L 201.998248 181.675125 
L 204.442935 182.744637 
L 206.887623 186.091213 
L 209.332311 188.032267 
L 214.221687 190.96803 
L 216.666375 193.284759 
L 221.55575 197.069919 
L 226.445126 200.22152 
L 228.889814 201.391892 
L 231.334502 202.866344 
L 233.779189 204.524342 
L 236.223877 205.338725 
L 238.668565 207.111405 
L 241.113253 208.3553 
L 243.557941 209.274297 
L 246.002629 211.096734 
L 248.447317 211.665558 
L 250.892004 212.57808 
L 253.336692 212.843709 
L 255.78138 214.135965 
L 258.226068 214.12017 
L 260.670756 217.52165 
L 263.115444 216.918684 
L 265.560131 218.743649 
L 268.004819 220.0561 
L 270.449507 220.239112 
L 272.894195 221.528069 
L 275.338883 222.389973 
L 277.783571 223.08279 
L 280.228258 222.995593 
L 282.672946 224.646333 
L 285.117634 225.374471 
L 287.562322 225.842151 
L 290.00701 226.046945 
L 292.451698 227.214665 
L 294.896386 227.093042 
L 297.341073 228.288576 
L 299.785761 229.019526 
L 302.230449 228.55662 
L 307.119825 230.778384 
L 309.564513 231.610932 
L 312.0092 230.826949 
L 314.453888 231.807653 
L 316.898576 232.136123 
L 319.343264 233.838785 
L 321.787952 232.963308 
L 324.23264 234.448158 
L 326.677327 234.906403 
L 329.122015 234.879291 
L 331.566703 233.587081 
L 334.011391 236.231894 
L 336.456079 236.04599 
L 338.900767 236.105679 
L 341.345455 237.572919 
L 343.790142 237.566105 
L 346.23483 237.376096 
L 348.679518 237.76845 
L 351.124206 238.011333 
L 353.568894 239.232731 
L 356.013582 240.186471 
L 358.458269 239.960619 
L 360.902957 240.937978 
L 363.347645 239.904729 
L 365.792333 241.658734 
L 368.237021 241.400204 
L 370.681709 242.192441 
L 373.126396 242.70398 
L 375.571084 241.441444 
L 378.015772 243.221756 
L 380.46046 243.362984 
L 385.349836 244.418696 
L 390.239211 244.962256 
L 392.683899 244.37639 
L 395.128587 244.935247 
L 397.573275 246.246133 
L 400.017963 244.718455 
L 402.462651 246.666018 
L 404.907338 245.337613 
L 407.352026 246.809367 
L 409.796714 247.234003 
L 414.68609 246.748884 
L 417.130778 246.624654 
L 419.575465 248.566422 
L 424.464841 248.990435 
L 426.909529 246.474831 
L 429.354217 249.620887 
L 431.798905 249.642635 
L 434.243593 249.824038 
L 436.68828 250.66653 
L 441.577656 251.319308 
L 444.022344 250.962536 
L 446.467032 251.273419 
L 448.91172 251.283103 
L 451.356407 251.894505 
L 453.801095 251.259302 
L 456.245783 252.436909 
L 458.690471 252.556286 
L 461.135159 252.798908 
L 463.579847 252.376392 
L 466.024535 254.07453 
L 468.469222 254.033165 
L 470.91391 253.665213 
L 473.358598 254.51444 
L 475.803286 254.999967 
L 478.247974 255.1917 
L 480.692662 254.661315 
L 483.137349 255.547667 
L 485.582037 255.006249 
L 488.026725 254.782711 
L 490.471413 254.69447 
L 492.916101 255.907557 
L 495.360789 256.781311 
L 497.805476 257.021586 
L 500.250164 256.458896 
L 502.694852 256.677786 
L 505.13954 258.114637 
L 507.584228 255.868301 
L 512.473604 257.309326 
L 514.918291 258.072671 
L 517.362979 257.355669 
L 522.252355 258.142996 
L 524.697043 258.460105 
L 527.141731 259.266108 
L 529.586418 259.138214 
L 532.031106 259.481606 
L 534.475794 259.257547 
L 536.920482 259.744389 
L 539.36517 259.321238 
L 541.809858 260.663692 
L 544.254545 259.214798 
L 546.699233 260.879951 
L 549.143921 260.935183 
L 551.588609 261.707838 
L 554.033297 260.707121 
L 556.477985 261.747514 
L 558.922673 260.217897 
L 561.36736 262.584393 
L 563.812048 260.496328 
L 568.701424 262.867473 
L 571.146112 263.068469 
L 573.5908 262.590391 
L 576.035487 263.225617 
L 578.480175 262.768245 
L 580.924863 261.235362 
L 583.369551 263.375315 
L 585.814239 263.93085 
L 588.258927 262.749966 
L 590.703614 264.405809 
L 593.148302 263.522065 
L 595.59299 264.034103 
L 598.037678 262.822559 
L 600.482366 264.343422 
L 602.927054 264.895214 
L 605.371742 263.694657 
L 607.816429 264.14255 
L 610.261117 265.030206 
L 612.705805 265.444342 
L 615.150493 266.147523 
L 617.595181 265.539613 
L 620.039869 264.337355 
L 622.484556 264.725117 
L 624.929244 264.326685 
L 627.373932 266.586163 
L 629.81862 263.492198 
L 632.263308 266.16003 
L 634.707996 265.189814 
L 637.152683 267.663056 
L 639.597371 266.367693 
L 642.042059 266.1884 
L 644.486747 267.769394 
L 646.931435 265.296322 
L 649.376123 267.527781 
L 651.820811 266.894665 
L 654.265498 267.026572 
L 656.710186 266.827424 
L 659.154874 267.695112 
L 661.599562 268.944835 
L 664.04425 267.297916 
L 666.488938 267.982058 
L 668.933625 267.842565 
L 671.378313 268.403622 
L 673.823001 266.840203 
L 676.267689 268.616082 
L 678.712377 268.704266 
L 681.157065 269.492342 
L 683.601752 267.925216 
L 686.04644 269.490822 
L 688.491128 268.895839 
L 690.935816 269.824474 
L 693.380504 268.335429 
L 695.825192 269.451238 
L 698.26988 268.385842 
L 700.714567 270.54108 
L 703.159255 269.864138 
L 705.603943 269.953705 
L 708.048631 263.403924 
L 710.493319 270.078084 
L 712.938007 270.036526 
L 715.382694 267.433032 
L 717.827382 269.804506 
L 720.27207 271.471382 
L 722.716758 270.905302 
L 725.161446 270.622971 
L 727.606134 270.696641 
L 730.050821 269.196755 
L 732.495509 270.838481 
L 734.940197 271.625899 
L 737.384885 269.603351 
L 739.829573 269.807205 
L 742.274261 269.304567 
L 744.718949 271.849676 
L 747.163636 270.728662 
L 747.163636 270.728662 
" clip-path="url(#p8aa6e662b1)" style="fill: none; stroke: #008000; stroke-width: 1.75; stroke-linecap: round"/>
   </g>
   <g id="patch_3">
    <path d="M 108 304.56 
L 108 77.76 
" style="fill: none"/>
   </g>
   <g id="patch_4">
    <path d="M 777.6 304.56 
L 777.6 77.76 
" style="fill: none"/>
   </g>
   <g id="patch_5">
    <path d="M 108 304.56 
L 777.6 304.56 
" style="fill: none"/>
   </g>
   <g id="patch_6">
    <path d="M 108 77.76 
L 777.6 77.76 
" style="fill: none"/>
   </g>
  </g>
  <g id="axes_2">
   <g id="patch_7">
    <path d="M 108 576.72 
L 777.6 576.72 
L 777.6 349.92 
L 108 349.92 
z
" style="fill: #eaeaf2"/>
   </g>
   <g id="matplotlib.axis_3">
    <g id="xtick_7">
     <g id="line2d_14"/>
     <g id="text_12">
      <!-- 0 -->
      <g style="fill: #262626" transform="translate(135.655895 590.966875)scale(0.1 -0.1)">
       <use xlink:href="#LiberationSans-30"/>
      </g>
     </g>
    </g>
    <g id="xtick_8">
     <g id="line2d_15"/>
     <g id="text_13">
      <!-- 50 -->
      <g style="fill: #262626" transform="translate(255.109818 590.966875)scale(0.1 -0.1)">
       <use xlink:href="#LiberationSans-35"/>
       <use xlink:href="#LiberationSans-30" x="55.615234"/>
      </g>
     </g>
    </g>
    <g id="xtick_9">
     <g id="line2d_16"/>
     <g id="text_14">
      <!-- 100 -->
      <g style="fill: #262626" transform="translate(374.563742 590.966875)scale(0.1 -0.1)">
       <use xlink:href="#LiberationSans-31"/>
       <use xlink:href="#LiberationSans-30" x="55.615234"/>
       <use xlink:href="#LiberationSans-30" x="111.230469"/>
      </g>
     </g>
    </g>
    <g id="xtick_10">
     <g id="line2d_17"/>
     <g id="text_15">
      <!-- 150 -->
      <g style="fill: #262626" transform="translate(496.798134 590.966875)scale(0.1 -0.1)">
       <use xlink:href="#LiberationSans-31"/>
       <use xlink:href="#LiberationSans-35" x="55.615234"/>
       <use xlink:href="#LiberationSans-30" x="111.230469"/>
      </g>
     </g>
    </g>
    <g id="xtick_11">
     <g id="line2d_18"/>
     <g id="text_16">
      <!-- 200 -->
      <g style="fill: #262626" transform="translate(619.032526 590.966875)scale(0.1 -0.1)">
       <use xlink:href="#LiberationSans-32"/>
       <use xlink:href="#LiberationSans-30" x="55.615234"/>
       <use xlink:href="#LiberationSans-30" x="111.230469"/>
      </g>
     </g>
    </g>
    <g id="xtick_12">
     <g id="line2d_19"/>
     <g id="text_17">
      <!-- 250 -->
      <g style="fill: #262626" transform="translate(741.266918 590.966875)scale(0.1 -0.1)">
       <use xlink:href="#LiberationSans-32"/>
       <use xlink:href="#LiberationSans-35" x="55.615234"/>
       <use xlink:href="#LiberationSans-30" x="111.230469"/>
      </g>
     </g>
    </g>
   </g>
   <g id="matplotlib.axis_4">
    <g id="ytick_6">
     <g id="line2d_20"/>
     <g id="text_18">
      <!-- 0.0 -->
      <g style="fill: #262626" transform="translate(87.1 571.026241)scale(0.1 -0.1)">
       <use xlink:href="#LiberationSans-30"/>
       <use xlink:href="#LiberationSans-2e" x="55.615234"/>
       <use xlink:href="#LiberationSans-30" x="83.398438"/>
      </g>
     </g>
    </g>
    <g id="ytick_7">
     <g id="line2d_21"/>
     <g id="text_19">
      <!-- 0.1 -->
      <g style="fill: #262626" transform="translate(87.1 543.940907)scale(0.1 -0.1)">
       <use xlink:href="#LiberationSans-30"/>
       <use xlink:href="#LiberationSans-2e" x="55.615234"/>
       <use xlink:href="#LiberationSans-31" x="83.398438"/>
      </g>
     </g>
    </g>
    <g id="ytick_8">
     <g id="line2d_22"/>
     <g id="text_20">
      <!-- 0.2 -->
      <g style="fill: #262626" transform="translate(87.1 516.855572)scale(0.1 -0.1)">
       <use xlink:href="#LiberationSans-30"/>
       <use xlink:href="#LiberationSans-2e" x="55.615234"/>
       <use xlink:href="#LiberationSans-32" x="83.398438"/>
      </g>
     </g>
    </g>
    <g id="ytick_9">
     <g id="line2d_23"/>
     <g id="text_21">
      <!-- 0.3 -->
      <g style="fill: #262626" transform="translate(87.1 489.770238)scale(0.1 -0.1)">
       <use xlink:href="#LiberationSans-30"/>
       <use xlink:href="#LiberationSans-2e" x="55.615234"/>
       <use xlink:href="#LiberationSans-33" x="83.398438"/>
      </g>
     </g>
    </g>
    <g id="ytick_10">
     <g id="line2d_24"/>
     <g id="text_22">
      <!-- 0.4 -->
      <g style="fill: #262626" transform="translate(87.1 462.684903)scale(0.1 -0.1)">
       <defs>
        <path id="LiberationSans-34" d="M 2753 997 
L 2753 0 
L 2222 0 
L 2222 997 
L 147 997 
L 147 1434 
L 2163 4403 
L 2753 4403 
L 2753 1441 
L 3372 1441 
L 3372 997 
L 2753 997 
z
M 2222 3769 
Q 2216 3753 2191 3708 
Q 2166 3663 2134 3606 
Q 2103 3550 2070 3492 
Q 2038 3434 2013 3397 
L 884 1734 
Q 869 1709 839 1668 
Q 809 1628 778 1586 
Q 747 1544 715 1503 
Q 684 1463 666 1441 
L 2222 1441 
L 2222 3769 
z
" transform="scale(0.015625)"/>
       </defs>
       <use xlink:href="#LiberationSans-30"/>
       <use xlink:href="#LiberationSans-2e" x="55.615234"/>
       <use xlink:href="#LiberationSans-34" x="83.398438"/>
      </g>
     </g>
    </g>
    <g id="ytick_11">
     <g id="line2d_25"/>
     <g id="text_23">
      <!-- 0.5 -->
      <g style="fill: #262626" transform="translate(87.1 435.599569)scale(0.1 -0.1)">
       <use xlink:href="#LiberationSans-30"/>
       <use xlink:href="#LiberationSans-2e" x="55.615234"/>
       <use xlink:href="#LiberationSans-35" x="83.398438"/>
      </g>
     </g>
    </g>
    <g id="ytick_12">
     <g id="line2d_26"/>
     <g id="text_24">
      <!-- 0.6 -->
      <g style="fill: #262626" transform="translate(87.1 408.514235)scale(0.1 -0.1)">
       <defs>
        <path id="LiberationSans-36" d="M 3278 1441 
Q 3278 1109 3186 832 
Q 3094 556 2914 357 
Q 2734 159 2468 48 
Q 2203 -63 1856 -63 
Q 1472 -63 1184 84 
Q 897 231 706 507 
Q 516 784 420 1186 
Q 325 1588 325 2100 
Q 325 2688 433 3131 
Q 541 3575 744 3872 
Q 947 4169 1239 4319 
Q 1531 4469 1900 4469 
Q 2125 4469 2322 4422 
Q 2519 4375 2680 4270 
Q 2841 4166 2962 3994 
Q 3084 3822 3156 3572 
L 2619 3475 
Q 2531 3759 2339 3886 
Q 2147 4013 1894 4013 
Q 1663 4013 1475 3903 
Q 1288 3794 1156 3576 
Q 1025 3359 954 3031 
Q 884 2703 884 2266 
Q 1038 2550 1316 2698 
Q 1594 2847 1953 2847 
Q 2253 2847 2497 2750 
Q 2741 2653 2914 2470 
Q 3088 2288 3183 2027 
Q 3278 1766 3278 1441 
z
M 2706 1416 
Q 2706 1644 2650 1828 
Q 2594 2013 2481 2142 
Q 2369 2272 2203 2342 
Q 2038 2413 1819 2413 
Q 1666 2413 1509 2367 
Q 1353 2322 1226 2220 
Q 1100 2119 1020 1953 
Q 941 1788 941 1550 
Q 941 1306 1003 1095 
Q 1066 884 1183 728 
Q 1300 572 1465 481 
Q 1631 391 1838 391 
Q 2041 391 2202 461 
Q 2363 531 2475 664 
Q 2588 797 2647 987 
Q 2706 1178 2706 1416 
z
" transform="scale(0.015625)"/>
       </defs>
       <use xlink:href="#LiberationSans-30"/>
       <use xlink:href="#LiberationSans-2e" x="55.615234"/>
       <use xlink:href="#LiberationSans-36" x="83.398438"/>
      </g>
     </g>
    </g>
    <g id="ytick_13">
     <g id="line2d_27"/>
     <g id="text_25">
      <!-- 0.7 -->
      <g style="fill: #262626" transform="translate(87.1 381.4289)scale(0.1 -0.1)">
       <defs>
        <path id="LiberationSans-37" d="M 3238 3947 
Q 2906 3441 2628 2973 
Q 2350 2506 2150 2032 
Q 1950 1559 1839 1061 
Q 1728 563 1728 0 
L 1141 0 
Q 1141 528 1266 1036 
Q 1391 1544 1603 2033 
Q 1816 2522 2097 2994 
Q 2378 3466 2694 3925 
L 328 3925 
L 328 4403 
L 3238 4403 
L 3238 3947 
z
" transform="scale(0.015625)"/>
       </defs>
       <use xlink:href="#LiberationSans-30"/>
       <use xlink:href="#LiberationSans-2e" x="55.615234"/>
       <use xlink:href="#LiberationSans-37" x="83.398438"/>
      </g>
     </g>
    </g>
    <g id="ytick_14">
     <g id="line2d_28"/>
     <g id="text_26">
      <!-- 0.8 -->
      <g style="fill: #262626" transform="translate(87.1 354.343566)scale(0.1 -0.1)">
       <defs>
        <path id="LiberationSans-38" d="M 3281 1228 
Q 3281 947 3192 711 
Q 3103 475 2920 303 
Q 2738 131 2453 34 
Q 2169 -63 1781 -63 
Q 1394 -63 1111 34 
Q 828 131 642 301 
Q 456 472 367 708 
Q 278 944 278 1222 
Q 278 1463 351 1650 
Q 425 1838 548 1973 
Q 672 2109 830 2192 
Q 988 2275 1156 2303 
L 1156 2316 
Q 972 2359 826 2456 
Q 681 2553 582 2689 
Q 484 2825 432 2990 
Q 381 3156 381 3341 
Q 381 3572 470 3776 
Q 559 3981 734 4136 
Q 909 4291 1168 4380 
Q 1428 4469 1769 4469 
Q 2128 4469 2392 4378 
Q 2656 4288 2829 4133 
Q 3003 3978 3087 3772 
Q 3172 3566 3172 3334 
Q 3172 3153 3120 2987 
Q 3069 2822 2970 2686 
Q 2872 2550 2726 2454 
Q 2581 2359 2391 2322 
L 2391 2309 
Q 2581 2278 2743 2195 
Q 2906 2113 3025 1977 
Q 3144 1841 3212 1653 
Q 3281 1466 3281 1228 
z
M 2588 3303 
Q 2588 3469 2545 3606 
Q 2503 3744 2406 3842 
Q 2309 3941 2153 3995 
Q 1997 4050 1769 4050 
Q 1547 4050 1394 3995 
Q 1241 3941 1142 3842 
Q 1044 3744 1000 3606 
Q 956 3469 956 3303 
Q 956 3172 990 3034 
Q 1025 2897 1115 2784 
Q 1206 2672 1365 2600 
Q 1525 2528 1775 2528 
Q 2041 2528 2202 2600 
Q 2363 2672 2448 2784 
Q 2534 2897 2561 3034 
Q 2588 3172 2588 3303 
z
M 2697 1281 
Q 2697 1441 2653 1589 
Q 2609 1738 2503 1852 
Q 2397 1966 2217 2036 
Q 2038 2106 1769 2106 
Q 1522 2106 1348 2036 
Q 1175 1966 1067 1850 
Q 959 1734 909 1582 
Q 859 1431 859 1269 
Q 859 1066 909 898 
Q 959 731 1068 611 
Q 1178 491 1356 425 
Q 1534 359 1788 359 
Q 2044 359 2219 425 
Q 2394 491 2500 611 
Q 2606 731 2651 901 
Q 2697 1072 2697 1281 
z
" transform="scale(0.015625)"/>
       </defs>
       <use xlink:href="#LiberationSans-30"/>
       <use xlink:href="#LiberationSans-2e" x="55.615234"/>
       <use xlink:href="#LiberationSans-38" x="83.398438"/>
      </g>
     </g>
    </g>
   </g>
   <g id="line2d_29">
    <path d="M 138.436364 566.410909 
L 143.325739 511.98896 
L 145.770427 507.227866 
L 148.215115 510.997066 
L 150.659803 509.079403 
L 153.104491 509.277782 
L 155.549179 509.013277 
L 157.993866 508.285887 
L 160.438554 511.063192 
L 162.883242 510.071297 
L 165.32793 508.153635 
L 167.772618 510.930939 
L 170.217306 510.071297 
L 172.661993 506.037593 
L 175.106681 510.401929 
L 177.551369 507.227866 
L 179.996057 498.168563 
L 182.440745 485.472312 
L 184.885433 474.495346 
L 187.33012 472.842188 
L 189.774808 467.61821 
L 192.219496 464.510273 
L 194.664184 463.981263 
L 197.108872 462.592611 
L 199.55356 460.344316 
L 201.998248 459.418548 
L 204.442935 461.270085 
L 206.887623 461.203958 
L 209.332311 452.872044 
L 211.776999 458.162148 
L 214.221687 457.699264 
L 216.666375 453.202675 
L 219.111062 455.45097 
L 221.55575 454.260696 
L 224.000438 452.276907 
L 226.445126 452.210781 
L 228.889814 452.40916 
L 231.334502 447.978697 
L 233.779189 445.06914 
L 236.223877 447.648066 
L 238.668565 443.746614 
L 241.113253 446.85455 
L 243.557941 446.722298 
L 246.002629 435.414699 
L 248.447317 445.267519 
L 250.892004 435.414699 
L 253.336692 434.819563 
L 255.78138 437.067857 
L 258.226068 433.827668 
L 260.670756 432.042258 
L 263.115444 428.206932 
L 265.560131 427.611795 
L 270.449507 429.198827 
L 272.894195 427.942427 
L 275.338883 427.611795 
L 277.783571 430.256848 
L 280.228258 429.463332 
L 282.672946 431.6455 
L 285.117634 428.339185 
L 287.562322 421.660428 
L 290.00701 427.744048 
L 292.451698 426.223143 
L 294.896386 423.247459 
L 297.341073 424.702238 
L 302.230449 422.784575 
L 304.675137 426.884406 
L 307.119825 418.155734 
L 309.564513 422.850701 
L 312.0092 419.081502 
L 314.453888 420.337902 
L 316.898576 421.131418 
L 319.343264 417.69285 
L 321.787952 417.428345 
L 324.23264 417.560597 
L 326.677327 416.304197 
L 329.122015 415.510682 
L 331.566703 416.634829 
L 334.011391 413.92365 
L 336.456079 413.262387 
L 338.900767 416.171945 
L 341.345455 413.262387 
L 343.790142 413.262387 
L 346.23483 411.278598 
L 348.679518 411.543103 
L 351.124206 408.633546 
L 353.568894 411.344724 
L 356.013582 410.683461 
L 358.458269 407.575525 
L 360.902957 410.088325 
L 363.347645 405.988494 
L 365.792333 406.649757 
L 368.237021 404.732094 
L 370.681709 408.699672 
L 373.126396 406.583631 
L 375.571084 403.541821 
L 378.015772 406.649757 
L 380.46046 406.451378 
L 382.905148 400.896768 
L 385.349836 406.914262 
L 387.794524 406.517504 
L 390.239211 403.674073 
L 392.683899 401.095147 
L 395.128587 403.343442 
L 397.573275 403.674073 
L 400.017963 400.896768 
L 402.462651 400.830642 
L 404.907338 403.277315 
L 407.352026 399.574242 
L 409.796714 400.896768 
L 412.241402 399.640369 
L 414.68609 401.2274 
L 417.130778 397.524327 
L 419.575465 399.772621 
L 422.020153 397.854958 
L 424.464841 399.508116 
L 426.909529 400.50001 
L 429.354217 400.50001 
L 431.798905 399.971 
L 434.243593 397.921085 
L 436.68828 396.40018 
L 439.132968 395.871169 
L 441.577656 392.895485 
L 444.022344 394.879275 
L 446.467032 392.564854 
L 448.91172 396.598559 
L 451.356407 393.689001 
L 453.801095 396.532432 
L 456.245783 396.201801 
L 458.690471 393.689001 
L 461.135159 393.755127 
L 463.579847 396.003422 
L 466.024535 392.366475 
L 468.469222 389.985928 
L 470.91391 390.052054 
L 473.358598 392.432601 
L 475.803286 391.506833 
L 478.247974 390.911696 
L 480.692662 391.506833 
L 483.137349 387.539255 
L 485.582037 388.134392 
L 488.026725 395.077654 
L 490.471413 388.33277 
L 492.916101 389.655297 
L 495.360789 387.340876 
L 497.805476 388.597276 
L 500.250164 386.481234 
L 502.694852 389.456918 
L 505.13954 388.927907 
L 507.584228 385.489339 
L 510.028916 390.052054 
L 512.473604 384.497445 
L 514.918291 387.407002 
L 517.362979 389.192412 
L 519.807667 382.24915 
L 522.252355 387.142497 
L 524.697043 384.299066 
L 527.141731 384.76195 
L 529.586418 388.33277 
L 532.031106 381.72014 
L 534.475794 380.265361 
L 536.920482 386.811865 
L 539.36517 381.72014 
L 541.809858 380.728245 
L 544.254545 385.026455 
L 546.699233 384.431318 
L 549.143921 382.315277 
L 551.588609 383.108792 
L 554.033297 380.860498 
L 556.477985 382.778161 
L 558.922673 380.199235 
L 561.36736 380.926624 
L 563.812048 379.008961 
L 566.256736 382.183024 
L 568.701424 381.984645 
L 571.146112 376.694541 
L 573.5908 379.537972 
L 576.035487 377.884814 
L 578.480175 379.93473 
L 580.924863 378.546077 
L 583.369551 378.546077 
L 585.814239 377.091299 
L 588.258927 378.215446 
L 590.703614 379.471846 
L 593.148302 378.215446 
L 595.59299 375.768773 
L 598.037678 376.16553 
L 600.482366 373.718857 
L 602.927054 374.247868 
L 605.371742 374.181741 
L 607.816429 373.586604 
L 610.261117 376.430036 
L 612.705805 373.454352 
L 615.150493 375.305888 
L 617.595181 376.826793 
L 620.039869 378.083193 
L 622.484556 375.702646 
L 624.929244 371.33831 
L 627.373932 376.694541 
L 629.81862 371.404436 
L 632.263308 377.025172 
L 634.707996 375.63652 
L 637.152683 375.107509 
L 639.597371 373.718857 
L 642.042059 370.544794 
L 644.486747 369.222268 
L 646.931435 374.247868 
L 649.376123 372.991468 
L 651.820811 371.602815 
L 654.265498 374.909131 
L 656.710186 367.569111 
L 659.154874 369.619026 
L 661.599562 368.230374 
L 664.04425 368.759384 
L 666.488938 365.188564 
L 668.933625 369.5529 
L 671.378313 371.272184 
L 673.823001 370.478668 
L 676.267689 372.991468 
L 678.712377 367.370732 
L 681.157065 371.867321 
L 683.601752 367.106227 
L 686.04644 369.023889 
L 688.491128 367.701363 
L 690.935816 367.899742 
L 693.380504 368.494879 
L 695.825192 366.841721 
L 698.26988 367.965869 
L 700.714567 368.494879 
L 703.159255 365.386943 
L 705.603943 369.883531 
L 708.048631 370.214163 
L 710.493319 365.982079 
L 712.938007 366.114332 
L 715.382694 368.164247 
L 717.827382 366.246585 
L 720.27207 364.791806 
L 722.716758 369.949658 
L 725.161446 364.791806 
L 727.606134 364.593427 
L 730.050821 364.593427 
L 732.495509 367.370732 
L 734.940197 365.519195 
L 737.384885 367.502984 
L 739.829573 362.146754 
L 742.274261 360.229091 
L 744.718949 362.675764 
L 747.163636 365.453069 
L 747.163636 365.453069 
" clip-path="url(#p19278cab3c)" style="fill: none; stroke: #ff0000; stroke-width: 1.75; stroke-linecap: round"/>
   </g>
   <g id="line2d_30">
    <path d="M 138.436364 565.872559 
L 140.881051 529.146682 
L 143.325739 507.627615 
L 148.215115 507.723253 
L 150.659803 507.723253 
L 153.104491 507.914532 
L 155.549179 507.627615 
L 157.993866 507.866713 
L 160.438554 507.866713 
L 162.883242 507.675434 
L 167.772618 507.723253 
L 170.217306 507.579792 
L 172.661993 507.771072 
L 175.106681 507.675434 
L 177.551369 500.311129 
L 179.996057 487.495331 
L 182.440745 480.561409 
L 184.885433 479.078983 
L 187.33012 468.319446 
L 189.774808 464.111272 
L 192.219496 467.889068 
L 194.664184 468.558548 
L 197.108872 463.298335 
L 199.55356 461.050783 
L 201.998248 459.80746 
L 204.442935 459.47272 
L 206.887623 458.564137 
L 209.332311 457.416451 
L 211.776999 460.763862 
L 214.221687 459.47272 
L 216.666375 456.507869 
L 219.111062 455.838388 
L 221.55575 453.829939 
L 224.000438 454.642884 
L 226.445126 451.486757 
L 228.889814 452.299695 
L 231.334502 450.912915 
L 233.779189 446.417819 
L 236.223877 449.239206 
L 238.668565 447.804599 
L 241.113253 443.213866 
L 243.557941 441.301063 
L 246.002629 445.078851 
L 248.447317 440.201196 
L 250.892004 437.04507 
L 253.336692 436.901605 
L 258.226068 435.658282 
L 260.670756 432.454336 
L 263.115444 433.841116 
L 265.560131 430.541533 
L 268.004819 430.541533 
L 272.894195 430.015509 
L 275.338883 431.211013 
L 277.783571 430.828446 
L 280.228258 428.915643 
L 282.672946 428.580895 
L 285.117634 427.194115 
L 287.562322 428.724367 
L 290.00701 426.620272 
L 292.451698 427.146296 
L 294.896386 430.015509 
L 297.341073 426.28554 
L 299.785761 427.337571 
L 302.230449 428.150525 
L 304.675137 425.711697 
L 307.119825 426.04643 
L 309.564513 425.042217 
L 312.0092 427.815776 
L 314.453888 427.241934 
L 316.898576 422.459917 
L 319.343264 422.220823 
L 321.787952 419.255972 
L 324.23264 421.455704 
L 326.677327 420.068909 
L 329.122015 420.068909 
L 331.566703 423.129397 
L 334.011391 419.925452 
L 336.456079 421.168775 
L 338.900767 420.69057 
L 341.345455 417.869192 
L 343.790142 417.00842 
L 346.23483 416.338939 
L 348.679518 418.443035 
L 351.124206 414.617412 
L 353.568894 417.056239 
L 356.013582 413.56538 
L 358.458269 415.191254 
L 360.902957 413.374088 
L 363.347645 414.139207 
L 365.792333 412.60897 
L 368.237021 414.043569 
L 373.126396 412.465514 
L 375.571084 412.465514 
L 378.015772 411.174372 
L 380.46046 410.504875 
L 382.905148 411.126553 
L 385.349836 410.3136 
L 387.794524 411.604742 
L 390.239211 409.452844 
L 392.683899 411.796033 
L 395.128587 410.457056 
L 397.573275 408.25734 
L 400.017963 412.082947 
L 402.462651 407.348749 
L 404.907338 409.978868 
L 407.352026 408.352977 
L 409.796714 407.348749 
L 412.241402 409.165914 
L 414.68609 407.922591 
L 419.575465 406.153245 
L 422.020153 404.766465 
L 424.464841 406.201063 
L 426.909529 406.487993 
L 429.354217 403.570961 
L 431.798905 405.388126 
L 434.243593 406.153245 
L 436.68828 402.710205 
L 439.132968 403.905709 
L 441.577656 403.570961 
L 444.022344 405.24467 
L 446.467032 403.714417 
L 448.91172 403.427504 
L 451.356407 401.897252 
L 453.801095 403.475323 
L 456.245783 402.088543 
L 458.690471 402.997118 
L 461.135159 401.514701 
L 463.579847 400.940858 
L 466.024535 400.223542 
L 468.469222 400.414834 
L 470.91391 399.840991 
L 473.358598 400.080086 
L 478.247974 398.932401 
L 480.692662 400.319196 
L 483.137349 398.932401 
L 485.582037 399.554062 
L 488.026725 400.319196 
L 490.471413 399.458424 
L 492.916101 399.171511 
L 495.360789 397.59344 
L 497.805476 396.923959 
L 500.250164 397.115235 
L 502.694852 398.26292 
L 505.13954 396.445754 
L 507.584228 400.080086 
L 510.028916 396.302298 
L 512.473604 396.971778 
L 514.918291 396.732684 
L 517.362979 396.684865 
L 519.807667 397.689078 
L 522.252355 396.445754 
L 524.697043 395.584999 
L 527.141731 396.684865 
L 529.586418 394.198219 
L 532.031106 395.345888 
L 534.475794 395.441542 
L 536.920482 394.006927 
L 539.36517 394.58077 
L 541.809858 392.95488 
L 544.254545 393.385266 
L 546.699233 393.337447 
L 549.143921 392.763604 
L 551.588609 392.620148 
L 554.033297 392.189762 
L 556.477985 391.520281 
L 558.922673 392.907061 
L 561.36736 390.037864 
L 563.812048 392.811423 
L 566.256736 391.137714 
L 573.5908 390.468234 
L 576.035487 389.94221 
L 578.480175 391.855029 
L 580.924863 391.520281 
L 583.369551 389.320548 
L 585.814239 388.125044 
L 588.258927 390.611706 
L 590.703614 390.324777 
L 593.148302 389.51184 
L 595.59299 388.364155 
L 598.037678 390.611706 
L 600.482366 388.842359 
L 602.927054 388.459792 
L 605.371742 389.51184 
L 607.816429 389.272729 
L 610.261117 388.172879 
L 612.705805 388.268517 
L 615.150493 387.646855 
L 617.595181 388.125044 
L 620.039869 388.411973 
L 622.484556 388.842359 
L 624.929244 388.55543 
L 627.373932 386.690446 
L 629.81862 389.894391 
L 632.263308 386.738264 
L 634.707996 388.603249 
L 637.152683 385.351485 
L 639.597371 388.603249 
L 642.042059 386.642627 
L 644.486747 387.312107 
L 646.931435 387.025194 
L 649.376123 386.49917 
L 651.820811 386.594808 
L 654.265498 387.407745 
L 656.710186 385.781871 
L 659.154874 385.447122 
L 661.599562 385.54276 
L 664.04425 386.738264 
L 666.488938 386.164422 
L 668.933625 384.347256 
L 671.378313 385.447122 
L 673.823001 386.403532 
L 676.267689 384.682004 
L 678.712377 385.351485 
L 681.157065 384.395075 
L 683.601752 385.447122 
L 686.04644 384.060343 
L 688.491128 384.586367 
L 690.935816 383.916886 
L 693.380504 385.303666 
L 695.825192 384.108162 
L 698.26988 384.299437 
L 700.714567 383.295208 
L 703.159255 383.343043 
L 705.603943 383.056114 
L 708.048631 389.990045 
L 710.493319 383.869051 
L 712.938007 383.869051 
L 715.382694 385.877508 
L 717.827382 384.538548 
L 720.27207 381.143311 
L 725.161446 383.199571 
L 727.606134 383.199571 
L 730.050821 384.299437 
L 732.495509 383.629957 
L 734.940197 381.143311 
L 737.384885 384.203799 
L 739.829573 383.295208 
L 742.274261 384.634185 
L 744.718949 382.721382 
L 747.163636 383.869051 
L 747.163636 383.869051 
" clip-path="url(#p19278cab3c)" style="fill: none; stroke: #008000; stroke-width: 1.75; stroke-linecap: round"/>
   </g>
   <g id="patch_8">
    <path d="M 108 576.72 
L 108 349.92 
" style="fill: none"/>
   </g>
   <g id="patch_9">
    <path d="M 777.6 576.72 
L 777.6 349.92 
" style="fill: none"/>
   </g>
   <g id="patch_10">
    <path d="M 108 576.72 
L 777.6 576.72 
" style="fill: none"/>
   </g>
   <g id="patch_11">
    <path d="M 108 349.92 
L 777.6 349.92 
" style="fill: none"/>
   </g>
  </g>
  <g id="text_27">
   <!-- Plots of model performance: mfcc, warohma18 - lr 5e-05, batch 32 -->
   <g style="fill: #262626" transform="translate(255.932813 21.65625)scale(0.12 -0.12)">
    <defs>
     <path id="LiberationSans-50" d="M 3931 3078 
Q 3931 2791 3836 2542 
Q 3741 2294 3552 2111 
Q 3363 1928 3078 1822 
Q 2794 1716 2416 1716 
L 1122 1716 
L 1122 0 
L 525 0 
L 525 4403 
L 2378 4403 
Q 2769 4403 3059 4308 
Q 3350 4213 3544 4039 
Q 3738 3866 3834 3620 
Q 3931 3375 3931 3078 
z
M 3331 3072 
Q 3331 3491 3075 3708 
Q 2819 3925 2306 3925 
L 1122 3925 
L 1122 2188 
L 2331 2188 
Q 2847 2188 3089 2416 
Q 3331 2644 3331 3072 
z
" transform="scale(0.015625)"/>
     <path id="LiberationSans-6c" d="M 431 0 
L 431 4638 
L 994 4638 
L 994 0 
L 431 0 
z
" transform="scale(0.015625)"/>
     <path id="LiberationSans-6f" d="M 3291 1694 
Q 3291 806 2900 371 
Q 2509 -63 1766 -63 
Q 1413 -63 1134 43 
Q 856 150 664 369 
Q 472 588 370 917 
Q 269 1247 269 1694 
Q 269 3444 1784 3444 
Q 2178 3444 2464 3334 
Q 2750 3225 2933 3006 
Q 3116 2788 3203 2459 
Q 3291 2131 3291 1694 
z
M 2700 1694 
Q 2700 2088 2639 2344 
Q 2578 2600 2461 2753 
Q 2344 2906 2175 2967 
Q 2006 3028 1794 3028 
Q 1578 3028 1404 2964 
Q 1231 2900 1109 2745 
Q 988 2591 923 2334 
Q 859 2078 859 1694 
Q 859 1300 928 1042 
Q 997 784 1117 631 
Q 1238 478 1402 415 
Q 1566 353 1759 353 
Q 1975 353 2150 414 
Q 2325 475 2447 628 
Q 2569 781 2634 1040 
Q 2700 1300 2700 1694 
z
" transform="scale(0.015625)"/>
     <path id="LiberationSans-74" d="M 1731 25 
Q 1603 -9 1470 -29 
Q 1338 -50 1163 -50 
Q 488 -50 488 716 
L 488 2972 
L 97 2972 
L 97 3381 
L 509 3381 
L 675 4138 
L 1050 4138 
L 1050 3381 
L 1675 3381 
L 1675 2972 
L 1050 2972 
L 1050 838 
Q 1050 594 1129 495 
Q 1209 397 1406 397 
Q 1488 397 1564 409 
Q 1641 422 1731 441 
L 1731 25 
z
" transform="scale(0.015625)"/>
     <path id="LiberationSans-73" d="M 2969 934 
Q 2969 697 2876 511 
Q 2784 325 2609 198 
Q 2434 72 2179 4 
Q 1925 -63 1597 -63 
Q 1303 -63 1067 -17 
Q 831 28 653 128 
Q 475 228 354 392 
Q 234 556 178 794 
L 675 891 
Q 747 619 972 492 
Q 1197 366 1597 366 
Q 1778 366 1929 391 
Q 2081 416 2190 477 
Q 2300 538 2361 639 
Q 2422 741 2422 891 
Q 2422 1044 2350 1142 
Q 2278 1241 2150 1306 
Q 2022 1372 1839 1420 
Q 1656 1469 1438 1528 
Q 1234 1581 1034 1647 
Q 834 1713 673 1820 
Q 513 1928 413 2087 
Q 313 2247 313 2488 
Q 313 2950 642 3192 
Q 972 3434 1603 3434 
Q 2163 3434 2492 3237 
Q 2822 3041 2909 2606 
L 2403 2544 
Q 2375 2675 2300 2764 
Q 2225 2853 2119 2908 
Q 2013 2963 1880 2986 
Q 1747 3009 1603 3009 
Q 1222 3009 1040 2893 
Q 859 2778 859 2544 
Q 859 2406 926 2317 
Q 994 2228 1114 2167 
Q 1234 2106 1403 2061 
Q 1572 2016 1775 1966 
Q 1909 1931 2050 1892 
Q 2191 1853 2323 1798 
Q 2456 1744 2573 1670 
Q 2691 1597 2778 1494 
Q 2866 1391 2917 1253 
Q 2969 1116 2969 934 
z
" transform="scale(0.015625)"/>
     <path id="LiberationSans-20" transform="scale(0.015625)"/>
     <path id="LiberationSans-66" d="M 1128 2972 
L 1128 0 
L 566 0 
L 566 2972 
L 91 2972 
L 91 3381 
L 566 3381 
L 566 3763 
Q 566 3947 600 4105 
Q 634 4263 726 4380 
Q 819 4497 978 4564 
Q 1138 4631 1391 4631 
Q 1491 4631 1598 4622 
Q 1706 4613 1788 4594 
L 1788 4166 
Q 1734 4175 1664 4183 
Q 1594 4191 1538 4191 
Q 1413 4191 1333 4156 
Q 1253 4122 1208 4058 
Q 1163 3994 1145 3900 
Q 1128 3806 1128 3684 
L 1128 3381 
L 1788 3381 
L 1788 2972 
L 1128 2972 
z
" transform="scale(0.015625)"/>
     <path id="LiberationSans-6d" d="M 2400 0 
L 2400 2144 
Q 2400 2391 2369 2556 
Q 2338 2722 2264 2823 
Q 2191 2925 2072 2967 
Q 1953 3009 1781 3009 
Q 1603 3009 1459 2939 
Q 1316 2869 1214 2736 
Q 1113 2603 1058 2408 
Q 1003 2213 1003 1959 
L 1003 0 
L 444 0 
L 444 2659 
Q 444 2766 442 2883 
Q 441 3000 437 3104 
Q 434 3209 431 3284 
Q 428 3359 425 3381 
L 956 3381 
Q 959 3366 962 3297 
Q 966 3228 970 3139 
Q 975 3050 978 2958 
Q 981 2866 981 2803 
L 991 2803 
Q 1066 2950 1153 3069 
Q 1241 3188 1358 3270 
Q 1475 3353 1626 3398 
Q 1778 3444 1978 3444 
Q 2363 3444 2586 3291 
Q 2809 3138 2897 2803 
L 2906 2803 
Q 2981 2950 3075 3069 
Q 3169 3188 3294 3270 
Q 3419 3353 3575 3398 
Q 3731 3444 3931 3444 
Q 4188 3444 4373 3375 
Q 4559 3306 4678 3162 
Q 4797 3019 4853 2792 
Q 4909 2566 4909 2253 
L 4909 0 
L 4353 0 
L 4353 2144 
Q 4353 2391 4322 2556 
Q 4291 2722 4217 2823 
Q 4144 2925 4025 2967 
Q 3906 3009 3734 3009 
Q 3556 3009 3412 2942 
Q 3269 2875 3167 2744 
Q 3066 2613 3011 2416 
Q 2956 2219 2956 1959 
L 2956 0 
L 2400 0 
z
" transform="scale(0.015625)"/>
     <path id="LiberationSans-64" d="M 2566 544 
Q 2409 219 2151 78 
Q 1894 -63 1513 -63 
Q 872 -63 570 368 
Q 269 800 269 1675 
Q 269 3444 1513 3444 
Q 1897 3444 2153 3303 
Q 2409 3163 2566 2856 
L 2572 2856 
Q 2572 2888 2570 2955 
Q 2569 3022 2567 3095 
Q 2566 3169 2566 3234 
Q 2566 3300 2566 3328 
L 2566 4638 
L 3128 4638 
L 3128 697 
Q 3128 575 3129 462 
Q 3131 350 3134 256 
Q 3138 163 3141 95 
Q 3144 28 3147 0 
L 2609 0 
Q 2603 31 2598 89 
Q 2594 147 2589 222 
Q 2584 297 2581 380 
Q 2578 463 2578 544 
L 2566 544 
z
M 859 1694 
Q 859 1344 903 1094 
Q 947 844 1044 683 
Q 1141 522 1291 447 
Q 1441 372 1656 372 
Q 1878 372 2048 444 
Q 2219 516 2333 677 
Q 2447 838 2506 1097 
Q 2566 1356 2566 1731 
Q 2566 2091 2506 2339 
Q 2447 2588 2331 2741 
Q 2216 2894 2048 2961 
Q 1881 3028 1663 3028 
Q 1456 3028 1306 2956 
Q 1156 2884 1056 2725 
Q 956 2566 907 2311 
Q 859 2056 859 1694 
z
" transform="scale(0.015625)"/>
     <path id="LiberationSans-65" d="M 863 1572 
Q 863 1306 917 1082 
Q 972 859 1086 698 
Q 1200 538 1378 448 
Q 1556 359 1806 359 
Q 2172 359 2392 506 
Q 2613 653 2691 878 
L 3184 738 
Q 3131 597 3036 455 
Q 2941 313 2781 198 
Q 2622 84 2383 10 
Q 2144 -63 1806 -63 
Q 1056 -63 664 384 
Q 272 831 272 1713 
Q 272 2188 390 2517 
Q 509 2847 715 3053 
Q 922 3259 1197 3351 
Q 1472 3444 1784 3444 
Q 2209 3444 2495 3306 
Q 2781 3169 2954 2926 
Q 3128 2684 3201 2356 
Q 3275 2028 3275 1647 
L 3275 1572 
L 863 1572 
z
M 2694 2003 
Q 2647 2538 2422 2783 
Q 2197 3028 1775 3028 
Q 1634 3028 1479 2983 
Q 1325 2938 1194 2822 
Q 1063 2706 972 2507 
Q 881 2309 869 2003 
L 2694 2003 
z
" transform="scale(0.015625)"/>
     <path id="LiberationSans-70" d="M 3291 1706 
Q 3291 1322 3228 997 
Q 3166 672 3020 437 
Q 2875 203 2636 70 
Q 2397 -63 2047 -63 
Q 1684 -63 1412 75 
Q 1141 213 997 525 
L 981 525 
Q 984 519 986 469 
Q 988 419 989 344 
Q 991 269 992 176 
Q 994 84 994 -6 
L 994 -1328 
L 431 -1328 
L 431 2691 
Q 431 2813 429 2925 
Q 428 3038 425 3130 
Q 422 3222 419 3287 
Q 416 3353 413 3381 
L 956 3381 
Q 959 3372 964 3315 
Q 969 3259 973 3179 
Q 978 3100 983 3009 
Q 988 2919 988 2838 
L 1000 2838 
Q 1078 3000 1178 3114 
Q 1278 3228 1406 3301 
Q 1534 3375 1692 3408 
Q 1850 3441 2047 3441 
Q 2397 3441 2636 3316 
Q 2875 3191 3020 2964 
Q 3166 2738 3228 2417 
Q 3291 2097 3291 1706 
z
M 2700 1694 
Q 2700 2006 2662 2250 
Q 2625 2494 2533 2662 
Q 2441 2831 2287 2918 
Q 2134 3006 1903 3006 
Q 1716 3006 1550 2953 
Q 1384 2900 1261 2750 
Q 1138 2600 1066 2336 
Q 994 2072 994 1650 
Q 994 1291 1053 1042 
Q 1113 794 1227 641 
Q 1341 488 1509 420 
Q 1678 353 1897 353 
Q 2131 353 2286 443 
Q 2441 534 2533 706 
Q 2625 878 2662 1126 
Q 2700 1375 2700 1694 
z
" transform="scale(0.015625)"/>
     <path id="LiberationSans-72" d="M 444 0 
L 444 2594 
Q 444 2700 442 2811 
Q 441 2922 437 3025 
Q 434 3128 431 3218 
Q 428 3309 425 3381 
L 956 3381 
Q 959 3309 964 3217 
Q 969 3125 973 3028 
Q 978 2931 979 2842 
Q 981 2753 981 2691 
L 994 2691 
Q 1053 2884 1120 3026 
Q 1188 3169 1278 3261 
Q 1369 3353 1494 3398 
Q 1619 3444 1797 3444 
Q 1866 3444 1928 3433 
Q 1991 3422 2025 3413 
L 2025 2897 
Q 1969 2913 1894 2920 
Q 1819 2928 1725 2928 
Q 1531 2928 1395 2840 
Q 1259 2753 1173 2598 
Q 1088 2444 1047 2230 
Q 1006 2016 1006 1763 
L 1006 0 
L 444 0 
z
" transform="scale(0.015625)"/>
     <path id="LiberationSans-61" d="M 1294 -63 
Q 784 -63 528 206 
Q 272 475 272 944 
Q 272 1278 398 1492 
Q 525 1706 729 1828 
Q 934 1950 1196 1997 
Q 1459 2044 1731 2050 
L 2491 2063 
L 2491 2247 
Q 2491 2456 2447 2603 
Q 2403 2750 2312 2840 
Q 2222 2931 2086 2973 
Q 1950 3016 1766 3016 
Q 1603 3016 1472 2992 
Q 1341 2969 1244 2908 
Q 1147 2847 1087 2742 
Q 1028 2638 1009 2478 
L 422 2531 
Q 453 2731 540 2898 
Q 628 3066 789 3187 
Q 950 3309 1192 3376 
Q 1434 3444 1778 3444 
Q 2416 3444 2737 3151 
Q 3059 2859 3059 2306 
L 3059 850 
Q 3059 600 3125 473 
Q 3191 347 3375 347 
Q 3422 347 3469 353 
Q 3516 359 3559 369 
L 3559 19 
Q 3453 -6 3348 -18 
Q 3244 -31 3125 -31 
Q 2966 -31 2852 11 
Q 2738 53 2666 139 
Q 2594 225 2556 351 
Q 2519 478 2509 647 
L 2491 647 
Q 2400 484 2292 353 
Q 2184 222 2040 130 
Q 1897 38 1714 -12 
Q 1531 -63 1294 -63 
z
M 1422 359 
Q 1691 359 1892 457 
Q 2094 556 2226 709 
Q 2359 863 2425 1044 
Q 2491 1225 2491 1391 
L 2491 1669 
L 1875 1656 
Q 1669 1653 1483 1626 
Q 1297 1600 1156 1522 
Q 1016 1444 933 1303 
Q 850 1163 850 934 
Q 850 659 998 509 
Q 1147 359 1422 359 
z
" transform="scale(0.015625)"/>
     <path id="LiberationSans-6e" d="M 2578 0 
L 2578 2144 
Q 2578 2391 2542 2556 
Q 2506 2722 2425 2823 
Q 2344 2925 2211 2967 
Q 2078 3009 1881 3009 
Q 1681 3009 1520 2939 
Q 1359 2869 1245 2736 
Q 1131 2603 1068 2408 
Q 1006 2213 1006 1959 
L 1006 0 
L 444 0 
L 444 2659 
Q 444 2766 442 2883 
Q 441 3000 437 3104 
Q 434 3209 431 3284 
Q 428 3359 425 3381 
L 956 3381 
Q 959 3366 962 3297 
Q 966 3228 970 3139 
Q 975 3050 978 2958 
Q 981 2866 981 2803 
L 991 2803 
Q 1072 2950 1169 3069 
Q 1266 3188 1394 3270 
Q 1522 3353 1687 3398 
Q 1853 3444 2072 3444 
Q 2353 3444 2556 3375 
Q 2759 3306 2890 3162 
Q 3022 3019 3083 2792 
Q 3144 2566 3144 2253 
L 3144 0 
L 2578 0 
z
" transform="scale(0.015625)"/>
     <path id="LiberationSans-63" d="M 859 1706 
Q 859 1416 901 1172 
Q 944 928 1044 751 
Q 1144 575 1308 478 
Q 1472 381 1713 381 
Q 2013 381 2214 543 
Q 2416 706 2463 1044 
L 3031 1006 
Q 3003 797 2909 603 
Q 2816 409 2655 262 
Q 2494 116 2262 26 
Q 2031 -63 1728 -63 
Q 1331 -63 1053 71 
Q 775 206 601 442 
Q 428 678 350 998 
Q 272 1319 272 1694 
Q 272 2034 328 2295 
Q 384 2556 486 2751 
Q 588 2947 725 3080 
Q 863 3213 1023 3292 
Q 1184 3372 1362 3408 
Q 1541 3444 1722 3444 
Q 2006 3444 2228 3366 
Q 2450 3288 2611 3152 
Q 2772 3016 2872 2831 
Q 2972 2647 3013 2434 
L 2434 2391 
Q 2391 2672 2212 2837 
Q 2034 3003 1706 3003 
Q 1466 3003 1305 2923 
Q 1144 2844 1044 2683 
Q 944 2522 901 2278 
Q 859 2034 859 1706 
z
" transform="scale(0.015625)"/>
     <path id="LiberationSans-3a" d="M 584 2734 
L 584 3381 
L 1194 3381 
L 1194 2734 
L 584 2734 
z
M 584 0 
L 584 647 
L 1194 647 
L 1194 0 
L 584 0 
z
" transform="scale(0.015625)"/>
     <path id="LiberationSans-2c" d="M 1203 684 
L 1203 159 
Q 1203 -6 1189 -142 
Q 1175 -278 1144 -395 
Q 1113 -513 1067 -616 
Q 1022 -719 959 -819 
L 575 -819 
Q 716 -616 792 -409 
Q 869 -203 869 0 
L 594 0 
L 594 684 
L 1203 684 
z
" transform="scale(0.015625)"/>
     <path id="LiberationSans-77" d="M 3669 0 
L 3016 0 
L 2475 2181 
Q 2450 2266 2423 2391 
Q 2397 2516 2372 2634 
Q 2341 2772 2313 2919 
Q 2284 2778 2253 2641 
Q 2228 2522 2198 2394 
Q 2169 2266 2144 2169 
L 1588 0 
L 938 0 
L -9 3381 
L 547 3381 
L 1119 1084 
Q 1141 1013 1162 908 
Q 1184 803 1206 703 
Q 1228 588 1253 466 
Q 1278 584 1306 697 
Q 1331 794 1356 894 
Q 1381 994 1400 1059 
L 2013 3381 
L 2616 3381 
L 3206 1059 
Q 3228 978 3253 875 
Q 3278 772 3300 681 
Q 3325 575 3350 466 
Q 3375 584 3400 697 
Q 3422 794 3445 898 
Q 3469 1003 3491 1084 
L 4088 3381 
L 4638 3381 
L 3669 0 
z
" transform="scale(0.015625)"/>
     <path id="LiberationSans-68" d="M 991 2803 
Q 1084 2975 1193 3095 
Q 1303 3216 1434 3294 
Q 1566 3372 1722 3408 
Q 1878 3444 2072 3444 
Q 2397 3444 2605 3356 
Q 2813 3269 2933 3111 
Q 3053 2953 3098 2734 
Q 3144 2516 3144 2253 
L 3144 0 
L 2578 0 
L 2578 2144 
Q 2578 2359 2551 2521 
Q 2525 2684 2450 2792 
Q 2375 2900 2237 2954 
Q 2100 3009 1881 3009 
Q 1681 3009 1520 2937 
Q 1359 2866 1245 2734 
Q 1131 2603 1068 2415 
Q 1006 2228 1006 1994 
L 1006 0 
L 444 0 
L 444 4638 
L 1006 4638 
L 1006 3431 
Q 1006 3328 1003 3225 
Q 1000 3122 995 3034 
Q 991 2947 987 2886 
Q 984 2825 981 2803 
L 991 2803 
z
" transform="scale(0.015625)"/>
     <path id="LiberationSans-2d" d="M 284 1450 
L 284 1950 
L 1847 1950 
L 1847 1450 
L 284 1450 
z
" transform="scale(0.015625)"/>
     <path id="LiberationSans-62" d="M 3291 1706 
Q 3291 -63 2047 -63 
Q 1663 -63 1408 76 
Q 1153 216 994 525 
L 988 525 
Q 988 444 983 356 
Q 978 269 973 194 
Q 969 119 964 66 
Q 959 13 956 0 
L 413 0 
Q 416 28 419 95 
Q 422 163 425 256 
Q 428 350 429 462 
Q 431 575 431 697 
L 431 4638 
L 994 4638 
L 994 3316 
Q 994 3222 992 3136 
Q 991 3050 988 2984 
Q 984 2906 981 2838 
L 994 2838 
Q 1150 3163 1408 3303 
Q 1666 3444 2047 3444 
Q 2688 3444 2989 3012 
Q 3291 2581 3291 1706 
z
M 2700 1688 
Q 2700 2038 2656 2288 
Q 2613 2538 2516 2698 
Q 2419 2859 2269 2934 
Q 2119 3009 1903 3009 
Q 1681 3009 1511 2937 
Q 1341 2866 1227 2706 
Q 1113 2547 1053 2287 
Q 994 2028 994 1653 
Q 994 1291 1053 1044 
Q 1113 797 1227 642 
Q 1341 488 1509 420 
Q 1678 353 1897 353 
Q 2103 353 2253 425 
Q 2403 497 2503 656 
Q 2603 816 2651 1070 
Q 2700 1325 2700 1688 
z
" transform="scale(0.015625)"/>
    </defs>
    <use xlink:href="#LiberationSans-50"/>
    <use xlink:href="#LiberationSans-6c" x="66.699219"/>
    <use xlink:href="#LiberationSans-6f" x="88.916016"/>
    <use xlink:href="#LiberationSans-74" x="144.53125"/>
    <use xlink:href="#LiberationSans-73" x="172.314453"/>
    <use xlink:href="#LiberationSans-20" x="222.314453"/>
    <use xlink:href="#LiberationSans-6f" x="250.097656"/>
    <use xlink:href="#LiberationSans-66" x="305.712891"/>
    <use xlink:href="#LiberationSans-20" x="333.496094"/>
    <use xlink:href="#LiberationSans-6d" x="361.279297"/>
    <use xlink:href="#LiberationSans-6f" x="444.580078"/>
    <use xlink:href="#LiberationSans-64" x="500.195312"/>
    <use xlink:href="#LiberationSans-65" x="555.810547"/>
    <use xlink:href="#LiberationSans-6c" x="611.425781"/>
    <use xlink:href="#LiberationSans-20" x="633.642578"/>
    <use xlink:href="#LiberationSans-70" x="661.425781"/>
    <use xlink:href="#LiberationSans-65" x="717.041016"/>
    <use xlink:href="#LiberationSans-72" x="772.65625"/>
    <use xlink:href="#LiberationSans-66" x="805.957031"/>
    <use xlink:href="#LiberationSans-6f" x="833.740234"/>
    <use xlink:href="#LiberationSans-72" x="889.355469"/>
    <use xlink:href="#LiberationSans-6d" x="922.65625"/>
    <use xlink:href="#LiberationSans-61" x="1005.957031"/>
    <use xlink:href="#LiberationSans-6e" x="1061.572266"/>
    <use xlink:href="#LiberationSans-63" x="1117.1875"/>
    <use xlink:href="#LiberationSans-65" x="1167.1875"/>
    <use xlink:href="#LiberationSans-3a" x="1222.802734"/>
    <use xlink:href="#LiberationSans-20" x="1250.585938"/>
    <use xlink:href="#LiberationSans-6d" x="1278.369141"/>
    <use xlink:href="#LiberationSans-66" x="1361.669922"/>
    <use xlink:href="#LiberationSans-63" x="1389.453125"/>
    <use xlink:href="#LiberationSans-63" x="1439.453125"/>
    <use xlink:href="#LiberationSans-2c" x="1489.453125"/>
    <use xlink:href="#LiberationSans-20" x="1517.236328"/>
    <use xlink:href="#LiberationSans-77" x="1545.019531"/>
    <use xlink:href="#LiberationSans-61" x="1617.236328"/>
    <use xlink:href="#LiberationSans-72" x="1672.851562"/>
    <use xlink:href="#LiberationSans-6f" x="1706.152344"/>
    <use xlink:href="#LiberationSans-68" x="1761.767578"/>
    <use xlink:href="#LiberationSans-6d" x="1817.382812"/>
    <use xlink:href="#LiberationSans-61" x="1900.683594"/>
    <use xlink:href="#LiberationSans-31" x="1956.298828"/>
    <use xlink:href="#LiberationSans-38" x="2011.914062"/>
    <use xlink:href="#LiberationSans-20" x="2067.529297"/>
    <use xlink:href="#LiberationSans-2d" x="2095.3125"/>
    <use xlink:href="#LiberationSans-20" x="2128.613281"/>
    <use xlink:href="#LiberationSans-6c" x="2156.396484"/>
    <use xlink:href="#LiberationSans-72" x="2178.613281"/>
    <use xlink:href="#LiberationSans-20" x="2211.914062"/>
    <use xlink:href="#LiberationSans-35" x="2239.697266"/>
    <use xlink:href="#LiberationSans-65" x="2295.3125"/>
    <use xlink:href="#LiberationSans-2d" x="2350.927734"/>
    <use xlink:href="#LiberationSans-30" x="2384.228516"/>
    <use xlink:href="#LiberationSans-35" x="2439.84375"/>
    <use xlink:href="#LiberationSans-2c" x="2495.458984"/>
    <use xlink:href="#LiberationSans-20" x="2523.242188"/>
    <use xlink:href="#LiberationSans-62" x="2551.025391"/>
    <use xlink:href="#LiberationSans-61" x="2606.640625"/>
    <use xlink:href="#LiberationSans-74" x="2662.255859"/>
    <use xlink:href="#LiberationSans-63" x="2690.039062"/>
    <use xlink:href="#LiberationSans-68" x="2740.039062"/>
    <use xlink:href="#LiberationSans-20" x="2795.654297"/>
    <use xlink:href="#LiberationSans-33" x="2823.4375"/>
    <use xlink:href="#LiberationSans-32" x="2879.052734"/>
   </g>
  </g>
 </g>
 <defs>
  <clipPath id="p8aa6e662b1">
   <rect x="108" y="77.76" width="669.6" height="226.8"/>
  </clipPath>
  <clipPath id="p19278cab3c">
   <rect x="108" y="349.92" width="669.6" height="226.8"/>
  </clipPath>
 </defs>
</svg>
