<?xml version="1.0" encoding="utf-8" standalone="no"?>
<!DOCTYPE svg PUBLIC "-//W3C//DTD SVG 1.1//EN"
  "http://www.w3.org/Graphics/SVG/1.1/DTD/svg11.dtd">
<svg xmlns:xlink="http://www.w3.org/1999/xlink" width="864pt" height="648pt" viewBox="0 0 864 648" xmlns="http://www.w3.org/2000/svg" version="1.1">
 <metadata>
  <rdf:RDF xmlns:dc="http://purl.org/dc/elements/1.1/" xmlns:cc="http://creativecommons.org/ns#" xmlns:rdf="http://www.w3.org/1999/02/22-rdf-syntax-ns#">
   <cc:Work>
    <dc:type rdf:resource="http://purl.org/dc/dcmitype/StillImage"/>
    <dc:date>2022-03-18T16:09:14.557445</dc:date>
    <dc:format>image/svg+xml</dc:format>
    <dc:creator>
     <cc:Agent>
      <dc:title>Matplotlib v3.5.0, https://matplotlib.org/</dc:title>
     </cc:Agent>
    </dc:creator>
   </cc:Work>
  </rdf:RDF>
 </metadata>
 <defs>
  <style type="text/css">*{stroke-linejoin: round; stroke-linecap: butt}</style>
 </defs>
 <g id="figure_1">
  <g id="patch_1">
   <path d="M 0 648 
L 864 648 
L 864 0 
L 0 0 
z
" style="fill: #ffffff"/>
  </g>
  <g id="axes_1">
   <g id="patch_2">
    <path d="M 108 304.56 
L 777.6 304.56 
L 777.6 77.76 
L 108 77.76 
z
" style="fill: #eaeaf2"/>
   </g>
   <g id="matplotlib.axis_1">
    <g id="xtick_1">
     <g id="line2d_1"/>
     <g id="text_1">
      <!-- 0 -->
      <g style="fill: #262626" transform="translate(135.655895 318.806875)scale(0.1 -0.1)">
       <defs>
        <path id="LiberationSans-30" d="M 3309 2203 
Q 3309 1569 3189 1136 
Q 3069 703 2861 436 
Q 2653 169 2372 53 
Q 2091 -63 1772 -63 
Q 1450 -63 1172 53 
Q 894 169 689 434 
Q 484 700 367 1133 
Q 250 1566 250 2203 
Q 250 2869 367 3305 
Q 484 3741 690 4000 
Q 897 4259 1178 4364 
Q 1459 4469 1791 4469 
Q 2106 4469 2382 4364 
Q 2659 4259 2865 4000 
Q 3072 3741 3190 3305 
Q 3309 2869 3309 2203 
z
M 2738 2203 
Q 2738 2728 2675 3076 
Q 2613 3425 2491 3633 
Q 2369 3841 2192 3927 
Q 2016 4013 1791 4013 
Q 1553 4013 1372 3925 
Q 1191 3838 1067 3630 
Q 944 3422 881 3073 
Q 819 2725 819 2203 
Q 819 1697 883 1350 
Q 947 1003 1070 792 
Q 1194 581 1372 489 
Q 1550 397 1778 397 
Q 2000 397 2178 489 
Q 2356 581 2479 792 
Q 2603 1003 2670 1350 
Q 2738 1697 2738 2203 
z
" transform="scale(0.015625)"/>
       </defs>
       <use xlink:href="#LiberationSans-30"/>
      </g>
     </g>
    </g>
    <g id="xtick_2">
     <g id="line2d_2"/>
     <g id="text_2">
      <!-- 25 -->
      <g style="fill: #262626" transform="translate(209.348702 318.806875)scale(0.1 -0.1)">
       <defs>
        <path id="LiberationSans-32" d="M 322 0 
L 322 397 
Q 481 763 711 1042 
Q 941 1322 1194 1548 
Q 1447 1775 1695 1969 
Q 1944 2163 2144 2356 
Q 2344 2550 2467 2762 
Q 2591 2975 2591 3244 
Q 2591 3431 2534 3573 
Q 2478 3716 2372 3812 
Q 2266 3909 2117 3957 
Q 1969 4006 1788 4006 
Q 1619 4006 1470 3959 
Q 1322 3913 1206 3819 
Q 1091 3725 1017 3586 
Q 944 3447 922 3263 
L 347 3316 
Q 375 3553 478 3762 
Q 581 3972 762 4130 
Q 944 4288 1198 4378 
Q 1453 4469 1788 4469 
Q 2116 4469 2372 4391 
Q 2628 4313 2804 4159 
Q 2981 4006 3075 3781 
Q 3169 3556 3169 3263 
Q 3169 3041 3089 2841 
Q 3009 2641 2876 2459 
Q 2744 2278 2569 2109 
Q 2394 1941 2203 1780 
Q 2013 1619 1819 1461 
Q 1625 1303 1454 1143 
Q 1284 984 1150 820 
Q 1016 656 941 478 
L 3238 478 
L 3238 0 
L 322 0 
z
" transform="scale(0.015625)"/>
        <path id="LiberationSans-35" d="M 3291 1434 
Q 3291 1103 3191 828 
Q 3091 553 2894 354 
Q 2697 156 2405 46 
Q 2113 -63 1728 -63 
Q 1381 -63 1123 18 
Q 866 100 687 242 
Q 509 384 404 575 
Q 300 766 256 984 
L 825 1050 
Q 859 925 921 808 
Q 984 691 1092 598 
Q 1200 506 1358 451 
Q 1516 397 1741 397 
Q 1959 397 2137 464 
Q 2316 531 2442 662 
Q 2569 794 2637 984 
Q 2706 1175 2706 1422 
Q 2706 1625 2640 1795 
Q 2575 1966 2453 2089 
Q 2331 2213 2154 2281 
Q 1978 2350 1753 2350 
Q 1613 2350 1494 2325 
Q 1375 2300 1273 2256 
Q 1172 2213 1089 2155 
Q 1006 2097 934 2034 
L 384 2034 
L 531 4403 
L 3034 4403 
L 3034 3925 
L 1044 3925 
L 959 2528 
Q 1109 2644 1334 2726 
Q 1559 2809 1869 2809 
Q 2197 2809 2459 2709 
Q 2722 2609 2906 2426 
Q 3091 2244 3191 1991 
Q 3291 1738 3291 1434 
z
" transform="scale(0.015625)"/>
       </defs>
       <use xlink:href="#LiberationSans-32"/>
       <use xlink:href="#LiberationSans-35" x="55.615234"/>
      </g>
     </g>
    </g>
    <g id="xtick_3">
     <g id="line2d_3"/>
     <g id="text_3">
      <!-- 50 -->
      <g style="fill: #262626" transform="translate(285.821977 318.806875)scale(0.1 -0.1)">
       <use xlink:href="#LiberationSans-35"/>
       <use xlink:href="#LiberationSans-30" x="55.615234"/>
      </g>
     </g>
    </g>
    <g id="xtick_4">
     <g id="line2d_4"/>
     <g id="text_4">
      <!-- 75 -->
      <g style="fill: #262626" transform="translate(362.295253 318.806875)scale(0.1 -0.1)">
       <defs>
        <path id="LiberationSans-37" d="M 3238 3947 
Q 2906 3441 2628 2973 
Q 2350 2506 2150 2032 
Q 1950 1559 1839 1061 
Q 1728 563 1728 0 
L 1141 0 
Q 1141 528 1266 1036 
Q 1391 1544 1603 2033 
Q 1816 2522 2097 2994 
Q 2378 3466 2694 3925 
L 328 3925 
L 328 4403 
L 3238 4403 
L 3238 3947 
z
" transform="scale(0.015625)"/>
       </defs>
       <use xlink:href="#LiberationSans-37"/>
       <use xlink:href="#LiberationSans-35" x="55.615234"/>
      </g>
     </g>
    </g>
    <g id="xtick_5">
     <g id="line2d_5"/>
     <g id="text_5">
      <!-- 100 -->
      <g style="fill: #262626" transform="translate(435.988059 318.806875)scale(0.1 -0.1)">
       <defs>
        <path id="LiberationSans-31" d="M 488 0 
L 488 478 
L 1609 478 
L 1609 3866 
L 616 3156 
L 616 3688 
L 1656 4403 
L 2175 4403 
L 2175 478 
L 3247 478 
L 3247 0 
L 488 0 
z
" transform="scale(0.015625)"/>
       </defs>
       <use xlink:href="#LiberationSans-31"/>
       <use xlink:href="#LiberationSans-30" x="55.615234"/>
       <use xlink:href="#LiberationSans-30" x="111.230469"/>
      </g>
     </g>
    </g>
    <g id="xtick_6">
     <g id="line2d_6"/>
     <g id="text_6">
      <!-- 125 -->
      <g style="fill: #262626" transform="translate(512.461335 318.806875)scale(0.1 -0.1)">
       <use xlink:href="#LiberationSans-31"/>
       <use xlink:href="#LiberationSans-32" x="55.615234"/>
       <use xlink:href="#LiberationSans-35" x="111.230469"/>
      </g>
     </g>
    </g>
    <g id="xtick_7">
     <g id="line2d_7"/>
     <g id="text_7">
      <!-- 150 -->
      <g style="fill: #262626" transform="translate(588.93461 318.806875)scale(0.1 -0.1)">
       <use xlink:href="#LiberationSans-31"/>
       <use xlink:href="#LiberationSans-35" x="55.615234"/>
       <use xlink:href="#LiberationSans-30" x="111.230469"/>
      </g>
     </g>
    </g>
    <g id="xtick_8">
     <g id="line2d_8"/>
     <g id="text_8">
      <!-- 175 -->
      <g style="fill: #262626" transform="translate(665.407886 318.806875)scale(0.1 -0.1)">
       <use xlink:href="#LiberationSans-31"/>
       <use xlink:href="#LiberationSans-37" x="55.615234"/>
       <use xlink:href="#LiberationSans-35" x="111.230469"/>
      </g>
     </g>
    </g>
    <g id="xtick_9">
     <g id="line2d_9"/>
     <g id="text_9">
      <!-- 200 -->
      <g style="fill: #262626" transform="translate(741.881161 318.806875)scale(0.1 -0.1)">
       <use xlink:href="#LiberationSans-32"/>
       <use xlink:href="#LiberationSans-30" x="55.615234"/>
       <use xlink:href="#LiberationSans-30" x="111.230469"/>
      </g>
     </g>
    </g>
   </g>
   <g id="matplotlib.axis_2">
    <g id="ytick_1">
     <g id="line2d_10"/>
     <g id="text_10">
      <!-- 0.5 -->
      <g style="fill: #262626" transform="translate(87.1 269.484708)scale(0.1 -0.1)">
       <defs>
        <path id="LiberationSans-2e" d="M 584 0 
L 584 684 
L 1194 684 
L 1194 0 
L 584 0 
z
" transform="scale(0.015625)"/>
       </defs>
       <use xlink:href="#LiberationSans-30"/>
       <use xlink:href="#LiberationSans-2e" x="55.615234"/>
       <use xlink:href="#LiberationSans-35" x="83.398438"/>
      </g>
     </g>
    </g>
    <g id="ytick_2">
     <g id="line2d_11"/>
     <g id="text_11">
      <!-- 1.0 -->
      <g style="fill: #262626" transform="translate(87.1 220.994858)scale(0.1 -0.1)">
       <use xlink:href="#LiberationSans-31"/>
       <use xlink:href="#LiberationSans-2e" x="55.615234"/>
       <use xlink:href="#LiberationSans-30" x="83.398438"/>
      </g>
     </g>
    </g>
    <g id="ytick_3">
     <g id="line2d_12"/>
     <g id="text_12">
      <!-- 1.5 -->
      <g style="fill: #262626" transform="translate(87.1 172.505007)scale(0.1 -0.1)">
       <use xlink:href="#LiberationSans-31"/>
       <use xlink:href="#LiberationSans-2e" x="55.615234"/>
       <use xlink:href="#LiberationSans-35" x="83.398438"/>
      </g>
     </g>
    </g>
    <g id="ytick_4">
     <g id="line2d_13"/>
     <g id="text_13">
      <!-- 2.0 -->
      <g style="fill: #262626" transform="translate(87.1 124.015157)scale(0.1 -0.1)">
       <use xlink:href="#LiberationSans-32"/>
       <use xlink:href="#LiberationSans-2e" x="55.615234"/>
       <use xlink:href="#LiberationSans-30" x="83.398438"/>
      </g>
     </g>
    </g>
   </g>
   <g id="line2d_14">
    <path d="M 138.436364 88.069091 
L 141.495295 110.557595 
L 144.554226 122.545188 
L 147.613157 130.612625 
L 150.672088 131.703175 
L 153.731019 142.65 
L 159.848881 149.122509 
L 162.907812 157.873923 
L 165.966743 161.932417 
L 169.025674 163.365388 
L 172.084605 170.663668 
L 175.143536 171.983204 
L 178.202467 175.556048 
L 181.261398 176.309621 
L 184.320329 177.332239 
L 187.37926 178.489333 
L 190.438191 183.110506 
L 196.556053 181.123052 
L 199.614984 183.943548 
L 202.673915 188.034806 
L 205.732846 186.713744 
L 208.791777 192.008962 
L 211.850708 188.65137 
L 214.909639 191.32946 
L 217.96857 198.013915 
L 221.027501 199.371521 
L 224.086432 194.586646 
L 227.145363 205.05218 
L 230.204294 201.759433 
L 233.263225 201.153226 
L 236.322156 201.027872 
L 239.381087 203.330776 
L 242.440018 206.13777 
L 245.498949 206.549279 
L 248.55788 205.728515 
L 251.616811 205.411538 
L 254.675742 210.088389 
L 257.734673 208.100923 
L 260.793604 209.5426 
L 263.852535 211.364467 
L 266.911466 210.623715 
L 269.970397 214.448841 
L 273.029328 213.94407 
L 276.088259 214.715181 
L 279.14719 213.003049 
L 282.206122 216.807966 
L 285.265053 219.963468 
L 288.323984 220.215443 
L 291.382915 219.250318 
L 294.441846 220.125095 
L 297.500777 219.045499 
L 300.559708 221.374982 
L 303.618639 220.110106 
L 306.67757 223.150144 
L 309.736501 222.595106 
L 312.795432 222.17851 
L 315.854363 225.683561 
L 318.913294 229.842756 
L 321.972225 225.554484 
L 325.031156 228.032986 
L 328.090087 225.706752 
L 331.149018 231.850771 
L 334.207949 232.31764 
L 337.26688 231.779157 
L 340.325811 229.797414 
L 343.384742 230.980236 
L 346.443673 233.178578 
L 349.502604 236.985178 
L 352.561535 232.430873 
L 355.620466 234.718609 
L 358.679397 237.177713 
L 361.738328 231.963565 
L 364.797259 235.020504 
L 367.85619 235.482483 
L 370.915121 237.409821 
L 373.974052 239.891572 
L 377.032983 236.617912 
L 380.091914 238.276222 
L 383.150845 237.690236 
L 386.209776 240.419424 
L 389.268707 242.166828 
L 392.327638 240.58708 
L 395.386569 241.837407 
L 401.504431 245.636416 
L 404.563362 244.266146 
L 407.622293 246.900495 
L 410.681224 244.687025 
L 413.740155 247.677143 
L 416.799086 245.443188 
L 419.858017 247.677374 
L 422.916948 248.436526 
L 425.975879 243.026403 
L 429.03481 252.016699 
L 432.093741 249.925012 
L 435.152672 248.972095 
L 438.211603 253.558944 
L 441.270534 250.095974 
L 444.329466 251.74914 
L 447.388397 250.737551 
L 450.447328 250.302521 
L 453.506259 253.264864 
L 456.56519 254.552914 
L 459.624121 252.286946 
L 462.683052 256.905368 
L 465.741983 256.960155 
L 468.800914 258.499382 
L 471.859845 259.867318 
L 474.918776 255.251278 
L 477.977707 257.528673 
L 481.036638 258.141486 
L 484.095569 259.622568 
L 487.1545 260.821299 
L 490.213431 258.709987 
L 493.272362 259.064068 
L 496.331293 260.053743 
L 499.390224 262.497181 
L 505.508086 261.855188 
L 508.567017 263.657761 
L 511.625948 263.4033 
L 514.684879 260.628671 
L 517.74381 266.12257 
L 520.802741 263.76089 
L 523.861672 266.107382 
L 526.920603 264.561492 
L 529.979534 264.980967 
L 533.038465 268.20841 
L 536.097396 266.384594 
L 539.156327 269.129228 
L 542.215258 271.02706 
L 545.274189 266.44404 
L 548.33312 271.884152 
L 551.392051 268.83357 
L 554.450982 274.401724 
L 557.509913 274.393744 
L 560.568844 270.864661 
L 563.627775 273.566523 
L 566.686706 277.151786 
L 569.745637 273.868297 
L 572.804568 274.21284 
L 575.863499 274.77297 
L 578.92243 272.540896 
L 581.981361 275.087227 
L 585.040292 275.475285 
L 588.099223 278.364372 
L 591.158154 275.333182 
L 594.217085 274.663708 
L 597.276016 276.418566 
L 600.334947 276.785445 
L 603.393878 276.557632 
L 606.45281 277.704408 
L 609.511741 280.012416 
L 612.570672 280.050767 
L 615.629603 278.666591 
L 618.688534 278.019974 
L 621.747465 282.168891 
L 624.806396 282.441387 
L 627.865327 283.344317 
L 630.924258 279.916302 
L 633.983189 281.571083 
L 637.04212 281.65057 
L 640.101051 283.417064 
L 643.159982 282.545408 
L 646.218913 282.973271 
L 649.277844 281.228139 
L 652.336775 284.166516 
L 655.395706 285.20833 
L 658.454637 285.282988 
L 661.513568 281.600517 
L 664.572499 285.56818 
L 667.63143 283.707127 
L 670.690361 288.733795 
L 673.749292 286.954792 
L 676.808223 288.05281 
L 679.867154 286.115871 
L 682.926085 287.957334 
L 685.985016 287.268346 
L 689.043947 285.714327 
L 692.102878 289.115795 
L 695.161809 290.218362 
L 698.22074 285.60053 
L 701.279671 288.365526 
L 704.338602 289.305784 
L 707.397533 289.287162 
L 710.456464 291.971807 
L 713.515395 291.05994 
L 716.574326 291.987277 
L 719.633257 292.24597 
L 722.692188 291.29535 
L 725.751119 290.585449 
L 728.81005 292.546358 
L 731.868981 289.633471 
L 734.927912 292.614172 
L 737.986843 292.638679 
L 741.045774 294.250909 
L 744.104705 293.29135 
L 747.163636 293.532828 
L 747.163636 293.532828 
" clip-path="url(#p8935391147)" style="fill: none; stroke: #ff0000; stroke-width: 1.75; stroke-linecap: round"/>
   </g>
   <g id="line2d_15">
    <path d="M 138.436364 110.261012 
L 141.495295 121.574848 
L 144.554226 128.321178 
L 147.613157 140.596683 
L 150.672088 144.060173 
L 153.731019 150.973695 
L 156.78995 156.762622 
L 159.848881 160.453341 
L 162.907812 162.074777 
L 165.966743 166.607637 
L 169.025674 169.797018 
L 172.084605 174.83221 
L 175.143536 173.605924 
L 178.202467 171.520433 
L 181.261398 180.756872 
L 184.320329 179.702347 
L 187.37926 184.064903 
L 190.438191 175.457549 
L 193.497122 187.175057 
L 196.556053 188.864507 
L 199.614984 187.360066 
L 202.673915 191.759317 
L 205.732846 186.504237 
L 208.791777 193.907398 
L 211.850708 194.791771 
L 214.909639 196.986592 
L 217.96857 197.39868 
L 221.027501 195.435261 
L 224.086432 196.852082 
L 227.145363 198.992532 
L 230.204294 198.502652 
L 233.263225 204.14205 
L 236.322156 205.013312 
L 239.381087 205.317999 
L 242.440018 207.381073 
L 245.498949 206.800324 
L 248.55788 200.696664 
L 251.616811 208.623116 
L 254.675742 210.166274 
L 257.734673 208.126484 
L 260.793604 209.76421 
L 263.852535 209.333764 
L 266.911466 213.115374 
L 269.970397 213.46442 
L 273.029328 211.999472 
L 276.088259 211.746855 
L 279.14719 213.808507 
L 282.206122 217.40282 
L 288.323984 214.995578 
L 291.382915 217.104503 
L 294.441846 217.101162 
L 297.500777 216.573546 
L 300.559708 215.802574 
L 303.618639 217.172434 
L 306.67757 219.925092 
L 309.736501 220.680312 
L 312.795432 220.566073 
L 315.854363 220.866107 
L 318.913294 221.351126 
L 321.972225 222.537481 
L 325.031156 219.843564 
L 328.090087 221.850984 
L 331.149018 223.122438 
L 334.207949 221.566095 
L 337.26688 222.375097 
L 340.325811 224.79839 
L 343.384742 224.348262 
L 346.443673 225.781597 
L 349.502604 221.979969 
L 352.561535 224.8709 
L 355.620466 224.929641 
L 358.679397 227.137764 
L 361.738328 225.507679 
L 364.797259 226.843643 
L 367.85619 227.920291 
L 370.915121 226.946899 
L 373.974052 227.363999 
L 377.032983 225.68244 
L 380.091914 225.381377 
L 383.150845 229.539843 
L 386.209776 229.353707 
L 389.268707 228.485173 
L 392.327638 229.157265 
L 395.386569 230.652647 
L 398.4455 231.314779 
L 401.504431 229.406153 
L 404.563362 229.182959 
L 407.622293 227.190192 
L 410.681224 231.314936 
L 413.740155 231.5455 
L 416.799086 229.985001 
L 419.858017 229.722557 
L 422.916948 227.711438 
L 425.975879 229.866068 
L 429.03481 230.972398 
L 432.093741 231.177511 
L 435.152672 232.719872 
L 438.211603 231.124273 
L 441.270534 234.408298 
L 444.329466 229.256151 
L 447.388397 232.487151 
L 450.447328 234.363286 
L 453.506259 232.398838 
L 456.56519 233.793704 
L 459.624121 231.17991 
L 462.683052 232.341455 
L 465.741983 230.670122 
L 468.800914 233.411079 
L 471.859845 235.423517 
L 474.918776 234.841426 
L 477.977707 233.290505 
L 481.036638 234.213688 
L 484.095569 233.209255 
L 487.1545 233.991817 
L 490.213431 231.781041 
L 493.272362 233.135225 
L 496.331293 235.917825 
L 502.449155 232.669917 
L 505.508086 234.529941 
L 508.567017 230.656451 
L 511.625948 229.588329 
L 514.684879 229.864137 
L 517.74381 234.792743 
L 520.802741 235.793789 
L 523.861672 236.233657 
L 526.920603 234.422084 
L 529.979534 235.423384 
L 533.038465 228.824069 
L 536.097396 237.94913 
L 539.156327 237.251546 
L 542.215258 234.106767 
L 545.274189 238.366512 
L 548.33312 236.154419 
L 551.392051 233.546821 
L 554.450982 235.443014 
L 557.509913 235.45224 
L 560.568844 234.788766 
L 563.627775 237.820249 
L 566.686706 232.179926 
L 569.745637 234.695407 
L 572.804568 237.691068 
L 575.863499 233.928365 
L 578.92243 235.173183 
L 581.981361 235.98774 
L 585.040292 230.143766 
L 588.099223 232.233985 
L 591.158154 236.490095 
L 594.217085 238.038039 
L 597.276016 237.788202 
L 600.334947 236.250727 
L 603.393878 228.214793 
L 606.45281 234.475114 
L 609.511741 237.229107 
L 612.570672 232.364513 
L 615.629603 233.91907 
L 618.688534 234.151635 
L 621.747465 235.913143 
L 624.806396 232.356675 
L 627.865327 232.591419 
L 630.924258 232.071607 
L 633.983189 231.348283 
L 637.04212 232.199245 
L 640.101051 235.491645 
L 643.159982 230.276595 
L 646.218913 235.136506 
L 649.277844 235.652665 
L 652.336775 237.43259 
L 655.395706 232.597569 
L 658.454637 236.567333 
L 661.513568 236.806811 
L 664.572499 235.592566 
L 667.63143 234.655891 
L 670.690361 234.836958 
L 673.749292 234.252989 
L 676.808223 237.113897 
L 679.867154 235.119321 
L 682.926085 226.444487 
L 685.985016 236.119534 
L 689.043947 236.984085 
L 695.161809 230.500645 
L 698.22074 234.973428 
L 701.279671 233.601707 
L 704.338602 233.235759 
L 707.397533 232.038913 
L 710.456464 235.739793 
L 713.515395 229.640793 
L 716.574326 231.331612 
L 719.633257 233.290274 
L 722.692188 233.406305 
L 725.751119 232.677773 
L 728.81005 232.391057 
L 731.868981 231.498771 
L 734.927912 230.079754 
L 737.986843 231.466932 
L 741.045774 231.756105 
L 744.104705 230.913316 
L 747.163636 234.913248 
L 747.163636 234.913248 
" clip-path="url(#p8935391147)" style="fill: none; stroke: #008000; stroke-width: 1.75; stroke-linecap: round"/>
   </g>
   <g id="patch_3">
    <path d="M 108 304.56 
L 108 77.76 
" style="fill: none"/>
   </g>
   <g id="patch_4">
    <path d="M 777.6 304.56 
L 777.6 77.76 
" style="fill: none"/>
   </g>
   <g id="patch_5">
    <path d="M 108 304.56 
L 777.6 304.56 
" style="fill: none"/>
   </g>
   <g id="patch_6">
    <path d="M 108 77.76 
L 777.6 77.76 
" style="fill: none"/>
   </g>
  </g>
  <g id="axes_2">
   <g id="patch_7">
    <path d="M 108 576.72 
L 777.6 576.72 
L 777.6 349.92 
L 108 349.92 
z
" style="fill: #eaeaf2"/>
   </g>
   <g id="matplotlib.axis_3">
    <g id="xtick_10">
     <g id="line2d_16"/>
     <g id="text_14">
      <!-- 0 -->
      <g style="fill: #262626" transform="translate(135.655895 590.966875)scale(0.1 -0.1)">
       <use xlink:href="#LiberationSans-30"/>
      </g>
     </g>
    </g>
    <g id="xtick_11">
     <g id="line2d_17"/>
     <g id="text_15">
      <!-- 25 -->
      <g style="fill: #262626" transform="translate(209.348702 590.966875)scale(0.1 -0.1)">
       <use xlink:href="#LiberationSans-32"/>
       <use xlink:href="#LiberationSans-35" x="55.615234"/>
      </g>
     </g>
    </g>
    <g id="xtick_12">
     <g id="line2d_18"/>
     <g id="text_16">
      <!-- 50 -->
      <g style="fill: #262626" transform="translate(285.821977 590.966875)scale(0.1 -0.1)">
       <use xlink:href="#LiberationSans-35"/>
       <use xlink:href="#LiberationSans-30" x="55.615234"/>
      </g>
     </g>
    </g>
    <g id="xtick_13">
     <g id="line2d_19"/>
     <g id="text_17">
      <!-- 75 -->
      <g style="fill: #262626" transform="translate(362.295253 590.966875)scale(0.1 -0.1)">
       <use xlink:href="#LiberationSans-37"/>
       <use xlink:href="#LiberationSans-35" x="55.615234"/>
      </g>
     </g>
    </g>
    <g id="xtick_14">
     <g id="line2d_20"/>
     <g id="text_18">
      <!-- 100 -->
      <g style="fill: #262626" transform="translate(435.988059 590.966875)scale(0.1 -0.1)">
       <use xlink:href="#LiberationSans-31"/>
       <use xlink:href="#LiberationSans-30" x="55.615234"/>
       <use xlink:href="#LiberationSans-30" x="111.230469"/>
      </g>
     </g>
    </g>
    <g id="xtick_15">
     <g id="line2d_21"/>
     <g id="text_19">
      <!-- 125 -->
      <g style="fill: #262626" transform="translate(512.461335 590.966875)scale(0.1 -0.1)">
       <use xlink:href="#LiberationSans-31"/>
       <use xlink:href="#LiberationSans-32" x="55.615234"/>
       <use xlink:href="#LiberationSans-35" x="111.230469"/>
      </g>
     </g>
    </g>
    <g id="xtick_16">
     <g id="line2d_22"/>
     <g id="text_20">
      <!-- 150 -->
      <g style="fill: #262626" transform="translate(588.93461 590.966875)scale(0.1 -0.1)">
       <use xlink:href="#LiberationSans-31"/>
       <use xlink:href="#LiberationSans-35" x="55.615234"/>
       <use xlink:href="#LiberationSans-30" x="111.230469"/>
      </g>
     </g>
    </g>
    <g id="xtick_17">
     <g id="line2d_23"/>
     <g id="text_21">
      <!-- 175 -->
      <g style="fill: #262626" transform="translate(665.407886 590.966875)scale(0.1 -0.1)">
       <use xlink:href="#LiberationSans-31"/>
       <use xlink:href="#LiberationSans-37" x="55.615234"/>
       <use xlink:href="#LiberationSans-35" x="111.230469"/>
      </g>
     </g>
    </g>
    <g id="xtick_18">
     <g id="line2d_24"/>
     <g id="text_22">
      <!-- 200 -->
      <g style="fill: #262626" transform="translate(741.881161 590.966875)scale(0.1 -0.1)">
       <use xlink:href="#LiberationSans-32"/>
       <use xlink:href="#LiberationSans-30" x="55.615234"/>
       <use xlink:href="#LiberationSans-30" x="111.230469"/>
      </g>
     </g>
    </g>
   </g>
   <g id="matplotlib.axis_4">
    <g id="ytick_5">
     <g id="line2d_25"/>
     <g id="text_23">
      <!-- 0.2 -->
      <g style="fill: #262626" transform="translate(87.1 572.018984)scale(0.1 -0.1)">
       <use xlink:href="#LiberationSans-30"/>
       <use xlink:href="#LiberationSans-2e" x="55.615234"/>
       <use xlink:href="#LiberationSans-32" x="83.398438"/>
      </g>
     </g>
    </g>
    <g id="ytick_6">
     <g id="line2d_26"/>
     <g id="text_24">
      <!-- 0.3 -->
      <g style="fill: #262626" transform="translate(87.1 543.793024)scale(0.1 -0.1)">
       <defs>
        <path id="LiberationSans-33" d="M 3278 1216 
Q 3278 913 3179 675 
Q 3081 438 2892 273 
Q 2703 109 2423 23 
Q 2144 -63 1784 -63 
Q 1375 -63 1095 39 
Q 816 141 634 308 
Q 453 475 362 689 
Q 272 903 244 1131 
L 825 1184 
Q 850 1009 917 865 
Q 984 722 1100 619 
Q 1216 516 1384 459 
Q 1553 403 1784 403 
Q 2209 403 2451 612 
Q 2694 822 2694 1234 
Q 2694 1478 2586 1626 
Q 2478 1775 2317 1858 
Q 2156 1941 1967 1969 
Q 1778 1997 1619 1997 
L 1300 1997 
L 1300 2484 
L 1606 2484 
Q 1766 2484 1937 2517 
Q 2109 2550 2251 2636 
Q 2394 2722 2486 2869 
Q 2578 3016 2578 3244 
Q 2578 3597 2370 3801 
Q 2163 4006 1753 4006 
Q 1381 4006 1151 3815 
Q 922 3625 884 3278 
L 319 3322 
Q 353 3613 478 3828 
Q 603 4044 795 4186 
Q 988 4328 1234 4398 
Q 1481 4469 1759 4469 
Q 2128 4469 2393 4376 
Q 2659 4284 2828 4126 
Q 2997 3969 3076 3756 
Q 3156 3544 3156 3303 
Q 3156 3109 3103 2940 
Q 3050 2772 2937 2637 
Q 2825 2503 2651 2406 
Q 2478 2309 2234 2259 
L 2234 2247 
Q 2500 2219 2697 2126 
Q 2894 2034 3022 1896 
Q 3150 1759 3214 1584 
Q 3278 1409 3278 1216 
z
" transform="scale(0.015625)"/>
       </defs>
       <use xlink:href="#LiberationSans-30"/>
       <use xlink:href="#LiberationSans-2e" x="55.615234"/>
       <use xlink:href="#LiberationSans-33" x="83.398438"/>
      </g>
     </g>
    </g>
    <g id="ytick_7">
     <g id="line2d_27"/>
     <g id="text_25">
      <!-- 0.4 -->
      <g style="fill: #262626" transform="translate(87.1 515.567064)scale(0.1 -0.1)">
       <defs>
        <path id="LiberationSans-34" d="M 2753 997 
L 2753 0 
L 2222 0 
L 2222 997 
L 147 997 
L 147 1434 
L 2163 4403 
L 2753 4403 
L 2753 1441 
L 3372 1441 
L 3372 997 
L 2753 997 
z
M 2222 3769 
Q 2216 3753 2191 3708 
Q 2166 3663 2134 3606 
Q 2103 3550 2070 3492 
Q 2038 3434 2013 3397 
L 884 1734 
Q 869 1709 839 1668 
Q 809 1628 778 1586 
Q 747 1544 715 1503 
Q 684 1463 666 1441 
L 2222 1441 
L 2222 3769 
z
" transform="scale(0.015625)"/>
       </defs>
       <use xlink:href="#LiberationSans-30"/>
       <use xlink:href="#LiberationSans-2e" x="55.615234"/>
       <use xlink:href="#LiberationSans-34" x="83.398438"/>
      </g>
     </g>
    </g>
    <g id="ytick_8">
     <g id="line2d_28"/>
     <g id="text_26">
      <!-- 0.5 -->
      <g style="fill: #262626" transform="translate(87.1 487.341104)scale(0.1 -0.1)">
       <use xlink:href="#LiberationSans-30"/>
       <use xlink:href="#LiberationSans-2e" x="55.615234"/>
       <use xlink:href="#LiberationSans-35" x="83.398438"/>
      </g>
     </g>
    </g>
    <g id="ytick_9">
     <g id="line2d_29"/>
     <g id="text_27">
      <!-- 0.6 -->
      <g style="fill: #262626" transform="translate(87.1 459.115144)scale(0.1 -0.1)">
       <defs>
        <path id="LiberationSans-36" d="M 3278 1441 
Q 3278 1109 3186 832 
Q 3094 556 2914 357 
Q 2734 159 2468 48 
Q 2203 -63 1856 -63 
Q 1472 -63 1184 84 
Q 897 231 706 507 
Q 516 784 420 1186 
Q 325 1588 325 2100 
Q 325 2688 433 3131 
Q 541 3575 744 3872 
Q 947 4169 1239 4319 
Q 1531 4469 1900 4469 
Q 2125 4469 2322 4422 
Q 2519 4375 2680 4270 
Q 2841 4166 2962 3994 
Q 3084 3822 3156 3572 
L 2619 3475 
Q 2531 3759 2339 3886 
Q 2147 4013 1894 4013 
Q 1663 4013 1475 3903 
Q 1288 3794 1156 3576 
Q 1025 3359 954 3031 
Q 884 2703 884 2266 
Q 1038 2550 1316 2698 
Q 1594 2847 1953 2847 
Q 2253 2847 2497 2750 
Q 2741 2653 2914 2470 
Q 3088 2288 3183 2027 
Q 3278 1766 3278 1441 
z
M 2706 1416 
Q 2706 1644 2650 1828 
Q 2594 2013 2481 2142 
Q 2369 2272 2203 2342 
Q 2038 2413 1819 2413 
Q 1666 2413 1509 2367 
Q 1353 2322 1226 2220 
Q 1100 2119 1020 1953 
Q 941 1788 941 1550 
Q 941 1306 1003 1095 
Q 1066 884 1183 728 
Q 1300 572 1465 481 
Q 1631 391 1838 391 
Q 2041 391 2202 461 
Q 2363 531 2475 664 
Q 2588 797 2647 987 
Q 2706 1178 2706 1416 
z
" transform="scale(0.015625)"/>
       </defs>
       <use xlink:href="#LiberationSans-30"/>
       <use xlink:href="#LiberationSans-2e" x="55.615234"/>
       <use xlink:href="#LiberationSans-36" x="83.398438"/>
      </g>
     </g>
    </g>
    <g id="ytick_10">
     <g id="line2d_30"/>
     <g id="text_28">
      <!-- 0.7 -->
      <g style="fill: #262626" transform="translate(87.1 430.889184)scale(0.1 -0.1)">
       <use xlink:href="#LiberationSans-30"/>
       <use xlink:href="#LiberationSans-2e" x="55.615234"/>
       <use xlink:href="#LiberationSans-37" x="83.398438"/>
      </g>
     </g>
    </g>
    <g id="ytick_11">
     <g id="line2d_31"/>
     <g id="text_29">
      <!-- 0.8 -->
      <g style="fill: #262626" transform="translate(87.1 402.663224)scale(0.1 -0.1)">
       <defs>
        <path id="LiberationSans-38" d="M 3281 1228 
Q 3281 947 3192 711 
Q 3103 475 2920 303 
Q 2738 131 2453 34 
Q 2169 -63 1781 -63 
Q 1394 -63 1111 34 
Q 828 131 642 301 
Q 456 472 367 708 
Q 278 944 278 1222 
Q 278 1463 351 1650 
Q 425 1838 548 1973 
Q 672 2109 830 2192 
Q 988 2275 1156 2303 
L 1156 2316 
Q 972 2359 826 2456 
Q 681 2553 582 2689 
Q 484 2825 432 2990 
Q 381 3156 381 3341 
Q 381 3572 470 3776 
Q 559 3981 734 4136 
Q 909 4291 1168 4380 
Q 1428 4469 1769 4469 
Q 2128 4469 2392 4378 
Q 2656 4288 2829 4133 
Q 3003 3978 3087 3772 
Q 3172 3566 3172 3334 
Q 3172 3153 3120 2987 
Q 3069 2822 2970 2686 
Q 2872 2550 2726 2454 
Q 2581 2359 2391 2322 
L 2391 2309 
Q 2581 2278 2743 2195 
Q 2906 2113 3025 1977 
Q 3144 1841 3212 1653 
Q 3281 1466 3281 1228 
z
M 2588 3303 
Q 2588 3469 2545 3606 
Q 2503 3744 2406 3842 
Q 2309 3941 2153 3995 
Q 1997 4050 1769 4050 
Q 1547 4050 1394 3995 
Q 1241 3941 1142 3842 
Q 1044 3744 1000 3606 
Q 956 3469 956 3303 
Q 956 3172 990 3034 
Q 1025 2897 1115 2784 
Q 1206 2672 1365 2600 
Q 1525 2528 1775 2528 
Q 2041 2528 2202 2600 
Q 2363 2672 2448 2784 
Q 2534 2897 2561 3034 
Q 2588 3172 2588 3303 
z
M 2697 1281 
Q 2697 1441 2653 1589 
Q 2609 1738 2503 1852 
Q 2397 1966 2217 2036 
Q 2038 2106 1769 2106 
Q 1522 2106 1348 2036 
Q 1175 1966 1067 1850 
Q 959 1734 909 1582 
Q 859 1431 859 1269 
Q 859 1066 909 898 
Q 959 731 1068 611 
Q 1178 491 1356 425 
Q 1534 359 1788 359 
Q 2044 359 2219 425 
Q 2394 491 2500 611 
Q 2606 731 2651 901 
Q 2697 1072 2697 1281 
z
" transform="scale(0.015625)"/>
       </defs>
       <use xlink:href="#LiberationSans-30"/>
       <use xlink:href="#LiberationSans-2e" x="55.615234"/>
       <use xlink:href="#LiberationSans-38" x="83.398438"/>
      </g>
     </g>
    </g>
    <g id="ytick_12">
     <g id="line2d_32"/>
     <g id="text_30">
      <!-- 0.9 -->
      <g style="fill: #262626" transform="translate(87.1 374.437263)scale(0.1 -0.1)">
       <defs>
        <path id="LiberationSans-39" d="M 3256 2291 
Q 3256 1703 3145 1261 
Q 3034 819 2828 525 
Q 2622 231 2326 84 
Q 2031 -63 1663 -63 
Q 1409 -63 1206 -11 
Q 1003 41 843 150 
Q 684 259 571 434 
Q 459 609 391 856 
L 928 941 
Q 1016 656 1202 523 
Q 1388 391 1672 391 
Q 1900 391 2089 498 
Q 2278 606 2411 822 
Q 2544 1038 2619 1363 
Q 2694 1688 2700 2125 
Q 2634 1978 2520 1862 
Q 2406 1747 2261 1667 
Q 2116 1588 1947 1545 
Q 1778 1503 1606 1503 
Q 1306 1503 1064 1611 
Q 822 1719 653 1912 
Q 484 2106 392 2379 
Q 300 2653 300 2988 
Q 300 3328 398 3603 
Q 497 3878 684 4070 
Q 872 4263 1145 4366 
Q 1419 4469 1766 4469 
Q 2500 4469 2878 3925 
Q 3256 3381 3256 2291 
z
M 2644 2834 
Q 2644 3078 2586 3293 
Q 2528 3509 2414 3668 
Q 2300 3828 2133 3920 
Q 1966 4013 1747 4013 
Q 1544 4013 1381 3941 
Q 1219 3869 1106 3736 
Q 994 3603 933 3412 
Q 872 3222 872 2988 
Q 872 2766 926 2575 
Q 981 2384 1090 2245 
Q 1200 2106 1362 2026 
Q 1525 1947 1741 1947 
Q 1897 1947 2058 2000 
Q 2219 2053 2348 2162 
Q 2478 2272 2561 2439 
Q 2644 2606 2644 2834 
z
" transform="scale(0.015625)"/>
       </defs>
       <use xlink:href="#LiberationSans-30"/>
       <use xlink:href="#LiberationSans-2e" x="55.615234"/>
       <use xlink:href="#LiberationSans-39" x="83.398438"/>
      </g>
     </g>
    </g>
   </g>
   <g id="line2d_33">
    <path d="M 138.436364 566.410909 
L 141.495295 543.808089 
L 144.554226 532.920146 
L 147.613157 522.721313 
L 150.672088 514.451988 
L 153.731019 508.112173 
L 156.78995 503.150579 
L 159.848881 499.705027 
L 162.907812 494.054322 
L 165.966743 489.092727 
L 169.025674 490.884414 
L 172.084605 482.201624 
L 175.143536 476.137453 
L 178.202467 473.932299 
L 181.261398 475.723986 
L 184.320329 471.31368 
L 187.37926 471.451502 
L 190.438191 468.00595 
L 193.497122 470.900214 
L 196.556053 466.62773 
L 199.614984 464.698221 
L 202.673915 459.460982 
L 205.732846 463.595644 
L 208.791777 457.118007 
L 211.850708 464.560399 
L 214.909639 461.941779 
L 217.96857 453.396811 
L 221.027501 451.742946 
L 224.086432 457.393651 
L 227.145363 448.159572 
L 230.204294 449.813437 
L 233.263225 454.63721 
L 236.322156 454.63721 
L 239.381087 452.707701 
L 242.440018 449.124327 
L 245.498949 446.505707 
L 248.55788 452.01859 
L 251.616811 448.297394 
L 254.675742 441.130647 
L 257.734673 447.470462 
L 260.793604 443.3358 
L 263.852535 442.508867 
L 266.911466 444.300554 
L 269.970397 438.236383 
L 273.029328 439.614604 
L 276.088259 437.547273 
L 279.14719 439.201138 
L 282.206122 435.755586 
L 285.265053 433.274789 
L 288.323984 430.380525 
L 291.382915 435.066475 
L 294.441846 434.515187 
L 297.500777 432.999144 
L 300.559708 431.069635 
L 303.618639 433.550433 
L 306.67757 430.242703 
L 309.736501 431.758746 
L 312.795432 429.415771 
L 315.854363 427.486262 
L 318.913294 425.143286 
L 321.972225 432.172212 
L 325.031156 427.899728 
L 328.090087 429.277948 
L 331.149018 417.287428 
L 334.207949 420.73298 
L 337.26688 422.386845 
L 340.325811 423.075955 
L 343.384742 421.284268 
L 346.443673 421.697735 
L 349.502604 415.633563 
L 352.561535 422.662489 
L 355.620466 418.390005 
L 358.679397 418.252183 
L 361.738328 419.906048 
L 364.797259 417.287428 
L 367.85619 417.011784 
L 370.915121 413.979699 
L 373.974052 415.495741 
L 377.032983 419.768226 
L 380.091914 415.771386 
L 383.150845 415.220097 
L 386.209776 415.357919 
L 392.327638 410.809791 
L 395.386569 414.530987 
L 398.4455 408.880282 
L 401.504431 409.155926 
L 404.563362 409.569392 
L 407.622293 409.293748 
L 410.681224 409.155926 
L 413.740155 405.848196 
L 416.799086 410.947613 
L 419.858017 407.088595 
L 422.916948 404.607798 
L 425.975879 409.43157 
L 429.03481 400.610958 
L 432.093741 404.469976 
L 435.152672 403.091755 
L 438.211603 402.540467 
L 441.270534 398.681449 
L 444.329466 404.056509 
L 447.388397 401.162246 
L 450.447328 403.643043 
L 453.506259 400.473136 
L 456.56519 403.091755 
L 459.624121 403.918687 
L 462.683052 396.889762 
L 465.741983 398.405805 
L 468.800914 396.889762 
L 471.859845 394.960253 
L 474.918776 400.473136 
L 477.977707 396.200651 
L 481.036638 393.582032 
L 484.095569 395.925007 
L 487.1545 393.030744 
L 490.213431 394.408965 
L 493.272362 394.684609 
L 496.331293 393.995498 
L 499.390224 387.793505 
L 502.449155 391.790345 
L 505.508086 391.239057 
L 508.567017 388.206971 
L 511.625948 393.582032 
L 514.684879 393.168566 
L 517.74381 386.966573 
L 520.802741 391.101235 
L 523.861672 389.723014 
L 526.920603 388.620438 
L 529.979534 390.274302 
L 533.038465 385.037064 
L 536.097396 387.242217 
L 539.156327 385.726174 
L 542.215258 383.521021 
L 545.274189 387.517861 
L 548.33312 380.764579 
L 551.392051 384.347953 
L 554.450982 379.110715 
L 557.509913 379.386359 
L 560.568844 382.694088 
L 563.627775 381.315868 
L 566.686706 376.078629 
L 569.745637 379.110715 
L 572.804568 380.213291 
L 575.863499 378.697248 
L 578.92243 383.383199 
L 581.981361 376.905561 
L 585.040292 381.315868 
L 588.099223 377.181206 
L 591.158154 377.043384 
L 594.217085 380.075469 
L 597.276016 373.046544 
L 600.334947 380.351113 
L 603.393878 379.386359 
L 606.45281 375.802985 
L 609.511741 375.113875 
L 612.570672 373.046544 
L 618.688534 377.594672 
L 621.747465 373.184366 
L 624.806396 373.46001 
L 627.865327 370.565746 
L 633.983189 374.14912 
L 637.04212 370.979212 
L 640.101051 370.565746 
L 643.159982 370.014458 
L 646.218913 371.806145 
L 649.277844 373.735654 
L 652.336775 369.600992 
L 655.395706 371.806145 
L 664.572499 368.498415 
L 667.63143 371.117035 
L 670.690361 364.915041 
L 673.749292 367.395839 
L 676.808223 365.328508 
L 679.867154 368.498415 
L 682.926085 367.947127 
L 685.985016 368.360593 
L 689.043947 366.568906 
L 692.102878 366.568906 
L 695.161809 364.225931 
L 698.22074 369.876636 
L 701.279671 367.395839 
L 704.338602 366.017618 
L 707.397533 363.812465 
L 710.456464 362.434244 
L 713.515395 364.777219 
L 719.633257 362.296422 
L 722.692188 363.536821 
L 725.751119 363.536821 
L 728.81005 361.882956 
L 731.868981 364.088109 
L 734.927912 362.296422 
L 737.986843 360.229091 
L 741.045774 361.46949 
L 744.104705 361.331667 
L 747.163636 362.434244 
L 747.163636 362.434244 
" clip-path="url(#p73be0a058a)" style="fill: none; stroke: #ff0000; stroke-width: 1.75; stroke-linecap: round"/>
   </g>
   <g id="line2d_34">
    <path d="M 138.436364 535.995326 
L 141.495295 523.422847 
L 144.554226 513.335044 
L 147.613157 504.936831 
L 150.672088 504.936831 
L 153.731019 493.606695 
L 156.78995 486.848366 
L 159.848881 485.904187 
L 162.907812 489.233653 
L 165.966743 482.276558 
L 169.025674 481.928705 
L 172.084605 471.542739 
L 175.143536 472.785072 
L 178.202467 483.320116 
L 181.261398 469.505304 
L 184.320329 472.934149 
L 187.37926 467.716326 
L 190.438191 475.766686 
L 193.497122 465.231659 
L 196.556053 462.399122 
L 199.614984 468.163574 
L 202.673915 459.218733 
L 205.732846 467.567248 
L 208.791777 459.417492 
L 211.850708 458.821183 
L 214.909639 456.684352 
L 217.96857 458.572709 
L 221.027501 459.715663 
L 224.086432 457.72791 
L 227.145363 456.584973 
L 230.204294 454.746296 
L 233.263225 448.186743 
L 236.322156 448.832767 
L 239.381087 448.733371 
L 242.440018 446.199006 
L 245.498949 446.149308 
L 248.55788 453.454265 
L 251.616811 443.764021 
L 254.675742 443.068315 
L 257.734673 447.143185 
L 260.793604 446.546859 
L 263.852535 446.894711 
L 266.911466 440.434554 
L 269.970397 439.589755 
L 273.029328 441.825965 
L 276.088259 444.757897 
L 282.206122 436.657839 
L 285.265053 437.005692 
L 288.323984 438.397103 
L 291.382915 438.148646 
L 294.441846 437.254165 
L 297.500777 439.540057 
L 300.559708 439.838228 
L 303.618639 437.999569 
L 306.67757 435.017938 
L 309.736501 435.216714 
L 312.795432 432.135721 
L 315.854363 435.912436 
L 318.913294 433.775605 
L 321.972225 430.595216 
L 325.031156 434.073776 
L 328.090087 430.098286 
L 331.149018 431.141844 
L 334.207949 433.427752 
L 337.26688 432.086023 
L 340.325811 430.098286 
L 343.384742 432.533271 
L 346.443673 427.365129 
L 349.502604 430.446139 
L 352.561535 431.688472 
L 355.620466 429.700735 
L 358.679397 425.973718 
L 361.738328 429.601339 
L 364.797259 429.253486 
L 367.85619 427.414827 
L 370.915121 429.154107 
L 373.974052 426.172494 
L 377.032983 428.706858 
L 380.091914 430.545518 
L 383.150845 424.979841 
L 386.209776 426.023399 
L 389.268707 424.830764 
L 392.327638 426.42095 
L 395.386569 425.92402 
L 398.4455 424.234438 
L 404.563362 426.768803 
L 407.622293 430.396441 
L 410.681224 423.538733 
L 413.740155 425.675547 
L 416.799086 424.781066 
L 419.858017 425.178617 
L 422.916948 427.812378 
L 425.975879 422.44546 
L 429.03481 423.886585 
L 432.093741 424.830764 
L 435.152672 422.992105 
L 438.211603 424.930143 
L 441.270534 421.84915 
L 444.329466 426.917897 
L 447.388397 423.489035 
L 450.447328 422.84301 
L 453.506259 423.638112 
L 456.56519 424.035663 
L 459.624121 423.339957 
L 462.683052 423.68781 
L 465.741983 423.638112 
L 468.800914 421.103747 
L 471.859845 420.209249 
L 474.918776 419.911095 
L 477.977707 421.501298 
L 481.036638 420.904972 
L 484.095569 421.203126 
L 487.1545 420.557119 
L 490.213431 420.855274 
L 493.272362 421.352204 
L 496.331293 419.265071 
L 499.390224 419.712319 
L 502.449155 422.097607 
L 505.508086 418.917218 
L 508.567017 422.197003 
L 511.625948 422.693933 
L 514.684879 422.84301 
L 517.74381 420.159568 
L 520.802741 420.10987 
L 523.861672 416.929481 
L 526.920603 421.153428 
L 529.979534 419.712319 
L 533.038465 423.936283 
L 536.097396 416.531931 
L 542.215258 418.072435 
L 545.274189 415.786527 
L 548.33312 418.37059 
L 551.392051 417.575489 
L 554.450982 417.923358 
L 557.509913 420.954653 
L 560.568844 418.768141 
L 563.627775 416.035001 
L 566.686706 419.712319 
L 569.745637 419.265071 
L 572.804568 417.177955 
L 575.863499 420.209249 
L 578.92243 418.718443 
L 581.981361 417.923358 
L 585.040292 421.898832 
L 588.099223 418.320892 
L 591.158154 417.973039 
L 594.217085 416.333155 
L 597.276016 414.941728 
L 600.334947 415.885906 
L 603.393878 424.582291 
L 606.45281 418.072435 
L 609.511741 416.482232 
L 612.570672 421.650375 
L 615.629603 420.060172 
L 618.688534 417.525807 
L 621.747465 416.184078 
L 624.806396 418.718443 
L 627.865327 419.314769 
L 630.924258 417.923358 
L 633.983189 419.066295 
L 637.04212 417.625187 
L 640.101051 416.63131 
L 643.159982 422.495158 
L 646.218913 415.239899 
L 649.277844 417.327032 
L 652.336775 415.63745 
L 655.395706 416.780404 
L 658.454637 414.3951 
L 661.513568 416.382853 
L 664.572499 415.587752 
L 667.63143 417.02886 
L 670.690361 416.681008 
L 673.749292 416.184078 
L 676.808223 416.184078 
L 679.867154 415.140503 
L 682.926085 421.252824 
L 685.985016 415.63745 
L 689.043947 415.190201 
L 692.102878 415.438674 
L 695.161809 414.643573 
L 698.22074 415.339278 
L 701.279671 416.184078 
L 704.338602 415.687131 
L 710.456464 413.550317 
L 713.515395 418.917218 
L 716.574326 417.823962 
L 719.633257 413.947868 
L 722.692188 414.892046 
L 725.751119 415.985302 
L 728.81005 415.488372 
L 731.868981 414.345418 
L 734.927912 415.687131 
L 737.986843 414.991426 
L 741.045774 415.438674 
L 744.104705 415.587752 
L 747.163636 413.550317 
L 747.163636 413.550317 
" clip-path="url(#p73be0a058a)" style="fill: none; stroke: #008000; stroke-width: 1.75; stroke-linecap: round"/>
   </g>
   <g id="patch_8">
    <path d="M 108 576.72 
L 108 349.92 
" style="fill: none"/>
   </g>
   <g id="patch_9">
    <path d="M 777.6 576.72 
L 777.6 349.92 
" style="fill: none"/>
   </g>
   <g id="patch_10">
    <path d="M 108 576.72 
L 777.6 576.72 
" style="fill: none"/>
   </g>
   <g id="patch_11">
    <path d="M 108 349.92 
L 777.6 349.92 
" style="fill: none"/>
   </g>
  </g>
  <g id="text_31">
   <!-- Plots of model performance: spectrogram, baseline - lr 1e-05, batch 16, 128 steps/epoch -->
   <g style="fill: #262626" transform="translate(196.89 21.65625)scale(0.12 -0.12)">
    <defs>
     <path id="LiberationSans-50" d="M 3931 3078 
Q 3931 2791 3836 2542 
Q 3741 2294 3552 2111 
Q 3363 1928 3078 1822 
Q 2794 1716 2416 1716 
L 1122 1716 
L 1122 0 
L 525 0 
L 525 4403 
L 2378 4403 
Q 2769 4403 3059 4308 
Q 3350 4213 3544 4039 
Q 3738 3866 3834 3620 
Q 3931 3375 3931 3078 
z
M 3331 3072 
Q 3331 3491 3075 3708 
Q 2819 3925 2306 3925 
L 1122 3925 
L 1122 2188 
L 2331 2188 
Q 2847 2188 3089 2416 
Q 3331 2644 3331 3072 
z
" transform="scale(0.015625)"/>
     <path id="LiberationSans-6c" d="M 431 0 
L 431 4638 
L 994 4638 
L 994 0 
L 431 0 
z
" transform="scale(0.015625)"/>
     <path id="LiberationSans-6f" d="M 3291 1694 
Q 3291 806 2900 371 
Q 2509 -63 1766 -63 
Q 1413 -63 1134 43 
Q 856 150 664 369 
Q 472 588 370 917 
Q 269 1247 269 1694 
Q 269 3444 1784 3444 
Q 2178 3444 2464 3334 
Q 2750 3225 2933 3006 
Q 3116 2788 3203 2459 
Q 3291 2131 3291 1694 
z
M 2700 1694 
Q 2700 2088 2639 2344 
Q 2578 2600 2461 2753 
Q 2344 2906 2175 2967 
Q 2006 3028 1794 3028 
Q 1578 3028 1404 2964 
Q 1231 2900 1109 2745 
Q 988 2591 923 2334 
Q 859 2078 859 1694 
Q 859 1300 928 1042 
Q 997 784 1117 631 
Q 1238 478 1402 415 
Q 1566 353 1759 353 
Q 1975 353 2150 414 
Q 2325 475 2447 628 
Q 2569 781 2634 1040 
Q 2700 1300 2700 1694 
z
" transform="scale(0.015625)"/>
     <path id="LiberationSans-74" d="M 1731 25 
Q 1603 -9 1470 -29 
Q 1338 -50 1163 -50 
Q 488 -50 488 716 
L 488 2972 
L 97 2972 
L 97 3381 
L 509 3381 
L 675 4138 
L 1050 4138 
L 1050 3381 
L 1675 3381 
L 1675 2972 
L 1050 2972 
L 1050 838 
Q 1050 594 1129 495 
Q 1209 397 1406 397 
Q 1488 397 1564 409 
Q 1641 422 1731 441 
L 1731 25 
z
" transform="scale(0.015625)"/>
     <path id="LiberationSans-73" d="M 2969 934 
Q 2969 697 2876 511 
Q 2784 325 2609 198 
Q 2434 72 2179 4 
Q 1925 -63 1597 -63 
Q 1303 -63 1067 -17 
Q 831 28 653 128 
Q 475 228 354 392 
Q 234 556 178 794 
L 675 891 
Q 747 619 972 492 
Q 1197 366 1597 366 
Q 1778 366 1929 391 
Q 2081 416 2190 477 
Q 2300 538 2361 639 
Q 2422 741 2422 891 
Q 2422 1044 2350 1142 
Q 2278 1241 2150 1306 
Q 2022 1372 1839 1420 
Q 1656 1469 1438 1528 
Q 1234 1581 1034 1647 
Q 834 1713 673 1820 
Q 513 1928 413 2087 
Q 313 2247 313 2488 
Q 313 2950 642 3192 
Q 972 3434 1603 3434 
Q 2163 3434 2492 3237 
Q 2822 3041 2909 2606 
L 2403 2544 
Q 2375 2675 2300 2764 
Q 2225 2853 2119 2908 
Q 2013 2963 1880 2986 
Q 1747 3009 1603 3009 
Q 1222 3009 1040 2893 
Q 859 2778 859 2544 
Q 859 2406 926 2317 
Q 994 2228 1114 2167 
Q 1234 2106 1403 2061 
Q 1572 2016 1775 1966 
Q 1909 1931 2050 1892 
Q 2191 1853 2323 1798 
Q 2456 1744 2573 1670 
Q 2691 1597 2778 1494 
Q 2866 1391 2917 1253 
Q 2969 1116 2969 934 
z
" transform="scale(0.015625)"/>
     <path id="LiberationSans-20" transform="scale(0.015625)"/>
     <path id="LiberationSans-66" d="M 1128 2972 
L 1128 0 
L 566 0 
L 566 2972 
L 91 2972 
L 91 3381 
L 566 3381 
L 566 3763 
Q 566 3947 600 4105 
Q 634 4263 726 4380 
Q 819 4497 978 4564 
Q 1138 4631 1391 4631 
Q 1491 4631 1598 4622 
Q 1706 4613 1788 4594 
L 1788 4166 
Q 1734 4175 1664 4183 
Q 1594 4191 1538 4191 
Q 1413 4191 1333 4156 
Q 1253 4122 1208 4058 
Q 1163 3994 1145 3900 
Q 1128 3806 1128 3684 
L 1128 3381 
L 1788 3381 
L 1788 2972 
L 1128 2972 
z
" transform="scale(0.015625)"/>
     <path id="LiberationSans-6d" d="M 2400 0 
L 2400 2144 
Q 2400 2391 2369 2556 
Q 2338 2722 2264 2823 
Q 2191 2925 2072 2967 
Q 1953 3009 1781 3009 
Q 1603 3009 1459 2939 
Q 1316 2869 1214 2736 
Q 1113 2603 1058 2408 
Q 1003 2213 1003 1959 
L 1003 0 
L 444 0 
L 444 2659 
Q 444 2766 442 2883 
Q 441 3000 437 3104 
Q 434 3209 431 3284 
Q 428 3359 425 3381 
L 956 3381 
Q 959 3366 962 3297 
Q 966 3228 970 3139 
Q 975 3050 978 2958 
Q 981 2866 981 2803 
L 991 2803 
Q 1066 2950 1153 3069 
Q 1241 3188 1358 3270 
Q 1475 3353 1626 3398 
Q 1778 3444 1978 3444 
Q 2363 3444 2586 3291 
Q 2809 3138 2897 2803 
L 2906 2803 
Q 2981 2950 3075 3069 
Q 3169 3188 3294 3270 
Q 3419 3353 3575 3398 
Q 3731 3444 3931 3444 
Q 4188 3444 4373 3375 
Q 4559 3306 4678 3162 
Q 4797 3019 4853 2792 
Q 4909 2566 4909 2253 
L 4909 0 
L 4353 0 
L 4353 2144 
Q 4353 2391 4322 2556 
Q 4291 2722 4217 2823 
Q 4144 2925 4025 2967 
Q 3906 3009 3734 3009 
Q 3556 3009 3412 2942 
Q 3269 2875 3167 2744 
Q 3066 2613 3011 2416 
Q 2956 2219 2956 1959 
L 2956 0 
L 2400 0 
z
" transform="scale(0.015625)"/>
     <path id="LiberationSans-64" d="M 2566 544 
Q 2409 219 2151 78 
Q 1894 -63 1513 -63 
Q 872 -63 570 368 
Q 269 800 269 1675 
Q 269 3444 1513 3444 
Q 1897 3444 2153 3303 
Q 2409 3163 2566 2856 
L 2572 2856 
Q 2572 2888 2570 2955 
Q 2569 3022 2567 3095 
Q 2566 3169 2566 3234 
Q 2566 3300 2566 3328 
L 2566 4638 
L 3128 4638 
L 3128 697 
Q 3128 575 3129 462 
Q 3131 350 3134 256 
Q 3138 163 3141 95 
Q 3144 28 3147 0 
L 2609 0 
Q 2603 31 2598 89 
Q 2594 147 2589 222 
Q 2584 297 2581 380 
Q 2578 463 2578 544 
L 2566 544 
z
M 859 1694 
Q 859 1344 903 1094 
Q 947 844 1044 683 
Q 1141 522 1291 447 
Q 1441 372 1656 372 
Q 1878 372 2048 444 
Q 2219 516 2333 677 
Q 2447 838 2506 1097 
Q 2566 1356 2566 1731 
Q 2566 2091 2506 2339 
Q 2447 2588 2331 2741 
Q 2216 2894 2048 2961 
Q 1881 3028 1663 3028 
Q 1456 3028 1306 2956 
Q 1156 2884 1056 2725 
Q 956 2566 907 2311 
Q 859 2056 859 1694 
z
" transform="scale(0.015625)"/>
     <path id="LiberationSans-65" d="M 863 1572 
Q 863 1306 917 1082 
Q 972 859 1086 698 
Q 1200 538 1378 448 
Q 1556 359 1806 359 
Q 2172 359 2392 506 
Q 2613 653 2691 878 
L 3184 738 
Q 3131 597 3036 455 
Q 2941 313 2781 198 
Q 2622 84 2383 10 
Q 2144 -63 1806 -63 
Q 1056 -63 664 384 
Q 272 831 272 1713 
Q 272 2188 390 2517 
Q 509 2847 715 3053 
Q 922 3259 1197 3351 
Q 1472 3444 1784 3444 
Q 2209 3444 2495 3306 
Q 2781 3169 2954 2926 
Q 3128 2684 3201 2356 
Q 3275 2028 3275 1647 
L 3275 1572 
L 863 1572 
z
M 2694 2003 
Q 2647 2538 2422 2783 
Q 2197 3028 1775 3028 
Q 1634 3028 1479 2983 
Q 1325 2938 1194 2822 
Q 1063 2706 972 2507 
Q 881 2309 869 2003 
L 2694 2003 
z
" transform="scale(0.015625)"/>
     <path id="LiberationSans-70" d="M 3291 1706 
Q 3291 1322 3228 997 
Q 3166 672 3020 437 
Q 2875 203 2636 70 
Q 2397 -63 2047 -63 
Q 1684 -63 1412 75 
Q 1141 213 997 525 
L 981 525 
Q 984 519 986 469 
Q 988 419 989 344 
Q 991 269 992 176 
Q 994 84 994 -6 
L 994 -1328 
L 431 -1328 
L 431 2691 
Q 431 2813 429 2925 
Q 428 3038 425 3130 
Q 422 3222 419 3287 
Q 416 3353 413 3381 
L 956 3381 
Q 959 3372 964 3315 
Q 969 3259 973 3179 
Q 978 3100 983 3009 
Q 988 2919 988 2838 
L 1000 2838 
Q 1078 3000 1178 3114 
Q 1278 3228 1406 3301 
Q 1534 3375 1692 3408 
Q 1850 3441 2047 3441 
Q 2397 3441 2636 3316 
Q 2875 3191 3020 2964 
Q 3166 2738 3228 2417 
Q 3291 2097 3291 1706 
z
M 2700 1694 
Q 2700 2006 2662 2250 
Q 2625 2494 2533 2662 
Q 2441 2831 2287 2918 
Q 2134 3006 1903 3006 
Q 1716 3006 1550 2953 
Q 1384 2900 1261 2750 
Q 1138 2600 1066 2336 
Q 994 2072 994 1650 
Q 994 1291 1053 1042 
Q 1113 794 1227 641 
Q 1341 488 1509 420 
Q 1678 353 1897 353 
Q 2131 353 2286 443 
Q 2441 534 2533 706 
Q 2625 878 2662 1126 
Q 2700 1375 2700 1694 
z
" transform="scale(0.015625)"/>
     <path id="LiberationSans-72" d="M 444 0 
L 444 2594 
Q 444 2700 442 2811 
Q 441 2922 437 3025 
Q 434 3128 431 3218 
Q 428 3309 425 3381 
L 956 3381 
Q 959 3309 964 3217 
Q 969 3125 973 3028 
Q 978 2931 979 2842 
Q 981 2753 981 2691 
L 994 2691 
Q 1053 2884 1120 3026 
Q 1188 3169 1278 3261 
Q 1369 3353 1494 3398 
Q 1619 3444 1797 3444 
Q 1866 3444 1928 3433 
Q 1991 3422 2025 3413 
L 2025 2897 
Q 1969 2913 1894 2920 
Q 1819 2928 1725 2928 
Q 1531 2928 1395 2840 
Q 1259 2753 1173 2598 
Q 1088 2444 1047 2230 
Q 1006 2016 1006 1763 
L 1006 0 
L 444 0 
z
" transform="scale(0.015625)"/>
     <path id="LiberationSans-61" d="M 1294 -63 
Q 784 -63 528 206 
Q 272 475 272 944 
Q 272 1278 398 1492 
Q 525 1706 729 1828 
Q 934 1950 1196 1997 
Q 1459 2044 1731 2050 
L 2491 2063 
L 2491 2247 
Q 2491 2456 2447 2603 
Q 2403 2750 2312 2840 
Q 2222 2931 2086 2973 
Q 1950 3016 1766 3016 
Q 1603 3016 1472 2992 
Q 1341 2969 1244 2908 
Q 1147 2847 1087 2742 
Q 1028 2638 1009 2478 
L 422 2531 
Q 453 2731 540 2898 
Q 628 3066 789 3187 
Q 950 3309 1192 3376 
Q 1434 3444 1778 3444 
Q 2416 3444 2737 3151 
Q 3059 2859 3059 2306 
L 3059 850 
Q 3059 600 3125 473 
Q 3191 347 3375 347 
Q 3422 347 3469 353 
Q 3516 359 3559 369 
L 3559 19 
Q 3453 -6 3348 -18 
Q 3244 -31 3125 -31 
Q 2966 -31 2852 11 
Q 2738 53 2666 139 
Q 2594 225 2556 351 
Q 2519 478 2509 647 
L 2491 647 
Q 2400 484 2292 353 
Q 2184 222 2040 130 
Q 1897 38 1714 -12 
Q 1531 -63 1294 -63 
z
M 1422 359 
Q 1691 359 1892 457 
Q 2094 556 2226 709 
Q 2359 863 2425 1044 
Q 2491 1225 2491 1391 
L 2491 1669 
L 1875 1656 
Q 1669 1653 1483 1626 
Q 1297 1600 1156 1522 
Q 1016 1444 933 1303 
Q 850 1163 850 934 
Q 850 659 998 509 
Q 1147 359 1422 359 
z
" transform="scale(0.015625)"/>
     <path id="LiberationSans-6e" d="M 2578 0 
L 2578 2144 
Q 2578 2391 2542 2556 
Q 2506 2722 2425 2823 
Q 2344 2925 2211 2967 
Q 2078 3009 1881 3009 
Q 1681 3009 1520 2939 
Q 1359 2869 1245 2736 
Q 1131 2603 1068 2408 
Q 1006 2213 1006 1959 
L 1006 0 
L 444 0 
L 444 2659 
Q 444 2766 442 2883 
Q 441 3000 437 3104 
Q 434 3209 431 3284 
Q 428 3359 425 3381 
L 956 3381 
Q 959 3366 962 3297 
Q 966 3228 970 3139 
Q 975 3050 978 2958 
Q 981 2866 981 2803 
L 991 2803 
Q 1072 2950 1169 3069 
Q 1266 3188 1394 3270 
Q 1522 3353 1687 3398 
Q 1853 3444 2072 3444 
Q 2353 3444 2556 3375 
Q 2759 3306 2890 3162 
Q 3022 3019 3083 2792 
Q 3144 2566 3144 2253 
L 3144 0 
L 2578 0 
z
" transform="scale(0.015625)"/>
     <path id="LiberationSans-63" d="M 859 1706 
Q 859 1416 901 1172 
Q 944 928 1044 751 
Q 1144 575 1308 478 
Q 1472 381 1713 381 
Q 2013 381 2214 543 
Q 2416 706 2463 1044 
L 3031 1006 
Q 3003 797 2909 603 
Q 2816 409 2655 262 
Q 2494 116 2262 26 
Q 2031 -63 1728 -63 
Q 1331 -63 1053 71 
Q 775 206 601 442 
Q 428 678 350 998 
Q 272 1319 272 1694 
Q 272 2034 328 2295 
Q 384 2556 486 2751 
Q 588 2947 725 3080 
Q 863 3213 1023 3292 
Q 1184 3372 1362 3408 
Q 1541 3444 1722 3444 
Q 2006 3444 2228 3366 
Q 2450 3288 2611 3152 
Q 2772 3016 2872 2831 
Q 2972 2647 3013 2434 
L 2434 2391 
Q 2391 2672 2212 2837 
Q 2034 3003 1706 3003 
Q 1466 3003 1305 2923 
Q 1144 2844 1044 2683 
Q 944 2522 901 2278 
Q 859 2034 859 1706 
z
" transform="scale(0.015625)"/>
     <path id="LiberationSans-3a" d="M 584 2734 
L 584 3381 
L 1194 3381 
L 1194 2734 
L 584 2734 
z
M 584 0 
L 584 647 
L 1194 647 
L 1194 0 
L 584 0 
z
" transform="scale(0.015625)"/>
     <path id="LiberationSans-67" d="M 1713 -1328 
Q 1422 -1328 1197 -1268 
Q 972 -1209 812 -1098 
Q 653 -988 553 -834 
Q 453 -681 409 -494 
L 975 -413 
Q 1031 -647 1223 -773 
Q 1416 -900 1728 -900 
Q 1919 -900 2075 -847 
Q 2231 -794 2340 -676 
Q 2450 -559 2509 -371 
Q 2569 -184 2569 84 
L 2569 628 
L 2563 628 
Q 2500 500 2408 383 
Q 2316 266 2183 175 
Q 2050 84 1875 29 
Q 1700 -25 1475 -25 
Q 1153 -25 923 83 
Q 694 191 548 406 
Q 403 622 336 942 
Q 269 1263 269 1684 
Q 269 2091 336 2416 
Q 403 2741 554 2967 
Q 706 3194 948 3314 
Q 1191 3434 1538 3434 
Q 1897 3434 2161 3270 
Q 2425 3106 2569 2803 
L 2575 2803 
Q 2575 2881 2579 2978 
Q 2584 3075 2589 3161 
Q 2594 3247 2600 3309 
Q 2606 3372 2613 3381 
L 3147 3381 
Q 3144 3353 3141 3286 
Q 3138 3219 3134 3125 
Q 3131 3031 3129 2917 
Q 3128 2803 3128 2681 
L 3128 97 
Q 3128 -613 2779 -970 
Q 2431 -1328 1713 -1328 
z
M 2569 1691 
Q 2569 2044 2492 2295 
Q 2416 2547 2291 2706 
Q 2166 2866 2005 2941 
Q 1844 3016 1675 3016 
Q 1459 3016 1304 2941 
Q 1150 2866 1048 2705 
Q 947 2544 898 2292 
Q 850 2041 850 1691 
Q 850 1325 898 1076 
Q 947 828 1047 675 
Q 1147 522 1300 456 
Q 1453 391 1666 391 
Q 1834 391 1995 462 
Q 2156 534 2284 690 
Q 2413 847 2491 1094 
Q 2569 1341 2569 1691 
z
" transform="scale(0.015625)"/>
     <path id="LiberationSans-2c" d="M 1203 684 
L 1203 159 
Q 1203 -6 1189 -142 
Q 1175 -278 1144 -395 
Q 1113 -513 1067 -616 
Q 1022 -719 959 -819 
L 575 -819 
Q 716 -616 792 -409 
Q 869 -203 869 0 
L 594 0 
L 594 684 
L 1203 684 
z
" transform="scale(0.015625)"/>
     <path id="LiberationSans-62" d="M 3291 1706 
Q 3291 -63 2047 -63 
Q 1663 -63 1408 76 
Q 1153 216 994 525 
L 988 525 
Q 988 444 983 356 
Q 978 269 973 194 
Q 969 119 964 66 
Q 959 13 956 0 
L 413 0 
Q 416 28 419 95 
Q 422 163 425 256 
Q 428 350 429 462 
Q 431 575 431 697 
L 431 4638 
L 994 4638 
L 994 3316 
Q 994 3222 992 3136 
Q 991 3050 988 2984 
Q 984 2906 981 2838 
L 994 2838 
Q 1150 3163 1408 3303 
Q 1666 3444 2047 3444 
Q 2688 3444 2989 3012 
Q 3291 2581 3291 1706 
z
M 2700 1688 
Q 2700 2038 2656 2288 
Q 2613 2538 2516 2698 
Q 2419 2859 2269 2934 
Q 2119 3009 1903 3009 
Q 1681 3009 1511 2937 
Q 1341 2866 1227 2706 
Q 1113 2547 1053 2287 
Q 994 2028 994 1653 
Q 994 1291 1053 1044 
Q 1113 797 1227 642 
Q 1341 488 1509 420 
Q 1678 353 1897 353 
Q 2103 353 2253 425 
Q 2403 497 2503 656 
Q 2603 816 2651 1070 
Q 2700 1325 2700 1688 
z
" transform="scale(0.015625)"/>
     <path id="LiberationSans-69" d="M 428 4100 
L 428 4638 
L 991 4638 
L 991 4100 
L 428 4100 
z
M 428 0 
L 428 3381 
L 991 3381 
L 991 0 
L 428 0 
z
" transform="scale(0.015625)"/>
     <path id="LiberationSans-2d" d="M 284 1450 
L 284 1950 
L 1847 1950 
L 1847 1450 
L 284 1450 
z
" transform="scale(0.015625)"/>
     <path id="LiberationSans-68" d="M 991 2803 
Q 1084 2975 1193 3095 
Q 1303 3216 1434 3294 
Q 1566 3372 1722 3408 
Q 1878 3444 2072 3444 
Q 2397 3444 2605 3356 
Q 2813 3269 2933 3111 
Q 3053 2953 3098 2734 
Q 3144 2516 3144 2253 
L 3144 0 
L 2578 0 
L 2578 2144 
Q 2578 2359 2551 2521 
Q 2525 2684 2450 2792 
Q 2375 2900 2237 2954 
Q 2100 3009 1881 3009 
Q 1681 3009 1520 2937 
Q 1359 2866 1245 2734 
Q 1131 2603 1068 2415 
Q 1006 2228 1006 1994 
L 1006 0 
L 444 0 
L 444 4638 
L 1006 4638 
L 1006 3431 
Q 1006 3328 1003 3225 
Q 1000 3122 995 3034 
Q 991 2947 987 2886 
Q 984 2825 981 2803 
L 991 2803 
z
" transform="scale(0.015625)"/>
     <path id="LiberationSans-2f" d="M 0 -63 
L 1284 4638 
L 1778 4638 
L 506 -63 
L 0 -63 
z
" transform="scale(0.015625)"/>
    </defs>
    <use xlink:href="#LiberationSans-50"/>
    <use xlink:href="#LiberationSans-6c" x="66.699219"/>
    <use xlink:href="#LiberationSans-6f" x="88.916016"/>
    <use xlink:href="#LiberationSans-74" x="144.53125"/>
    <use xlink:href="#LiberationSans-73" x="172.314453"/>
    <use xlink:href="#LiberationSans-20" x="222.314453"/>
    <use xlink:href="#LiberationSans-6f" x="250.097656"/>
    <use xlink:href="#LiberationSans-66" x="305.712891"/>
    <use xlink:href="#LiberationSans-20" x="333.496094"/>
    <use xlink:href="#LiberationSans-6d" x="361.279297"/>
    <use xlink:href="#LiberationSans-6f" x="444.580078"/>
    <use xlink:href="#LiberationSans-64" x="500.195312"/>
    <use xlink:href="#LiberationSans-65" x="555.810547"/>
    <use xlink:href="#LiberationSans-6c" x="611.425781"/>
    <use xlink:href="#LiberationSans-20" x="633.642578"/>
    <use xlink:href="#LiberationSans-70" x="661.425781"/>
    <use xlink:href="#LiberationSans-65" x="717.041016"/>
    <use xlink:href="#LiberationSans-72" x="772.65625"/>
    <use xlink:href="#LiberationSans-66" x="805.957031"/>
    <use xlink:href="#LiberationSans-6f" x="833.740234"/>
    <use xlink:href="#LiberationSans-72" x="889.355469"/>
    <use xlink:href="#LiberationSans-6d" x="922.65625"/>
    <use xlink:href="#LiberationSans-61" x="1005.957031"/>
    <use xlink:href="#LiberationSans-6e" x="1061.572266"/>
    <use xlink:href="#LiberationSans-63" x="1117.1875"/>
    <use xlink:href="#LiberationSans-65" x="1167.1875"/>
    <use xlink:href="#LiberationSans-3a" x="1222.802734"/>
    <use xlink:href="#LiberationSans-20" x="1250.585938"/>
    <use xlink:href="#LiberationSans-73" x="1278.369141"/>
    <use xlink:href="#LiberationSans-70" x="1328.369141"/>
    <use xlink:href="#LiberationSans-65" x="1383.984375"/>
    <use xlink:href="#LiberationSans-63" x="1439.599609"/>
    <use xlink:href="#LiberationSans-74" x="1489.599609"/>
    <use xlink:href="#LiberationSans-72" x="1517.382812"/>
    <use xlink:href="#LiberationSans-6f" x="1550.683594"/>
    <use xlink:href="#LiberationSans-67" x="1606.298828"/>
    <use xlink:href="#LiberationSans-72" x="1661.914062"/>
    <use xlink:href="#LiberationSans-61" x="1695.214844"/>
    <use xlink:href="#LiberationSans-6d" x="1750.830078"/>
    <use xlink:href="#LiberationSans-2c" x="1834.130859"/>
    <use xlink:href="#LiberationSans-20" x="1861.914062"/>
    <use xlink:href="#LiberationSans-62" x="1889.697266"/>
    <use xlink:href="#LiberationSans-61" x="1945.3125"/>
    <use xlink:href="#LiberationSans-73" x="2000.927734"/>
    <use xlink:href="#LiberationSans-65" x="2050.927734"/>
    <use xlink:href="#LiberationSans-6c" x="2106.542969"/>
    <use xlink:href="#LiberationSans-69" x="2128.759766"/>
    <use xlink:href="#LiberationSans-6e" x="2150.976562"/>
    <use xlink:href="#LiberationSans-65" x="2206.591797"/>
    <use xlink:href="#LiberationSans-20" x="2262.207031"/>
    <use xlink:href="#LiberationSans-2d" x="2289.990234"/>
    <use xlink:href="#LiberationSans-20" x="2323.291016"/>
    <use xlink:href="#LiberationSans-6c" x="2351.074219"/>
    <use xlink:href="#LiberationSans-72" x="2373.291016"/>
    <use xlink:href="#LiberationSans-20" x="2406.591797"/>
    <use xlink:href="#LiberationSans-31" x="2434.375"/>
    <use xlink:href="#LiberationSans-65" x="2489.990234"/>
    <use xlink:href="#LiberationSans-2d" x="2545.605469"/>
    <use xlink:href="#LiberationSans-30" x="2578.90625"/>
    <use xlink:href="#LiberationSans-35" x="2634.521484"/>
    <use xlink:href="#LiberationSans-2c" x="2690.136719"/>
    <use xlink:href="#LiberationSans-20" x="2717.919922"/>
    <use xlink:href="#LiberationSans-62" x="2745.703125"/>
    <use xlink:href="#LiberationSans-61" x="2801.318359"/>
    <use xlink:href="#LiberationSans-74" x="2856.933594"/>
    <use xlink:href="#LiberationSans-63" x="2884.716797"/>
    <use xlink:href="#LiberationSans-68" x="2934.716797"/>
    <use xlink:href="#LiberationSans-20" x="2990.332031"/>
    <use xlink:href="#LiberationSans-31" x="3018.115234"/>
    <use xlink:href="#LiberationSans-36" x="3073.730469"/>
    <use xlink:href="#LiberationSans-2c" x="3129.345703"/>
    <use xlink:href="#LiberationSans-20" x="3157.128906"/>
    <use xlink:href="#LiberationSans-31" x="3184.912109"/>
    <use xlink:href="#LiberationSans-32" x="3240.527344"/>
    <use xlink:href="#LiberationSans-38" x="3296.142578"/>
    <use xlink:href="#LiberationSans-20" x="3351.757812"/>
    <use xlink:href="#LiberationSans-73" x="3379.541016"/>
    <use xlink:href="#LiberationSans-74" x="3429.541016"/>
    <use xlink:href="#LiberationSans-65" x="3457.324219"/>
    <use xlink:href="#LiberationSans-70" x="3512.939453"/>
    <use xlink:href="#LiberationSans-73" x="3568.554688"/>
    <use xlink:href="#LiberationSans-2f" x="3618.554688"/>
    <use xlink:href="#LiberationSans-65" x="3646.337891"/>
    <use xlink:href="#LiberationSans-70" x="3701.953125"/>
    <use xlink:href="#LiberationSans-6f" x="3757.568359"/>
    <use xlink:href="#LiberationSans-63" x="3813.183594"/>
    <use xlink:href="#LiberationSans-68" x="3863.183594"/>
   </g>
  </g>
 </g>
 <defs>
  <clipPath id="p8935391147">
   <rect x="108" y="77.76" width="669.6" height="226.8"/>
  </clipPath>
  <clipPath id="p73be0a058a">
   <rect x="108" y="349.92" width="669.6" height="226.8"/>
  </clipPath>
 </defs>
</svg>
