<?xml version="1.0" encoding="utf-8" standalone="no"?>
<!DOCTYPE svg PUBLIC "-//W3C//DTD SVG 1.1//EN"
  "http://www.w3.org/Graphics/SVG/1.1/DTD/svg11.dtd">
<svg xmlns:xlink="http://www.w3.org/1999/xlink" width="864pt" height="648pt" viewBox="0 0 864 648" xmlns="http://www.w3.org/2000/svg" version="1.1">
 <metadata>
  <rdf:RDF xmlns:dc="http://purl.org/dc/elements/1.1/" xmlns:cc="http://creativecommons.org/ns#" xmlns:rdf="http://www.w3.org/1999/02/22-rdf-syntax-ns#">
   <cc:Work>
    <dc:type rdf:resource="http://purl.org/dc/dcmitype/StillImage"/>
    <dc:date>2022-03-18T13:36:09.999764</dc:date>
    <dc:format>image/svg+xml</dc:format>
    <dc:creator>
     <cc:Agent>
      <dc:title>Matplotlib v3.5.0, https://matplotlib.org/</dc:title>
     </cc:Agent>
    </dc:creator>
   </cc:Work>
  </rdf:RDF>
 </metadata>
 <defs>
  <style type="text/css">*{stroke-linejoin: round; stroke-linecap: butt}</style>
 </defs>
 <g id="figure_1">
  <g id="patch_1">
   <path d="M 0 648 
L 864 648 
L 864 0 
L 0 0 
z
" style="fill: #ffffff"/>
  </g>
  <g id="axes_1">
   <g id="patch_2">
    <path d="M 108 304.56 
L 777.6 304.56 
L 777.6 77.76 
L 108 77.76 
z
" style="fill: #eaeaf2"/>
   </g>
   <g id="matplotlib.axis_1">
    <g id="xtick_1">
     <g id="line2d_1"/>
     <g id="text_1">
      <!-- 0 -->
      <g style="fill: #262626" transform="translate(135.655895 318.806875)scale(0.1 -0.1)">
       <defs>
        <path id="LiberationSans-30" d="M 3309 2203 
Q 3309 1569 3189 1136 
Q 3069 703 2861 436 
Q 2653 169 2372 53 
Q 2091 -63 1772 -63 
Q 1450 -63 1172 53 
Q 894 169 689 434 
Q 484 700 367 1133 
Q 250 1566 250 2203 
Q 250 2869 367 3305 
Q 484 3741 690 4000 
Q 897 4259 1178 4364 
Q 1459 4469 1791 4469 
Q 2106 4469 2382 4364 
Q 2659 4259 2865 4000 
Q 3072 3741 3190 3305 
Q 3309 2869 3309 2203 
z
M 2738 2203 
Q 2738 2728 2675 3076 
Q 2613 3425 2491 3633 
Q 2369 3841 2192 3927 
Q 2016 4013 1791 4013 
Q 1553 4013 1372 3925 
Q 1191 3838 1067 3630 
Q 944 3422 881 3073 
Q 819 2725 819 2203 
Q 819 1697 883 1350 
Q 947 1003 1070 792 
Q 1194 581 1372 489 
Q 1550 397 1778 397 
Q 2000 397 2178 489 
Q 2356 581 2479 792 
Q 2603 1003 2670 1350 
Q 2738 1697 2738 2203 
z
" transform="scale(0.015625)"/>
       </defs>
       <use xlink:href="#LiberationSans-30"/>
      </g>
     </g>
    </g>
    <g id="xtick_2">
     <g id="line2d_2"/>
     <g id="text_2">
      <!-- 25 -->
      <g style="fill: #262626" transform="translate(209.348702 318.806875)scale(0.1 -0.1)">
       <defs>
        <path id="LiberationSans-32" d="M 322 0 
L 322 397 
Q 481 763 711 1042 
Q 941 1322 1194 1548 
Q 1447 1775 1695 1969 
Q 1944 2163 2144 2356 
Q 2344 2550 2467 2762 
Q 2591 2975 2591 3244 
Q 2591 3431 2534 3573 
Q 2478 3716 2372 3812 
Q 2266 3909 2117 3957 
Q 1969 4006 1788 4006 
Q 1619 4006 1470 3959 
Q 1322 3913 1206 3819 
Q 1091 3725 1017 3586 
Q 944 3447 922 3263 
L 347 3316 
Q 375 3553 478 3762 
Q 581 3972 762 4130 
Q 944 4288 1198 4378 
Q 1453 4469 1788 4469 
Q 2116 4469 2372 4391 
Q 2628 4313 2804 4159 
Q 2981 4006 3075 3781 
Q 3169 3556 3169 3263 
Q 3169 3041 3089 2841 
Q 3009 2641 2876 2459 
Q 2744 2278 2569 2109 
Q 2394 1941 2203 1780 
Q 2013 1619 1819 1461 
Q 1625 1303 1454 1143 
Q 1284 984 1150 820 
Q 1016 656 941 478 
L 3238 478 
L 3238 0 
L 322 0 
z
" transform="scale(0.015625)"/>
        <path id="LiberationSans-35" d="M 3291 1434 
Q 3291 1103 3191 828 
Q 3091 553 2894 354 
Q 2697 156 2405 46 
Q 2113 -63 1728 -63 
Q 1381 -63 1123 18 
Q 866 100 687 242 
Q 509 384 404 575 
Q 300 766 256 984 
L 825 1050 
Q 859 925 921 808 
Q 984 691 1092 598 
Q 1200 506 1358 451 
Q 1516 397 1741 397 
Q 1959 397 2137 464 
Q 2316 531 2442 662 
Q 2569 794 2637 984 
Q 2706 1175 2706 1422 
Q 2706 1625 2640 1795 
Q 2575 1966 2453 2089 
Q 2331 2213 2154 2281 
Q 1978 2350 1753 2350 
Q 1613 2350 1494 2325 
Q 1375 2300 1273 2256 
Q 1172 2213 1089 2155 
Q 1006 2097 934 2034 
L 384 2034 
L 531 4403 
L 3034 4403 
L 3034 3925 
L 1044 3925 
L 959 2528 
Q 1109 2644 1334 2726 
Q 1559 2809 1869 2809 
Q 2197 2809 2459 2709 
Q 2722 2609 2906 2426 
Q 3091 2244 3191 1991 
Q 3291 1738 3291 1434 
z
" transform="scale(0.015625)"/>
       </defs>
       <use xlink:href="#LiberationSans-32"/>
       <use xlink:href="#LiberationSans-35" x="55.615234"/>
      </g>
     </g>
    </g>
    <g id="xtick_3">
     <g id="line2d_3"/>
     <g id="text_3">
      <!-- 50 -->
      <g style="fill: #262626" transform="translate(285.821977 318.806875)scale(0.1 -0.1)">
       <use xlink:href="#LiberationSans-35"/>
       <use xlink:href="#LiberationSans-30" x="55.615234"/>
      </g>
     </g>
    </g>
    <g id="xtick_4">
     <g id="line2d_4"/>
     <g id="text_4">
      <!-- 75 -->
      <g style="fill: #262626" transform="translate(362.295253 318.806875)scale(0.1 -0.1)">
       <defs>
        <path id="LiberationSans-37" d="M 3238 3947 
Q 2906 3441 2628 2973 
Q 2350 2506 2150 2032 
Q 1950 1559 1839 1061 
Q 1728 563 1728 0 
L 1141 0 
Q 1141 528 1266 1036 
Q 1391 1544 1603 2033 
Q 1816 2522 2097 2994 
Q 2378 3466 2694 3925 
L 328 3925 
L 328 4403 
L 3238 4403 
L 3238 3947 
z
" transform="scale(0.015625)"/>
       </defs>
       <use xlink:href="#LiberationSans-37"/>
       <use xlink:href="#LiberationSans-35" x="55.615234"/>
      </g>
     </g>
    </g>
    <g id="xtick_5">
     <g id="line2d_5"/>
     <g id="text_5">
      <!-- 100 -->
      <g style="fill: #262626" transform="translate(435.988059 318.806875)scale(0.1 -0.1)">
       <defs>
        <path id="LiberationSans-31" d="M 488 0 
L 488 478 
L 1609 478 
L 1609 3866 
L 616 3156 
L 616 3688 
L 1656 4403 
L 2175 4403 
L 2175 478 
L 3247 478 
L 3247 0 
L 488 0 
z
" transform="scale(0.015625)"/>
       </defs>
       <use xlink:href="#LiberationSans-31"/>
       <use xlink:href="#LiberationSans-30" x="55.615234"/>
       <use xlink:href="#LiberationSans-30" x="111.230469"/>
      </g>
     </g>
    </g>
    <g id="xtick_6">
     <g id="line2d_6"/>
     <g id="text_6">
      <!-- 125 -->
      <g style="fill: #262626" transform="translate(512.461335 318.806875)scale(0.1 -0.1)">
       <use xlink:href="#LiberationSans-31"/>
       <use xlink:href="#LiberationSans-32" x="55.615234"/>
       <use xlink:href="#LiberationSans-35" x="111.230469"/>
      </g>
     </g>
    </g>
    <g id="xtick_7">
     <g id="line2d_7"/>
     <g id="text_7">
      <!-- 150 -->
      <g style="fill: #262626" transform="translate(588.93461 318.806875)scale(0.1 -0.1)">
       <use xlink:href="#LiberationSans-31"/>
       <use xlink:href="#LiberationSans-35" x="55.615234"/>
       <use xlink:href="#LiberationSans-30" x="111.230469"/>
      </g>
     </g>
    </g>
    <g id="xtick_8">
     <g id="line2d_8"/>
     <g id="text_8">
      <!-- 175 -->
      <g style="fill: #262626" transform="translate(665.407886 318.806875)scale(0.1 -0.1)">
       <use xlink:href="#LiberationSans-31"/>
       <use xlink:href="#LiberationSans-37" x="55.615234"/>
       <use xlink:href="#LiberationSans-35" x="111.230469"/>
      </g>
     </g>
    </g>
    <g id="xtick_9">
     <g id="line2d_9"/>
     <g id="text_9">
      <!-- 200 -->
      <g style="fill: #262626" transform="translate(741.881161 318.806875)scale(0.1 -0.1)">
       <use xlink:href="#LiberationSans-32"/>
       <use xlink:href="#LiberationSans-30" x="55.615234"/>
       <use xlink:href="#LiberationSans-30" x="111.230469"/>
      </g>
     </g>
    </g>
   </g>
   <g id="matplotlib.axis_2">
    <g id="ytick_1">
     <g id="line2d_10"/>
     <g id="text_10">
      <!-- 0.5 -->
      <g style="fill: #262626" transform="translate(87.1 270.326166)scale(0.1 -0.1)">
       <defs>
        <path id="LiberationSans-2e" d="M 584 0 
L 584 684 
L 1194 684 
L 1194 0 
L 584 0 
z
" transform="scale(0.015625)"/>
       </defs>
       <use xlink:href="#LiberationSans-30"/>
       <use xlink:href="#LiberationSans-2e" x="55.615234"/>
       <use xlink:href="#LiberationSans-35" x="83.398438"/>
      </g>
     </g>
    </g>
    <g id="ytick_2">
     <g id="line2d_11"/>
     <g id="text_11">
      <!-- 1.0 -->
      <g style="fill: #262626" transform="translate(87.1 221.037904)scale(0.1 -0.1)">
       <use xlink:href="#LiberationSans-31"/>
       <use xlink:href="#LiberationSans-2e" x="55.615234"/>
       <use xlink:href="#LiberationSans-30" x="83.398438"/>
      </g>
     </g>
    </g>
    <g id="ytick_3">
     <g id="line2d_12"/>
     <g id="text_12">
      <!-- 1.5 -->
      <g style="fill: #262626" transform="translate(87.1 171.749643)scale(0.1 -0.1)">
       <use xlink:href="#LiberationSans-31"/>
       <use xlink:href="#LiberationSans-2e" x="55.615234"/>
       <use xlink:href="#LiberationSans-35" x="83.398438"/>
      </g>
     </g>
    </g>
    <g id="ytick_4">
     <g id="line2d_13"/>
     <g id="text_13">
      <!-- 2.0 -->
      <g style="fill: #262626" transform="translate(87.1 122.461381)scale(0.1 -0.1)">
       <use xlink:href="#LiberationSans-32"/>
       <use xlink:href="#LiberationSans-2e" x="55.615234"/>
       <use xlink:href="#LiberationSans-30" x="83.398438"/>
      </g>
     </g>
    </g>
   </g>
   <g id="line2d_14">
    <path d="M 138.436364 88.069091 
L 141.495295 109.369995 
L 144.554226 118.661064 
L 147.613157 124.972606 
L 150.672088 132.213284 
L 153.731019 133.90243 
L 156.78995 140.476824 
L 159.848881 143.337651 
L 162.907812 145.530315 
L 165.966743 150.930807 
L 169.025674 159.473334 
L 172.084605 156.549427 
L 175.143536 163.240511 
L 178.202467 162.575626 
L 181.261398 163.81504 
L 184.320329 168.273413 
L 187.37926 169.054823 
L 190.438191 172.826594 
L 193.497122 171.132794 
L 196.556053 175.6903 
L 199.614984 175.568957 
L 202.673915 173.177216 
L 205.732846 181.035198 
L 208.791777 178.85371 
L 211.850708 180.617371 
L 214.909639 186.181018 
L 217.96857 185.823757 
L 221.027501 184.816064 
L 224.086432 187.466333 
L 227.145363 189.329233 
L 230.204294 188.562641 
L 233.263225 186.963568 
L 236.322156 190.349029 
L 239.381087 195.375738 
L 242.440018 196.131542 
L 245.498949 197.67086 
L 248.55788 194.666328 
L 251.616811 199.204044 
L 254.675742 202.262151 
L 257.734673 202.715902 
L 260.793604 201.594258 
L 263.852535 205.692925 
L 266.911466 207.581972 
L 269.970397 205.292184 
L 273.029328 206.633365 
L 276.088259 206.204844 
L 279.14719 206.748797 
L 282.206122 205.467125 
L 285.265053 211.365059 
L 288.323984 206.622283 
L 291.382915 208.285788 
L 294.441846 213.52872 
L 297.500777 214.774739 
L 300.559708 211.249356 
L 303.618639 212.965166 
L 306.67757 217.734964 
L 309.736501 214.211279 
L 312.795432 219.693237 
L 315.854363 220.982865 
L 318.913294 219.959661 
L 321.972225 222.445853 
L 325.031156 225.348315 
L 328.090087 225.690622 
L 331.149018 220.56535 
L 334.207949 226.406337 
L 340.325811 220.219611 
L 343.384742 220.488579 
L 346.443673 228.400552 
L 349.502604 219.991449 
L 352.561535 226.545014 
L 355.620466 229.006064 
L 358.679397 230.479258 
L 361.738328 230.079475 
L 364.797259 232.095558 
L 367.85619 230.389643 
L 370.915121 229.038121 
L 373.974052 234.211791 
L 377.032983 231.515981 
L 380.091914 230.963884 
L 383.150845 234.326477 
L 386.209776 233.678884 
L 389.268707 234.299426 
L 392.327638 236.26307 
L 395.386569 232.924614 
L 398.4455 238.289283 
L 401.504431 236.359765 
L 404.563362 238.983892 
L 407.622293 238.010414 
L 410.681224 243.066613 
L 413.740155 240.445065 
L 416.799086 243.960136 
L 419.858017 246.293086 
L 422.916948 240.825546 
L 425.975879 245.020133 
L 429.03481 246.531571 
L 432.093741 243.429121 
L 435.152672 241.711613 
L 438.211603 246.549239 
L 441.270534 248.516631 
L 444.329466 244.053893 
L 447.388397 249.052065 
L 450.447328 252.630781 
L 453.506259 246.700284 
L 456.56519 249.609702 
L 459.624121 251.2439 
L 462.683052 245.807636 
L 465.741983 254.327812 
L 468.800914 254.074955 
L 471.859845 251.194774 
L 474.918776 253.753312 
L 477.977707 254.822451 
L 481.036638 250.533038 
L 484.095569 255.5699 
L 487.1545 255.059961 
L 490.213431 255.876325 
L 493.272362 259.553517 
L 496.331293 253.294226 
L 499.390224 256.444045 
L 502.449155 258.555267 
L 505.508086 258.596896 
L 508.567017 257.134572 
L 511.625948 259.313639 
L 514.684879 259.68194 
L 517.74381 260.930732 
L 520.802741 261.832957 
L 523.861672 263.481632 
L 526.920603 264.32899 
L 529.979534 262.20459 
L 533.038465 262.093247 
L 536.097396 265.967618 
L 539.156327 266.128886 
L 542.215258 263.119829 
L 545.274189 263.838229 
L 548.33312 262.186922 
L 551.392051 264.019016 
L 554.450982 269.031204 
L 557.509913 268.391581 
L 560.568844 263.931675 
L 563.627775 264.453266 
L 566.686706 268.78377 
L 569.745637 270.920351 
L 572.804568 268.819553 
L 575.863499 268.936474 
L 578.92243 270.583234 
L 581.981361 270.419886 
L 585.040292 273.127212 
L 588.099223 273.531167 
L 591.158154 272.269158 
L 594.217085 273.936943 
L 597.276016 273.85048 
L 600.334947 274.692665 
L 603.393878 277.88171 
L 606.45281 273.56061 
L 609.511741 274.070558 
L 612.570672 275.962398 
L 615.629603 272.588069 
L 618.688534 274.735783 
L 621.747465 275.246874 
L 624.806396 277.124748 
L 627.865327 277.844726 
L 630.924258 280.66297 
L 633.983189 280.364526 
L 637.04212 279.153229 
L 640.101051 280.285226 
L 643.159982 277.751539 
L 646.218913 280.210482 
L 649.277844 281.090374 
L 652.336775 283.876951 
L 655.395706 283.020209 
L 658.454637 283.431385 
L 661.513568 281.070103 
L 664.572499 283.806998 
L 667.63143 279.944276 
L 670.690361 280.222762 
L 673.749292 283.20931 
L 676.808223 286.0275 
L 679.867154 285.418607 
L 682.926085 286.155275 
L 685.985016 284.007639 
L 689.043947 287.703315 
L 692.102878 286.604034 
L 695.161809 289.085907 
L 698.22074 284.496006 
L 701.279671 289.486924 
L 704.338602 288.111688 
L 707.397533 285.934968 
L 710.456464 288.728182 
L 713.515395 287.836739 
L 716.574326 291.026227 
L 719.633257 288.209367 
L 722.692188 288.737688 
L 725.751119 293.133162 
L 728.81005 290.030962 
L 731.868981 290.15846 
L 734.927912 293.271846 
L 737.986843 290.456791 
L 741.045774 294.250909 
L 744.104705 292.348553 
L 747.163636 292.531737 
L 747.163636 292.531737 
" clip-path="url(#pee12652329)" style="fill: none; stroke: #ff0000; stroke-width: 1.75; stroke-linecap: round"/>
   </g>
   <g id="line2d_15">
    <path d="M 138.436364 112.81205 
L 141.495295 124.853472 
L 147.613157 136.759156 
L 150.672088 141.591594 
L 153.731019 145.068515 
L 156.78995 150.650305 
L 159.848881 155.427959 
L 162.907812 156.424053 
L 165.966743 158.248456 
L 169.025674 165.048368 
L 172.084605 166.484275 
L 175.143536 168.337434 
L 178.202467 170.480589 
L 181.261398 173.195383 
L 184.320329 175.221849 
L 187.37926 173.541739 
L 190.438191 175.246362 
L 193.497122 177.953659 
L 196.556053 178.683058 
L 202.673915 181.741341 
L 205.732846 182.761255 
L 208.791777 185.494299 
L 211.850708 186.53171 
L 214.909639 184.460707 
L 217.96857 186.462154 
L 221.027501 189.317599 
L 224.086432 186.76429 
L 227.145363 192.036553 
L 230.204294 188.005303 
L 233.263225 193.235885 
L 236.322156 195.750285 
L 239.381087 196.801586 
L 242.440018 197.209178 
L 245.498949 196.908734 
L 248.55788 198.419732 
L 251.616811 200.626191 
L 254.675742 202.264948 
L 257.734673 197.990694 
L 260.793604 202.720884 
L 263.852535 202.775234 
L 266.911466 202.507435 
L 269.970397 204.656419 
L 273.029328 204.088376 
L 276.088259 205.578362 
L 279.14719 204.676866 
L 282.206122 205.33886 
L 285.265053 204.540105 
L 288.323984 204.706256 
L 291.382915 206.680934 
L 294.441846 208.831046 
L 297.500777 204.302565 
L 300.559708 210.495855 
L 303.618639 210.675367 
L 306.67757 210.261277 
L 309.736501 208.837497 
L 312.795432 209.353694 
L 315.854363 210.653733 
L 318.913294 211.390865 
L 321.972225 214.173734 
L 325.031156 214.352835 
L 328.090087 212.599491 
L 331.149018 212.282267 
L 334.207949 213.155043 
L 337.26688 215.266846 
L 340.325811 212.250186 
L 346.443673 215.682205 
L 349.502604 213.845992 
L 352.561535 212.519172 
L 355.620466 217.535604 
L 358.679397 216.628027 
L 361.738328 216.727325 
L 364.797259 216.553477 
L 367.85619 215.978654 
L 370.915121 219.86148 
L 373.974052 214.980539 
L 377.032983 216.341544 
L 380.091914 219.677673 
L 383.150845 218.417247 
L 386.209776 221.068132 
L 389.268707 220.46245 
L 392.327638 218.5915 
L 395.386569 219.813288 
L 398.4455 218.301627 
L 401.504431 220.26775 
L 404.563362 222.668939 
L 407.622293 220.874754 
L 410.681224 221.816081 
L 413.740155 220.751049 
L 416.799086 222.34263 
L 419.858017 220.161889 
L 422.916948 222.922037 
L 425.975879 222.478445 
L 429.03481 220.200585 
L 432.093741 222.773813 
L 435.152672 221.654578 
L 438.211603 221.269114 
L 441.270534 222.851071 
L 444.329466 223.13521 
L 447.388397 223.83445 
L 450.447328 216.126508 
L 453.506259 217.061507 
L 456.56519 225.702491 
L 459.624121 223.788743 
L 462.683052 222.815042 
L 465.741983 220.695659 
L 468.800914 222.692218 
L 471.859845 224.189002 
L 477.977707 224.426195 
L 484.095569 225.43545 
L 487.1545 221.350744 
L 490.213431 223.896508 
L 493.272362 224.2575 
L 496.331293 221.329615 
L 499.390224 221.542453 
L 502.449155 224.232923 
L 505.508086 225.497127 
L 508.567017 222.416857 
L 511.625948 223.885321 
L 514.684879 224.204291 
L 517.74381 226.568557 
L 520.802741 223.724206 
L 523.861672 227.271804 
L 526.920603 226.117486 
L 529.979534 226.153844 
L 533.038465 225.445738 
L 536.097396 223.680056 
L 539.156327 225.624169 
L 542.215258 225.407782 
L 545.274189 223.25311 
L 548.33312 218.49836 
L 551.392051 226.260458 
L 554.450982 226.542681 
L 557.509913 225.186718 
L 560.568844 224.587563 
L 563.627775 222.305996 
L 566.686706 226.396325 
L 569.745637 226.34167 
L 572.804568 225.115705 
L 575.863499 225.518972 
L 578.92243 226.227989 
L 581.981361 225.865246 
L 588.099223 225.508449 
L 591.158154 223.958584 
L 594.217085 226.108655 
L 597.276016 222.953013 
L 600.334947 227.746578 
L 603.393878 224.040831 
L 606.45281 219.890594 
L 609.511741 220.771831 
L 612.570672 225.40059 
L 615.629603 223.90293 
L 618.688534 222.898434 
L 621.747465 225.165959 
L 624.806396 228.622321 
L 627.865327 223.349453 
L 630.924258 214.642691 
L 633.983189 223.942097 
L 637.04212 220.727887 
L 640.101051 221.98034 
L 643.159982 227.209299 
L 646.218913 225.424997 
L 649.277844 225.789068 
L 652.336775 220.925819 
L 655.395706 224.360512 
L 658.454637 221.230705 
L 661.513568 224.841554 
L 664.572499 224.696955 
L 667.63143 217.9761 
L 670.690361 225.067948 
L 673.749292 222.356791 
L 676.808223 223.098176 
L 679.867154 221.60088 
L 682.926085 222.466118 
L 685.985016 222.482082 
L 689.043947 220.143157 
L 692.102878 223.930405 
L 695.161809 220.081393 
L 698.22074 223.381357 
L 701.279671 221.802208 
L 704.338602 219.138614 
L 707.397533 218.439228 
L 710.456464 211.243164 
L 713.515395 224.345764 
L 716.574326 218.536927 
L 719.633257 221.627567 
L 722.692188 218.467478 
L 725.751119 218.714712 
L 728.81005 218.042424 
L 731.868981 216.905333 
L 734.927912 220.164644 
L 737.986843 221.035464 
L 741.045774 218.974555 
L 744.104705 218.907015 
L 747.163636 217.20781 
L 747.163636 217.20781 
" clip-path="url(#pee12652329)" style="fill: none; stroke: #008000; stroke-width: 1.75; stroke-linecap: round"/>
   </g>
   <g id="patch_3">
    <path d="M 108 304.56 
L 108 77.76 
" style="fill: none"/>
   </g>
   <g id="patch_4">
    <path d="M 777.6 304.56 
L 777.6 77.76 
" style="fill: none"/>
   </g>
   <g id="patch_5">
    <path d="M 108 304.56 
L 777.6 304.56 
" style="fill: none"/>
   </g>
   <g id="patch_6">
    <path d="M 108 77.76 
L 777.6 77.76 
" style="fill: none"/>
   </g>
  </g>
  <g id="axes_2">
   <g id="patch_7">
    <path d="M 108 576.72 
L 777.6 576.72 
L 777.6 349.92 
L 108 349.92 
z
" style="fill: #eaeaf2"/>
   </g>
   <g id="matplotlib.axis_3">
    <g id="xtick_10">
     <g id="line2d_16"/>
     <g id="text_14">
      <!-- 0 -->
      <g style="fill: #262626" transform="translate(135.655895 590.966875)scale(0.1 -0.1)">
       <use xlink:href="#LiberationSans-30"/>
      </g>
     </g>
    </g>
    <g id="xtick_11">
     <g id="line2d_17"/>
     <g id="text_15">
      <!-- 25 -->
      <g style="fill: #262626" transform="translate(209.348702 590.966875)scale(0.1 -0.1)">
       <use xlink:href="#LiberationSans-32"/>
       <use xlink:href="#LiberationSans-35" x="55.615234"/>
      </g>
     </g>
    </g>
    <g id="xtick_12">
     <g id="line2d_18"/>
     <g id="text_16">
      <!-- 50 -->
      <g style="fill: #262626" transform="translate(285.821977 590.966875)scale(0.1 -0.1)">
       <use xlink:href="#LiberationSans-35"/>
       <use xlink:href="#LiberationSans-30" x="55.615234"/>
      </g>
     </g>
    </g>
    <g id="xtick_13">
     <g id="line2d_19"/>
     <g id="text_17">
      <!-- 75 -->
      <g style="fill: #262626" transform="translate(362.295253 590.966875)scale(0.1 -0.1)">
       <use xlink:href="#LiberationSans-37"/>
       <use xlink:href="#LiberationSans-35" x="55.615234"/>
      </g>
     </g>
    </g>
    <g id="xtick_14">
     <g id="line2d_20"/>
     <g id="text_18">
      <!-- 100 -->
      <g style="fill: #262626" transform="translate(435.988059 590.966875)scale(0.1 -0.1)">
       <use xlink:href="#LiberationSans-31"/>
       <use xlink:href="#LiberationSans-30" x="55.615234"/>
       <use xlink:href="#LiberationSans-30" x="111.230469"/>
      </g>
     </g>
    </g>
    <g id="xtick_15">
     <g id="line2d_21"/>
     <g id="text_19">
      <!-- 125 -->
      <g style="fill: #262626" transform="translate(512.461335 590.966875)scale(0.1 -0.1)">
       <use xlink:href="#LiberationSans-31"/>
       <use xlink:href="#LiberationSans-32" x="55.615234"/>
       <use xlink:href="#LiberationSans-35" x="111.230469"/>
      </g>
     </g>
    </g>
    <g id="xtick_16">
     <g id="line2d_22"/>
     <g id="text_20">
      <!-- 150 -->
      <g style="fill: #262626" transform="translate(588.93461 590.966875)scale(0.1 -0.1)">
       <use xlink:href="#LiberationSans-31"/>
       <use xlink:href="#LiberationSans-35" x="55.615234"/>
       <use xlink:href="#LiberationSans-30" x="111.230469"/>
      </g>
     </g>
    </g>
    <g id="xtick_17">
     <g id="line2d_23"/>
     <g id="text_21">
      <!-- 175 -->
      <g style="fill: #262626" transform="translate(665.407886 590.966875)scale(0.1 -0.1)">
       <use xlink:href="#LiberationSans-31"/>
       <use xlink:href="#LiberationSans-37" x="55.615234"/>
       <use xlink:href="#LiberationSans-35" x="111.230469"/>
      </g>
     </g>
    </g>
    <g id="xtick_18">
     <g id="line2d_24"/>
     <g id="text_22">
      <!-- 200 -->
      <g style="fill: #262626" transform="translate(741.881161 590.966875)scale(0.1 -0.1)">
       <use xlink:href="#LiberationSans-32"/>
       <use xlink:href="#LiberationSans-30" x="55.615234"/>
       <use xlink:href="#LiberationSans-30" x="111.230469"/>
      </g>
     </g>
    </g>
   </g>
   <g id="matplotlib.axis_4">
    <g id="ytick_5">
     <g id="line2d_25"/>
     <g id="text_23">
      <!-- 0.2 -->
      <g style="fill: #262626" transform="translate(87.1 577.303033)scale(0.1 -0.1)">
       <use xlink:href="#LiberationSans-30"/>
       <use xlink:href="#LiberationSans-2e" x="55.615234"/>
       <use xlink:href="#LiberationSans-32" x="83.398438"/>
      </g>
     </g>
    </g>
    <g id="ytick_6">
     <g id="line2d_26"/>
     <g id="text_24">
      <!-- 0.3 -->
      <g style="fill: #262626" transform="translate(87.1 548.341417)scale(0.1 -0.1)">
       <defs>
        <path id="LiberationSans-33" d="M 3278 1216 
Q 3278 913 3179 675 
Q 3081 438 2892 273 
Q 2703 109 2423 23 
Q 2144 -63 1784 -63 
Q 1375 -63 1095 39 
Q 816 141 634 308 
Q 453 475 362 689 
Q 272 903 244 1131 
L 825 1184 
Q 850 1009 917 865 
Q 984 722 1100 619 
Q 1216 516 1384 459 
Q 1553 403 1784 403 
Q 2209 403 2451 612 
Q 2694 822 2694 1234 
Q 2694 1478 2586 1626 
Q 2478 1775 2317 1858 
Q 2156 1941 1967 1969 
Q 1778 1997 1619 1997 
L 1300 1997 
L 1300 2484 
L 1606 2484 
Q 1766 2484 1937 2517 
Q 2109 2550 2251 2636 
Q 2394 2722 2486 2869 
Q 2578 3016 2578 3244 
Q 2578 3597 2370 3801 
Q 2163 4006 1753 4006 
Q 1381 4006 1151 3815 
Q 922 3625 884 3278 
L 319 3322 
Q 353 3613 478 3828 
Q 603 4044 795 4186 
Q 988 4328 1234 4398 
Q 1481 4469 1759 4469 
Q 2128 4469 2393 4376 
Q 2659 4284 2828 4126 
Q 2997 3969 3076 3756 
Q 3156 3544 3156 3303 
Q 3156 3109 3103 2940 
Q 3050 2772 2937 2637 
Q 2825 2503 2651 2406 
Q 2478 2309 2234 2259 
L 2234 2247 
Q 2500 2219 2697 2126 
Q 2894 2034 3022 1896 
Q 3150 1759 3214 1584 
Q 3278 1409 3278 1216 
z
" transform="scale(0.015625)"/>
       </defs>
       <use xlink:href="#LiberationSans-30"/>
       <use xlink:href="#LiberationSans-2e" x="55.615234"/>
       <use xlink:href="#LiberationSans-33" x="83.398438"/>
      </g>
     </g>
    </g>
    <g id="ytick_7">
     <g id="line2d_27"/>
     <g id="text_25">
      <!-- 0.4 -->
      <g style="fill: #262626" transform="translate(87.1 519.379801)scale(0.1 -0.1)">
       <defs>
        <path id="LiberationSans-34" d="M 2753 997 
L 2753 0 
L 2222 0 
L 2222 997 
L 147 997 
L 147 1434 
L 2163 4403 
L 2753 4403 
L 2753 1441 
L 3372 1441 
L 3372 997 
L 2753 997 
z
M 2222 3769 
Q 2216 3753 2191 3708 
Q 2166 3663 2134 3606 
Q 2103 3550 2070 3492 
Q 2038 3434 2013 3397 
L 884 1734 
Q 869 1709 839 1668 
Q 809 1628 778 1586 
Q 747 1544 715 1503 
Q 684 1463 666 1441 
L 2222 1441 
L 2222 3769 
z
" transform="scale(0.015625)"/>
       </defs>
       <use xlink:href="#LiberationSans-30"/>
       <use xlink:href="#LiberationSans-2e" x="55.615234"/>
       <use xlink:href="#LiberationSans-34" x="83.398438"/>
      </g>
     </g>
    </g>
    <g id="ytick_8">
     <g id="line2d_28"/>
     <g id="text_26">
      <!-- 0.5 -->
      <g style="fill: #262626" transform="translate(87.1 490.418185)scale(0.1 -0.1)">
       <use xlink:href="#LiberationSans-30"/>
       <use xlink:href="#LiberationSans-2e" x="55.615234"/>
       <use xlink:href="#LiberationSans-35" x="83.398438"/>
      </g>
     </g>
    </g>
    <g id="ytick_9">
     <g id="line2d_29"/>
     <g id="text_27">
      <!-- 0.6 -->
      <g style="fill: #262626" transform="translate(87.1 461.456569)scale(0.1 -0.1)">
       <defs>
        <path id="LiberationSans-36" d="M 3278 1441 
Q 3278 1109 3186 832 
Q 3094 556 2914 357 
Q 2734 159 2468 48 
Q 2203 -63 1856 -63 
Q 1472 -63 1184 84 
Q 897 231 706 507 
Q 516 784 420 1186 
Q 325 1588 325 2100 
Q 325 2688 433 3131 
Q 541 3575 744 3872 
Q 947 4169 1239 4319 
Q 1531 4469 1900 4469 
Q 2125 4469 2322 4422 
Q 2519 4375 2680 4270 
Q 2841 4166 2962 3994 
Q 3084 3822 3156 3572 
L 2619 3475 
Q 2531 3759 2339 3886 
Q 2147 4013 1894 4013 
Q 1663 4013 1475 3903 
Q 1288 3794 1156 3576 
Q 1025 3359 954 3031 
Q 884 2703 884 2266 
Q 1038 2550 1316 2698 
Q 1594 2847 1953 2847 
Q 2253 2847 2497 2750 
Q 2741 2653 2914 2470 
Q 3088 2288 3183 2027 
Q 3278 1766 3278 1441 
z
M 2706 1416 
Q 2706 1644 2650 1828 
Q 2594 2013 2481 2142 
Q 2369 2272 2203 2342 
Q 2038 2413 1819 2413 
Q 1666 2413 1509 2367 
Q 1353 2322 1226 2220 
Q 1100 2119 1020 1953 
Q 941 1788 941 1550 
Q 941 1306 1003 1095 
Q 1066 884 1183 728 
Q 1300 572 1465 481 
Q 1631 391 1838 391 
Q 2041 391 2202 461 
Q 2363 531 2475 664 
Q 2588 797 2647 987 
Q 2706 1178 2706 1416 
z
" transform="scale(0.015625)"/>
       </defs>
       <use xlink:href="#LiberationSans-30"/>
       <use xlink:href="#LiberationSans-2e" x="55.615234"/>
       <use xlink:href="#LiberationSans-36" x="83.398438"/>
      </g>
     </g>
    </g>
    <g id="ytick_10">
     <g id="line2d_30"/>
     <g id="text_28">
      <!-- 0.7 -->
      <g style="fill: #262626" transform="translate(87.1 432.494953)scale(0.1 -0.1)">
       <use xlink:href="#LiberationSans-30"/>
       <use xlink:href="#LiberationSans-2e" x="55.615234"/>
       <use xlink:href="#LiberationSans-37" x="83.398438"/>
      </g>
     </g>
    </g>
    <g id="ytick_11">
     <g id="line2d_31"/>
     <g id="text_29">
      <!-- 0.8 -->
      <g style="fill: #262626" transform="translate(87.1 403.533336)scale(0.1 -0.1)">
       <defs>
        <path id="LiberationSans-38" d="M 3281 1228 
Q 3281 947 3192 711 
Q 3103 475 2920 303 
Q 2738 131 2453 34 
Q 2169 -63 1781 -63 
Q 1394 -63 1111 34 
Q 828 131 642 301 
Q 456 472 367 708 
Q 278 944 278 1222 
Q 278 1463 351 1650 
Q 425 1838 548 1973 
Q 672 2109 830 2192 
Q 988 2275 1156 2303 
L 1156 2316 
Q 972 2359 826 2456 
Q 681 2553 582 2689 
Q 484 2825 432 2990 
Q 381 3156 381 3341 
Q 381 3572 470 3776 
Q 559 3981 734 4136 
Q 909 4291 1168 4380 
Q 1428 4469 1769 4469 
Q 2128 4469 2392 4378 
Q 2656 4288 2829 4133 
Q 3003 3978 3087 3772 
Q 3172 3566 3172 3334 
Q 3172 3153 3120 2987 
Q 3069 2822 2970 2686 
Q 2872 2550 2726 2454 
Q 2581 2359 2391 2322 
L 2391 2309 
Q 2581 2278 2743 2195 
Q 2906 2113 3025 1977 
Q 3144 1841 3212 1653 
Q 3281 1466 3281 1228 
z
M 2588 3303 
Q 2588 3469 2545 3606 
Q 2503 3744 2406 3842 
Q 2309 3941 2153 3995 
Q 1997 4050 1769 4050 
Q 1547 4050 1394 3995 
Q 1241 3941 1142 3842 
Q 1044 3744 1000 3606 
Q 956 3469 956 3303 
Q 956 3172 990 3034 
Q 1025 2897 1115 2784 
Q 1206 2672 1365 2600 
Q 1525 2528 1775 2528 
Q 2041 2528 2202 2600 
Q 2363 2672 2448 2784 
Q 2534 2897 2561 3034 
Q 2588 3172 2588 3303 
z
M 2697 1281 
Q 2697 1441 2653 1589 
Q 2609 1738 2503 1852 
Q 2397 1966 2217 2036 
Q 2038 2106 1769 2106 
Q 1522 2106 1348 2036 
Q 1175 1966 1067 1850 
Q 959 1734 909 1582 
Q 859 1431 859 1269 
Q 859 1066 909 898 
Q 959 731 1068 611 
Q 1178 491 1356 425 
Q 1534 359 1788 359 
Q 2044 359 2219 425 
Q 2394 491 2500 611 
Q 2606 731 2651 901 
Q 2697 1072 2697 1281 
z
" transform="scale(0.015625)"/>
       </defs>
       <use xlink:href="#LiberationSans-30"/>
       <use xlink:href="#LiberationSans-2e" x="55.615234"/>
       <use xlink:href="#LiberationSans-38" x="83.398438"/>
      </g>
     </g>
    </g>
    <g id="ytick_12">
     <g id="line2d_32"/>
     <g id="text_30">
      <!-- 0.9 -->
      <g style="fill: #262626" transform="translate(87.1 374.57172)scale(0.1 -0.1)">
       <defs>
        <path id="LiberationSans-39" d="M 3256 2291 
Q 3256 1703 3145 1261 
Q 3034 819 2828 525 
Q 2622 231 2326 84 
Q 2031 -63 1663 -63 
Q 1409 -63 1206 -11 
Q 1003 41 843 150 
Q 684 259 571 434 
Q 459 609 391 856 
L 928 941 
Q 1016 656 1202 523 
Q 1388 391 1672 391 
Q 1900 391 2089 498 
Q 2278 606 2411 822 
Q 2544 1038 2619 1363 
Q 2694 1688 2700 2125 
Q 2634 1978 2520 1862 
Q 2406 1747 2261 1667 
Q 2116 1588 1947 1545 
Q 1778 1503 1606 1503 
Q 1306 1503 1064 1611 
Q 822 1719 653 1912 
Q 484 2106 392 2379 
Q 300 2653 300 2988 
Q 300 3328 398 3603 
Q 497 3878 684 4070 
Q 872 4263 1145 4366 
Q 1419 4469 1766 4469 
Q 2500 4469 2878 3925 
Q 3256 3381 3256 2291 
z
M 2644 2834 
Q 2644 3078 2586 3293 
Q 2528 3509 2414 3668 
Q 2300 3828 2133 3920 
Q 1966 4013 1747 4013 
Q 1544 4013 1381 3941 
Q 1219 3869 1106 3736 
Q 994 3603 933 3412 
Q 872 3222 872 2988 
Q 872 2766 926 2575 
Q 981 2384 1090 2245 
Q 1200 2106 1362 2026 
Q 1525 1947 1741 1947 
Q 1897 1947 2058 2000 
Q 2219 2053 2348 2162 
Q 2478 2272 2561 2439 
Q 2644 2606 2644 2834 
z
" transform="scale(0.015625)"/>
       </defs>
       <use xlink:href="#LiberationSans-30"/>
       <use xlink:href="#LiberationSans-2e" x="55.615234"/>
       <use xlink:href="#LiberationSans-39" x="83.398438"/>
      </g>
     </g>
    </g>
   </g>
   <g id="line2d_33">
    <path d="M 138.436364 566.410909 
L 141.495295 549.865455 
L 144.554226 538.693737 
L 147.613157 532.754343 
L 150.672088 520.875556 
L 153.731019 524.693737 
L 156.78995 511.825051 
L 159.848881 512.107879 
L 162.907812 508.996768 
L 165.966743 498.249293 
L 169.025674 492.592727 
L 172.084605 501.784646 
L 175.143536 489.198788 
L 178.202467 486.794747 
L 181.261398 488.633131 
L 184.320329 483.966465 
L 187.37926 484.249293 
L 190.438191 476.895758 
L 193.497122 484.107879 
L 196.556053 477.461414 
L 199.614984 479.582626 
L 202.673915 481.138182 
L 205.732846 474.067475 
L 208.791777 472.794747 
L 211.850708 470.814949 
L 214.909639 465.158384 
L 217.96857 468.693737 
L 224.086432 468.410909 
L 227.145363 465.158384 
L 230.204294 466.006869 
L 233.263225 465.299798 
L 236.322156 466.855354 
L 239.381087 456.532121 
L 242.440018 462.047273 
L 245.498949 455.966465 
L 248.55788 461.481616 
L 251.616811 454.693737 
L 254.675742 453.42101 
L 257.734673 456.673535 
L 260.793604 452.572525 
L 263.852535 450.027071 
L 266.911466 444.794747 
L 269.970397 449.037172 
L 273.029328 446.491717 
L 276.088259 451.299798 
L 279.14719 453.986667 
L 282.206122 446.91596 
L 285.265053 447.340202 
L 288.323984 448.471515 
L 291.382915 443.804848 
L 294.441846 436.451313 
L 297.500777 440.976566 
L 300.559708 444.794747 
L 303.618639 443.663434 
L 306.67757 439.42101 
L 309.736501 440.269495 
L 312.795432 435.32 
L 315.854363 434.330101 
L 318.913294 434.330101 
L 321.972225 433.198788 
L 325.031156 429.804848 
L 328.090087 429.380606 
L 331.149018 435.178586 
L 334.207949 426.410909 
L 337.26688 435.178586 
L 340.325811 437.299798 
L 343.384742 435.461414 
L 346.443673 430.653333 
L 349.502604 434.895758 
L 352.561535 428.532121 
L 355.620466 425.703838 
L 358.679397 425.845253 
L 361.738328 425.138182 
L 364.797259 423.582626 
L 367.85619 425.845253 
L 370.915121 427.259394 
L 373.974052 423.441212 
L 377.032983 424.713939 
L 380.091914 427.966465 
L 383.150845 421.461414 
L 386.209776 417.784646 
L 389.268707 419.764444 
L 392.327638 421.602828 
L 395.386569 421.461414 
L 398.4455 418.91596 
L 401.504431 421.602828 
L 404.563362 417.21899 
L 407.622293 420.047273 
L 410.681224 415.52202 
L 413.740155 415.52202 
L 416.799086 411.279596 
L 419.858017 412.410909 
L 422.916948 412.269495 
L 425.975879 411.845253 
L 429.03481 408.309899 
L 432.093741 411.279596 
L 435.152672 412.269495 
L 438.211603 407.885657 
L 441.270534 409.158384 
L 444.329466 412.128081 
L 447.388397 407.885657 
L 450.447328 403.077576 
L 453.506259 408.875556 
L 456.56519 407.037172 
L 459.624121 401.239192 
L 462.683052 410.713939 
L 465.741983 404.350303 
L 468.800914 399.400808 
L 471.859845 405.057374 
L 474.918776 403.077576 
L 477.977707 401.663434 
L 481.036638 404.208889 
L 484.095569 402.653333 
L 487.1545 404.067475 
L 490.213431 398.976566 
L 493.272362 397.138182 
L 496.331293 402.511919 
L 499.390224 399.825051 
L 502.449155 398.693737 
L 505.508086 396.431111 
L 508.567017 401.097778 
L 511.625948 397.562424 
L 514.684879 399.825051 
L 517.74381 398.976566 
L 520.802741 392.047273 
L 523.861672 393.602828 
L 526.920603 388.936162 
L 529.979534 392.471515 
L 533.038465 394.451313 
L 536.097396 388.229091 
L 539.156327 391.62303 
L 542.215258 392.895758 
L 545.274189 393.037172 
L 548.33312 392.330101 
L 551.392051 389.077576 
L 554.450982 388.511919 
L 557.509913 386.956364 
L 560.568844 390.91596 
L 563.627775 391.905859 
L 566.686706 389.21899 
L 569.745637 384.552323 
L 572.804568 389.077576 
L 575.863499 389.077576 
L 578.92243 387.239192 
L 581.981361 387.663434 
L 585.040292 383.703838 
L 588.099223 382.148283 
L 591.158154 380.875556 
L 594.217085 380.309899 
L 597.276016 381.72404 
L 600.334947 382.572525 
L 603.393878 376.633131 
L 606.45281 382.148283 
L 609.511741 382.289697 
L 612.570672 380.309899 
L 615.629603 383.42101 
L 618.688534 378.330101 
L 621.747465 380.875556 
L 624.806396 379.744242 
L 627.865327 375.643232 
L 630.924258 375.926061 
L 633.983189 377.057374 
L 637.04212 376.633131 
L 640.101051 375.077576 
L 643.159982 377.764444 
L 646.218913 376.208889 
L 649.277844 372.956364 
L 652.336775 372.107879 
L 658.454637 372.673535 
L 661.513568 373.663434 
L 664.572499 371.825051 
L 667.63143 373.52202 
L 670.690361 376.633131 
L 673.749292 375.360404 
L 676.808223 370.552323 
L 679.867154 372.249293 
L 682.926085 369.138182 
L 685.985016 371.825051 
L 689.043947 368.148283 
L 692.102878 373.097778 
L 695.161809 368.996768 
L 698.22074 370.693737 
L 701.279671 365.178586 
L 704.338602 368.855354 
L 707.397533 370.269495 
L 710.456464 366.451313 
L 713.515395 367.865455 
L 716.574326 365.885657 
L 719.633257 368.572525 
L 722.692188 367.441212 
L 725.751119 363.198788 
L 728.81005 366.027071 
L 731.868981 367.299798 
L 734.927912 362.208889 
L 737.986843 365.037172 
L 741.045774 360.229091 
L 744.104705 366.309899 
L 747.163636 363.62303 
L 747.163636 363.62303 
" clip-path="url(#pcb2eb98fba)" style="fill: none; stroke: #ff0000; stroke-width: 1.75; stroke-linecap: round"/>
   </g>
   <g id="line2d_34">
    <path d="M 138.436364 540.078006 
L 141.495295 534.571218 
L 144.554226 524.373467 
L 147.613157 513.359891 
L 150.672088 508.362993 
L 153.731019 511.932207 
L 159.848881 495.6158 
L 162.907812 493.117351 
L 165.966743 495.819756 
L 169.025674 488.885284 
L 172.084605 486.182879 
L 175.143536 488.987262 
L 178.202467 480.523137 
L 181.261398 479.197414 
L 184.320329 478.177651 
L 187.37926 479.911269 
L 190.438191 477.51479 
L 193.497122 476.138091 
L 196.556053 477.820732 
L 199.614984 473.741628 
L 202.673915 471.957017 
L 205.732846 471.804054 
L 208.791777 470.98823 
L 211.850708 468.693737 
L 214.909639 471.600098 
L 217.96857 470.325386 
L 221.027501 465.889363 
L 224.086432 469.203619 
L 227.145363 464.002765 
L 230.204294 467.011113 
L 233.263225 460.076641 
L 236.322156 462.626083 
L 239.381087 460.484553 
L 242.440018 458.648949 
L 245.498949 460.637516 
L 248.55788 455.538632 
L 251.616811 455.283699 
L 254.675742 453.703044 
L 257.734673 459.872685 
L 260.793604 452.989207 
L 263.852535 454.161933 
L 266.911466 452.734257 
L 269.970397 451.510521 
L 273.029328 451.86744 
L 276.088259 450.388771 
L 279.14719 451.255589 
L 282.206122 452.836227 
L 285.265053 452.581295 
L 288.323984 453.142169 
L 291.382915 447.992309 
L 294.441846 445.493843 
L 297.500777 453.907 
L 300.559708 445.238911 
L 303.618639 446.003742 
L 306.67757 445.799786 
L 309.736501 447.227461 
L 312.795432 446.513623 
L 315.854363 444.525073 
L 318.913294 443.19935 
L 321.972225 441.261776 
L 325.031156 440.19102 
L 328.090087 443.760225 
L 331.149018 444.830999 
L 334.207949 442.128594 
L 337.26688 441.669688 
L 340.325811 445.034955 
L 343.384742 443.505293 
L 346.443673 440.700901 
L 349.502604 442.281556 
L 352.561535 445.187917 
L 355.620466 438.661358 
L 358.679397 440.038057 
L 361.738328 438.967283 
L 364.797259 440.853881 
L 367.85619 440.904857 
L 370.915121 437.335652 
L 373.974052 442.33255 
L 377.032983 440.19102 
L 380.091914 437.386645 
L 383.150845 440.649925 
L 386.209776 436.009946 
L 389.268707 436.621815 
L 392.327638 437.743564 
L 395.386569 437.080703 
L 398.4455 440.038057 
L 401.504431 435.551041 
L 404.563362 434.990166 
L 407.622293 434.123366 
L 410.681224 436.162909 
L 413.740155 434.939173 
L 416.799086 435.245115 
L 419.858017 437.335652 
L 422.916948 434.990166 
L 425.975879 434.072372 
L 429.03481 438.406409 
L 432.093741 433.511497 
L 435.152672 436.060922 
L 438.211603 434.939173 
L 441.270534 433.460504 
L 444.329466 434.684241 
L 447.388397 430.860069 
L 450.447328 438.967283 
L 453.506259 440.292989 
L 456.56519 431.369967 
L 459.624121 431.828856 
L 462.683052 432.083805 
L 465.741983 436.570821 
L 468.800914 434.888197 
L 471.859845 432.695673 
L 474.918776 429.63635 
L 477.977707 431.981836 
L 481.036638 431.267981 
L 484.095569 431.828856 
L 487.1545 435.347085 
L 490.213431 431.471937 
L 493.272362 431.624917 
L 496.331293 433.256548 
L 499.390224 436.876747 
L 502.449155 431.471937 
L 505.508086 431.52293 
L 508.567017 433.205555 
L 511.625948 431.013049 
L 514.684879 430.452174 
L 517.74381 429.534363 
L 520.802741 432.032812 
L 523.861672 429.687343 
L 526.920603 431.064025 
L 529.979534 428.463606 
L 533.038465 432.134798 
L 536.097396 433.460504 
L 539.156327 429.228437 
L 542.215258 430.350187 
L 545.274189 431.930842 
L 548.33312 431.828856 
L 551.392051 428.208657 
L 557.509913 431.318974 
L 560.568844 431.013049 
L 563.627775 431.166011 
L 566.686706 427.800745 
L 569.745637 428.565576 
L 572.804568 431.77788 
L 575.863499 430.860069 
L 578.92243 428.5146 
L 581.981361 430.299194 
L 585.040292 427.851738 
L 588.099223 428.106688 
L 591.158154 430.299194 
L 594.217085 427.647782 
L 597.276016 433.154579 
L 600.334947 426.475039 
L 603.393878 429.993268 
L 606.45281 429.228437 
L 609.511741 432.185792 
L 612.570672 428.25965 
L 615.629603 429.432393 
L 618.688534 431.369967 
L 621.747465 429.585356 
L 624.806396 426.882951 
L 627.865327 428.616569 
L 630.924258 437.845534 
L 633.983189 428.5146 
L 637.04212 427.800745 
L 640.101051 430.299194 
L 643.159982 426.628002 
L 646.218913 427.749769 
L 649.277844 425.761202 
L 652.336775 428.667563 
L 655.395706 426.577026 
L 658.454637 428.25965 
L 661.513568 426.016151 
L 664.572499 426.526032 
L 667.63143 428.565576 
L 670.690361 426.933945 
L 673.749292 428.871519 
L 676.808223 426.984938 
L 679.867154 425.914164 
L 682.926085 428.973488 
L 685.985016 429.279431 
L 689.043947 430.197224 
L 692.102878 427.341857 
L 695.161809 426.271083 
L 698.22074 427.443826 
L 701.279671 426.628002 
L 704.338602 426.933945 
L 707.397533 429.63635 
L 710.456464 436.825753 
L 713.515395 426.984938 
L 716.574326 428.055694 
L 719.633257 428.25965 
L 722.692188 430.197224 
L 725.751119 428.667563 
L 728.81005 427.851738 
L 731.868981 429.126451 
L 734.927912 426.526032 
L 737.986843 425.812195 
L 741.045774 425.659215 
L 744.104705 426.933945 
L 747.163636 429.432393 
L 747.163636 429.432393 
" clip-path="url(#pcb2eb98fba)" style="fill: none; stroke: #008000; stroke-width: 1.75; stroke-linecap: round"/>
   </g>
   <g id="patch_8">
    <path d="M 108 576.72 
L 108 349.92 
" style="fill: none"/>
   </g>
   <g id="patch_9">
    <path d="M 777.6 576.72 
L 777.6 349.92 
" style="fill: none"/>
   </g>
   <g id="patch_10">
    <path d="M 108 576.72 
L 777.6 576.72 
" style="fill: none"/>
   </g>
   <g id="patch_11">
    <path d="M 108 349.92 
L 777.6 349.92 
" style="fill: none"/>
   </g>
  </g>
  <g id="text_31">
   <!-- Plots of model performance: mel_spectrogram, baseline - lr 1e-05, batch 16, 128 steps/epoch -->
   <g style="fill: #262626" transform="translate(183.885938 21.65625)scale(0.12 -0.12)">
    <defs>
     <path id="LiberationSans-50" d="M 3931 3078 
Q 3931 2791 3836 2542 
Q 3741 2294 3552 2111 
Q 3363 1928 3078 1822 
Q 2794 1716 2416 1716 
L 1122 1716 
L 1122 0 
L 525 0 
L 525 4403 
L 2378 4403 
Q 2769 4403 3059 4308 
Q 3350 4213 3544 4039 
Q 3738 3866 3834 3620 
Q 3931 3375 3931 3078 
z
M 3331 3072 
Q 3331 3491 3075 3708 
Q 2819 3925 2306 3925 
L 1122 3925 
L 1122 2188 
L 2331 2188 
Q 2847 2188 3089 2416 
Q 3331 2644 3331 3072 
z
" transform="scale(0.015625)"/>
     <path id="LiberationSans-6c" d="M 431 0 
L 431 4638 
L 994 4638 
L 994 0 
L 431 0 
z
" transform="scale(0.015625)"/>
     <path id="LiberationSans-6f" d="M 3291 1694 
Q 3291 806 2900 371 
Q 2509 -63 1766 -63 
Q 1413 -63 1134 43 
Q 856 150 664 369 
Q 472 588 370 917 
Q 269 1247 269 1694 
Q 269 3444 1784 3444 
Q 2178 3444 2464 3334 
Q 2750 3225 2933 3006 
Q 3116 2788 3203 2459 
Q 3291 2131 3291 1694 
z
M 2700 1694 
Q 2700 2088 2639 2344 
Q 2578 2600 2461 2753 
Q 2344 2906 2175 2967 
Q 2006 3028 1794 3028 
Q 1578 3028 1404 2964 
Q 1231 2900 1109 2745 
Q 988 2591 923 2334 
Q 859 2078 859 1694 
Q 859 1300 928 1042 
Q 997 784 1117 631 
Q 1238 478 1402 415 
Q 1566 353 1759 353 
Q 1975 353 2150 414 
Q 2325 475 2447 628 
Q 2569 781 2634 1040 
Q 2700 1300 2700 1694 
z
" transform="scale(0.015625)"/>
     <path id="LiberationSans-74" d="M 1731 25 
Q 1603 -9 1470 -29 
Q 1338 -50 1163 -50 
Q 488 -50 488 716 
L 488 2972 
L 97 2972 
L 97 3381 
L 509 3381 
L 675 4138 
L 1050 4138 
L 1050 3381 
L 1675 3381 
L 1675 2972 
L 1050 2972 
L 1050 838 
Q 1050 594 1129 495 
Q 1209 397 1406 397 
Q 1488 397 1564 409 
Q 1641 422 1731 441 
L 1731 25 
z
" transform="scale(0.015625)"/>
     <path id="LiberationSans-73" d="M 2969 934 
Q 2969 697 2876 511 
Q 2784 325 2609 198 
Q 2434 72 2179 4 
Q 1925 -63 1597 -63 
Q 1303 -63 1067 -17 
Q 831 28 653 128 
Q 475 228 354 392 
Q 234 556 178 794 
L 675 891 
Q 747 619 972 492 
Q 1197 366 1597 366 
Q 1778 366 1929 391 
Q 2081 416 2190 477 
Q 2300 538 2361 639 
Q 2422 741 2422 891 
Q 2422 1044 2350 1142 
Q 2278 1241 2150 1306 
Q 2022 1372 1839 1420 
Q 1656 1469 1438 1528 
Q 1234 1581 1034 1647 
Q 834 1713 673 1820 
Q 513 1928 413 2087 
Q 313 2247 313 2488 
Q 313 2950 642 3192 
Q 972 3434 1603 3434 
Q 2163 3434 2492 3237 
Q 2822 3041 2909 2606 
L 2403 2544 
Q 2375 2675 2300 2764 
Q 2225 2853 2119 2908 
Q 2013 2963 1880 2986 
Q 1747 3009 1603 3009 
Q 1222 3009 1040 2893 
Q 859 2778 859 2544 
Q 859 2406 926 2317 
Q 994 2228 1114 2167 
Q 1234 2106 1403 2061 
Q 1572 2016 1775 1966 
Q 1909 1931 2050 1892 
Q 2191 1853 2323 1798 
Q 2456 1744 2573 1670 
Q 2691 1597 2778 1494 
Q 2866 1391 2917 1253 
Q 2969 1116 2969 934 
z
" transform="scale(0.015625)"/>
     <path id="LiberationSans-20" transform="scale(0.015625)"/>
     <path id="LiberationSans-66" d="M 1128 2972 
L 1128 0 
L 566 0 
L 566 2972 
L 91 2972 
L 91 3381 
L 566 3381 
L 566 3763 
Q 566 3947 600 4105 
Q 634 4263 726 4380 
Q 819 4497 978 4564 
Q 1138 4631 1391 4631 
Q 1491 4631 1598 4622 
Q 1706 4613 1788 4594 
L 1788 4166 
Q 1734 4175 1664 4183 
Q 1594 4191 1538 4191 
Q 1413 4191 1333 4156 
Q 1253 4122 1208 4058 
Q 1163 3994 1145 3900 
Q 1128 3806 1128 3684 
L 1128 3381 
L 1788 3381 
L 1788 2972 
L 1128 2972 
z
" transform="scale(0.015625)"/>
     <path id="LiberationSans-6d" d="M 2400 0 
L 2400 2144 
Q 2400 2391 2369 2556 
Q 2338 2722 2264 2823 
Q 2191 2925 2072 2967 
Q 1953 3009 1781 3009 
Q 1603 3009 1459 2939 
Q 1316 2869 1214 2736 
Q 1113 2603 1058 2408 
Q 1003 2213 1003 1959 
L 1003 0 
L 444 0 
L 444 2659 
Q 444 2766 442 2883 
Q 441 3000 437 3104 
Q 434 3209 431 3284 
Q 428 3359 425 3381 
L 956 3381 
Q 959 3366 962 3297 
Q 966 3228 970 3139 
Q 975 3050 978 2958 
Q 981 2866 981 2803 
L 991 2803 
Q 1066 2950 1153 3069 
Q 1241 3188 1358 3270 
Q 1475 3353 1626 3398 
Q 1778 3444 1978 3444 
Q 2363 3444 2586 3291 
Q 2809 3138 2897 2803 
L 2906 2803 
Q 2981 2950 3075 3069 
Q 3169 3188 3294 3270 
Q 3419 3353 3575 3398 
Q 3731 3444 3931 3444 
Q 4188 3444 4373 3375 
Q 4559 3306 4678 3162 
Q 4797 3019 4853 2792 
Q 4909 2566 4909 2253 
L 4909 0 
L 4353 0 
L 4353 2144 
Q 4353 2391 4322 2556 
Q 4291 2722 4217 2823 
Q 4144 2925 4025 2967 
Q 3906 3009 3734 3009 
Q 3556 3009 3412 2942 
Q 3269 2875 3167 2744 
Q 3066 2613 3011 2416 
Q 2956 2219 2956 1959 
L 2956 0 
L 2400 0 
z
" transform="scale(0.015625)"/>
     <path id="LiberationSans-64" d="M 2566 544 
Q 2409 219 2151 78 
Q 1894 -63 1513 -63 
Q 872 -63 570 368 
Q 269 800 269 1675 
Q 269 3444 1513 3444 
Q 1897 3444 2153 3303 
Q 2409 3163 2566 2856 
L 2572 2856 
Q 2572 2888 2570 2955 
Q 2569 3022 2567 3095 
Q 2566 3169 2566 3234 
Q 2566 3300 2566 3328 
L 2566 4638 
L 3128 4638 
L 3128 697 
Q 3128 575 3129 462 
Q 3131 350 3134 256 
Q 3138 163 3141 95 
Q 3144 28 3147 0 
L 2609 0 
Q 2603 31 2598 89 
Q 2594 147 2589 222 
Q 2584 297 2581 380 
Q 2578 463 2578 544 
L 2566 544 
z
M 859 1694 
Q 859 1344 903 1094 
Q 947 844 1044 683 
Q 1141 522 1291 447 
Q 1441 372 1656 372 
Q 1878 372 2048 444 
Q 2219 516 2333 677 
Q 2447 838 2506 1097 
Q 2566 1356 2566 1731 
Q 2566 2091 2506 2339 
Q 2447 2588 2331 2741 
Q 2216 2894 2048 2961 
Q 1881 3028 1663 3028 
Q 1456 3028 1306 2956 
Q 1156 2884 1056 2725 
Q 956 2566 907 2311 
Q 859 2056 859 1694 
z
" transform="scale(0.015625)"/>
     <path id="LiberationSans-65" d="M 863 1572 
Q 863 1306 917 1082 
Q 972 859 1086 698 
Q 1200 538 1378 448 
Q 1556 359 1806 359 
Q 2172 359 2392 506 
Q 2613 653 2691 878 
L 3184 738 
Q 3131 597 3036 455 
Q 2941 313 2781 198 
Q 2622 84 2383 10 
Q 2144 -63 1806 -63 
Q 1056 -63 664 384 
Q 272 831 272 1713 
Q 272 2188 390 2517 
Q 509 2847 715 3053 
Q 922 3259 1197 3351 
Q 1472 3444 1784 3444 
Q 2209 3444 2495 3306 
Q 2781 3169 2954 2926 
Q 3128 2684 3201 2356 
Q 3275 2028 3275 1647 
L 3275 1572 
L 863 1572 
z
M 2694 2003 
Q 2647 2538 2422 2783 
Q 2197 3028 1775 3028 
Q 1634 3028 1479 2983 
Q 1325 2938 1194 2822 
Q 1063 2706 972 2507 
Q 881 2309 869 2003 
L 2694 2003 
z
" transform="scale(0.015625)"/>
     <path id="LiberationSans-70" d="M 3291 1706 
Q 3291 1322 3228 997 
Q 3166 672 3020 437 
Q 2875 203 2636 70 
Q 2397 -63 2047 -63 
Q 1684 -63 1412 75 
Q 1141 213 997 525 
L 981 525 
Q 984 519 986 469 
Q 988 419 989 344 
Q 991 269 992 176 
Q 994 84 994 -6 
L 994 -1328 
L 431 -1328 
L 431 2691 
Q 431 2813 429 2925 
Q 428 3038 425 3130 
Q 422 3222 419 3287 
Q 416 3353 413 3381 
L 956 3381 
Q 959 3372 964 3315 
Q 969 3259 973 3179 
Q 978 3100 983 3009 
Q 988 2919 988 2838 
L 1000 2838 
Q 1078 3000 1178 3114 
Q 1278 3228 1406 3301 
Q 1534 3375 1692 3408 
Q 1850 3441 2047 3441 
Q 2397 3441 2636 3316 
Q 2875 3191 3020 2964 
Q 3166 2738 3228 2417 
Q 3291 2097 3291 1706 
z
M 2700 1694 
Q 2700 2006 2662 2250 
Q 2625 2494 2533 2662 
Q 2441 2831 2287 2918 
Q 2134 3006 1903 3006 
Q 1716 3006 1550 2953 
Q 1384 2900 1261 2750 
Q 1138 2600 1066 2336 
Q 994 2072 994 1650 
Q 994 1291 1053 1042 
Q 1113 794 1227 641 
Q 1341 488 1509 420 
Q 1678 353 1897 353 
Q 2131 353 2286 443 
Q 2441 534 2533 706 
Q 2625 878 2662 1126 
Q 2700 1375 2700 1694 
z
" transform="scale(0.015625)"/>
     <path id="LiberationSans-72" d="M 444 0 
L 444 2594 
Q 444 2700 442 2811 
Q 441 2922 437 3025 
Q 434 3128 431 3218 
Q 428 3309 425 3381 
L 956 3381 
Q 959 3309 964 3217 
Q 969 3125 973 3028 
Q 978 2931 979 2842 
Q 981 2753 981 2691 
L 994 2691 
Q 1053 2884 1120 3026 
Q 1188 3169 1278 3261 
Q 1369 3353 1494 3398 
Q 1619 3444 1797 3444 
Q 1866 3444 1928 3433 
Q 1991 3422 2025 3413 
L 2025 2897 
Q 1969 2913 1894 2920 
Q 1819 2928 1725 2928 
Q 1531 2928 1395 2840 
Q 1259 2753 1173 2598 
Q 1088 2444 1047 2230 
Q 1006 2016 1006 1763 
L 1006 0 
L 444 0 
z
" transform="scale(0.015625)"/>
     <path id="LiberationSans-61" d="M 1294 -63 
Q 784 -63 528 206 
Q 272 475 272 944 
Q 272 1278 398 1492 
Q 525 1706 729 1828 
Q 934 1950 1196 1997 
Q 1459 2044 1731 2050 
L 2491 2063 
L 2491 2247 
Q 2491 2456 2447 2603 
Q 2403 2750 2312 2840 
Q 2222 2931 2086 2973 
Q 1950 3016 1766 3016 
Q 1603 3016 1472 2992 
Q 1341 2969 1244 2908 
Q 1147 2847 1087 2742 
Q 1028 2638 1009 2478 
L 422 2531 
Q 453 2731 540 2898 
Q 628 3066 789 3187 
Q 950 3309 1192 3376 
Q 1434 3444 1778 3444 
Q 2416 3444 2737 3151 
Q 3059 2859 3059 2306 
L 3059 850 
Q 3059 600 3125 473 
Q 3191 347 3375 347 
Q 3422 347 3469 353 
Q 3516 359 3559 369 
L 3559 19 
Q 3453 -6 3348 -18 
Q 3244 -31 3125 -31 
Q 2966 -31 2852 11 
Q 2738 53 2666 139 
Q 2594 225 2556 351 
Q 2519 478 2509 647 
L 2491 647 
Q 2400 484 2292 353 
Q 2184 222 2040 130 
Q 1897 38 1714 -12 
Q 1531 -63 1294 -63 
z
M 1422 359 
Q 1691 359 1892 457 
Q 2094 556 2226 709 
Q 2359 863 2425 1044 
Q 2491 1225 2491 1391 
L 2491 1669 
L 1875 1656 
Q 1669 1653 1483 1626 
Q 1297 1600 1156 1522 
Q 1016 1444 933 1303 
Q 850 1163 850 934 
Q 850 659 998 509 
Q 1147 359 1422 359 
z
" transform="scale(0.015625)"/>
     <path id="LiberationSans-6e" d="M 2578 0 
L 2578 2144 
Q 2578 2391 2542 2556 
Q 2506 2722 2425 2823 
Q 2344 2925 2211 2967 
Q 2078 3009 1881 3009 
Q 1681 3009 1520 2939 
Q 1359 2869 1245 2736 
Q 1131 2603 1068 2408 
Q 1006 2213 1006 1959 
L 1006 0 
L 444 0 
L 444 2659 
Q 444 2766 442 2883 
Q 441 3000 437 3104 
Q 434 3209 431 3284 
Q 428 3359 425 3381 
L 956 3381 
Q 959 3366 962 3297 
Q 966 3228 970 3139 
Q 975 3050 978 2958 
Q 981 2866 981 2803 
L 991 2803 
Q 1072 2950 1169 3069 
Q 1266 3188 1394 3270 
Q 1522 3353 1687 3398 
Q 1853 3444 2072 3444 
Q 2353 3444 2556 3375 
Q 2759 3306 2890 3162 
Q 3022 3019 3083 2792 
Q 3144 2566 3144 2253 
L 3144 0 
L 2578 0 
z
" transform="scale(0.015625)"/>
     <path id="LiberationSans-63" d="M 859 1706 
Q 859 1416 901 1172 
Q 944 928 1044 751 
Q 1144 575 1308 478 
Q 1472 381 1713 381 
Q 2013 381 2214 543 
Q 2416 706 2463 1044 
L 3031 1006 
Q 3003 797 2909 603 
Q 2816 409 2655 262 
Q 2494 116 2262 26 
Q 2031 -63 1728 -63 
Q 1331 -63 1053 71 
Q 775 206 601 442 
Q 428 678 350 998 
Q 272 1319 272 1694 
Q 272 2034 328 2295 
Q 384 2556 486 2751 
Q 588 2947 725 3080 
Q 863 3213 1023 3292 
Q 1184 3372 1362 3408 
Q 1541 3444 1722 3444 
Q 2006 3444 2228 3366 
Q 2450 3288 2611 3152 
Q 2772 3016 2872 2831 
Q 2972 2647 3013 2434 
L 2434 2391 
Q 2391 2672 2212 2837 
Q 2034 3003 1706 3003 
Q 1466 3003 1305 2923 
Q 1144 2844 1044 2683 
Q 944 2522 901 2278 
Q 859 2034 859 1706 
z
" transform="scale(0.015625)"/>
     <path id="LiberationSans-3a" d="M 584 2734 
L 584 3381 
L 1194 3381 
L 1194 2734 
L 584 2734 
z
M 584 0 
L 584 647 
L 1194 647 
L 1194 0 
L 584 0 
z
" transform="scale(0.015625)"/>
     <path id="LiberationSans-5f" d="M -97 -1272 
L -97 -866 
L 3631 -866 
L 3631 -1272 
L -97 -1272 
z
" transform="scale(0.015625)"/>
     <path id="LiberationSans-67" d="M 1713 -1328 
Q 1422 -1328 1197 -1268 
Q 972 -1209 812 -1098 
Q 653 -988 553 -834 
Q 453 -681 409 -494 
L 975 -413 
Q 1031 -647 1223 -773 
Q 1416 -900 1728 -900 
Q 1919 -900 2075 -847 
Q 2231 -794 2340 -676 
Q 2450 -559 2509 -371 
Q 2569 -184 2569 84 
L 2569 628 
L 2563 628 
Q 2500 500 2408 383 
Q 2316 266 2183 175 
Q 2050 84 1875 29 
Q 1700 -25 1475 -25 
Q 1153 -25 923 83 
Q 694 191 548 406 
Q 403 622 336 942 
Q 269 1263 269 1684 
Q 269 2091 336 2416 
Q 403 2741 554 2967 
Q 706 3194 948 3314 
Q 1191 3434 1538 3434 
Q 1897 3434 2161 3270 
Q 2425 3106 2569 2803 
L 2575 2803 
Q 2575 2881 2579 2978 
Q 2584 3075 2589 3161 
Q 2594 3247 2600 3309 
Q 2606 3372 2613 3381 
L 3147 3381 
Q 3144 3353 3141 3286 
Q 3138 3219 3134 3125 
Q 3131 3031 3129 2917 
Q 3128 2803 3128 2681 
L 3128 97 
Q 3128 -613 2779 -970 
Q 2431 -1328 1713 -1328 
z
M 2569 1691 
Q 2569 2044 2492 2295 
Q 2416 2547 2291 2706 
Q 2166 2866 2005 2941 
Q 1844 3016 1675 3016 
Q 1459 3016 1304 2941 
Q 1150 2866 1048 2705 
Q 947 2544 898 2292 
Q 850 2041 850 1691 
Q 850 1325 898 1076 
Q 947 828 1047 675 
Q 1147 522 1300 456 
Q 1453 391 1666 391 
Q 1834 391 1995 462 
Q 2156 534 2284 690 
Q 2413 847 2491 1094 
Q 2569 1341 2569 1691 
z
" transform="scale(0.015625)"/>
     <path id="LiberationSans-2c" d="M 1203 684 
L 1203 159 
Q 1203 -6 1189 -142 
Q 1175 -278 1144 -395 
Q 1113 -513 1067 -616 
Q 1022 -719 959 -819 
L 575 -819 
Q 716 -616 792 -409 
Q 869 -203 869 0 
L 594 0 
L 594 684 
L 1203 684 
z
" transform="scale(0.015625)"/>
     <path id="LiberationSans-62" d="M 3291 1706 
Q 3291 -63 2047 -63 
Q 1663 -63 1408 76 
Q 1153 216 994 525 
L 988 525 
Q 988 444 983 356 
Q 978 269 973 194 
Q 969 119 964 66 
Q 959 13 956 0 
L 413 0 
Q 416 28 419 95 
Q 422 163 425 256 
Q 428 350 429 462 
Q 431 575 431 697 
L 431 4638 
L 994 4638 
L 994 3316 
Q 994 3222 992 3136 
Q 991 3050 988 2984 
Q 984 2906 981 2838 
L 994 2838 
Q 1150 3163 1408 3303 
Q 1666 3444 2047 3444 
Q 2688 3444 2989 3012 
Q 3291 2581 3291 1706 
z
M 2700 1688 
Q 2700 2038 2656 2288 
Q 2613 2538 2516 2698 
Q 2419 2859 2269 2934 
Q 2119 3009 1903 3009 
Q 1681 3009 1511 2937 
Q 1341 2866 1227 2706 
Q 1113 2547 1053 2287 
Q 994 2028 994 1653 
Q 994 1291 1053 1044 
Q 1113 797 1227 642 
Q 1341 488 1509 420 
Q 1678 353 1897 353 
Q 2103 353 2253 425 
Q 2403 497 2503 656 
Q 2603 816 2651 1070 
Q 2700 1325 2700 1688 
z
" transform="scale(0.015625)"/>
     <path id="LiberationSans-69" d="M 428 4100 
L 428 4638 
L 991 4638 
L 991 4100 
L 428 4100 
z
M 428 0 
L 428 3381 
L 991 3381 
L 991 0 
L 428 0 
z
" transform="scale(0.015625)"/>
     <path id="LiberationSans-2d" d="M 284 1450 
L 284 1950 
L 1847 1950 
L 1847 1450 
L 284 1450 
z
" transform="scale(0.015625)"/>
     <path id="LiberationSans-68" d="M 991 2803 
Q 1084 2975 1193 3095 
Q 1303 3216 1434 3294 
Q 1566 3372 1722 3408 
Q 1878 3444 2072 3444 
Q 2397 3444 2605 3356 
Q 2813 3269 2933 3111 
Q 3053 2953 3098 2734 
Q 3144 2516 3144 2253 
L 3144 0 
L 2578 0 
L 2578 2144 
Q 2578 2359 2551 2521 
Q 2525 2684 2450 2792 
Q 2375 2900 2237 2954 
Q 2100 3009 1881 3009 
Q 1681 3009 1520 2937 
Q 1359 2866 1245 2734 
Q 1131 2603 1068 2415 
Q 1006 2228 1006 1994 
L 1006 0 
L 444 0 
L 444 4638 
L 1006 4638 
L 1006 3431 
Q 1006 3328 1003 3225 
Q 1000 3122 995 3034 
Q 991 2947 987 2886 
Q 984 2825 981 2803 
L 991 2803 
z
" transform="scale(0.015625)"/>
     <path id="LiberationSans-2f" d="M 0 -63 
L 1284 4638 
L 1778 4638 
L 506 -63 
L 0 -63 
z
" transform="scale(0.015625)"/>
    </defs>
    <use xlink:href="#LiberationSans-50"/>
    <use xlink:href="#LiberationSans-6c" x="66.699219"/>
    <use xlink:href="#LiberationSans-6f" x="88.916016"/>
    <use xlink:href="#LiberationSans-74" x="144.53125"/>
    <use xlink:href="#LiberationSans-73" x="172.314453"/>
    <use xlink:href="#LiberationSans-20" x="222.314453"/>
    <use xlink:href="#LiberationSans-6f" x="250.097656"/>
    <use xlink:href="#LiberationSans-66" x="305.712891"/>
    <use xlink:href="#LiberationSans-20" x="333.496094"/>
    <use xlink:href="#LiberationSans-6d" x="361.279297"/>
    <use xlink:href="#LiberationSans-6f" x="444.580078"/>
    <use xlink:href="#LiberationSans-64" x="500.195312"/>
    <use xlink:href="#LiberationSans-65" x="555.810547"/>
    <use xlink:href="#LiberationSans-6c" x="611.425781"/>
    <use xlink:href="#LiberationSans-20" x="633.642578"/>
    <use xlink:href="#LiberationSans-70" x="661.425781"/>
    <use xlink:href="#LiberationSans-65" x="717.041016"/>
    <use xlink:href="#LiberationSans-72" x="772.65625"/>
    <use xlink:href="#LiberationSans-66" x="805.957031"/>
    <use xlink:href="#LiberationSans-6f" x="833.740234"/>
    <use xlink:href="#LiberationSans-72" x="889.355469"/>
    <use xlink:href="#LiberationSans-6d" x="922.65625"/>
    <use xlink:href="#LiberationSans-61" x="1005.957031"/>
    <use xlink:href="#LiberationSans-6e" x="1061.572266"/>
    <use xlink:href="#LiberationSans-63" x="1117.1875"/>
    <use xlink:href="#LiberationSans-65" x="1167.1875"/>
    <use xlink:href="#LiberationSans-3a" x="1222.802734"/>
    <use xlink:href="#LiberationSans-20" x="1250.585938"/>
    <use xlink:href="#LiberationSans-6d" x="1278.369141"/>
    <use xlink:href="#LiberationSans-65" x="1361.669922"/>
    <use xlink:href="#LiberationSans-6c" x="1417.285156"/>
    <use xlink:href="#LiberationSans-5f" x="1439.501953"/>
    <use xlink:href="#LiberationSans-73" x="1495.117188"/>
    <use xlink:href="#LiberationSans-70" x="1545.117188"/>
    <use xlink:href="#LiberationSans-65" x="1600.732422"/>
    <use xlink:href="#LiberationSans-63" x="1656.347656"/>
    <use xlink:href="#LiberationSans-74" x="1706.347656"/>
    <use xlink:href="#LiberationSans-72" x="1734.130859"/>
    <use xlink:href="#LiberationSans-6f" x="1767.431641"/>
    <use xlink:href="#LiberationSans-67" x="1823.046875"/>
    <use xlink:href="#LiberationSans-72" x="1878.662109"/>
    <use xlink:href="#LiberationSans-61" x="1911.962891"/>
    <use xlink:href="#LiberationSans-6d" x="1967.578125"/>
    <use xlink:href="#LiberationSans-2c" x="2050.878906"/>
    <use xlink:href="#LiberationSans-20" x="2078.662109"/>
    <use xlink:href="#LiberationSans-62" x="2106.445312"/>
    <use xlink:href="#LiberationSans-61" x="2162.060547"/>
    <use xlink:href="#LiberationSans-73" x="2217.675781"/>
    <use xlink:href="#LiberationSans-65" x="2267.675781"/>
    <use xlink:href="#LiberationSans-6c" x="2323.291016"/>
    <use xlink:href="#LiberationSans-69" x="2345.507812"/>
    <use xlink:href="#LiberationSans-6e" x="2367.724609"/>
    <use xlink:href="#LiberationSans-65" x="2423.339844"/>
    <use xlink:href="#LiberationSans-20" x="2478.955078"/>
    <use xlink:href="#LiberationSans-2d" x="2506.738281"/>
    <use xlink:href="#LiberationSans-20" x="2540.039062"/>
    <use xlink:href="#LiberationSans-6c" x="2567.822266"/>
    <use xlink:href="#LiberationSans-72" x="2590.039062"/>
    <use xlink:href="#LiberationSans-20" x="2623.339844"/>
    <use xlink:href="#LiberationSans-31" x="2651.123047"/>
    <use xlink:href="#LiberationSans-65" x="2706.738281"/>
    <use xlink:href="#LiberationSans-2d" x="2762.353516"/>
    <use xlink:href="#LiberationSans-30" x="2795.654297"/>
    <use xlink:href="#LiberationSans-35" x="2851.269531"/>
    <use xlink:href="#LiberationSans-2c" x="2906.884766"/>
    <use xlink:href="#LiberationSans-20" x="2934.667969"/>
    <use xlink:href="#LiberationSans-62" x="2962.451172"/>
    <use xlink:href="#LiberationSans-61" x="3018.066406"/>
    <use xlink:href="#LiberationSans-74" x="3073.681641"/>
    <use xlink:href="#LiberationSans-63" x="3101.464844"/>
    <use xlink:href="#LiberationSans-68" x="3151.464844"/>
    <use xlink:href="#LiberationSans-20" x="3207.080078"/>
    <use xlink:href="#LiberationSans-31" x="3234.863281"/>
    <use xlink:href="#LiberationSans-36" x="3290.478516"/>
    <use xlink:href="#LiberationSans-2c" x="3346.09375"/>
    <use xlink:href="#LiberationSans-20" x="3373.876953"/>
    <use xlink:href="#LiberationSans-31" x="3401.660156"/>
    <use xlink:href="#LiberationSans-32" x="3457.275391"/>
    <use xlink:href="#LiberationSans-38" x="3512.890625"/>
    <use xlink:href="#LiberationSans-20" x="3568.505859"/>
    <use xlink:href="#LiberationSans-73" x="3596.289062"/>
    <use xlink:href="#LiberationSans-74" x="3646.289062"/>
    <use xlink:href="#LiberationSans-65" x="3674.072266"/>
    <use xlink:href="#LiberationSans-70" x="3729.6875"/>
    <use xlink:href="#LiberationSans-73" x="3785.302734"/>
    <use xlink:href="#LiberationSans-2f" x="3835.302734"/>
    <use xlink:href="#LiberationSans-65" x="3863.085938"/>
    <use xlink:href="#LiberationSans-70" x="3918.701172"/>
    <use xlink:href="#LiberationSans-6f" x="3974.316406"/>
    <use xlink:href="#LiberationSans-63" x="4029.931641"/>
    <use xlink:href="#LiberationSans-68" x="4079.931641"/>
   </g>
  </g>
 </g>
 <defs>
  <clipPath id="pee12652329">
   <rect x="108" y="77.76" width="669.6" height="226.8"/>
  </clipPath>
  <clipPath id="pcb2eb98fba">
   <rect x="108" y="349.92" width="669.6" height="226.8"/>
  </clipPath>
 </defs>
</svg>
