<?xml version="1.0" encoding="utf-8" standalone="no"?>
<!DOCTYPE svg PUBLIC "-//W3C//DTD SVG 1.1//EN"
  "http://www.w3.org/Graphics/SVG/1.1/DTD/svg11.dtd">
<svg xmlns:xlink="http://www.w3.org/1999/xlink" width="864pt" height="648pt" viewBox="0 0 864 648" xmlns="http://www.w3.org/2000/svg" version="1.1">
 <metadata>
  <rdf:RDF xmlns:dc="http://purl.org/dc/elements/1.1/" xmlns:cc="http://creativecommons.org/ns#" xmlns:rdf="http://www.w3.org/1999/02/22-rdf-syntax-ns#">
   <cc:Work>
    <dc:type rdf:resource="http://purl.org/dc/dcmitype/StillImage"/>
    <dc:date>2022-06-08T17:15:41.789042</dc:date>
    <dc:format>image/svg+xml</dc:format>
    <dc:creator>
     <cc:Agent>
      <dc:title>Matplotlib v3.5.1, https://matplotlib.org/</dc:title>
     </cc:Agent>
    </dc:creator>
   </cc:Work>
  </rdf:RDF>
 </metadata>
 <defs>
  <style type="text/css">*{stroke-linejoin: round; stroke-linecap: butt}</style>
 </defs>
 <g id="figure_1">
  <g id="patch_1">
   <path d="M 0 648 
L 864 648 
L 864 0 
L 0 0 
z
" style="fill: #ffffff"/>
  </g>
  <g id="axes_1">
   <g id="patch_2">
    <path d="M 108 304.56 
L 777.6 304.56 
L 777.6 77.76 
L 108 77.76 
z
" style="fill: #eaeaf2"/>
   </g>
   <g id="matplotlib.axis_1">
    <g id="xtick_1">
     <g id="line2d_1"/>
     <g id="text_1">
      <!-- 0 -->
      <g style="fill: #262626" transform="translate(135.655895 318.717812)scale(0.1 -0.1)">
       <defs>
        <path id="ArialMT-30" d="M 266 2259 
Q 266 3072 433 3567 
Q 600 4063 929 4331 
Q 1259 4600 1759 4600 
Q 2128 4600 2406 4451 
Q 2684 4303 2865 4023 
Q 3047 3744 3150 3342 
Q 3253 2941 3253 2259 
Q 3253 1453 3087 958 
Q 2922 463 2592 192 
Q 2263 -78 1759 -78 
Q 1097 -78 719 397 
Q 266 969 266 2259 
z
M 844 2259 
Q 844 1131 1108 757 
Q 1372 384 1759 384 
Q 2147 384 2411 759 
Q 2675 1134 2675 2259 
Q 2675 3391 2411 3762 
Q 2147 4134 1753 4134 
Q 1366 4134 1134 3806 
Q 844 3388 844 2259 
z
" transform="scale(0.015625)"/>
       </defs>
       <use xlink:href="#ArialMT-30"/>
      </g>
     </g>
    </g>
    <g id="xtick_2">
     <g id="line2d_2"/>
     <g id="text_2">
      <!-- 20 -->
      <g style="fill: #262626" transform="translate(255.850633 318.717812)scale(0.1 -0.1)">
       <defs>
        <path id="ArialMT-32" d="M 3222 541 
L 3222 0 
L 194 0 
Q 188 203 259 391 
Q 375 700 629 1000 
Q 884 1300 1366 1694 
Q 2113 2306 2375 2664 
Q 2638 3022 2638 3341 
Q 2638 3675 2398 3904 
Q 2159 4134 1775 4134 
Q 1369 4134 1125 3890 
Q 881 3647 878 3216 
L 300 3275 
Q 359 3922 746 4261 
Q 1134 4600 1788 4600 
Q 2447 4600 2831 4234 
Q 3216 3869 3216 3328 
Q 3216 3053 3103 2787 
Q 2991 2522 2730 2228 
Q 2469 1934 1863 1422 
Q 1356 997 1212 845 
Q 1069 694 975 541 
L 3222 541 
z
" transform="scale(0.015625)"/>
       </defs>
       <use xlink:href="#ArialMT-32"/>
       <use xlink:href="#ArialMT-30" x="55.615234"/>
      </g>
     </g>
    </g>
    <g id="xtick_3">
     <g id="line2d_3"/>
     <g id="text_3">
      <!-- 40 -->
      <g style="fill: #262626" transform="translate(378.825839 318.717812)scale(0.1 -0.1)">
       <defs>
        <path id="ArialMT-34" d="M 2069 0 
L 2069 1097 
L 81 1097 
L 81 1613 
L 2172 4581 
L 2631 4581 
L 2631 1613 
L 3250 1613 
L 3250 1097 
L 2631 1097 
L 2631 0 
L 2069 0 
z
M 2069 1613 
L 2069 3678 
L 634 1613 
L 2069 1613 
z
" transform="scale(0.015625)"/>
       </defs>
       <use xlink:href="#ArialMT-34"/>
       <use xlink:href="#ArialMT-30" x="55.615234"/>
      </g>
     </g>
    </g>
    <g id="xtick_4">
     <g id="line2d_4"/>
     <g id="text_4">
      <!-- 60 -->
      <g style="fill: #262626" transform="translate(501.801046 318.717812)scale(0.1 -0.1)">
       <defs>
        <path id="ArialMT-36" d="M 3184 3459 
L 2625 3416 
Q 2550 3747 2413 3897 
Q 2184 4138 1850 4138 
Q 1581 4138 1378 3988 
Q 1113 3794 959 3422 
Q 806 3050 800 2363 
Q 1003 2672 1297 2822 
Q 1591 2972 1913 2972 
Q 2475 2972 2870 2558 
Q 3266 2144 3266 1488 
Q 3266 1056 3080 686 
Q 2894 316 2569 119 
Q 2244 -78 1831 -78 
Q 1128 -78 684 439 
Q 241 956 241 2144 
Q 241 3472 731 4075 
Q 1159 4600 1884 4600 
Q 2425 4600 2770 4297 
Q 3116 3994 3184 3459 
z
M 888 1484 
Q 888 1194 1011 928 
Q 1134 663 1356 523 
Q 1578 384 1822 384 
Q 2178 384 2434 671 
Q 2691 959 2691 1453 
Q 2691 1928 2437 2201 
Q 2184 2475 1800 2475 
Q 1419 2475 1153 2201 
Q 888 1928 888 1484 
z
" transform="scale(0.015625)"/>
       </defs>
       <use xlink:href="#ArialMT-36"/>
       <use xlink:href="#ArialMT-30" x="55.615234"/>
      </g>
     </g>
    </g>
    <g id="xtick_5">
     <g id="line2d_5"/>
     <g id="text_5">
      <!-- 80 -->
      <g style="fill: #262626" transform="translate(624.776253 318.717812)scale(0.1 -0.1)">
       <defs>
        <path id="ArialMT-38" d="M 1131 2484 
Q 781 2613 612 2850 
Q 444 3088 444 3419 
Q 444 3919 803 4259 
Q 1163 4600 1759 4600 
Q 2359 4600 2725 4251 
Q 3091 3903 3091 3403 
Q 3091 3084 2923 2848 
Q 2756 2613 2416 2484 
Q 2838 2347 3058 2040 
Q 3278 1734 3278 1309 
Q 3278 722 2862 322 
Q 2447 -78 1769 -78 
Q 1091 -78 675 323 
Q 259 725 259 1325 
Q 259 1772 486 2073 
Q 713 2375 1131 2484 
z
M 1019 3438 
Q 1019 3113 1228 2906 
Q 1438 2700 1772 2700 
Q 2097 2700 2305 2904 
Q 2513 3109 2513 3406 
Q 2513 3716 2298 3927 
Q 2084 4138 1766 4138 
Q 1444 4138 1231 3931 
Q 1019 3725 1019 3438 
z
M 838 1322 
Q 838 1081 952 856 
Q 1066 631 1291 507 
Q 1516 384 1775 384 
Q 2178 384 2440 643 
Q 2703 903 2703 1303 
Q 2703 1709 2433 1975 
Q 2163 2241 1756 2241 
Q 1359 2241 1098 1978 
Q 838 1716 838 1322 
z
" transform="scale(0.015625)"/>
       </defs>
       <use xlink:href="#ArialMT-38"/>
       <use xlink:href="#ArialMT-30" x="55.615234"/>
      </g>
     </g>
    </g>
    <g id="xtick_6">
     <g id="line2d_6"/>
     <g id="text_6">
      <!-- 100 -->
      <g style="fill: #262626" transform="translate(744.97099 318.717812)scale(0.1 -0.1)">
       <defs>
        <path id="ArialMT-31" d="M 2384 0 
L 1822 0 
L 1822 3584 
Q 1619 3391 1289 3197 
Q 959 3003 697 2906 
L 697 3450 
Q 1169 3672 1522 3987 
Q 1875 4303 2022 4600 
L 2384 4600 
L 2384 0 
z
" transform="scale(0.015625)"/>
       </defs>
       <use xlink:href="#ArialMT-31"/>
       <use xlink:href="#ArialMT-30" x="55.615234"/>
       <use xlink:href="#ArialMT-30" x="111.230469"/>
      </g>
     </g>
    </g>
   </g>
   <g id="matplotlib.axis_2">
    <g id="ytick_1">
     <g id="line2d_7"/>
     <g id="text_7">
      <!-- 0.0 -->
      <g style="fill: #262626" transform="translate(87.1 301.291441)scale(0.1 -0.1)">
       <defs>
        <path id="ArialMT-2e" d="M 581 0 
L 581 641 
L 1222 641 
L 1222 0 
L 581 0 
z
" transform="scale(0.015625)"/>
       </defs>
       <use xlink:href="#ArialMT-30"/>
       <use xlink:href="#ArialMT-2e" x="55.615234"/>
       <use xlink:href="#ArialMT-30" x="83.398438"/>
      </g>
     </g>
    </g>
    <g id="ytick_2">
     <g id="line2d_8"/>
     <g id="text_8">
      <!-- 0.5 -->
      <g style="fill: #262626" transform="translate(87.1 256.572829)scale(0.1 -0.1)">
       <defs>
        <path id="ArialMT-35" d="M 266 1200 
L 856 1250 
Q 922 819 1161 601 
Q 1400 384 1738 384 
Q 2144 384 2425 690 
Q 2706 997 2706 1503 
Q 2706 1984 2436 2262 
Q 2166 2541 1728 2541 
Q 1456 2541 1237 2417 
Q 1019 2294 894 2097 
L 366 2166 
L 809 4519 
L 3088 4519 
L 3088 3981 
L 1259 3981 
L 1013 2750 
Q 1425 3038 1878 3038 
Q 2478 3038 2890 2622 
Q 3303 2206 3303 1553 
Q 3303 931 2941 478 
Q 2500 -78 1738 -78 
Q 1113 -78 717 272 
Q 322 622 266 1200 
z
" transform="scale(0.015625)"/>
       </defs>
       <use xlink:href="#ArialMT-30"/>
       <use xlink:href="#ArialMT-2e" x="55.615234"/>
       <use xlink:href="#ArialMT-35" x="83.398438"/>
      </g>
     </g>
    </g>
    <g id="ytick_3">
     <g id="line2d_9"/>
     <g id="text_9">
      <!-- 1.0 -->
      <g style="fill: #262626" transform="translate(87.1 211.854217)scale(0.1 -0.1)">
       <use xlink:href="#ArialMT-31"/>
       <use xlink:href="#ArialMT-2e" x="55.615234"/>
       <use xlink:href="#ArialMT-30" x="83.398438"/>
      </g>
     </g>
    </g>
    <g id="ytick_4">
     <g id="line2d_10"/>
     <g id="text_10">
      <!-- 1.5 -->
      <g style="fill: #262626" transform="translate(87.1 167.135604)scale(0.1 -0.1)">
       <use xlink:href="#ArialMT-31"/>
       <use xlink:href="#ArialMT-2e" x="55.615234"/>
       <use xlink:href="#ArialMT-35" x="83.398438"/>
      </g>
     </g>
    </g>
    <g id="ytick_5">
     <g id="line2d_11"/>
     <g id="text_11">
      <!-- 2.0 -->
      <g style="fill: #262626" transform="translate(87.1 122.416992)scale(0.1 -0.1)">
       <use xlink:href="#ArialMT-32"/>
       <use xlink:href="#ArialMT-2e" x="55.615234"/>
       <use xlink:href="#ArialMT-30" x="83.398438"/>
      </g>
     </g>
    </g>
   </g>
   <g id="line2d_12">
    <path d="M 138.436364 108.546854 
L 144.585124 145.148209 
L 150.733884 162.166065 
L 156.882645 183.116997 
L 163.031405 191.313749 
L 169.180165 201.474992 
L 175.328926 209.156397 
L 181.477686 214.440189 
L 187.626446 220.128615 
L 193.775207 228.130215 
L 199.923967 230.101188 
L 206.072727 232.894992 
L 212.221488 237.425553 
L 218.370248 241.802499 
L 224.519008 241.999528 
L 230.667769 248.159118 
L 236.816529 250.312536 
L 242.965289 250.277523 
L 249.11405 257.658224 
L 255.26281 257.565638 
L 261.41157 260.424138 
L 267.560331 260.959485 
L 273.709091 262.266743 
L 279.857851 265.532309 
L 286.006612 266.436084 
L 292.155372 270.236997 
L 298.304132 271.380608 
L 304.452893 270.735221 
L 310.601653 272.917851 
L 316.750413 273.713004 
L 322.899174 273.154222 
L 329.047934 274.972071 
L 335.196694 277.606163 
L 341.345455 278.80788 
L 347.494215 280.231117 
L 353.642975 279.706442 
L 359.791736 277.795452 
L 365.940496 280.46526 
L 372.089256 282.568519 
L 378.238017 283.130494 
L 384.386777 282.477116 
L 390.535537 283.959264 
L 396.684298 284.453905 
L 402.833058 284.150546 
L 408.981818 285.834268 
L 415.130579 282.184294 
L 421.279339 285.5606 
L 427.428099 284.97398 
L 433.57686 288.935764 
L 439.72562 285.518262 
L 445.87438 287.560271 
L 452.02314 286.648581 
L 458.171901 287.187479 
L 464.320661 288.711656 
L 470.469421 288.827783 
L 476.618182 287.485405 
L 482.766942 288.297209 
L 488.915702 289.353982 
L 495.064463 290.432255 
L 501.213223 289.972089 
L 507.361983 290.052891 
L 513.510744 289.184304 
L 519.659504 290.141916 
L 525.808264 290.118305 
L 531.957025 290.320059 
L 538.105785 288.101613 
L 544.254545 289.513146 
L 550.403306 290.853523 
L 556.552066 289.460654 
L 562.700826 291.559924 
L 568.849587 293.041421 
L 574.998347 290.567299 
L 581.147107 289.850625 
L 587.295868 290.011716 
L 593.444628 291.703578 
L 599.593388 292.21529 
L 605.742149 291.941467 
L 611.890909 291.428757 
L 618.039669 293.125763 
L 624.18843 291.349293 
L 630.33719 291.203775 
L 636.48595 292.91711 
L 642.634711 293.790667 
L 648.783471 291.307603 
L 654.932231 288.538543 
L 661.080992 290.830132 
L 667.229752 292.976133 
L 673.378512 292.457467 
L 679.527273 293.327827 
L 685.676033 290.587977 
L 691.824793 291.671841 
L 697.973554 291.723919 
L 704.122314 293.199664 
L 710.271074 292.087458 
L 716.419835 292.690157 
L 722.568595 291.70062 
L 728.717355 292.960679 
L 734.866116 294.250909 
L 741.014876 293.833469 
L 747.163636 293.857742 
" clip-path="url(#p2321d918db)" style="fill: none; stroke: #ff0000; stroke-width: 1.75; stroke-linecap: round"/>
   </g>
   <g id="line2d_13">
    <path d="M 138.436364 88.069091 
L 144.585124 91.381803 
L 150.733884 124.618192 
L 156.882645 158.625053 
L 163.031405 168.718402 
L 169.180165 197.134647 
L 175.328926 208.039408 
L 181.477686 203.590677 
L 187.626446 222.415203 
L 193.775207 228.478582 
L 199.923967 225.719151 
L 206.072727 226.497613 
L 212.221488 226.628433 
L 218.370248 234.113444 
L 224.519008 235.498618 
L 230.667769 231.022779 
L 236.816529 227.752362 
L 242.965289 232.315734 
L 249.11405 240.586623 
L 255.26281 235.228796 
L 261.41157 242.43706 
L 267.560331 237.035855 
L 273.709091 235.90676 
L 279.857851 241.235928 
L 286.006612 245.581534 
L 292.155372 244.756086 
L 298.304132 234.490198 
L 304.452893 246.418002 
L 310.601653 250.439784 
L 316.750413 242.963643 
L 322.899174 245.029709 
L 329.047934 227.363566 
L 335.196694 248.533682 
L 341.345455 243.226253 
L 347.494215 247.867951 
L 353.642975 235.87937 
L 359.791736 240.568295 
L 365.940496 245.495462 
L 372.089256 237.393312 
L 378.238017 233.719433 
L 384.386777 245.851452 
L 390.535537 239.505873 
L 396.684298 242.961889 
L 402.833058 241.518225 
L 408.981818 237.23145 
L 415.130579 241.405344 
L 421.279339 239.879605 
L 427.428099 235.150714 
L 433.57686 238.404653 
L 439.72562 239.724274 
L 445.87438 222.652853 
L 452.02314 240.117308 
L 458.171901 224.046024 
L 464.320661 230.778737 
L 470.469421 231.527815 
L 476.618182 214.627031 
L 482.766942 243.286982 
L 488.915702 239.714577 
L 495.064463 238.394029 
L 501.213223 230.038438 
L 507.361983 215.825779 
L 513.510744 203.540471 
L 519.659504 236.991407 
L 525.808264 228.021502 
L 531.957025 231.623296 
L 538.105785 234.90648 
L 544.254545 241.576955 
L 550.403306 225.622886 
L 556.552066 237.158194 
L 562.700826 230.539674 
L 568.849587 216.331743 
L 574.998347 216.231581 
L 581.147107 237.2043 
L 587.295868 232.045965 
L 593.444628 229.759303 
L 599.593388 237.207483 
L 605.742149 240.078708 
L 611.890909 237.426454 
L 618.039669 234.870609 
L 624.18843 217.815368 
L 630.33719 225.58146 
L 636.48595 219.093781 
L 642.634711 229.507494 
L 648.783471 219.507115 
L 654.932231 220.751528 
L 661.080992 225.193447 
L 667.229752 222.65602 
L 673.378512 236.091187 
L 679.527273 231.023168 
L 685.676033 237.609324 
L 691.824793 209.494135 
L 697.973554 235.163093 
L 704.122314 218.146895 
L 710.271074 222.051264 
L 716.419835 213.979575 
L 722.568595 215.02562 
L 728.717355 219.769576 
L 734.866116 214.586287 
L 741.014876 219.813785 
L 747.163636 214.66963 
" clip-path="url(#p2321d918db)" style="fill: none; stroke: #008000; stroke-width: 1.75; stroke-linecap: round"/>
   </g>
   <g id="patch_3">
    <path d="M 108 304.56 
L 108 77.76 
" style="fill: none"/>
   </g>
   <g id="patch_4">
    <path d="M 777.6 304.56 
L 777.6 77.76 
" style="fill: none"/>
   </g>
   <g id="patch_5">
    <path d="M 108 304.56 
L 777.6 304.56 
" style="fill: none"/>
   </g>
   <g id="patch_6">
    <path d="M 108 77.76 
L 777.6 77.76 
" style="fill: none"/>
   </g>
   <g id="legend_1">
    <g id="line2d_14">
     <path d="M 704.473438 90.417812 
L 714.473438 90.417812 
L 724.473438 90.417812 
" style="fill: none; stroke: #ff0000; stroke-width: 1.75; stroke-linecap: round"/>
    </g>
    <g id="text_12">
     <!-- loss -->
     <g style="fill: #262626" transform="translate(732.473438 93.917812)scale(0.1 -0.1)">
      <defs>
       <path id="ArialMT-6c" d="M 409 0 
L 409 4581 
L 972 4581 
L 972 0 
L 409 0 
z
" transform="scale(0.015625)"/>
       <path id="ArialMT-6f" d="M 213 1659 
Q 213 2581 725 3025 
Q 1153 3394 1769 3394 
Q 2453 3394 2887 2945 
Q 3322 2497 3322 1706 
Q 3322 1066 3130 698 
Q 2938 331 2570 128 
Q 2203 -75 1769 -75 
Q 1072 -75 642 372 
Q 213 819 213 1659 
z
M 791 1659 
Q 791 1022 1069 705 
Q 1347 388 1769 388 
Q 2188 388 2466 706 
Q 2744 1025 2744 1678 
Q 2744 2294 2464 2611 
Q 2184 2928 1769 2928 
Q 1347 2928 1069 2612 
Q 791 2297 791 1659 
z
" transform="scale(0.015625)"/>
       <path id="ArialMT-73" d="M 197 991 
L 753 1078 
Q 800 744 1014 566 
Q 1228 388 1613 388 
Q 2000 388 2187 545 
Q 2375 703 2375 916 
Q 2375 1106 2209 1216 
Q 2094 1291 1634 1406 
Q 1016 1563 777 1677 
Q 538 1791 414 1992 
Q 291 2194 291 2438 
Q 291 2659 392 2848 
Q 494 3038 669 3163 
Q 800 3259 1026 3326 
Q 1253 3394 1513 3394 
Q 1903 3394 2198 3281 
Q 2494 3169 2634 2976 
Q 2775 2784 2828 2463 
L 2278 2388 
Q 2241 2644 2061 2787 
Q 1881 2931 1553 2931 
Q 1166 2931 1000 2803 
Q 834 2675 834 2503 
Q 834 2394 903 2306 
Q 972 2216 1119 2156 
Q 1203 2125 1616 2013 
Q 2213 1853 2448 1751 
Q 2684 1650 2818 1456 
Q 2953 1263 2953 975 
Q 2953 694 2789 445 
Q 2625 197 2315 61 
Q 2006 -75 1616 -75 
Q 969 -75 630 194 
Q 291 463 197 991 
z
" transform="scale(0.015625)"/>
      </defs>
      <use xlink:href="#ArialMT-6c"/>
      <use xlink:href="#ArialMT-6f" x="22.216797"/>
      <use xlink:href="#ArialMT-73" x="77.832031"/>
      <use xlink:href="#ArialMT-73" x="127.832031"/>
     </g>
    </g>
    <g id="line2d_15">
     <path d="M 704.473438 104.563125 
L 714.473438 104.563125 
L 724.473438 104.563125 
" style="fill: none; stroke: #008000; stroke-width: 1.75; stroke-linecap: round"/>
    </g>
    <g id="text_13">
     <!-- val_loss -->
     <g style="fill: #262626" transform="translate(732.473438 108.063125)scale(0.1 -0.1)">
      <defs>
       <path id="ArialMT-76" d="M 1344 0 
L 81 3319 
L 675 3319 
L 1388 1331 
Q 1503 1009 1600 663 
Q 1675 925 1809 1294 
L 2547 3319 
L 3125 3319 
L 1869 0 
L 1344 0 
z
" transform="scale(0.015625)"/>
       <path id="ArialMT-61" d="M 2588 409 
Q 2275 144 1986 34 
Q 1697 -75 1366 -75 
Q 819 -75 525 192 
Q 231 459 231 875 
Q 231 1119 342 1320 
Q 453 1522 633 1644 
Q 813 1766 1038 1828 
Q 1203 1872 1538 1913 
Q 2219 1994 2541 2106 
Q 2544 2222 2544 2253 
Q 2544 2597 2384 2738 
Q 2169 2928 1744 2928 
Q 1347 2928 1158 2789 
Q 969 2650 878 2297 
L 328 2372 
Q 403 2725 575 2942 
Q 747 3159 1072 3276 
Q 1397 3394 1825 3394 
Q 2250 3394 2515 3294 
Q 2781 3194 2906 3042 
Q 3031 2891 3081 2659 
Q 3109 2516 3109 2141 
L 3109 1391 
Q 3109 606 3145 398 
Q 3181 191 3288 0 
L 2700 0 
Q 2613 175 2588 409 
z
M 2541 1666 
Q 2234 1541 1622 1453 
Q 1275 1403 1131 1340 
Q 988 1278 909 1158 
Q 831 1038 831 891 
Q 831 666 1001 516 
Q 1172 366 1500 366 
Q 1825 366 2078 508 
Q 2331 650 2450 897 
Q 2541 1088 2541 1459 
L 2541 1666 
z
" transform="scale(0.015625)"/>
       <path id="ArialMT-5f" d="M -97 -1272 
L -97 -866 
L 3631 -866 
L 3631 -1272 
L -97 -1272 
z
" transform="scale(0.015625)"/>
      </defs>
      <use xlink:href="#ArialMT-76"/>
      <use xlink:href="#ArialMT-61" x="50"/>
      <use xlink:href="#ArialMT-6c" x="105.615234"/>
      <use xlink:href="#ArialMT-5f" x="127.832031"/>
      <use xlink:href="#ArialMT-6c" x="183.447266"/>
      <use xlink:href="#ArialMT-6f" x="205.664062"/>
      <use xlink:href="#ArialMT-73" x="261.279297"/>
      <use xlink:href="#ArialMT-73" x="311.279297"/>
     </g>
    </g>
   </g>
  </g>
  <g id="axes_2">
   <g id="patch_7">
    <path d="M 108 576.72 
L 777.6 576.72 
L 777.6 349.92 
L 108 349.92 
z
" style="fill: #eaeaf2"/>
   </g>
   <g id="matplotlib.axis_3">
    <g id="xtick_7">
     <g id="line2d_16"/>
     <g id="text_14">
      <!-- 0 -->
      <g style="fill: #262626" transform="translate(135.655895 590.877813)scale(0.1 -0.1)">
       <use xlink:href="#ArialMT-30"/>
      </g>
     </g>
    </g>
    <g id="xtick_8">
     <g id="line2d_17"/>
     <g id="text_15">
      <!-- 20 -->
      <g style="fill: #262626" transform="translate(255.850633 590.877813)scale(0.1 -0.1)">
       <use xlink:href="#ArialMT-32"/>
       <use xlink:href="#ArialMT-30" x="55.615234"/>
      </g>
     </g>
    </g>
    <g id="xtick_9">
     <g id="line2d_18"/>
     <g id="text_16">
      <!-- 40 -->
      <g style="fill: #262626" transform="translate(378.825839 590.877813)scale(0.1 -0.1)">
       <use xlink:href="#ArialMT-34"/>
       <use xlink:href="#ArialMT-30" x="55.615234"/>
      </g>
     </g>
    </g>
    <g id="xtick_10">
     <g id="line2d_19"/>
     <g id="text_17">
      <!-- 60 -->
      <g style="fill: #262626" transform="translate(501.801046 590.877813)scale(0.1 -0.1)">
       <use xlink:href="#ArialMT-36"/>
       <use xlink:href="#ArialMT-30" x="55.615234"/>
      </g>
     </g>
    </g>
    <g id="xtick_11">
     <g id="line2d_20"/>
     <g id="text_18">
      <!-- 80 -->
      <g style="fill: #262626" transform="translate(624.776253 590.877813)scale(0.1 -0.1)">
       <use xlink:href="#ArialMT-38"/>
       <use xlink:href="#ArialMT-30" x="55.615234"/>
      </g>
     </g>
    </g>
    <g id="xtick_12">
     <g id="line2d_21"/>
     <g id="text_19">
      <!-- 100 -->
      <g style="fill: #262626" transform="translate(744.97099 590.877813)scale(0.1 -0.1)">
       <use xlink:href="#ArialMT-31"/>
       <use xlink:href="#ArialMT-30" x="55.615234"/>
       <use xlink:href="#ArialMT-30" x="111.230469"/>
      </g>
     </g>
    </g>
   </g>
   <g id="matplotlib.axis_4">
    <g id="ytick_6">
     <g id="line2d_22"/>
     <g id="text_20">
      <!-- 0.2 -->
      <g style="fill: #262626" transform="translate(87.1 559.787578)scale(0.1 -0.1)">
       <use xlink:href="#ArialMT-30"/>
       <use xlink:href="#ArialMT-2e" x="55.615234"/>
       <use xlink:href="#ArialMT-32" x="83.398438"/>
      </g>
     </g>
    </g>
    <g id="ytick_7">
     <g id="line2d_23"/>
     <g id="text_21">
      <!-- 0.4 -->
      <g style="fill: #262626" transform="translate(87.1 509.971743)scale(0.1 -0.1)">
       <use xlink:href="#ArialMT-30"/>
       <use xlink:href="#ArialMT-2e" x="55.615234"/>
       <use xlink:href="#ArialMT-34" x="83.398438"/>
      </g>
     </g>
    </g>
    <g id="ytick_8">
     <g id="line2d_24"/>
     <g id="text_22">
      <!-- 0.6 -->
      <g style="fill: #262626" transform="translate(87.1 460.155908)scale(0.1 -0.1)">
       <use xlink:href="#ArialMT-30"/>
       <use xlink:href="#ArialMT-2e" x="55.615234"/>
       <use xlink:href="#ArialMT-36" x="83.398438"/>
      </g>
     </g>
    </g>
    <g id="ytick_9">
     <g id="line2d_25"/>
     <g id="text_23">
      <!-- 0.8 -->
      <g style="fill: #262626" transform="translate(87.1 410.340073)scale(0.1 -0.1)">
       <use xlink:href="#ArialMT-30"/>
       <use xlink:href="#ArialMT-2e" x="55.615234"/>
       <use xlink:href="#ArialMT-38" x="83.398438"/>
      </g>
     </g>
    </g>
    <g id="ytick_10">
     <g id="line2d_26"/>
     <g id="text_24">
      <!-- 1.0 -->
      <g style="fill: #262626" transform="translate(87.1 360.524239)scale(0.1 -0.1)">
       <use xlink:href="#ArialMT-31"/>
       <use xlink:href="#ArialMT-2e" x="55.615234"/>
       <use xlink:href="#ArialMT-30" x="83.398438"/>
      </g>
     </g>
    </g>
   </g>
   <g id="line2d_27">
    <path d="M 138.436364 533.295334 
L 144.585124 501.491523 
L 150.733884 481.788971 
L 156.882645 463.363436 
L 163.031405 455.822954 
L 169.180165 444.937902 
L 175.328926 438.978488 
L 181.477686 434.417712 
L 187.626446 428.82316 
L 193.775207 420.066471 
L 199.923967 418.18135 
L 206.072727 418.18135 
L 212.221488 413.438143 
L 218.370248 408.755746 
L 224.519008 409.42466 
L 230.667769 403.465246 
L 236.816529 400.789591 
L 242.965289 400.181488 
L 249.11405 395.438281 
L 255.26281 393.978833 
L 261.41157 391.78966 
L 267.560331 391.911281 
L 273.709091 389.235626 
L 279.857851 384.67485 
L 286.006612 385.769436 
L 292.155372 383.215401 
L 298.304132 380.539746 
L 304.452893 381.512712 
L 310.601653 379.44516 
L 316.750413 378.350574 
L 322.899174 379.141108 
L 329.047934 377.499229 
L 335.196694 375.249246 
L 341.345455 374.458712 
L 347.494215 373.607367 
L 353.642975 373.242505 
L 359.791736 375.127626 
L 365.940496 373.242505 
L 372.089256 370.506039 
L 378.238017 369.229022 
L 384.386777 370.323608 
L 390.535537 368.985781 
L 396.684298 369.289832 
L 402.833058 369.107401 
L 408.981818 366.796608 
L 415.130579 370.323608 
L 421.279339 366.796608 
L 427.428099 367.830384 
L 433.57686 364.729056 
L 439.72562 367.769574 
L 445.87438 366.370936 
L 452.02314 366.735798 
L 458.171901 366.735798 
L 464.320661 365.27635 
L 470.469421 365.580401 
L 476.618182 365.580401 
L 482.766942 365.458781 
L 488.915702 364.425005 
L 495.064463 363.026367 
L 501.213223 363.816901 
L 507.361983 364.789867 
L 513.510744 364.607436 
L 519.659504 363.999332 
L 525.808264 363.938522 
L 531.957025 363.816901 
L 538.105785 365.762832 
L 544.254545 364.120953 
L 550.403306 363.026367 
L 556.552066 363.63447 
L 562.700826 363.026367 
L 568.849587 361.323677 
L 574.998347 363.087177 
L 581.147107 364.181763 
L 587.295868 363.877712 
L 593.444628 361.87097 
L 599.593388 361.627729 
L 605.742149 361.81016 
L 611.890909 362.296643 
L 618.039669 361.141246 
L 624.18843 362.843936 
L 630.33719 362.479074 
L 636.48595 360.715574 
L 642.634711 360.533143 
L 648.783471 362.479074 
L 654.932231 364.060143 
L 661.080992 363.208798 
L 667.229752 360.837194 
L 673.378512 361.506108 
L 679.527273 360.958815 
L 685.676033 362.904746 
L 691.824793 361.566919 
L 697.973554 361.74935 
L 704.122314 360.654763 
L 710.271074 361.262867 
L 716.419835 361.323677 
L 722.568595 361.445298 
L 728.717355 361.323677 
L 734.866116 360.411522 
L 741.014876 360.229091 
L 747.163636 360.715574 
" clip-path="url(#p516d397bbe)" style="fill: none; stroke: #ff0000; stroke-width: 1.75; stroke-linecap: round"/>
   </g>
   <g id="line2d_28">
    <path d="M 138.436364 566.410909 
L 144.585124 537.291439 
L 150.733884 511.090872 
L 156.882645 488.295678 
L 163.031405 474.187678 
L 169.180165 454.033398 
L 175.328926 436.936992 
L 181.477686 440.20338 
L 187.626446 427.693819 
L 193.775207 419.14563 
L 199.923967 423.315474 
L 206.072727 424.28844 
L 212.221488 424.635932 
L 218.370248 416.365725 
L 224.519008 416.43522 
L 230.667769 416.991198 
L 236.816529 417.825173 
L 242.965289 416.921703 
L 249.11405 410.319445 
L 255.26281 416.226734 
L 261.41157 407.748026 
L 267.560331 413.516324 
L 273.709091 413.585819 
L 279.857851 406.010596 
L 286.006612 403.578182 
L 292.155372 404.064665 
L 298.304132 410.458436 
L 304.452893 402.952708 
L 310.601653 401.006777 
L 316.750413 406.497079 
L 322.899174 402.396715 
L 329.047934 418.172665 
L 335.196694 401.49326 
L 341.345455 402.32722 
L 347.494215 399.964302 
L 353.642975 408.790502 
L 359.791736 409.971953 
L 365.940496 400.242298 
L 372.089256 400.798276 
L 378.238017 405.454618 
L 384.386777 397.87938 
L 390.535537 402.32722 
L 396.684298 398.991336 
L 402.833058 399.894806 
L 408.981818 403.995169 
L 415.130579 401.979743 
L 421.279339 405.663104 
L 427.428099 401.771242 
L 433.57686 401.562756 
L 439.72562 400.311794 
L 445.87438 405.385122 
L 452.02314 400.381289 
L 458.171901 408.929492 
L 464.320661 403.786668 
L 470.469421 402.118734 
L 476.618182 411.778894 
L 482.766942 395.933449 
L 488.915702 401.562756 
L 495.064463 399.130342 
L 501.213223 408.582 
L 507.361983 404.968135 
L 513.510744 412.612853 
L 519.659504 398.018371 
L 525.808264 403.091699 
L 531.957025 400.867772 
L 538.105785 399.477819 
L 544.254545 397.184411 
L 550.403306 401.771242 
L 556.552066 397.601398 
L 562.700826 399.060846 
L 568.849587 404.759634 
L 574.998347 402.535721 
L 581.147107 398.435358 
L 587.295868 402.118734 
L 593.444628 398.296367 
L 599.593388 397.392897 
L 605.742149 400.520295 
L 611.890909 397.045405 
L 618.039669 396.697928 
L 624.18843 402.952708 
L 630.33719 399.755815 
L 636.48595 401.771242 
L 642.634711 398.852345 
L 648.783471 404.759634 
L 654.932231 405.871605 
L 661.080992 399.964302 
L 667.229752 400.311794 
L 673.378512 397.740389 
L 679.527273 399.894806 
L 685.676033 397.462392 
L 691.824793 403.925674 
L 697.973554 400.033812 
L 704.122314 402.466226 
L 710.271074 405.315612 
L 716.419835 402.883198 
L 722.568595 401.979743 
L 728.717355 400.728781 
L 734.866116 400.242298 
L 741.014876 401.006777 
L 747.163636 401.006777 
" clip-path="url(#p516d397bbe)" style="fill: none; stroke: #008000; stroke-width: 1.75; stroke-linecap: round"/>
   </g>
   <g id="patch_8">
    <path d="M 108 576.72 
L 108 349.92 
" style="fill: none"/>
   </g>
   <g id="patch_9">
    <path d="M 777.6 576.72 
L 777.6 349.92 
" style="fill: none"/>
   </g>
   <g id="patch_10">
    <path d="M 108 576.72 
L 777.6 576.72 
" style="fill: none"/>
   </g>
   <g id="patch_11">
    <path d="M 108 349.92 
L 777.6 349.92 
" style="fill: none"/>
   </g>
   <g id="legend_2">
    <g id="line2d_29">
     <path d="M 117 362.577812 
L 127 362.577812 
L 137 362.577812 
" style="fill: none; stroke: #ff0000; stroke-width: 1.75; stroke-linecap: round"/>
    </g>
    <g id="text_25">
     <!-- acc -->
     <g style="fill: #262626" transform="translate(145 366.077812)scale(0.1 -0.1)">
      <defs>
       <path id="ArialMT-63" d="M 2588 1216 
L 3141 1144 
Q 3050 572 2676 248 
Q 2303 -75 1759 -75 
Q 1078 -75 664 370 
Q 250 816 250 1647 
Q 250 2184 428 2587 
Q 606 2991 970 3192 
Q 1334 3394 1763 3394 
Q 2303 3394 2647 3120 
Q 2991 2847 3088 2344 
L 2541 2259 
Q 2463 2594 2264 2762 
Q 2066 2931 1784 2931 
Q 1359 2931 1093 2626 
Q 828 2322 828 1663 
Q 828 994 1084 691 
Q 1341 388 1753 388 
Q 2084 388 2306 591 
Q 2528 794 2588 1216 
z
" transform="scale(0.015625)"/>
      </defs>
      <use xlink:href="#ArialMT-61"/>
      <use xlink:href="#ArialMT-63" x="55.615234"/>
      <use xlink:href="#ArialMT-63" x="105.615234"/>
     </g>
    </g>
    <g id="line2d_30">
     <path d="M 117 376.723125 
L 127 376.723125 
L 137 376.723125 
" style="fill: none; stroke: #008000; stroke-width: 1.75; stroke-linecap: round"/>
    </g>
    <g id="text_26">
     <!-- val_acc -->
     <g style="fill: #262626" transform="translate(145 380.223125)scale(0.1 -0.1)">
      <use xlink:href="#ArialMT-76"/>
      <use xlink:href="#ArialMT-61" x="50"/>
      <use xlink:href="#ArialMT-6c" x="105.615234"/>
      <use xlink:href="#ArialMT-5f" x="127.832031"/>
      <use xlink:href="#ArialMT-61" x="183.447266"/>
      <use xlink:href="#ArialMT-63" x="239.0625"/>
      <use xlink:href="#ArialMT-63" x="289.0625"/>
     </g>
    </g>
   </g>
  </g>
  <g id="text_27">
   <!-- Plots of model performance: mel_spectrogram, chatfield14 - lr 0.0001, batch 32, 128 steps/epoch -->
   <g style="fill: #262626" transform="translate(174.21 21.695625)scale(0.12 -0.12)">
    <defs>
     <path id="ArialMT-50" d="M 494 0 
L 494 4581 
L 2222 4581 
Q 2678 4581 2919 4538 
Q 3256 4481 3484 4323 
Q 3713 4166 3852 3881 
Q 3991 3597 3991 3256 
Q 3991 2672 3619 2267 
Q 3247 1863 2275 1863 
L 1100 1863 
L 1100 0 
L 494 0 
z
M 1100 2403 
L 2284 2403 
Q 2872 2403 3119 2622 
Q 3366 2841 3366 3238 
Q 3366 3525 3220 3729 
Q 3075 3934 2838 4000 
Q 2684 4041 2272 4041 
L 1100 4041 
L 1100 2403 
z
" transform="scale(0.015625)"/>
     <path id="ArialMT-74" d="M 1650 503 
L 1731 6 
Q 1494 -44 1306 -44 
Q 1000 -44 831 53 
Q 663 150 594 308 
Q 525 466 525 972 
L 525 2881 
L 113 2881 
L 113 3319 
L 525 3319 
L 525 4141 
L 1084 4478 
L 1084 3319 
L 1650 3319 
L 1650 2881 
L 1084 2881 
L 1084 941 
Q 1084 700 1114 631 
Q 1144 563 1211 522 
Q 1278 481 1403 481 
Q 1497 481 1650 503 
z
" transform="scale(0.015625)"/>
     <path id="ArialMT-20" transform="scale(0.015625)"/>
     <path id="ArialMT-66" d="M 556 0 
L 556 2881 
L 59 2881 
L 59 3319 
L 556 3319 
L 556 3672 
Q 556 4006 616 4169 
Q 697 4388 901 4523 
Q 1106 4659 1475 4659 
Q 1713 4659 2000 4603 
L 1916 4113 
Q 1741 4144 1584 4144 
Q 1328 4144 1222 4034 
Q 1116 3925 1116 3625 
L 1116 3319 
L 1763 3319 
L 1763 2881 
L 1116 2881 
L 1116 0 
L 556 0 
z
" transform="scale(0.015625)"/>
     <path id="ArialMT-6d" d="M 422 0 
L 422 3319 
L 925 3319 
L 925 2853 
Q 1081 3097 1340 3245 
Q 1600 3394 1931 3394 
Q 2300 3394 2536 3241 
Q 2772 3088 2869 2813 
Q 3263 3394 3894 3394 
Q 4388 3394 4653 3120 
Q 4919 2847 4919 2278 
L 4919 0 
L 4359 0 
L 4359 2091 
Q 4359 2428 4304 2576 
Q 4250 2725 4106 2815 
Q 3963 2906 3769 2906 
Q 3419 2906 3187 2673 
Q 2956 2441 2956 1928 
L 2956 0 
L 2394 0 
L 2394 2156 
Q 2394 2531 2256 2718 
Q 2119 2906 1806 2906 
Q 1569 2906 1367 2781 
Q 1166 2656 1075 2415 
Q 984 2175 984 1722 
L 984 0 
L 422 0 
z
" transform="scale(0.015625)"/>
     <path id="ArialMT-64" d="M 2575 0 
L 2575 419 
Q 2259 -75 1647 -75 
Q 1250 -75 917 144 
Q 584 363 401 755 
Q 219 1147 219 1656 
Q 219 2153 384 2558 
Q 550 2963 881 3178 
Q 1213 3394 1622 3394 
Q 1922 3394 2156 3267 
Q 2391 3141 2538 2938 
L 2538 4581 
L 3097 4581 
L 3097 0 
L 2575 0 
z
M 797 1656 
Q 797 1019 1065 703 
Q 1334 388 1700 388 
Q 2069 388 2326 689 
Q 2584 991 2584 1609 
Q 2584 2291 2321 2609 
Q 2059 2928 1675 2928 
Q 1300 2928 1048 2622 
Q 797 2316 797 1656 
z
" transform="scale(0.015625)"/>
     <path id="ArialMT-65" d="M 2694 1069 
L 3275 997 
Q 3138 488 2766 206 
Q 2394 -75 1816 -75 
Q 1088 -75 661 373 
Q 234 822 234 1631 
Q 234 2469 665 2931 
Q 1097 3394 1784 3394 
Q 2450 3394 2872 2941 
Q 3294 2488 3294 1666 
Q 3294 1616 3291 1516 
L 816 1516 
Q 847 969 1125 678 
Q 1403 388 1819 388 
Q 2128 388 2347 550 
Q 2566 713 2694 1069 
z
M 847 1978 
L 2700 1978 
Q 2663 2397 2488 2606 
Q 2219 2931 1791 2931 
Q 1403 2931 1139 2672 
Q 875 2413 847 1978 
z
" transform="scale(0.015625)"/>
     <path id="ArialMT-70" d="M 422 -1272 
L 422 3319 
L 934 3319 
L 934 2888 
Q 1116 3141 1344 3267 
Q 1572 3394 1897 3394 
Q 2322 3394 2647 3175 
Q 2972 2956 3137 2557 
Q 3303 2159 3303 1684 
Q 3303 1175 3120 767 
Q 2938 359 2589 142 
Q 2241 -75 1856 -75 
Q 1575 -75 1351 44 
Q 1128 163 984 344 
L 984 -1272 
L 422 -1272 
z
M 931 1641 
Q 931 1000 1190 694 
Q 1450 388 1819 388 
Q 2194 388 2461 705 
Q 2728 1022 2728 1688 
Q 2728 2322 2467 2637 
Q 2206 2953 1844 2953 
Q 1484 2953 1207 2617 
Q 931 2281 931 1641 
z
" transform="scale(0.015625)"/>
     <path id="ArialMT-72" d="M 416 0 
L 416 3319 
L 922 3319 
L 922 2816 
Q 1116 3169 1280 3281 
Q 1444 3394 1641 3394 
Q 1925 3394 2219 3213 
L 2025 2691 
Q 1819 2813 1613 2813 
Q 1428 2813 1281 2702 
Q 1134 2591 1072 2394 
Q 978 2094 978 1738 
L 978 0 
L 416 0 
z
" transform="scale(0.015625)"/>
     <path id="ArialMT-6e" d="M 422 0 
L 422 3319 
L 928 3319 
L 928 2847 
Q 1294 3394 1984 3394 
Q 2284 3394 2536 3286 
Q 2788 3178 2913 3003 
Q 3038 2828 3088 2588 
Q 3119 2431 3119 2041 
L 3119 0 
L 2556 0 
L 2556 2019 
Q 2556 2363 2490 2533 
Q 2425 2703 2258 2804 
Q 2091 2906 1866 2906 
Q 1506 2906 1245 2678 
Q 984 2450 984 1813 
L 984 0 
L 422 0 
z
" transform="scale(0.015625)"/>
     <path id="ArialMT-3a" d="M 578 2678 
L 578 3319 
L 1219 3319 
L 1219 2678 
L 578 2678 
z
M 578 0 
L 578 641 
L 1219 641 
L 1219 0 
L 578 0 
z
" transform="scale(0.015625)"/>
     <path id="ArialMT-67" d="M 319 -275 
L 866 -356 
Q 900 -609 1056 -725 
Q 1266 -881 1628 -881 
Q 2019 -881 2231 -725 
Q 2444 -569 2519 -288 
Q 2563 -116 2559 434 
Q 2191 0 1641 0 
Q 956 0 581 494 
Q 206 988 206 1678 
Q 206 2153 378 2554 
Q 550 2956 876 3175 
Q 1203 3394 1644 3394 
Q 2231 3394 2613 2919 
L 2613 3319 
L 3131 3319 
L 3131 450 
Q 3131 -325 2973 -648 
Q 2816 -972 2473 -1159 
Q 2131 -1347 1631 -1347 
Q 1038 -1347 672 -1080 
Q 306 -813 319 -275 
z
M 784 1719 
Q 784 1066 1043 766 
Q 1303 466 1694 466 
Q 2081 466 2343 764 
Q 2606 1063 2606 1700 
Q 2606 2309 2336 2618 
Q 2066 2928 1684 2928 
Q 1309 2928 1046 2623 
Q 784 2319 784 1719 
z
" transform="scale(0.015625)"/>
     <path id="ArialMT-2c" d="M 569 0 
L 569 641 
L 1209 641 
L 1209 0 
Q 1209 -353 1084 -570 
Q 959 -788 688 -906 
L 531 -666 
Q 709 -588 793 -436 
Q 878 -284 888 0 
L 569 0 
z
" transform="scale(0.015625)"/>
     <path id="ArialMT-68" d="M 422 0 
L 422 4581 
L 984 4581 
L 984 2938 
Q 1378 3394 1978 3394 
Q 2347 3394 2619 3248 
Q 2891 3103 3008 2847 
Q 3125 2591 3125 2103 
L 3125 0 
L 2563 0 
L 2563 2103 
Q 2563 2525 2380 2717 
Q 2197 2909 1863 2909 
Q 1613 2909 1392 2779 
Q 1172 2650 1078 2428 
Q 984 2206 984 1816 
L 984 0 
L 422 0 
z
" transform="scale(0.015625)"/>
     <path id="ArialMT-69" d="M 425 3934 
L 425 4581 
L 988 4581 
L 988 3934 
L 425 3934 
z
M 425 0 
L 425 3319 
L 988 3319 
L 988 0 
L 425 0 
z
" transform="scale(0.015625)"/>
     <path id="ArialMT-2d" d="M 203 1375 
L 203 1941 
L 1931 1941 
L 1931 1375 
L 203 1375 
z
" transform="scale(0.015625)"/>
     <path id="ArialMT-62" d="M 941 0 
L 419 0 
L 419 4581 
L 981 4581 
L 981 2947 
Q 1338 3394 1891 3394 
Q 2197 3394 2470 3270 
Q 2744 3147 2920 2923 
Q 3097 2700 3197 2384 
Q 3297 2069 3297 1709 
Q 3297 856 2875 390 
Q 2453 -75 1863 -75 
Q 1275 -75 941 416 
L 941 0 
z
M 934 1684 
Q 934 1088 1097 822 
Q 1363 388 1816 388 
Q 2184 388 2453 708 
Q 2722 1028 2722 1663 
Q 2722 2313 2464 2622 
Q 2206 2931 1841 2931 
Q 1472 2931 1203 2611 
Q 934 2291 934 1684 
z
" transform="scale(0.015625)"/>
     <path id="ArialMT-33" d="M 269 1209 
L 831 1284 
Q 928 806 1161 595 
Q 1394 384 1728 384 
Q 2125 384 2398 659 
Q 2672 934 2672 1341 
Q 2672 1728 2419 1979 
Q 2166 2231 1775 2231 
Q 1616 2231 1378 2169 
L 1441 2663 
Q 1497 2656 1531 2656 
Q 1891 2656 2178 2843 
Q 2466 3031 2466 3422 
Q 2466 3731 2256 3934 
Q 2047 4138 1716 4138 
Q 1388 4138 1169 3931 
Q 950 3725 888 3313 
L 325 3413 
Q 428 3978 793 4289 
Q 1159 4600 1703 4600 
Q 2078 4600 2393 4439 
Q 2709 4278 2876 4000 
Q 3044 3722 3044 3409 
Q 3044 3113 2884 2869 
Q 2725 2625 2413 2481 
Q 2819 2388 3044 2092 
Q 3269 1797 3269 1353 
Q 3269 753 2831 336 
Q 2394 -81 1725 -81 
Q 1122 -81 723 278 
Q 325 638 269 1209 
z
" transform="scale(0.015625)"/>
     <path id="ArialMT-2f" d="M 0 -78 
L 1328 4659 
L 1778 4659 
L 453 -78 
L 0 -78 
z
" transform="scale(0.015625)"/>
    </defs>
    <use xlink:href="#ArialMT-50"/>
    <use xlink:href="#ArialMT-6c" x="66.699219"/>
    <use xlink:href="#ArialMT-6f" x="88.916016"/>
    <use xlink:href="#ArialMT-74" x="144.53125"/>
    <use xlink:href="#ArialMT-73" x="172.314453"/>
    <use xlink:href="#ArialMT-20" x="222.314453"/>
    <use xlink:href="#ArialMT-6f" x="250.097656"/>
    <use xlink:href="#ArialMT-66" x="305.712891"/>
    <use xlink:href="#ArialMT-20" x="333.496094"/>
    <use xlink:href="#ArialMT-6d" x="361.279297"/>
    <use xlink:href="#ArialMT-6f" x="444.580078"/>
    <use xlink:href="#ArialMT-64" x="500.195312"/>
    <use xlink:href="#ArialMT-65" x="555.810547"/>
    <use xlink:href="#ArialMT-6c" x="611.425781"/>
    <use xlink:href="#ArialMT-20" x="633.642578"/>
    <use xlink:href="#ArialMT-70" x="661.425781"/>
    <use xlink:href="#ArialMT-65" x="717.041016"/>
    <use xlink:href="#ArialMT-72" x="772.65625"/>
    <use xlink:href="#ArialMT-66" x="805.957031"/>
    <use xlink:href="#ArialMT-6f" x="833.740234"/>
    <use xlink:href="#ArialMT-72" x="889.355469"/>
    <use xlink:href="#ArialMT-6d" x="922.65625"/>
    <use xlink:href="#ArialMT-61" x="1005.957031"/>
    <use xlink:href="#ArialMT-6e" x="1061.572266"/>
    <use xlink:href="#ArialMT-63" x="1117.1875"/>
    <use xlink:href="#ArialMT-65" x="1167.1875"/>
    <use xlink:href="#ArialMT-3a" x="1222.802734"/>
    <use xlink:href="#ArialMT-20" x="1250.585938"/>
    <use xlink:href="#ArialMT-6d" x="1278.369141"/>
    <use xlink:href="#ArialMT-65" x="1361.669922"/>
    <use xlink:href="#ArialMT-6c" x="1417.285156"/>
    <use xlink:href="#ArialMT-5f" x="1439.501953"/>
    <use xlink:href="#ArialMT-73" x="1495.117188"/>
    <use xlink:href="#ArialMT-70" x="1545.117188"/>
    <use xlink:href="#ArialMT-65" x="1600.732422"/>
    <use xlink:href="#ArialMT-63" x="1656.347656"/>
    <use xlink:href="#ArialMT-74" x="1706.347656"/>
    <use xlink:href="#ArialMT-72" x="1734.130859"/>
    <use xlink:href="#ArialMT-6f" x="1767.431641"/>
    <use xlink:href="#ArialMT-67" x="1823.046875"/>
    <use xlink:href="#ArialMT-72" x="1878.662109"/>
    <use xlink:href="#ArialMT-61" x="1911.962891"/>
    <use xlink:href="#ArialMT-6d" x="1967.578125"/>
    <use xlink:href="#ArialMT-2c" x="2050.878906"/>
    <use xlink:href="#ArialMT-20" x="2078.662109"/>
    <use xlink:href="#ArialMT-63" x="2106.445312"/>
    <use xlink:href="#ArialMT-68" x="2156.445312"/>
    <use xlink:href="#ArialMT-61" x="2212.060547"/>
    <use xlink:href="#ArialMT-74" x="2267.675781"/>
    <use xlink:href="#ArialMT-66" x="2295.458984"/>
    <use xlink:href="#ArialMT-69" x="2323.242188"/>
    <use xlink:href="#ArialMT-65" x="2345.458984"/>
    <use xlink:href="#ArialMT-6c" x="2401.074219"/>
    <use xlink:href="#ArialMT-64" x="2423.291016"/>
    <use xlink:href="#ArialMT-31" x="2478.90625"/>
    <use xlink:href="#ArialMT-34" x="2534.521484"/>
    <use xlink:href="#ArialMT-20" x="2590.136719"/>
    <use xlink:href="#ArialMT-2d" x="2617.919922"/>
    <use xlink:href="#ArialMT-20" x="2651.220703"/>
    <use xlink:href="#ArialMT-6c" x="2679.003906"/>
    <use xlink:href="#ArialMT-72" x="2701.220703"/>
    <use xlink:href="#ArialMT-20" x="2734.521484"/>
    <use xlink:href="#ArialMT-30" x="2762.304688"/>
    <use xlink:href="#ArialMT-2e" x="2817.919922"/>
    <use xlink:href="#ArialMT-30" x="2845.703125"/>
    <use xlink:href="#ArialMT-30" x="2901.318359"/>
    <use xlink:href="#ArialMT-30" x="2956.933594"/>
    <use xlink:href="#ArialMT-31" x="3012.548828"/>
    <use xlink:href="#ArialMT-2c" x="3068.164062"/>
    <use xlink:href="#ArialMT-20" x="3095.947266"/>
    <use xlink:href="#ArialMT-62" x="3123.730469"/>
    <use xlink:href="#ArialMT-61" x="3179.345703"/>
    <use xlink:href="#ArialMT-74" x="3234.960938"/>
    <use xlink:href="#ArialMT-63" x="3262.744141"/>
    <use xlink:href="#ArialMT-68" x="3312.744141"/>
    <use xlink:href="#ArialMT-20" x="3368.359375"/>
    <use xlink:href="#ArialMT-33" x="3396.142578"/>
    <use xlink:href="#ArialMT-32" x="3451.757812"/>
    <use xlink:href="#ArialMT-2c" x="3507.373047"/>
    <use xlink:href="#ArialMT-20" x="3535.15625"/>
    <use xlink:href="#ArialMT-31" x="3562.939453"/>
    <use xlink:href="#ArialMT-32" x="3618.554688"/>
    <use xlink:href="#ArialMT-38" x="3674.169922"/>
    <use xlink:href="#ArialMT-20" x="3729.785156"/>
    <use xlink:href="#ArialMT-73" x="3757.568359"/>
    <use xlink:href="#ArialMT-74" x="3807.568359"/>
    <use xlink:href="#ArialMT-65" x="3835.351562"/>
    <use xlink:href="#ArialMT-70" x="3890.966797"/>
    <use xlink:href="#ArialMT-73" x="3946.582031"/>
    <use xlink:href="#ArialMT-2f" x="3996.582031"/>
    <use xlink:href="#ArialMT-65" x="4024.365234"/>
    <use xlink:href="#ArialMT-70" x="4079.980469"/>
    <use xlink:href="#ArialMT-6f" x="4135.595703"/>
    <use xlink:href="#ArialMT-63" x="4191.210938"/>
    <use xlink:href="#ArialMT-68" x="4241.210938"/>
   </g>
  </g>
 </g>
 <defs>
  <clipPath id="p2321d918db">
   <rect x="108" y="77.76" width="669.6" height="226.8"/>
  </clipPath>
  <clipPath id="p516d397bbe">
   <rect x="108" y="349.92" width="669.6" height="226.8"/>
  </clipPath>
 </defs>
</svg>
