<?xml version="1.0" encoding="utf-8" standalone="no"?>
<!DOCTYPE svg PUBLIC "-//W3C//DTD SVG 1.1//EN"
  "http://www.w3.org/Graphics/SVG/1.1/DTD/svg11.dtd">
<svg xmlns:xlink="http://www.w3.org/1999/xlink" width="864pt" height="648pt" viewBox="0 0 864 648" xmlns="http://www.w3.org/2000/svg" version="1.1">
 <metadata>
  <rdf:RDF xmlns:dc="http://purl.org/dc/elements/1.1/" xmlns:cc="http://creativecommons.org/ns#" xmlns:rdf="http://www.w3.org/1999/02/22-rdf-syntax-ns#">
   <cc:Work>
    <dc:type rdf:resource="http://purl.org/dc/dcmitype/StillImage"/>
    <dc:date>2022-03-19T00:16:04.991396</dc:date>
    <dc:format>image/svg+xml</dc:format>
    <dc:creator>
     <cc:Agent>
      <dc:title>Matplotlib v3.5.0, https://matplotlib.org/</dc:title>
     </cc:Agent>
    </dc:creator>
   </cc:Work>
  </rdf:RDF>
 </metadata>
 <defs>
  <style type="text/css">*{stroke-linejoin: round; stroke-linecap: butt}</style>
 </defs>
 <g id="figure_1">
  <g id="patch_1">
   <path d="M 0 648 
L 864 648 
L 864 0 
L 0 0 
z
" style="fill: #ffffff"/>
  </g>
  <g id="axes_1">
   <g id="patch_2">
    <path d="M 108 304.56 
L 777.6 304.56 
L 777.6 77.76 
L 108 77.76 
z
" style="fill: #eaeaf2"/>
   </g>
   <g id="matplotlib.axis_1">
    <g id="xtick_1">
     <g id="line2d_1"/>
     <g id="text_1">
      <!-- 0 -->
      <g style="fill: #262626" transform="translate(135.655895 318.806875)scale(0.1 -0.1)">
       <defs>
        <path id="LiberationSans-30" d="M 3309 2203 
Q 3309 1569 3189 1136 
Q 3069 703 2861 436 
Q 2653 169 2372 53 
Q 2091 -63 1772 -63 
Q 1450 -63 1172 53 
Q 894 169 689 434 
Q 484 700 367 1133 
Q 250 1566 250 2203 
Q 250 2869 367 3305 
Q 484 3741 690 4000 
Q 897 4259 1178 4364 
Q 1459 4469 1791 4469 
Q 2106 4469 2382 4364 
Q 2659 4259 2865 4000 
Q 3072 3741 3190 3305 
Q 3309 2869 3309 2203 
z
M 2738 2203 
Q 2738 2728 2675 3076 
Q 2613 3425 2491 3633 
Q 2369 3841 2192 3927 
Q 2016 4013 1791 4013 
Q 1553 4013 1372 3925 
Q 1191 3838 1067 3630 
Q 944 3422 881 3073 
Q 819 2725 819 2203 
Q 819 1697 883 1350 
Q 947 1003 1070 792 
Q 1194 581 1372 489 
Q 1550 397 1778 397 
Q 2000 397 2178 489 
Q 2356 581 2479 792 
Q 2603 1003 2670 1350 
Q 2738 1697 2738 2203 
z
" transform="scale(0.015625)"/>
       </defs>
       <use xlink:href="#LiberationSans-30"/>
      </g>
     </g>
    </g>
    <g id="xtick_2">
     <g id="line2d_2"/>
     <g id="text_2">
      <!-- 25 -->
      <g style="fill: #262626" transform="translate(209.348702 318.806875)scale(0.1 -0.1)">
       <defs>
        <path id="LiberationSans-32" d="M 322 0 
L 322 397 
Q 481 763 711 1042 
Q 941 1322 1194 1548 
Q 1447 1775 1695 1969 
Q 1944 2163 2144 2356 
Q 2344 2550 2467 2762 
Q 2591 2975 2591 3244 
Q 2591 3431 2534 3573 
Q 2478 3716 2372 3812 
Q 2266 3909 2117 3957 
Q 1969 4006 1788 4006 
Q 1619 4006 1470 3959 
Q 1322 3913 1206 3819 
Q 1091 3725 1017 3586 
Q 944 3447 922 3263 
L 347 3316 
Q 375 3553 478 3762 
Q 581 3972 762 4130 
Q 944 4288 1198 4378 
Q 1453 4469 1788 4469 
Q 2116 4469 2372 4391 
Q 2628 4313 2804 4159 
Q 2981 4006 3075 3781 
Q 3169 3556 3169 3263 
Q 3169 3041 3089 2841 
Q 3009 2641 2876 2459 
Q 2744 2278 2569 2109 
Q 2394 1941 2203 1780 
Q 2013 1619 1819 1461 
Q 1625 1303 1454 1143 
Q 1284 984 1150 820 
Q 1016 656 941 478 
L 3238 478 
L 3238 0 
L 322 0 
z
" transform="scale(0.015625)"/>
        <path id="LiberationSans-35" d="M 3291 1434 
Q 3291 1103 3191 828 
Q 3091 553 2894 354 
Q 2697 156 2405 46 
Q 2113 -63 1728 -63 
Q 1381 -63 1123 18 
Q 866 100 687 242 
Q 509 384 404 575 
Q 300 766 256 984 
L 825 1050 
Q 859 925 921 808 
Q 984 691 1092 598 
Q 1200 506 1358 451 
Q 1516 397 1741 397 
Q 1959 397 2137 464 
Q 2316 531 2442 662 
Q 2569 794 2637 984 
Q 2706 1175 2706 1422 
Q 2706 1625 2640 1795 
Q 2575 1966 2453 2089 
Q 2331 2213 2154 2281 
Q 1978 2350 1753 2350 
Q 1613 2350 1494 2325 
Q 1375 2300 1273 2256 
Q 1172 2213 1089 2155 
Q 1006 2097 934 2034 
L 384 2034 
L 531 4403 
L 3034 4403 
L 3034 3925 
L 1044 3925 
L 959 2528 
Q 1109 2644 1334 2726 
Q 1559 2809 1869 2809 
Q 2197 2809 2459 2709 
Q 2722 2609 2906 2426 
Q 3091 2244 3191 1991 
Q 3291 1738 3291 1434 
z
" transform="scale(0.015625)"/>
       </defs>
       <use xlink:href="#LiberationSans-32"/>
       <use xlink:href="#LiberationSans-35" x="55.615234"/>
      </g>
     </g>
    </g>
    <g id="xtick_3">
     <g id="line2d_3"/>
     <g id="text_3">
      <!-- 50 -->
      <g style="fill: #262626" transform="translate(285.821977 318.806875)scale(0.1 -0.1)">
       <use xlink:href="#LiberationSans-35"/>
       <use xlink:href="#LiberationSans-30" x="55.615234"/>
      </g>
     </g>
    </g>
    <g id="xtick_4">
     <g id="line2d_4"/>
     <g id="text_4">
      <!-- 75 -->
      <g style="fill: #262626" transform="translate(362.295253 318.806875)scale(0.1 -0.1)">
       <defs>
        <path id="LiberationSans-37" d="M 3238 3947 
Q 2906 3441 2628 2973 
Q 2350 2506 2150 2032 
Q 1950 1559 1839 1061 
Q 1728 563 1728 0 
L 1141 0 
Q 1141 528 1266 1036 
Q 1391 1544 1603 2033 
Q 1816 2522 2097 2994 
Q 2378 3466 2694 3925 
L 328 3925 
L 328 4403 
L 3238 4403 
L 3238 3947 
z
" transform="scale(0.015625)"/>
       </defs>
       <use xlink:href="#LiberationSans-37"/>
       <use xlink:href="#LiberationSans-35" x="55.615234"/>
      </g>
     </g>
    </g>
    <g id="xtick_5">
     <g id="line2d_5"/>
     <g id="text_5">
      <!-- 100 -->
      <g style="fill: #262626" transform="translate(435.988059 318.806875)scale(0.1 -0.1)">
       <defs>
        <path id="LiberationSans-31" d="M 488 0 
L 488 478 
L 1609 478 
L 1609 3866 
L 616 3156 
L 616 3688 
L 1656 4403 
L 2175 4403 
L 2175 478 
L 3247 478 
L 3247 0 
L 488 0 
z
" transform="scale(0.015625)"/>
       </defs>
       <use xlink:href="#LiberationSans-31"/>
       <use xlink:href="#LiberationSans-30" x="55.615234"/>
       <use xlink:href="#LiberationSans-30" x="111.230469"/>
      </g>
     </g>
    </g>
    <g id="xtick_6">
     <g id="line2d_6"/>
     <g id="text_6">
      <!-- 125 -->
      <g style="fill: #262626" transform="translate(512.461335 318.806875)scale(0.1 -0.1)">
       <use xlink:href="#LiberationSans-31"/>
       <use xlink:href="#LiberationSans-32" x="55.615234"/>
       <use xlink:href="#LiberationSans-35" x="111.230469"/>
      </g>
     </g>
    </g>
    <g id="xtick_7">
     <g id="line2d_7"/>
     <g id="text_7">
      <!-- 150 -->
      <g style="fill: #262626" transform="translate(588.93461 318.806875)scale(0.1 -0.1)">
       <use xlink:href="#LiberationSans-31"/>
       <use xlink:href="#LiberationSans-35" x="55.615234"/>
       <use xlink:href="#LiberationSans-30" x="111.230469"/>
      </g>
     </g>
    </g>
    <g id="xtick_8">
     <g id="line2d_8"/>
     <g id="text_8">
      <!-- 175 -->
      <g style="fill: #262626" transform="translate(665.407886 318.806875)scale(0.1 -0.1)">
       <use xlink:href="#LiberationSans-31"/>
       <use xlink:href="#LiberationSans-37" x="55.615234"/>
       <use xlink:href="#LiberationSans-35" x="111.230469"/>
      </g>
     </g>
    </g>
    <g id="xtick_9">
     <g id="line2d_9"/>
     <g id="text_9">
      <!-- 200 -->
      <g style="fill: #262626" transform="translate(741.881161 318.806875)scale(0.1 -0.1)">
       <use xlink:href="#LiberationSans-32"/>
       <use xlink:href="#LiberationSans-30" x="55.615234"/>
       <use xlink:href="#LiberationSans-30" x="111.230469"/>
      </g>
     </g>
    </g>
   </g>
   <g id="matplotlib.axis_2">
    <g id="ytick_1">
     <g id="line2d_10"/>
     <g id="text_10">
      <!-- 10 -->
      <g style="fill: #262626" transform="translate(89.878125 281.658218)scale(0.1 -0.1)">
       <use xlink:href="#LiberationSans-31"/>
       <use xlink:href="#LiberationSans-30" x="55.615234"/>
      </g>
     </g>
    </g>
    <g id="ytick_2">
     <g id="line2d_11"/>
     <g id="text_11">
      <!-- 12 -->
      <g style="fill: #262626" transform="translate(89.878125 249.084804)scale(0.1 -0.1)">
       <use xlink:href="#LiberationSans-31"/>
       <use xlink:href="#LiberationSans-32" x="55.615234"/>
      </g>
     </g>
    </g>
    <g id="ytick_3">
     <g id="line2d_12"/>
     <g id="text_12">
      <!-- 14 -->
      <g style="fill: #262626" transform="translate(89.878125 216.51139)scale(0.1 -0.1)">
       <defs>
        <path id="LiberationSans-34" d="M 2753 997 
L 2753 0 
L 2222 0 
L 2222 997 
L 147 997 
L 147 1434 
L 2163 4403 
L 2753 4403 
L 2753 1441 
L 3372 1441 
L 3372 997 
L 2753 997 
z
M 2222 3769 
Q 2216 3753 2191 3708 
Q 2166 3663 2134 3606 
Q 2103 3550 2070 3492 
Q 2038 3434 2013 3397 
L 884 1734 
Q 869 1709 839 1668 
Q 809 1628 778 1586 
Q 747 1544 715 1503 
Q 684 1463 666 1441 
L 2222 1441 
L 2222 3769 
z
" transform="scale(0.015625)"/>
       </defs>
       <use xlink:href="#LiberationSans-31"/>
       <use xlink:href="#LiberationSans-34" x="55.615234"/>
      </g>
     </g>
    </g>
    <g id="ytick_4">
     <g id="line2d_13"/>
     <g id="text_13">
      <!-- 16 -->
      <g style="fill: #262626" transform="translate(89.878125 183.937976)scale(0.1 -0.1)">
       <defs>
        <path id="LiberationSans-36" d="M 3278 1441 
Q 3278 1109 3186 832 
Q 3094 556 2914 357 
Q 2734 159 2468 48 
Q 2203 -63 1856 -63 
Q 1472 -63 1184 84 
Q 897 231 706 507 
Q 516 784 420 1186 
Q 325 1588 325 2100 
Q 325 2688 433 3131 
Q 541 3575 744 3872 
Q 947 4169 1239 4319 
Q 1531 4469 1900 4469 
Q 2125 4469 2322 4422 
Q 2519 4375 2680 4270 
Q 2841 4166 2962 3994 
Q 3084 3822 3156 3572 
L 2619 3475 
Q 2531 3759 2339 3886 
Q 2147 4013 1894 4013 
Q 1663 4013 1475 3903 
Q 1288 3794 1156 3576 
Q 1025 3359 954 3031 
Q 884 2703 884 2266 
Q 1038 2550 1316 2698 
Q 1594 2847 1953 2847 
Q 2253 2847 2497 2750 
Q 2741 2653 2914 2470 
Q 3088 2288 3183 2027 
Q 3278 1766 3278 1441 
z
M 2706 1416 
Q 2706 1644 2650 1828 
Q 2594 2013 2481 2142 
Q 2369 2272 2203 2342 
Q 2038 2413 1819 2413 
Q 1666 2413 1509 2367 
Q 1353 2322 1226 2220 
Q 1100 2119 1020 1953 
Q 941 1788 941 1550 
Q 941 1306 1003 1095 
Q 1066 884 1183 728 
Q 1300 572 1465 481 
Q 1631 391 1838 391 
Q 2041 391 2202 461 
Q 2363 531 2475 664 
Q 2588 797 2647 987 
Q 2706 1178 2706 1416 
z
" transform="scale(0.015625)"/>
       </defs>
       <use xlink:href="#LiberationSans-31"/>
       <use xlink:href="#LiberationSans-36" x="55.615234"/>
      </g>
     </g>
    </g>
    <g id="ytick_5">
     <g id="line2d_14"/>
     <g id="text_14">
      <!-- 18 -->
      <g style="fill: #262626" transform="translate(89.878125 151.364562)scale(0.1 -0.1)">
       <defs>
        <path id="LiberationSans-38" d="M 3281 1228 
Q 3281 947 3192 711 
Q 3103 475 2920 303 
Q 2738 131 2453 34 
Q 2169 -63 1781 -63 
Q 1394 -63 1111 34 
Q 828 131 642 301 
Q 456 472 367 708 
Q 278 944 278 1222 
Q 278 1463 351 1650 
Q 425 1838 548 1973 
Q 672 2109 830 2192 
Q 988 2275 1156 2303 
L 1156 2316 
Q 972 2359 826 2456 
Q 681 2553 582 2689 
Q 484 2825 432 2990 
Q 381 3156 381 3341 
Q 381 3572 470 3776 
Q 559 3981 734 4136 
Q 909 4291 1168 4380 
Q 1428 4469 1769 4469 
Q 2128 4469 2392 4378 
Q 2656 4288 2829 4133 
Q 3003 3978 3087 3772 
Q 3172 3566 3172 3334 
Q 3172 3153 3120 2987 
Q 3069 2822 2970 2686 
Q 2872 2550 2726 2454 
Q 2581 2359 2391 2322 
L 2391 2309 
Q 2581 2278 2743 2195 
Q 2906 2113 3025 1977 
Q 3144 1841 3212 1653 
Q 3281 1466 3281 1228 
z
M 2588 3303 
Q 2588 3469 2545 3606 
Q 2503 3744 2406 3842 
Q 2309 3941 2153 3995 
Q 1997 4050 1769 4050 
Q 1547 4050 1394 3995 
Q 1241 3941 1142 3842 
Q 1044 3744 1000 3606 
Q 956 3469 956 3303 
Q 956 3172 990 3034 
Q 1025 2897 1115 2784 
Q 1206 2672 1365 2600 
Q 1525 2528 1775 2528 
Q 2041 2528 2202 2600 
Q 2363 2672 2448 2784 
Q 2534 2897 2561 3034 
Q 2588 3172 2588 3303 
z
M 2697 1281 
Q 2697 1441 2653 1589 
Q 2609 1738 2503 1852 
Q 2397 1966 2217 2036 
Q 2038 2106 1769 2106 
Q 1522 2106 1348 2036 
Q 1175 1966 1067 1850 
Q 959 1734 909 1582 
Q 859 1431 859 1269 
Q 859 1066 909 898 
Q 959 731 1068 611 
Q 1178 491 1356 425 
Q 1534 359 1788 359 
Q 2044 359 2219 425 
Q 2394 491 2500 611 
Q 2606 731 2651 901 
Q 2697 1072 2697 1281 
z
" transform="scale(0.015625)"/>
       </defs>
       <use xlink:href="#LiberationSans-31"/>
       <use xlink:href="#LiberationSans-38" x="55.615234"/>
      </g>
     </g>
    </g>
    <g id="ytick_6">
     <g id="line2d_15"/>
     <g id="text_15">
      <!-- 20 -->
      <g style="fill: #262626" transform="translate(89.878125 118.791148)scale(0.1 -0.1)">
       <use xlink:href="#LiberationSans-32"/>
       <use xlink:href="#LiberationSans-30" x="55.615234"/>
      </g>
     </g>
    </g>
    <g id="ytick_7">
     <g id="line2d_16"/>
     <g id="text_16">
      <!-- 22 -->
      <g style="fill: #262626" transform="translate(89.878125 86.217734)scale(0.1 -0.1)">
       <use xlink:href="#LiberationSans-32"/>
       <use xlink:href="#LiberationSans-32" x="55.615234"/>
      </g>
     </g>
    </g>
   </g>
   <g id="line2d_17">
    <path d="M 138.436364 98.963293 
L 141.495295 106.276201 
L 147.613157 112.49036 
L 150.672088 114.997042 
L 153.731019 118.242157 
L 156.78995 120.080581 
L 159.848881 123.35151 
L 162.907812 126.128794 
L 165.966743 128.247792 
L 169.025674 130.068975 
L 172.084605 133.105864 
L 175.143536 135.262171 
L 178.202467 137.646769 
L 181.261398 139.541078 
L 184.320329 141.698875 
L 187.37926 143.603311 
L 190.438191 145.746042 
L 193.497122 147.547034 
L 196.556053 148.985037 
L 199.614984 151.209685 
L 202.673915 153.830436 
L 205.732846 154.876002 
L 208.791777 156.845394 
L 211.850708 159.214926 
L 214.909639 160.132197 
L 217.96857 161.927441 
L 221.027501 163.373024 
L 224.086432 165.195574 
L 227.145363 167.404131 
L 230.204294 168.769102 
L 233.263225 170.490226 
L 236.322156 171.61743 
L 242.440018 174.432799 
L 245.498949 176.099965 
L 248.55788 176.866076 
L 251.616811 178.380529 
L 254.675742 180.625913 
L 257.734673 181.373105 
L 260.793604 183.029833 
L 263.852535 184.276449 
L 266.911466 185.754572 
L 269.970397 186.922548 
L 273.029328 187.874564 
L 276.088259 188.945852 
L 282.206122 192.026822 
L 285.265053 192.710146 
L 297.500777 197.353874 
L 300.559708 199.088947 
L 306.67757 200.982634 
L 309.736501 201.668506 
L 312.795432 203.35198 
L 315.854363 204.257074 
L 318.913294 205.006565 
L 321.972225 205.524192 
L 325.031156 206.995387 
L 328.090087 208.031386 
L 331.149018 208.814489 
L 334.207949 210.173294 
L 337.26688 211.221843 
L 340.325811 211.752361 
L 343.384742 212.560626 
L 346.443673 213.865426 
L 352.561535 215.31806 
L 355.620466 216.514119 
L 358.679397 217.851908 
L 361.738328 218.500114 
L 364.797259 218.464483 
L 367.85619 220.168103 
L 370.915121 220.835351 
L 383.150845 224.613143 
L 386.209776 224.747761 
L 389.268707 225.892889 
L 392.327638 226.693559 
L 398.4455 228.058157 
L 401.504431 229.678882 
L 407.622293 230.566874 
L 410.681224 231.731774 
L 413.740155 232.383304 
L 416.799086 232.716175 
L 419.858017 234.192962 
L 422.916948 234.353472 
L 425.975879 234.998805 
L 429.03481 236.219714 
L 435.152672 237.417108 
L 438.211603 238.451026 
L 441.270534 239.051113 
L 444.329466 238.809991 
L 447.388397 240.124948 
L 450.447328 240.730844 
L 453.506259 242.134568 
L 456.56519 242.624656 
L 459.624121 242.917531 
L 465.741983 244.176744 
L 468.800914 245.215336 
L 471.859845 245.448009 
L 477.977707 247.092606 
L 481.036638 247.419994 
L 487.1545 248.868575 
L 490.213431 249.73973 
L 493.272362 250.398622 
L 496.331293 250.653211 
L 499.390224 251.790184 
L 502.449155 252.049402 
L 505.508086 252.430019 
L 508.567017 253.293812 
L 511.625948 253.87352 
L 520.802741 256.27494 
L 523.861672 256.246392 
L 526.920603 256.961666 
L 529.979534 257.319466 
L 533.038465 257.83933 
L 536.097396 259.128379 
L 542.215258 260.149389 
L 545.274189 260.34275 
L 548.33312 261.344469 
L 554.450982 262.079298 
L 560.568844 263.499672 
L 563.627775 264.439278 
L 569.745637 264.653483 
L 575.863499 266.56146 
L 578.92243 266.674255 
L 581.981361 267.599866 
L 588.099223 268.749933 
L 591.158154 269.052299 
L 594.217085 269.659158 
L 597.276016 269.963931 
L 600.334947 270.138855 
L 603.393878 271.077374 
L 606.45281 271.699283 
L 612.570672 272.69114 
L 615.629603 273.016741 
L 618.688534 273.700423 
L 621.747465 274.249782 
L 624.806396 274.995763 
L 627.865327 275.093678 
L 630.924258 275.960282 
L 633.983189 276.406492 
L 637.04212 277.022826 
L 640.101051 277.418649 
L 643.159982 278.260168 
L 646.218913 278.802755 
L 649.277844 278.75737 
L 652.336775 279.71299 
L 658.454637 280.74321 
L 661.513568 281.217626 
L 664.572499 281.513515 
L 670.690361 282.374062 
L 673.749292 282.636028 
L 679.867154 283.919533 
L 682.926085 284.263462 
L 685.985016 285.008527 
L 689.043947 285.266207 
L 692.102878 285.888505 
L 695.161809 286.183368 
L 698.22074 286.833423 
L 701.279671 287.185336 
L 707.397533 288.512331 
L 713.515395 289.1526 
L 716.574326 289.567077 
L 719.633257 289.869147 
L 722.692188 290.35164 
L 725.751119 290.515179 
L 728.81005 291.341523 
L 731.868981 291.830711 
L 734.927912 292.553316 
L 737.986843 292.961223 
L 741.045774 293.588973 
L 747.163636 294.250909 
L 747.163636 294.250909 
" clip-path="url(#pdbb2eb4589)" style="fill: none; stroke: #ff0000; stroke-width: 1.75; stroke-linecap: round"/>
   </g>
   <g id="line2d_18">
    <path d="M 138.436364 88.069091 
L 141.495295 91.295784 
L 147.613157 107.81942 
L 150.672088 115.387677 
L 153.731019 119.676463 
L 156.78995 122.251114 
L 159.848881 124.254118 
L 165.966743 129.35002 
L 169.025674 131.402384 
L 175.143536 135.913405 
L 178.202467 138.224102 
L 181.261398 139.930036 
L 184.320329 141.97131 
L 187.37926 144.229881 
L 193.497122 148.103553 
L 196.556053 149.699736 
L 199.614984 151.106023 
L 202.673915 153.34145 
L 205.732846 155.074131 
L 208.791777 157.028705 
L 211.850708 158.194832 
L 214.909639 160.217997 
L 217.96857 161.839404 
L 221.027501 163.1762 
L 224.086432 164.387992 
L 227.145363 166.277393 
L 230.204294 167.198236 
L 233.263225 169.523967 
L 236.322156 170.304026 
L 239.381087 172.403702 
L 242.440018 173.445385 
L 245.498949 174.672399 
L 248.55788 176.150041 
L 251.616811 177.431169 
L 254.675742 178.549271 
L 257.734673 179.801602 
L 260.793604 180.691707 
L 263.852535 182.423471 
L 266.911466 183.850043 
L 273.029328 186.131042 
L 276.088259 186.953612 
L 279.14719 187.928305 
L 282.206122 189.602989 
L 285.265053 188.677937 
L 288.323984 191.400765 
L 291.382915 192.656902 
L 294.441846 192.041189 
L 297.500777 193.282539 
L 300.559708 195.667666 
L 303.618639 196.292465 
L 309.736501 197.729179 
L 312.795432 199.624451 
L 315.854363 200.838511 
L 318.913294 200.853453 
L 321.972225 201.948194 
L 325.031156 201.59378 
L 328.090087 204.278601 
L 331.149018 205.01458 
L 334.207949 206.019747 
L 337.26688 205.037179 
L 340.325811 207.609469 
L 343.384742 208.211529 
L 346.443673 209.592374 
L 349.502604 209.26278 
L 352.561535 209.814578 
L 355.620466 211.479973 
L 358.679397 212.797881 
L 361.738328 213.14557 
L 364.797259 214.052666 
L 370.915121 214.577174 
L 373.974052 216.348918 
L 377.032983 216.60683 
L 380.091914 216.153321 
L 383.150845 218.274027 
L 386.209776 217.723534 
L 389.268707 220.136371 
L 392.327638 220.536139 
L 395.386569 220.390027 
L 398.4455 222.248146 
L 401.504431 222.045233 
L 404.563362 223.048552 
L 407.622293 223.871759 
L 410.681224 224.205454 
L 413.740155 225.916125 
L 419.858017 226.251823 
L 422.916948 226.138546 
L 425.975879 228.046524 
L 429.03481 227.784992 
L 432.093741 228.15455 
L 435.152672 228.680937 
L 438.211603 230.508954 
L 441.270534 231.603758 
L 444.329466 230.556467 
L 447.388397 232.918265 
L 450.447328 232.958478 
L 453.506259 233.33021 
L 456.56519 235.004458 
L 462.683052 234.621248 
L 465.741983 236.187174 
L 468.800914 235.889282 
L 471.859845 235.718894 
L 474.918776 235.412909 
L 477.977707 237.873585 
L 481.036638 236.319385 
L 484.095569 238.957391 
L 487.1545 239.107728 
L 490.213431 238.446599 
L 493.272362 239.621968 
L 496.331293 240.458347 
L 499.390224 241.928114 
L 502.449155 242.081665 
L 505.508086 243.795459 
L 508.567017 244.041023 
L 511.625948 243.918986 
L 514.684879 244.918484 
L 517.74381 244.976357 
L 520.802741 245.411741 
L 523.861672 245.08718 
L 526.920603 246.747449 
L 529.979534 246.484365 
L 533.038465 247.899287 
L 536.097396 248.281783 
L 539.156327 248.796847 
L 542.215258 249.467497 
L 545.274189 249.097225 
L 548.33312 246.832177 
L 551.392051 251.45385 
L 554.450982 251.418343 
L 557.509913 251.71796 
L 560.568844 251.904657 
L 563.627775 253.089703 
L 566.686706 253.730562 
L 569.745637 254.169067 
L 572.804568 254.798759 
L 575.863499 252.986973 
L 578.92243 255.549959 
L 581.981361 252.941914 
L 585.040292 257.039327 
L 588.099223 254.172547 
L 591.158154 257.264777 
L 597.276016 256.629106 
L 600.334947 259.576546 
L 603.393878 258.813339 
L 606.45281 260.006136 
L 609.511741 257.908044 
L 612.570672 260.678649 
L 615.629603 260.739489 
L 618.688534 258.877083 
L 621.747465 261.558006 
L 624.806396 259.429129 
L 627.865327 262.604691 
L 630.924258 262.43598 
L 633.983189 263.026468 
L 637.04212 265.072309 
L 640.101051 263.185782 
L 643.159982 266.316284 
L 646.218913 265.612675 
L 649.277844 264.07191 
L 652.336775 266.618292 
L 655.395706 263.917815 
L 658.454637 266.952406 
L 661.513568 265.080432 
L 664.572499 269.549982 
L 667.63143 268.825575 
L 670.690361 264.161096 
L 673.749292 270.338102 
L 676.808223 270.784622 
L 679.867154 270.751088 
L 682.926085 271.29265 
L 685.985016 266.546844 
L 689.043947 271.801485 
L 692.102878 271.999537 
L 695.161809 271.033091 
L 698.22074 272.205401 
L 701.279671 274.162009 
L 704.338602 274.266091 
L 707.397533 275.071327 
L 710.456464 274.269181 
L 713.515395 275.850842 
L 716.574326 273.046097 
L 719.633257 275.582787 
L 722.692188 277.397587 
L 725.751119 278.004555 
L 728.81005 274.825608 
L 731.868981 278.487001 
L 734.927912 279.326812 
L 737.986843 279.333429 
L 741.045774 279.485815 
L 744.104705 280.252703 
L 747.163636 278.928628 
L 747.163636 278.928628 
" clip-path="url(#pdbb2eb4589)" style="fill: none; stroke: #008000; stroke-width: 1.75; stroke-linecap: round"/>
   </g>
   <g id="patch_3">
    <path d="M 108 304.56 
L 108 77.76 
" style="fill: none"/>
   </g>
   <g id="patch_4">
    <path d="M 777.6 304.56 
L 777.6 77.76 
" style="fill: none"/>
   </g>
   <g id="patch_5">
    <path d="M 108 304.56 
L 777.6 304.56 
" style="fill: none"/>
   </g>
   <g id="patch_6">
    <path d="M 108 77.76 
L 777.6 77.76 
" style="fill: none"/>
   </g>
  </g>
  <g id="axes_2">
   <g id="patch_7">
    <path d="M 108 576.72 
L 777.6 576.72 
L 777.6 349.92 
L 108 349.92 
z
" style="fill: #eaeaf2"/>
   </g>
   <g id="matplotlib.axis_3">
    <g id="xtick_10">
     <g id="line2d_19"/>
     <g id="text_17">
      <!-- 0 -->
      <g style="fill: #262626" transform="translate(135.655895 590.966875)scale(0.1 -0.1)">
       <use xlink:href="#LiberationSans-30"/>
      </g>
     </g>
    </g>
    <g id="xtick_11">
     <g id="line2d_20"/>
     <g id="text_18">
      <!-- 25 -->
      <g style="fill: #262626" transform="translate(209.348702 590.966875)scale(0.1 -0.1)">
       <use xlink:href="#LiberationSans-32"/>
       <use xlink:href="#LiberationSans-35" x="55.615234"/>
      </g>
     </g>
    </g>
    <g id="xtick_12">
     <g id="line2d_21"/>
     <g id="text_19">
      <!-- 50 -->
      <g style="fill: #262626" transform="translate(285.821977 590.966875)scale(0.1 -0.1)">
       <use xlink:href="#LiberationSans-35"/>
       <use xlink:href="#LiberationSans-30" x="55.615234"/>
      </g>
     </g>
    </g>
    <g id="xtick_13">
     <g id="line2d_22"/>
     <g id="text_20">
      <!-- 75 -->
      <g style="fill: #262626" transform="translate(362.295253 590.966875)scale(0.1 -0.1)">
       <use xlink:href="#LiberationSans-37"/>
       <use xlink:href="#LiberationSans-35" x="55.615234"/>
      </g>
     </g>
    </g>
    <g id="xtick_14">
     <g id="line2d_23"/>
     <g id="text_21">
      <!-- 100 -->
      <g style="fill: #262626" transform="translate(435.988059 590.966875)scale(0.1 -0.1)">
       <use xlink:href="#LiberationSans-31"/>
       <use xlink:href="#LiberationSans-30" x="55.615234"/>
       <use xlink:href="#LiberationSans-30" x="111.230469"/>
      </g>
     </g>
    </g>
    <g id="xtick_15">
     <g id="line2d_24"/>
     <g id="text_22">
      <!-- 125 -->
      <g style="fill: #262626" transform="translate(512.461335 590.966875)scale(0.1 -0.1)">
       <use xlink:href="#LiberationSans-31"/>
       <use xlink:href="#LiberationSans-32" x="55.615234"/>
       <use xlink:href="#LiberationSans-35" x="111.230469"/>
      </g>
     </g>
    </g>
    <g id="xtick_16">
     <g id="line2d_25"/>
     <g id="text_23">
      <!-- 150 -->
      <g style="fill: #262626" transform="translate(588.93461 590.966875)scale(0.1 -0.1)">
       <use xlink:href="#LiberationSans-31"/>
       <use xlink:href="#LiberationSans-35" x="55.615234"/>
       <use xlink:href="#LiberationSans-30" x="111.230469"/>
      </g>
     </g>
    </g>
    <g id="xtick_17">
     <g id="line2d_26"/>
     <g id="text_24">
      <!-- 175 -->
      <g style="fill: #262626" transform="translate(665.407886 590.966875)scale(0.1 -0.1)">
       <use xlink:href="#LiberationSans-31"/>
       <use xlink:href="#LiberationSans-37" x="55.615234"/>
       <use xlink:href="#LiberationSans-35" x="111.230469"/>
      </g>
     </g>
    </g>
    <g id="xtick_18">
     <g id="line2d_27"/>
     <g id="text_25">
      <!-- 200 -->
      <g style="fill: #262626" transform="translate(741.881161 590.966875)scale(0.1 -0.1)">
       <use xlink:href="#LiberationSans-32"/>
       <use xlink:href="#LiberationSans-30" x="55.615234"/>
       <use xlink:href="#LiberationSans-30" x="111.230469"/>
      </g>
     </g>
    </g>
   </g>
   <g id="matplotlib.axis_4">
    <g id="ytick_8">
     <g id="line2d_28"/>
     <g id="text_26">
      <!-- 0.0 -->
      <g style="fill: #262626" transform="translate(87.1 573.260081)scale(0.1 -0.1)">
       <defs>
        <path id="LiberationSans-2e" d="M 584 0 
L 584 684 
L 1194 684 
L 1194 0 
L 584 0 
z
" transform="scale(0.015625)"/>
       </defs>
       <use xlink:href="#LiberationSans-30"/>
       <use xlink:href="#LiberationSans-2e" x="55.615234"/>
       <use xlink:href="#LiberationSans-30" x="83.398438"/>
      </g>
     </g>
    </g>
    <g id="ytick_9">
     <g id="line2d_29"/>
     <g id="text_27">
      <!-- 0.2 -->
      <g style="fill: #262626" transform="translate(87.1 530.650378)scale(0.1 -0.1)">
       <use xlink:href="#LiberationSans-30"/>
       <use xlink:href="#LiberationSans-2e" x="55.615234"/>
       <use xlink:href="#LiberationSans-32" x="83.398438"/>
      </g>
     </g>
    </g>
    <g id="ytick_10">
     <g id="line2d_30"/>
     <g id="text_28">
      <!-- 0.4 -->
      <g style="fill: #262626" transform="translate(87.1 488.040674)scale(0.1 -0.1)">
       <use xlink:href="#LiberationSans-30"/>
       <use xlink:href="#LiberationSans-2e" x="55.615234"/>
       <use xlink:href="#LiberationSans-34" x="83.398438"/>
      </g>
     </g>
    </g>
    <g id="ytick_11">
     <g id="line2d_31"/>
     <g id="text_29">
      <!-- 0.6 -->
      <g style="fill: #262626" transform="translate(87.1 445.43097)scale(0.1 -0.1)">
       <use xlink:href="#LiberationSans-30"/>
       <use xlink:href="#LiberationSans-2e" x="55.615234"/>
       <use xlink:href="#LiberationSans-36" x="83.398438"/>
      </g>
     </g>
    </g>
    <g id="ytick_12">
     <g id="line2d_32"/>
     <g id="text_30">
      <!-- 0.8 -->
      <g style="fill: #262626" transform="translate(87.1 402.821266)scale(0.1 -0.1)">
       <use xlink:href="#LiberationSans-30"/>
       <use xlink:href="#LiberationSans-2e" x="55.615234"/>
       <use xlink:href="#LiberationSans-38" x="83.398438"/>
      </g>
     </g>
    </g>
    <g id="ytick_13">
     <g id="line2d_33"/>
     <g id="text_31">
      <!-- 1.0 -->
      <g style="fill: #262626" transform="translate(87.1 360.211563)scale(0.1 -0.1)">
       <use xlink:href="#LiberationSans-31"/>
       <use xlink:href="#LiberationSans-2e" x="55.615234"/>
       <use xlink:href="#LiberationSans-30" x="83.398438"/>
      </g>
     </g>
    </g>
   </g>
   <g id="line2d_34">
    <path d="M 138.436364 511.381189 
L 141.495295 495.464967 
L 144.554226 486.622621 
L 147.613157 481.005131 
L 150.672088 476.74 
L 153.731019 468.93793 
L 156.78995 470.914454 
L 159.848881 461.343915 
L 162.907812 456.766701 
L 165.966743 458.11906 
L 169.025674 459.055308 
L 172.084605 453.33379 
L 175.143536 450.837128 
L 178.202467 450.31699 
L 181.261398 447.30019 
L 184.320329 446.780052 
L 187.37926 445.11561 
L 190.438191 444.387417 
L 193.497122 441.474644 
L 196.556053 441.682699 
L 199.614984 437.417568 
L 202.673915 433.776602 
L 205.732846 435.128961 
L 208.791777 436.273264 
L 211.850708 427.638974 
L 214.909639 433.88063 
L 217.96857 432.632298 
L 224.086432 428.471195 
L 227.145363 426.806753 
L 230.204294 425.454394 
L 233.263225 423.789953 
L 236.322156 423.47787 
L 239.381087 422.437594 
L 242.440018 423.581898 
L 245.498949 422.749677 
L 248.55788 422.957732 
L 254.675742 416.195938 
L 257.734673 416.508021 
L 260.793604 415.25969 
L 263.852535 415.779828 
L 266.911466 413.803303 
L 269.970397 413.283165 
L 273.029328 414.635524 
L 276.088259 414.115386 
L 279.14719 411.722751 
L 282.206122 409.538172 
L 285.265053 411.722751 
L 288.323984 412.450945 
L 291.382915 408.393868 
L 294.441846 409.434144 
L 297.500777 407.249565 
L 300.559708 403.088461 
L 303.618639 404.752902 
L 306.67757 401.319992 
L 309.736501 405.481096 
L 312.795432 401.007909 
L 315.854363 399.65555 
L 318.913294 403.504571 
L 321.972225 404.336792 
L 325.031156 399.551523 
L 331.149018 400.695826 
L 334.207949 397.887081 
L 337.26688 399.447495 
L 340.325811 397.887081 
L 343.384742 396.534722 
L 346.443673 397.262915 
L 349.502604 393.725977 
L 352.561535 394.45417 
L 355.620466 395.390419 
L 358.679397 390.085011 
L 361.738328 391.957508 
L 364.797259 397.05486 
L 367.85619 391.333342 
L 370.915121 390.605149 
L 373.974052 391.229315 
L 377.032983 387.692377 
L 380.091914 389.564873 
L 383.150845 386.548073 
L 386.209776 389.772928 
L 389.268707 390.397094 
L 392.327638 387.380294 
L 398.4455 388.42057 
L 401.504431 380.098362 
L 404.563362 383.323217 
L 407.622293 384.363493 
L 410.681224 382.074886 
L 413.740155 383.739328 
L 416.799086 384.883631 
L 419.858017 380.514472 
L 422.916948 383.531273 
L 425.975879 382.074886 
L 429.03481 379.578224 
L 432.093741 381.658776 
L 435.152672 381.450721 
L 438.211603 379.058086 
L 441.270534 378.537948 
L 444.329466 382.490997 
L 447.388397 379.266141 
L 450.447328 378.954058 
L 453.506259 374.584899 
L 456.56519 376.041286 
L 459.624121 378.01781 
L 462.683052 378.954058 
L 465.741983 378.01781 
L 468.800914 376.769479 
L 471.859845 377.393644 
L 474.918776 373.856706 
L 477.977707 373.960734 
L 481.036638 376.145313 
L 484.095569 375.83323 
L 487.1545 373.752679 
L 490.213431 372.920458 
L 493.272362 372.504347 
L 496.331293 374.584899 
L 499.390224 370.527823 
L 505.508086 374.584899 
L 508.567017 373.232541 
L 511.625948 371.256016 
L 514.684879 370.735878 
L 517.74381 372.192265 
L 520.802741 368.343243 
L 523.861672 372.088237 
L 526.920603 370.423795 
L 529.979534 370.735878 
L 533.038465 372.81643 
L 536.097396 368.551299 
L 539.156327 368.967409 
L 542.215258 370.527823 
L 545.274189 370.21574 
L 548.33312 368.031161 
L 551.392051 369.903657 
L 554.450982 370.423795 
L 557.509913 368.343243 
L 560.568844 367.823105 
L 563.627775 365.534498 
L 566.686706 367.61505 
L 569.745637 370.111713 
L 572.804568 368.967409 
L 575.863499 366.262692 
L 578.92243 368.343243 
L 581.981361 366.366719 
L 588.099223 365.950609 
L 591.158154 366.262692 
L 594.217085 366.158664 
L 597.276016 366.574774 
L 600.334947 369.175464 
L 603.393878 366.990885 
L 606.45281 366.78283 
L 609.511741 365.118388 
L 612.570672 365.430471 
L 615.629603 367.094912 
L 618.688534 366.262692 
L 621.747465 364.286167 
L 624.806396 365.01436 
L 627.865327 366.470747 
L 630.924258 365.01436 
L 633.983189 364.910333 
L 637.04212 364.18214 
L 640.101051 365.638526 
L 643.159982 362.517698 
L 646.218913 362.621726 
L 649.277844 366.054636 
L 652.336775 362.725753 
L 655.395706 362.933808 
L 658.454637 361.789505 
L 661.513568 364.078112 
L 664.572499 364.078112 
L 667.63143 363.245891 
L 670.690361 364.078112 
L 673.749292 365.638526 
L 679.867154 364.59825 
L 685.985016 363.870057 
L 689.043947 364.390195 
L 692.102878 362.309643 
L 695.161809 363.662002 
L 698.22074 363.870057 
L 704.338602 362.725753 
L 707.397533 361.373394 
L 710.456464 362.101588 
L 713.515395 361.99756 
L 716.574326 363.453946 
L 719.633257 364.390195 
L 722.692188 363.141864 
L 725.751119 364.286167 
L 728.81005 362.933808 
L 731.868981 362.101588 
L 737.986843 361.165339 
L 741.045774 360.229091 
L 744.104705 361.269367 
L 747.163636 361.373394 
L 747.163636 361.373394 
" clip-path="url(#pcf6aac4fcb)" style="fill: none; stroke: #ff0000; stroke-width: 1.75; stroke-linecap: round"/>
   </g>
   <g id="line2d_35">
    <path d="M 138.436364 566.410909 
L 141.495295 539.5923 
L 144.554226 526.239259 
L 147.613157 511.423387 
L 150.672088 483.029422 
L 153.731019 469.90143 
L 156.78995 464.612727 
L 159.848881 466.188088 
L 162.907812 460.899385 
L 165.966743 459.061467 
L 169.025674 458.236269 
L 172.084605 457.636142 
L 175.143536 453.472688 
L 178.202467 450.734561 
L 181.261398 452.122387 
L 184.320329 450.434491 
L 187.37926 447.358794 
L 190.438191 443.795481 
L 193.497122 443.945516 
L 196.556053 443.270365 
L 199.614984 446.87119 
L 202.673915 441.957562 
L 205.732846 441.169889 
L 208.791777 438.694319 
L 211.850708 440.569749 
L 214.909639 438.844354 
L 217.96857 436.406308 
L 221.027501 437.118958 
L 224.086432 439.33197 
L 227.145363 435.206029 
L 230.204294 436.818901 
L 233.263225 432.805483 
L 236.322156 435.993703 
L 239.381087 431.342646 
L 242.440018 431.980297 
L 245.498949 430.892541 
L 248.55788 432.430402 
L 251.616811 428.454496 
L 254.675742 432.055308 
L 257.734673 430.104867 
L 260.793604 432.542925 
L 263.852535 429.24217 
L 266.911466 427.704321 
L 269.970397 426.391519 
L 273.029328 426.128961 
L 276.088259 428.491995 
L 279.14719 429.24217 
L 282.206122 426.016438 
L 285.265053 436.256274 
L 288.323984 427.06667 
L 291.382915 425.341287 
L 294.441846 432.09282 
L 297.500777 431.905274 
L 300.559708 423.615892 
L 303.618639 426.354007 
L 306.67757 426.654077 
L 309.736501 426.128961 
L 312.795432 420.840252 
L 315.854363 421.365381 
L 318.913294 426.691589 
L 321.972225 425.341287 
L 325.031156 433.593157 
L 328.090087 422.528148 
L 331.149018 422.753194 
L 334.207949 421.552915 
L 337.26688 427.704321 
L 340.325811 422.565647 
L 343.384742 421.252858 
L 346.443673 420.765241 
L 349.502604 425.641357 
L 352.561535 425.75388 
L 355.620466 421.290357 
L 358.679397 418.21466 
L 361.738328 421.102823 
L 364.797259 421.365381 
L 370.915121 424.553601 
L 373.974052 420.952788 
L 377.032983 422.340601 
L 380.091914 426.241484 
L 383.150845 420.465171 
L 386.209776 427.216705 
L 389.268707 419.189881 
L 392.327638 419.452439 
L 395.386569 423.27831 
L 398.4455 418.8148 
L 401.504431 422.378113 
L 404.563362 421.065311 
L 410.681224 422.640671 
L 413.740155 418.027113 
L 416.799086 418.889811 
L 419.858017 421.252858 
L 422.916948 424.816159 
L 425.975879 420.12759 
L 429.03481 423.540868 
L 432.093741 423.428345 
L 435.152672 425.228751 
L 438.211603 419.827532 
L 441.270534 416.864346 
L 444.329466 425.716368 
L 447.388397 417.577009 
L 450.447328 419.527463 
L 453.506259 420.240125 
L 456.56519 416.151696 
L 459.624121 418.439706 
L 462.683052 422.190567 
L 465.741983 417.91459 
L 468.800914 421.215346 
L 471.859845 426.278996 
L 474.918776 428.491995 
L 477.977707 419.527463 
L 481.036638 429.992344 
L 484.095569 420.352648 
L 487.1545 421.40288 
L 490.213431 425.566333 
L 493.272362 423.428345 
L 496.331293 422.940741 
L 499.390224 419.302404 
L 502.449155 421.327869 
L 505.508086 417.164416 
L 508.567017 417.614521 
L 511.625948 421.177834 
L 514.684879 418.327183 
L 517.74381 418.8148 
L 520.802741 420.202613 
L 523.861672 423.615892 
L 526.920603 419.11487 
L 529.979534 423.653404 
L 533.038465 419.865032 
L 536.097396 419.977567 
L 539.156327 420.577694 
L 542.215258 417.91459 
L 545.274189 422.828205 
L 548.33312 433.330599 
L 551.392051 418.402207 
L 554.450982 419.077358 
L 557.509913 421.065311 
L 560.568844 422.040532 
L 563.627775 419.677497 
L 566.686706 419.79002 
L 569.745637 417.91459 
L 572.804568 418.327183 
L 575.863499 423.203299 
L 578.92243 419.940055 
L 581.981361 428.416984 
L 585.040292 418.889811 
L 588.099223 426.841624 
L 591.158154 420.915276 
L 594.217085 421.890497 
L 597.276016 425.978926 
L 600.334947 417.539509 
L 603.393878 421.740462 
L 606.45281 419.227393 
L 609.511741 426.278996 
L 612.570672 418.8148 
L 615.629603 421.70295 
L 618.688534 427.741833 
L 621.747465 421.928009 
L 624.806396 425.75388 
L 627.865327 422.228078 
L 630.924258 421.477904 
L 633.983189 423.428345 
L 637.04212 418.139636 
L 640.101051 422.528148 
L 643.159982 416.676812 
L 646.218913 419.602474 
L 649.277844 428.191938 
L 652.336775 420.915276 
L 655.395706 426.954147 
L 658.454637 419.489951 
L 661.513568 428.041903 
L 664.572499 417.089405 
L 667.63143 420.502683 
L 670.690361 436.631354 
L 673.749292 418.627253 
L 676.808223 416.676812 
L 679.867154 421.627939 
L 682.926085 418.102137 
L 685.985016 433.480634 
L 689.043947 419.827532 
L 692.102878 418.8148 
L 695.161809 422.828205 
L 698.22074 423.165787 
L 701.279671 420.052578 
L 704.338602 421.065311 
L 707.397533 419.865032 
L 710.456464 420.840252 
L 713.515395 419.339916 
L 716.574326 430.629983 
L 719.633257 422.190567 
L 722.692188 416.93937 
L 725.751119 418.21466 
L 728.81005 428.717054 
L 731.868981 420.165101 
L 734.927912 415.889125 
L 737.986843 416.976882 
L 741.045774 421.365381 
L 744.104705 418.51473 
L 747.163636 425.078716 
L 747.163636 425.078716 
" clip-path="url(#pcf6aac4fcb)" style="fill: none; stroke: #008000; stroke-width: 1.75; stroke-linecap: round"/>
   </g>
   <g id="patch_8">
    <path d="M 108 576.72 
L 108 349.92 
" style="fill: none"/>
   </g>
   <g id="patch_9">
    <path d="M 777.6 576.72 
L 777.6 349.92 
" style="fill: none"/>
   </g>
   <g id="patch_10">
    <path d="M 108 576.72 
L 777.6 576.72 
" style="fill: none"/>
   </g>
   <g id="patch_11">
    <path d="M 108 349.92 
L 777.6 349.92 
" style="fill: none"/>
   </g>
  </g>
  <g id="text_32">
   <!-- Plots of model performance: mel_spectrogram, draghici20_crnn - lr 1e-05, batch 16, 128 steps/epoch -->
   <g style="fill: #262626" transform="translate(163.544062 21.65625)scale(0.12 -0.12)">
    <defs>
     <path id="LiberationSans-50" d="M 3931 3078 
Q 3931 2791 3836 2542 
Q 3741 2294 3552 2111 
Q 3363 1928 3078 1822 
Q 2794 1716 2416 1716 
L 1122 1716 
L 1122 0 
L 525 0 
L 525 4403 
L 2378 4403 
Q 2769 4403 3059 4308 
Q 3350 4213 3544 4039 
Q 3738 3866 3834 3620 
Q 3931 3375 3931 3078 
z
M 3331 3072 
Q 3331 3491 3075 3708 
Q 2819 3925 2306 3925 
L 1122 3925 
L 1122 2188 
L 2331 2188 
Q 2847 2188 3089 2416 
Q 3331 2644 3331 3072 
z
" transform="scale(0.015625)"/>
     <path id="LiberationSans-6c" d="M 431 0 
L 431 4638 
L 994 4638 
L 994 0 
L 431 0 
z
" transform="scale(0.015625)"/>
     <path id="LiberationSans-6f" d="M 3291 1694 
Q 3291 806 2900 371 
Q 2509 -63 1766 -63 
Q 1413 -63 1134 43 
Q 856 150 664 369 
Q 472 588 370 917 
Q 269 1247 269 1694 
Q 269 3444 1784 3444 
Q 2178 3444 2464 3334 
Q 2750 3225 2933 3006 
Q 3116 2788 3203 2459 
Q 3291 2131 3291 1694 
z
M 2700 1694 
Q 2700 2088 2639 2344 
Q 2578 2600 2461 2753 
Q 2344 2906 2175 2967 
Q 2006 3028 1794 3028 
Q 1578 3028 1404 2964 
Q 1231 2900 1109 2745 
Q 988 2591 923 2334 
Q 859 2078 859 1694 
Q 859 1300 928 1042 
Q 997 784 1117 631 
Q 1238 478 1402 415 
Q 1566 353 1759 353 
Q 1975 353 2150 414 
Q 2325 475 2447 628 
Q 2569 781 2634 1040 
Q 2700 1300 2700 1694 
z
" transform="scale(0.015625)"/>
     <path id="LiberationSans-74" d="M 1731 25 
Q 1603 -9 1470 -29 
Q 1338 -50 1163 -50 
Q 488 -50 488 716 
L 488 2972 
L 97 2972 
L 97 3381 
L 509 3381 
L 675 4138 
L 1050 4138 
L 1050 3381 
L 1675 3381 
L 1675 2972 
L 1050 2972 
L 1050 838 
Q 1050 594 1129 495 
Q 1209 397 1406 397 
Q 1488 397 1564 409 
Q 1641 422 1731 441 
L 1731 25 
z
" transform="scale(0.015625)"/>
     <path id="LiberationSans-73" d="M 2969 934 
Q 2969 697 2876 511 
Q 2784 325 2609 198 
Q 2434 72 2179 4 
Q 1925 -63 1597 -63 
Q 1303 -63 1067 -17 
Q 831 28 653 128 
Q 475 228 354 392 
Q 234 556 178 794 
L 675 891 
Q 747 619 972 492 
Q 1197 366 1597 366 
Q 1778 366 1929 391 
Q 2081 416 2190 477 
Q 2300 538 2361 639 
Q 2422 741 2422 891 
Q 2422 1044 2350 1142 
Q 2278 1241 2150 1306 
Q 2022 1372 1839 1420 
Q 1656 1469 1438 1528 
Q 1234 1581 1034 1647 
Q 834 1713 673 1820 
Q 513 1928 413 2087 
Q 313 2247 313 2488 
Q 313 2950 642 3192 
Q 972 3434 1603 3434 
Q 2163 3434 2492 3237 
Q 2822 3041 2909 2606 
L 2403 2544 
Q 2375 2675 2300 2764 
Q 2225 2853 2119 2908 
Q 2013 2963 1880 2986 
Q 1747 3009 1603 3009 
Q 1222 3009 1040 2893 
Q 859 2778 859 2544 
Q 859 2406 926 2317 
Q 994 2228 1114 2167 
Q 1234 2106 1403 2061 
Q 1572 2016 1775 1966 
Q 1909 1931 2050 1892 
Q 2191 1853 2323 1798 
Q 2456 1744 2573 1670 
Q 2691 1597 2778 1494 
Q 2866 1391 2917 1253 
Q 2969 1116 2969 934 
z
" transform="scale(0.015625)"/>
     <path id="LiberationSans-20" transform="scale(0.015625)"/>
     <path id="LiberationSans-66" d="M 1128 2972 
L 1128 0 
L 566 0 
L 566 2972 
L 91 2972 
L 91 3381 
L 566 3381 
L 566 3763 
Q 566 3947 600 4105 
Q 634 4263 726 4380 
Q 819 4497 978 4564 
Q 1138 4631 1391 4631 
Q 1491 4631 1598 4622 
Q 1706 4613 1788 4594 
L 1788 4166 
Q 1734 4175 1664 4183 
Q 1594 4191 1538 4191 
Q 1413 4191 1333 4156 
Q 1253 4122 1208 4058 
Q 1163 3994 1145 3900 
Q 1128 3806 1128 3684 
L 1128 3381 
L 1788 3381 
L 1788 2972 
L 1128 2972 
z
" transform="scale(0.015625)"/>
     <path id="LiberationSans-6d" d="M 2400 0 
L 2400 2144 
Q 2400 2391 2369 2556 
Q 2338 2722 2264 2823 
Q 2191 2925 2072 2967 
Q 1953 3009 1781 3009 
Q 1603 3009 1459 2939 
Q 1316 2869 1214 2736 
Q 1113 2603 1058 2408 
Q 1003 2213 1003 1959 
L 1003 0 
L 444 0 
L 444 2659 
Q 444 2766 442 2883 
Q 441 3000 437 3104 
Q 434 3209 431 3284 
Q 428 3359 425 3381 
L 956 3381 
Q 959 3366 962 3297 
Q 966 3228 970 3139 
Q 975 3050 978 2958 
Q 981 2866 981 2803 
L 991 2803 
Q 1066 2950 1153 3069 
Q 1241 3188 1358 3270 
Q 1475 3353 1626 3398 
Q 1778 3444 1978 3444 
Q 2363 3444 2586 3291 
Q 2809 3138 2897 2803 
L 2906 2803 
Q 2981 2950 3075 3069 
Q 3169 3188 3294 3270 
Q 3419 3353 3575 3398 
Q 3731 3444 3931 3444 
Q 4188 3444 4373 3375 
Q 4559 3306 4678 3162 
Q 4797 3019 4853 2792 
Q 4909 2566 4909 2253 
L 4909 0 
L 4353 0 
L 4353 2144 
Q 4353 2391 4322 2556 
Q 4291 2722 4217 2823 
Q 4144 2925 4025 2967 
Q 3906 3009 3734 3009 
Q 3556 3009 3412 2942 
Q 3269 2875 3167 2744 
Q 3066 2613 3011 2416 
Q 2956 2219 2956 1959 
L 2956 0 
L 2400 0 
z
" transform="scale(0.015625)"/>
     <path id="LiberationSans-64" d="M 2566 544 
Q 2409 219 2151 78 
Q 1894 -63 1513 -63 
Q 872 -63 570 368 
Q 269 800 269 1675 
Q 269 3444 1513 3444 
Q 1897 3444 2153 3303 
Q 2409 3163 2566 2856 
L 2572 2856 
Q 2572 2888 2570 2955 
Q 2569 3022 2567 3095 
Q 2566 3169 2566 3234 
Q 2566 3300 2566 3328 
L 2566 4638 
L 3128 4638 
L 3128 697 
Q 3128 575 3129 462 
Q 3131 350 3134 256 
Q 3138 163 3141 95 
Q 3144 28 3147 0 
L 2609 0 
Q 2603 31 2598 89 
Q 2594 147 2589 222 
Q 2584 297 2581 380 
Q 2578 463 2578 544 
L 2566 544 
z
M 859 1694 
Q 859 1344 903 1094 
Q 947 844 1044 683 
Q 1141 522 1291 447 
Q 1441 372 1656 372 
Q 1878 372 2048 444 
Q 2219 516 2333 677 
Q 2447 838 2506 1097 
Q 2566 1356 2566 1731 
Q 2566 2091 2506 2339 
Q 2447 2588 2331 2741 
Q 2216 2894 2048 2961 
Q 1881 3028 1663 3028 
Q 1456 3028 1306 2956 
Q 1156 2884 1056 2725 
Q 956 2566 907 2311 
Q 859 2056 859 1694 
z
" transform="scale(0.015625)"/>
     <path id="LiberationSans-65" d="M 863 1572 
Q 863 1306 917 1082 
Q 972 859 1086 698 
Q 1200 538 1378 448 
Q 1556 359 1806 359 
Q 2172 359 2392 506 
Q 2613 653 2691 878 
L 3184 738 
Q 3131 597 3036 455 
Q 2941 313 2781 198 
Q 2622 84 2383 10 
Q 2144 -63 1806 -63 
Q 1056 -63 664 384 
Q 272 831 272 1713 
Q 272 2188 390 2517 
Q 509 2847 715 3053 
Q 922 3259 1197 3351 
Q 1472 3444 1784 3444 
Q 2209 3444 2495 3306 
Q 2781 3169 2954 2926 
Q 3128 2684 3201 2356 
Q 3275 2028 3275 1647 
L 3275 1572 
L 863 1572 
z
M 2694 2003 
Q 2647 2538 2422 2783 
Q 2197 3028 1775 3028 
Q 1634 3028 1479 2983 
Q 1325 2938 1194 2822 
Q 1063 2706 972 2507 
Q 881 2309 869 2003 
L 2694 2003 
z
" transform="scale(0.015625)"/>
     <path id="LiberationSans-70" d="M 3291 1706 
Q 3291 1322 3228 997 
Q 3166 672 3020 437 
Q 2875 203 2636 70 
Q 2397 -63 2047 -63 
Q 1684 -63 1412 75 
Q 1141 213 997 525 
L 981 525 
Q 984 519 986 469 
Q 988 419 989 344 
Q 991 269 992 176 
Q 994 84 994 -6 
L 994 -1328 
L 431 -1328 
L 431 2691 
Q 431 2813 429 2925 
Q 428 3038 425 3130 
Q 422 3222 419 3287 
Q 416 3353 413 3381 
L 956 3381 
Q 959 3372 964 3315 
Q 969 3259 973 3179 
Q 978 3100 983 3009 
Q 988 2919 988 2838 
L 1000 2838 
Q 1078 3000 1178 3114 
Q 1278 3228 1406 3301 
Q 1534 3375 1692 3408 
Q 1850 3441 2047 3441 
Q 2397 3441 2636 3316 
Q 2875 3191 3020 2964 
Q 3166 2738 3228 2417 
Q 3291 2097 3291 1706 
z
M 2700 1694 
Q 2700 2006 2662 2250 
Q 2625 2494 2533 2662 
Q 2441 2831 2287 2918 
Q 2134 3006 1903 3006 
Q 1716 3006 1550 2953 
Q 1384 2900 1261 2750 
Q 1138 2600 1066 2336 
Q 994 2072 994 1650 
Q 994 1291 1053 1042 
Q 1113 794 1227 641 
Q 1341 488 1509 420 
Q 1678 353 1897 353 
Q 2131 353 2286 443 
Q 2441 534 2533 706 
Q 2625 878 2662 1126 
Q 2700 1375 2700 1694 
z
" transform="scale(0.015625)"/>
     <path id="LiberationSans-72" d="M 444 0 
L 444 2594 
Q 444 2700 442 2811 
Q 441 2922 437 3025 
Q 434 3128 431 3218 
Q 428 3309 425 3381 
L 956 3381 
Q 959 3309 964 3217 
Q 969 3125 973 3028 
Q 978 2931 979 2842 
Q 981 2753 981 2691 
L 994 2691 
Q 1053 2884 1120 3026 
Q 1188 3169 1278 3261 
Q 1369 3353 1494 3398 
Q 1619 3444 1797 3444 
Q 1866 3444 1928 3433 
Q 1991 3422 2025 3413 
L 2025 2897 
Q 1969 2913 1894 2920 
Q 1819 2928 1725 2928 
Q 1531 2928 1395 2840 
Q 1259 2753 1173 2598 
Q 1088 2444 1047 2230 
Q 1006 2016 1006 1763 
L 1006 0 
L 444 0 
z
" transform="scale(0.015625)"/>
     <path id="LiberationSans-61" d="M 1294 -63 
Q 784 -63 528 206 
Q 272 475 272 944 
Q 272 1278 398 1492 
Q 525 1706 729 1828 
Q 934 1950 1196 1997 
Q 1459 2044 1731 2050 
L 2491 2063 
L 2491 2247 
Q 2491 2456 2447 2603 
Q 2403 2750 2312 2840 
Q 2222 2931 2086 2973 
Q 1950 3016 1766 3016 
Q 1603 3016 1472 2992 
Q 1341 2969 1244 2908 
Q 1147 2847 1087 2742 
Q 1028 2638 1009 2478 
L 422 2531 
Q 453 2731 540 2898 
Q 628 3066 789 3187 
Q 950 3309 1192 3376 
Q 1434 3444 1778 3444 
Q 2416 3444 2737 3151 
Q 3059 2859 3059 2306 
L 3059 850 
Q 3059 600 3125 473 
Q 3191 347 3375 347 
Q 3422 347 3469 353 
Q 3516 359 3559 369 
L 3559 19 
Q 3453 -6 3348 -18 
Q 3244 -31 3125 -31 
Q 2966 -31 2852 11 
Q 2738 53 2666 139 
Q 2594 225 2556 351 
Q 2519 478 2509 647 
L 2491 647 
Q 2400 484 2292 353 
Q 2184 222 2040 130 
Q 1897 38 1714 -12 
Q 1531 -63 1294 -63 
z
M 1422 359 
Q 1691 359 1892 457 
Q 2094 556 2226 709 
Q 2359 863 2425 1044 
Q 2491 1225 2491 1391 
L 2491 1669 
L 1875 1656 
Q 1669 1653 1483 1626 
Q 1297 1600 1156 1522 
Q 1016 1444 933 1303 
Q 850 1163 850 934 
Q 850 659 998 509 
Q 1147 359 1422 359 
z
" transform="scale(0.015625)"/>
     <path id="LiberationSans-6e" d="M 2578 0 
L 2578 2144 
Q 2578 2391 2542 2556 
Q 2506 2722 2425 2823 
Q 2344 2925 2211 2967 
Q 2078 3009 1881 3009 
Q 1681 3009 1520 2939 
Q 1359 2869 1245 2736 
Q 1131 2603 1068 2408 
Q 1006 2213 1006 1959 
L 1006 0 
L 444 0 
L 444 2659 
Q 444 2766 442 2883 
Q 441 3000 437 3104 
Q 434 3209 431 3284 
Q 428 3359 425 3381 
L 956 3381 
Q 959 3366 962 3297 
Q 966 3228 970 3139 
Q 975 3050 978 2958 
Q 981 2866 981 2803 
L 991 2803 
Q 1072 2950 1169 3069 
Q 1266 3188 1394 3270 
Q 1522 3353 1687 3398 
Q 1853 3444 2072 3444 
Q 2353 3444 2556 3375 
Q 2759 3306 2890 3162 
Q 3022 3019 3083 2792 
Q 3144 2566 3144 2253 
L 3144 0 
L 2578 0 
z
" transform="scale(0.015625)"/>
     <path id="LiberationSans-63" d="M 859 1706 
Q 859 1416 901 1172 
Q 944 928 1044 751 
Q 1144 575 1308 478 
Q 1472 381 1713 381 
Q 2013 381 2214 543 
Q 2416 706 2463 1044 
L 3031 1006 
Q 3003 797 2909 603 
Q 2816 409 2655 262 
Q 2494 116 2262 26 
Q 2031 -63 1728 -63 
Q 1331 -63 1053 71 
Q 775 206 601 442 
Q 428 678 350 998 
Q 272 1319 272 1694 
Q 272 2034 328 2295 
Q 384 2556 486 2751 
Q 588 2947 725 3080 
Q 863 3213 1023 3292 
Q 1184 3372 1362 3408 
Q 1541 3444 1722 3444 
Q 2006 3444 2228 3366 
Q 2450 3288 2611 3152 
Q 2772 3016 2872 2831 
Q 2972 2647 3013 2434 
L 2434 2391 
Q 2391 2672 2212 2837 
Q 2034 3003 1706 3003 
Q 1466 3003 1305 2923 
Q 1144 2844 1044 2683 
Q 944 2522 901 2278 
Q 859 2034 859 1706 
z
" transform="scale(0.015625)"/>
     <path id="LiberationSans-3a" d="M 584 2734 
L 584 3381 
L 1194 3381 
L 1194 2734 
L 584 2734 
z
M 584 0 
L 584 647 
L 1194 647 
L 1194 0 
L 584 0 
z
" transform="scale(0.015625)"/>
     <path id="LiberationSans-5f" d="M -97 -1272 
L -97 -866 
L 3631 -866 
L 3631 -1272 
L -97 -1272 
z
" transform="scale(0.015625)"/>
     <path id="LiberationSans-67" d="M 1713 -1328 
Q 1422 -1328 1197 -1268 
Q 972 -1209 812 -1098 
Q 653 -988 553 -834 
Q 453 -681 409 -494 
L 975 -413 
Q 1031 -647 1223 -773 
Q 1416 -900 1728 -900 
Q 1919 -900 2075 -847 
Q 2231 -794 2340 -676 
Q 2450 -559 2509 -371 
Q 2569 -184 2569 84 
L 2569 628 
L 2563 628 
Q 2500 500 2408 383 
Q 2316 266 2183 175 
Q 2050 84 1875 29 
Q 1700 -25 1475 -25 
Q 1153 -25 923 83 
Q 694 191 548 406 
Q 403 622 336 942 
Q 269 1263 269 1684 
Q 269 2091 336 2416 
Q 403 2741 554 2967 
Q 706 3194 948 3314 
Q 1191 3434 1538 3434 
Q 1897 3434 2161 3270 
Q 2425 3106 2569 2803 
L 2575 2803 
Q 2575 2881 2579 2978 
Q 2584 3075 2589 3161 
Q 2594 3247 2600 3309 
Q 2606 3372 2613 3381 
L 3147 3381 
Q 3144 3353 3141 3286 
Q 3138 3219 3134 3125 
Q 3131 3031 3129 2917 
Q 3128 2803 3128 2681 
L 3128 97 
Q 3128 -613 2779 -970 
Q 2431 -1328 1713 -1328 
z
M 2569 1691 
Q 2569 2044 2492 2295 
Q 2416 2547 2291 2706 
Q 2166 2866 2005 2941 
Q 1844 3016 1675 3016 
Q 1459 3016 1304 2941 
Q 1150 2866 1048 2705 
Q 947 2544 898 2292 
Q 850 2041 850 1691 
Q 850 1325 898 1076 
Q 947 828 1047 675 
Q 1147 522 1300 456 
Q 1453 391 1666 391 
Q 1834 391 1995 462 
Q 2156 534 2284 690 
Q 2413 847 2491 1094 
Q 2569 1341 2569 1691 
z
" transform="scale(0.015625)"/>
     <path id="LiberationSans-2c" d="M 1203 684 
L 1203 159 
Q 1203 -6 1189 -142 
Q 1175 -278 1144 -395 
Q 1113 -513 1067 -616 
Q 1022 -719 959 -819 
L 575 -819 
Q 716 -616 792 -409 
Q 869 -203 869 0 
L 594 0 
L 594 684 
L 1203 684 
z
" transform="scale(0.015625)"/>
     <path id="LiberationSans-68" d="M 991 2803 
Q 1084 2975 1193 3095 
Q 1303 3216 1434 3294 
Q 1566 3372 1722 3408 
Q 1878 3444 2072 3444 
Q 2397 3444 2605 3356 
Q 2813 3269 2933 3111 
Q 3053 2953 3098 2734 
Q 3144 2516 3144 2253 
L 3144 0 
L 2578 0 
L 2578 2144 
Q 2578 2359 2551 2521 
Q 2525 2684 2450 2792 
Q 2375 2900 2237 2954 
Q 2100 3009 1881 3009 
Q 1681 3009 1520 2937 
Q 1359 2866 1245 2734 
Q 1131 2603 1068 2415 
Q 1006 2228 1006 1994 
L 1006 0 
L 444 0 
L 444 4638 
L 1006 4638 
L 1006 3431 
Q 1006 3328 1003 3225 
Q 1000 3122 995 3034 
Q 991 2947 987 2886 
Q 984 2825 981 2803 
L 991 2803 
z
" transform="scale(0.015625)"/>
     <path id="LiberationSans-69" d="M 428 4100 
L 428 4638 
L 991 4638 
L 991 4100 
L 428 4100 
z
M 428 0 
L 428 3381 
L 991 3381 
L 991 0 
L 428 0 
z
" transform="scale(0.015625)"/>
     <path id="LiberationSans-2d" d="M 284 1450 
L 284 1950 
L 1847 1950 
L 1847 1450 
L 284 1450 
z
" transform="scale(0.015625)"/>
     <path id="LiberationSans-62" d="M 3291 1706 
Q 3291 -63 2047 -63 
Q 1663 -63 1408 76 
Q 1153 216 994 525 
L 988 525 
Q 988 444 983 356 
Q 978 269 973 194 
Q 969 119 964 66 
Q 959 13 956 0 
L 413 0 
Q 416 28 419 95 
Q 422 163 425 256 
Q 428 350 429 462 
Q 431 575 431 697 
L 431 4638 
L 994 4638 
L 994 3316 
Q 994 3222 992 3136 
Q 991 3050 988 2984 
Q 984 2906 981 2838 
L 994 2838 
Q 1150 3163 1408 3303 
Q 1666 3444 2047 3444 
Q 2688 3444 2989 3012 
Q 3291 2581 3291 1706 
z
M 2700 1688 
Q 2700 2038 2656 2288 
Q 2613 2538 2516 2698 
Q 2419 2859 2269 2934 
Q 2119 3009 1903 3009 
Q 1681 3009 1511 2937 
Q 1341 2866 1227 2706 
Q 1113 2547 1053 2287 
Q 994 2028 994 1653 
Q 994 1291 1053 1044 
Q 1113 797 1227 642 
Q 1341 488 1509 420 
Q 1678 353 1897 353 
Q 2103 353 2253 425 
Q 2403 497 2503 656 
Q 2603 816 2651 1070 
Q 2700 1325 2700 1688 
z
" transform="scale(0.015625)"/>
     <path id="LiberationSans-2f" d="M 0 -63 
L 1284 4638 
L 1778 4638 
L 506 -63 
L 0 -63 
z
" transform="scale(0.015625)"/>
    </defs>
    <use xlink:href="#LiberationSans-50"/>
    <use xlink:href="#LiberationSans-6c" x="66.699219"/>
    <use xlink:href="#LiberationSans-6f" x="88.916016"/>
    <use xlink:href="#LiberationSans-74" x="144.53125"/>
    <use xlink:href="#LiberationSans-73" x="172.314453"/>
    <use xlink:href="#LiberationSans-20" x="222.314453"/>
    <use xlink:href="#LiberationSans-6f" x="250.097656"/>
    <use xlink:href="#LiberationSans-66" x="305.712891"/>
    <use xlink:href="#LiberationSans-20" x="333.496094"/>
    <use xlink:href="#LiberationSans-6d" x="361.279297"/>
    <use xlink:href="#LiberationSans-6f" x="444.580078"/>
    <use xlink:href="#LiberationSans-64" x="500.195312"/>
    <use xlink:href="#LiberationSans-65" x="555.810547"/>
    <use xlink:href="#LiberationSans-6c" x="611.425781"/>
    <use xlink:href="#LiberationSans-20" x="633.642578"/>
    <use xlink:href="#LiberationSans-70" x="661.425781"/>
    <use xlink:href="#LiberationSans-65" x="717.041016"/>
    <use xlink:href="#LiberationSans-72" x="772.65625"/>
    <use xlink:href="#LiberationSans-66" x="805.957031"/>
    <use xlink:href="#LiberationSans-6f" x="833.740234"/>
    <use xlink:href="#LiberationSans-72" x="889.355469"/>
    <use xlink:href="#LiberationSans-6d" x="922.65625"/>
    <use xlink:href="#LiberationSans-61" x="1005.957031"/>
    <use xlink:href="#LiberationSans-6e" x="1061.572266"/>
    <use xlink:href="#LiberationSans-63" x="1117.1875"/>
    <use xlink:href="#LiberationSans-65" x="1167.1875"/>
    <use xlink:href="#LiberationSans-3a" x="1222.802734"/>
    <use xlink:href="#LiberationSans-20" x="1250.585938"/>
    <use xlink:href="#LiberationSans-6d" x="1278.369141"/>
    <use xlink:href="#LiberationSans-65" x="1361.669922"/>
    <use xlink:href="#LiberationSans-6c" x="1417.285156"/>
    <use xlink:href="#LiberationSans-5f" x="1439.501953"/>
    <use xlink:href="#LiberationSans-73" x="1495.117188"/>
    <use xlink:href="#LiberationSans-70" x="1545.117188"/>
    <use xlink:href="#LiberationSans-65" x="1600.732422"/>
    <use xlink:href="#LiberationSans-63" x="1656.347656"/>
    <use xlink:href="#LiberationSans-74" x="1706.347656"/>
    <use xlink:href="#LiberationSans-72" x="1734.130859"/>
    <use xlink:href="#LiberationSans-6f" x="1767.431641"/>
    <use xlink:href="#LiberationSans-67" x="1823.046875"/>
    <use xlink:href="#LiberationSans-72" x="1878.662109"/>
    <use xlink:href="#LiberationSans-61" x="1911.962891"/>
    <use xlink:href="#LiberationSans-6d" x="1967.578125"/>
    <use xlink:href="#LiberationSans-2c" x="2050.878906"/>
    <use xlink:href="#LiberationSans-20" x="2078.662109"/>
    <use xlink:href="#LiberationSans-64" x="2106.445312"/>
    <use xlink:href="#LiberationSans-72" x="2162.060547"/>
    <use xlink:href="#LiberationSans-61" x="2195.361328"/>
    <use xlink:href="#LiberationSans-67" x="2250.976562"/>
    <use xlink:href="#LiberationSans-68" x="2306.591797"/>
    <use xlink:href="#LiberationSans-69" x="2362.207031"/>
    <use xlink:href="#LiberationSans-63" x="2384.423828"/>
    <use xlink:href="#LiberationSans-69" x="2434.423828"/>
    <use xlink:href="#LiberationSans-32" x="2456.640625"/>
    <use xlink:href="#LiberationSans-30" x="2512.255859"/>
    <use xlink:href="#LiberationSans-5f" x="2567.871094"/>
    <use xlink:href="#LiberationSans-63" x="2623.486328"/>
    <use xlink:href="#LiberationSans-72" x="2673.486328"/>
    <use xlink:href="#LiberationSans-6e" x="2706.787109"/>
    <use xlink:href="#LiberationSans-6e" x="2762.402344"/>
    <use xlink:href="#LiberationSans-20" x="2818.017578"/>
    <use xlink:href="#LiberationSans-2d" x="2845.800781"/>
    <use xlink:href="#LiberationSans-20" x="2879.101562"/>
    <use xlink:href="#LiberationSans-6c" x="2906.884766"/>
    <use xlink:href="#LiberationSans-72" x="2929.101562"/>
    <use xlink:href="#LiberationSans-20" x="2962.402344"/>
    <use xlink:href="#LiberationSans-31" x="2990.185547"/>
    <use xlink:href="#LiberationSans-65" x="3045.800781"/>
    <use xlink:href="#LiberationSans-2d" x="3101.416016"/>
    <use xlink:href="#LiberationSans-30" x="3134.716797"/>
    <use xlink:href="#LiberationSans-35" x="3190.332031"/>
    <use xlink:href="#LiberationSans-2c" x="3245.947266"/>
    <use xlink:href="#LiberationSans-20" x="3273.730469"/>
    <use xlink:href="#LiberationSans-62" x="3301.513672"/>
    <use xlink:href="#LiberationSans-61" x="3357.128906"/>
    <use xlink:href="#LiberationSans-74" x="3412.744141"/>
    <use xlink:href="#LiberationSans-63" x="3440.527344"/>
    <use xlink:href="#LiberationSans-68" x="3490.527344"/>
    <use xlink:href="#LiberationSans-20" x="3546.142578"/>
    <use xlink:href="#LiberationSans-31" x="3573.925781"/>
    <use xlink:href="#LiberationSans-36" x="3629.541016"/>
    <use xlink:href="#LiberationSans-2c" x="3685.15625"/>
    <use xlink:href="#LiberationSans-20" x="3712.939453"/>
    <use xlink:href="#LiberationSans-31" x="3740.722656"/>
    <use xlink:href="#LiberationSans-32" x="3796.337891"/>
    <use xlink:href="#LiberationSans-38" x="3851.953125"/>
    <use xlink:href="#LiberationSans-20" x="3907.568359"/>
    <use xlink:href="#LiberationSans-73" x="3935.351562"/>
    <use xlink:href="#LiberationSans-74" x="3985.351562"/>
    <use xlink:href="#LiberationSans-65" x="4013.134766"/>
    <use xlink:href="#LiberationSans-70" x="4068.75"/>
    <use xlink:href="#LiberationSans-73" x="4124.365234"/>
    <use xlink:href="#LiberationSans-2f" x="4174.365234"/>
    <use xlink:href="#LiberationSans-65" x="4202.148438"/>
    <use xlink:href="#LiberationSans-70" x="4257.763672"/>
    <use xlink:href="#LiberationSans-6f" x="4313.378906"/>
    <use xlink:href="#LiberationSans-63" x="4368.994141"/>
    <use xlink:href="#LiberationSans-68" x="4418.994141"/>
   </g>
  </g>
 </g>
 <defs>
  <clipPath id="pdbb2eb4589">
   <rect x="108" y="77.76" width="669.6" height="226.8"/>
  </clipPath>
  <clipPath id="pcf6aac4fcb">
   <rect x="108" y="349.92" width="669.6" height="226.8"/>
  </clipPath>
 </defs>
</svg>
