<?xml version="1.0" encoding="utf-8" standalone="no"?>
<!DOCTYPE svg PUBLIC "-//W3C//DTD SVG 1.1//EN"
  "http://www.w3.org/Graphics/SVG/1.1/DTD/svg11.dtd">
<svg xmlns:xlink="http://www.w3.org/1999/xlink" width="864pt" height="648pt" viewBox="0 0 864 648" xmlns="http://www.w3.org/2000/svg" version="1.1">
 <metadata>
  <rdf:RDF xmlns:dc="http://purl.org/dc/elements/1.1/" xmlns:cc="http://creativecommons.org/ns#" xmlns:rdf="http://www.w3.org/1999/02/22-rdf-syntax-ns#">
   <cc:Work>
    <dc:type rdf:resource="http://purl.org/dc/dcmitype/StillImage"/>
    <dc:date>2022-06-09T01:11:08.869413</dc:date>
    <dc:format>image/svg+xml</dc:format>
    <dc:creator>
     <cc:Agent>
      <dc:title>Matplotlib v3.5.1, https://matplotlib.org/</dc:title>
     </cc:Agent>
    </dc:creator>
   </cc:Work>
  </rdf:RDF>
 </metadata>
 <defs>
  <style type="text/css">*{stroke-linejoin: round; stroke-linecap: butt}</style>
 </defs>
 <g id="figure_1">
  <g id="patch_1">
   <path d="M 0 648 
L 864 648 
L 864 0 
L 0 0 
z
" style="fill: #ffffff"/>
  </g>
  <g id="axes_1">
   <g id="patch_2">
    <path d="M 108 304.56 
L 777.6 304.56 
L 777.6 77.76 
L 108 77.76 
z
" style="fill: #eaeaf2"/>
   </g>
   <g id="matplotlib.axis_1">
    <g id="xtick_1">
     <g id="line2d_1"/>
     <g id="text_1">
      <!-- 0 -->
      <g style="fill: #262626" transform="translate(135.655895 318.717812)scale(0.1 -0.1)">
       <defs>
        <path id="ArialMT-30" d="M 266 2259 
Q 266 3072 433 3567 
Q 600 4063 929 4331 
Q 1259 4600 1759 4600 
Q 2128 4600 2406 4451 
Q 2684 4303 2865 4023 
Q 3047 3744 3150 3342 
Q 3253 2941 3253 2259 
Q 3253 1453 3087 958 
Q 2922 463 2592 192 
Q 2263 -78 1759 -78 
Q 1097 -78 719 397 
Q 266 969 266 2259 
z
M 844 2259 
Q 844 1131 1108 757 
Q 1372 384 1759 384 
Q 2147 384 2411 759 
Q 2675 1134 2675 2259 
Q 2675 3391 2411 3762 
Q 2147 4134 1753 4134 
Q 1366 4134 1134 3806 
Q 844 3388 844 2259 
z
" transform="scale(0.015625)"/>
       </defs>
       <use xlink:href="#ArialMT-30"/>
      </g>
     </g>
    </g>
    <g id="xtick_2">
     <g id="line2d_2"/>
     <g id="text_2">
      <!-- 20 -->
      <g style="fill: #262626" transform="translate(255.850633 318.717812)scale(0.1 -0.1)">
       <defs>
        <path id="ArialMT-32" d="M 3222 541 
L 3222 0 
L 194 0 
Q 188 203 259 391 
Q 375 700 629 1000 
Q 884 1300 1366 1694 
Q 2113 2306 2375 2664 
Q 2638 3022 2638 3341 
Q 2638 3675 2398 3904 
Q 2159 4134 1775 4134 
Q 1369 4134 1125 3890 
Q 881 3647 878 3216 
L 300 3275 
Q 359 3922 746 4261 
Q 1134 4600 1788 4600 
Q 2447 4600 2831 4234 
Q 3216 3869 3216 3328 
Q 3216 3053 3103 2787 
Q 2991 2522 2730 2228 
Q 2469 1934 1863 1422 
Q 1356 997 1212 845 
Q 1069 694 975 541 
L 3222 541 
z
" transform="scale(0.015625)"/>
       </defs>
       <use xlink:href="#ArialMT-32"/>
       <use xlink:href="#ArialMT-30" x="55.615234"/>
      </g>
     </g>
    </g>
    <g id="xtick_3">
     <g id="line2d_3"/>
     <g id="text_3">
      <!-- 40 -->
      <g style="fill: #262626" transform="translate(378.825839 318.717812)scale(0.1 -0.1)">
       <defs>
        <path id="ArialMT-34" d="M 2069 0 
L 2069 1097 
L 81 1097 
L 81 1613 
L 2172 4581 
L 2631 4581 
L 2631 1613 
L 3250 1613 
L 3250 1097 
L 2631 1097 
L 2631 0 
L 2069 0 
z
M 2069 1613 
L 2069 3678 
L 634 1613 
L 2069 1613 
z
" transform="scale(0.015625)"/>
       </defs>
       <use xlink:href="#ArialMT-34"/>
       <use xlink:href="#ArialMT-30" x="55.615234"/>
      </g>
     </g>
    </g>
    <g id="xtick_4">
     <g id="line2d_4"/>
     <g id="text_4">
      <!-- 60 -->
      <g style="fill: #262626" transform="translate(501.801046 318.717812)scale(0.1 -0.1)">
       <defs>
        <path id="ArialMT-36" d="M 3184 3459 
L 2625 3416 
Q 2550 3747 2413 3897 
Q 2184 4138 1850 4138 
Q 1581 4138 1378 3988 
Q 1113 3794 959 3422 
Q 806 3050 800 2363 
Q 1003 2672 1297 2822 
Q 1591 2972 1913 2972 
Q 2475 2972 2870 2558 
Q 3266 2144 3266 1488 
Q 3266 1056 3080 686 
Q 2894 316 2569 119 
Q 2244 -78 1831 -78 
Q 1128 -78 684 439 
Q 241 956 241 2144 
Q 241 3472 731 4075 
Q 1159 4600 1884 4600 
Q 2425 4600 2770 4297 
Q 3116 3994 3184 3459 
z
M 888 1484 
Q 888 1194 1011 928 
Q 1134 663 1356 523 
Q 1578 384 1822 384 
Q 2178 384 2434 671 
Q 2691 959 2691 1453 
Q 2691 1928 2437 2201 
Q 2184 2475 1800 2475 
Q 1419 2475 1153 2201 
Q 888 1928 888 1484 
z
" transform="scale(0.015625)"/>
       </defs>
       <use xlink:href="#ArialMT-36"/>
       <use xlink:href="#ArialMT-30" x="55.615234"/>
      </g>
     </g>
    </g>
    <g id="xtick_5">
     <g id="line2d_5"/>
     <g id="text_5">
      <!-- 80 -->
      <g style="fill: #262626" transform="translate(624.776253 318.717812)scale(0.1 -0.1)">
       <defs>
        <path id="ArialMT-38" d="M 1131 2484 
Q 781 2613 612 2850 
Q 444 3088 444 3419 
Q 444 3919 803 4259 
Q 1163 4600 1759 4600 
Q 2359 4600 2725 4251 
Q 3091 3903 3091 3403 
Q 3091 3084 2923 2848 
Q 2756 2613 2416 2484 
Q 2838 2347 3058 2040 
Q 3278 1734 3278 1309 
Q 3278 722 2862 322 
Q 2447 -78 1769 -78 
Q 1091 -78 675 323 
Q 259 725 259 1325 
Q 259 1772 486 2073 
Q 713 2375 1131 2484 
z
M 1019 3438 
Q 1019 3113 1228 2906 
Q 1438 2700 1772 2700 
Q 2097 2700 2305 2904 
Q 2513 3109 2513 3406 
Q 2513 3716 2298 3927 
Q 2084 4138 1766 4138 
Q 1444 4138 1231 3931 
Q 1019 3725 1019 3438 
z
M 838 1322 
Q 838 1081 952 856 
Q 1066 631 1291 507 
Q 1516 384 1775 384 
Q 2178 384 2440 643 
Q 2703 903 2703 1303 
Q 2703 1709 2433 1975 
Q 2163 2241 1756 2241 
Q 1359 2241 1098 1978 
Q 838 1716 838 1322 
z
" transform="scale(0.015625)"/>
       </defs>
       <use xlink:href="#ArialMT-38"/>
       <use xlink:href="#ArialMT-30" x="55.615234"/>
      </g>
     </g>
    </g>
    <g id="xtick_6">
     <g id="line2d_6"/>
     <g id="text_6">
      <!-- 100 -->
      <g style="fill: #262626" transform="translate(744.97099 318.717812)scale(0.1 -0.1)">
       <defs>
        <path id="ArialMT-31" d="M 2384 0 
L 1822 0 
L 1822 3584 
Q 1619 3391 1289 3197 
Q 959 3003 697 2906 
L 697 3450 
Q 1169 3672 1522 3987 
Q 1875 4303 2022 4600 
L 2384 4600 
L 2384 0 
z
" transform="scale(0.015625)"/>
       </defs>
       <use xlink:href="#ArialMT-31"/>
       <use xlink:href="#ArialMT-30" x="55.615234"/>
       <use xlink:href="#ArialMT-30" x="111.230469"/>
      </g>
     </g>
    </g>
   </g>
   <g id="matplotlib.axis_2">
    <g id="ytick_1">
     <g id="line2d_7"/>
     <g id="text_7">
      <!-- 0.0 -->
      <g style="fill: #262626" transform="translate(87.1 304.57629)scale(0.1 -0.1)">
       <defs>
        <path id="ArialMT-2e" d="M 581 0 
L 581 641 
L 1222 641 
L 1222 0 
L 581 0 
z
" transform="scale(0.015625)"/>
       </defs>
       <use xlink:href="#ArialMT-30"/>
       <use xlink:href="#ArialMT-2e" x="55.615234"/>
       <use xlink:href="#ArialMT-30" x="83.398438"/>
      </g>
     </g>
    </g>
    <g id="ytick_2">
     <g id="line2d_8"/>
     <g id="text_8">
      <!-- 2.5 -->
      <g style="fill: #262626" transform="translate(87.1 275.731602)scale(0.1 -0.1)">
       <defs>
        <path id="ArialMT-35" d="M 266 1200 
L 856 1250 
Q 922 819 1161 601 
Q 1400 384 1738 384 
Q 2144 384 2425 690 
Q 2706 997 2706 1503 
Q 2706 1984 2436 2262 
Q 2166 2541 1728 2541 
Q 1456 2541 1237 2417 
Q 1019 2294 894 2097 
L 366 2166 
L 809 4519 
L 3088 4519 
L 3088 3981 
L 1259 3981 
L 1013 2750 
Q 1425 3038 1878 3038 
Q 2478 3038 2890 2622 
Q 3303 2206 3303 1553 
Q 3303 931 2941 478 
Q 2500 -78 1738 -78 
Q 1113 -78 717 272 
Q 322 622 266 1200 
z
" transform="scale(0.015625)"/>
       </defs>
       <use xlink:href="#ArialMT-32"/>
       <use xlink:href="#ArialMT-2e" x="55.615234"/>
       <use xlink:href="#ArialMT-35" x="83.398438"/>
      </g>
     </g>
    </g>
    <g id="ytick_3">
     <g id="line2d_9"/>
     <g id="text_9">
      <!-- 5.0 -->
      <g style="fill: #262626" transform="translate(87.1 246.886915)scale(0.1 -0.1)">
       <use xlink:href="#ArialMT-35"/>
       <use xlink:href="#ArialMT-2e" x="55.615234"/>
       <use xlink:href="#ArialMT-30" x="83.398438"/>
      </g>
     </g>
    </g>
    <g id="ytick_4">
     <g id="line2d_10"/>
     <g id="text_10">
      <!-- 7.5 -->
      <g style="fill: #262626" transform="translate(87.1 218.042227)scale(0.1 -0.1)">
       <defs>
        <path id="ArialMT-37" d="M 303 3981 
L 303 4522 
L 3269 4522 
L 3269 4084 
Q 2831 3619 2401 2847 
Q 1972 2075 1738 1259 
Q 1569 684 1522 0 
L 944 0 
Q 953 541 1156 1306 
Q 1359 2072 1739 2783 
Q 2119 3494 2547 3981 
L 303 3981 
z
" transform="scale(0.015625)"/>
       </defs>
       <use xlink:href="#ArialMT-37"/>
       <use xlink:href="#ArialMT-2e" x="55.615234"/>
       <use xlink:href="#ArialMT-35" x="83.398438"/>
      </g>
     </g>
    </g>
    <g id="ytick_5">
     <g id="line2d_11"/>
     <g id="text_11">
      <!-- 10.0 -->
      <g style="fill: #262626" transform="translate(81.539062 189.197539)scale(0.1 -0.1)">
       <use xlink:href="#ArialMT-31"/>
       <use xlink:href="#ArialMT-30" x="55.615234"/>
       <use xlink:href="#ArialMT-2e" x="111.230469"/>
       <use xlink:href="#ArialMT-30" x="139.013672"/>
      </g>
     </g>
    </g>
    <g id="ytick_6">
     <g id="line2d_12"/>
     <g id="text_12">
      <!-- 12.5 -->
      <g style="fill: #262626" transform="translate(81.539062 160.352851)scale(0.1 -0.1)">
       <use xlink:href="#ArialMT-31"/>
       <use xlink:href="#ArialMT-32" x="55.615234"/>
       <use xlink:href="#ArialMT-2e" x="111.230469"/>
       <use xlink:href="#ArialMT-35" x="139.013672"/>
      </g>
     </g>
    </g>
    <g id="ytick_7">
     <g id="line2d_13"/>
     <g id="text_13">
      <!-- 15.0 -->
      <g style="fill: #262626" transform="translate(81.539062 131.508164)scale(0.1 -0.1)">
       <use xlink:href="#ArialMT-31"/>
       <use xlink:href="#ArialMT-35" x="55.615234"/>
       <use xlink:href="#ArialMT-2e" x="111.230469"/>
       <use xlink:href="#ArialMT-30" x="139.013672"/>
      </g>
     </g>
    </g>
    <g id="ytick_8">
     <g id="line2d_14"/>
     <g id="text_14">
      <!-- 17.5 -->
      <g style="fill: #262626" transform="translate(81.539062 102.663476)scale(0.1 -0.1)">
       <use xlink:href="#ArialMT-31"/>
       <use xlink:href="#ArialMT-37" x="55.615234"/>
       <use xlink:href="#ArialMT-2e" x="111.230469"/>
       <use xlink:href="#ArialMT-35" x="139.013672"/>
      </g>
     </g>
    </g>
   </g>
   <g id="line2d_15">
    <path d="M 138.436364 94.377964 
L 144.585124 121.366723 
L 150.733884 144.537939 
L 156.882645 166.11887 
L 163.031405 183.518925 
L 169.180165 199.717268 
L 175.328926 213.262489 
L 181.477686 224.63039 
L 187.626446 234.834964 
L 193.775207 243.911092 
L 199.923967 250.771455 
L 206.072727 256.694789 
L 212.221488 262.135383 
L 218.370248 266.474176 
L 224.519008 269.92654 
L 230.667769 272.944048 
L 236.816529 275.579004 
L 242.965289 277.811077 
L 249.11405 279.385491 
L 255.26281 280.714142 
L 261.41157 282.093874 
L 267.560331 283.478425 
L 273.709091 284.525835 
L 279.857851 285.43091 
L 286.006612 286.120268 
L 292.155372 286.665294 
L 298.304132 287.383758 
L 304.452893 287.848224 
L 310.601653 287.995123 
L 316.750413 288.201849 
L 322.899174 288.580433 
L 329.047934 289.070644 
L 335.196694 289.286087 
L 341.345455 289.373784 
L 347.494215 289.556219 
L 353.642975 289.80361 
L 359.791736 290.146104 
L 365.940496 290.290284 
L 372.089256 290.771299 
L 378.238017 290.667608 
L 384.386777 290.804135 
L 390.535537 291.197118 
L 396.684298 290.940781 
L 402.833058 291.092088 
L 408.981818 291.14915 
L 415.130579 291.637643 
L 421.279339 291.588728 
L 427.428099 291.512557 
L 433.57686 291.600677 
L 439.72562 291.697432 
L 445.87438 291.905749 
L 452.02314 292.050277 
L 458.171901 292.25492 
L 464.320661 292.175257 
L 470.469421 292.071203 
L 476.618182 292.475177 
L 482.766942 292.041264 
L 488.915702 292.470469 
L 495.064463 292.659186 
L 501.213223 292.376271 
L 507.361983 292.760675 
L 513.510744 292.539911 
L 519.659504 292.443694 
L 525.808264 292.75181 
L 531.957025 292.79006 
L 538.105785 292.520095 
L 544.254545 292.64274 
L 550.403306 292.641993 
L 556.552066 293.033188 
L 562.700826 293.322331 
L 568.849587 293.248687 
L 574.998347 293.228822 
L 581.147107 293.184424 
L 587.295868 292.849796 
L 593.444628 293.446543 
L 599.593388 293.253382 
L 605.742149 293.375109 
L 611.890909 293.248158 
L 618.039669 292.809635 
L 624.18843 293.337157 
L 630.33719 293.281662 
L 636.48595 293.768497 
L 642.634711 293.595034 
L 648.783471 293.478506 
L 654.932231 293.675538 
L 661.080992 293.508872 
L 667.229752 293.53221 
L 673.378512 293.568811 
L 679.527273 293.753968 
L 685.676033 293.86919 
L 691.824793 293.868347 
L 697.973554 293.667069 
L 704.122314 293.747745 
L 710.271074 293.754936 
L 716.419835 293.800122 
L 722.568595 294.113741 
L 728.717355 293.8395 
L 734.866116 293.761186 
L 741.014876 294.234665 
L 747.163636 294.250909 
" clip-path="url(#p9c16c490f9)" style="fill: none; stroke: #ff0000; stroke-width: 1.75; stroke-linecap: round"/>
   </g>
   <g id="line2d_16">
    <path d="M 138.436364 88.069091 
L 144.585124 107.161201 
L 150.733884 131.942794 
L 156.882645 158.336689 
L 163.031405 186.767704 
L 169.180165 201.54494 
L 175.328926 215.083938 
L 181.477686 227.485534 
L 187.626446 237.206037 
L 193.775207 243.565828 
L 199.923967 249.96554 
L 206.072727 254.956701 
L 212.221488 258.918241 
L 218.370248 264.007225 
L 224.519008 268.336283 
L 230.667769 272.785852 
L 236.816529 273.165493 
L 242.965289 273.799439 
L 249.11405 277.478178 
L 255.26281 275.519052 
L 261.41157 279.793022 
L 267.560331 281.041654 
L 273.709091 282.322828 
L 279.857851 281.436142 
L 286.006612 281.937556 
L 292.155372 282.131533 
L 298.304132 283.949355 
L 304.452893 284.313197 
L 310.601653 282.375382 
L 316.750413 285.865893 
L 322.899174 285.21651 
L 329.047934 286.80233 
L 335.196694 287.60003 
L 341.345455 281.7018 
L 347.494215 286.941412 
L 353.642975 286.375038 
L 359.791736 281.966729 
L 365.940496 285.922647 
L 372.089256 287.370607 
L 378.238017 286.197668 
L 384.386777 287.595706 
L 390.535537 286.765605 
L 396.684298 286.384358 
L 402.833058 289.347318 
L 408.981818 287.478836 
L 415.130579 288.702029 
L 421.279339 286.916525 
L 427.428099 287.449851 
L 433.57686 284.713977 
L 439.72562 284.800618 
L 445.87438 287.749605 
L 452.02314 286.475389 
L 458.171901 288.993906 
L 464.320661 289.228392 
L 470.469421 283.509072 
L 476.618182 289.209933 
L 482.766942 289.687933 
L 488.915702 289.396965 
L 495.064463 289.212724 
L 501.213223 281.86145 
L 507.361983 287.94018 
L 513.510744 288.972139 
L 519.659504 287.631379 
L 525.808264 288.24516 
L 531.957025 288.789938 
L 538.105785 287.004079 
L 544.254545 289.14228 
L 550.403306 287.129312 
L 556.552066 290.280367 
L 562.700826 289.586378 
L 568.849587 286.554495 
L 574.998347 286.630395 
L 581.147107 288.082897 
L 587.295868 290.430837 
L 593.444628 287.288232 
L 599.593388 290.145872 
L 605.742149 285.150815 
L 611.890909 289.914986 
L 618.039669 289.264515 
L 624.18843 289.333065 
L 630.33719 287.864465 
L 636.48595 290.375851 
L 642.634711 289.739668 
L 648.783471 287.004088 
L 654.932231 287.93516 
L 661.080992 288.470694 
L 667.229752 288.079553 
L 673.378512 288.994755 
L 679.527273 287.390793 
L 685.676033 288.867607 
L 691.824793 287.45513 
L 697.973554 289.753694 
L 704.122314 287.097792 
L 710.271074 285.574592 
L 716.419835 287.736084 
L 722.568595 291.472215 
L 728.717355 290.092748 
L 734.866116 290.4441 
L 741.014876 291.344958 
L 747.163636 289.330171 
" clip-path="url(#p9c16c490f9)" style="fill: none; stroke: #008000; stroke-width: 1.75; stroke-linecap: round"/>
   </g>
   <g id="patch_3">
    <path d="M 108 304.56 
L 108 77.76 
" style="fill: none"/>
   </g>
   <g id="patch_4">
    <path d="M 777.6 304.56 
L 777.6 77.76 
" style="fill: none"/>
   </g>
   <g id="patch_5">
    <path d="M 108 304.56 
L 777.6 304.56 
" style="fill: none"/>
   </g>
   <g id="patch_6">
    <path d="M 108 77.76 
L 777.6 77.76 
" style="fill: none"/>
   </g>
   <g id="legend_1">
    <g id="line2d_17">
     <path d="M 704.473438 90.417812 
L 714.473438 90.417812 
L 724.473438 90.417812 
" style="fill: none; stroke: #ff0000; stroke-width: 1.75; stroke-linecap: round"/>
    </g>
    <g id="text_15">
     <!-- loss -->
     <g style="fill: #262626" transform="translate(732.473438 93.917812)scale(0.1 -0.1)">
      <defs>
       <path id="ArialMT-6c" d="M 409 0 
L 409 4581 
L 972 4581 
L 972 0 
L 409 0 
z
" transform="scale(0.015625)"/>
       <path id="ArialMT-6f" d="M 213 1659 
Q 213 2581 725 3025 
Q 1153 3394 1769 3394 
Q 2453 3394 2887 2945 
Q 3322 2497 3322 1706 
Q 3322 1066 3130 698 
Q 2938 331 2570 128 
Q 2203 -75 1769 -75 
Q 1072 -75 642 372 
Q 213 819 213 1659 
z
M 791 1659 
Q 791 1022 1069 705 
Q 1347 388 1769 388 
Q 2188 388 2466 706 
Q 2744 1025 2744 1678 
Q 2744 2294 2464 2611 
Q 2184 2928 1769 2928 
Q 1347 2928 1069 2612 
Q 791 2297 791 1659 
z
" transform="scale(0.015625)"/>
       <path id="ArialMT-73" d="M 197 991 
L 753 1078 
Q 800 744 1014 566 
Q 1228 388 1613 388 
Q 2000 388 2187 545 
Q 2375 703 2375 916 
Q 2375 1106 2209 1216 
Q 2094 1291 1634 1406 
Q 1016 1563 777 1677 
Q 538 1791 414 1992 
Q 291 2194 291 2438 
Q 291 2659 392 2848 
Q 494 3038 669 3163 
Q 800 3259 1026 3326 
Q 1253 3394 1513 3394 
Q 1903 3394 2198 3281 
Q 2494 3169 2634 2976 
Q 2775 2784 2828 2463 
L 2278 2388 
Q 2241 2644 2061 2787 
Q 1881 2931 1553 2931 
Q 1166 2931 1000 2803 
Q 834 2675 834 2503 
Q 834 2394 903 2306 
Q 972 2216 1119 2156 
Q 1203 2125 1616 2013 
Q 2213 1853 2448 1751 
Q 2684 1650 2818 1456 
Q 2953 1263 2953 975 
Q 2953 694 2789 445 
Q 2625 197 2315 61 
Q 2006 -75 1616 -75 
Q 969 -75 630 194 
Q 291 463 197 991 
z
" transform="scale(0.015625)"/>
      </defs>
      <use xlink:href="#ArialMT-6c"/>
      <use xlink:href="#ArialMT-6f" x="22.216797"/>
      <use xlink:href="#ArialMT-73" x="77.832031"/>
      <use xlink:href="#ArialMT-73" x="127.832031"/>
     </g>
    </g>
    <g id="line2d_18">
     <path d="M 704.473438 104.563125 
L 714.473438 104.563125 
L 724.473438 104.563125 
" style="fill: none; stroke: #008000; stroke-width: 1.75; stroke-linecap: round"/>
    </g>
    <g id="text_16">
     <!-- val_loss -->
     <g style="fill: #262626" transform="translate(732.473438 108.063125)scale(0.1 -0.1)">
      <defs>
       <path id="ArialMT-76" d="M 1344 0 
L 81 3319 
L 675 3319 
L 1388 1331 
Q 1503 1009 1600 663 
Q 1675 925 1809 1294 
L 2547 3319 
L 3125 3319 
L 1869 0 
L 1344 0 
z
" transform="scale(0.015625)"/>
       <path id="ArialMT-61" d="M 2588 409 
Q 2275 144 1986 34 
Q 1697 -75 1366 -75 
Q 819 -75 525 192 
Q 231 459 231 875 
Q 231 1119 342 1320 
Q 453 1522 633 1644 
Q 813 1766 1038 1828 
Q 1203 1872 1538 1913 
Q 2219 1994 2541 2106 
Q 2544 2222 2544 2253 
Q 2544 2597 2384 2738 
Q 2169 2928 1744 2928 
Q 1347 2928 1158 2789 
Q 969 2650 878 2297 
L 328 2372 
Q 403 2725 575 2942 
Q 747 3159 1072 3276 
Q 1397 3394 1825 3394 
Q 2250 3394 2515 3294 
Q 2781 3194 2906 3042 
Q 3031 2891 3081 2659 
Q 3109 2516 3109 2141 
L 3109 1391 
Q 3109 606 3145 398 
Q 3181 191 3288 0 
L 2700 0 
Q 2613 175 2588 409 
z
M 2541 1666 
Q 2234 1541 1622 1453 
Q 1275 1403 1131 1340 
Q 988 1278 909 1158 
Q 831 1038 831 891 
Q 831 666 1001 516 
Q 1172 366 1500 366 
Q 1825 366 2078 508 
Q 2331 650 2450 897 
Q 2541 1088 2541 1459 
L 2541 1666 
z
" transform="scale(0.015625)"/>
       <path id="ArialMT-5f" d="M -97 -1272 
L -97 -866 
L 3631 -866 
L 3631 -1272 
L -97 -1272 
z
" transform="scale(0.015625)"/>
      </defs>
      <use xlink:href="#ArialMT-76"/>
      <use xlink:href="#ArialMT-61" x="50"/>
      <use xlink:href="#ArialMT-6c" x="105.615234"/>
      <use xlink:href="#ArialMT-5f" x="127.832031"/>
      <use xlink:href="#ArialMT-6c" x="183.447266"/>
      <use xlink:href="#ArialMT-6f" x="205.664062"/>
      <use xlink:href="#ArialMT-73" x="261.279297"/>
      <use xlink:href="#ArialMT-73" x="311.279297"/>
     </g>
    </g>
   </g>
  </g>
  <g id="axes_2">
   <g id="patch_7">
    <path d="M 108 576.72 
L 777.6 576.72 
L 777.6 349.92 
L 108 349.92 
z
" style="fill: #eaeaf2"/>
   </g>
   <g id="matplotlib.axis_3">
    <g id="xtick_7">
     <g id="line2d_19"/>
     <g id="text_17">
      <!-- 0 -->
      <g style="fill: #262626" transform="translate(135.655895 590.877813)scale(0.1 -0.1)">
       <use xlink:href="#ArialMT-30"/>
      </g>
     </g>
    </g>
    <g id="xtick_8">
     <g id="line2d_20"/>
     <g id="text_18">
      <!-- 20 -->
      <g style="fill: #262626" transform="translate(255.850633 590.877813)scale(0.1 -0.1)">
       <use xlink:href="#ArialMT-32"/>
       <use xlink:href="#ArialMT-30" x="55.615234"/>
      </g>
     </g>
    </g>
    <g id="xtick_9">
     <g id="line2d_21"/>
     <g id="text_19">
      <!-- 40 -->
      <g style="fill: #262626" transform="translate(378.825839 590.877813)scale(0.1 -0.1)">
       <use xlink:href="#ArialMT-34"/>
       <use xlink:href="#ArialMT-30" x="55.615234"/>
      </g>
     </g>
    </g>
    <g id="xtick_10">
     <g id="line2d_22"/>
     <g id="text_20">
      <!-- 60 -->
      <g style="fill: #262626" transform="translate(501.801046 590.877813)scale(0.1 -0.1)">
       <use xlink:href="#ArialMT-36"/>
       <use xlink:href="#ArialMT-30" x="55.615234"/>
      </g>
     </g>
    </g>
    <g id="xtick_11">
     <g id="line2d_23"/>
     <g id="text_21">
      <!-- 80 -->
      <g style="fill: #262626" transform="translate(624.776253 590.877813)scale(0.1 -0.1)">
       <use xlink:href="#ArialMT-38"/>
       <use xlink:href="#ArialMT-30" x="55.615234"/>
      </g>
     </g>
    </g>
    <g id="xtick_12">
     <g id="line2d_24"/>
     <g id="text_22">
      <!-- 100 -->
      <g style="fill: #262626" transform="translate(744.97099 590.877813)scale(0.1 -0.1)">
       <use xlink:href="#ArialMT-31"/>
       <use xlink:href="#ArialMT-30" x="55.615234"/>
       <use xlink:href="#ArialMT-30" x="111.230469"/>
      </g>
     </g>
    </g>
   </g>
   <g id="matplotlib.axis_4">
    <g id="ytick_9">
     <g id="line2d_25"/>
     <g id="text_23">
      <!-- 0.0 -->
      <g style="fill: #262626" transform="translate(87.1 572.337178)scale(0.1 -0.1)">
       <use xlink:href="#ArialMT-30"/>
       <use xlink:href="#ArialMT-2e" x="55.615234"/>
       <use xlink:href="#ArialMT-30" x="83.398438"/>
      </g>
     </g>
    </g>
    <g id="ytick_10">
     <g id="line2d_26"/>
     <g id="text_24">
      <!-- 0.2 -->
      <g style="fill: #262626" transform="translate(87.1 528.058509)scale(0.1 -0.1)">
       <use xlink:href="#ArialMT-30"/>
       <use xlink:href="#ArialMT-2e" x="55.615234"/>
       <use xlink:href="#ArialMT-32" x="83.398438"/>
      </g>
     </g>
    </g>
    <g id="ytick_11">
     <g id="line2d_27"/>
     <g id="text_25">
      <!-- 0.4 -->
      <g style="fill: #262626" transform="translate(87.1 483.77984)scale(0.1 -0.1)">
       <use xlink:href="#ArialMT-30"/>
       <use xlink:href="#ArialMT-2e" x="55.615234"/>
       <use xlink:href="#ArialMT-34" x="83.398438"/>
      </g>
     </g>
    </g>
    <g id="ytick_12">
     <g id="line2d_28"/>
     <g id="text_26">
      <!-- 0.6 -->
      <g style="fill: #262626" transform="translate(87.1 439.501171)scale(0.1 -0.1)">
       <use xlink:href="#ArialMT-30"/>
       <use xlink:href="#ArialMT-2e" x="55.615234"/>
       <use xlink:href="#ArialMT-36" x="83.398438"/>
      </g>
     </g>
    </g>
    <g id="ytick_13">
     <g id="line2d_29"/>
     <g id="text_27">
      <!-- 0.8 -->
      <g style="fill: #262626" transform="translate(87.1 395.222502)scale(0.1 -0.1)">
       <use xlink:href="#ArialMT-30"/>
       <use xlink:href="#ArialMT-2e" x="55.615234"/>
       <use xlink:href="#ArialMT-38" x="83.398438"/>
      </g>
     </g>
    </g>
   </g>
   <g id="line2d_30">
    <path d="M 138.436364 473.520216 
L 144.585124 446.008202 
L 150.733884 436.873564 
L 156.882645 424.063451 
L 163.031405 420.442027 
L 169.180165 411.901952 
L 175.328926 406.172534 
L 181.477686 404.98341 
L 187.626446 400.280963 
L 193.775207 394.875852 
L 199.923967 394.929903 
L 206.072727 393.092166 
L 212.221488 390.119354 
L 218.370248 388.551872 
L 224.519008 388.011361 
L 230.667769 387.633003 
L 236.816529 386.335777 
L 242.965289 385.416908 
L 249.11405 386.49793 
L 255.26281 387.795157 
L 261.41157 384.55209 
L 267.560331 381.579279 
L 273.709091 382.768404 
L 279.857851 380.228001 
L 286.006612 380.336104 
L 292.155372 379.363184 
L 298.304132 378.444315 
L 304.452893 377.309242 
L 310.601653 379.20103 
L 316.750413 377.417344 
L 322.899174 377.093037 
L 329.047934 376.228219 
L 335.196694 374.606686 
L 341.345455 376.714679 
L 347.494215 375.633657 
L 353.642975 375.039095 
L 359.791736 373.525664 
L 365.940496 372.985153 
L 372.089256 371.850079 
L 378.238017 372.768948 
L 384.386777 372.931102 
L 390.535537 371.039313 
L 396.684298 372.714897 
L 402.833058 371.363619 
L 408.981818 372.822999 
L 415.130579 369.147524 
L 421.279339 370.228546 
L 427.428099 371.471722 
L 433.57686 371.093364 
L 439.72562 370.012342 
L 445.87438 369.309677 
L 452.02314 367.525991 
L 458.171901 368.336757 
L 464.320661 368.877268 
L 470.469421 368.607013 
L 476.618182 366.444969 
L 482.766942 369.579933 
L 488.915702 367.147633 
L 495.064463 366.228764 
L 501.213223 368.012451 
L 507.361983 365.742304 
L 513.510744 367.363837 
L 519.659504 369.850188 
L 525.808264 365.363946 
L 531.957025 365.309895 
L 538.105785 367.850297 
L 544.254545 367.309786 
L 550.403306 367.634093 
L 556.552066 364.769384 
L 562.700826 363.796464 
L 568.849587 363.850515 
L 574.998347 364.823435 
L 581.147107 365.03964 
L 587.295868 367.525991 
L 593.444628 362.823544 
L 599.593388 364.282924 
L 605.742149 362.931646 
L 611.890909 363.688362 
L 618.039669 367.093582 
L 624.18843 362.823544 
L 630.33719 364.282924 
L 636.48595 362.066829 
L 642.634711 363.796464 
L 648.783471 364.823435 
L 654.932231 361.958726 
L 661.080992 364.931537 
L 667.229752 363.364055 
L 673.378512 363.364055 
L 679.527273 362.877595 
L 685.676033 361.850624 
L 691.824793 361.850624 
L 697.973554 363.039749 
L 704.122314 362.985697 
L 710.271074 361.742522 
L 716.419835 362.715442 
L 722.568595 361.093909 
L 728.717355 363.310004 
L 734.866116 363.147851 
L 741.014876 360.229091 
L 747.163636 360.607449 
" clip-path="url(#p5ec820a3a3)" style="fill: none; stroke: #ff0000; stroke-width: 1.75; stroke-linecap: round"/>
   </g>
   <g id="line2d_31">
    <path d="M 138.436364 566.410909 
L 144.585124 566.102046 
L 150.733884 563.816456 
L 156.882645 530.829835 
L 163.031405 443.112601 
L 169.180165 442.803747 
L 175.328926 434.71152 
L 181.477686 418.527079 
L 187.626446 412.164487 
L 193.775207 421.245074 
L 199.923967 418.218212 
L 206.072727 422.356975 
L 212.221488 423.098251 
L 218.370248 418.218212 
L 224.519008 407.40799 
L 230.667769 395.115216 
L 236.816529 406.41963 
L 242.965289 416.797443 
L 249.11405 401.663133 
L 255.26281 423.160022 
L 261.41157 404.07226 
L 267.560331 401.16894 
L 273.709091 396.597768 
L 279.857851 408.334578 
L 286.006612 404.813537 
L 292.155372 408.149266 
L 298.304132 398.512716 
L 304.452893 399.809942 
L 310.601653 415.314891 
L 316.750413 393.632677 
L 322.899174 397.27726 
L 329.047934 391.408861 
L 335.196694 386.219955 
L 341.345455 423.53066 
L 347.494215 390.852911 
L 353.642975 395.547625 
L 359.791736 418.403524 
L 365.940496 399.809942 
L 372.089256 394.188627 
L 378.238017 399.439304 
L 384.386777 392.582546 
L 390.535537 397.524356 
L 396.684298 399.377534 
L 402.833058 382.760684 
L 408.981818 394.991674 
L 415.130579 388.876179 
L 421.279339 396.659539 
L 427.428099 395.115216 
L 433.57686 413.338172 
L 439.72562 410.064214 
L 445.87438 394.991674 
L 452.02314 401.416036 
L 458.171901 385.725775 
L 464.320661 385.664004 
L 470.469421 421.615712 
L 476.618182 388.690867 
L 482.766942 384.057911 
L 488.915702 387.39364 
L 495.064463 387.455411 
L 501.213223 422.604071 
L 507.361983 394.806362 
L 513.510744 389.308588 
L 519.659504 398.080307 
L 525.808264 394.065085 
L 531.957025 389.988093 
L 538.105785 398.018536 
L 544.254545 388.011361 
L 550.403306 399.253992 
L 556.552066 383.625502 
L 562.700826 386.775905 
L 568.849587 403.51631 
L 574.998347 402.713263 
L 581.147107 394.991674 
L 587.295868 382.698913 
L 593.444628 398.883354 
L 599.593388 384.243223 
L 605.742149 407.160893 
L 611.890909 385.54045 
L 618.039669 390.111635 
L 624.18843 387.640723 
L 630.33719 397.524356 
L 636.48595 383.625502 
L 642.634711 386.528822 
L 648.783471 404.07226 
L 654.932231 397.586127 
L 661.080992 393.879773 
L 667.229752 395.424083 
L 673.378512 390.544044 
L 679.527273 403.083901 
L 685.676033 391.717729 
L 691.824793 396.350671 
L 697.973554 385.849317 
L 704.122314 403.392768 
L 710.271074 405.678354 
L 716.419835 399.06868 
L 722.568595 376.336322 
L 728.717355 384.984499 
L 734.866116 383.007767 
L 741.014876 379.919134 
L 747.163636 388.876179 
" clip-path="url(#p5ec820a3a3)" style="fill: none; stroke: #008000; stroke-width: 1.75; stroke-linecap: round"/>
   </g>
   <g id="patch_8">
    <path d="M 108 576.72 
L 108 349.92 
" style="fill: none"/>
   </g>
   <g id="patch_9">
    <path d="M 777.6 576.72 
L 777.6 349.92 
" style="fill: none"/>
   </g>
   <g id="patch_10">
    <path d="M 108 576.72 
L 777.6 576.72 
" style="fill: none"/>
   </g>
   <g id="patch_11">
    <path d="M 108 349.92 
L 777.6 349.92 
" style="fill: none"/>
   </g>
   <g id="legend_2">
    <g id="line2d_32">
     <path d="M 117 362.577812 
L 127 362.577812 
L 137 362.577812 
" style="fill: none; stroke: #ff0000; stroke-width: 1.75; stroke-linecap: round"/>
    </g>
    <g id="text_28">
     <!-- acc -->
     <g style="fill: #262626" transform="translate(145 366.077812)scale(0.1 -0.1)">
      <defs>
       <path id="ArialMT-63" d="M 2588 1216 
L 3141 1144 
Q 3050 572 2676 248 
Q 2303 -75 1759 -75 
Q 1078 -75 664 370 
Q 250 816 250 1647 
Q 250 2184 428 2587 
Q 606 2991 970 3192 
Q 1334 3394 1763 3394 
Q 2303 3394 2647 3120 
Q 2991 2847 3088 2344 
L 2541 2259 
Q 2463 2594 2264 2762 
Q 2066 2931 1784 2931 
Q 1359 2931 1093 2626 
Q 828 2322 828 1663 
Q 828 994 1084 691 
Q 1341 388 1753 388 
Q 2084 388 2306 591 
Q 2528 794 2588 1216 
z
" transform="scale(0.015625)"/>
      </defs>
      <use xlink:href="#ArialMT-61"/>
      <use xlink:href="#ArialMT-63" x="55.615234"/>
      <use xlink:href="#ArialMT-63" x="105.615234"/>
     </g>
    </g>
    <g id="line2d_33">
     <path d="M 117 376.723125 
L 127 376.723125 
L 137 376.723125 
" style="fill: none; stroke: #008000; stroke-width: 1.75; stroke-linecap: round"/>
    </g>
    <g id="text_29">
     <!-- val_acc -->
     <g style="fill: #262626" transform="translate(145 380.223125)scale(0.1 -0.1)">
      <use xlink:href="#ArialMT-76"/>
      <use xlink:href="#ArialMT-61" x="50"/>
      <use xlink:href="#ArialMT-6c" x="105.615234"/>
      <use xlink:href="#ArialMT-5f" x="127.832031"/>
      <use xlink:href="#ArialMT-61" x="183.447266"/>
      <use xlink:href="#ArialMT-63" x="239.0625"/>
      <use xlink:href="#ArialMT-63" x="289.0625"/>
     </g>
    </g>
   </g>
  </g>
  <g id="text_30">
   <!-- Plots of model performance: mel_spectrogram, draghici20_crnn - lr 0.0001, batch 32, 128 steps/epoch -->
   <g style="fill: #262626" transform="translate(160.538437 21.695625)scale(0.12 -0.12)">
    <defs>
     <path id="ArialMT-50" d="M 494 0 
L 494 4581 
L 2222 4581 
Q 2678 4581 2919 4538 
Q 3256 4481 3484 4323 
Q 3713 4166 3852 3881 
Q 3991 3597 3991 3256 
Q 3991 2672 3619 2267 
Q 3247 1863 2275 1863 
L 1100 1863 
L 1100 0 
L 494 0 
z
M 1100 2403 
L 2284 2403 
Q 2872 2403 3119 2622 
Q 3366 2841 3366 3238 
Q 3366 3525 3220 3729 
Q 3075 3934 2838 4000 
Q 2684 4041 2272 4041 
L 1100 4041 
L 1100 2403 
z
" transform="scale(0.015625)"/>
     <path id="ArialMT-74" d="M 1650 503 
L 1731 6 
Q 1494 -44 1306 -44 
Q 1000 -44 831 53 
Q 663 150 594 308 
Q 525 466 525 972 
L 525 2881 
L 113 2881 
L 113 3319 
L 525 3319 
L 525 4141 
L 1084 4478 
L 1084 3319 
L 1650 3319 
L 1650 2881 
L 1084 2881 
L 1084 941 
Q 1084 700 1114 631 
Q 1144 563 1211 522 
Q 1278 481 1403 481 
Q 1497 481 1650 503 
z
" transform="scale(0.015625)"/>
     <path id="ArialMT-20" transform="scale(0.015625)"/>
     <path id="ArialMT-66" d="M 556 0 
L 556 2881 
L 59 2881 
L 59 3319 
L 556 3319 
L 556 3672 
Q 556 4006 616 4169 
Q 697 4388 901 4523 
Q 1106 4659 1475 4659 
Q 1713 4659 2000 4603 
L 1916 4113 
Q 1741 4144 1584 4144 
Q 1328 4144 1222 4034 
Q 1116 3925 1116 3625 
L 1116 3319 
L 1763 3319 
L 1763 2881 
L 1116 2881 
L 1116 0 
L 556 0 
z
" transform="scale(0.015625)"/>
     <path id="ArialMT-6d" d="M 422 0 
L 422 3319 
L 925 3319 
L 925 2853 
Q 1081 3097 1340 3245 
Q 1600 3394 1931 3394 
Q 2300 3394 2536 3241 
Q 2772 3088 2869 2813 
Q 3263 3394 3894 3394 
Q 4388 3394 4653 3120 
Q 4919 2847 4919 2278 
L 4919 0 
L 4359 0 
L 4359 2091 
Q 4359 2428 4304 2576 
Q 4250 2725 4106 2815 
Q 3963 2906 3769 2906 
Q 3419 2906 3187 2673 
Q 2956 2441 2956 1928 
L 2956 0 
L 2394 0 
L 2394 2156 
Q 2394 2531 2256 2718 
Q 2119 2906 1806 2906 
Q 1569 2906 1367 2781 
Q 1166 2656 1075 2415 
Q 984 2175 984 1722 
L 984 0 
L 422 0 
z
" transform="scale(0.015625)"/>
     <path id="ArialMT-64" d="M 2575 0 
L 2575 419 
Q 2259 -75 1647 -75 
Q 1250 -75 917 144 
Q 584 363 401 755 
Q 219 1147 219 1656 
Q 219 2153 384 2558 
Q 550 2963 881 3178 
Q 1213 3394 1622 3394 
Q 1922 3394 2156 3267 
Q 2391 3141 2538 2938 
L 2538 4581 
L 3097 4581 
L 3097 0 
L 2575 0 
z
M 797 1656 
Q 797 1019 1065 703 
Q 1334 388 1700 388 
Q 2069 388 2326 689 
Q 2584 991 2584 1609 
Q 2584 2291 2321 2609 
Q 2059 2928 1675 2928 
Q 1300 2928 1048 2622 
Q 797 2316 797 1656 
z
" transform="scale(0.015625)"/>
     <path id="ArialMT-65" d="M 2694 1069 
L 3275 997 
Q 3138 488 2766 206 
Q 2394 -75 1816 -75 
Q 1088 -75 661 373 
Q 234 822 234 1631 
Q 234 2469 665 2931 
Q 1097 3394 1784 3394 
Q 2450 3394 2872 2941 
Q 3294 2488 3294 1666 
Q 3294 1616 3291 1516 
L 816 1516 
Q 847 969 1125 678 
Q 1403 388 1819 388 
Q 2128 388 2347 550 
Q 2566 713 2694 1069 
z
M 847 1978 
L 2700 1978 
Q 2663 2397 2488 2606 
Q 2219 2931 1791 2931 
Q 1403 2931 1139 2672 
Q 875 2413 847 1978 
z
" transform="scale(0.015625)"/>
     <path id="ArialMT-70" d="M 422 -1272 
L 422 3319 
L 934 3319 
L 934 2888 
Q 1116 3141 1344 3267 
Q 1572 3394 1897 3394 
Q 2322 3394 2647 3175 
Q 2972 2956 3137 2557 
Q 3303 2159 3303 1684 
Q 3303 1175 3120 767 
Q 2938 359 2589 142 
Q 2241 -75 1856 -75 
Q 1575 -75 1351 44 
Q 1128 163 984 344 
L 984 -1272 
L 422 -1272 
z
M 931 1641 
Q 931 1000 1190 694 
Q 1450 388 1819 388 
Q 2194 388 2461 705 
Q 2728 1022 2728 1688 
Q 2728 2322 2467 2637 
Q 2206 2953 1844 2953 
Q 1484 2953 1207 2617 
Q 931 2281 931 1641 
z
" transform="scale(0.015625)"/>
     <path id="ArialMT-72" d="M 416 0 
L 416 3319 
L 922 3319 
L 922 2816 
Q 1116 3169 1280 3281 
Q 1444 3394 1641 3394 
Q 1925 3394 2219 3213 
L 2025 2691 
Q 1819 2813 1613 2813 
Q 1428 2813 1281 2702 
Q 1134 2591 1072 2394 
Q 978 2094 978 1738 
L 978 0 
L 416 0 
z
" transform="scale(0.015625)"/>
     <path id="ArialMT-6e" d="M 422 0 
L 422 3319 
L 928 3319 
L 928 2847 
Q 1294 3394 1984 3394 
Q 2284 3394 2536 3286 
Q 2788 3178 2913 3003 
Q 3038 2828 3088 2588 
Q 3119 2431 3119 2041 
L 3119 0 
L 2556 0 
L 2556 2019 
Q 2556 2363 2490 2533 
Q 2425 2703 2258 2804 
Q 2091 2906 1866 2906 
Q 1506 2906 1245 2678 
Q 984 2450 984 1813 
L 984 0 
L 422 0 
z
" transform="scale(0.015625)"/>
     <path id="ArialMT-3a" d="M 578 2678 
L 578 3319 
L 1219 3319 
L 1219 2678 
L 578 2678 
z
M 578 0 
L 578 641 
L 1219 641 
L 1219 0 
L 578 0 
z
" transform="scale(0.015625)"/>
     <path id="ArialMT-67" d="M 319 -275 
L 866 -356 
Q 900 -609 1056 -725 
Q 1266 -881 1628 -881 
Q 2019 -881 2231 -725 
Q 2444 -569 2519 -288 
Q 2563 -116 2559 434 
Q 2191 0 1641 0 
Q 956 0 581 494 
Q 206 988 206 1678 
Q 206 2153 378 2554 
Q 550 2956 876 3175 
Q 1203 3394 1644 3394 
Q 2231 3394 2613 2919 
L 2613 3319 
L 3131 3319 
L 3131 450 
Q 3131 -325 2973 -648 
Q 2816 -972 2473 -1159 
Q 2131 -1347 1631 -1347 
Q 1038 -1347 672 -1080 
Q 306 -813 319 -275 
z
M 784 1719 
Q 784 1066 1043 766 
Q 1303 466 1694 466 
Q 2081 466 2343 764 
Q 2606 1063 2606 1700 
Q 2606 2309 2336 2618 
Q 2066 2928 1684 2928 
Q 1309 2928 1046 2623 
Q 784 2319 784 1719 
z
" transform="scale(0.015625)"/>
     <path id="ArialMT-2c" d="M 569 0 
L 569 641 
L 1209 641 
L 1209 0 
Q 1209 -353 1084 -570 
Q 959 -788 688 -906 
L 531 -666 
Q 709 -588 793 -436 
Q 878 -284 888 0 
L 569 0 
z
" transform="scale(0.015625)"/>
     <path id="ArialMT-68" d="M 422 0 
L 422 4581 
L 984 4581 
L 984 2938 
Q 1378 3394 1978 3394 
Q 2347 3394 2619 3248 
Q 2891 3103 3008 2847 
Q 3125 2591 3125 2103 
L 3125 0 
L 2563 0 
L 2563 2103 
Q 2563 2525 2380 2717 
Q 2197 2909 1863 2909 
Q 1613 2909 1392 2779 
Q 1172 2650 1078 2428 
Q 984 2206 984 1816 
L 984 0 
L 422 0 
z
" transform="scale(0.015625)"/>
     <path id="ArialMT-69" d="M 425 3934 
L 425 4581 
L 988 4581 
L 988 3934 
L 425 3934 
z
M 425 0 
L 425 3319 
L 988 3319 
L 988 0 
L 425 0 
z
" transform="scale(0.015625)"/>
     <path id="ArialMT-2d" d="M 203 1375 
L 203 1941 
L 1931 1941 
L 1931 1375 
L 203 1375 
z
" transform="scale(0.015625)"/>
     <path id="ArialMT-62" d="M 941 0 
L 419 0 
L 419 4581 
L 981 4581 
L 981 2947 
Q 1338 3394 1891 3394 
Q 2197 3394 2470 3270 
Q 2744 3147 2920 2923 
Q 3097 2700 3197 2384 
Q 3297 2069 3297 1709 
Q 3297 856 2875 390 
Q 2453 -75 1863 -75 
Q 1275 -75 941 416 
L 941 0 
z
M 934 1684 
Q 934 1088 1097 822 
Q 1363 388 1816 388 
Q 2184 388 2453 708 
Q 2722 1028 2722 1663 
Q 2722 2313 2464 2622 
Q 2206 2931 1841 2931 
Q 1472 2931 1203 2611 
Q 934 2291 934 1684 
z
" transform="scale(0.015625)"/>
     <path id="ArialMT-33" d="M 269 1209 
L 831 1284 
Q 928 806 1161 595 
Q 1394 384 1728 384 
Q 2125 384 2398 659 
Q 2672 934 2672 1341 
Q 2672 1728 2419 1979 
Q 2166 2231 1775 2231 
Q 1616 2231 1378 2169 
L 1441 2663 
Q 1497 2656 1531 2656 
Q 1891 2656 2178 2843 
Q 2466 3031 2466 3422 
Q 2466 3731 2256 3934 
Q 2047 4138 1716 4138 
Q 1388 4138 1169 3931 
Q 950 3725 888 3313 
L 325 3413 
Q 428 3978 793 4289 
Q 1159 4600 1703 4600 
Q 2078 4600 2393 4439 
Q 2709 4278 2876 4000 
Q 3044 3722 3044 3409 
Q 3044 3113 2884 2869 
Q 2725 2625 2413 2481 
Q 2819 2388 3044 2092 
Q 3269 1797 3269 1353 
Q 3269 753 2831 336 
Q 2394 -81 1725 -81 
Q 1122 -81 723 278 
Q 325 638 269 1209 
z
" transform="scale(0.015625)"/>
     <path id="ArialMT-2f" d="M 0 -78 
L 1328 4659 
L 1778 4659 
L 453 -78 
L 0 -78 
z
" transform="scale(0.015625)"/>
    </defs>
    <use xlink:href="#ArialMT-50"/>
    <use xlink:href="#ArialMT-6c" x="66.699219"/>
    <use xlink:href="#ArialMT-6f" x="88.916016"/>
    <use xlink:href="#ArialMT-74" x="144.53125"/>
    <use xlink:href="#ArialMT-73" x="172.314453"/>
    <use xlink:href="#ArialMT-20" x="222.314453"/>
    <use xlink:href="#ArialMT-6f" x="250.097656"/>
    <use xlink:href="#ArialMT-66" x="305.712891"/>
    <use xlink:href="#ArialMT-20" x="333.496094"/>
    <use xlink:href="#ArialMT-6d" x="361.279297"/>
    <use xlink:href="#ArialMT-6f" x="444.580078"/>
    <use xlink:href="#ArialMT-64" x="500.195312"/>
    <use xlink:href="#ArialMT-65" x="555.810547"/>
    <use xlink:href="#ArialMT-6c" x="611.425781"/>
    <use xlink:href="#ArialMT-20" x="633.642578"/>
    <use xlink:href="#ArialMT-70" x="661.425781"/>
    <use xlink:href="#ArialMT-65" x="717.041016"/>
    <use xlink:href="#ArialMT-72" x="772.65625"/>
    <use xlink:href="#ArialMT-66" x="805.957031"/>
    <use xlink:href="#ArialMT-6f" x="833.740234"/>
    <use xlink:href="#ArialMT-72" x="889.355469"/>
    <use xlink:href="#ArialMT-6d" x="922.65625"/>
    <use xlink:href="#ArialMT-61" x="1005.957031"/>
    <use xlink:href="#ArialMT-6e" x="1061.572266"/>
    <use xlink:href="#ArialMT-63" x="1117.1875"/>
    <use xlink:href="#ArialMT-65" x="1167.1875"/>
    <use xlink:href="#ArialMT-3a" x="1222.802734"/>
    <use xlink:href="#ArialMT-20" x="1250.585938"/>
    <use xlink:href="#ArialMT-6d" x="1278.369141"/>
    <use xlink:href="#ArialMT-65" x="1361.669922"/>
    <use xlink:href="#ArialMT-6c" x="1417.285156"/>
    <use xlink:href="#ArialMT-5f" x="1439.501953"/>
    <use xlink:href="#ArialMT-73" x="1495.117188"/>
    <use xlink:href="#ArialMT-70" x="1545.117188"/>
    <use xlink:href="#ArialMT-65" x="1600.732422"/>
    <use xlink:href="#ArialMT-63" x="1656.347656"/>
    <use xlink:href="#ArialMT-74" x="1706.347656"/>
    <use xlink:href="#ArialMT-72" x="1734.130859"/>
    <use xlink:href="#ArialMT-6f" x="1767.431641"/>
    <use xlink:href="#ArialMT-67" x="1823.046875"/>
    <use xlink:href="#ArialMT-72" x="1878.662109"/>
    <use xlink:href="#ArialMT-61" x="1911.962891"/>
    <use xlink:href="#ArialMT-6d" x="1967.578125"/>
    <use xlink:href="#ArialMT-2c" x="2050.878906"/>
    <use xlink:href="#ArialMT-20" x="2078.662109"/>
    <use xlink:href="#ArialMT-64" x="2106.445312"/>
    <use xlink:href="#ArialMT-72" x="2162.060547"/>
    <use xlink:href="#ArialMT-61" x="2195.361328"/>
    <use xlink:href="#ArialMT-67" x="2250.976562"/>
    <use xlink:href="#ArialMT-68" x="2306.591797"/>
    <use xlink:href="#ArialMT-69" x="2362.207031"/>
    <use xlink:href="#ArialMT-63" x="2384.423828"/>
    <use xlink:href="#ArialMT-69" x="2434.423828"/>
    <use xlink:href="#ArialMT-32" x="2456.640625"/>
    <use xlink:href="#ArialMT-30" x="2512.255859"/>
    <use xlink:href="#ArialMT-5f" x="2567.871094"/>
    <use xlink:href="#ArialMT-63" x="2623.486328"/>
    <use xlink:href="#ArialMT-72" x="2673.486328"/>
    <use xlink:href="#ArialMT-6e" x="2706.787109"/>
    <use xlink:href="#ArialMT-6e" x="2762.402344"/>
    <use xlink:href="#ArialMT-20" x="2818.017578"/>
    <use xlink:href="#ArialMT-2d" x="2845.800781"/>
    <use xlink:href="#ArialMT-20" x="2879.101562"/>
    <use xlink:href="#ArialMT-6c" x="2906.884766"/>
    <use xlink:href="#ArialMT-72" x="2929.101562"/>
    <use xlink:href="#ArialMT-20" x="2962.402344"/>
    <use xlink:href="#ArialMT-30" x="2990.185547"/>
    <use xlink:href="#ArialMT-2e" x="3045.800781"/>
    <use xlink:href="#ArialMT-30" x="3073.583984"/>
    <use xlink:href="#ArialMT-30" x="3129.199219"/>
    <use xlink:href="#ArialMT-30" x="3184.814453"/>
    <use xlink:href="#ArialMT-31" x="3240.429688"/>
    <use xlink:href="#ArialMT-2c" x="3296.044922"/>
    <use xlink:href="#ArialMT-20" x="3323.828125"/>
    <use xlink:href="#ArialMT-62" x="3351.611328"/>
    <use xlink:href="#ArialMT-61" x="3407.226562"/>
    <use xlink:href="#ArialMT-74" x="3462.841797"/>
    <use xlink:href="#ArialMT-63" x="3490.625"/>
    <use xlink:href="#ArialMT-68" x="3540.625"/>
    <use xlink:href="#ArialMT-20" x="3596.240234"/>
    <use xlink:href="#ArialMT-33" x="3624.023438"/>
    <use xlink:href="#ArialMT-32" x="3679.638672"/>
    <use xlink:href="#ArialMT-2c" x="3735.253906"/>
    <use xlink:href="#ArialMT-20" x="3763.037109"/>
    <use xlink:href="#ArialMT-31" x="3790.820312"/>
    <use xlink:href="#ArialMT-32" x="3846.435547"/>
    <use xlink:href="#ArialMT-38" x="3902.050781"/>
    <use xlink:href="#ArialMT-20" x="3957.666016"/>
    <use xlink:href="#ArialMT-73" x="3985.449219"/>
    <use xlink:href="#ArialMT-74" x="4035.449219"/>
    <use xlink:href="#ArialMT-65" x="4063.232422"/>
    <use xlink:href="#ArialMT-70" x="4118.847656"/>
    <use xlink:href="#ArialMT-73" x="4174.462891"/>
    <use xlink:href="#ArialMT-2f" x="4224.462891"/>
    <use xlink:href="#ArialMT-65" x="4252.246094"/>
    <use xlink:href="#ArialMT-70" x="4307.861328"/>
    <use xlink:href="#ArialMT-6f" x="4363.476562"/>
    <use xlink:href="#ArialMT-63" x="4419.091797"/>
    <use xlink:href="#ArialMT-68" x="4469.091797"/>
   </g>
  </g>
 </g>
 <defs>
  <clipPath id="p9c16c490f9">
   <rect x="108" y="77.76" width="669.6" height="226.8"/>
  </clipPath>
  <clipPath id="p5ec820a3a3">
   <rect x="108" y="349.92" width="669.6" height="226.8"/>
  </clipPath>
 </defs>
</svg>
