<?xml version="1.0" encoding="utf-8" standalone="no"?>
<!DOCTYPE svg PUBLIC "-//W3C//DTD SVG 1.1//EN"
  "http://www.w3.org/Graphics/SVG/1.1/DTD/svg11.dtd">
<svg xmlns:xlink="http://www.w3.org/1999/xlink" width="864pt" height="648pt" viewBox="0 0 864 648" xmlns="http://www.w3.org/2000/svg" version="1.1">
 <metadata>
  <rdf:RDF xmlns:dc="http://purl.org/dc/elements/1.1/" xmlns:cc="http://creativecommons.org/ns#" xmlns:rdf="http://www.w3.org/1999/02/22-rdf-syntax-ns#">
   <cc:Work>
    <dc:type rdf:resource="http://purl.org/dc/dcmitype/StillImage"/>
    <dc:date>2022-06-08T14:59:22.247967</dc:date>
    <dc:format>image/svg+xml</dc:format>
    <dc:creator>
     <cc:Agent>
      <dc:title>Matplotlib v3.5.1, https://matplotlib.org/</dc:title>
     </cc:Agent>
    </dc:creator>
   </cc:Work>
  </rdf:RDF>
 </metadata>
 <defs>
  <style type="text/css">*{stroke-linejoin: round; stroke-linecap: butt}</style>
 </defs>
 <g id="figure_1">
  <g id="patch_1">
   <path d="M 0 648 
L 864 648 
L 864 0 
L 0 0 
z
" style="fill: #ffffff"/>
  </g>
  <g id="axes_1">
   <g id="patch_2">
    <path d="M 108 304.56 
L 777.6 304.56 
L 777.6 77.76 
L 108 77.76 
z
" style="fill: #eaeaf2"/>
   </g>
   <g id="matplotlib.axis_1">
    <g id="xtick_1">
     <g id="line2d_1"/>
     <g id="text_1">
      <!-- 0 -->
      <g style="fill: #262626" transform="translate(135.655895 318.717812)scale(0.1 -0.1)">
       <defs>
        <path id="ArialMT-30" d="M 266 2259 
Q 266 3072 433 3567 
Q 600 4063 929 4331 
Q 1259 4600 1759 4600 
Q 2128 4600 2406 4451 
Q 2684 4303 2865 4023 
Q 3047 3744 3150 3342 
Q 3253 2941 3253 2259 
Q 3253 1453 3087 958 
Q 2922 463 2592 192 
Q 2263 -78 1759 -78 
Q 1097 -78 719 397 
Q 266 969 266 2259 
z
M 844 2259 
Q 844 1131 1108 757 
Q 1372 384 1759 384 
Q 2147 384 2411 759 
Q 2675 1134 2675 2259 
Q 2675 3391 2411 3762 
Q 2147 4134 1753 4134 
Q 1366 4134 1134 3806 
Q 844 3388 844 2259 
z
" transform="scale(0.015625)"/>
       </defs>
       <use xlink:href="#ArialMT-30"/>
      </g>
     </g>
    </g>
    <g id="xtick_2">
     <g id="line2d_2"/>
     <g id="text_2">
      <!-- 20 -->
      <g style="fill: #262626" transform="translate(255.850633 318.717812)scale(0.1 -0.1)">
       <defs>
        <path id="ArialMT-32" d="M 3222 541 
L 3222 0 
L 194 0 
Q 188 203 259 391 
Q 375 700 629 1000 
Q 884 1300 1366 1694 
Q 2113 2306 2375 2664 
Q 2638 3022 2638 3341 
Q 2638 3675 2398 3904 
Q 2159 4134 1775 4134 
Q 1369 4134 1125 3890 
Q 881 3647 878 3216 
L 300 3275 
Q 359 3922 746 4261 
Q 1134 4600 1788 4600 
Q 2447 4600 2831 4234 
Q 3216 3869 3216 3328 
Q 3216 3053 3103 2787 
Q 2991 2522 2730 2228 
Q 2469 1934 1863 1422 
Q 1356 997 1212 845 
Q 1069 694 975 541 
L 3222 541 
z
" transform="scale(0.015625)"/>
       </defs>
       <use xlink:href="#ArialMT-32"/>
       <use xlink:href="#ArialMT-30" x="55.615234"/>
      </g>
     </g>
    </g>
    <g id="xtick_3">
     <g id="line2d_3"/>
     <g id="text_3">
      <!-- 40 -->
      <g style="fill: #262626" transform="translate(378.825839 318.717812)scale(0.1 -0.1)">
       <defs>
        <path id="ArialMT-34" d="M 2069 0 
L 2069 1097 
L 81 1097 
L 81 1613 
L 2172 4581 
L 2631 4581 
L 2631 1613 
L 3250 1613 
L 3250 1097 
L 2631 1097 
L 2631 0 
L 2069 0 
z
M 2069 1613 
L 2069 3678 
L 634 1613 
L 2069 1613 
z
" transform="scale(0.015625)"/>
       </defs>
       <use xlink:href="#ArialMT-34"/>
       <use xlink:href="#ArialMT-30" x="55.615234"/>
      </g>
     </g>
    </g>
    <g id="xtick_4">
     <g id="line2d_4"/>
     <g id="text_4">
      <!-- 60 -->
      <g style="fill: #262626" transform="translate(501.801046 318.717812)scale(0.1 -0.1)">
       <defs>
        <path id="ArialMT-36" d="M 3184 3459 
L 2625 3416 
Q 2550 3747 2413 3897 
Q 2184 4138 1850 4138 
Q 1581 4138 1378 3988 
Q 1113 3794 959 3422 
Q 806 3050 800 2363 
Q 1003 2672 1297 2822 
Q 1591 2972 1913 2972 
Q 2475 2972 2870 2558 
Q 3266 2144 3266 1488 
Q 3266 1056 3080 686 
Q 2894 316 2569 119 
Q 2244 -78 1831 -78 
Q 1128 -78 684 439 
Q 241 956 241 2144 
Q 241 3472 731 4075 
Q 1159 4600 1884 4600 
Q 2425 4600 2770 4297 
Q 3116 3994 3184 3459 
z
M 888 1484 
Q 888 1194 1011 928 
Q 1134 663 1356 523 
Q 1578 384 1822 384 
Q 2178 384 2434 671 
Q 2691 959 2691 1453 
Q 2691 1928 2437 2201 
Q 2184 2475 1800 2475 
Q 1419 2475 1153 2201 
Q 888 1928 888 1484 
z
" transform="scale(0.015625)"/>
       </defs>
       <use xlink:href="#ArialMT-36"/>
       <use xlink:href="#ArialMT-30" x="55.615234"/>
      </g>
     </g>
    </g>
    <g id="xtick_5">
     <g id="line2d_5"/>
     <g id="text_5">
      <!-- 80 -->
      <g style="fill: #262626" transform="translate(624.776253 318.717812)scale(0.1 -0.1)">
       <defs>
        <path id="ArialMT-38" d="M 1131 2484 
Q 781 2613 612 2850 
Q 444 3088 444 3419 
Q 444 3919 803 4259 
Q 1163 4600 1759 4600 
Q 2359 4600 2725 4251 
Q 3091 3903 3091 3403 
Q 3091 3084 2923 2848 
Q 2756 2613 2416 2484 
Q 2838 2347 3058 2040 
Q 3278 1734 3278 1309 
Q 3278 722 2862 322 
Q 2447 -78 1769 -78 
Q 1091 -78 675 323 
Q 259 725 259 1325 
Q 259 1772 486 2073 
Q 713 2375 1131 2484 
z
M 1019 3438 
Q 1019 3113 1228 2906 
Q 1438 2700 1772 2700 
Q 2097 2700 2305 2904 
Q 2513 3109 2513 3406 
Q 2513 3716 2298 3927 
Q 2084 4138 1766 4138 
Q 1444 4138 1231 3931 
Q 1019 3725 1019 3438 
z
M 838 1322 
Q 838 1081 952 856 
Q 1066 631 1291 507 
Q 1516 384 1775 384 
Q 2178 384 2440 643 
Q 2703 903 2703 1303 
Q 2703 1709 2433 1975 
Q 2163 2241 1756 2241 
Q 1359 2241 1098 1978 
Q 838 1716 838 1322 
z
" transform="scale(0.015625)"/>
       </defs>
       <use xlink:href="#ArialMT-38"/>
       <use xlink:href="#ArialMT-30" x="55.615234"/>
      </g>
     </g>
    </g>
    <g id="xtick_6">
     <g id="line2d_6"/>
     <g id="text_6">
      <!-- 100 -->
      <g style="fill: #262626" transform="translate(744.97099 318.717812)scale(0.1 -0.1)">
       <defs>
        <path id="ArialMT-31" d="M 2384 0 
L 1822 0 
L 1822 3584 
Q 1619 3391 1289 3197 
Q 959 3003 697 2906 
L 697 3450 
Q 1169 3672 1522 3987 
Q 1875 4303 2022 4600 
L 2384 4600 
L 2384 0 
z
" transform="scale(0.015625)"/>
       </defs>
       <use xlink:href="#ArialMT-31"/>
       <use xlink:href="#ArialMT-30" x="55.615234"/>
       <use xlink:href="#ArialMT-30" x="111.230469"/>
      </g>
     </g>
    </g>
   </g>
   <g id="matplotlib.axis_2">
    <g id="ytick_1">
     <g id="line2d_7"/>
     <g id="text_7">
      <!-- 1.5 -->
      <g style="fill: #262626" transform="translate(87.1 301.514533)scale(0.1 -0.1)">
       <defs>
        <path id="ArialMT-2e" d="M 581 0 
L 581 641 
L 1222 641 
L 1222 0 
L 581 0 
z
" transform="scale(0.015625)"/>
        <path id="ArialMT-35" d="M 266 1200 
L 856 1250 
Q 922 819 1161 601 
Q 1400 384 1738 384 
Q 2144 384 2425 690 
Q 2706 997 2706 1503 
Q 2706 1984 2436 2262 
Q 2166 2541 1728 2541 
Q 1456 2541 1237 2417 
Q 1019 2294 894 2097 
L 366 2166 
L 809 4519 
L 3088 4519 
L 3088 3981 
L 1259 3981 
L 1013 2750 
Q 1425 3038 1878 3038 
Q 2478 3038 2890 2622 
Q 3303 2206 3303 1553 
Q 3303 931 2941 478 
Q 2500 -78 1738 -78 
Q 1113 -78 717 272 
Q 322 622 266 1200 
z
" transform="scale(0.015625)"/>
       </defs>
       <use xlink:href="#ArialMT-31"/>
       <use xlink:href="#ArialMT-2e" x="55.615234"/>
       <use xlink:href="#ArialMT-35" x="83.398438"/>
      </g>
     </g>
    </g>
    <g id="ytick_2">
     <g id="line2d_8"/>
     <g id="text_8">
      <!-- 2.0 -->
      <g style="fill: #262626" transform="translate(87.1 273.804058)scale(0.1 -0.1)">
       <use xlink:href="#ArialMT-32"/>
       <use xlink:href="#ArialMT-2e" x="55.615234"/>
       <use xlink:href="#ArialMT-30" x="83.398438"/>
      </g>
     </g>
    </g>
    <g id="ytick_3">
     <g id="line2d_9"/>
     <g id="text_9">
      <!-- 2.5 -->
      <g style="fill: #262626" transform="translate(87.1 246.093584)scale(0.1 -0.1)">
       <use xlink:href="#ArialMT-32"/>
       <use xlink:href="#ArialMT-2e" x="55.615234"/>
       <use xlink:href="#ArialMT-35" x="83.398438"/>
      </g>
     </g>
    </g>
    <g id="ytick_4">
     <g id="line2d_10"/>
     <g id="text_10">
      <!-- 3.0 -->
      <g style="fill: #262626" transform="translate(87.1 218.38311)scale(0.1 -0.1)">
       <defs>
        <path id="ArialMT-33" d="M 269 1209 
L 831 1284 
Q 928 806 1161 595 
Q 1394 384 1728 384 
Q 2125 384 2398 659 
Q 2672 934 2672 1341 
Q 2672 1728 2419 1979 
Q 2166 2231 1775 2231 
Q 1616 2231 1378 2169 
L 1441 2663 
Q 1497 2656 1531 2656 
Q 1891 2656 2178 2843 
Q 2466 3031 2466 3422 
Q 2466 3731 2256 3934 
Q 2047 4138 1716 4138 
Q 1388 4138 1169 3931 
Q 950 3725 888 3313 
L 325 3413 
Q 428 3978 793 4289 
Q 1159 4600 1703 4600 
Q 2078 4600 2393 4439 
Q 2709 4278 2876 4000 
Q 3044 3722 3044 3409 
Q 3044 3113 2884 2869 
Q 2725 2625 2413 2481 
Q 2819 2388 3044 2092 
Q 3269 1797 3269 1353 
Q 3269 753 2831 336 
Q 2394 -81 1725 -81 
Q 1122 -81 723 278 
Q 325 638 269 1209 
z
" transform="scale(0.015625)"/>
       </defs>
       <use xlink:href="#ArialMT-33"/>
       <use xlink:href="#ArialMT-2e" x="55.615234"/>
       <use xlink:href="#ArialMT-30" x="83.398438"/>
      </g>
     </g>
    </g>
    <g id="ytick_5">
     <g id="line2d_11"/>
     <g id="text_11">
      <!-- 3.5 -->
      <g style="fill: #262626" transform="translate(87.1 190.672636)scale(0.1 -0.1)">
       <use xlink:href="#ArialMT-33"/>
       <use xlink:href="#ArialMT-2e" x="55.615234"/>
       <use xlink:href="#ArialMT-35" x="83.398438"/>
      </g>
     </g>
    </g>
    <g id="ytick_6">
     <g id="line2d_12"/>
     <g id="text_12">
      <!-- 4.0 -->
      <g style="fill: #262626" transform="translate(87.1 162.962162)scale(0.1 -0.1)">
       <use xlink:href="#ArialMT-34"/>
       <use xlink:href="#ArialMT-2e" x="55.615234"/>
       <use xlink:href="#ArialMT-30" x="83.398438"/>
      </g>
     </g>
    </g>
    <g id="ytick_7">
     <g id="line2d_13"/>
     <g id="text_13">
      <!-- 4.5 -->
      <g style="fill: #262626" transform="translate(87.1 135.251688)scale(0.1 -0.1)">
       <use xlink:href="#ArialMT-34"/>
       <use xlink:href="#ArialMT-2e" x="55.615234"/>
       <use xlink:href="#ArialMT-35" x="83.398438"/>
      </g>
     </g>
    </g>
    <g id="ytick_8">
     <g id="line2d_14"/>
     <g id="text_14">
      <!-- 5.0 -->
      <g style="fill: #262626" transform="translate(87.1 107.541214)scale(0.1 -0.1)">
       <use xlink:href="#ArialMT-35"/>
       <use xlink:href="#ArialMT-2e" x="55.615234"/>
       <use xlink:href="#ArialMT-30" x="83.398438"/>
      </g>
     </g>
    </g>
   </g>
   <g id="line2d_15">
    <path d="M 138.436364 88.069091 
L 144.585124 107.841466 
L 150.733884 115.80689 
L 156.882645 128.908621 
L 163.031405 136.328834 
L 169.180165 142.337092 
L 175.328926 145.20622 
L 181.477686 152.272896 
L 187.626446 157.486078 
L 193.775207 160.231528 
L 199.923967 166.746665 
L 206.072727 172.254307 
L 212.221488 175.483592 
L 218.370248 178.792369 
L 224.519008 184.25823 
L 230.667769 187.264222 
L 236.816529 190.361783 
L 242.965289 196.038636 
L 249.11405 195.322986 
L 255.26281 200.908904 
L 261.41157 201.836853 
L 267.560331 206.891805 
L 273.709091 210.331117 
L 279.857851 211.341597 
L 286.006612 214.718991 
L 292.155372 212.439722 
L 298.304132 217.981758 
L 304.452893 222.149273 
L 310.601653 225.164607 
L 316.750413 225.035182 
L 322.899174 228.69402 
L 329.047934 226.429471 
L 335.196694 234.395358 
L 341.345455 232.155187 
L 347.494215 238.021414 
L 353.642975 237.170023 
L 359.791736 234.536146 
L 365.940496 241.862241 
L 372.089256 239.146996 
L 378.238017 246.296309 
L 384.386777 243.886148 
L 390.535537 247.73921 
L 396.684298 248.33516 
L 402.833058 249.908901 
L 408.981818 252.161743 
L 415.130579 249.690153 
L 421.279339 254.281355 
L 427.428099 255.259026 
L 433.57686 255.334065 
L 439.72562 256.13839 
L 445.87438 261.080024 
L 452.02314 260.450922 
L 458.171901 262.399142 
L 464.320661 264.737779 
L 470.469421 264.614128 
L 476.618182 267.246829 
L 482.766942 264.810691 
L 488.915702 262.182522 
L 495.064463 261.533005 
L 501.213223 267.968412 
L 507.361983 264.198013 
L 513.510744 265.867299 
L 519.659504 270.174016 
L 525.808264 268.583217 
L 531.957025 270.900878 
L 538.105785 269.226471 
L 544.254545 275.887252 
L 550.403306 273.446232 
L 556.552066 274.947364 
L 562.700826 274.416352 
L 568.849587 279.035295 
L 574.998347 275.91031 
L 581.147107 280.267813 
L 587.295868 274.724818 
L 593.444628 270.146017 
L 599.593388 272.081355 
L 605.742149 272.15936 
L 611.890909 275.447134 
L 618.039669 270.76846 
L 624.18843 275.075019 
L 630.33719 277.150247 
L 636.48595 278.438512 
L 642.634711 279.210313 
L 648.783471 280.696574 
L 654.932231 282.187189 
L 661.080992 284.223041 
L 667.229752 281.978265 
L 673.378512 284.620057 
L 679.527273 283.989085 
L 685.676033 286.315182 
L 691.824793 289.116855 
L 697.973554 287.209702 
L 704.122314 287.48931 
L 710.271074 288.411228 
L 716.419835 290.128591 
L 722.568595 291.49572 
L 728.717355 289.229969 
L 734.866116 293.505582 
L 741.014876 290.942535 
L 747.163636 294.250909 
" clip-path="url(#pbef021f3e6)" style="fill: none; stroke: #ff0000; stroke-width: 1.75; stroke-linecap: round"/>
   </g>
   <g id="line2d_16">
    <path d="M 138.436364 98.751081 
L 144.585124 116.082601 
L 150.733884 141.7061 
L 156.882645 151.846157 
L 163.031405 152.914459 
L 169.180165 161.785039 
L 175.328926 146.811223 
L 181.477686 150.613427 
L 187.626446 147.801963 
L 193.775207 170.529828 
L 199.923967 179.49984 
L 206.072727 184.728019 
L 212.221488 177.521717 
L 218.370248 182.543675 
L 224.519008 183.023757 
L 230.667769 195.967442 
L 236.816529 193.819236 
L 242.965289 192.285889 
L 249.11405 200.684448 
L 255.26281 195.909211 
L 261.41157 197.01229 
L 267.560331 212.047377 
L 273.709091 205.928179 
L 279.857851 208.640808 
L 286.006612 211.415883 
L 292.155372 201.924128 
L 298.304132 219.949839 
L 304.452893 217.504993 
L 310.601653 216.775403 
L 316.750413 219.327211 
L 322.899174 212.793629 
L 329.047934 226.510086 
L 335.196694 223.382438 
L 341.345455 213.537516 
L 347.494215 221.924302 
L 353.642975 221.786037 
L 359.791736 231.337464 
L 365.940496 228.715043 
L 372.089256 224.737603 
L 378.238017 220.04524 
L 384.386777 223.2229 
L 390.535537 230.316598 
L 396.684298 234.995668 
L 402.833058 237.411735 
L 408.981818 240.798907 
L 415.130579 230.504267 
L 421.279339 240.18792 
L 427.428099 241.219912 
L 433.57686 239.414884 
L 439.72562 245.010858 
L 445.87438 242.853377 
L 452.02314 241.470741 
L 458.171901 247.491169 
L 464.320661 247.588657 
L 470.469421 241.068856 
L 476.618182 244.158172 
L 482.766942 242.175253 
L 488.915702 245.69913 
L 495.064463 245.282644 
L 501.213223 244.963237 
L 507.361983 230.756418 
L 513.510744 243.74203 
L 519.659504 237.370338 
L 525.808264 247.861276 
L 531.957025 237.41932 
L 538.105785 245.381758 
L 544.254545 241.473318 
L 550.403306 249.654015 
L 556.552066 246.478997 
L 562.700826 248.478129 
L 568.849587 255.693271 
L 574.998347 252.723153 
L 581.147107 199.54334 
L 587.295868 230.488002 
L 593.444628 244.746286 
L 599.593388 255.674865 
L 605.742149 246.266367 
L 611.890909 250.703065 
L 618.039669 249.591581 
L 624.18843 243.852375 
L 630.33719 256.942966 
L 636.48595 253.61392 
L 642.634711 251.691215 
L 648.783471 257.519572 
L 654.932231 254.434617 
L 661.080992 254.212725 
L 667.229752 255.997469 
L 673.378512 243.051023 
L 679.527273 259.273596 
L 685.676033 231.442312 
L 691.824793 255.929407 
L 697.973554 262.391571 
L 704.122314 259.779787 
L 710.271074 262.712656 
L 716.419835 259.151874 
L 722.568595 254.214865 
L 728.717355 257.05417 
L 734.866116 256.511074 
L 741.014876 260.419104 
L 747.163636 260.070284 
" clip-path="url(#pbef021f3e6)" style="fill: none; stroke: #008000; stroke-width: 1.75; stroke-linecap: round"/>
   </g>
   <g id="patch_3">
    <path d="M 108 304.56 
L 108 77.76 
" style="fill: none"/>
   </g>
   <g id="patch_4">
    <path d="M 777.6 304.56 
L 777.6 77.76 
" style="fill: none"/>
   </g>
   <g id="patch_5">
    <path d="M 108 304.56 
L 777.6 304.56 
" style="fill: none"/>
   </g>
   <g id="patch_6">
    <path d="M 108 77.76 
L 777.6 77.76 
" style="fill: none"/>
   </g>
   <g id="legend_1">
    <g id="line2d_17">
     <path d="M 704.473438 90.417812 
L 714.473438 90.417812 
L 724.473438 90.417812 
" style="fill: none; stroke: #ff0000; stroke-width: 1.75; stroke-linecap: round"/>
    </g>
    <g id="text_15">
     <!-- loss -->
     <g style="fill: #262626" transform="translate(732.473438 93.917812)scale(0.1 -0.1)">
      <defs>
       <path id="ArialMT-6c" d="M 409 0 
L 409 4581 
L 972 4581 
L 972 0 
L 409 0 
z
" transform="scale(0.015625)"/>
       <path id="ArialMT-6f" d="M 213 1659 
Q 213 2581 725 3025 
Q 1153 3394 1769 3394 
Q 2453 3394 2887 2945 
Q 3322 2497 3322 1706 
Q 3322 1066 3130 698 
Q 2938 331 2570 128 
Q 2203 -75 1769 -75 
Q 1072 -75 642 372 
Q 213 819 213 1659 
z
M 791 1659 
Q 791 1022 1069 705 
Q 1347 388 1769 388 
Q 2188 388 2466 706 
Q 2744 1025 2744 1678 
Q 2744 2294 2464 2611 
Q 2184 2928 1769 2928 
Q 1347 2928 1069 2612 
Q 791 2297 791 1659 
z
" transform="scale(0.015625)"/>
       <path id="ArialMT-73" d="M 197 991 
L 753 1078 
Q 800 744 1014 566 
Q 1228 388 1613 388 
Q 2000 388 2187 545 
Q 2375 703 2375 916 
Q 2375 1106 2209 1216 
Q 2094 1291 1634 1406 
Q 1016 1563 777 1677 
Q 538 1791 414 1992 
Q 291 2194 291 2438 
Q 291 2659 392 2848 
Q 494 3038 669 3163 
Q 800 3259 1026 3326 
Q 1253 3394 1513 3394 
Q 1903 3394 2198 3281 
Q 2494 3169 2634 2976 
Q 2775 2784 2828 2463 
L 2278 2388 
Q 2241 2644 2061 2787 
Q 1881 2931 1553 2931 
Q 1166 2931 1000 2803 
Q 834 2675 834 2503 
Q 834 2394 903 2306 
Q 972 2216 1119 2156 
Q 1203 2125 1616 2013 
Q 2213 1853 2448 1751 
Q 2684 1650 2818 1456 
Q 2953 1263 2953 975 
Q 2953 694 2789 445 
Q 2625 197 2315 61 
Q 2006 -75 1616 -75 
Q 969 -75 630 194 
Q 291 463 197 991 
z
" transform="scale(0.015625)"/>
      </defs>
      <use xlink:href="#ArialMT-6c"/>
      <use xlink:href="#ArialMT-6f" x="22.216797"/>
      <use xlink:href="#ArialMT-73" x="77.832031"/>
      <use xlink:href="#ArialMT-73" x="127.832031"/>
     </g>
    </g>
    <g id="line2d_18">
     <path d="M 704.473438 104.563125 
L 714.473438 104.563125 
L 724.473438 104.563125 
" style="fill: none; stroke: #008000; stroke-width: 1.75; stroke-linecap: round"/>
    </g>
    <g id="text_16">
     <!-- val_loss -->
     <g style="fill: #262626" transform="translate(732.473438 108.063125)scale(0.1 -0.1)">
      <defs>
       <path id="ArialMT-76" d="M 1344 0 
L 81 3319 
L 675 3319 
L 1388 1331 
Q 1503 1009 1600 663 
Q 1675 925 1809 1294 
L 2547 3319 
L 3125 3319 
L 1869 0 
L 1344 0 
z
" transform="scale(0.015625)"/>
       <path id="ArialMT-61" d="M 2588 409 
Q 2275 144 1986 34 
Q 1697 -75 1366 -75 
Q 819 -75 525 192 
Q 231 459 231 875 
Q 231 1119 342 1320 
Q 453 1522 633 1644 
Q 813 1766 1038 1828 
Q 1203 1872 1538 1913 
Q 2219 1994 2541 2106 
Q 2544 2222 2544 2253 
Q 2544 2597 2384 2738 
Q 2169 2928 1744 2928 
Q 1347 2928 1158 2789 
Q 969 2650 878 2297 
L 328 2372 
Q 403 2725 575 2942 
Q 747 3159 1072 3276 
Q 1397 3394 1825 3394 
Q 2250 3394 2515 3294 
Q 2781 3194 2906 3042 
Q 3031 2891 3081 2659 
Q 3109 2516 3109 2141 
L 3109 1391 
Q 3109 606 3145 398 
Q 3181 191 3288 0 
L 2700 0 
Q 2613 175 2588 409 
z
M 2541 1666 
Q 2234 1541 1622 1453 
Q 1275 1403 1131 1340 
Q 988 1278 909 1158 
Q 831 1038 831 891 
Q 831 666 1001 516 
Q 1172 366 1500 366 
Q 1825 366 2078 508 
Q 2331 650 2450 897 
Q 2541 1088 2541 1459 
L 2541 1666 
z
" transform="scale(0.015625)"/>
       <path id="ArialMT-5f" d="M -97 -1272 
L -97 -866 
L 3631 -866 
L 3631 -1272 
L -97 -1272 
z
" transform="scale(0.015625)"/>
      </defs>
      <use xlink:href="#ArialMT-76"/>
      <use xlink:href="#ArialMT-61" x="50"/>
      <use xlink:href="#ArialMT-6c" x="105.615234"/>
      <use xlink:href="#ArialMT-5f" x="127.832031"/>
      <use xlink:href="#ArialMT-6c" x="183.447266"/>
      <use xlink:href="#ArialMT-6f" x="205.664062"/>
      <use xlink:href="#ArialMT-73" x="261.279297"/>
      <use xlink:href="#ArialMT-73" x="311.279297"/>
     </g>
    </g>
   </g>
  </g>
  <g id="axes_2">
   <g id="patch_7">
    <path d="M 108 576.72 
L 777.6 576.72 
L 777.6 349.92 
L 108 349.92 
z
" style="fill: #eaeaf2"/>
   </g>
   <g id="matplotlib.axis_3">
    <g id="xtick_7">
     <g id="line2d_19"/>
     <g id="text_17">
      <!-- 0 -->
      <g style="fill: #262626" transform="translate(135.655895 590.877813)scale(0.1 -0.1)">
       <use xlink:href="#ArialMT-30"/>
      </g>
     </g>
    </g>
    <g id="xtick_8">
     <g id="line2d_20"/>
     <g id="text_18">
      <!-- 20 -->
      <g style="fill: #262626" transform="translate(255.850633 590.877813)scale(0.1 -0.1)">
       <use xlink:href="#ArialMT-32"/>
       <use xlink:href="#ArialMT-30" x="55.615234"/>
      </g>
     </g>
    </g>
    <g id="xtick_9">
     <g id="line2d_21"/>
     <g id="text_19">
      <!-- 40 -->
      <g style="fill: #262626" transform="translate(378.825839 590.877813)scale(0.1 -0.1)">
       <use xlink:href="#ArialMT-34"/>
       <use xlink:href="#ArialMT-30" x="55.615234"/>
      </g>
     </g>
    </g>
    <g id="xtick_10">
     <g id="line2d_22"/>
     <g id="text_20">
      <!-- 60 -->
      <g style="fill: #262626" transform="translate(501.801046 590.877813)scale(0.1 -0.1)">
       <use xlink:href="#ArialMT-36"/>
       <use xlink:href="#ArialMT-30" x="55.615234"/>
      </g>
     </g>
    </g>
    <g id="xtick_11">
     <g id="line2d_23"/>
     <g id="text_21">
      <!-- 80 -->
      <g style="fill: #262626" transform="translate(624.776253 590.877813)scale(0.1 -0.1)">
       <use xlink:href="#ArialMT-38"/>
       <use xlink:href="#ArialMT-30" x="55.615234"/>
      </g>
     </g>
    </g>
    <g id="xtick_12">
     <g id="line2d_24"/>
     <g id="text_22">
      <!-- 100 -->
      <g style="fill: #262626" transform="translate(744.97099 590.877813)scale(0.1 -0.1)">
       <use xlink:href="#ArialMT-31"/>
       <use xlink:href="#ArialMT-30" x="55.615234"/>
       <use xlink:href="#ArialMT-30" x="111.230469"/>
      </g>
     </g>
    </g>
   </g>
   <g id="matplotlib.axis_4">
    <g id="ytick_9">
     <g id="line2d_25"/>
     <g id="text_23">
      <!-- 0.2 -->
      <g style="fill: #262626" transform="translate(87.1 565.19576)scale(0.1 -0.1)">
       <use xlink:href="#ArialMT-30"/>
       <use xlink:href="#ArialMT-2e" x="55.615234"/>
       <use xlink:href="#ArialMT-32" x="83.398438"/>
      </g>
     </g>
    </g>
    <g id="ytick_10">
     <g id="line2d_26"/>
     <g id="text_24">
      <!-- 0.3 -->
      <g style="fill: #262626" transform="translate(87.1 526.84332)scale(0.1 -0.1)">
       <use xlink:href="#ArialMT-30"/>
       <use xlink:href="#ArialMT-2e" x="55.615234"/>
       <use xlink:href="#ArialMT-33" x="83.398438"/>
      </g>
     </g>
    </g>
    <g id="ytick_11">
     <g id="line2d_27"/>
     <g id="text_25">
      <!-- 0.4 -->
      <g style="fill: #262626" transform="translate(87.1 488.49088)scale(0.1 -0.1)">
       <use xlink:href="#ArialMT-30"/>
       <use xlink:href="#ArialMT-2e" x="55.615234"/>
       <use xlink:href="#ArialMT-34" x="83.398438"/>
      </g>
     </g>
    </g>
    <g id="ytick_12">
     <g id="line2d_28"/>
     <g id="text_26">
      <!-- 0.5 -->
      <g style="fill: #262626" transform="translate(87.1 450.138441)scale(0.1 -0.1)">
       <use xlink:href="#ArialMT-30"/>
       <use xlink:href="#ArialMT-2e" x="55.615234"/>
       <use xlink:href="#ArialMT-35" x="83.398438"/>
      </g>
     </g>
    </g>
    <g id="ytick_13">
     <g id="line2d_29"/>
     <g id="text_27">
      <!-- 0.6 -->
      <g style="fill: #262626" transform="translate(87.1 411.786001)scale(0.1 -0.1)">
       <use xlink:href="#ArialMT-30"/>
       <use xlink:href="#ArialMT-2e" x="55.615234"/>
       <use xlink:href="#ArialMT-36" x="83.398438"/>
      </g>
     </g>
    </g>
    <g id="ytick_14">
     <g id="line2d_30"/>
     <g id="text_28">
      <!-- 0.7 -->
      <g style="fill: #262626" transform="translate(87.1 373.433561)scale(0.1 -0.1)">
       <defs>
        <path id="ArialMT-37" d="M 303 3981 
L 303 4522 
L 3269 4522 
L 3269 4084 
Q 2831 3619 2401 2847 
Q 1972 2075 1738 1259 
Q 1569 684 1522 0 
L 944 0 
Q 953 541 1156 1306 
Q 1359 2072 1739 2783 
Q 2119 3494 2547 3981 
L 303 3981 
z
" transform="scale(0.015625)"/>
       </defs>
       <use xlink:href="#ArialMT-30"/>
       <use xlink:href="#ArialMT-2e" x="55.615234"/>
       <use xlink:href="#ArialMT-37" x="83.398438"/>
      </g>
     </g>
    </g>
   </g>
   <g id="line2d_31">
    <path d="M 138.436364 548.339569 
L 144.585124 524.650196 
L 150.733884 507.327927 
L 156.882645 487.196641 
L 163.031405 479.144127 
L 169.180165 477.084181 
L 175.328926 470.155274 
L 181.477686 471.185246 
L 187.626446 463.881803 
L 193.775207 464.069071 
L 199.923967 451.709398 
L 206.072727 450.773059 
L 212.221488 448.994015 
L 218.370248 446.372267 
L 224.519008 439.724261 
L 230.667769 439.256091 
L 236.816529 438.413386 
L 242.965289 434.387129 
L 249.11405 434.387129 
L 255.26281 430.641774 
L 261.41157 435.042566 
L 267.560331 425.866445 
L 273.709091 422.495625 
L 279.857851 423.431964 
L 286.006612 419.686609 
L 292.155372 426.990052 
L 298.304132 416.596691 
L 304.452893 417.252128 
L 310.601653 415.753986 
L 316.750413 413.506772 
L 322.899174 412.944969 
L 329.047934 413.69404 
L 335.196694 403.487946 
L 341.345455 410.135952 
L 347.494215 402.738875 
L 353.642975 405.828794 
L 359.791736 409.761417 
L 365.940496 399.929859 
L 372.089256 409.10598 
L 378.238017 395.529066 
L 384.386777 401.802537 
L 390.535537 392.345514 
L 396.684298 397.776279 
L 402.833058 395.060897 
L 408.981818 392.064612 
L 415.130579 399.648957 
L 421.279339 389.34923 
L 427.428099 391.502809 
L 433.57686 390.753738 
L 439.72562 392.064612 
L 445.87438 384.854803 
L 452.02314 390.753738 
L 458.171901 385.603874 
L 464.320661 379.330404 
L 470.469421 379.143136 
L 476.618182 379.424038 
L 482.766942 384.573901 
L 488.915702 389.068328 
L 495.064463 393.93729 
L 501.213223 377.738628 
L 507.361983 388.038355 
L 513.510744 385.97841 
L 519.659504 383.075759 
L 525.808264 384.573901 
L 531.957025 378.394065 
L 538.105785 386.540213 
L 544.254545 368.937042 
L 550.403306 376.989557 
L 556.552066 378.862234 
L 562.700826 377.738628 
L 568.849587 370.435185 
L 574.998347 380.173109 
L 581.147107 369.873381 
L 587.295868 385.322973 
L 593.444628 393.656388 
L 599.593388 385.603874 
L 605.742149 390.472836 
L 611.890909 383.450295 
L 618.039669 391.502809 
L 624.18843 385.229339 
L 630.33719 380.641278 
L 636.48595 382.701224 
L 642.634711 377.738628 
L 648.783471 380.173109 
L 654.932231 376.240486 
L 661.080992 371.652425 
L 667.229752 377.925895 
L 673.378512 372.682398 
L 679.527273 376.802289 
L 685.676033 372.307862 
L 691.824793 365.378955 
L 697.973554 371.465157 
L 704.122314 373.150567 
L 710.271074 370.154283 
L 716.419835 363.880812 
L 722.568595 362.38267 
L 728.717355 371.839693 
L 734.866116 360.229091 
L 741.014876 365.566222 
L 747.163636 363.412643 
" clip-path="url(#pfbf670d2d6)" style="fill: none; stroke: #ff0000; stroke-width: 1.75; stroke-linecap: round"/>
   </g>
   <g id="line2d_32">
    <path d="M 138.436364 566.410909 
L 144.585124 504.98708 
L 150.733884 472.777023 
L 156.882645 456.511484 
L 163.031405 462.397034 
L 169.180165 443.56325 
L 175.328926 454.050245 
L 181.477686 472.991048 
L 187.626446 481.016805 
L 193.775207 453.622206 
L 199.923967 445.489443 
L 206.072727 430.936048 
L 212.221488 454.478284 
L 218.370248 448.913754 
L 224.519008 453.622206 
L 230.667769 435.002447 
L 236.816529 445.703456 
L 242.965289 432.969248 
L 249.11405 432.862241 
L 255.26281 434.253376 
L 261.41157 446.238514 
L 267.560331 417.880819 
L 273.709091 427.404707 
L 279.857851 428.688835 
L 286.006612 427.939764 
L 292.155372 437.035624 
L 298.304132 425.264523 
L 304.452893 431.792126 
L 310.601653 422.268239 
L 316.750413 424.94348 
L 322.899174 432.862241 
L 329.047934 424.729466 
L 335.196694 427.511736 
L 341.345455 433.825326 
L 347.494215 434.46739 
L 353.642975 437.356667 
L 359.791736 423.980395 
L 365.940496 423.552344 
L 372.089256 443.56325 
L 378.238017 446.238514 
L 384.386777 433.076255 
L 390.535537 426.013594 
L 396.684298 423.01731 
L 402.833058 417.880819 
L 408.981818 420.55606 
L 415.130579 430.186977 
L 421.279339 422.161209 
L 427.428099 420.663067 
L 433.57686 423.33833 
L 439.72562 417.880819 
L 445.87438 422.482252 
L 452.02314 425.37153 
L 458.171901 413.493399 
L 464.320661 413.707413 
L 470.469421 421.519168 
L 476.618182 429.437906 
L 482.766942 423.766381 
L 488.915702 423.124317 
L 495.064463 421.412138 
L 501.213223 418.415853 
L 507.361983 448.271702 
L 513.510744 428.474821 
L 519.659504 440.138915 
L 525.808264 421.733181 
L 531.957025 433.718319 
L 538.105785 427.083686 
L 544.254545 442.172115 
L 550.403306 418.736897 
L 556.552066 429.223892 
L 562.700826 429.223892 
L 568.849587 419.806989 
L 574.998347 422.375246 
L 581.147107 494.393077 
L 587.295868 449.983858 
L 593.444628 435.216461 
L 599.593388 423.552344 
L 605.742149 435.644489 
L 611.890909 430.936048 
L 618.039669 434.788411 
L 624.18843 438.212745 
L 630.33719 420.663067 
L 636.48595 427.2977 
L 642.634711 427.2977 
L 648.783471 426.441622 
L 654.932231 423.766381 
L 661.080992 427.511736 
L 667.229752 422.803273 
L 673.378512 437.784695 
L 679.527273 424.408422 
L 685.676033 467.961564 
L 691.824793 434.360383 
L 697.973554 419.699982 
L 704.122314 424.194408 
L 710.271074 417.345762 
L 716.419835 421.733181 
L 722.568595 432.862241 
L 728.717355 434.360383 
L 734.866116 424.194408 
L 741.014876 429.223892 
L 747.163636 431.364099 
" clip-path="url(#pfbf670d2d6)" style="fill: none; stroke: #008000; stroke-width: 1.75; stroke-linecap: round"/>
   </g>
   <g id="patch_8">
    <path d="M 108 576.72 
L 108 349.92 
" style="fill: none"/>
   </g>
   <g id="patch_9">
    <path d="M 777.6 576.72 
L 777.6 349.92 
" style="fill: none"/>
   </g>
   <g id="patch_10">
    <path d="M 108 576.72 
L 777.6 576.72 
" style="fill: none"/>
   </g>
   <g id="patch_11">
    <path d="M 108 349.92 
L 777.6 349.92 
" style="fill: none"/>
   </g>
   <g id="legend_2">
    <g id="line2d_33">
     <path d="M 117 362.577812 
L 127 362.577812 
L 137 362.577812 
" style="fill: none; stroke: #ff0000; stroke-width: 1.75; stroke-linecap: round"/>
    </g>
    <g id="text_29">
     <!-- acc -->
     <g style="fill: #262626" transform="translate(145 366.077812)scale(0.1 -0.1)">
      <defs>
       <path id="ArialMT-63" d="M 2588 1216 
L 3141 1144 
Q 3050 572 2676 248 
Q 2303 -75 1759 -75 
Q 1078 -75 664 370 
Q 250 816 250 1647 
Q 250 2184 428 2587 
Q 606 2991 970 3192 
Q 1334 3394 1763 3394 
Q 2303 3394 2647 3120 
Q 2991 2847 3088 2344 
L 2541 2259 
Q 2463 2594 2264 2762 
Q 2066 2931 1784 2931 
Q 1359 2931 1093 2626 
Q 828 2322 828 1663 
Q 828 994 1084 691 
Q 1341 388 1753 388 
Q 2084 388 2306 591 
Q 2528 794 2588 1216 
z
" transform="scale(0.015625)"/>
      </defs>
      <use xlink:href="#ArialMT-61"/>
      <use xlink:href="#ArialMT-63" x="55.615234"/>
      <use xlink:href="#ArialMT-63" x="105.615234"/>
     </g>
    </g>
    <g id="line2d_34">
     <path d="M 117 376.723125 
L 127 376.723125 
L 137 376.723125 
" style="fill: none; stroke: #008000; stroke-width: 1.75; stroke-linecap: round"/>
    </g>
    <g id="text_30">
     <!-- val_acc -->
     <g style="fill: #262626" transform="translate(145 380.223125)scale(0.1 -0.1)">
      <use xlink:href="#ArialMT-76"/>
      <use xlink:href="#ArialMT-61" x="50"/>
      <use xlink:href="#ArialMT-6c" x="105.615234"/>
      <use xlink:href="#ArialMT-5f" x="127.832031"/>
      <use xlink:href="#ArialMT-61" x="183.447266"/>
      <use xlink:href="#ArialMT-63" x="239.0625"/>
      <use xlink:href="#ArialMT-63" x="289.0625"/>
     </g>
    </g>
   </g>
  </g>
  <g id="text_31">
   <!-- Plots of model performance: spectrogram, warohma18 - lr 0.0001, batch 32, 128 steps/epoch -->
   <g style="fill: #262626" transform="translate(184.885312 21.695625)scale(0.12 -0.12)">
    <defs>
     <path id="ArialMT-50" d="M 494 0 
L 494 4581 
L 2222 4581 
Q 2678 4581 2919 4538 
Q 3256 4481 3484 4323 
Q 3713 4166 3852 3881 
Q 3991 3597 3991 3256 
Q 3991 2672 3619 2267 
Q 3247 1863 2275 1863 
L 1100 1863 
L 1100 0 
L 494 0 
z
M 1100 2403 
L 2284 2403 
Q 2872 2403 3119 2622 
Q 3366 2841 3366 3238 
Q 3366 3525 3220 3729 
Q 3075 3934 2838 4000 
Q 2684 4041 2272 4041 
L 1100 4041 
L 1100 2403 
z
" transform="scale(0.015625)"/>
     <path id="ArialMT-74" d="M 1650 503 
L 1731 6 
Q 1494 -44 1306 -44 
Q 1000 -44 831 53 
Q 663 150 594 308 
Q 525 466 525 972 
L 525 2881 
L 113 2881 
L 113 3319 
L 525 3319 
L 525 4141 
L 1084 4478 
L 1084 3319 
L 1650 3319 
L 1650 2881 
L 1084 2881 
L 1084 941 
Q 1084 700 1114 631 
Q 1144 563 1211 522 
Q 1278 481 1403 481 
Q 1497 481 1650 503 
z
" transform="scale(0.015625)"/>
     <path id="ArialMT-20" transform="scale(0.015625)"/>
     <path id="ArialMT-66" d="M 556 0 
L 556 2881 
L 59 2881 
L 59 3319 
L 556 3319 
L 556 3672 
Q 556 4006 616 4169 
Q 697 4388 901 4523 
Q 1106 4659 1475 4659 
Q 1713 4659 2000 4603 
L 1916 4113 
Q 1741 4144 1584 4144 
Q 1328 4144 1222 4034 
Q 1116 3925 1116 3625 
L 1116 3319 
L 1763 3319 
L 1763 2881 
L 1116 2881 
L 1116 0 
L 556 0 
z
" transform="scale(0.015625)"/>
     <path id="ArialMT-6d" d="M 422 0 
L 422 3319 
L 925 3319 
L 925 2853 
Q 1081 3097 1340 3245 
Q 1600 3394 1931 3394 
Q 2300 3394 2536 3241 
Q 2772 3088 2869 2813 
Q 3263 3394 3894 3394 
Q 4388 3394 4653 3120 
Q 4919 2847 4919 2278 
L 4919 0 
L 4359 0 
L 4359 2091 
Q 4359 2428 4304 2576 
Q 4250 2725 4106 2815 
Q 3963 2906 3769 2906 
Q 3419 2906 3187 2673 
Q 2956 2441 2956 1928 
L 2956 0 
L 2394 0 
L 2394 2156 
Q 2394 2531 2256 2718 
Q 2119 2906 1806 2906 
Q 1569 2906 1367 2781 
Q 1166 2656 1075 2415 
Q 984 2175 984 1722 
L 984 0 
L 422 0 
z
" transform="scale(0.015625)"/>
     <path id="ArialMT-64" d="M 2575 0 
L 2575 419 
Q 2259 -75 1647 -75 
Q 1250 -75 917 144 
Q 584 363 401 755 
Q 219 1147 219 1656 
Q 219 2153 384 2558 
Q 550 2963 881 3178 
Q 1213 3394 1622 3394 
Q 1922 3394 2156 3267 
Q 2391 3141 2538 2938 
L 2538 4581 
L 3097 4581 
L 3097 0 
L 2575 0 
z
M 797 1656 
Q 797 1019 1065 703 
Q 1334 388 1700 388 
Q 2069 388 2326 689 
Q 2584 991 2584 1609 
Q 2584 2291 2321 2609 
Q 2059 2928 1675 2928 
Q 1300 2928 1048 2622 
Q 797 2316 797 1656 
z
" transform="scale(0.015625)"/>
     <path id="ArialMT-65" d="M 2694 1069 
L 3275 997 
Q 3138 488 2766 206 
Q 2394 -75 1816 -75 
Q 1088 -75 661 373 
Q 234 822 234 1631 
Q 234 2469 665 2931 
Q 1097 3394 1784 3394 
Q 2450 3394 2872 2941 
Q 3294 2488 3294 1666 
Q 3294 1616 3291 1516 
L 816 1516 
Q 847 969 1125 678 
Q 1403 388 1819 388 
Q 2128 388 2347 550 
Q 2566 713 2694 1069 
z
M 847 1978 
L 2700 1978 
Q 2663 2397 2488 2606 
Q 2219 2931 1791 2931 
Q 1403 2931 1139 2672 
Q 875 2413 847 1978 
z
" transform="scale(0.015625)"/>
     <path id="ArialMT-70" d="M 422 -1272 
L 422 3319 
L 934 3319 
L 934 2888 
Q 1116 3141 1344 3267 
Q 1572 3394 1897 3394 
Q 2322 3394 2647 3175 
Q 2972 2956 3137 2557 
Q 3303 2159 3303 1684 
Q 3303 1175 3120 767 
Q 2938 359 2589 142 
Q 2241 -75 1856 -75 
Q 1575 -75 1351 44 
Q 1128 163 984 344 
L 984 -1272 
L 422 -1272 
z
M 931 1641 
Q 931 1000 1190 694 
Q 1450 388 1819 388 
Q 2194 388 2461 705 
Q 2728 1022 2728 1688 
Q 2728 2322 2467 2637 
Q 2206 2953 1844 2953 
Q 1484 2953 1207 2617 
Q 931 2281 931 1641 
z
" transform="scale(0.015625)"/>
     <path id="ArialMT-72" d="M 416 0 
L 416 3319 
L 922 3319 
L 922 2816 
Q 1116 3169 1280 3281 
Q 1444 3394 1641 3394 
Q 1925 3394 2219 3213 
L 2025 2691 
Q 1819 2813 1613 2813 
Q 1428 2813 1281 2702 
Q 1134 2591 1072 2394 
Q 978 2094 978 1738 
L 978 0 
L 416 0 
z
" transform="scale(0.015625)"/>
     <path id="ArialMT-6e" d="M 422 0 
L 422 3319 
L 928 3319 
L 928 2847 
Q 1294 3394 1984 3394 
Q 2284 3394 2536 3286 
Q 2788 3178 2913 3003 
Q 3038 2828 3088 2588 
Q 3119 2431 3119 2041 
L 3119 0 
L 2556 0 
L 2556 2019 
Q 2556 2363 2490 2533 
Q 2425 2703 2258 2804 
Q 2091 2906 1866 2906 
Q 1506 2906 1245 2678 
Q 984 2450 984 1813 
L 984 0 
L 422 0 
z
" transform="scale(0.015625)"/>
     <path id="ArialMT-3a" d="M 578 2678 
L 578 3319 
L 1219 3319 
L 1219 2678 
L 578 2678 
z
M 578 0 
L 578 641 
L 1219 641 
L 1219 0 
L 578 0 
z
" transform="scale(0.015625)"/>
     <path id="ArialMT-67" d="M 319 -275 
L 866 -356 
Q 900 -609 1056 -725 
Q 1266 -881 1628 -881 
Q 2019 -881 2231 -725 
Q 2444 -569 2519 -288 
Q 2563 -116 2559 434 
Q 2191 0 1641 0 
Q 956 0 581 494 
Q 206 988 206 1678 
Q 206 2153 378 2554 
Q 550 2956 876 3175 
Q 1203 3394 1644 3394 
Q 2231 3394 2613 2919 
L 2613 3319 
L 3131 3319 
L 3131 450 
Q 3131 -325 2973 -648 
Q 2816 -972 2473 -1159 
Q 2131 -1347 1631 -1347 
Q 1038 -1347 672 -1080 
Q 306 -813 319 -275 
z
M 784 1719 
Q 784 1066 1043 766 
Q 1303 466 1694 466 
Q 2081 466 2343 764 
Q 2606 1063 2606 1700 
Q 2606 2309 2336 2618 
Q 2066 2928 1684 2928 
Q 1309 2928 1046 2623 
Q 784 2319 784 1719 
z
" transform="scale(0.015625)"/>
     <path id="ArialMT-2c" d="M 569 0 
L 569 641 
L 1209 641 
L 1209 0 
Q 1209 -353 1084 -570 
Q 959 -788 688 -906 
L 531 -666 
Q 709 -588 793 -436 
Q 878 -284 888 0 
L 569 0 
z
" transform="scale(0.015625)"/>
     <path id="ArialMT-77" d="M 1034 0 
L 19 3319 
L 600 3319 
L 1128 1403 
L 1325 691 
Q 1338 744 1497 1375 
L 2025 3319 
L 2603 3319 
L 3100 1394 
L 3266 759 
L 3456 1400 
L 4025 3319 
L 4572 3319 
L 3534 0 
L 2950 0 
L 2422 1988 
L 2294 2553 
L 1622 0 
L 1034 0 
z
" transform="scale(0.015625)"/>
     <path id="ArialMT-68" d="M 422 0 
L 422 4581 
L 984 4581 
L 984 2938 
Q 1378 3394 1978 3394 
Q 2347 3394 2619 3248 
Q 2891 3103 3008 2847 
Q 3125 2591 3125 2103 
L 3125 0 
L 2563 0 
L 2563 2103 
Q 2563 2525 2380 2717 
Q 2197 2909 1863 2909 
Q 1613 2909 1392 2779 
Q 1172 2650 1078 2428 
Q 984 2206 984 1816 
L 984 0 
L 422 0 
z
" transform="scale(0.015625)"/>
     <path id="ArialMT-2d" d="M 203 1375 
L 203 1941 
L 1931 1941 
L 1931 1375 
L 203 1375 
z
" transform="scale(0.015625)"/>
     <path id="ArialMT-62" d="M 941 0 
L 419 0 
L 419 4581 
L 981 4581 
L 981 2947 
Q 1338 3394 1891 3394 
Q 2197 3394 2470 3270 
Q 2744 3147 2920 2923 
Q 3097 2700 3197 2384 
Q 3297 2069 3297 1709 
Q 3297 856 2875 390 
Q 2453 -75 1863 -75 
Q 1275 -75 941 416 
L 941 0 
z
M 934 1684 
Q 934 1088 1097 822 
Q 1363 388 1816 388 
Q 2184 388 2453 708 
Q 2722 1028 2722 1663 
Q 2722 2313 2464 2622 
Q 2206 2931 1841 2931 
Q 1472 2931 1203 2611 
Q 934 2291 934 1684 
z
" transform="scale(0.015625)"/>
     <path id="ArialMT-2f" d="M 0 -78 
L 1328 4659 
L 1778 4659 
L 453 -78 
L 0 -78 
z
" transform="scale(0.015625)"/>
    </defs>
    <use xlink:href="#ArialMT-50"/>
    <use xlink:href="#ArialMT-6c" x="66.699219"/>
    <use xlink:href="#ArialMT-6f" x="88.916016"/>
    <use xlink:href="#ArialMT-74" x="144.53125"/>
    <use xlink:href="#ArialMT-73" x="172.314453"/>
    <use xlink:href="#ArialMT-20" x="222.314453"/>
    <use xlink:href="#ArialMT-6f" x="250.097656"/>
    <use xlink:href="#ArialMT-66" x="305.712891"/>
    <use xlink:href="#ArialMT-20" x="333.496094"/>
    <use xlink:href="#ArialMT-6d" x="361.279297"/>
    <use xlink:href="#ArialMT-6f" x="444.580078"/>
    <use xlink:href="#ArialMT-64" x="500.195312"/>
    <use xlink:href="#ArialMT-65" x="555.810547"/>
    <use xlink:href="#ArialMT-6c" x="611.425781"/>
    <use xlink:href="#ArialMT-20" x="633.642578"/>
    <use xlink:href="#ArialMT-70" x="661.425781"/>
    <use xlink:href="#ArialMT-65" x="717.041016"/>
    <use xlink:href="#ArialMT-72" x="772.65625"/>
    <use xlink:href="#ArialMT-66" x="805.957031"/>
    <use xlink:href="#ArialMT-6f" x="833.740234"/>
    <use xlink:href="#ArialMT-72" x="889.355469"/>
    <use xlink:href="#ArialMT-6d" x="922.65625"/>
    <use xlink:href="#ArialMT-61" x="1005.957031"/>
    <use xlink:href="#ArialMT-6e" x="1061.572266"/>
    <use xlink:href="#ArialMT-63" x="1117.1875"/>
    <use xlink:href="#ArialMT-65" x="1167.1875"/>
    <use xlink:href="#ArialMT-3a" x="1222.802734"/>
    <use xlink:href="#ArialMT-20" x="1250.585938"/>
    <use xlink:href="#ArialMT-73" x="1278.369141"/>
    <use xlink:href="#ArialMT-70" x="1328.369141"/>
    <use xlink:href="#ArialMT-65" x="1383.984375"/>
    <use xlink:href="#ArialMT-63" x="1439.599609"/>
    <use xlink:href="#ArialMT-74" x="1489.599609"/>
    <use xlink:href="#ArialMT-72" x="1517.382812"/>
    <use xlink:href="#ArialMT-6f" x="1550.683594"/>
    <use xlink:href="#ArialMT-67" x="1606.298828"/>
    <use xlink:href="#ArialMT-72" x="1661.914062"/>
    <use xlink:href="#ArialMT-61" x="1695.214844"/>
    <use xlink:href="#ArialMT-6d" x="1750.830078"/>
    <use xlink:href="#ArialMT-2c" x="1834.130859"/>
    <use xlink:href="#ArialMT-20" x="1861.914062"/>
    <use xlink:href="#ArialMT-77" x="1889.697266"/>
    <use xlink:href="#ArialMT-61" x="1961.914062"/>
    <use xlink:href="#ArialMT-72" x="2017.529297"/>
    <use xlink:href="#ArialMT-6f" x="2050.830078"/>
    <use xlink:href="#ArialMT-68" x="2106.445312"/>
    <use xlink:href="#ArialMT-6d" x="2162.060547"/>
    <use xlink:href="#ArialMT-61" x="2245.361328"/>
    <use xlink:href="#ArialMT-31" x="2300.976562"/>
    <use xlink:href="#ArialMT-38" x="2356.591797"/>
    <use xlink:href="#ArialMT-20" x="2412.207031"/>
    <use xlink:href="#ArialMT-2d" x="2439.990234"/>
    <use xlink:href="#ArialMT-20" x="2473.291016"/>
    <use xlink:href="#ArialMT-6c" x="2501.074219"/>
    <use xlink:href="#ArialMT-72" x="2523.291016"/>
    <use xlink:href="#ArialMT-20" x="2556.591797"/>
    <use xlink:href="#ArialMT-30" x="2584.375"/>
    <use xlink:href="#ArialMT-2e" x="2639.990234"/>
    <use xlink:href="#ArialMT-30" x="2667.773438"/>
    <use xlink:href="#ArialMT-30" x="2723.388672"/>
    <use xlink:href="#ArialMT-30" x="2779.003906"/>
    <use xlink:href="#ArialMT-31" x="2834.619141"/>
    <use xlink:href="#ArialMT-2c" x="2890.234375"/>
    <use xlink:href="#ArialMT-20" x="2918.017578"/>
    <use xlink:href="#ArialMT-62" x="2945.800781"/>
    <use xlink:href="#ArialMT-61" x="3001.416016"/>
    <use xlink:href="#ArialMT-74" x="3057.03125"/>
    <use xlink:href="#ArialMT-63" x="3084.814453"/>
    <use xlink:href="#ArialMT-68" x="3134.814453"/>
    <use xlink:href="#ArialMT-20" x="3190.429688"/>
    <use xlink:href="#ArialMT-33" x="3218.212891"/>
    <use xlink:href="#ArialMT-32" x="3273.828125"/>
    <use xlink:href="#ArialMT-2c" x="3329.443359"/>
    <use xlink:href="#ArialMT-20" x="3357.226562"/>
    <use xlink:href="#ArialMT-31" x="3385.009766"/>
    <use xlink:href="#ArialMT-32" x="3440.625"/>
    <use xlink:href="#ArialMT-38" x="3496.240234"/>
    <use xlink:href="#ArialMT-20" x="3551.855469"/>
    <use xlink:href="#ArialMT-73" x="3579.638672"/>
    <use xlink:href="#ArialMT-74" x="3629.638672"/>
    <use xlink:href="#ArialMT-65" x="3657.421875"/>
    <use xlink:href="#ArialMT-70" x="3713.037109"/>
    <use xlink:href="#ArialMT-73" x="3768.652344"/>
    <use xlink:href="#ArialMT-2f" x="3818.652344"/>
    <use xlink:href="#ArialMT-65" x="3846.435547"/>
    <use xlink:href="#ArialMT-70" x="3902.050781"/>
    <use xlink:href="#ArialMT-6f" x="3957.666016"/>
    <use xlink:href="#ArialMT-63" x="4013.28125"/>
    <use xlink:href="#ArialMT-68" x="4063.28125"/>
   </g>
  </g>
 </g>
 <defs>
  <clipPath id="pbef021f3e6">
   <rect x="108" y="77.76" width="669.6" height="226.8"/>
  </clipPath>
  <clipPath id="pfbf670d2d6">
   <rect x="108" y="349.92" width="669.6" height="226.8"/>
  </clipPath>
 </defs>
</svg>
