<?xml version="1.0" encoding="utf-8" standalone="no"?>
<!DOCTYPE svg PUBLIC "-//W3C//DTD SVG 1.1//EN"
  "http://www.w3.org/Graphics/SVG/1.1/DTD/svg11.dtd">
<svg xmlns:xlink="http://www.w3.org/1999/xlink" width="864pt" height="648pt" viewBox="0 0 864 648" xmlns="http://www.w3.org/2000/svg" version="1.1">
 <metadata>
  <rdf:RDF xmlns:dc="http://purl.org/dc/elements/1.1/" xmlns:cc="http://creativecommons.org/ns#" xmlns:rdf="http://www.w3.org/1999/02/22-rdf-syntax-ns#">
   <cc:Work>
    <dc:type rdf:resource="http://purl.org/dc/dcmitype/StillImage"/>
    <dc:date>2022-06-08T17:38:13.885098</dc:date>
    <dc:format>image/svg+xml</dc:format>
    <dc:creator>
     <cc:Agent>
      <dc:title>Matplotlib v3.5.1, https://matplotlib.org/</dc:title>
     </cc:Agent>
    </dc:creator>
   </cc:Work>
  </rdf:RDF>
 </metadata>
 <defs>
  <style type="text/css">*{stroke-linejoin: round; stroke-linecap: butt}</style>
 </defs>
 <g id="figure_1">
  <g id="patch_1">
   <path d="M 0 648 
L 864 648 
L 864 0 
L 0 0 
z
" style="fill: #ffffff"/>
  </g>
  <g id="axes_1">
   <g id="patch_2">
    <path d="M 108 304.56 
L 777.6 304.56 
L 777.6 77.76 
L 108 77.76 
z
" style="fill: #eaeaf2"/>
   </g>
   <g id="matplotlib.axis_1">
    <g id="xtick_1">
     <g id="line2d_1"/>
     <g id="text_1">
      <!-- 0 -->
      <g style="fill: #262626" transform="translate(135.655895 318.717812)scale(0.1 -0.1)">
       <defs>
        <path id="ArialMT-30" d="M 266 2259 
Q 266 3072 433 3567 
Q 600 4063 929 4331 
Q 1259 4600 1759 4600 
Q 2128 4600 2406 4451 
Q 2684 4303 2865 4023 
Q 3047 3744 3150 3342 
Q 3253 2941 3253 2259 
Q 3253 1453 3087 958 
Q 2922 463 2592 192 
Q 2263 -78 1759 -78 
Q 1097 -78 719 397 
Q 266 969 266 2259 
z
M 844 2259 
Q 844 1131 1108 757 
Q 1372 384 1759 384 
Q 2147 384 2411 759 
Q 2675 1134 2675 2259 
Q 2675 3391 2411 3762 
Q 2147 4134 1753 4134 
Q 1366 4134 1134 3806 
Q 844 3388 844 2259 
z
" transform="scale(0.015625)"/>
       </defs>
       <use xlink:href="#ArialMT-30"/>
      </g>
     </g>
    </g>
    <g id="xtick_2">
     <g id="line2d_2"/>
     <g id="text_2">
      <!-- 20 -->
      <g style="fill: #262626" transform="translate(255.850633 318.717812)scale(0.1 -0.1)">
       <defs>
        <path id="ArialMT-32" d="M 3222 541 
L 3222 0 
L 194 0 
Q 188 203 259 391 
Q 375 700 629 1000 
Q 884 1300 1366 1694 
Q 2113 2306 2375 2664 
Q 2638 3022 2638 3341 
Q 2638 3675 2398 3904 
Q 2159 4134 1775 4134 
Q 1369 4134 1125 3890 
Q 881 3647 878 3216 
L 300 3275 
Q 359 3922 746 4261 
Q 1134 4600 1788 4600 
Q 2447 4600 2831 4234 
Q 3216 3869 3216 3328 
Q 3216 3053 3103 2787 
Q 2991 2522 2730 2228 
Q 2469 1934 1863 1422 
Q 1356 997 1212 845 
Q 1069 694 975 541 
L 3222 541 
z
" transform="scale(0.015625)"/>
       </defs>
       <use xlink:href="#ArialMT-32"/>
       <use xlink:href="#ArialMT-30" x="55.615234"/>
      </g>
     </g>
    </g>
    <g id="xtick_3">
     <g id="line2d_3"/>
     <g id="text_3">
      <!-- 40 -->
      <g style="fill: #262626" transform="translate(378.825839 318.717812)scale(0.1 -0.1)">
       <defs>
        <path id="ArialMT-34" d="M 2069 0 
L 2069 1097 
L 81 1097 
L 81 1613 
L 2172 4581 
L 2631 4581 
L 2631 1613 
L 3250 1613 
L 3250 1097 
L 2631 1097 
L 2631 0 
L 2069 0 
z
M 2069 1613 
L 2069 3678 
L 634 1613 
L 2069 1613 
z
" transform="scale(0.015625)"/>
       </defs>
       <use xlink:href="#ArialMT-34"/>
       <use xlink:href="#ArialMT-30" x="55.615234"/>
      </g>
     </g>
    </g>
    <g id="xtick_4">
     <g id="line2d_4"/>
     <g id="text_4">
      <!-- 60 -->
      <g style="fill: #262626" transform="translate(501.801046 318.717812)scale(0.1 -0.1)">
       <defs>
        <path id="ArialMT-36" d="M 3184 3459 
L 2625 3416 
Q 2550 3747 2413 3897 
Q 2184 4138 1850 4138 
Q 1581 4138 1378 3988 
Q 1113 3794 959 3422 
Q 806 3050 800 2363 
Q 1003 2672 1297 2822 
Q 1591 2972 1913 2972 
Q 2475 2972 2870 2558 
Q 3266 2144 3266 1488 
Q 3266 1056 3080 686 
Q 2894 316 2569 119 
Q 2244 -78 1831 -78 
Q 1128 -78 684 439 
Q 241 956 241 2144 
Q 241 3472 731 4075 
Q 1159 4600 1884 4600 
Q 2425 4600 2770 4297 
Q 3116 3994 3184 3459 
z
M 888 1484 
Q 888 1194 1011 928 
Q 1134 663 1356 523 
Q 1578 384 1822 384 
Q 2178 384 2434 671 
Q 2691 959 2691 1453 
Q 2691 1928 2437 2201 
Q 2184 2475 1800 2475 
Q 1419 2475 1153 2201 
Q 888 1928 888 1484 
z
" transform="scale(0.015625)"/>
       </defs>
       <use xlink:href="#ArialMT-36"/>
       <use xlink:href="#ArialMT-30" x="55.615234"/>
      </g>
     </g>
    </g>
    <g id="xtick_5">
     <g id="line2d_5"/>
     <g id="text_5">
      <!-- 80 -->
      <g style="fill: #262626" transform="translate(624.776253 318.717812)scale(0.1 -0.1)">
       <defs>
        <path id="ArialMT-38" d="M 1131 2484 
Q 781 2613 612 2850 
Q 444 3088 444 3419 
Q 444 3919 803 4259 
Q 1163 4600 1759 4600 
Q 2359 4600 2725 4251 
Q 3091 3903 3091 3403 
Q 3091 3084 2923 2848 
Q 2756 2613 2416 2484 
Q 2838 2347 3058 2040 
Q 3278 1734 3278 1309 
Q 3278 722 2862 322 
Q 2447 -78 1769 -78 
Q 1091 -78 675 323 
Q 259 725 259 1325 
Q 259 1772 486 2073 
Q 713 2375 1131 2484 
z
M 1019 3438 
Q 1019 3113 1228 2906 
Q 1438 2700 1772 2700 
Q 2097 2700 2305 2904 
Q 2513 3109 2513 3406 
Q 2513 3716 2298 3927 
Q 2084 4138 1766 4138 
Q 1444 4138 1231 3931 
Q 1019 3725 1019 3438 
z
M 838 1322 
Q 838 1081 952 856 
Q 1066 631 1291 507 
Q 1516 384 1775 384 
Q 2178 384 2440 643 
Q 2703 903 2703 1303 
Q 2703 1709 2433 1975 
Q 2163 2241 1756 2241 
Q 1359 2241 1098 1978 
Q 838 1716 838 1322 
z
" transform="scale(0.015625)"/>
       </defs>
       <use xlink:href="#ArialMT-38"/>
       <use xlink:href="#ArialMT-30" x="55.615234"/>
      </g>
     </g>
    </g>
    <g id="xtick_6">
     <g id="line2d_6"/>
     <g id="text_6">
      <!-- 100 -->
      <g style="fill: #262626" transform="translate(744.97099 318.717812)scale(0.1 -0.1)">
       <defs>
        <path id="ArialMT-31" d="M 2384 0 
L 1822 0 
L 1822 3584 
Q 1619 3391 1289 3197 
Q 959 3003 697 2906 
L 697 3450 
Q 1169 3672 1522 3987 
Q 1875 4303 2022 4600 
L 2384 4600 
L 2384 0 
z
" transform="scale(0.015625)"/>
       </defs>
       <use xlink:href="#ArialMT-31"/>
       <use xlink:href="#ArialMT-30" x="55.615234"/>
       <use xlink:href="#ArialMT-30" x="111.230469"/>
      </g>
     </g>
    </g>
   </g>
   <g id="matplotlib.axis_2">
    <g id="ytick_1">
     <g id="line2d_7"/>
     <g id="text_7">
      <!-- 2 -->
      <g style="fill: #262626" transform="translate(95.439063 278.981196)scale(0.1 -0.1)">
       <use xlink:href="#ArialMT-32"/>
      </g>
     </g>
    </g>
    <g id="ytick_2">
     <g id="line2d_8"/>
     <g id="text_8">
      <!-- 4 -->
      <g style="fill: #262626" transform="translate(95.439063 245.418904)scale(0.1 -0.1)">
       <use xlink:href="#ArialMT-34"/>
      </g>
     </g>
    </g>
    <g id="ytick_3">
     <g id="line2d_9"/>
     <g id="text_9">
      <!-- 6 -->
      <g style="fill: #262626" transform="translate(95.439063 211.856613)scale(0.1 -0.1)">
       <use xlink:href="#ArialMT-36"/>
      </g>
     </g>
    </g>
    <g id="ytick_4">
     <g id="line2d_10"/>
     <g id="text_10">
      <!-- 8 -->
      <g style="fill: #262626" transform="translate(95.439063 178.294321)scale(0.1 -0.1)">
       <use xlink:href="#ArialMT-38"/>
      </g>
     </g>
    </g>
    <g id="ytick_5">
     <g id="line2d_11"/>
     <g id="text_11">
      <!-- 10 -->
      <g style="fill: #262626" transform="translate(89.878125 144.732029)scale(0.1 -0.1)">
       <use xlink:href="#ArialMT-31"/>
       <use xlink:href="#ArialMT-30" x="55.615234"/>
      </g>
     </g>
    </g>
    <g id="ytick_6">
     <g id="line2d_12"/>
     <g id="text_12">
      <!-- 12 -->
      <g style="fill: #262626" transform="translate(89.878125 111.169737)scale(0.1 -0.1)">
       <use xlink:href="#ArialMT-31"/>
       <use xlink:href="#ArialMT-32" x="55.615234"/>
      </g>
     </g>
    </g>
   </g>
   <g id="line2d_13">
    <path d="M 138.436364 225.791096 
L 144.585124 238.208076 
L 150.733884 241.757275 
L 156.882645 245.973942 
L 163.031405 247.968661 
L 169.180165 250.661396 
L 175.328926 252.9005 
L 181.477686 254.609229 
L 187.626446 257.015288 
L 193.775207 258.102651 
L 199.923967 259.952412 
L 206.072727 261.800765 
L 212.221488 263.012793 
L 218.370248 264.267938 
L 224.519008 265.330547 
L 230.667769 266.43667 
L 236.816529 267.261836 
L 242.965289 268.444144 
L 249.11405 269.78441 
L 255.26281 269.870026 
L 261.41157 271.079054 
L 267.560331 272.530621 
L 273.709091 272.915756 
L 279.857851 273.464936 
L 286.006612 274.223562 
L 292.155372 275.710758 
L 298.304132 275.90419 
L 304.452893 276.539722 
L 310.601653 277.420775 
L 316.750413 277.676018 
L 322.899174 278.109616 
L 329.047934 278.504556 
L 335.196694 279.554366 
L 341.345455 280.420231 
L 347.494215 280.518116 
L 353.642975 280.438747 
L 359.791736 281.002315 
L 365.940496 281.416376 
L 372.089256 281.549712 
L 378.238017 282.703732 
L 384.386777 282.624361 
L 390.535537 283.694492 
L 396.684298 283.568112 
L 402.833058 284.024443 
L 408.981818 284.66962 
L 415.130579 284.491062 
L 421.279339 285.528261 
L 427.428099 285.125691 
L 433.57686 285.497346 
L 439.72562 286.381477 
L 445.87438 286.447817 
L 452.02314 286.402272 
L 458.171901 287.058962 
L 464.320661 286.639232 
L 470.469421 287.484151 
L 476.618182 287.473777 
L 482.766942 288.265938 
L 488.915702 288.173805 
L 495.064463 287.970695 
L 501.213223 288.140217 
L 507.361983 288.239312 
L 513.510744 288.530781 
L 519.659504 288.792298 
L 525.808264 289.135838 
L 531.957025 289.815961 
L 538.105785 289.990076 
L 544.254545 290.120091 
L 550.403306 290.27868 
L 556.552066 289.89665 
L 562.700826 290.254128 
L 568.849587 290.718757 
L 574.998347 291.22685 
L 581.147107 291.213567 
L 587.295868 290.867686 
L 593.444628 290.956641 
L 599.593388 291.10744 
L 605.742149 291.484676 
L 611.890909 291.939601 
L 618.039669 291.839765 
L 624.18843 291.733435 
L 630.33719 292.509988 
L 636.48595 292.191661 
L 642.634711 292.275986 
L 648.783471 292.373125 
L 654.932231 292.70535 
L 661.080992 292.987587 
L 667.229752 292.930195 
L 673.378512 292.970633 
L 679.527273 292.830477 
L 685.676033 292.819258 
L 691.824793 293.664813 
L 697.973554 293.938583 
L 704.122314 293.322126 
L 710.271074 293.967295 
L 716.419835 293.776487 
L 722.568595 293.121872 
L 728.717355 294.250909 
L 734.866116 294.091391 
L 741.014876 293.572738 
L 747.163636 293.970498 
" clip-path="url(#p409e5cff20)" style="fill: none; stroke: #ff0000; stroke-width: 1.75; stroke-linecap: round"/>
   </g>
   <g id="line2d_14">
    <path d="M 138.436364 223.104659 
L 144.585124 226.070745 
L 150.733884 237.395421 
L 156.882645 237.90046 
L 163.031405 232.657032 
L 169.180165 245.771959 
L 175.328926 241.908102 
L 181.477686 245.460578 
L 187.626446 252.851113 
L 193.775207 247.091048 
L 199.923967 252.02606 
L 206.072727 238.055616 
L 212.221488 226.568982 
L 218.370248 224.081367 
L 224.519008 258.141152 
L 230.667769 238.716979 
L 236.816529 248.492568 
L 242.965289 254.103394 
L 249.11405 251.047326 
L 255.26281 226.027527 
L 261.41157 211.802948 
L 267.560331 261.629605 
L 273.709091 264.626494 
L 279.857851 255.301459 
L 286.006612 251.742289 
L 292.155372 252.758803 
L 298.304132 268.331234 
L 304.452893 259.347114 
L 310.601653 246.157901 
L 316.750413 260.27688 
L 322.899174 263.982516 
L 329.047934 260.245973 
L 335.196694 265.918329 
L 341.345455 261.436227 
L 347.494215 251.097174 
L 353.642975 260.064594 
L 359.791736 246.150292 
L 365.940496 250.72844 
L 372.089256 262.705773 
L 378.238017 265.156298 
L 384.386777 238.964365 
L 390.535537 250.945086 
L 396.684298 263.010584 
L 402.833058 237.776775 
L 408.981818 247.176492 
L 415.130579 254.409578 
L 421.279339 251.93287 
L 427.428099 257.840533 
L 433.57686 247.197817 
L 439.72562 241.081637 
L 445.87438 245.544554 
L 452.02314 264.332942 
L 458.171901 243.059908 
L 464.320661 266.922652 
L 470.469421 229.933082 
L 476.618182 257.182591 
L 482.766942 250.58451 
L 488.915702 259.785837 
L 495.064463 225.374742 
L 501.213223 263.263487 
L 507.361983 264.962417 
L 513.510744 220.848866 
L 519.659504 256.643773 
L 525.808264 256.694177 
L 531.957025 263.713941 
L 538.105785 259.880755 
L 544.254545 253.436126 
L 550.403306 255.688133 
L 556.552066 250.690707 
L 562.700826 252.07033 
L 568.849587 251.452261 
L 574.998347 236.806747 
L 581.147107 263.804994 
L 587.295868 248.070077 
L 593.444628 254.147128 
L 599.593388 220.327736 
L 605.742149 252.673211 
L 611.890909 277.204452 
L 618.039669 238.560814 
L 624.18843 257.283267 
L 630.33719 260.199346 
L 636.48595 88.069091 
L 642.634711 245.340478 
L 648.783471 252.810691 
L 654.932231 241.784753 
L 661.080992 172.852786 
L 667.229752 229.795369 
L 673.378512 268.675927 
L 679.527273 226.924849 
L 685.676033 238.147605 
L 691.824793 251.42301 
L 697.973554 264.790913 
L 704.122314 256.9318 
L 710.271074 252.586775 
L 716.419835 252.590332 
L 722.568595 246.549785 
L 728.717355 242.158497 
L 734.866116 259.113863 
L 741.014876 207.044177 
L 747.163636 247.024336 
" clip-path="url(#p409e5cff20)" style="fill: none; stroke: #008000; stroke-width: 1.75; stroke-linecap: round"/>
   </g>
   <g id="patch_3">
    <path d="M 108 304.56 
L 108 77.76 
" style="fill: none"/>
   </g>
   <g id="patch_4">
    <path d="M 777.6 304.56 
L 777.6 77.76 
" style="fill: none"/>
   </g>
   <g id="patch_5">
    <path d="M 108 304.56 
L 777.6 304.56 
" style="fill: none"/>
   </g>
   <g id="patch_6">
    <path d="M 108 77.76 
L 777.6 77.76 
" style="fill: none"/>
   </g>
   <g id="legend_1">
    <g id="line2d_15">
     <path d="M 704.473438 90.417812 
L 714.473438 90.417812 
L 724.473438 90.417812 
" style="fill: none; stroke: #ff0000; stroke-width: 1.75; stroke-linecap: round"/>
    </g>
    <g id="text_13">
     <!-- loss -->
     <g style="fill: #262626" transform="translate(732.473438 93.917812)scale(0.1 -0.1)">
      <defs>
       <path id="ArialMT-6c" d="M 409 0 
L 409 4581 
L 972 4581 
L 972 0 
L 409 0 
z
" transform="scale(0.015625)"/>
       <path id="ArialMT-6f" d="M 213 1659 
Q 213 2581 725 3025 
Q 1153 3394 1769 3394 
Q 2453 3394 2887 2945 
Q 3322 2497 3322 1706 
Q 3322 1066 3130 698 
Q 2938 331 2570 128 
Q 2203 -75 1769 -75 
Q 1072 -75 642 372 
Q 213 819 213 1659 
z
M 791 1659 
Q 791 1022 1069 705 
Q 1347 388 1769 388 
Q 2188 388 2466 706 
Q 2744 1025 2744 1678 
Q 2744 2294 2464 2611 
Q 2184 2928 1769 2928 
Q 1347 2928 1069 2612 
Q 791 2297 791 1659 
z
" transform="scale(0.015625)"/>
       <path id="ArialMT-73" d="M 197 991 
L 753 1078 
Q 800 744 1014 566 
Q 1228 388 1613 388 
Q 2000 388 2187 545 
Q 2375 703 2375 916 
Q 2375 1106 2209 1216 
Q 2094 1291 1634 1406 
Q 1016 1563 777 1677 
Q 538 1791 414 1992 
Q 291 2194 291 2438 
Q 291 2659 392 2848 
Q 494 3038 669 3163 
Q 800 3259 1026 3326 
Q 1253 3394 1513 3394 
Q 1903 3394 2198 3281 
Q 2494 3169 2634 2976 
Q 2775 2784 2828 2463 
L 2278 2388 
Q 2241 2644 2061 2787 
Q 1881 2931 1553 2931 
Q 1166 2931 1000 2803 
Q 834 2675 834 2503 
Q 834 2394 903 2306 
Q 972 2216 1119 2156 
Q 1203 2125 1616 2013 
Q 2213 1853 2448 1751 
Q 2684 1650 2818 1456 
Q 2953 1263 2953 975 
Q 2953 694 2789 445 
Q 2625 197 2315 61 
Q 2006 -75 1616 -75 
Q 969 -75 630 194 
Q 291 463 197 991 
z
" transform="scale(0.015625)"/>
      </defs>
      <use xlink:href="#ArialMT-6c"/>
      <use xlink:href="#ArialMT-6f" x="22.216797"/>
      <use xlink:href="#ArialMT-73" x="77.832031"/>
      <use xlink:href="#ArialMT-73" x="127.832031"/>
     </g>
    </g>
    <g id="line2d_16">
     <path d="M 704.473438 104.563125 
L 714.473438 104.563125 
L 724.473438 104.563125 
" style="fill: none; stroke: #008000; stroke-width: 1.75; stroke-linecap: round"/>
    </g>
    <g id="text_14">
     <!-- val_loss -->
     <g style="fill: #262626" transform="translate(732.473438 108.063125)scale(0.1 -0.1)">
      <defs>
       <path id="ArialMT-76" d="M 1344 0 
L 81 3319 
L 675 3319 
L 1388 1331 
Q 1503 1009 1600 663 
Q 1675 925 1809 1294 
L 2547 3319 
L 3125 3319 
L 1869 0 
L 1344 0 
z
" transform="scale(0.015625)"/>
       <path id="ArialMT-61" d="M 2588 409 
Q 2275 144 1986 34 
Q 1697 -75 1366 -75 
Q 819 -75 525 192 
Q 231 459 231 875 
Q 231 1119 342 1320 
Q 453 1522 633 1644 
Q 813 1766 1038 1828 
Q 1203 1872 1538 1913 
Q 2219 1994 2541 2106 
Q 2544 2222 2544 2253 
Q 2544 2597 2384 2738 
Q 2169 2928 1744 2928 
Q 1347 2928 1158 2789 
Q 969 2650 878 2297 
L 328 2372 
Q 403 2725 575 2942 
Q 747 3159 1072 3276 
Q 1397 3394 1825 3394 
Q 2250 3394 2515 3294 
Q 2781 3194 2906 3042 
Q 3031 2891 3081 2659 
Q 3109 2516 3109 2141 
L 3109 1391 
Q 3109 606 3145 398 
Q 3181 191 3288 0 
L 2700 0 
Q 2613 175 2588 409 
z
M 2541 1666 
Q 2234 1541 1622 1453 
Q 1275 1403 1131 1340 
Q 988 1278 909 1158 
Q 831 1038 831 891 
Q 831 666 1001 516 
Q 1172 366 1500 366 
Q 1825 366 2078 508 
Q 2331 650 2450 897 
Q 2541 1088 2541 1459 
L 2541 1666 
z
" transform="scale(0.015625)"/>
       <path id="ArialMT-5f" d="M -97 -1272 
L -97 -866 
L 3631 -866 
L 3631 -1272 
L -97 -1272 
z
" transform="scale(0.015625)"/>
      </defs>
      <use xlink:href="#ArialMT-76"/>
      <use xlink:href="#ArialMT-61" x="50"/>
      <use xlink:href="#ArialMT-6c" x="105.615234"/>
      <use xlink:href="#ArialMT-5f" x="127.832031"/>
      <use xlink:href="#ArialMT-6c" x="183.447266"/>
      <use xlink:href="#ArialMT-6f" x="205.664062"/>
      <use xlink:href="#ArialMT-73" x="261.279297"/>
      <use xlink:href="#ArialMT-73" x="311.279297"/>
     </g>
    </g>
   </g>
  </g>
  <g id="axes_2">
   <g id="patch_7">
    <path d="M 108 576.72 
L 777.6 576.72 
L 777.6 349.92 
L 108 349.92 
z
" style="fill: #eaeaf2"/>
   </g>
   <g id="matplotlib.axis_3">
    <g id="xtick_7">
     <g id="line2d_17"/>
     <g id="text_15">
      <!-- 0 -->
      <g style="fill: #262626" transform="translate(135.655895 590.877813)scale(0.1 -0.1)">
       <use xlink:href="#ArialMT-30"/>
      </g>
     </g>
    </g>
    <g id="xtick_8">
     <g id="line2d_18"/>
     <g id="text_16">
      <!-- 20 -->
      <g style="fill: #262626" transform="translate(255.850633 590.877813)scale(0.1 -0.1)">
       <use xlink:href="#ArialMT-32"/>
       <use xlink:href="#ArialMT-30" x="55.615234"/>
      </g>
     </g>
    </g>
    <g id="xtick_9">
     <g id="line2d_19"/>
     <g id="text_17">
      <!-- 40 -->
      <g style="fill: #262626" transform="translate(378.825839 590.877813)scale(0.1 -0.1)">
       <use xlink:href="#ArialMT-34"/>
       <use xlink:href="#ArialMT-30" x="55.615234"/>
      </g>
     </g>
    </g>
    <g id="xtick_10">
     <g id="line2d_20"/>
     <g id="text_18">
      <!-- 60 -->
      <g style="fill: #262626" transform="translate(501.801046 590.877813)scale(0.1 -0.1)">
       <use xlink:href="#ArialMT-36"/>
       <use xlink:href="#ArialMT-30" x="55.615234"/>
      </g>
     </g>
    </g>
    <g id="xtick_11">
     <g id="line2d_21"/>
     <g id="text_19">
      <!-- 80 -->
      <g style="fill: #262626" transform="translate(624.776253 590.877813)scale(0.1 -0.1)">
       <use xlink:href="#ArialMT-38"/>
       <use xlink:href="#ArialMT-30" x="55.615234"/>
      </g>
     </g>
    </g>
    <g id="xtick_12">
     <g id="line2d_22"/>
     <g id="text_20">
      <!-- 100 -->
      <g style="fill: #262626" transform="translate(744.97099 590.877813)scale(0.1 -0.1)">
       <use xlink:href="#ArialMT-31"/>
       <use xlink:href="#ArialMT-30" x="55.615234"/>
       <use xlink:href="#ArialMT-30" x="111.230469"/>
      </g>
     </g>
    </g>
   </g>
   <g id="matplotlib.axis_4">
    <g id="ytick_7">
     <g id="line2d_23"/>
     <g id="text_21">
      <!-- 0.2 -->
      <g style="fill: #262626" transform="translate(87.1 540.165678)scale(0.1 -0.1)">
       <defs>
        <path id="ArialMT-2e" d="M 581 0 
L 581 641 
L 1222 641 
L 1222 0 
L 581 0 
z
" transform="scale(0.015625)"/>
       </defs>
       <use xlink:href="#ArialMT-30"/>
       <use xlink:href="#ArialMT-2e" x="55.615234"/>
       <use xlink:href="#ArialMT-32" x="83.398438"/>
      </g>
     </g>
    </g>
    <g id="ytick_8">
     <g id="line2d_24"/>
     <g id="text_22">
      <!-- 0.4 -->
      <g style="fill: #262626" transform="translate(87.1 489.840956)scale(0.1 -0.1)">
       <use xlink:href="#ArialMT-30"/>
       <use xlink:href="#ArialMT-2e" x="55.615234"/>
       <use xlink:href="#ArialMT-34" x="83.398438"/>
      </g>
     </g>
    </g>
    <g id="ytick_9">
     <g id="line2d_25"/>
     <g id="text_23">
      <!-- 0.6 -->
      <g style="fill: #262626" transform="translate(87.1 439.516234)scale(0.1 -0.1)">
       <use xlink:href="#ArialMT-30"/>
       <use xlink:href="#ArialMT-2e" x="55.615234"/>
       <use xlink:href="#ArialMT-36" x="83.398438"/>
      </g>
     </g>
    </g>
    <g id="ytick_10">
     <g id="line2d_26"/>
     <g id="text_24">
      <!-- 0.8 -->
      <g style="fill: #262626" transform="translate(87.1 389.191512)scale(0.1 -0.1)">
       <use xlink:href="#ArialMT-30"/>
       <use xlink:href="#ArialMT-2e" x="55.615234"/>
       <use xlink:href="#ArialMT-38" x="83.398438"/>
      </g>
     </g>
    </g>
   </g>
   <g id="line2d_27">
    <path d="M 138.436364 513.62366 
L 144.585124 470.068694 
L 150.733884 457.843817 
L 156.882645 446.540412 
L 163.031405 442.547362 
L 169.180165 437.817133 
L 175.328926 431.243958 
L 181.477686 430.752505 
L 187.626446 425.530824 
L 193.775207 424.056467 
L 199.923967 419.264806 
L 206.072727 417.053271 
L 212.221488 413.613104 
L 218.370248 415.45605 
L 224.519008 411.094411 
L 230.667769 408.329991 
L 236.816529 405.995592 
L 242.965289 407.347086 
L 249.11405 403.354036 
L 255.26281 404.644098 
L 261.41157 403.722625 
L 267.560331 401.081069 
L 273.709091 399.483849 
L 279.857851 397.640902 
L 286.006612 399.975301 
L 292.155372 391.19059 
L 298.304132 394.077873 
L 304.452893 392.296358 
L 310.601653 389.040486 
L 316.750413 391.067727 
L 322.899174 388.917623 
L 329.047934 386.521792 
L 335.196694 387.197539 
L 341.345455 383.695941 
L 347.494215 384.310257 
L 353.642975 387.074676 
L 359.791736 386.82895 
L 365.940496 383.081626 
L 372.089256 384.924572 
L 378.238017 380.992953 
L 384.386777 382.774468 
L 390.535537 377.307061 
L 396.684298 378.965712 
L 402.833058 381.115816 
L 408.981818 377.184197 
L 415.130579 379.702891 
L 421.279339 374.726936 
L 427.428099 378.47426 
L 433.57686 376.324156 
L 439.72562 373.436873 
L 445.87438 375.586977 
L 452.02314 375.894135 
L 458.171901 372.638263 
L 464.320661 377.245629 
L 470.469421 373.006852 
L 476.618182 372.453968 
L 482.766942 371.471064 
L 488.915702 373.068284 
L 495.064463 373.805462 
L 501.213223 372.883989 
L 507.361983 373.682599 
L 513.510744 372.023948 
L 519.659504 372.453968 
L 525.808264 371.163906 
L 531.957025 369.013802 
L 538.105785 366.617972 
L 544.254545 368.092329 
L 550.403306 367.047992 
L 556.552066 369.75098 
L 562.700826 368.645213 
L 568.849587 367.662308 
L 574.998347 364.713594 
L 581.147107 366.863698 
L 587.295868 368.15376 
L 593.444628 369.198097 
L 599.593388 368.399486 
L 605.742149 366.925129 
L 611.890909 365.880793 
L 618.039669 366.249382 
L 624.18843 367.723739 
L 630.33719 363.300668 
L 636.48595 365.450772 
L 642.634711 366.003656 
L 648.783471 366.249382 
L 654.932231 364.897888 
L 661.080992 363.853552 
L 667.229752 363.976415 
L 673.378512 363.607826 
L 679.527273 365.205046 
L 685.676033 366.55654 
L 691.824793 362.99351 
L 697.973554 360.904838 
L 704.122314 364.836457 
L 710.271074 362.256332 
L 716.419835 362.133469 
L 722.568595 367.047992 
L 728.717355 360.229091 
L 734.866116 363.607826 
L 741.014876 365.512204 
L 747.163636 365.512204 
" clip-path="url(#p4370b430c7)" style="fill: none; stroke: #ff0000; stroke-width: 1.75; stroke-linecap: round"/>
   </g>
   <g id="line2d_28">
    <path d="M 138.436364 566.410909 
L 144.585124 524.567253 
L 150.733884 478.019693 
L 156.882645 488.269987 
L 163.031405 483.215045 
L 169.180165 457.378686 
L 175.328926 476.615541 
L 181.477686 460.467826 
L 187.626446 444.109472 
L 193.775207 462.644251 
L 199.923967 453.166246 
L 206.072727 503.92625 
L 212.221488 517.897539 
L 218.370248 511.929906 
L 224.519008 436.176029 
L 230.667769 494.448244 
L 236.816529 445.934871 
L 242.965289 447.058186 
L 249.11405 483.28525 
L 255.26281 507.57704 
L 261.41157 516.493388 
L 267.560331 442.284088 
L 273.709091 438.49288 
L 279.857851 462.433628 
L 286.006612 475.773054 
L 292.155372 462.082593 
L 298.304132 426.417187 
L 304.452893 448.251722 
L 310.601653 469.805413 
L 316.750413 442.986157 
L 322.899174 443.68824 
L 329.047934 453.938519 
L 335.196694 428.944669 
L 341.345455 445.373213 
L 347.494215 458.993469 
L 353.642975 459.133879 
L 359.791736 466.014212 
L 365.940496 469.945831 
L 372.089256 443.196788 
L 378.238017 450.568573 
L 384.386777 493.816374 
L 390.535537 470.22666 
L 396.684298 447.128406 
L 402.833058 489.674131 
L 408.981818 469.875626 
L 415.130579 459.344495 
L 421.279339 467.348151 
L 427.428099 456.957454 
L 433.57686 481.459859 
L 439.72562 491.288906 
L 445.87438 462.50384 
L 452.02314 452.04293 
L 458.171901 477.177199 
L 464.320661 443.477609 
L 470.469421 499.22235 
L 476.618182 454.570397 
L 482.766942 460.538031 
L 488.915702 464.890889 
L 495.064463 506.945177 
L 501.213223 462.644251 
L 507.361983 447.549639 
L 513.510744 489.112473 
L 519.659504 461.731559 
L 525.808264 461.520936 
L 531.957025 452.815204 
L 538.105785 455.834123 
L 544.254545 466.856699 
L 550.403306 474.368903 
L 556.552066 471.209565 
L 562.700826 464.961102 
L 568.849587 480.406749 
L 574.998347 482.864011 
L 581.147107 443.196788 
L 587.295868 468.752303 
L 593.444628 474.860355 
L 599.593388 488.691226 
L 605.742149 471.139359 
L 611.890909 420.098526 
L 618.039669 460.467826 
L 624.18843 465.031308 
L 630.33719 441.441594 
L 636.48595 549.210076 
L 642.634711 462.433628 
L 648.783471 472.894545 
L 654.932231 469.735208 
L 661.080992 526.322439 
L 667.229752 507.085587 
L 673.378512 439.826826 
L 679.527273 489.744344 
L 685.676033 497.25654 
L 691.824793 465.171726 
L 697.973554 442.56491 
L 704.122314 457.519111 
L 710.271074 478.862179 
L 716.419835 447.970886 
L 722.568595 493.114298 
L 728.717355 476.194294 
L 734.866116 468.822508 
L 741.014876 519.652725 
L 747.163636 458.080769 
" clip-path="url(#p4370b430c7)" style="fill: none; stroke: #008000; stroke-width: 1.75; stroke-linecap: round"/>
   </g>
   <g id="patch_8">
    <path d="M 108 576.72 
L 108 349.92 
" style="fill: none"/>
   </g>
   <g id="patch_9">
    <path d="M 777.6 576.72 
L 777.6 349.92 
" style="fill: none"/>
   </g>
   <g id="patch_10">
    <path d="M 108 576.72 
L 777.6 576.72 
" style="fill: none"/>
   </g>
   <g id="patch_11">
    <path d="M 108 349.92 
L 777.6 349.92 
" style="fill: none"/>
   </g>
   <g id="legend_2">
    <g id="line2d_29">
     <path d="M 117 362.577812 
L 127 362.577812 
L 137 362.577812 
" style="fill: none; stroke: #ff0000; stroke-width: 1.75; stroke-linecap: round"/>
    </g>
    <g id="text_25">
     <!-- acc -->
     <g style="fill: #262626" transform="translate(145 366.077812)scale(0.1 -0.1)">
      <defs>
       <path id="ArialMT-63" d="M 2588 1216 
L 3141 1144 
Q 3050 572 2676 248 
Q 2303 -75 1759 -75 
Q 1078 -75 664 370 
Q 250 816 250 1647 
Q 250 2184 428 2587 
Q 606 2991 970 3192 
Q 1334 3394 1763 3394 
Q 2303 3394 2647 3120 
Q 2991 2847 3088 2344 
L 2541 2259 
Q 2463 2594 2264 2762 
Q 2066 2931 1784 2931 
Q 1359 2931 1093 2626 
Q 828 2322 828 1663 
Q 828 994 1084 691 
Q 1341 388 1753 388 
Q 2084 388 2306 591 
Q 2528 794 2588 1216 
z
" transform="scale(0.015625)"/>
      </defs>
      <use xlink:href="#ArialMT-61"/>
      <use xlink:href="#ArialMT-63" x="55.615234"/>
      <use xlink:href="#ArialMT-63" x="105.615234"/>
     </g>
    </g>
    <g id="line2d_30">
     <path d="M 117 376.723125 
L 127 376.723125 
L 137 376.723125 
" style="fill: none; stroke: #008000; stroke-width: 1.75; stroke-linecap: round"/>
    </g>
    <g id="text_26">
     <!-- val_acc -->
     <g style="fill: #262626" transform="translate(145 380.223125)scale(0.1 -0.1)">
      <use xlink:href="#ArialMT-76"/>
      <use xlink:href="#ArialMT-61" x="50"/>
      <use xlink:href="#ArialMT-6c" x="105.615234"/>
      <use xlink:href="#ArialMT-5f" x="127.832031"/>
      <use xlink:href="#ArialMT-61" x="183.447266"/>
      <use xlink:href="#ArialMT-63" x="239.0625"/>
      <use xlink:href="#ArialMT-63" x="289.0625"/>
     </g>
    </g>
   </g>
  </g>
  <g id="text_27">
   <!-- Plots of model performance: mfcc, warohma18 - lr 0.0001, batch 32, 128 steps/epoch -->
   <g style="fill: #262626" transform="translate(205.56375 21.695625)scale(0.12 -0.12)">
    <defs>
     <path id="ArialMT-50" d="M 494 0 
L 494 4581 
L 2222 4581 
Q 2678 4581 2919 4538 
Q 3256 4481 3484 4323 
Q 3713 4166 3852 3881 
Q 3991 3597 3991 3256 
Q 3991 2672 3619 2267 
Q 3247 1863 2275 1863 
L 1100 1863 
L 1100 0 
L 494 0 
z
M 1100 2403 
L 2284 2403 
Q 2872 2403 3119 2622 
Q 3366 2841 3366 3238 
Q 3366 3525 3220 3729 
Q 3075 3934 2838 4000 
Q 2684 4041 2272 4041 
L 1100 4041 
L 1100 2403 
z
" transform="scale(0.015625)"/>
     <path id="ArialMT-74" d="M 1650 503 
L 1731 6 
Q 1494 -44 1306 -44 
Q 1000 -44 831 53 
Q 663 150 594 308 
Q 525 466 525 972 
L 525 2881 
L 113 2881 
L 113 3319 
L 525 3319 
L 525 4141 
L 1084 4478 
L 1084 3319 
L 1650 3319 
L 1650 2881 
L 1084 2881 
L 1084 941 
Q 1084 700 1114 631 
Q 1144 563 1211 522 
Q 1278 481 1403 481 
Q 1497 481 1650 503 
z
" transform="scale(0.015625)"/>
     <path id="ArialMT-20" transform="scale(0.015625)"/>
     <path id="ArialMT-66" d="M 556 0 
L 556 2881 
L 59 2881 
L 59 3319 
L 556 3319 
L 556 3672 
Q 556 4006 616 4169 
Q 697 4388 901 4523 
Q 1106 4659 1475 4659 
Q 1713 4659 2000 4603 
L 1916 4113 
Q 1741 4144 1584 4144 
Q 1328 4144 1222 4034 
Q 1116 3925 1116 3625 
L 1116 3319 
L 1763 3319 
L 1763 2881 
L 1116 2881 
L 1116 0 
L 556 0 
z
" transform="scale(0.015625)"/>
     <path id="ArialMT-6d" d="M 422 0 
L 422 3319 
L 925 3319 
L 925 2853 
Q 1081 3097 1340 3245 
Q 1600 3394 1931 3394 
Q 2300 3394 2536 3241 
Q 2772 3088 2869 2813 
Q 3263 3394 3894 3394 
Q 4388 3394 4653 3120 
Q 4919 2847 4919 2278 
L 4919 0 
L 4359 0 
L 4359 2091 
Q 4359 2428 4304 2576 
Q 4250 2725 4106 2815 
Q 3963 2906 3769 2906 
Q 3419 2906 3187 2673 
Q 2956 2441 2956 1928 
L 2956 0 
L 2394 0 
L 2394 2156 
Q 2394 2531 2256 2718 
Q 2119 2906 1806 2906 
Q 1569 2906 1367 2781 
Q 1166 2656 1075 2415 
Q 984 2175 984 1722 
L 984 0 
L 422 0 
z
" transform="scale(0.015625)"/>
     <path id="ArialMT-64" d="M 2575 0 
L 2575 419 
Q 2259 -75 1647 -75 
Q 1250 -75 917 144 
Q 584 363 401 755 
Q 219 1147 219 1656 
Q 219 2153 384 2558 
Q 550 2963 881 3178 
Q 1213 3394 1622 3394 
Q 1922 3394 2156 3267 
Q 2391 3141 2538 2938 
L 2538 4581 
L 3097 4581 
L 3097 0 
L 2575 0 
z
M 797 1656 
Q 797 1019 1065 703 
Q 1334 388 1700 388 
Q 2069 388 2326 689 
Q 2584 991 2584 1609 
Q 2584 2291 2321 2609 
Q 2059 2928 1675 2928 
Q 1300 2928 1048 2622 
Q 797 2316 797 1656 
z
" transform="scale(0.015625)"/>
     <path id="ArialMT-65" d="M 2694 1069 
L 3275 997 
Q 3138 488 2766 206 
Q 2394 -75 1816 -75 
Q 1088 -75 661 373 
Q 234 822 234 1631 
Q 234 2469 665 2931 
Q 1097 3394 1784 3394 
Q 2450 3394 2872 2941 
Q 3294 2488 3294 1666 
Q 3294 1616 3291 1516 
L 816 1516 
Q 847 969 1125 678 
Q 1403 388 1819 388 
Q 2128 388 2347 550 
Q 2566 713 2694 1069 
z
M 847 1978 
L 2700 1978 
Q 2663 2397 2488 2606 
Q 2219 2931 1791 2931 
Q 1403 2931 1139 2672 
Q 875 2413 847 1978 
z
" transform="scale(0.015625)"/>
     <path id="ArialMT-70" d="M 422 -1272 
L 422 3319 
L 934 3319 
L 934 2888 
Q 1116 3141 1344 3267 
Q 1572 3394 1897 3394 
Q 2322 3394 2647 3175 
Q 2972 2956 3137 2557 
Q 3303 2159 3303 1684 
Q 3303 1175 3120 767 
Q 2938 359 2589 142 
Q 2241 -75 1856 -75 
Q 1575 -75 1351 44 
Q 1128 163 984 344 
L 984 -1272 
L 422 -1272 
z
M 931 1641 
Q 931 1000 1190 694 
Q 1450 388 1819 388 
Q 2194 388 2461 705 
Q 2728 1022 2728 1688 
Q 2728 2322 2467 2637 
Q 2206 2953 1844 2953 
Q 1484 2953 1207 2617 
Q 931 2281 931 1641 
z
" transform="scale(0.015625)"/>
     <path id="ArialMT-72" d="M 416 0 
L 416 3319 
L 922 3319 
L 922 2816 
Q 1116 3169 1280 3281 
Q 1444 3394 1641 3394 
Q 1925 3394 2219 3213 
L 2025 2691 
Q 1819 2813 1613 2813 
Q 1428 2813 1281 2702 
Q 1134 2591 1072 2394 
Q 978 2094 978 1738 
L 978 0 
L 416 0 
z
" transform="scale(0.015625)"/>
     <path id="ArialMT-6e" d="M 422 0 
L 422 3319 
L 928 3319 
L 928 2847 
Q 1294 3394 1984 3394 
Q 2284 3394 2536 3286 
Q 2788 3178 2913 3003 
Q 3038 2828 3088 2588 
Q 3119 2431 3119 2041 
L 3119 0 
L 2556 0 
L 2556 2019 
Q 2556 2363 2490 2533 
Q 2425 2703 2258 2804 
Q 2091 2906 1866 2906 
Q 1506 2906 1245 2678 
Q 984 2450 984 1813 
L 984 0 
L 422 0 
z
" transform="scale(0.015625)"/>
     <path id="ArialMT-3a" d="M 578 2678 
L 578 3319 
L 1219 3319 
L 1219 2678 
L 578 2678 
z
M 578 0 
L 578 641 
L 1219 641 
L 1219 0 
L 578 0 
z
" transform="scale(0.015625)"/>
     <path id="ArialMT-2c" d="M 569 0 
L 569 641 
L 1209 641 
L 1209 0 
Q 1209 -353 1084 -570 
Q 959 -788 688 -906 
L 531 -666 
Q 709 -588 793 -436 
Q 878 -284 888 0 
L 569 0 
z
" transform="scale(0.015625)"/>
     <path id="ArialMT-77" d="M 1034 0 
L 19 3319 
L 600 3319 
L 1128 1403 
L 1325 691 
Q 1338 744 1497 1375 
L 2025 3319 
L 2603 3319 
L 3100 1394 
L 3266 759 
L 3456 1400 
L 4025 3319 
L 4572 3319 
L 3534 0 
L 2950 0 
L 2422 1988 
L 2294 2553 
L 1622 0 
L 1034 0 
z
" transform="scale(0.015625)"/>
     <path id="ArialMT-68" d="M 422 0 
L 422 4581 
L 984 4581 
L 984 2938 
Q 1378 3394 1978 3394 
Q 2347 3394 2619 3248 
Q 2891 3103 3008 2847 
Q 3125 2591 3125 2103 
L 3125 0 
L 2563 0 
L 2563 2103 
Q 2563 2525 2380 2717 
Q 2197 2909 1863 2909 
Q 1613 2909 1392 2779 
Q 1172 2650 1078 2428 
Q 984 2206 984 1816 
L 984 0 
L 422 0 
z
" transform="scale(0.015625)"/>
     <path id="ArialMT-2d" d="M 203 1375 
L 203 1941 
L 1931 1941 
L 1931 1375 
L 203 1375 
z
" transform="scale(0.015625)"/>
     <path id="ArialMT-62" d="M 941 0 
L 419 0 
L 419 4581 
L 981 4581 
L 981 2947 
Q 1338 3394 1891 3394 
Q 2197 3394 2470 3270 
Q 2744 3147 2920 2923 
Q 3097 2700 3197 2384 
Q 3297 2069 3297 1709 
Q 3297 856 2875 390 
Q 2453 -75 1863 -75 
Q 1275 -75 941 416 
L 941 0 
z
M 934 1684 
Q 934 1088 1097 822 
Q 1363 388 1816 388 
Q 2184 388 2453 708 
Q 2722 1028 2722 1663 
Q 2722 2313 2464 2622 
Q 2206 2931 1841 2931 
Q 1472 2931 1203 2611 
Q 934 2291 934 1684 
z
" transform="scale(0.015625)"/>
     <path id="ArialMT-33" d="M 269 1209 
L 831 1284 
Q 928 806 1161 595 
Q 1394 384 1728 384 
Q 2125 384 2398 659 
Q 2672 934 2672 1341 
Q 2672 1728 2419 1979 
Q 2166 2231 1775 2231 
Q 1616 2231 1378 2169 
L 1441 2663 
Q 1497 2656 1531 2656 
Q 1891 2656 2178 2843 
Q 2466 3031 2466 3422 
Q 2466 3731 2256 3934 
Q 2047 4138 1716 4138 
Q 1388 4138 1169 3931 
Q 950 3725 888 3313 
L 325 3413 
Q 428 3978 793 4289 
Q 1159 4600 1703 4600 
Q 2078 4600 2393 4439 
Q 2709 4278 2876 4000 
Q 3044 3722 3044 3409 
Q 3044 3113 2884 2869 
Q 2725 2625 2413 2481 
Q 2819 2388 3044 2092 
Q 3269 1797 3269 1353 
Q 3269 753 2831 336 
Q 2394 -81 1725 -81 
Q 1122 -81 723 278 
Q 325 638 269 1209 
z
" transform="scale(0.015625)"/>
     <path id="ArialMT-2f" d="M 0 -78 
L 1328 4659 
L 1778 4659 
L 453 -78 
L 0 -78 
z
" transform="scale(0.015625)"/>
    </defs>
    <use xlink:href="#ArialMT-50"/>
    <use xlink:href="#ArialMT-6c" x="66.699219"/>
    <use xlink:href="#ArialMT-6f" x="88.916016"/>
    <use xlink:href="#ArialMT-74" x="144.53125"/>
    <use xlink:href="#ArialMT-73" x="172.314453"/>
    <use xlink:href="#ArialMT-20" x="222.314453"/>
    <use xlink:href="#ArialMT-6f" x="250.097656"/>
    <use xlink:href="#ArialMT-66" x="305.712891"/>
    <use xlink:href="#ArialMT-20" x="333.496094"/>
    <use xlink:href="#ArialMT-6d" x="361.279297"/>
    <use xlink:href="#ArialMT-6f" x="444.580078"/>
    <use xlink:href="#ArialMT-64" x="500.195312"/>
    <use xlink:href="#ArialMT-65" x="555.810547"/>
    <use xlink:href="#ArialMT-6c" x="611.425781"/>
    <use xlink:href="#ArialMT-20" x="633.642578"/>
    <use xlink:href="#ArialMT-70" x="661.425781"/>
    <use xlink:href="#ArialMT-65" x="717.041016"/>
    <use xlink:href="#ArialMT-72" x="772.65625"/>
    <use xlink:href="#ArialMT-66" x="805.957031"/>
    <use xlink:href="#ArialMT-6f" x="833.740234"/>
    <use xlink:href="#ArialMT-72" x="889.355469"/>
    <use xlink:href="#ArialMT-6d" x="922.65625"/>
    <use xlink:href="#ArialMT-61" x="1005.957031"/>
    <use xlink:href="#ArialMT-6e" x="1061.572266"/>
    <use xlink:href="#ArialMT-63" x="1117.1875"/>
    <use xlink:href="#ArialMT-65" x="1167.1875"/>
    <use xlink:href="#ArialMT-3a" x="1222.802734"/>
    <use xlink:href="#ArialMT-20" x="1250.585938"/>
    <use xlink:href="#ArialMT-6d" x="1278.369141"/>
    <use xlink:href="#ArialMT-66" x="1361.669922"/>
    <use xlink:href="#ArialMT-63" x="1389.453125"/>
    <use xlink:href="#ArialMT-63" x="1439.453125"/>
    <use xlink:href="#ArialMT-2c" x="1489.453125"/>
    <use xlink:href="#ArialMT-20" x="1517.236328"/>
    <use xlink:href="#ArialMT-77" x="1545.019531"/>
    <use xlink:href="#ArialMT-61" x="1617.236328"/>
    <use xlink:href="#ArialMT-72" x="1672.851562"/>
    <use xlink:href="#ArialMT-6f" x="1706.152344"/>
    <use xlink:href="#ArialMT-68" x="1761.767578"/>
    <use xlink:href="#ArialMT-6d" x="1817.382812"/>
    <use xlink:href="#ArialMT-61" x="1900.683594"/>
    <use xlink:href="#ArialMT-31" x="1956.298828"/>
    <use xlink:href="#ArialMT-38" x="2011.914062"/>
    <use xlink:href="#ArialMT-20" x="2067.529297"/>
    <use xlink:href="#ArialMT-2d" x="2095.3125"/>
    <use xlink:href="#ArialMT-20" x="2128.613281"/>
    <use xlink:href="#ArialMT-6c" x="2156.396484"/>
    <use xlink:href="#ArialMT-72" x="2178.613281"/>
    <use xlink:href="#ArialMT-20" x="2211.914062"/>
    <use xlink:href="#ArialMT-30" x="2239.697266"/>
    <use xlink:href="#ArialMT-2e" x="2295.3125"/>
    <use xlink:href="#ArialMT-30" x="2323.095703"/>
    <use xlink:href="#ArialMT-30" x="2378.710938"/>
    <use xlink:href="#ArialMT-30" x="2434.326172"/>
    <use xlink:href="#ArialMT-31" x="2489.941406"/>
    <use xlink:href="#ArialMT-2c" x="2545.556641"/>
    <use xlink:href="#ArialMT-20" x="2573.339844"/>
    <use xlink:href="#ArialMT-62" x="2601.123047"/>
    <use xlink:href="#ArialMT-61" x="2656.738281"/>
    <use xlink:href="#ArialMT-74" x="2712.353516"/>
    <use xlink:href="#ArialMT-63" x="2740.136719"/>
    <use xlink:href="#ArialMT-68" x="2790.136719"/>
    <use xlink:href="#ArialMT-20" x="2845.751953"/>
    <use xlink:href="#ArialMT-33" x="2873.535156"/>
    <use xlink:href="#ArialMT-32" x="2929.150391"/>
    <use xlink:href="#ArialMT-2c" x="2984.765625"/>
    <use xlink:href="#ArialMT-20" x="3012.548828"/>
    <use xlink:href="#ArialMT-31" x="3040.332031"/>
    <use xlink:href="#ArialMT-32" x="3095.947266"/>
    <use xlink:href="#ArialMT-38" x="3151.5625"/>
    <use xlink:href="#ArialMT-20" x="3207.177734"/>
    <use xlink:href="#ArialMT-73" x="3234.960938"/>
    <use xlink:href="#ArialMT-74" x="3284.960938"/>
    <use xlink:href="#ArialMT-65" x="3312.744141"/>
    <use xlink:href="#ArialMT-70" x="3368.359375"/>
    <use xlink:href="#ArialMT-73" x="3423.974609"/>
    <use xlink:href="#ArialMT-2f" x="3473.974609"/>
    <use xlink:href="#ArialMT-65" x="3501.757812"/>
    <use xlink:href="#ArialMT-70" x="3557.373047"/>
    <use xlink:href="#ArialMT-6f" x="3612.988281"/>
    <use xlink:href="#ArialMT-63" x="3668.603516"/>
    <use xlink:href="#ArialMT-68" x="3718.603516"/>
   </g>
  </g>
 </g>
 <defs>
  <clipPath id="p409e5cff20">
   <rect x="108" y="77.76" width="669.6" height="226.8"/>
  </clipPath>
  <clipPath id="p4370b430c7">
   <rect x="108" y="349.92" width="669.6" height="226.8"/>
  </clipPath>
 </defs>
</svg>
