<?xml version="1.0" encoding="utf-8" standalone="no"?>
<!DOCTYPE svg PUBLIC "-//W3C//DTD SVG 1.1//EN"
  "http://www.w3.org/Graphics/SVG/1.1/DTD/svg11.dtd">
<svg xmlns:xlink="http://www.w3.org/1999/xlink" width="864pt" height="648pt" viewBox="0 0 864 648" xmlns="http://www.w3.org/2000/svg" version="1.1">
 <metadata>
  <rdf:RDF xmlns:dc="http://purl.org/dc/elements/1.1/" xmlns:cc="http://creativecommons.org/ns#" xmlns:rdf="http://www.w3.org/1999/02/22-rdf-syntax-ns#">
   <cc:Work>
    <dc:type rdf:resource="http://purl.org/dc/dcmitype/StillImage"/>
    <dc:date>2022-04-01T05:07:47.033063</dc:date>
    <dc:format>image/svg+xml</dc:format>
    <dc:creator>
     <cc:Agent>
      <dc:title>Matplotlib v3.5.1, https://matplotlib.org/</dc:title>
     </cc:Agent>
    </dc:creator>
   </cc:Work>
  </rdf:RDF>
 </metadata>
 <defs>
  <style type="text/css">*{stroke-linejoin: round; stroke-linecap: butt}</style>
 </defs>
 <g id="figure_1">
  <g id="patch_1">
   <path d="M 0 648 
L 864 648 
L 864 0 
L 0 0 
z
" style="fill: #ffffff"/>
  </g>
  <g id="axes_1">
   <g id="patch_2">
    <path d="M 108 304.56 
L 777.6 304.56 
L 777.6 77.76 
L 108 77.76 
z
" style="fill: #eaeaf2"/>
   </g>
   <g id="matplotlib.axis_1">
    <g id="xtick_1">
     <g id="line2d_1"/>
     <g id="text_1">
      <!-- 0 -->
      <g style="fill: #262626" transform="translate(135.655895 318.806875)scale(0.1 -0.1)">
       <defs>
        <path id="LiberationSans-30" d="M 3309 2203 
Q 3309 1569 3189 1136 
Q 3069 703 2861 436 
Q 2653 169 2372 53 
Q 2091 -63 1772 -63 
Q 1450 -63 1172 53 
Q 894 169 689 434 
Q 484 700 367 1133 
Q 250 1566 250 2203 
Q 250 2869 367 3305 
Q 484 3741 690 4000 
Q 897 4259 1178 4364 
Q 1459 4469 1791 4469 
Q 2106 4469 2382 4364 
Q 2659 4259 2865 4000 
Q 3072 3741 3190 3305 
Q 3309 2869 3309 2203 
z
M 2738 2203 
Q 2738 2728 2675 3076 
Q 2613 3425 2491 3633 
Q 2369 3841 2192 3927 
Q 2016 4013 1791 4013 
Q 1553 4013 1372 3925 
Q 1191 3838 1067 3630 
Q 944 3422 881 3073 
Q 819 2725 819 2203 
Q 819 1697 883 1350 
Q 947 1003 1070 792 
Q 1194 581 1372 489 
Q 1550 397 1778 397 
Q 2000 397 2178 489 
Q 2356 581 2479 792 
Q 2603 1003 2670 1350 
Q 2738 1697 2738 2203 
z
" transform="scale(0.015625)"/>
       </defs>
       <use xlink:href="#LiberationSans-30"/>
      </g>
     </g>
    </g>
    <g id="xtick_2">
     <g id="line2d_2"/>
     <g id="text_2">
      <!-- 20 -->
      <g style="fill: #262626" transform="translate(255.850633 318.806875)scale(0.1 -0.1)">
       <defs>
        <path id="LiberationSans-32" d="M 322 0 
L 322 397 
Q 481 763 711 1042 
Q 941 1322 1194 1548 
Q 1447 1775 1695 1969 
Q 1944 2163 2144 2356 
Q 2344 2550 2467 2762 
Q 2591 2975 2591 3244 
Q 2591 3431 2534 3573 
Q 2478 3716 2372 3812 
Q 2266 3909 2117 3957 
Q 1969 4006 1788 4006 
Q 1619 4006 1470 3959 
Q 1322 3913 1206 3819 
Q 1091 3725 1017 3586 
Q 944 3447 922 3263 
L 347 3316 
Q 375 3553 478 3762 
Q 581 3972 762 4130 
Q 944 4288 1198 4378 
Q 1453 4469 1788 4469 
Q 2116 4469 2372 4391 
Q 2628 4313 2804 4159 
Q 2981 4006 3075 3781 
Q 3169 3556 3169 3263 
Q 3169 3041 3089 2841 
Q 3009 2641 2876 2459 
Q 2744 2278 2569 2109 
Q 2394 1941 2203 1780 
Q 2013 1619 1819 1461 
Q 1625 1303 1454 1143 
Q 1284 984 1150 820 
Q 1016 656 941 478 
L 3238 478 
L 3238 0 
L 322 0 
z
" transform="scale(0.015625)"/>
       </defs>
       <use xlink:href="#LiberationSans-32"/>
       <use xlink:href="#LiberationSans-30" x="55.615234"/>
      </g>
     </g>
    </g>
    <g id="xtick_3">
     <g id="line2d_3"/>
     <g id="text_3">
      <!-- 40 -->
      <g style="fill: #262626" transform="translate(378.825839 318.806875)scale(0.1 -0.1)">
       <defs>
        <path id="LiberationSans-34" d="M 2753 997 
L 2753 0 
L 2222 0 
L 2222 997 
L 147 997 
L 147 1434 
L 2163 4403 
L 2753 4403 
L 2753 1441 
L 3372 1441 
L 3372 997 
L 2753 997 
z
M 2222 3769 
Q 2216 3753 2191 3708 
Q 2166 3663 2134 3606 
Q 2103 3550 2070 3492 
Q 2038 3434 2013 3397 
L 884 1734 
Q 869 1709 839 1668 
Q 809 1628 778 1586 
Q 747 1544 715 1503 
Q 684 1463 666 1441 
L 2222 1441 
L 2222 3769 
z
" transform="scale(0.015625)"/>
       </defs>
       <use xlink:href="#LiberationSans-34"/>
       <use xlink:href="#LiberationSans-30" x="55.615234"/>
      </g>
     </g>
    </g>
    <g id="xtick_4">
     <g id="line2d_4"/>
     <g id="text_4">
      <!-- 60 -->
      <g style="fill: #262626" transform="translate(501.801046 318.806875)scale(0.1 -0.1)">
       <defs>
        <path id="LiberationSans-36" d="M 3278 1441 
Q 3278 1109 3186 832 
Q 3094 556 2914 357 
Q 2734 159 2468 48 
Q 2203 -63 1856 -63 
Q 1472 -63 1184 84 
Q 897 231 706 507 
Q 516 784 420 1186 
Q 325 1588 325 2100 
Q 325 2688 433 3131 
Q 541 3575 744 3872 
Q 947 4169 1239 4319 
Q 1531 4469 1900 4469 
Q 2125 4469 2322 4422 
Q 2519 4375 2680 4270 
Q 2841 4166 2962 3994 
Q 3084 3822 3156 3572 
L 2619 3475 
Q 2531 3759 2339 3886 
Q 2147 4013 1894 4013 
Q 1663 4013 1475 3903 
Q 1288 3794 1156 3576 
Q 1025 3359 954 3031 
Q 884 2703 884 2266 
Q 1038 2550 1316 2698 
Q 1594 2847 1953 2847 
Q 2253 2847 2497 2750 
Q 2741 2653 2914 2470 
Q 3088 2288 3183 2027 
Q 3278 1766 3278 1441 
z
M 2706 1416 
Q 2706 1644 2650 1828 
Q 2594 2013 2481 2142 
Q 2369 2272 2203 2342 
Q 2038 2413 1819 2413 
Q 1666 2413 1509 2367 
Q 1353 2322 1226 2220 
Q 1100 2119 1020 1953 
Q 941 1788 941 1550 
Q 941 1306 1003 1095 
Q 1066 884 1183 728 
Q 1300 572 1465 481 
Q 1631 391 1838 391 
Q 2041 391 2202 461 
Q 2363 531 2475 664 
Q 2588 797 2647 987 
Q 2706 1178 2706 1416 
z
" transform="scale(0.015625)"/>
       </defs>
       <use xlink:href="#LiberationSans-36"/>
       <use xlink:href="#LiberationSans-30" x="55.615234"/>
      </g>
     </g>
    </g>
    <g id="xtick_5">
     <g id="line2d_5"/>
     <g id="text_5">
      <!-- 80 -->
      <g style="fill: #262626" transform="translate(624.776253 318.806875)scale(0.1 -0.1)">
       <defs>
        <path id="LiberationSans-38" d="M 3281 1228 
Q 3281 947 3192 711 
Q 3103 475 2920 303 
Q 2738 131 2453 34 
Q 2169 -63 1781 -63 
Q 1394 -63 1111 34 
Q 828 131 642 301 
Q 456 472 367 708 
Q 278 944 278 1222 
Q 278 1463 351 1650 
Q 425 1838 548 1973 
Q 672 2109 830 2192 
Q 988 2275 1156 2303 
L 1156 2316 
Q 972 2359 826 2456 
Q 681 2553 582 2689 
Q 484 2825 432 2990 
Q 381 3156 381 3341 
Q 381 3572 470 3776 
Q 559 3981 734 4136 
Q 909 4291 1168 4380 
Q 1428 4469 1769 4469 
Q 2128 4469 2392 4378 
Q 2656 4288 2829 4133 
Q 3003 3978 3087 3772 
Q 3172 3566 3172 3334 
Q 3172 3153 3120 2987 
Q 3069 2822 2970 2686 
Q 2872 2550 2726 2454 
Q 2581 2359 2391 2322 
L 2391 2309 
Q 2581 2278 2743 2195 
Q 2906 2113 3025 1977 
Q 3144 1841 3212 1653 
Q 3281 1466 3281 1228 
z
M 2588 3303 
Q 2588 3469 2545 3606 
Q 2503 3744 2406 3842 
Q 2309 3941 2153 3995 
Q 1997 4050 1769 4050 
Q 1547 4050 1394 3995 
Q 1241 3941 1142 3842 
Q 1044 3744 1000 3606 
Q 956 3469 956 3303 
Q 956 3172 990 3034 
Q 1025 2897 1115 2784 
Q 1206 2672 1365 2600 
Q 1525 2528 1775 2528 
Q 2041 2528 2202 2600 
Q 2363 2672 2448 2784 
Q 2534 2897 2561 3034 
Q 2588 3172 2588 3303 
z
M 2697 1281 
Q 2697 1441 2653 1589 
Q 2609 1738 2503 1852 
Q 2397 1966 2217 2036 
Q 2038 2106 1769 2106 
Q 1522 2106 1348 2036 
Q 1175 1966 1067 1850 
Q 959 1734 909 1582 
Q 859 1431 859 1269 
Q 859 1066 909 898 
Q 959 731 1068 611 
Q 1178 491 1356 425 
Q 1534 359 1788 359 
Q 2044 359 2219 425 
Q 2394 491 2500 611 
Q 2606 731 2651 901 
Q 2697 1072 2697 1281 
z
" transform="scale(0.015625)"/>
       </defs>
       <use xlink:href="#LiberationSans-38"/>
       <use xlink:href="#LiberationSans-30" x="55.615234"/>
      </g>
     </g>
    </g>
    <g id="xtick_6">
     <g id="line2d_6"/>
     <g id="text_6">
      <!-- 100 -->
      <g style="fill: #262626" transform="translate(744.97099 318.806875)scale(0.1 -0.1)">
       <defs>
        <path id="LiberationSans-31" d="M 488 0 
L 488 478 
L 1609 478 
L 1609 3866 
L 616 3156 
L 616 3688 
L 1656 4403 
L 2175 4403 
L 2175 478 
L 3247 478 
L 3247 0 
L 488 0 
z
" transform="scale(0.015625)"/>
       </defs>
       <use xlink:href="#LiberationSans-31"/>
       <use xlink:href="#LiberationSans-30" x="55.615234"/>
       <use xlink:href="#LiberationSans-30" x="111.230469"/>
      </g>
     </g>
    </g>
   </g>
   <g id="matplotlib.axis_2">
    <g id="ytick_1">
     <g id="line2d_7"/>
     <g id="text_7">
      <!-- 0.0 -->
      <g style="fill: #262626" transform="translate(87.1 300.280012)scale(0.1 -0.1)">
       <defs>
        <path id="LiberationSans-2e" d="M 584 0 
L 584 684 
L 1194 684 
L 1194 0 
L 584 0 
z
" transform="scale(0.015625)"/>
       </defs>
       <use xlink:href="#LiberationSans-30"/>
       <use xlink:href="#LiberationSans-2e" x="55.615234"/>
       <use xlink:href="#LiberationSans-30" x="83.398438"/>
      </g>
     </g>
    </g>
    <g id="ytick_2">
     <g id="line2d_8"/>
     <g id="text_8">
      <!-- 0.5 -->
      <g style="fill: #262626" transform="translate(87.1 274.843499)scale(0.1 -0.1)">
       <defs>
        <path id="LiberationSans-35" d="M 3291 1434 
Q 3291 1103 3191 828 
Q 3091 553 2894 354 
Q 2697 156 2405 46 
Q 2113 -63 1728 -63 
Q 1381 -63 1123 18 
Q 866 100 687 242 
Q 509 384 404 575 
Q 300 766 256 984 
L 825 1050 
Q 859 925 921 808 
Q 984 691 1092 598 
Q 1200 506 1358 451 
Q 1516 397 1741 397 
Q 1959 397 2137 464 
Q 2316 531 2442 662 
Q 2569 794 2637 984 
Q 2706 1175 2706 1422 
Q 2706 1625 2640 1795 
Q 2575 1966 2453 2089 
Q 2331 2213 2154 2281 
Q 1978 2350 1753 2350 
Q 1613 2350 1494 2325 
Q 1375 2300 1273 2256 
Q 1172 2213 1089 2155 
Q 1006 2097 934 2034 
L 384 2034 
L 531 4403 
L 3034 4403 
L 3034 3925 
L 1044 3925 
L 959 2528 
Q 1109 2644 1334 2726 
Q 1559 2809 1869 2809 
Q 2197 2809 2459 2709 
Q 2722 2609 2906 2426 
Q 3091 2244 3191 1991 
Q 3291 1738 3291 1434 
z
" transform="scale(0.015625)"/>
       </defs>
       <use xlink:href="#LiberationSans-30"/>
       <use xlink:href="#LiberationSans-2e" x="55.615234"/>
       <use xlink:href="#LiberationSans-35" x="83.398438"/>
      </g>
     </g>
    </g>
    <g id="ytick_3">
     <g id="line2d_9"/>
     <g id="text_9">
      <!-- 1.0 -->
      <g style="fill: #262626" transform="translate(87.1 249.406985)scale(0.1 -0.1)">
       <use xlink:href="#LiberationSans-31"/>
       <use xlink:href="#LiberationSans-2e" x="55.615234"/>
       <use xlink:href="#LiberationSans-30" x="83.398438"/>
      </g>
     </g>
    </g>
    <g id="ytick_4">
     <g id="line2d_10"/>
     <g id="text_10">
      <!-- 1.5 -->
      <g style="fill: #262626" transform="translate(87.1 223.970472)scale(0.1 -0.1)">
       <use xlink:href="#LiberationSans-31"/>
       <use xlink:href="#LiberationSans-2e" x="55.615234"/>
       <use xlink:href="#LiberationSans-35" x="83.398438"/>
      </g>
     </g>
    </g>
    <g id="ytick_5">
     <g id="line2d_11"/>
     <g id="text_11">
      <!-- 2.0 -->
      <g style="fill: #262626" transform="translate(87.1 198.533958)scale(0.1 -0.1)">
       <use xlink:href="#LiberationSans-32"/>
       <use xlink:href="#LiberationSans-2e" x="55.615234"/>
       <use xlink:href="#LiberationSans-30" x="83.398438"/>
      </g>
     </g>
    </g>
    <g id="ytick_6">
     <g id="line2d_12"/>
     <g id="text_12">
      <!-- 2.5 -->
      <g style="fill: #262626" transform="translate(87.1 173.097445)scale(0.1 -0.1)">
       <use xlink:href="#LiberationSans-32"/>
       <use xlink:href="#LiberationSans-2e" x="55.615234"/>
       <use xlink:href="#LiberationSans-35" x="83.398438"/>
      </g>
     </g>
    </g>
    <g id="ytick_7">
     <g id="line2d_13"/>
     <g id="text_13">
      <!-- 3.0 -->
      <g style="fill: #262626" transform="translate(87.1 147.660931)scale(0.1 -0.1)">
       <defs>
        <path id="LiberationSans-33" d="M 3278 1216 
Q 3278 913 3179 675 
Q 3081 438 2892 273 
Q 2703 109 2423 23 
Q 2144 -63 1784 -63 
Q 1375 -63 1095 39 
Q 816 141 634 308 
Q 453 475 362 689 
Q 272 903 244 1131 
L 825 1184 
Q 850 1009 917 865 
Q 984 722 1100 619 
Q 1216 516 1384 459 
Q 1553 403 1784 403 
Q 2209 403 2451 612 
Q 2694 822 2694 1234 
Q 2694 1478 2586 1626 
Q 2478 1775 2317 1858 
Q 2156 1941 1967 1969 
Q 1778 1997 1619 1997 
L 1300 1997 
L 1300 2484 
L 1606 2484 
Q 1766 2484 1937 2517 
Q 2109 2550 2251 2636 
Q 2394 2722 2486 2869 
Q 2578 3016 2578 3244 
Q 2578 3597 2370 3801 
Q 2163 4006 1753 4006 
Q 1381 4006 1151 3815 
Q 922 3625 884 3278 
L 319 3322 
Q 353 3613 478 3828 
Q 603 4044 795 4186 
Q 988 4328 1234 4398 
Q 1481 4469 1759 4469 
Q 2128 4469 2393 4376 
Q 2659 4284 2828 4126 
Q 2997 3969 3076 3756 
Q 3156 3544 3156 3303 
Q 3156 3109 3103 2940 
Q 3050 2772 2937 2637 
Q 2825 2503 2651 2406 
Q 2478 2309 2234 2259 
L 2234 2247 
Q 2500 2219 2697 2126 
Q 2894 2034 3022 1896 
Q 3150 1759 3214 1584 
Q 3278 1409 3278 1216 
z
" transform="scale(0.015625)"/>
       </defs>
       <use xlink:href="#LiberationSans-33"/>
       <use xlink:href="#LiberationSans-2e" x="55.615234"/>
       <use xlink:href="#LiberationSans-30" x="83.398438"/>
      </g>
     </g>
    </g>
    <g id="ytick_8">
     <g id="line2d_14"/>
     <g id="text_14">
      <!-- 3.5 -->
      <g style="fill: #262626" transform="translate(87.1 122.224418)scale(0.1 -0.1)">
       <use xlink:href="#LiberationSans-33"/>
       <use xlink:href="#LiberationSans-2e" x="55.615234"/>
       <use xlink:href="#LiberationSans-35" x="83.398438"/>
      </g>
     </g>
    </g>
    <g id="ytick_9">
     <g id="line2d_15"/>
     <g id="text_15">
      <!-- 4.0 -->
      <g style="fill: #262626" transform="translate(87.1 96.787904)scale(0.1 -0.1)">
       <use xlink:href="#LiberationSans-34"/>
       <use xlink:href="#LiberationSans-2e" x="55.615234"/>
       <use xlink:href="#LiberationSans-30" x="83.398438"/>
      </g>
     </g>
    </g>
   </g>
   <g id="line2d_16">
    <path d="M 138.436364 253.855738 
L 144.585124 270.274042 
L 150.733884 276.030646 
L 156.882645 277.85743 
L 163.031405 280.065007 
L 169.180165 281.597406 
L 175.328926 282.710346 
L 181.477686 283.674511 
L 187.626446 285.107051 
L 193.775207 284.777516 
L 199.923967 284.451548 
L 206.072727 287.005142 
L 212.221488 287.202525 
L 218.370248 287.111896 
L 224.519008 286.735877 
L 230.667769 288.217189 
L 236.816529 287.439436 
L 242.965289 287.532975 
L 249.11405 288.612506 
L 255.26281 287.61421 
L 261.41157 289.310682 
L 267.560331 289.08574 
L 273.709091 289.676025 
L 279.857851 288.754416 
L 286.006612 289.104985 
L 292.155372 290.308629 
L 298.304132 290.026555 
L 304.452893 289.452226 
L 310.601653 289.530003 
L 316.750413 289.689203 
L 322.899174 289.601783 
L 329.047934 290.001221 
L 335.196694 290.106986 
L 341.345455 290.47266 
L 347.494215 290.422212 
L 353.642975 291.016115 
L 359.791736 290.456137 
L 365.940496 291.59053 
L 372.089256 290.716642 
L 378.238017 290.586279 
L 384.386777 291.440784 
L 390.535537 290.648478 
L 396.684298 291.649027 
L 402.833058 291.153478 
L 408.981818 292.102723 
L 415.130579 291.345843 
L 421.279339 291.757124 
L 427.428099 291.587437 
L 433.57686 290.901438 
L 439.72562 292.348465 
L 445.87438 292.603603 
L 452.02314 292.354058 
L 458.171901 291.398543 
L 464.320661 291.449213 
L 470.469421 291.483468 
L 476.618182 292.214049 
L 482.766942 292.458255 
L 488.915702 291.938592 
L 495.064463 292.767173 
L 501.213223 292.833139 
L 507.361983 292.976459 
L 513.510744 291.671651 
L 519.659504 291.596714 
L 525.808264 292.506781 
L 531.957025 291.956259 
L 538.105785 292.620285 
L 544.254545 292.147884 
L 550.403306 292.772448 
L 556.552066 292.852944 
L 562.700826 293.040581 
L 568.849587 292.211843 
L 574.998347 292.804233 
L 581.147107 292.454038 
L 587.295868 292.899744 
L 593.444628 292.71597 
L 599.593388 293.108261 
L 605.742149 292.685747 
L 611.890909 292.653131 
L 618.039669 293.354704 
L 624.18843 293.639843 
L 630.33719 293.218502 
L 636.48595 292.882894 
L 642.634711 293.023492 
L 648.783471 292.948937 
L 654.932231 293.239678 
L 661.080992 292.5813 
L 667.229752 292.834582 
L 673.378512 292.818101 
L 679.527273 293.356615 
L 685.676033 293.105022 
L 691.824793 293.529211 
L 697.973554 293.189386 
L 704.122314 293.543277 
L 710.271074 292.962028 
L 716.419835 293.982829 
L 722.568595 294.250909 
L 728.717355 293.431022 
L 734.866116 292.682501 
L 741.014876 292.975214 
L 747.163636 293.945289 
" clip-path="url(#p995558371c)" style="fill: none; stroke: #ff0000; stroke-width: 1.75; stroke-linecap: round"/>
   </g>
   <g id="line2d_17">
    <path d="M 138.436364 148.521176 
L 144.585124 88.069091 
L 150.733884 157.528906 
L 156.882645 246.673919 
L 163.031405 280.15133 
L 169.180165 282.00048 
L 175.328926 281.441475 
L 181.477686 280.822989 
L 187.626446 288.073799 
L 193.775207 284.715258 
L 199.923967 287.375115 
L 206.072727 282.504322 
L 212.221488 288.506976 
L 218.370248 283.967161 
L 224.519008 282.507718 
L 230.667769 281.478905 
L 236.816529 286.914866 
L 242.965289 289.970107 
L 249.11405 289.595634 
L 255.26281 288.668851 
L 261.41157 290.586409 
L 267.560331 286.721213 
L 273.709091 290.369784 
L 279.857851 290.754106 
L 286.006612 288.425493 
L 292.155372 290.666764 
L 298.304132 291.6053 
L 304.452893 289.287846 
L 310.601653 287.624368 
L 316.750413 290.850168 
L 322.899174 289.494065 
L 329.047934 290.998022 
L 335.196694 288.82796 
L 341.345455 291.440333 
L 347.494215 291.959117 
L 353.642975 291.135438 
L 359.791736 291.926539 
L 365.940496 290.571636 
L 372.089256 287.744082 
L 378.238017 290.326799 
L 384.386777 291.309181 
L 390.535537 290.572243 
L 396.684298 289.826292 
L 402.833058 292.377795 
L 408.981818 292.881388 
L 415.130579 291.655854 
L 421.279339 291.252611 
L 427.428099 291.838979 
L 433.57686 289.983825 
L 439.72562 291.312717 
L 445.87438 292.708397 
L 452.02314 292.280853 
L 458.171901 290.152022 
L 464.320661 292.286517 
L 470.469421 291.176731 
L 476.618182 292.726421 
L 482.766942 292.453965 
L 488.915702 292.962137 
L 495.064463 293.371766 
L 501.213223 292.367079 
L 507.361983 289.732328 
L 513.510744 292.234972 
L 519.659504 291.181243 
L 525.808264 292.979257 
L 531.957025 291.33826 
L 538.105785 291.56169 
L 544.254545 290.937752 
L 550.403306 292.403151 
L 556.552066 293.958868 
L 562.700826 292.710914 
L 568.849587 292.848809 
L 574.998347 292.829045 
L 581.147107 291.62303 
L 587.295868 293.227998 
L 593.444628 293.349898 
L 599.593388 293.357306 
L 605.742149 292.923852 
L 611.890909 290.992673 
L 618.039669 293.73737 
L 624.18843 292.880342 
L 630.33719 293.46762 
L 636.48595 293.663117 
L 642.634711 291.64603 
L 648.783471 291.626562 
L 654.932231 291.442479 
L 661.080992 292.666546 
L 667.229752 290.720957 
L 673.378512 293.531185 
L 679.527273 292.30499 
L 685.676033 292.679245 
L 691.824793 291.932503 
L 697.973554 293.801779 
L 704.122314 292.91346 
L 710.271074 291.403572 
L 716.419835 293.962537 
L 722.568595 292.859956 
L 728.717355 290.555879 
L 734.866116 292.39434 
L 741.014876 290.904846 
L 747.163636 294.001678 
" clip-path="url(#p995558371c)" style="fill: none; stroke: #008000; stroke-width: 1.75; stroke-linecap: round"/>
   </g>
   <g id="patch_3">
    <path d="M 108 304.56 
L 108 77.76 
" style="fill: none"/>
   </g>
   <g id="patch_4">
    <path d="M 777.6 304.56 
L 777.6 77.76 
" style="fill: none"/>
   </g>
   <g id="patch_5">
    <path d="M 108 304.56 
L 777.6 304.56 
" style="fill: none"/>
   </g>
   <g id="patch_6">
    <path d="M 108 77.76 
L 777.6 77.76 
" style="fill: none"/>
   </g>
   <g id="legend_1">
    <g id="line2d_18">
     <path d="M 704.473438 90.506875 
L 714.473438 90.506875 
L 724.473438 90.506875 
" style="fill: none; stroke: #ff0000; stroke-width: 1.75; stroke-linecap: round"/>
    </g>
    <g id="text_16">
     <!-- loss -->
     <g style="fill: #262626" transform="translate(732.473438 94.006875)scale(0.1 -0.1)">
      <defs>
       <path id="LiberationSans-6c" d="M 431 0 
L 431 4638 
L 994 4638 
L 994 0 
L 431 0 
z
" transform="scale(0.015625)"/>
       <path id="LiberationSans-6f" d="M 3291 1694 
Q 3291 806 2900 371 
Q 2509 -63 1766 -63 
Q 1413 -63 1134 43 
Q 856 150 664 369 
Q 472 588 370 917 
Q 269 1247 269 1694 
Q 269 3444 1784 3444 
Q 2178 3444 2464 3334 
Q 2750 3225 2933 3006 
Q 3116 2788 3203 2459 
Q 3291 2131 3291 1694 
z
M 2700 1694 
Q 2700 2088 2639 2344 
Q 2578 2600 2461 2753 
Q 2344 2906 2175 2967 
Q 2006 3028 1794 3028 
Q 1578 3028 1404 2964 
Q 1231 2900 1109 2745 
Q 988 2591 923 2334 
Q 859 2078 859 1694 
Q 859 1300 928 1042 
Q 997 784 1117 631 
Q 1238 478 1402 415 
Q 1566 353 1759 353 
Q 1975 353 2150 414 
Q 2325 475 2447 628 
Q 2569 781 2634 1040 
Q 2700 1300 2700 1694 
z
" transform="scale(0.015625)"/>
       <path id="LiberationSans-73" d="M 2969 934 
Q 2969 697 2876 511 
Q 2784 325 2609 198 
Q 2434 72 2179 4 
Q 1925 -63 1597 -63 
Q 1303 -63 1067 -17 
Q 831 28 653 128 
Q 475 228 354 392 
Q 234 556 178 794 
L 675 891 
Q 747 619 972 492 
Q 1197 366 1597 366 
Q 1778 366 1929 391 
Q 2081 416 2190 477 
Q 2300 538 2361 639 
Q 2422 741 2422 891 
Q 2422 1044 2350 1142 
Q 2278 1241 2150 1306 
Q 2022 1372 1839 1420 
Q 1656 1469 1438 1528 
Q 1234 1581 1034 1647 
Q 834 1713 673 1820 
Q 513 1928 413 2087 
Q 313 2247 313 2488 
Q 313 2950 642 3192 
Q 972 3434 1603 3434 
Q 2163 3434 2492 3237 
Q 2822 3041 2909 2606 
L 2403 2544 
Q 2375 2675 2300 2764 
Q 2225 2853 2119 2908 
Q 2013 2963 1880 2986 
Q 1747 3009 1603 3009 
Q 1222 3009 1040 2893 
Q 859 2778 859 2544 
Q 859 2406 926 2317 
Q 994 2228 1114 2167 
Q 1234 2106 1403 2061 
Q 1572 2016 1775 1966 
Q 1909 1931 2050 1892 
Q 2191 1853 2323 1798 
Q 2456 1744 2573 1670 
Q 2691 1597 2778 1494 
Q 2866 1391 2917 1253 
Q 2969 1116 2969 934 
z
" transform="scale(0.015625)"/>
      </defs>
      <use xlink:href="#LiberationSans-6c"/>
      <use xlink:href="#LiberationSans-6f" x="22.216797"/>
      <use xlink:href="#LiberationSans-73" x="77.832031"/>
      <use xlink:href="#LiberationSans-73" x="127.832031"/>
     </g>
    </g>
    <g id="line2d_19">
     <path d="M 704.473438 104.82875 
L 714.473438 104.82875 
L 724.473438 104.82875 
" style="fill: none; stroke: #008000; stroke-width: 1.75; stroke-linecap: round"/>
    </g>
    <g id="text_17">
     <!-- val_loss -->
     <g style="fill: #262626" transform="translate(732.473438 108.32875)scale(0.1 -0.1)">
      <defs>
       <path id="LiberationSans-76" d="M 1916 0 
L 1250 0 
L 22 3381 
L 622 3381 
L 1366 1181 
Q 1388 1113 1417 1014 
Q 1447 916 1478 809 
Q 1509 703 1536 604 
Q 1563 506 1581 441 
Q 1600 506 1629 604 
Q 1659 703 1690 806 
Q 1722 909 1755 1007 
Q 1788 1106 1813 1175 
L 2581 3381 
L 3178 3381 
L 1916 0 
z
" transform="scale(0.015625)"/>
       <path id="LiberationSans-61" d="M 1294 -63 
Q 784 -63 528 206 
Q 272 475 272 944 
Q 272 1278 398 1492 
Q 525 1706 729 1828 
Q 934 1950 1196 1997 
Q 1459 2044 1731 2050 
L 2491 2063 
L 2491 2247 
Q 2491 2456 2447 2603 
Q 2403 2750 2312 2840 
Q 2222 2931 2086 2973 
Q 1950 3016 1766 3016 
Q 1603 3016 1472 2992 
Q 1341 2969 1244 2908 
Q 1147 2847 1087 2742 
Q 1028 2638 1009 2478 
L 422 2531 
Q 453 2731 540 2898 
Q 628 3066 789 3187 
Q 950 3309 1192 3376 
Q 1434 3444 1778 3444 
Q 2416 3444 2737 3151 
Q 3059 2859 3059 2306 
L 3059 850 
Q 3059 600 3125 473 
Q 3191 347 3375 347 
Q 3422 347 3469 353 
Q 3516 359 3559 369 
L 3559 19 
Q 3453 -6 3348 -18 
Q 3244 -31 3125 -31 
Q 2966 -31 2852 11 
Q 2738 53 2666 139 
Q 2594 225 2556 351 
Q 2519 478 2509 647 
L 2491 647 
Q 2400 484 2292 353 
Q 2184 222 2040 130 
Q 1897 38 1714 -12 
Q 1531 -63 1294 -63 
z
M 1422 359 
Q 1691 359 1892 457 
Q 2094 556 2226 709 
Q 2359 863 2425 1044 
Q 2491 1225 2491 1391 
L 2491 1669 
L 1875 1656 
Q 1669 1653 1483 1626 
Q 1297 1600 1156 1522 
Q 1016 1444 933 1303 
Q 850 1163 850 934 
Q 850 659 998 509 
Q 1147 359 1422 359 
z
" transform="scale(0.015625)"/>
       <path id="LiberationSans-5f" d="M -97 -1272 
L -97 -866 
L 3631 -866 
L 3631 -1272 
L -97 -1272 
z
" transform="scale(0.015625)"/>
      </defs>
      <use xlink:href="#LiberationSans-76"/>
      <use xlink:href="#LiberationSans-61" x="50"/>
      <use xlink:href="#LiberationSans-6c" x="105.615234"/>
      <use xlink:href="#LiberationSans-5f" x="127.832031"/>
      <use xlink:href="#LiberationSans-6c" x="183.447266"/>
      <use xlink:href="#LiberationSans-6f" x="205.664062"/>
      <use xlink:href="#LiberationSans-73" x="261.279297"/>
      <use xlink:href="#LiberationSans-73" x="311.279297"/>
     </g>
    </g>
   </g>
  </g>
  <g id="axes_2">
   <g id="patch_7">
    <path d="M 108 576.72 
L 777.6 576.72 
L 777.6 349.92 
L 108 349.92 
z
" style="fill: #eaeaf2"/>
   </g>
   <g id="matplotlib.axis_3">
    <g id="xtick_7">
     <g id="line2d_20"/>
     <g id="text_18">
      <!-- 0 -->
      <g style="fill: #262626" transform="translate(135.655895 590.966875)scale(0.1 -0.1)">
       <use xlink:href="#LiberationSans-30"/>
      </g>
     </g>
    </g>
    <g id="xtick_8">
     <g id="line2d_21"/>
     <g id="text_19">
      <!-- 20 -->
      <g style="fill: #262626" transform="translate(255.850633 590.966875)scale(0.1 -0.1)">
       <use xlink:href="#LiberationSans-32"/>
       <use xlink:href="#LiberationSans-30" x="55.615234"/>
      </g>
     </g>
    </g>
    <g id="xtick_9">
     <g id="line2d_22"/>
     <g id="text_20">
      <!-- 40 -->
      <g style="fill: #262626" transform="translate(378.825839 590.966875)scale(0.1 -0.1)">
       <use xlink:href="#LiberationSans-34"/>
       <use xlink:href="#LiberationSans-30" x="55.615234"/>
      </g>
     </g>
    </g>
    <g id="xtick_10">
     <g id="line2d_23"/>
     <g id="text_21">
      <!-- 60 -->
      <g style="fill: #262626" transform="translate(501.801046 590.966875)scale(0.1 -0.1)">
       <use xlink:href="#LiberationSans-36"/>
       <use xlink:href="#LiberationSans-30" x="55.615234"/>
      </g>
     </g>
    </g>
    <g id="xtick_11">
     <g id="line2d_24"/>
     <g id="text_22">
      <!-- 80 -->
      <g style="fill: #262626" transform="translate(624.776253 590.966875)scale(0.1 -0.1)">
       <use xlink:href="#LiberationSans-38"/>
       <use xlink:href="#LiberationSans-30" x="55.615234"/>
      </g>
     </g>
    </g>
    <g id="xtick_12">
     <g id="line2d_25"/>
     <g id="text_23">
      <!-- 100 -->
      <g style="fill: #262626" transform="translate(744.97099 590.966875)scale(0.1 -0.1)">
       <use xlink:href="#LiberationSans-31"/>
       <use xlink:href="#LiberationSans-30" x="55.615234"/>
       <use xlink:href="#LiberationSans-30" x="111.230469"/>
      </g>
     </g>
    </g>
   </g>
   <g id="matplotlib.axis_4">
    <g id="ytick_10">
     <g id="line2d_26"/>
     <g id="text_24">
      <!-- 0.2 -->
      <g style="fill: #262626" transform="translate(87.1 541.578715)scale(0.1 -0.1)">
       <use xlink:href="#LiberationSans-30"/>
       <use xlink:href="#LiberationSans-2e" x="55.615234"/>
       <use xlink:href="#LiberationSans-32" x="83.398438"/>
      </g>
     </g>
    </g>
    <g id="ytick_11">
     <g id="line2d_27"/>
     <g id="text_25">
      <!-- 0.4 -->
      <g style="fill: #262626" transform="translate(87.1 496.332493)scale(0.1 -0.1)">
       <use xlink:href="#LiberationSans-30"/>
       <use xlink:href="#LiberationSans-2e" x="55.615234"/>
       <use xlink:href="#LiberationSans-34" x="83.398438"/>
      </g>
     </g>
    </g>
    <g id="ytick_12">
     <g id="line2d_28"/>
     <g id="text_26">
      <!-- 0.6 -->
      <g style="fill: #262626" transform="translate(87.1 451.086272)scale(0.1 -0.1)">
       <use xlink:href="#LiberationSans-30"/>
       <use xlink:href="#LiberationSans-2e" x="55.615234"/>
       <use xlink:href="#LiberationSans-36" x="83.398438"/>
      </g>
     </g>
    </g>
    <g id="ytick_13">
     <g id="line2d_29"/>
     <g id="text_27">
      <!-- 0.8 -->
      <g style="fill: #262626" transform="translate(87.1 405.84005)scale(0.1 -0.1)">
       <use xlink:href="#LiberationSans-30"/>
       <use xlink:href="#LiberationSans-2e" x="55.615234"/>
       <use xlink:href="#LiberationSans-38" x="83.398438"/>
      </g>
     </g>
    </g>
    <g id="ytick_14">
     <g id="line2d_30"/>
     <g id="text_28">
      <!-- 1.0 -->
      <g style="fill: #262626" transform="translate(87.1 360.593828)scale(0.1 -0.1)">
       <use xlink:href="#LiberationSans-31"/>
       <use xlink:href="#LiberationSans-2e" x="55.615234"/>
       <use xlink:href="#LiberationSans-30" x="83.398438"/>
      </g>
     </g>
    </g>
   </g>
   <g id="line2d_31">
    <path d="M 138.436364 414.411883 
L 144.585124 395.577702 
L 150.733884 387.071942 
L 156.882645 385.414976 
L 163.031405 381.990579 
L 169.180165 379.836523 
L 175.328926 377.572003 
L 181.477686 376.633056 
L 187.626446 373.208659 
L 193.775207 374.423767 
L 199.923967 375.417947 
L 206.072727 370.778442 
L 212.221488 370.72321 
L 218.370248 371.109835 
L 224.519008 371.441228 
L 230.667769 369.839494 
L 236.816529 370.502281 
L 242.965289 370.72321 
L 249.11405 369.066244 
L 255.26281 371.054603 
L 261.41157 368.624386 
L 267.560331 368.292993 
L 273.709091 367.077884 
L 279.857851 368.458689 
L 286.006612 367.906367 
L 292.155372 366.028472 
L 298.304132 366.636027 
L 304.452893 368.790083 
L 310.601653 368.127296 
L 316.750413 367.354045 
L 322.899174 367.574974 
L 329.047934 366.580794 
L 335.196694 367.133116 
L 341.345455 366.028472 
L 347.494215 366.580794 
L 353.642975 365.420918 
L 359.791736 366.249401 
L 365.940496 364.923828 
L 372.089256 365.807544 
L 378.238017 365.862776 
L 384.386777 365.365686 
L 390.535537 366.083705 
L 396.684298 364.813364 
L 402.833058 364.923828 
L 408.981818 363.653488 
L 415.130579 365.365686 
L 421.279339 364.371506 
L 427.428099 364.592435 
L 433.57686 365.697079 
L 439.72562 363.598255 
L 445.87438 362.935469 
L 452.02314 363.984881 
L 458.171901 365.255221 
L 464.320661 364.97906 
L 470.469421 364.923828 
L 476.618182 363.432559 
L 482.766942 363.377327 
L 488.915702 364.261042 
L 495.064463 362.71454 
L 501.213223 362.438379 
L 507.361983 362.21745 
L 513.510744 364.923828 
L 519.659504 364.481971 
L 525.808264 363.101166 
L 531.957025 363.487791 
L 538.105785 363.156398 
L 544.254545 364.316274 
L 550.403306 362.990701 
L 556.552066 362.71454 
L 562.700826 362.548843 
L 568.849587 364.095345 
L 574.998347 362.880237 
L 581.147107 363.487791 
L 587.295868 362.659308 
L 593.444628 362.935469 
L 599.593388 362.21745 
L 605.742149 363.101166 
L 611.890909 362.769772 
L 618.039669 361.609896 
L 624.18843 361.665128 
L 630.33719 362.71454 
L 636.48595 362.880237 
L 642.634711 362.548843 
L 648.783471 362.493611 
L 654.932231 361.775593 
L 661.080992 363.266862 
L 667.229752 362.935469 
L 673.378512 363.045933 
L 679.527273 362.106986 
L 685.676033 362.71454 
L 691.824793 362.106986 
L 697.973554 362.327915 
L 704.122314 361.886057 
L 710.271074 362.825005 
L 716.419835 360.726181 
L 722.568595 360.229091 
L 728.717355 362.162218 
L 734.866116 362.438379 
L 741.014876 362.548843 
L 747.163636 361.278503 
" clip-path="url(#p3881d1a647)" style="fill: none; stroke: #ff0000; stroke-width: 1.75; stroke-linecap: round"/>
   </g>
   <g id="line2d_32">
    <path d="M 138.436364 566.410909 
L 144.585124 538.794807 
L 150.733884 509.190346 
L 156.882645 425.237395 
L 163.031405 380.388845 
L 169.180165 377.7377 
L 175.328926 378.621415 
L 181.477686 379.726059 
L 187.626446 369.121476 
L 193.775207 375.086554 
L 199.923967 370.005191 
L 206.072727 377.7377 
L 212.221488 369.342405 
L 218.370248 376.191198 
L 224.519008 375.74934 
L 230.667769 378.400486 
L 236.816529 371.551693 
L 242.965289 367.354045 
L 249.11405 367.133116 
L 255.26281 369.121476 
L 261.41157 369.121476 
L 267.560331 371.772622 
L 273.709091 366.912188 
L 279.857851 365.144757 
L 286.006612 367.133116 
L 292.155372 367.795903 
L 298.304132 366.249401 
L 304.452893 368.016832 
L 310.601653 371.109835 
L 316.750413 366.028472 
L 322.899174 369.121476 
L 329.047934 367.133116 
L 335.196694 367.354045 
L 341.345455 366.028472 
L 347.494215 364.481971 
L 353.642975 367.354045 
L 359.791736 364.923828 
L 365.940496 366.691259 
L 372.089256 369.563333 
L 378.238017 365.586615 
L 384.386777 364.923828 
L 390.535537 366.47033 
L 396.684298 367.574974 
L 402.833058 364.040113 
L 408.981818 362.71454 
L 415.130579 365.144757 
L 421.279339 365.807544 
L 427.428099 364.481971 
L 433.57686 368.016832 
L 439.72562 366.47033 
L 445.87438 363.819184 
L 452.02314 363.156398 
L 458.171901 366.249401 
L 464.320661 363.156398 
L 470.469421 364.702899 
L 476.618182 362.71454 
L 482.766942 363.377327 
L 488.915702 362.051754 
L 495.064463 361.609896 
L 501.213223 362.272682 
L 507.361983 367.795903 
L 513.510744 364.040113 
L 519.659504 366.028472 
L 525.808264 362.71454 
L 531.957025 363.156398 
L 538.105785 365.144757 
L 544.254545 366.47033 
L 550.403306 363.156398 
L 556.552066 361.388967 
L 562.700826 363.598255 
L 568.849587 363.156398 
L 574.998347 363.598255 
L 581.147107 366.912188 
L 587.295868 363.377327 
L 593.444628 362.493611 
L 599.593388 362.272682 
L 605.742149 362.493611 
L 611.890909 364.702899 
L 618.039669 362.051754 
L 624.18843 362.71454 
L 630.33719 362.493611 
L 636.48595 361.609896 
L 642.634711 366.028472 
L 648.783471 365.586615 
L 654.932231 365.144757 
L 661.080992 363.819184 
L 667.229752 365.365686 
L 673.378512 361.609896 
L 679.527273 363.156398 
L 685.676033 362.493611 
L 691.824793 365.144757 
L 697.973554 361.830825 
L 704.122314 362.71454 
L 710.271074 364.702899 
L 716.419835 361.609896 
L 722.568595 360.94711 
L 728.717355 366.249401 
L 734.866116 363.819184 
L 741.014876 364.923828 
L 747.163636 360.94711 
" clip-path="url(#p3881d1a647)" style="fill: none; stroke: #008000; stroke-width: 1.75; stroke-linecap: round"/>
   </g>
   <g id="patch_8">
    <path d="M 108 576.72 
L 108 349.92 
" style="fill: none"/>
   </g>
   <g id="patch_9">
    <path d="M 777.6 576.72 
L 777.6 349.92 
" style="fill: none"/>
   </g>
   <g id="patch_10">
    <path d="M 108 576.72 
L 777.6 576.72 
" style="fill: none"/>
   </g>
   <g id="patch_11">
    <path d="M 108 349.92 
L 777.6 349.92 
" style="fill: none"/>
   </g>
   <g id="legend_2">
    <g id="line2d_33">
     <path d="M 706.695312 547.823125 
L 716.695312 547.823125 
L 726.695312 547.823125 
" style="fill: none; stroke: #ff0000; stroke-width: 1.75; stroke-linecap: round"/>
    </g>
    <g id="text_29">
     <!-- acc -->
     <g style="fill: #262626" transform="translate(734.695312 551.323125)scale(0.1 -0.1)">
      <defs>
       <path id="LiberationSans-63" d="M 859 1706 
Q 859 1416 901 1172 
Q 944 928 1044 751 
Q 1144 575 1308 478 
Q 1472 381 1713 381 
Q 2013 381 2214 543 
Q 2416 706 2463 1044 
L 3031 1006 
Q 3003 797 2909 603 
Q 2816 409 2655 262 
Q 2494 116 2262 26 
Q 2031 -63 1728 -63 
Q 1331 -63 1053 71 
Q 775 206 601 442 
Q 428 678 350 998 
Q 272 1319 272 1694 
Q 272 2034 328 2295 
Q 384 2556 486 2751 
Q 588 2947 725 3080 
Q 863 3213 1023 3292 
Q 1184 3372 1362 3408 
Q 1541 3444 1722 3444 
Q 2006 3444 2228 3366 
Q 2450 3288 2611 3152 
Q 2772 3016 2872 2831 
Q 2972 2647 3013 2434 
L 2434 2391 
Q 2391 2672 2212 2837 
Q 2034 3003 1706 3003 
Q 1466 3003 1305 2923 
Q 1144 2844 1044 2683 
Q 944 2522 901 2278 
Q 859 2034 859 1706 
z
" transform="scale(0.015625)"/>
      </defs>
      <use xlink:href="#LiberationSans-61"/>
      <use xlink:href="#LiberationSans-63" x="55.615234"/>
      <use xlink:href="#LiberationSans-63" x="105.615234"/>
     </g>
    </g>
    <g id="line2d_34">
     <path d="M 706.695312 562.145 
L 716.695312 562.145 
L 726.695312 562.145 
" style="fill: none; stroke: #008000; stroke-width: 1.75; stroke-linecap: round"/>
    </g>
    <g id="text_30">
     <!-- val_acc -->
     <g style="fill: #262626" transform="translate(734.695312 565.645)scale(0.1 -0.1)">
      <use xlink:href="#LiberationSans-76"/>
      <use xlink:href="#LiberationSans-61" x="50"/>
      <use xlink:href="#LiberationSans-6c" x="105.615234"/>
      <use xlink:href="#LiberationSans-5f" x="127.832031"/>
      <use xlink:href="#LiberationSans-61" x="183.447266"/>
      <use xlink:href="#LiberationSans-63" x="239.0625"/>
      <use xlink:href="#LiberationSans-63" x="289.0625"/>
     </g>
    </g>
   </g>
  </g>
  <g id="text_31">
   <!-- Plots of model performance: mfcc, shon18 - lr 0.0001, batch 32, 128 steps/epoch -->
   <g style="fill: #262626" transform="translate(217.229062 21.65625)scale(0.12 -0.12)">
    <defs>
     <path id="LiberationSans-50" d="M 3931 3078 
Q 3931 2791 3836 2542 
Q 3741 2294 3552 2111 
Q 3363 1928 3078 1822 
Q 2794 1716 2416 1716 
L 1122 1716 
L 1122 0 
L 525 0 
L 525 4403 
L 2378 4403 
Q 2769 4403 3059 4308 
Q 3350 4213 3544 4039 
Q 3738 3866 3834 3620 
Q 3931 3375 3931 3078 
z
M 3331 3072 
Q 3331 3491 3075 3708 
Q 2819 3925 2306 3925 
L 1122 3925 
L 1122 2188 
L 2331 2188 
Q 2847 2188 3089 2416 
Q 3331 2644 3331 3072 
z
" transform="scale(0.015625)"/>
     <path id="LiberationSans-74" d="M 1731 25 
Q 1603 -9 1470 -29 
Q 1338 -50 1163 -50 
Q 488 -50 488 716 
L 488 2972 
L 97 2972 
L 97 3381 
L 509 3381 
L 675 4138 
L 1050 4138 
L 1050 3381 
L 1675 3381 
L 1675 2972 
L 1050 2972 
L 1050 838 
Q 1050 594 1129 495 
Q 1209 397 1406 397 
Q 1488 397 1564 409 
Q 1641 422 1731 441 
L 1731 25 
z
" transform="scale(0.015625)"/>
     <path id="LiberationSans-20" transform="scale(0.015625)"/>
     <path id="LiberationSans-66" d="M 1128 2972 
L 1128 0 
L 566 0 
L 566 2972 
L 91 2972 
L 91 3381 
L 566 3381 
L 566 3763 
Q 566 3947 600 4105 
Q 634 4263 726 4380 
Q 819 4497 978 4564 
Q 1138 4631 1391 4631 
Q 1491 4631 1598 4622 
Q 1706 4613 1788 4594 
L 1788 4166 
Q 1734 4175 1664 4183 
Q 1594 4191 1538 4191 
Q 1413 4191 1333 4156 
Q 1253 4122 1208 4058 
Q 1163 3994 1145 3900 
Q 1128 3806 1128 3684 
L 1128 3381 
L 1788 3381 
L 1788 2972 
L 1128 2972 
z
" transform="scale(0.015625)"/>
     <path id="LiberationSans-6d" d="M 2400 0 
L 2400 2144 
Q 2400 2391 2369 2556 
Q 2338 2722 2264 2823 
Q 2191 2925 2072 2967 
Q 1953 3009 1781 3009 
Q 1603 3009 1459 2939 
Q 1316 2869 1214 2736 
Q 1113 2603 1058 2408 
Q 1003 2213 1003 1959 
L 1003 0 
L 444 0 
L 444 2659 
Q 444 2766 442 2883 
Q 441 3000 437 3104 
Q 434 3209 431 3284 
Q 428 3359 425 3381 
L 956 3381 
Q 959 3366 962 3297 
Q 966 3228 970 3139 
Q 975 3050 978 2958 
Q 981 2866 981 2803 
L 991 2803 
Q 1066 2950 1153 3069 
Q 1241 3188 1358 3270 
Q 1475 3353 1626 3398 
Q 1778 3444 1978 3444 
Q 2363 3444 2586 3291 
Q 2809 3138 2897 2803 
L 2906 2803 
Q 2981 2950 3075 3069 
Q 3169 3188 3294 3270 
Q 3419 3353 3575 3398 
Q 3731 3444 3931 3444 
Q 4188 3444 4373 3375 
Q 4559 3306 4678 3162 
Q 4797 3019 4853 2792 
Q 4909 2566 4909 2253 
L 4909 0 
L 4353 0 
L 4353 2144 
Q 4353 2391 4322 2556 
Q 4291 2722 4217 2823 
Q 4144 2925 4025 2967 
Q 3906 3009 3734 3009 
Q 3556 3009 3412 2942 
Q 3269 2875 3167 2744 
Q 3066 2613 3011 2416 
Q 2956 2219 2956 1959 
L 2956 0 
L 2400 0 
z
" transform="scale(0.015625)"/>
     <path id="LiberationSans-64" d="M 2566 544 
Q 2409 219 2151 78 
Q 1894 -63 1513 -63 
Q 872 -63 570 368 
Q 269 800 269 1675 
Q 269 3444 1513 3444 
Q 1897 3444 2153 3303 
Q 2409 3163 2566 2856 
L 2572 2856 
Q 2572 2888 2570 2955 
Q 2569 3022 2567 3095 
Q 2566 3169 2566 3234 
Q 2566 3300 2566 3328 
L 2566 4638 
L 3128 4638 
L 3128 697 
Q 3128 575 3129 462 
Q 3131 350 3134 256 
Q 3138 163 3141 95 
Q 3144 28 3147 0 
L 2609 0 
Q 2603 31 2598 89 
Q 2594 147 2589 222 
Q 2584 297 2581 380 
Q 2578 463 2578 544 
L 2566 544 
z
M 859 1694 
Q 859 1344 903 1094 
Q 947 844 1044 683 
Q 1141 522 1291 447 
Q 1441 372 1656 372 
Q 1878 372 2048 444 
Q 2219 516 2333 677 
Q 2447 838 2506 1097 
Q 2566 1356 2566 1731 
Q 2566 2091 2506 2339 
Q 2447 2588 2331 2741 
Q 2216 2894 2048 2961 
Q 1881 3028 1663 3028 
Q 1456 3028 1306 2956 
Q 1156 2884 1056 2725 
Q 956 2566 907 2311 
Q 859 2056 859 1694 
z
" transform="scale(0.015625)"/>
     <path id="LiberationSans-65" d="M 863 1572 
Q 863 1306 917 1082 
Q 972 859 1086 698 
Q 1200 538 1378 448 
Q 1556 359 1806 359 
Q 2172 359 2392 506 
Q 2613 653 2691 878 
L 3184 738 
Q 3131 597 3036 455 
Q 2941 313 2781 198 
Q 2622 84 2383 10 
Q 2144 -63 1806 -63 
Q 1056 -63 664 384 
Q 272 831 272 1713 
Q 272 2188 390 2517 
Q 509 2847 715 3053 
Q 922 3259 1197 3351 
Q 1472 3444 1784 3444 
Q 2209 3444 2495 3306 
Q 2781 3169 2954 2926 
Q 3128 2684 3201 2356 
Q 3275 2028 3275 1647 
L 3275 1572 
L 863 1572 
z
M 2694 2003 
Q 2647 2538 2422 2783 
Q 2197 3028 1775 3028 
Q 1634 3028 1479 2983 
Q 1325 2938 1194 2822 
Q 1063 2706 972 2507 
Q 881 2309 869 2003 
L 2694 2003 
z
" transform="scale(0.015625)"/>
     <path id="LiberationSans-70" d="M 3291 1706 
Q 3291 1322 3228 997 
Q 3166 672 3020 437 
Q 2875 203 2636 70 
Q 2397 -63 2047 -63 
Q 1684 -63 1412 75 
Q 1141 213 997 525 
L 981 525 
Q 984 519 986 469 
Q 988 419 989 344 
Q 991 269 992 176 
Q 994 84 994 -6 
L 994 -1328 
L 431 -1328 
L 431 2691 
Q 431 2813 429 2925 
Q 428 3038 425 3130 
Q 422 3222 419 3287 
Q 416 3353 413 3381 
L 956 3381 
Q 959 3372 964 3315 
Q 969 3259 973 3179 
Q 978 3100 983 3009 
Q 988 2919 988 2838 
L 1000 2838 
Q 1078 3000 1178 3114 
Q 1278 3228 1406 3301 
Q 1534 3375 1692 3408 
Q 1850 3441 2047 3441 
Q 2397 3441 2636 3316 
Q 2875 3191 3020 2964 
Q 3166 2738 3228 2417 
Q 3291 2097 3291 1706 
z
M 2700 1694 
Q 2700 2006 2662 2250 
Q 2625 2494 2533 2662 
Q 2441 2831 2287 2918 
Q 2134 3006 1903 3006 
Q 1716 3006 1550 2953 
Q 1384 2900 1261 2750 
Q 1138 2600 1066 2336 
Q 994 2072 994 1650 
Q 994 1291 1053 1042 
Q 1113 794 1227 641 
Q 1341 488 1509 420 
Q 1678 353 1897 353 
Q 2131 353 2286 443 
Q 2441 534 2533 706 
Q 2625 878 2662 1126 
Q 2700 1375 2700 1694 
z
" transform="scale(0.015625)"/>
     <path id="LiberationSans-72" d="M 444 0 
L 444 2594 
Q 444 2700 442 2811 
Q 441 2922 437 3025 
Q 434 3128 431 3218 
Q 428 3309 425 3381 
L 956 3381 
Q 959 3309 964 3217 
Q 969 3125 973 3028 
Q 978 2931 979 2842 
Q 981 2753 981 2691 
L 994 2691 
Q 1053 2884 1120 3026 
Q 1188 3169 1278 3261 
Q 1369 3353 1494 3398 
Q 1619 3444 1797 3444 
Q 1866 3444 1928 3433 
Q 1991 3422 2025 3413 
L 2025 2897 
Q 1969 2913 1894 2920 
Q 1819 2928 1725 2928 
Q 1531 2928 1395 2840 
Q 1259 2753 1173 2598 
Q 1088 2444 1047 2230 
Q 1006 2016 1006 1763 
L 1006 0 
L 444 0 
z
" transform="scale(0.015625)"/>
     <path id="LiberationSans-6e" d="M 2578 0 
L 2578 2144 
Q 2578 2391 2542 2556 
Q 2506 2722 2425 2823 
Q 2344 2925 2211 2967 
Q 2078 3009 1881 3009 
Q 1681 3009 1520 2939 
Q 1359 2869 1245 2736 
Q 1131 2603 1068 2408 
Q 1006 2213 1006 1959 
L 1006 0 
L 444 0 
L 444 2659 
Q 444 2766 442 2883 
Q 441 3000 437 3104 
Q 434 3209 431 3284 
Q 428 3359 425 3381 
L 956 3381 
Q 959 3366 962 3297 
Q 966 3228 970 3139 
Q 975 3050 978 2958 
Q 981 2866 981 2803 
L 991 2803 
Q 1072 2950 1169 3069 
Q 1266 3188 1394 3270 
Q 1522 3353 1687 3398 
Q 1853 3444 2072 3444 
Q 2353 3444 2556 3375 
Q 2759 3306 2890 3162 
Q 3022 3019 3083 2792 
Q 3144 2566 3144 2253 
L 3144 0 
L 2578 0 
z
" transform="scale(0.015625)"/>
     <path id="LiberationSans-3a" d="M 584 2734 
L 584 3381 
L 1194 3381 
L 1194 2734 
L 584 2734 
z
M 584 0 
L 584 647 
L 1194 647 
L 1194 0 
L 584 0 
z
" transform="scale(0.015625)"/>
     <path id="LiberationSans-2c" d="M 1203 684 
L 1203 159 
Q 1203 -6 1189 -142 
Q 1175 -278 1144 -395 
Q 1113 -513 1067 -616 
Q 1022 -719 959 -819 
L 575 -819 
Q 716 -616 792 -409 
Q 869 -203 869 0 
L 594 0 
L 594 684 
L 1203 684 
z
" transform="scale(0.015625)"/>
     <path id="LiberationSans-68" d="M 991 2803 
Q 1084 2975 1193 3095 
Q 1303 3216 1434 3294 
Q 1566 3372 1722 3408 
Q 1878 3444 2072 3444 
Q 2397 3444 2605 3356 
Q 2813 3269 2933 3111 
Q 3053 2953 3098 2734 
Q 3144 2516 3144 2253 
L 3144 0 
L 2578 0 
L 2578 2144 
Q 2578 2359 2551 2521 
Q 2525 2684 2450 2792 
Q 2375 2900 2237 2954 
Q 2100 3009 1881 3009 
Q 1681 3009 1520 2937 
Q 1359 2866 1245 2734 
Q 1131 2603 1068 2415 
Q 1006 2228 1006 1994 
L 1006 0 
L 444 0 
L 444 4638 
L 1006 4638 
L 1006 3431 
Q 1006 3328 1003 3225 
Q 1000 3122 995 3034 
Q 991 2947 987 2886 
Q 984 2825 981 2803 
L 991 2803 
z
" transform="scale(0.015625)"/>
     <path id="LiberationSans-2d" d="M 284 1450 
L 284 1950 
L 1847 1950 
L 1847 1450 
L 284 1450 
z
" transform="scale(0.015625)"/>
     <path id="LiberationSans-62" d="M 3291 1706 
Q 3291 -63 2047 -63 
Q 1663 -63 1408 76 
Q 1153 216 994 525 
L 988 525 
Q 988 444 983 356 
Q 978 269 973 194 
Q 969 119 964 66 
Q 959 13 956 0 
L 413 0 
Q 416 28 419 95 
Q 422 163 425 256 
Q 428 350 429 462 
Q 431 575 431 697 
L 431 4638 
L 994 4638 
L 994 3316 
Q 994 3222 992 3136 
Q 991 3050 988 2984 
Q 984 2906 981 2838 
L 994 2838 
Q 1150 3163 1408 3303 
Q 1666 3444 2047 3444 
Q 2688 3444 2989 3012 
Q 3291 2581 3291 1706 
z
M 2700 1688 
Q 2700 2038 2656 2288 
Q 2613 2538 2516 2698 
Q 2419 2859 2269 2934 
Q 2119 3009 1903 3009 
Q 1681 3009 1511 2937 
Q 1341 2866 1227 2706 
Q 1113 2547 1053 2287 
Q 994 2028 994 1653 
Q 994 1291 1053 1044 
Q 1113 797 1227 642 
Q 1341 488 1509 420 
Q 1678 353 1897 353 
Q 2103 353 2253 425 
Q 2403 497 2503 656 
Q 2603 816 2651 1070 
Q 2700 1325 2700 1688 
z
" transform="scale(0.015625)"/>
     <path id="LiberationSans-2f" d="M 0 -63 
L 1284 4638 
L 1778 4638 
L 506 -63 
L 0 -63 
z
" transform="scale(0.015625)"/>
    </defs>
    <use xlink:href="#LiberationSans-50"/>
    <use xlink:href="#LiberationSans-6c" x="66.699219"/>
    <use xlink:href="#LiberationSans-6f" x="88.916016"/>
    <use xlink:href="#LiberationSans-74" x="144.53125"/>
    <use xlink:href="#LiberationSans-73" x="172.314453"/>
    <use xlink:href="#LiberationSans-20" x="222.314453"/>
    <use xlink:href="#LiberationSans-6f" x="250.097656"/>
    <use xlink:href="#LiberationSans-66" x="305.712891"/>
    <use xlink:href="#LiberationSans-20" x="333.496094"/>
    <use xlink:href="#LiberationSans-6d" x="361.279297"/>
    <use xlink:href="#LiberationSans-6f" x="444.580078"/>
    <use xlink:href="#LiberationSans-64" x="500.195312"/>
    <use xlink:href="#LiberationSans-65" x="555.810547"/>
    <use xlink:href="#LiberationSans-6c" x="611.425781"/>
    <use xlink:href="#LiberationSans-20" x="633.642578"/>
    <use xlink:href="#LiberationSans-70" x="661.425781"/>
    <use xlink:href="#LiberationSans-65" x="717.041016"/>
    <use xlink:href="#LiberationSans-72" x="772.65625"/>
    <use xlink:href="#LiberationSans-66" x="805.957031"/>
    <use xlink:href="#LiberationSans-6f" x="833.740234"/>
    <use xlink:href="#LiberationSans-72" x="889.355469"/>
    <use xlink:href="#LiberationSans-6d" x="922.65625"/>
    <use xlink:href="#LiberationSans-61" x="1005.957031"/>
    <use xlink:href="#LiberationSans-6e" x="1061.572266"/>
    <use xlink:href="#LiberationSans-63" x="1117.1875"/>
    <use xlink:href="#LiberationSans-65" x="1167.1875"/>
    <use xlink:href="#LiberationSans-3a" x="1222.802734"/>
    <use xlink:href="#LiberationSans-20" x="1250.585938"/>
    <use xlink:href="#LiberationSans-6d" x="1278.369141"/>
    <use xlink:href="#LiberationSans-66" x="1361.669922"/>
    <use xlink:href="#LiberationSans-63" x="1389.453125"/>
    <use xlink:href="#LiberationSans-63" x="1439.453125"/>
    <use xlink:href="#LiberationSans-2c" x="1489.453125"/>
    <use xlink:href="#LiberationSans-20" x="1517.236328"/>
    <use xlink:href="#LiberationSans-73" x="1545.019531"/>
    <use xlink:href="#LiberationSans-68" x="1595.019531"/>
    <use xlink:href="#LiberationSans-6f" x="1650.634766"/>
    <use xlink:href="#LiberationSans-6e" x="1706.25"/>
    <use xlink:href="#LiberationSans-31" x="1761.865234"/>
    <use xlink:href="#LiberationSans-38" x="1817.480469"/>
    <use xlink:href="#LiberationSans-20" x="1873.095703"/>
    <use xlink:href="#LiberationSans-2d" x="1900.878906"/>
    <use xlink:href="#LiberationSans-20" x="1934.179688"/>
    <use xlink:href="#LiberationSans-6c" x="1961.962891"/>
    <use xlink:href="#LiberationSans-72" x="1984.179688"/>
    <use xlink:href="#LiberationSans-20" x="2017.480469"/>
    <use xlink:href="#LiberationSans-30" x="2045.263672"/>
    <use xlink:href="#LiberationSans-2e" x="2100.878906"/>
    <use xlink:href="#LiberationSans-30" x="2128.662109"/>
    <use xlink:href="#LiberationSans-30" x="2184.277344"/>
    <use xlink:href="#LiberationSans-30" x="2239.892578"/>
    <use xlink:href="#LiberationSans-31" x="2295.507812"/>
    <use xlink:href="#LiberationSans-2c" x="2351.123047"/>
    <use xlink:href="#LiberationSans-20" x="2378.90625"/>
    <use xlink:href="#LiberationSans-62" x="2406.689453"/>
    <use xlink:href="#LiberationSans-61" x="2462.304688"/>
    <use xlink:href="#LiberationSans-74" x="2517.919922"/>
    <use xlink:href="#LiberationSans-63" x="2545.703125"/>
    <use xlink:href="#LiberationSans-68" x="2595.703125"/>
    <use xlink:href="#LiberationSans-20" x="2651.318359"/>
    <use xlink:href="#LiberationSans-33" x="2679.101562"/>
    <use xlink:href="#LiberationSans-32" x="2734.716797"/>
    <use xlink:href="#LiberationSans-2c" x="2790.332031"/>
    <use xlink:href="#LiberationSans-20" x="2818.115234"/>
    <use xlink:href="#LiberationSans-31" x="2845.898438"/>
    <use xlink:href="#LiberationSans-32" x="2901.513672"/>
    <use xlink:href="#LiberationSans-38" x="2957.128906"/>
    <use xlink:href="#LiberationSans-20" x="3012.744141"/>
    <use xlink:href="#LiberationSans-73" x="3040.527344"/>
    <use xlink:href="#LiberationSans-74" x="3090.527344"/>
    <use xlink:href="#LiberationSans-65" x="3118.310547"/>
    <use xlink:href="#LiberationSans-70" x="3173.925781"/>
    <use xlink:href="#LiberationSans-73" x="3229.541016"/>
    <use xlink:href="#LiberationSans-2f" x="3279.541016"/>
    <use xlink:href="#LiberationSans-65" x="3307.324219"/>
    <use xlink:href="#LiberationSans-70" x="3362.939453"/>
    <use xlink:href="#LiberationSans-6f" x="3418.554688"/>
    <use xlink:href="#LiberationSans-63" x="3474.169922"/>
    <use xlink:href="#LiberationSans-68" x="3524.169922"/>
   </g>
  </g>
 </g>
 <defs>
  <clipPath id="p995558371c">
   <rect x="108" y="77.76" width="669.6" height="226.8"/>
  </clipPath>
  <clipPath id="p3881d1a647">
   <rect x="108" y="349.92" width="669.6" height="226.8"/>
  </clipPath>
 </defs>
</svg>
