<?xml version="1.0" encoding="utf-8" standalone="no"?>
<!DOCTYPE svg PUBLIC "-//W3C//DTD SVG 1.1//EN"
  "http://www.w3.org/Graphics/SVG/1.1/DTD/svg11.dtd">
<svg xmlns:xlink="http://www.w3.org/1999/xlink" width="1152pt" height="864pt" viewBox="0 0 1152 864" xmlns="http://www.w3.org/2000/svg" version="1.1">
 <metadata>
  <rdf:RDF xmlns:dc="http://purl.org/dc/elements/1.1/" xmlns:cc="http://creativecommons.org/ns#" xmlns:rdf="http://www.w3.org/1999/02/22-rdf-syntax-ns#">
   <cc:Work>
    <dc:type rdf:resource="http://purl.org/dc/dcmitype/StillImage"/>
    <dc:date>2022-03-12T22:27:30.283964</dc:date>
    <dc:format>image/svg+xml</dc:format>
    <dc:creator>
     <cc:Agent>
      <dc:title>Matplotlib v3.5.0, https://matplotlib.org/</dc:title>
     </cc:Agent>
    </dc:creator>
   </cc:Work>
  </rdf:RDF>
 </metadata>
 <defs>
  <style type="text/css">*{stroke-linejoin: round; stroke-linecap: butt}</style>
 </defs>
 <g id="figure_1">
  <g id="patch_1">
   <path d="M 0 864 
L 1152 864 
L 1152 0 
L 0 0 
z
" style="fill: #ffffff"/>
  </g>
  <g id="axes_1">
   <g id="patch_2">
    <path d="M 144 406.08 
L 1036.8 406.08 
L 1036.8 103.68 
L 144 103.68 
z
" style="fill: #eaeaf2"/>
   </g>
   <g id="matplotlib.axis_1">
    <g id="xtick_1">
     <g id="line2d_1"/>
     <g id="text_1">
      <!-- 0 -->
      <g style="fill: #262626" transform="translate(181.801349 420.326875)scale(0.1 -0.1)">
       <defs>
        <path id="LiberationSans-30" d="M 3309 2203 
Q 3309 1569 3189 1136 
Q 3069 703 2861 436 
Q 2653 169 2372 53 
Q 2091 -63 1772 -63 
Q 1450 -63 1172 53 
Q 894 169 689 434 
Q 484 700 367 1133 
Q 250 1566 250 2203 
Q 250 2869 367 3305 
Q 484 3741 690 4000 
Q 897 4259 1178 4364 
Q 1459 4469 1791 4469 
Q 2106 4469 2382 4364 
Q 2659 4259 2865 4000 
Q 3072 3741 3190 3305 
Q 3309 2869 3309 2203 
z
M 2738 2203 
Q 2738 2728 2675 3076 
Q 2613 3425 2491 3633 
Q 2369 3841 2192 3927 
Q 2016 4013 1791 4013 
Q 1553 4013 1372 3925 
Q 1191 3838 1067 3630 
Q 944 3422 881 3073 
Q 819 2725 819 2203 
Q 819 1697 883 1350 
Q 947 1003 1070 792 
Q 1194 581 1372 489 
Q 1550 397 1778 397 
Q 2000 397 2178 489 
Q 2356 581 2479 792 
Q 2603 1003 2670 1350 
Q 2738 1697 2738 2203 
z
" transform="scale(0.015625)"/>
       </defs>
       <use xlink:href="#LiberationSans-30"/>
      </g>
     </g>
    </g>
    <g id="xtick_2">
     <g id="line2d_2"/>
     <g id="text_2">
      <!-- 25 -->
      <g style="fill: #262626" transform="translate(280.985248 420.326875)scale(0.1 -0.1)">
       <defs>
        <path id="LiberationSans-32" d="M 322 0 
L 322 397 
Q 481 763 711 1042 
Q 941 1322 1194 1548 
Q 1447 1775 1695 1969 
Q 1944 2163 2144 2356 
Q 2344 2550 2467 2762 
Q 2591 2975 2591 3244 
Q 2591 3431 2534 3573 
Q 2478 3716 2372 3812 
Q 2266 3909 2117 3957 
Q 1969 4006 1788 4006 
Q 1619 4006 1470 3959 
Q 1322 3913 1206 3819 
Q 1091 3725 1017 3586 
Q 944 3447 922 3263 
L 347 3316 
Q 375 3553 478 3762 
Q 581 3972 762 4130 
Q 944 4288 1198 4378 
Q 1453 4469 1788 4469 
Q 2116 4469 2372 4391 
Q 2628 4313 2804 4159 
Q 2981 4006 3075 3781 
Q 3169 3556 3169 3263 
Q 3169 3041 3089 2841 
Q 3009 2641 2876 2459 
Q 2744 2278 2569 2109 
Q 2394 1941 2203 1780 
Q 2013 1619 1819 1461 
Q 1625 1303 1454 1143 
Q 1284 984 1150 820 
Q 1016 656 941 478 
L 3238 478 
L 3238 0 
L 322 0 
z
" transform="scale(0.015625)"/>
        <path id="LiberationSans-35" d="M 3291 1434 
Q 3291 1103 3191 828 
Q 3091 553 2894 354 
Q 2697 156 2405 46 
Q 2113 -63 1728 -63 
Q 1381 -63 1123 18 
Q 866 100 687 242 
Q 509 384 404 575 
Q 300 766 256 984 
L 825 1050 
Q 859 925 921 808 
Q 984 691 1092 598 
Q 1200 506 1358 451 
Q 1516 397 1741 397 
Q 1959 397 2137 464 
Q 2316 531 2442 662 
Q 2569 794 2637 984 
Q 2706 1175 2706 1422 
Q 2706 1625 2640 1795 
Q 2575 1966 2453 2089 
Q 2331 2213 2154 2281 
Q 1978 2350 1753 2350 
Q 1613 2350 1494 2325 
Q 1375 2300 1273 2256 
Q 1172 2213 1089 2155 
Q 1006 2097 934 2034 
L 384 2034 
L 531 4403 
L 3034 4403 
L 3034 3925 
L 1044 3925 
L 959 2528 
Q 1109 2644 1334 2726 
Q 1559 2809 1869 2809 
Q 2197 2809 2459 2709 
Q 2722 2609 2906 2426 
Q 3091 2244 3191 1991 
Q 3291 1738 3291 1434 
z
" transform="scale(0.015625)"/>
       </defs>
       <use xlink:href="#LiberationSans-32"/>
       <use xlink:href="#LiberationSans-35" x="55.615234"/>
      </g>
     </g>
    </g>
    <g id="xtick_3">
     <g id="line2d_3"/>
     <g id="text_3">
      <!-- 50 -->
      <g style="fill: #262626" transform="translate(382.949615 420.326875)scale(0.1 -0.1)">
       <use xlink:href="#LiberationSans-35"/>
       <use xlink:href="#LiberationSans-30" x="55.615234"/>
      </g>
     </g>
    </g>
    <g id="xtick_4">
     <g id="line2d_4"/>
     <g id="text_4">
      <!-- 75 -->
      <g style="fill: #262626" transform="translate(484.913983 420.326875)scale(0.1 -0.1)">
       <defs>
        <path id="LiberationSans-37" d="M 3238 3947 
Q 2906 3441 2628 2973 
Q 2350 2506 2150 2032 
Q 1950 1559 1839 1061 
Q 1728 563 1728 0 
L 1141 0 
Q 1141 528 1266 1036 
Q 1391 1544 1603 2033 
Q 1816 2522 2097 2994 
Q 2378 3466 2694 3925 
L 328 3925 
L 328 4403 
L 3238 4403 
L 3238 3947 
z
" transform="scale(0.015625)"/>
       </defs>
       <use xlink:href="#LiberationSans-37"/>
       <use xlink:href="#LiberationSans-35" x="55.615234"/>
      </g>
     </g>
    </g>
    <g id="xtick_5">
     <g id="line2d_5"/>
     <g id="text_5">
      <!-- 100 -->
      <g style="fill: #262626" transform="translate(584.097881 420.326875)scale(0.1 -0.1)">
       <defs>
        <path id="LiberationSans-31" d="M 488 0 
L 488 478 
L 1609 478 
L 1609 3866 
L 616 3156 
L 616 3688 
L 1656 4403 
L 2175 4403 
L 2175 478 
L 3247 478 
L 3247 0 
L 488 0 
z
" transform="scale(0.015625)"/>
       </defs>
       <use xlink:href="#LiberationSans-31"/>
       <use xlink:href="#LiberationSans-30" x="55.615234"/>
       <use xlink:href="#LiberationSans-30" x="111.230469"/>
      </g>
     </g>
    </g>
    <g id="xtick_6">
     <g id="line2d_6"/>
     <g id="text_6">
      <!-- 125 -->
      <g style="fill: #262626" transform="translate(686.062248 420.326875)scale(0.1 -0.1)">
       <use xlink:href="#LiberationSans-31"/>
       <use xlink:href="#LiberationSans-32" x="55.615234"/>
       <use xlink:href="#LiberationSans-35" x="111.230469"/>
      </g>
     </g>
    </g>
    <g id="xtick_7">
     <g id="line2d_7"/>
     <g id="text_7">
      <!-- 150 -->
      <g style="fill: #262626" transform="translate(788.026616 420.326875)scale(0.1 -0.1)">
       <use xlink:href="#LiberationSans-31"/>
       <use xlink:href="#LiberationSans-35" x="55.615234"/>
       <use xlink:href="#LiberationSans-30" x="111.230469"/>
      </g>
     </g>
    </g>
    <g id="xtick_8">
     <g id="line2d_8"/>
     <g id="text_8">
      <!-- 175 -->
      <g style="fill: #262626" transform="translate(889.990983 420.326875)scale(0.1 -0.1)">
       <use xlink:href="#LiberationSans-31"/>
       <use xlink:href="#LiberationSans-37" x="55.615234"/>
       <use xlink:href="#LiberationSans-35" x="111.230469"/>
      </g>
     </g>
    </g>
    <g id="xtick_9">
     <g id="line2d_9"/>
     <g id="text_9">
      <!-- 200 -->
      <g style="fill: #262626" transform="translate(991.95535 420.326875)scale(0.1 -0.1)">
       <use xlink:href="#LiberationSans-32"/>
       <use xlink:href="#LiberationSans-30" x="55.615234"/>
       <use xlink:href="#LiberationSans-30" x="111.230469"/>
      </g>
     </g>
    </g>
   </g>
   <g id="matplotlib.axis_2">
    <g id="ytick_1">
     <g id="line2d_10"/>
     <g id="text_10">
      <!-- 1.00 -->
      <g style="fill: #262626" transform="translate(117.539062 384.783589)scale(0.1 -0.1)">
       <defs>
        <path id="LiberationSans-2e" d="M 584 0 
L 584 684 
L 1194 684 
L 1194 0 
L 584 0 
z
" transform="scale(0.015625)"/>
       </defs>
       <use xlink:href="#LiberationSans-31"/>
       <use xlink:href="#LiberationSans-2e" x="55.615234"/>
       <use xlink:href="#LiberationSans-30" x="83.398438"/>
       <use xlink:href="#LiberationSans-30" x="139.013672"/>
      </g>
     </g>
    </g>
    <g id="ytick_2">
     <g id="line2d_11"/>
     <g id="text_11">
      <!-- 1.25 -->
      <g style="fill: #262626" transform="translate(117.539062 343.095265)scale(0.1 -0.1)">
       <use xlink:href="#LiberationSans-31"/>
       <use xlink:href="#LiberationSans-2e" x="55.615234"/>
       <use xlink:href="#LiberationSans-32" x="83.398438"/>
       <use xlink:href="#LiberationSans-35" x="139.013672"/>
      </g>
     </g>
    </g>
    <g id="ytick_3">
     <g id="line2d_12"/>
     <g id="text_12">
      <!-- 1.50 -->
      <g style="fill: #262626" transform="translate(117.539062 301.406941)scale(0.1 -0.1)">
       <use xlink:href="#LiberationSans-31"/>
       <use xlink:href="#LiberationSans-2e" x="55.615234"/>
       <use xlink:href="#LiberationSans-35" x="83.398438"/>
       <use xlink:href="#LiberationSans-30" x="139.013672"/>
      </g>
     </g>
    </g>
    <g id="ytick_4">
     <g id="line2d_13"/>
     <g id="text_13">
      <!-- 1.75 -->
      <g style="fill: #262626" transform="translate(117.539062 259.718618)scale(0.1 -0.1)">
       <use xlink:href="#LiberationSans-31"/>
       <use xlink:href="#LiberationSans-2e" x="55.615234"/>
       <use xlink:href="#LiberationSans-37" x="83.398438"/>
       <use xlink:href="#LiberationSans-35" x="139.013672"/>
      </g>
     </g>
    </g>
    <g id="ytick_5">
     <g id="line2d_14"/>
     <g id="text_14">
      <!-- 2.00 -->
      <g style="fill: #262626" transform="translate(117.539062 218.030294)scale(0.1 -0.1)">
       <use xlink:href="#LiberationSans-32"/>
       <use xlink:href="#LiberationSans-2e" x="55.615234"/>
       <use xlink:href="#LiberationSans-30" x="83.398438"/>
       <use xlink:href="#LiberationSans-30" x="139.013672"/>
      </g>
     </g>
    </g>
    <g id="ytick_6">
     <g id="line2d_15"/>
     <g id="text_15">
      <!-- 2.25 -->
      <g style="fill: #262626" transform="translate(117.539062 176.34197)scale(0.1 -0.1)">
       <use xlink:href="#LiberationSans-32"/>
       <use xlink:href="#LiberationSans-2e" x="55.615234"/>
       <use xlink:href="#LiberationSans-32" x="83.398438"/>
       <use xlink:href="#LiberationSans-35" x="139.013672"/>
      </g>
     </g>
    </g>
    <g id="ytick_7">
     <g id="line2d_16"/>
     <g id="text_16">
      <!-- 2.50 -->
      <g style="fill: #262626" transform="translate(117.539062 134.653647)scale(0.1 -0.1)">
       <use xlink:href="#LiberationSans-32"/>
       <use xlink:href="#LiberationSans-2e" x="55.615234"/>
       <use xlink:href="#LiberationSans-35" x="83.398438"/>
       <use xlink:href="#LiberationSans-30" x="139.013672"/>
      </g>
     </g>
    </g>
   </g>
   <g id="line2d_17">
    <path d="M 184.581818 117.425455 
L 188.660393 164.405009 
L 192.738968 165.415554 
L 196.817542 166.792223 
L 200.896117 177.711943 
L 204.974692 172.437053 
L 209.053266 197.233148 
L 213.131841 187.830518 
L 217.210416 188.436973 
L 221.28899 195.382257 
L 225.367565 201.576053 
L 229.44614 211.392196 
L 233.524714 218.383042 
L 237.603289 224.048108 
L 241.681864 214.976138 
L 245.760439 239.028438 
L 249.839013 227.831969 
L 253.917588 224.741452 
L 257.996163 244.203459 
L 262.074737 223.197207 
L 266.153312 237.15425 
L 270.231887 234.509151 
L 274.310461 255.119263 
L 278.389036 245.904108 
L 282.467611 249.781954 
L 286.546185 252.303825 
L 290.62476 253.924205 
L 294.703335 251.286223 
L 298.78191 258.194394 
L 302.860484 254.457626 
L 306.939059 267.169834 
L 311.017634 276.899824 
L 315.096208 280.378032 
L 319.174783 263.469861 
L 323.253358 251.929075 
L 327.331932 254.723919 
L 331.410507 269.237838 
L 335.489082 257.455906 
L 339.567656 266.657445 
L 343.646231 278.480009 
L 347.724806 286.621862 
L 351.803381 276.180022 
L 355.881955 268.855693 
L 359.96053 264.426396 
L 364.039105 277.327272 
L 368.117679 289.684668 
L 372.196254 278.935784 
L 376.274829 285.388299 
L 380.353403 278.494679 
L 384.431978 291.27018 
L 388.510553 277.617777 
L 392.589127 302.111758 
L 396.667702 272.05421 
L 400.746277 287.06887 
L 404.824852 296.700779 
L 408.903426 311.91671 
L 412.982001 289.014622 
L 417.060576 305.480893 
L 421.13915 308.088023 
L 425.217725 306.217075 
L 429.2963 292.814564 
L 433.374874 305.544743 
L 437.453449 294.688872 
L 441.532024 308.571191 
L 445.610598 308.837901 
L 449.689173 295.7317 
L 453.767748 293.621613 
L 457.846323 292.277804 
L 461.924897 310.185527 
L 466.003472 314.593037 
L 470.082047 311.71216 
L 474.160621 306.813113 
L 478.239196 298.504479 
L 482.317771 324.084882 
L 486.396345 303.814037 
L 490.47492 313.501487 
L 494.553495 310.400335 
L 498.632069 312.857382 
L 502.710644 330.545746 
L 506.789219 301.920169 
L 510.867794 329.609387 
L 514.946368 329.177188 
L 519.024943 318.006422 
L 523.103518 319.788453 
L 527.182092 324.542088 
L 531.260667 314.178212 
L 535.339242 314.799118 
L 539.417816 319.288587 
L 543.496391 325.028318 
L 547.574966 325.047182 
L 551.65354 318.142291 
L 555.732115 311.477295 
L 559.81069 327.423066 
L 563.889265 330.681079 
L 567.967839 329.973423 
L 572.046414 336.859648 
L 576.124989 323.636402 
L 580.203563 341.4763 
L 584.282138 349.466381 
L 588.360713 353.995567 
L 592.439287 319.643181 
L 596.517862 333.106679 
L 600.596437 335.314588 
L 604.675011 329.324269 
L 608.753586 331.360031 
L 612.832161 342.852651 
L 616.910735 344.743756 
L 620.98931 343.644234 
L 625.067885 345.579211 
L 629.14646 338.145889 
L 637.303609 345.181621 
L 641.382184 342.828955 
L 645.460758 336.722466 
L 649.539333 336.675235 
L 653.617908 339.426127 
L 657.696482 348.216656 
L 661.775057 345.551242 
L 665.853632 352.990449 
L 669.932206 342.359365 
L 674.010781 345.262347 
L 678.089356 331.369553 
L 682.167931 353.577979 
L 686.246505 348.188946 
L 690.32508 339.921858 
L 694.403655 338.948604 
L 698.482229 344.598921 
L 702.560804 356.843765 
L 706.639379 352.807467 
L 710.717953 349.384024 
L 714.796528 359.962012 
L 718.875103 347.007087 
L 722.953677 349.899713 
L 727.032252 346.177595 
L 731.110827 352.830645 
L 735.189402 347.683574 
L 739.267976 357.735894 
L 743.346551 362.614704 
L 747.425126 356.260369 
L 751.5037 365.648209 
L 755.582275 355.191778 
L 759.66085 360.228663 
L 763.739424 357.863574 
L 767.817999 344.259892 
L 771.896574 351.325501 
L 775.975148 355.894226 
L 780.053723 362.954508 
L 784.132298 354.843566 
L 788.210873 356.21445 
L 792.289447 375.439962 
L 796.368022 355.866019 
L 800.446597 368.602519 
L 804.525171 354.886007 
L 808.603746 366.661498 
L 812.682321 360.109909 
L 816.760895 362.641182 
L 820.83947 364.585463 
L 824.918045 357.915556 
L 828.996619 376.00332 
L 833.075194 358.184036 
L 837.153769 369.792289 
L 841.232344 381.99346 
L 845.310918 367.018497 
L 849.389493 349.880093 
L 853.468068 368.813967 
L 857.546642 360.832533 
L 861.625217 365.099403 
L 865.703792 361.49916 
L 869.782366 371.015893 
L 873.860941 373.454374 
L 877.939516 361.229289 
L 882.01809 368.826609 
L 886.096665 364.979654 
L 890.17524 382.24225 
L 894.253815 368.575007 
L 898.332389 373.151345 
L 902.410964 363.069406 
L 906.489539 356.783175 
L 910.568113 363.783403 
L 914.646688 365.616861 
L 918.725263 377.822226 
L 922.803837 373.089463 
L 926.882412 379.363847 
L 930.960987 372.501436 
L 935.039561 369.1783 
L 939.118136 379.586625 
L 943.196711 367.670453 
L 947.275286 372.176223 
L 951.35386 348.961824 
L 955.432435 369.759231 
L 959.51101 380.026756 
L 963.589584 359.859339 
L 967.668159 363.640854 
L 971.746734 389.173649 
L 975.825308 392.334545 
L 979.903883 371.802646 
L 983.982458 376.020196 
L 988.061032 372.112214 
L 992.139607 365.725139 
L 996.218182 387.968005 
L 996.218182 387.968005 
" clip-path="url(#p5afec6a6b5)" style="fill: none; stroke: #ff0000; stroke-width: 1.75; stroke-linecap: round"/>
   </g>
   <g id="line2d_18">
    <path d="M 184.581818 157.720571 
L 188.660393 167.117118 
L 192.738968 173.104177 
L 196.817542 175.610901 
L 200.896117 179.048497 
L 204.974692 189.877571 
L 209.053266 195.259368 
L 213.131841 200.344657 
L 217.210416 206.532171 
L 221.28899 214.379106 
L 225.367565 216.914316 
L 229.44614 224.571709 
L 233.524714 228.084884 
L 237.603289 230.686885 
L 241.681864 232.779102 
L 245.760439 237.426725 
L 253.917588 243.112226 
L 257.996163 240.749841 
L 262.074737 246.312035 
L 266.153312 246.356444 
L 270.231887 250.19173 
L 274.310461 251.746212 
L 278.389036 255.301947 
L 282.467611 256.226379 
L 286.546185 257.03458 
L 290.62476 260.513703 
L 294.703335 262.739682 
L 298.78191 265.140414 
L 302.860484 266.170063 
L 306.939059 264.606436 
L 311.017634 266.528791 
L 315.096208 268.255997 
L 319.174783 266.02968 
L 323.253358 274.302752 
L 327.331932 274.254029 
L 331.410507 273.112603 
L 335.489082 276.23753 
L 339.567656 278.512172 
L 343.646231 280.394074 
L 347.724806 283.310454 
L 351.803381 283.823102 
L 355.881955 283.076106 
L 359.96053 288.334219 
L 364.039105 289.12302 
L 368.117679 286.305475 
L 372.196254 284.838677 
L 376.274829 293.469721 
L 380.353403 295.303676 
L 384.431978 283.485087 
L 388.510553 295.157886 
L 392.589127 298.01163 
L 396.667702 298.407153 
L 400.746277 285.91667 
L 404.824852 302.360001 
L 408.903426 303.714326 
L 412.982001 303.963265 
L 417.060576 299.888562 
L 421.13915 302.90368 
L 425.217725 306.12945 
L 429.2963 305.906969 
L 433.374874 305.188996 
L 437.453449 302.427429 
L 441.532024 310.207433 
L 445.610598 312.496805 
L 449.689173 306.763556 
L 453.767748 313.448073 
L 461.924897 311.921222 
L 466.003472 304.976296 
L 470.082047 318.771268 
L 474.160621 313.827415 
L 478.239196 320.505592 
L 486.396345 318.591666 
L 490.47492 313.788533 
L 494.553495 315.161623 
L 498.632069 321.707349 
L 502.710644 326.484302 
L 506.789219 324.137421 
L 510.867794 327.222491 
L 514.946368 328.107762 
L 519.024943 315.845445 
L 523.103518 323.634931 
L 527.182092 325.940305 
L 531.260667 326.549622 
L 535.339242 332.970769 
L 539.417816 332.563776 
L 543.496391 331.725378 
L 547.574966 331.997734 
L 551.65354 335.220304 
L 555.732115 333.778335 
L 559.81069 331.654551 
L 563.889265 334.713879 
L 567.967839 324.824344 
L 572.046414 329.382454 
L 576.124989 332.517658 
L 580.203563 337.641431 
L 584.282138 334.91014 
L 588.360713 328.306905 
L 592.439287 340.045085 
L 596.517862 342.005686 
L 600.596437 344.676745 
L 604.675011 338.852154 
L 608.753586 343.306458 
L 612.832161 345.909116 
L 616.910735 346.134797 
L 620.98931 345.867053 
L 625.067885 349.059566 
L 629.14646 345.090736 
L 633.225034 347.594975 
L 637.303609 348.638797 
L 641.382184 346.687201 
L 645.460758 346.517797 
L 649.539333 351.305663 
L 653.617908 347.753626 
L 657.696482 352.069158 
L 661.775057 350.05411 
L 665.853632 352.087466 
L 669.932206 352.452973 
L 674.010781 354.077069 
L 678.089356 352.9559 
L 682.167931 347.397323 
L 686.246505 344.845892 
L 690.32508 351.807417 
L 694.403655 352.786952 
L 698.482229 353.989763 
L 702.560804 350.113467 
L 706.639379 357.813818 
L 710.717953 357.030384 
L 714.796528 359.779348 
L 718.875103 360.749202 
L 722.953677 358.327658 
L 727.032252 361.907744 
L 731.110827 358.016996 
L 735.189402 359.67753 
L 739.267976 355.25199 
L 743.346551 358.261641 
L 747.425126 361.802308 
L 751.5037 362.704277 
L 755.582275 361.37472 
L 759.66085 363.106877 
L 763.739424 350.319588 
L 767.817999 363.192951 
L 771.896574 366.169703 
L 775.975148 366.816809 
L 780.053723 358.929759 
L 784.132298 359.228573 
L 788.210873 367.403087 
L 792.289447 357.487631 
L 796.368022 367.034082 
L 800.446597 365.621691 
L 804.525171 367.998688 
L 808.603746 364.614744 
L 812.682321 369.226983 
L 816.760895 364.792637 
L 820.83947 367.628112 
L 824.918045 370.141615 
L 828.996619 367.115087 
L 833.075194 368.253173 
L 837.153769 367.862918 
L 841.232344 370.251622 
L 845.310918 372.26345 
L 849.389493 373.081432 
L 853.468068 359.657771 
L 857.546642 362.629613 
L 861.625217 372.218346 
L 865.703792 370.862788 
L 869.782366 372.829353 
L 873.860941 376.522786 
L 877.939516 371.780282 
L 882.01809 372.735407 
L 886.096665 375.410402 
L 890.17524 369.310751 
L 894.253815 377.62185 
L 898.332389 377.260876 
L 902.410964 371.357048 
L 906.489539 378.844778 
L 910.568113 375.505939 
L 914.646688 370.52201 
L 918.725263 374.853068 
L 922.803837 377.993022 
L 926.882412 377.121905 
L 930.960987 376.419417 
L 935.039561 381.779646 
L 939.118136 372.740635 
L 943.196711 378.771208 
L 947.275286 382.948922 
L 951.35386 376.218962 
L 955.432435 372.454503 
L 959.51101 379.807297 
L 963.589584 381.818588 
L 967.668159 379.695639 
L 971.746734 381.358519 
L 975.825308 384.261204 
L 979.903883 385.247736 
L 983.982458 385.083668 
L 988.061032 372.765304 
L 992.139607 386.366202 
L 996.218182 378.36827 
L 996.218182 378.36827 
" clip-path="url(#p5afec6a6b5)" style="fill: none; stroke: #008000; stroke-width: 1.75; stroke-linecap: round"/>
   </g>
   <g id="patch_3">
    <path d="M 144 406.08 
L 144 103.68 
" style="fill: none"/>
   </g>
   <g id="patch_4">
    <path d="M 1036.8 406.08 
L 1036.8 103.68 
" style="fill: none"/>
   </g>
   <g id="patch_5">
    <path d="M 144 406.08 
L 1036.8 406.08 
" style="fill: none"/>
   </g>
   <g id="patch_6">
    <path d="M 144 103.68 
L 1036.8 103.68 
" style="fill: none"/>
   </g>
  </g>
  <g id="axes_2">
   <g id="patch_7">
    <path d="M 144 768.96 
L 1036.8 768.96 
L 1036.8 466.56 
L 144 466.56 
z
" style="fill: #eaeaf2"/>
   </g>
   <g id="matplotlib.axis_3">
    <g id="xtick_10">
     <g id="line2d_19"/>
     <g id="text_17">
      <!-- 0 -->
      <g style="fill: #262626" transform="translate(181.801349 783.206875)scale(0.1 -0.1)">
       <use xlink:href="#LiberationSans-30"/>
      </g>
     </g>
    </g>
    <g id="xtick_11">
     <g id="line2d_20"/>
     <g id="text_18">
      <!-- 25 -->
      <g style="fill: #262626" transform="translate(280.985248 783.206875)scale(0.1 -0.1)">
       <use xlink:href="#LiberationSans-32"/>
       <use xlink:href="#LiberationSans-35" x="55.615234"/>
      </g>
     </g>
    </g>
    <g id="xtick_12">
     <g id="line2d_21"/>
     <g id="text_19">
      <!-- 50 -->
      <g style="fill: #262626" transform="translate(382.949615 783.206875)scale(0.1 -0.1)">
       <use xlink:href="#LiberationSans-35"/>
       <use xlink:href="#LiberationSans-30" x="55.615234"/>
      </g>
     </g>
    </g>
    <g id="xtick_13">
     <g id="line2d_22"/>
     <g id="text_20">
      <!-- 75 -->
      <g style="fill: #262626" transform="translate(484.913983 783.206875)scale(0.1 -0.1)">
       <use xlink:href="#LiberationSans-37"/>
       <use xlink:href="#LiberationSans-35" x="55.615234"/>
      </g>
     </g>
    </g>
    <g id="xtick_14">
     <g id="line2d_23"/>
     <g id="text_21">
      <!-- 100 -->
      <g style="fill: #262626" transform="translate(584.097881 783.206875)scale(0.1 -0.1)">
       <use xlink:href="#LiberationSans-31"/>
       <use xlink:href="#LiberationSans-30" x="55.615234"/>
       <use xlink:href="#LiberationSans-30" x="111.230469"/>
      </g>
     </g>
    </g>
    <g id="xtick_15">
     <g id="line2d_24"/>
     <g id="text_22">
      <!-- 125 -->
      <g style="fill: #262626" transform="translate(686.062248 783.206875)scale(0.1 -0.1)">
       <use xlink:href="#LiberationSans-31"/>
       <use xlink:href="#LiberationSans-32" x="55.615234"/>
       <use xlink:href="#LiberationSans-35" x="111.230469"/>
      </g>
     </g>
    </g>
    <g id="xtick_16">
     <g id="line2d_25"/>
     <g id="text_23">
      <!-- 150 -->
      <g style="fill: #262626" transform="translate(788.026616 783.206875)scale(0.1 -0.1)">
       <use xlink:href="#LiberationSans-31"/>
       <use xlink:href="#LiberationSans-35" x="55.615234"/>
       <use xlink:href="#LiberationSans-30" x="111.230469"/>
      </g>
     </g>
    </g>
    <g id="xtick_17">
     <g id="line2d_26"/>
     <g id="text_24">
      <!-- 175 -->
      <g style="fill: #262626" transform="translate(889.990983 783.206875)scale(0.1 -0.1)">
       <use xlink:href="#LiberationSans-31"/>
       <use xlink:href="#LiberationSans-37" x="55.615234"/>
       <use xlink:href="#LiberationSans-35" x="111.230469"/>
      </g>
     </g>
    </g>
    <g id="xtick_18">
     <g id="line2d_27"/>
     <g id="text_25">
      <!-- 200 -->
      <g style="fill: #262626" transform="translate(991.95535 783.206875)scale(0.1 -0.1)">
       <use xlink:href="#LiberationSans-32"/>
       <use xlink:href="#LiberationSans-30" x="55.615234"/>
       <use xlink:href="#LiberationSans-30" x="111.230469"/>
      </g>
     </g>
    </g>
   </g>
   <g id="matplotlib.axis_4">
    <g id="ytick_8">
     <g id="line2d_28"/>
     <g id="text_26">
      <!-- 0.2 -->
      <g style="fill: #262626" transform="translate(123.1 735.666716)scale(0.1 -0.1)">
       <use xlink:href="#LiberationSans-30"/>
       <use xlink:href="#LiberationSans-2e" x="55.615234"/>
       <use xlink:href="#LiberationSans-32" x="83.398438"/>
      </g>
     </g>
    </g>
    <g id="ytick_9">
     <g id="line2d_29"/>
     <g id="text_27">
      <!-- 0.3 -->
      <g style="fill: #262626" transform="translate(123.1 685.24036)scale(0.1 -0.1)">
       <defs>
        <path id="LiberationSans-33" d="M 3278 1216 
Q 3278 913 3179 675 
Q 3081 438 2892 273 
Q 2703 109 2423 23 
Q 2144 -63 1784 -63 
Q 1375 -63 1095 39 
Q 816 141 634 308 
Q 453 475 362 689 
Q 272 903 244 1131 
L 825 1184 
Q 850 1009 917 865 
Q 984 722 1100 619 
Q 1216 516 1384 459 
Q 1553 403 1784 403 
Q 2209 403 2451 612 
Q 2694 822 2694 1234 
Q 2694 1478 2586 1626 
Q 2478 1775 2317 1858 
Q 2156 1941 1967 1969 
Q 1778 1997 1619 1997 
L 1300 1997 
L 1300 2484 
L 1606 2484 
Q 1766 2484 1937 2517 
Q 2109 2550 2251 2636 
Q 2394 2722 2486 2869 
Q 2578 3016 2578 3244 
Q 2578 3597 2370 3801 
Q 2163 4006 1753 4006 
Q 1381 4006 1151 3815 
Q 922 3625 884 3278 
L 319 3322 
Q 353 3613 478 3828 
Q 603 4044 795 4186 
Q 988 4328 1234 4398 
Q 1481 4469 1759 4469 
Q 2128 4469 2393 4376 
Q 2659 4284 2828 4126 
Q 2997 3969 3076 3756 
Q 3156 3544 3156 3303 
Q 3156 3109 3103 2940 
Q 3050 2772 2937 2637 
Q 2825 2503 2651 2406 
Q 2478 2309 2234 2259 
L 2234 2247 
Q 2500 2219 2697 2126 
Q 2894 2034 3022 1896 
Q 3150 1759 3214 1584 
Q 3278 1409 3278 1216 
z
" transform="scale(0.015625)"/>
       </defs>
       <use xlink:href="#LiberationSans-30"/>
       <use xlink:href="#LiberationSans-2e" x="55.615234"/>
       <use xlink:href="#LiberationSans-33" x="83.398438"/>
      </g>
     </g>
    </g>
    <g id="ytick_10">
     <g id="line2d_30"/>
     <g id="text_28">
      <!-- 0.4 -->
      <g style="fill: #262626" transform="translate(123.1 634.814004)scale(0.1 -0.1)">
       <defs>
        <path id="LiberationSans-34" d="M 2753 997 
L 2753 0 
L 2222 0 
L 2222 997 
L 147 997 
L 147 1434 
L 2163 4403 
L 2753 4403 
L 2753 1441 
L 3372 1441 
L 3372 997 
L 2753 997 
z
M 2222 3769 
Q 2216 3753 2191 3708 
Q 2166 3663 2134 3606 
Q 2103 3550 2070 3492 
Q 2038 3434 2013 3397 
L 884 1734 
Q 869 1709 839 1668 
Q 809 1628 778 1586 
Q 747 1544 715 1503 
Q 684 1463 666 1441 
L 2222 1441 
L 2222 3769 
z
" transform="scale(0.015625)"/>
       </defs>
       <use xlink:href="#LiberationSans-30"/>
       <use xlink:href="#LiberationSans-2e" x="55.615234"/>
       <use xlink:href="#LiberationSans-34" x="83.398438"/>
      </g>
     </g>
    </g>
    <g id="ytick_11">
     <g id="line2d_31"/>
     <g id="text_29">
      <!-- 0.5 -->
      <g style="fill: #262626" transform="translate(123.1 584.387648)scale(0.1 -0.1)">
       <use xlink:href="#LiberationSans-30"/>
       <use xlink:href="#LiberationSans-2e" x="55.615234"/>
       <use xlink:href="#LiberationSans-35" x="83.398438"/>
      </g>
     </g>
    </g>
    <g id="ytick_12">
     <g id="line2d_32"/>
     <g id="text_30">
      <!-- 0.6 -->
      <g style="fill: #262626" transform="translate(123.1 533.961292)scale(0.1 -0.1)">
       <defs>
        <path id="LiberationSans-36" d="M 3278 1441 
Q 3278 1109 3186 832 
Q 3094 556 2914 357 
Q 2734 159 2468 48 
Q 2203 -63 1856 -63 
Q 1472 -63 1184 84 
Q 897 231 706 507 
Q 516 784 420 1186 
Q 325 1588 325 2100 
Q 325 2688 433 3131 
Q 541 3575 744 3872 
Q 947 4169 1239 4319 
Q 1531 4469 1900 4469 
Q 2125 4469 2322 4422 
Q 2519 4375 2680 4270 
Q 2841 4166 2962 3994 
Q 3084 3822 3156 3572 
L 2619 3475 
Q 2531 3759 2339 3886 
Q 2147 4013 1894 4013 
Q 1663 4013 1475 3903 
Q 1288 3794 1156 3576 
Q 1025 3359 954 3031 
Q 884 2703 884 2266 
Q 1038 2550 1316 2698 
Q 1594 2847 1953 2847 
Q 2253 2847 2497 2750 
Q 2741 2653 2914 2470 
Q 3088 2288 3183 2027 
Q 3278 1766 3278 1441 
z
M 2706 1416 
Q 2706 1644 2650 1828 
Q 2594 2013 2481 2142 
Q 2369 2272 2203 2342 
Q 2038 2413 1819 2413 
Q 1666 2413 1509 2367 
Q 1353 2322 1226 2220 
Q 1100 2119 1020 1953 
Q 941 1788 941 1550 
Q 941 1306 1003 1095 
Q 1066 884 1183 728 
Q 1300 572 1465 481 
Q 1631 391 1838 391 
Q 2041 391 2202 461 
Q 2363 531 2475 664 
Q 2588 797 2647 987 
Q 2706 1178 2706 1416 
z
" transform="scale(0.015625)"/>
       </defs>
       <use xlink:href="#LiberationSans-30"/>
       <use xlink:href="#LiberationSans-2e" x="55.615234"/>
       <use xlink:href="#LiberationSans-36" x="83.398438"/>
      </g>
     </g>
    </g>
    <g id="ytick_13">
     <g id="line2d_33"/>
     <g id="text_31">
      <!-- 0.7 -->
      <g style="fill: #262626" transform="translate(123.1 483.534936)scale(0.1 -0.1)">
       <use xlink:href="#LiberationSans-30"/>
       <use xlink:href="#LiberationSans-2e" x="55.615234"/>
       <use xlink:href="#LiberationSans-37" x="83.398438"/>
      </g>
     </g>
    </g>
   </g>
   <g id="line2d_34">
    <path d="M 184.581818 731.452344 
L 188.660393 737.361683 
L 192.738968 733.422124 
L 196.817542 734.407013 
L 200.896117 709.784769 
L 204.974692 726.527895 
L 209.053266 704.860321 
L 217.210416 693.041643 
L 221.28899 684.177636 
L 225.367565 693.041643 
L 229.44614 686.147415 
L 233.524714 660.540281 
L 237.603289 654.630943 
L 241.681864 660.540281 
L 245.760439 640.842486 
L 249.839013 660.540281 
L 253.917588 656.600722 
L 257.996163 641.827376 
L 262.074737 641.827376 
L 266.153312 630.008699 
L 270.231887 636.902927 
L 274.310461 629.023809 
L 278.389036 624.09936 
L 282.467611 636.902927 
L 286.546185 639.857596 
L 290.62476 616.220242 
L 294.703335 625.08425 
L 298.78191 609.326014 
L 302.860484 625.08425 
L 306.939059 595.537557 
L 311.017634 601.446895 
L 315.096208 595.537557 
L 319.174783 619.174911 
L 323.253358 634.933147 
L 327.331932 626.069139 
L 331.410507 609.326014 
L 335.489082 625.08425 
L 339.567656 619.174911 
L 343.646231 590.613108 
L 347.724806 614.250462 
L 351.803381 589.628218 
L 355.881955 614.250462 
L 364.039105 594.552667 
L 368.117679 583.71888 
L 372.196254 592.582888 
L 376.274829 576.824651 
L 380.353403 586.673549 
L 384.431978 594.552667 
L 388.510553 606.371344 
L 392.589127 571.900203 
L 396.667702 613.265573 
L 400.746277 595.537557 
L 404.824852 583.71888 
L 408.903426 569.930423 
L 412.982001 591.597998 
L 417.060576 556.141966 
L 421.13915 577.809541 
L 425.217725 573.869982 
L 429.2963 582.73399 
L 433.374874 565.990864 
L 437.453449 578.794431 
L 441.532024 571.900203 
L 445.610598 560.081525 
L 449.689173 588.643328 
L 453.767748 590.613108 
L 457.846323 588.643328 
L 461.924897 565.990864 
L 466.003472 559.096636 
L 470.082047 564.021084 
L 474.160621 574.854872 
L 478.239196 570.915313 
L 482.317771 562.051305 
L 486.396345 570.915313 
L 494.553495 565.005974 
L 498.632069 558.111746 
L 502.710644 544.323289 
L 506.789219 572.885092 
L 510.867794 544.323289 
L 514.946368 548.262848 
L 519.024943 561.066415 
L 527.182092 553.187297 
L 531.260667 567.960643 
L 535.339242 553.187297 
L 539.417816 555.157077 
L 543.496391 558.111746 
L 547.574966 552.202407 
L 551.65354 573.869982 
L 555.732115 559.096636 
L 559.81069 550.232628 
L 563.889265 534.474392 
L 567.967839 566.975754 
L 572.046414 538.413951 
L 576.124989 547.277958 
L 580.203563 539.39884 
L 584.282138 533.489502 
L 588.360713 523.640604 
L 592.439287 566.975754 
L 596.517862 546.293069 
L 600.596437 544.323289 
L 604.675011 559.096636 
L 608.753586 540.38373 
L 612.832161 536.444171 
L 616.910735 530.534832 
L 620.98931 542.35351 
L 625.067885 545.308179 
L 629.14646 539.39884 
L 633.225034 548.262848 
L 637.303609 545.308179 
L 641.382184 541.36862 
L 645.460758 555.157077 
L 649.539333 551.217517 
L 653.617908 540.38373 
L 657.696482 550.232628 
L 661.775057 522.655714 
L 665.853632 538.413951 
L 669.932206 539.39884 
L 674.010781 531.519722 
L 678.089356 548.262848 
L 682.167931 520.685935 
L 686.246505 538.413951 
L 690.32508 552.202407 
L 694.403655 516.746376 
L 698.482229 532.504612 
L 702.560804 532.504612 
L 706.639379 525.610384 
L 710.717953 514.776596 
L 714.796528 525.610384 
L 718.875103 531.519722 
L 722.953677 533.489502 
L 727.032252 545.308179 
L 731.110827 524.625494 
L 735.189402 540.38373 
L 739.267976 517.731266 
L 743.346551 523.640604 
L 747.425126 523.640604 
L 751.5037 517.731266 
L 755.582275 544.323289 
L 759.66085 512.806817 
L 763.739424 529.549943 
L 767.817999 536.444171 
L 771.896574 533.489502 
L 775.975148 527.580163 
L 780.053723 511.821927 
L 784.132298 521.670825 
L 788.210873 522.655714 
L 792.289447 513.791706 
L 796.368022 518.716155 
L 800.446597 510.837037 
L 804.525171 527.580163 
L 808.603746 518.716155 
L 812.682321 529.549943 
L 816.760895 525.610384 
L 820.83947 513.791706 
L 824.918045 523.640604 
L 828.996619 510.837037 
L 833.075194 524.625494 
L 837.153769 512.806817 
L 841.232344 498.03347 
L 845.310918 513.791706 
L 849.389493 521.670825 
L 853.468068 513.791706 
L 857.546642 513.791706 
L 861.625217 515.761486 
L 865.703792 505.912588 
L 869.782366 502.957919 
L 873.860941 511.821927 
L 877.939516 521.670825 
L 882.01809 520.685935 
L 886.096665 516.746376 
L 890.17524 501.973029 
L 894.253815 509.852147 
L 898.332389 509.852147 
L 902.410964 513.791706 
L 906.489539 524.625494 
L 910.568113 526.595273 
L 914.646688 518.716155 
L 918.725263 504.927699 
L 922.803837 506.897478 
L 926.882412 513.791706 
L 930.960987 502.957919 
L 935.039561 507.882368 
L 939.118136 489.169462 
L 943.196711 513.791706 
L 947.275286 511.821927 
L 951.35386 537.429061 
L 955.432435 501.973029 
L 959.51101 507.882368 
L 963.589584 526.595273 
L 967.668159 514.776596 
L 971.746734 489.169462 
L 975.825308 480.305455 
L 979.903883 498.03347 
L 983.982458 500.00325 
L 988.061032 526.595273 
L 992.139607 531.519722 
L 996.218182 495.078801 
L 996.218182 495.078801 
" clip-path="url(#pb299e850dc)" style="fill: none; stroke: #ff0000; stroke-width: 1.75; stroke-linecap: round"/>
   </g>
   <g id="line2d_35">
    <path d="M 184.581818 724.31952 
L 188.660393 722.455171 
L 192.738968 723.520515 
L 196.817542 755.214545 
L 200.896117 721.656158 
L 204.974692 720.146918 
L 209.053266 691.560146 
L 213.131841 697.508332 
L 217.210416 670.785909 
L 221.28899 663.328483 
L 225.367565 666.613307 
L 229.44614 649.390225 
L 233.524714 639.446995 
L 237.603289 645.927842 
L 241.681864 641.045006 
L 245.760439 630.924233 
L 249.839013 631.101792 
L 253.917588 628.793531 
L 257.996163 637.40508 
L 262.074737 626.485286 
L 266.153312 629.414993 
L 270.231887 625.064833 
L 274.310461 628.615988 
L 278.389036 624.265828 
L 282.467611 621.06979 
L 286.546185 617.607407 
L 290.62476 617.25229 
L 294.703335 602.781357 
L 298.78191 615.47672 
L 302.860484 613.878694 
L 306.939059 616.275726 
L 311.017634 613.523592 
L 315.096208 604.024251 
L 319.174783 610.682672 
L 323.253358 599.407761 
L 327.331932 601.627234 
L 331.410507 609.883651 
L 335.489082 600.473096 
L 339.567656 603.402804 
L 343.646231 592.571797 
L 347.724806 591.595218 
L 351.803381 594.524925 
L 355.881955 586.534838 
L 359.96053 581.829561 
L 364.039105 587.333844 
L 368.117679 590.441095 
L 372.196254 589.375759 
L 376.274829 573.573114 
L 380.353403 576.058933 
L 384.431978 590.085978 
L 388.510553 577.834518 
L 392.589127 578.988626 
L 396.667702 576.14772 
L 400.746277 589.553318 
L 404.824852 574.727252 
L 408.903426 569.578071 
L 412.982001 573.928231 
L 417.060576 575.082369 
L 421.13915 574.194592 
L 425.217725 570.021975 
L 429.2963 569.489315 
L 437.453449 571.619986 
L 441.532024 563.985017 
L 445.610598 562.564549 
L 449.689173 568.779081 
L 453.767748 562.919666 
L 457.846323 561.765558 
L 461.924897 565.760601 
L 466.003472 573.928231 
L 470.082047 554.041802 
L 474.160621 563.185996 
L 478.239196 556.616377 
L 482.317771 559.102196 
L 486.396345 558.214389 
L 490.47492 567.003496 
L 494.553495 562.830879 
L 498.632069 555.817357 
L 502.710644 549.691642 
L 506.789219 552.532547 
L 510.867794 553.509111 
L 514.946368 551.555983 
L 519.024943 562.387005 
L 523.103518 555.195909 
L 527.182092 553.153994 
L 531.260667 549.780398 
L 535.339242 545.430238 
L 539.417816 545.696598 
L 543.496391 549.070195 
L 547.574966 546.761919 
L 551.65354 543.47711 
L 555.732115 539.65964 
L 559.81069 547.738513 
L 563.889265 543.299566 
L 567.967839 552.621334 
L 572.046414 547.649727 
L 576.124989 547.738513 
L 580.203563 545.607812 
L 584.282138 545.874142 
L 588.360713 547.738513 
L 592.439287 539.215736 
L 596.517862 535.131906 
L 600.596437 533.089991 
L 604.675011 543.832227 
L 608.753586 536.108471 
L 612.832161 533.800225 
L 616.910735 531.136863 
L 620.98931 538.150386 
L 625.067885 531.314407 
L 629.14646 532.202214 
L 633.225034 531.314407 
L 637.303609 530.870533 
L 641.382184 531.048076 
L 645.460758 532.113427 
L 649.539333 527.230607 
L 653.617908 528.739831 
L 657.696482 528.384714 
L 661.775057 533.889012 
L 665.853632 527.585724 
L 669.932206 533.889012 
L 674.010781 526.342799 
L 678.089356 527.585724 
L 682.167931 534.776789 
L 686.246505 535.57581 
L 690.32508 526.697916 
L 694.403655 527.852054 
L 698.482229 524.478458 
L 702.560804 530.071512 
L 706.639379 522.525329 
L 710.717953 524.567244 
L 714.796528 521.371192 
L 718.875103 523.679437 
L 722.953677 526.87549 
L 727.032252 517.642479 
L 731.110827 524.478458 
L 735.189402 517.731266 
L 739.267976 526.076469 
L 743.346551 520.305841 
L 747.425126 520.483414 
L 751.5037 519.50685 
L 755.582275 520.572201 
L 759.66085 520.572201 
L 763.739424 531.22565 
L 767.817999 519.861967 
L 771.896574 516.843488 
L 775.975148 516.665915 
L 780.053723 527.940841 
L 784.132298 524.478458 
L 788.210873 516.399584 
L 792.289447 523.32432 
L 796.368022 517.553722 
L 800.446597 515.955681 
L 804.525171 516.222041 
L 808.603746 517.376149 
L 812.682321 512.670871 
L 816.760895 514.535243 
L 820.83947 514.091339 
L 824.918045 508.409498 
L 828.996619 517.553722 
L 833.075194 516.222041 
L 837.153769 515.245447 
L 841.232344 512.759658 
L 845.310918 511.605521 
L 849.389493 513.736222 
L 853.468068 523.501894 
L 857.546642 523.679437 
L 861.625217 506.101253 
L 865.703792 509.474849 
L 869.782366 512.138211 
L 873.860941 507.610477 
L 877.939516 509.386062 
L 882.01809 507.788051 
L 886.096665 507.344147 
L 890.17524 509.030945 
L 894.253815 503.17153 
L 898.332389 501.129645 
L 902.410964 509.741179 
L 906.489539 503.260317 
L 910.568113 505.923679 
L 914.646688 513.381105 
L 918.725263 507.788051 
L 922.803837 508.054381 
L 926.882412 508.764615 
L 930.960987 506.811487 
L 935.039561 502.993987 
L 939.118136 507.965594 
L 943.196711 503.437891 
L 947.275286 500.241838 
L 951.35386 506.45637 
L 955.432435 508.054381 
L 959.51101 504.769572 
L 963.589584 498.022379 
L 967.668159 501.928636 
L 971.746734 502.283753 
L 975.825308 498.199923 
L 979.903883 495.270231 
L 983.982458 497.933593 
L 988.061032 505.746136 
L 992.139607 496.513125 
L 996.218182 510.096296 
L 996.218182 510.096296 
" clip-path="url(#pb299e850dc)" style="fill: none; stroke: #008000; stroke-width: 1.75; stroke-linecap: round"/>
   </g>
   <g id="patch_8">
    <path d="M 144 768.96 
L 144 466.56 
" style="fill: none"/>
   </g>
   <g id="patch_9">
    <path d="M 1036.8 768.96 
L 1036.8 466.56 
" style="fill: none"/>
   </g>
   <g id="patch_10">
    <path d="M 144 768.96 
L 1036.8 768.96 
" style="fill: none"/>
   </g>
   <g id="patch_11">
    <path d="M 144 466.56 
L 1036.8 466.56 
" style="fill: none"/>
   </g>
  </g>
  <g id="text_32">
   <!-- Plots of model performance: spectrogram, chatfield14 -->
   <g style="fill: #262626" transform="translate(433.606875 25.97625)scale(0.12 -0.12)">
    <defs>
     <path id="LiberationSans-50" d="M 3931 3078 
Q 3931 2791 3836 2542 
Q 3741 2294 3552 2111 
Q 3363 1928 3078 1822 
Q 2794 1716 2416 1716 
L 1122 1716 
L 1122 0 
L 525 0 
L 525 4403 
L 2378 4403 
Q 2769 4403 3059 4308 
Q 3350 4213 3544 4039 
Q 3738 3866 3834 3620 
Q 3931 3375 3931 3078 
z
M 3331 3072 
Q 3331 3491 3075 3708 
Q 2819 3925 2306 3925 
L 1122 3925 
L 1122 2188 
L 2331 2188 
Q 2847 2188 3089 2416 
Q 3331 2644 3331 3072 
z
" transform="scale(0.015625)"/>
     <path id="LiberationSans-6c" d="M 431 0 
L 431 4638 
L 994 4638 
L 994 0 
L 431 0 
z
" transform="scale(0.015625)"/>
     <path id="LiberationSans-6f" d="M 3291 1694 
Q 3291 806 2900 371 
Q 2509 -63 1766 -63 
Q 1413 -63 1134 43 
Q 856 150 664 369 
Q 472 588 370 917 
Q 269 1247 269 1694 
Q 269 3444 1784 3444 
Q 2178 3444 2464 3334 
Q 2750 3225 2933 3006 
Q 3116 2788 3203 2459 
Q 3291 2131 3291 1694 
z
M 2700 1694 
Q 2700 2088 2639 2344 
Q 2578 2600 2461 2753 
Q 2344 2906 2175 2967 
Q 2006 3028 1794 3028 
Q 1578 3028 1404 2964 
Q 1231 2900 1109 2745 
Q 988 2591 923 2334 
Q 859 2078 859 1694 
Q 859 1300 928 1042 
Q 997 784 1117 631 
Q 1238 478 1402 415 
Q 1566 353 1759 353 
Q 1975 353 2150 414 
Q 2325 475 2447 628 
Q 2569 781 2634 1040 
Q 2700 1300 2700 1694 
z
" transform="scale(0.015625)"/>
     <path id="LiberationSans-74" d="M 1731 25 
Q 1603 -9 1470 -29 
Q 1338 -50 1163 -50 
Q 488 -50 488 716 
L 488 2972 
L 97 2972 
L 97 3381 
L 509 3381 
L 675 4138 
L 1050 4138 
L 1050 3381 
L 1675 3381 
L 1675 2972 
L 1050 2972 
L 1050 838 
Q 1050 594 1129 495 
Q 1209 397 1406 397 
Q 1488 397 1564 409 
Q 1641 422 1731 441 
L 1731 25 
z
" transform="scale(0.015625)"/>
     <path id="LiberationSans-73" d="M 2969 934 
Q 2969 697 2876 511 
Q 2784 325 2609 198 
Q 2434 72 2179 4 
Q 1925 -63 1597 -63 
Q 1303 -63 1067 -17 
Q 831 28 653 128 
Q 475 228 354 392 
Q 234 556 178 794 
L 675 891 
Q 747 619 972 492 
Q 1197 366 1597 366 
Q 1778 366 1929 391 
Q 2081 416 2190 477 
Q 2300 538 2361 639 
Q 2422 741 2422 891 
Q 2422 1044 2350 1142 
Q 2278 1241 2150 1306 
Q 2022 1372 1839 1420 
Q 1656 1469 1438 1528 
Q 1234 1581 1034 1647 
Q 834 1713 673 1820 
Q 513 1928 413 2087 
Q 313 2247 313 2488 
Q 313 2950 642 3192 
Q 972 3434 1603 3434 
Q 2163 3434 2492 3237 
Q 2822 3041 2909 2606 
L 2403 2544 
Q 2375 2675 2300 2764 
Q 2225 2853 2119 2908 
Q 2013 2963 1880 2986 
Q 1747 3009 1603 3009 
Q 1222 3009 1040 2893 
Q 859 2778 859 2544 
Q 859 2406 926 2317 
Q 994 2228 1114 2167 
Q 1234 2106 1403 2061 
Q 1572 2016 1775 1966 
Q 1909 1931 2050 1892 
Q 2191 1853 2323 1798 
Q 2456 1744 2573 1670 
Q 2691 1597 2778 1494 
Q 2866 1391 2917 1253 
Q 2969 1116 2969 934 
z
" transform="scale(0.015625)"/>
     <path id="LiberationSans-20" transform="scale(0.015625)"/>
     <path id="LiberationSans-66" d="M 1128 2972 
L 1128 0 
L 566 0 
L 566 2972 
L 91 2972 
L 91 3381 
L 566 3381 
L 566 3763 
Q 566 3947 600 4105 
Q 634 4263 726 4380 
Q 819 4497 978 4564 
Q 1138 4631 1391 4631 
Q 1491 4631 1598 4622 
Q 1706 4613 1788 4594 
L 1788 4166 
Q 1734 4175 1664 4183 
Q 1594 4191 1538 4191 
Q 1413 4191 1333 4156 
Q 1253 4122 1208 4058 
Q 1163 3994 1145 3900 
Q 1128 3806 1128 3684 
L 1128 3381 
L 1788 3381 
L 1788 2972 
L 1128 2972 
z
" transform="scale(0.015625)"/>
     <path id="LiberationSans-6d" d="M 2400 0 
L 2400 2144 
Q 2400 2391 2369 2556 
Q 2338 2722 2264 2823 
Q 2191 2925 2072 2967 
Q 1953 3009 1781 3009 
Q 1603 3009 1459 2939 
Q 1316 2869 1214 2736 
Q 1113 2603 1058 2408 
Q 1003 2213 1003 1959 
L 1003 0 
L 444 0 
L 444 2659 
Q 444 2766 442 2883 
Q 441 3000 437 3104 
Q 434 3209 431 3284 
Q 428 3359 425 3381 
L 956 3381 
Q 959 3366 962 3297 
Q 966 3228 970 3139 
Q 975 3050 978 2958 
Q 981 2866 981 2803 
L 991 2803 
Q 1066 2950 1153 3069 
Q 1241 3188 1358 3270 
Q 1475 3353 1626 3398 
Q 1778 3444 1978 3444 
Q 2363 3444 2586 3291 
Q 2809 3138 2897 2803 
L 2906 2803 
Q 2981 2950 3075 3069 
Q 3169 3188 3294 3270 
Q 3419 3353 3575 3398 
Q 3731 3444 3931 3444 
Q 4188 3444 4373 3375 
Q 4559 3306 4678 3162 
Q 4797 3019 4853 2792 
Q 4909 2566 4909 2253 
L 4909 0 
L 4353 0 
L 4353 2144 
Q 4353 2391 4322 2556 
Q 4291 2722 4217 2823 
Q 4144 2925 4025 2967 
Q 3906 3009 3734 3009 
Q 3556 3009 3412 2942 
Q 3269 2875 3167 2744 
Q 3066 2613 3011 2416 
Q 2956 2219 2956 1959 
L 2956 0 
L 2400 0 
z
" transform="scale(0.015625)"/>
     <path id="LiberationSans-64" d="M 2566 544 
Q 2409 219 2151 78 
Q 1894 -63 1513 -63 
Q 872 -63 570 368 
Q 269 800 269 1675 
Q 269 3444 1513 3444 
Q 1897 3444 2153 3303 
Q 2409 3163 2566 2856 
L 2572 2856 
Q 2572 2888 2570 2955 
Q 2569 3022 2567 3095 
Q 2566 3169 2566 3234 
Q 2566 3300 2566 3328 
L 2566 4638 
L 3128 4638 
L 3128 697 
Q 3128 575 3129 462 
Q 3131 350 3134 256 
Q 3138 163 3141 95 
Q 3144 28 3147 0 
L 2609 0 
Q 2603 31 2598 89 
Q 2594 147 2589 222 
Q 2584 297 2581 380 
Q 2578 463 2578 544 
L 2566 544 
z
M 859 1694 
Q 859 1344 903 1094 
Q 947 844 1044 683 
Q 1141 522 1291 447 
Q 1441 372 1656 372 
Q 1878 372 2048 444 
Q 2219 516 2333 677 
Q 2447 838 2506 1097 
Q 2566 1356 2566 1731 
Q 2566 2091 2506 2339 
Q 2447 2588 2331 2741 
Q 2216 2894 2048 2961 
Q 1881 3028 1663 3028 
Q 1456 3028 1306 2956 
Q 1156 2884 1056 2725 
Q 956 2566 907 2311 
Q 859 2056 859 1694 
z
" transform="scale(0.015625)"/>
     <path id="LiberationSans-65" d="M 863 1572 
Q 863 1306 917 1082 
Q 972 859 1086 698 
Q 1200 538 1378 448 
Q 1556 359 1806 359 
Q 2172 359 2392 506 
Q 2613 653 2691 878 
L 3184 738 
Q 3131 597 3036 455 
Q 2941 313 2781 198 
Q 2622 84 2383 10 
Q 2144 -63 1806 -63 
Q 1056 -63 664 384 
Q 272 831 272 1713 
Q 272 2188 390 2517 
Q 509 2847 715 3053 
Q 922 3259 1197 3351 
Q 1472 3444 1784 3444 
Q 2209 3444 2495 3306 
Q 2781 3169 2954 2926 
Q 3128 2684 3201 2356 
Q 3275 2028 3275 1647 
L 3275 1572 
L 863 1572 
z
M 2694 2003 
Q 2647 2538 2422 2783 
Q 2197 3028 1775 3028 
Q 1634 3028 1479 2983 
Q 1325 2938 1194 2822 
Q 1063 2706 972 2507 
Q 881 2309 869 2003 
L 2694 2003 
z
" transform="scale(0.015625)"/>
     <path id="LiberationSans-70" d="M 3291 1706 
Q 3291 1322 3228 997 
Q 3166 672 3020 437 
Q 2875 203 2636 70 
Q 2397 -63 2047 -63 
Q 1684 -63 1412 75 
Q 1141 213 997 525 
L 981 525 
Q 984 519 986 469 
Q 988 419 989 344 
Q 991 269 992 176 
Q 994 84 994 -6 
L 994 -1328 
L 431 -1328 
L 431 2691 
Q 431 2813 429 2925 
Q 428 3038 425 3130 
Q 422 3222 419 3287 
Q 416 3353 413 3381 
L 956 3381 
Q 959 3372 964 3315 
Q 969 3259 973 3179 
Q 978 3100 983 3009 
Q 988 2919 988 2838 
L 1000 2838 
Q 1078 3000 1178 3114 
Q 1278 3228 1406 3301 
Q 1534 3375 1692 3408 
Q 1850 3441 2047 3441 
Q 2397 3441 2636 3316 
Q 2875 3191 3020 2964 
Q 3166 2738 3228 2417 
Q 3291 2097 3291 1706 
z
M 2700 1694 
Q 2700 2006 2662 2250 
Q 2625 2494 2533 2662 
Q 2441 2831 2287 2918 
Q 2134 3006 1903 3006 
Q 1716 3006 1550 2953 
Q 1384 2900 1261 2750 
Q 1138 2600 1066 2336 
Q 994 2072 994 1650 
Q 994 1291 1053 1042 
Q 1113 794 1227 641 
Q 1341 488 1509 420 
Q 1678 353 1897 353 
Q 2131 353 2286 443 
Q 2441 534 2533 706 
Q 2625 878 2662 1126 
Q 2700 1375 2700 1694 
z
" transform="scale(0.015625)"/>
     <path id="LiberationSans-72" d="M 444 0 
L 444 2594 
Q 444 2700 442 2811 
Q 441 2922 437 3025 
Q 434 3128 431 3218 
Q 428 3309 425 3381 
L 956 3381 
Q 959 3309 964 3217 
Q 969 3125 973 3028 
Q 978 2931 979 2842 
Q 981 2753 981 2691 
L 994 2691 
Q 1053 2884 1120 3026 
Q 1188 3169 1278 3261 
Q 1369 3353 1494 3398 
Q 1619 3444 1797 3444 
Q 1866 3444 1928 3433 
Q 1991 3422 2025 3413 
L 2025 2897 
Q 1969 2913 1894 2920 
Q 1819 2928 1725 2928 
Q 1531 2928 1395 2840 
Q 1259 2753 1173 2598 
Q 1088 2444 1047 2230 
Q 1006 2016 1006 1763 
L 1006 0 
L 444 0 
z
" transform="scale(0.015625)"/>
     <path id="LiberationSans-61" d="M 1294 -63 
Q 784 -63 528 206 
Q 272 475 272 944 
Q 272 1278 398 1492 
Q 525 1706 729 1828 
Q 934 1950 1196 1997 
Q 1459 2044 1731 2050 
L 2491 2063 
L 2491 2247 
Q 2491 2456 2447 2603 
Q 2403 2750 2312 2840 
Q 2222 2931 2086 2973 
Q 1950 3016 1766 3016 
Q 1603 3016 1472 2992 
Q 1341 2969 1244 2908 
Q 1147 2847 1087 2742 
Q 1028 2638 1009 2478 
L 422 2531 
Q 453 2731 540 2898 
Q 628 3066 789 3187 
Q 950 3309 1192 3376 
Q 1434 3444 1778 3444 
Q 2416 3444 2737 3151 
Q 3059 2859 3059 2306 
L 3059 850 
Q 3059 600 3125 473 
Q 3191 347 3375 347 
Q 3422 347 3469 353 
Q 3516 359 3559 369 
L 3559 19 
Q 3453 -6 3348 -18 
Q 3244 -31 3125 -31 
Q 2966 -31 2852 11 
Q 2738 53 2666 139 
Q 2594 225 2556 351 
Q 2519 478 2509 647 
L 2491 647 
Q 2400 484 2292 353 
Q 2184 222 2040 130 
Q 1897 38 1714 -12 
Q 1531 -63 1294 -63 
z
M 1422 359 
Q 1691 359 1892 457 
Q 2094 556 2226 709 
Q 2359 863 2425 1044 
Q 2491 1225 2491 1391 
L 2491 1669 
L 1875 1656 
Q 1669 1653 1483 1626 
Q 1297 1600 1156 1522 
Q 1016 1444 933 1303 
Q 850 1163 850 934 
Q 850 659 998 509 
Q 1147 359 1422 359 
z
" transform="scale(0.015625)"/>
     <path id="LiberationSans-6e" d="M 2578 0 
L 2578 2144 
Q 2578 2391 2542 2556 
Q 2506 2722 2425 2823 
Q 2344 2925 2211 2967 
Q 2078 3009 1881 3009 
Q 1681 3009 1520 2939 
Q 1359 2869 1245 2736 
Q 1131 2603 1068 2408 
Q 1006 2213 1006 1959 
L 1006 0 
L 444 0 
L 444 2659 
Q 444 2766 442 2883 
Q 441 3000 437 3104 
Q 434 3209 431 3284 
Q 428 3359 425 3381 
L 956 3381 
Q 959 3366 962 3297 
Q 966 3228 970 3139 
Q 975 3050 978 2958 
Q 981 2866 981 2803 
L 991 2803 
Q 1072 2950 1169 3069 
Q 1266 3188 1394 3270 
Q 1522 3353 1687 3398 
Q 1853 3444 2072 3444 
Q 2353 3444 2556 3375 
Q 2759 3306 2890 3162 
Q 3022 3019 3083 2792 
Q 3144 2566 3144 2253 
L 3144 0 
L 2578 0 
z
" transform="scale(0.015625)"/>
     <path id="LiberationSans-63" d="M 859 1706 
Q 859 1416 901 1172 
Q 944 928 1044 751 
Q 1144 575 1308 478 
Q 1472 381 1713 381 
Q 2013 381 2214 543 
Q 2416 706 2463 1044 
L 3031 1006 
Q 3003 797 2909 603 
Q 2816 409 2655 262 
Q 2494 116 2262 26 
Q 2031 -63 1728 -63 
Q 1331 -63 1053 71 
Q 775 206 601 442 
Q 428 678 350 998 
Q 272 1319 272 1694 
Q 272 2034 328 2295 
Q 384 2556 486 2751 
Q 588 2947 725 3080 
Q 863 3213 1023 3292 
Q 1184 3372 1362 3408 
Q 1541 3444 1722 3444 
Q 2006 3444 2228 3366 
Q 2450 3288 2611 3152 
Q 2772 3016 2872 2831 
Q 2972 2647 3013 2434 
L 2434 2391 
Q 2391 2672 2212 2837 
Q 2034 3003 1706 3003 
Q 1466 3003 1305 2923 
Q 1144 2844 1044 2683 
Q 944 2522 901 2278 
Q 859 2034 859 1706 
z
" transform="scale(0.015625)"/>
     <path id="LiberationSans-3a" d="M 584 2734 
L 584 3381 
L 1194 3381 
L 1194 2734 
L 584 2734 
z
M 584 0 
L 584 647 
L 1194 647 
L 1194 0 
L 584 0 
z
" transform="scale(0.015625)"/>
     <path id="LiberationSans-67" d="M 1713 -1328 
Q 1422 -1328 1197 -1268 
Q 972 -1209 812 -1098 
Q 653 -988 553 -834 
Q 453 -681 409 -494 
L 975 -413 
Q 1031 -647 1223 -773 
Q 1416 -900 1728 -900 
Q 1919 -900 2075 -847 
Q 2231 -794 2340 -676 
Q 2450 -559 2509 -371 
Q 2569 -184 2569 84 
L 2569 628 
L 2563 628 
Q 2500 500 2408 383 
Q 2316 266 2183 175 
Q 2050 84 1875 29 
Q 1700 -25 1475 -25 
Q 1153 -25 923 83 
Q 694 191 548 406 
Q 403 622 336 942 
Q 269 1263 269 1684 
Q 269 2091 336 2416 
Q 403 2741 554 2967 
Q 706 3194 948 3314 
Q 1191 3434 1538 3434 
Q 1897 3434 2161 3270 
Q 2425 3106 2569 2803 
L 2575 2803 
Q 2575 2881 2579 2978 
Q 2584 3075 2589 3161 
Q 2594 3247 2600 3309 
Q 2606 3372 2613 3381 
L 3147 3381 
Q 3144 3353 3141 3286 
Q 3138 3219 3134 3125 
Q 3131 3031 3129 2917 
Q 3128 2803 3128 2681 
L 3128 97 
Q 3128 -613 2779 -970 
Q 2431 -1328 1713 -1328 
z
M 2569 1691 
Q 2569 2044 2492 2295 
Q 2416 2547 2291 2706 
Q 2166 2866 2005 2941 
Q 1844 3016 1675 3016 
Q 1459 3016 1304 2941 
Q 1150 2866 1048 2705 
Q 947 2544 898 2292 
Q 850 2041 850 1691 
Q 850 1325 898 1076 
Q 947 828 1047 675 
Q 1147 522 1300 456 
Q 1453 391 1666 391 
Q 1834 391 1995 462 
Q 2156 534 2284 690 
Q 2413 847 2491 1094 
Q 2569 1341 2569 1691 
z
" transform="scale(0.015625)"/>
     <path id="LiberationSans-2c" d="M 1203 684 
L 1203 159 
Q 1203 -6 1189 -142 
Q 1175 -278 1144 -395 
Q 1113 -513 1067 -616 
Q 1022 -719 959 -819 
L 575 -819 
Q 716 -616 792 -409 
Q 869 -203 869 0 
L 594 0 
L 594 684 
L 1203 684 
z
" transform="scale(0.015625)"/>
     <path id="LiberationSans-68" d="M 991 2803 
Q 1084 2975 1193 3095 
Q 1303 3216 1434 3294 
Q 1566 3372 1722 3408 
Q 1878 3444 2072 3444 
Q 2397 3444 2605 3356 
Q 2813 3269 2933 3111 
Q 3053 2953 3098 2734 
Q 3144 2516 3144 2253 
L 3144 0 
L 2578 0 
L 2578 2144 
Q 2578 2359 2551 2521 
Q 2525 2684 2450 2792 
Q 2375 2900 2237 2954 
Q 2100 3009 1881 3009 
Q 1681 3009 1520 2937 
Q 1359 2866 1245 2734 
Q 1131 2603 1068 2415 
Q 1006 2228 1006 1994 
L 1006 0 
L 444 0 
L 444 4638 
L 1006 4638 
L 1006 3431 
Q 1006 3328 1003 3225 
Q 1000 3122 995 3034 
Q 991 2947 987 2886 
Q 984 2825 981 2803 
L 991 2803 
z
" transform="scale(0.015625)"/>
     <path id="LiberationSans-69" d="M 428 4100 
L 428 4638 
L 991 4638 
L 991 4100 
L 428 4100 
z
M 428 0 
L 428 3381 
L 991 3381 
L 991 0 
L 428 0 
z
" transform="scale(0.015625)"/>
    </defs>
    <use xlink:href="#LiberationSans-50"/>
    <use xlink:href="#LiberationSans-6c" x="66.699219"/>
    <use xlink:href="#LiberationSans-6f" x="88.916016"/>
    <use xlink:href="#LiberationSans-74" x="144.53125"/>
    <use xlink:href="#LiberationSans-73" x="172.314453"/>
    <use xlink:href="#LiberationSans-20" x="222.314453"/>
    <use xlink:href="#LiberationSans-6f" x="250.097656"/>
    <use xlink:href="#LiberationSans-66" x="305.712891"/>
    <use xlink:href="#LiberationSans-20" x="333.496094"/>
    <use xlink:href="#LiberationSans-6d" x="361.279297"/>
    <use xlink:href="#LiberationSans-6f" x="444.580078"/>
    <use xlink:href="#LiberationSans-64" x="500.195312"/>
    <use xlink:href="#LiberationSans-65" x="555.810547"/>
    <use xlink:href="#LiberationSans-6c" x="611.425781"/>
    <use xlink:href="#LiberationSans-20" x="633.642578"/>
    <use xlink:href="#LiberationSans-70" x="661.425781"/>
    <use xlink:href="#LiberationSans-65" x="717.041016"/>
    <use xlink:href="#LiberationSans-72" x="772.65625"/>
    <use xlink:href="#LiberationSans-66" x="805.957031"/>
    <use xlink:href="#LiberationSans-6f" x="833.740234"/>
    <use xlink:href="#LiberationSans-72" x="889.355469"/>
    <use xlink:href="#LiberationSans-6d" x="922.65625"/>
    <use xlink:href="#LiberationSans-61" x="1005.957031"/>
    <use xlink:href="#LiberationSans-6e" x="1061.572266"/>
    <use xlink:href="#LiberationSans-63" x="1117.1875"/>
    <use xlink:href="#LiberationSans-65" x="1167.1875"/>
    <use xlink:href="#LiberationSans-3a" x="1222.802734"/>
    <use xlink:href="#LiberationSans-20" x="1250.585938"/>
    <use xlink:href="#LiberationSans-73" x="1278.369141"/>
    <use xlink:href="#LiberationSans-70" x="1328.369141"/>
    <use xlink:href="#LiberationSans-65" x="1383.984375"/>
    <use xlink:href="#LiberationSans-63" x="1439.599609"/>
    <use xlink:href="#LiberationSans-74" x="1489.599609"/>
    <use xlink:href="#LiberationSans-72" x="1517.382812"/>
    <use xlink:href="#LiberationSans-6f" x="1550.683594"/>
    <use xlink:href="#LiberationSans-67" x="1606.298828"/>
    <use xlink:href="#LiberationSans-72" x="1661.914062"/>
    <use xlink:href="#LiberationSans-61" x="1695.214844"/>
    <use xlink:href="#LiberationSans-6d" x="1750.830078"/>
    <use xlink:href="#LiberationSans-2c" x="1834.130859"/>
    <use xlink:href="#LiberationSans-20" x="1861.914062"/>
    <use xlink:href="#LiberationSans-63" x="1889.697266"/>
    <use xlink:href="#LiberationSans-68" x="1939.697266"/>
    <use xlink:href="#LiberationSans-61" x="1995.3125"/>
    <use xlink:href="#LiberationSans-74" x="2050.927734"/>
    <use xlink:href="#LiberationSans-66" x="2078.710938"/>
    <use xlink:href="#LiberationSans-69" x="2106.494141"/>
    <use xlink:href="#LiberationSans-65" x="2128.710938"/>
    <use xlink:href="#LiberationSans-6c" x="2184.326172"/>
    <use xlink:href="#LiberationSans-64" x="2206.542969"/>
    <use xlink:href="#LiberationSans-31" x="2262.158203"/>
    <use xlink:href="#LiberationSans-34" x="2317.773438"/>
   </g>
  </g>
 </g>
 <defs>
  <clipPath id="p5afec6a6b5">
   <rect x="144" y="103.68" width="892.8" height="302.4"/>
  </clipPath>
  <clipPath id="pb299e850dc">
   <rect x="144" y="466.56" width="892.8" height="302.4"/>
  </clipPath>
 </defs>
</svg>
