<?xml version="1.0" encoding="utf-8" standalone="no"?>
<!DOCTYPE svg PUBLIC "-//W3C//DTD SVG 1.1//EN"
  "http://www.w3.org/Graphics/SVG/1.1/DTD/svg11.dtd">
<svg xmlns:xlink="http://www.w3.org/1999/xlink" width="864pt" height="648pt" viewBox="0 0 864 648" xmlns="http://www.w3.org/2000/svg" version="1.1">
 <metadata>
  <rdf:RDF xmlns:dc="http://purl.org/dc/elements/1.1/" xmlns:cc="http://creativecommons.org/ns#" xmlns:rdf="http://www.w3.org/1999/02/22-rdf-syntax-ns#">
   <cc:Work>
    <dc:type rdf:resource="http://purl.org/dc/dcmitype/StillImage"/>
    <dc:date>2022-03-15T01:23:29.797307</dc:date>
    <dc:format>image/svg+xml</dc:format>
    <dc:creator>
     <cc:Agent>
      <dc:title>Matplotlib v3.5.0, https://matplotlib.org/</dc:title>
     </cc:Agent>
    </dc:creator>
   </cc:Work>
  </rdf:RDF>
 </metadata>
 <defs>
  <style type="text/css">*{stroke-linejoin: round; stroke-linecap: butt}</style>
 </defs>
 <g id="figure_1">
  <g id="patch_1">
   <path d="M 0 648 
L 864 648 
L 864 0 
L 0 0 
z
" style="fill: #ffffff"/>
  </g>
  <g id="axes_1">
   <g id="patch_2">
    <path d="M 108 304.56 
L 777.6 304.56 
L 777.6 77.76 
L 108 77.76 
z
" style="fill: #eaeaf2"/>
   </g>
   <g id="matplotlib.axis_1">
    <g id="xtick_1">
     <g id="line2d_1"/>
     <g id="text_1">
      <!-- 0 -->
      <g style="fill: #262626" transform="translate(135.655895 318.806875)scale(0.1 -0.1)">
       <defs>
        <path id="LiberationSans-30" d="M 3309 2203 
Q 3309 1569 3189 1136 
Q 3069 703 2861 436 
Q 2653 169 2372 53 
Q 2091 -63 1772 -63 
Q 1450 -63 1172 53 
Q 894 169 689 434 
Q 484 700 367 1133 
Q 250 1566 250 2203 
Q 250 2869 367 3305 
Q 484 3741 690 4000 
Q 897 4259 1178 4364 
Q 1459 4469 1791 4469 
Q 2106 4469 2382 4364 
Q 2659 4259 2865 4000 
Q 3072 3741 3190 3305 
Q 3309 2869 3309 2203 
z
M 2738 2203 
Q 2738 2728 2675 3076 
Q 2613 3425 2491 3633 
Q 2369 3841 2192 3927 
Q 2016 4013 1791 4013 
Q 1553 4013 1372 3925 
Q 1191 3838 1067 3630 
Q 944 3422 881 3073 
Q 819 2725 819 2203 
Q 819 1697 883 1350 
Q 947 1003 1070 792 
Q 1194 581 1372 489 
Q 1550 397 1778 397 
Q 2000 397 2178 489 
Q 2356 581 2479 792 
Q 2603 1003 2670 1350 
Q 2738 1697 2738 2203 
z
" transform="scale(0.015625)"/>
       </defs>
       <use xlink:href="#LiberationSans-30"/>
      </g>
     </g>
    </g>
    <g id="xtick_2">
     <g id="line2d_2"/>
     <g id="text_2">
      <!-- 25 -->
      <g style="fill: #262626" transform="translate(209.348702 318.806875)scale(0.1 -0.1)">
       <defs>
        <path id="LiberationSans-32" d="M 322 0 
L 322 397 
Q 481 763 711 1042 
Q 941 1322 1194 1548 
Q 1447 1775 1695 1969 
Q 1944 2163 2144 2356 
Q 2344 2550 2467 2762 
Q 2591 2975 2591 3244 
Q 2591 3431 2534 3573 
Q 2478 3716 2372 3812 
Q 2266 3909 2117 3957 
Q 1969 4006 1788 4006 
Q 1619 4006 1470 3959 
Q 1322 3913 1206 3819 
Q 1091 3725 1017 3586 
Q 944 3447 922 3263 
L 347 3316 
Q 375 3553 478 3762 
Q 581 3972 762 4130 
Q 944 4288 1198 4378 
Q 1453 4469 1788 4469 
Q 2116 4469 2372 4391 
Q 2628 4313 2804 4159 
Q 2981 4006 3075 3781 
Q 3169 3556 3169 3263 
Q 3169 3041 3089 2841 
Q 3009 2641 2876 2459 
Q 2744 2278 2569 2109 
Q 2394 1941 2203 1780 
Q 2013 1619 1819 1461 
Q 1625 1303 1454 1143 
Q 1284 984 1150 820 
Q 1016 656 941 478 
L 3238 478 
L 3238 0 
L 322 0 
z
" transform="scale(0.015625)"/>
        <path id="LiberationSans-35" d="M 3291 1434 
Q 3291 1103 3191 828 
Q 3091 553 2894 354 
Q 2697 156 2405 46 
Q 2113 -63 1728 -63 
Q 1381 -63 1123 18 
Q 866 100 687 242 
Q 509 384 404 575 
Q 300 766 256 984 
L 825 1050 
Q 859 925 921 808 
Q 984 691 1092 598 
Q 1200 506 1358 451 
Q 1516 397 1741 397 
Q 1959 397 2137 464 
Q 2316 531 2442 662 
Q 2569 794 2637 984 
Q 2706 1175 2706 1422 
Q 2706 1625 2640 1795 
Q 2575 1966 2453 2089 
Q 2331 2213 2154 2281 
Q 1978 2350 1753 2350 
Q 1613 2350 1494 2325 
Q 1375 2300 1273 2256 
Q 1172 2213 1089 2155 
Q 1006 2097 934 2034 
L 384 2034 
L 531 4403 
L 3034 4403 
L 3034 3925 
L 1044 3925 
L 959 2528 
Q 1109 2644 1334 2726 
Q 1559 2809 1869 2809 
Q 2197 2809 2459 2709 
Q 2722 2609 2906 2426 
Q 3091 2244 3191 1991 
Q 3291 1738 3291 1434 
z
" transform="scale(0.015625)"/>
       </defs>
       <use xlink:href="#LiberationSans-32"/>
       <use xlink:href="#LiberationSans-35" x="55.615234"/>
      </g>
     </g>
    </g>
    <g id="xtick_3">
     <g id="line2d_3"/>
     <g id="text_3">
      <!-- 50 -->
      <g style="fill: #262626" transform="translate(285.821977 318.806875)scale(0.1 -0.1)">
       <use xlink:href="#LiberationSans-35"/>
       <use xlink:href="#LiberationSans-30" x="55.615234"/>
      </g>
     </g>
    </g>
    <g id="xtick_4">
     <g id="line2d_4"/>
     <g id="text_4">
      <!-- 75 -->
      <g style="fill: #262626" transform="translate(362.295253 318.806875)scale(0.1 -0.1)">
       <defs>
        <path id="LiberationSans-37" d="M 3238 3947 
Q 2906 3441 2628 2973 
Q 2350 2506 2150 2032 
Q 1950 1559 1839 1061 
Q 1728 563 1728 0 
L 1141 0 
Q 1141 528 1266 1036 
Q 1391 1544 1603 2033 
Q 1816 2522 2097 2994 
Q 2378 3466 2694 3925 
L 328 3925 
L 328 4403 
L 3238 4403 
L 3238 3947 
z
" transform="scale(0.015625)"/>
       </defs>
       <use xlink:href="#LiberationSans-37"/>
       <use xlink:href="#LiberationSans-35" x="55.615234"/>
      </g>
     </g>
    </g>
    <g id="xtick_5">
     <g id="line2d_5"/>
     <g id="text_5">
      <!-- 100 -->
      <g style="fill: #262626" transform="translate(435.988059 318.806875)scale(0.1 -0.1)">
       <defs>
        <path id="LiberationSans-31" d="M 488 0 
L 488 478 
L 1609 478 
L 1609 3866 
L 616 3156 
L 616 3688 
L 1656 4403 
L 2175 4403 
L 2175 478 
L 3247 478 
L 3247 0 
L 488 0 
z
" transform="scale(0.015625)"/>
       </defs>
       <use xlink:href="#LiberationSans-31"/>
       <use xlink:href="#LiberationSans-30" x="55.615234"/>
       <use xlink:href="#LiberationSans-30" x="111.230469"/>
      </g>
     </g>
    </g>
    <g id="xtick_6">
     <g id="line2d_6"/>
     <g id="text_6">
      <!-- 125 -->
      <g style="fill: #262626" transform="translate(512.461335 318.806875)scale(0.1 -0.1)">
       <use xlink:href="#LiberationSans-31"/>
       <use xlink:href="#LiberationSans-32" x="55.615234"/>
       <use xlink:href="#LiberationSans-35" x="111.230469"/>
      </g>
     </g>
    </g>
    <g id="xtick_7">
     <g id="line2d_7"/>
     <g id="text_7">
      <!-- 150 -->
      <g style="fill: #262626" transform="translate(588.93461 318.806875)scale(0.1 -0.1)">
       <use xlink:href="#LiberationSans-31"/>
       <use xlink:href="#LiberationSans-35" x="55.615234"/>
       <use xlink:href="#LiberationSans-30" x="111.230469"/>
      </g>
     </g>
    </g>
    <g id="xtick_8">
     <g id="line2d_8"/>
     <g id="text_8">
      <!-- 175 -->
      <g style="fill: #262626" transform="translate(665.407886 318.806875)scale(0.1 -0.1)">
       <use xlink:href="#LiberationSans-31"/>
       <use xlink:href="#LiberationSans-37" x="55.615234"/>
       <use xlink:href="#LiberationSans-35" x="111.230469"/>
      </g>
     </g>
    </g>
    <g id="xtick_9">
     <g id="line2d_9"/>
     <g id="text_9">
      <!-- 200 -->
      <g style="fill: #262626" transform="translate(741.881161 318.806875)scale(0.1 -0.1)">
       <use xlink:href="#LiberationSans-32"/>
       <use xlink:href="#LiberationSans-30" x="55.615234"/>
       <use xlink:href="#LiberationSans-30" x="111.230469"/>
      </g>
     </g>
    </g>
   </g>
   <g id="matplotlib.axis_2">
    <g id="ytick_1">
     <g id="line2d_10"/>
     <g id="text_10">
      <!-- 0.0 -->
      <g style="fill: #262626" transform="translate(87.1 299.342699)scale(0.1 -0.1)">
       <defs>
        <path id="LiberationSans-2e" d="M 584 0 
L 584 684 
L 1194 684 
L 1194 0 
L 584 0 
z
" transform="scale(0.015625)"/>
       </defs>
       <use xlink:href="#LiberationSans-30"/>
       <use xlink:href="#LiberationSans-2e" x="55.615234"/>
       <use xlink:href="#LiberationSans-30" x="83.398438"/>
      </g>
     </g>
    </g>
    <g id="ytick_2">
     <g id="line2d_11"/>
     <g id="text_11">
      <!-- 0.5 -->
      <g style="fill: #262626" transform="translate(87.1 249.931216)scale(0.1 -0.1)">
       <use xlink:href="#LiberationSans-30"/>
       <use xlink:href="#LiberationSans-2e" x="55.615234"/>
       <use xlink:href="#LiberationSans-35" x="83.398438"/>
      </g>
     </g>
    </g>
    <g id="ytick_3">
     <g id="line2d_12"/>
     <g id="text_12">
      <!-- 1.0 -->
      <g style="fill: #262626" transform="translate(87.1 200.519734)scale(0.1 -0.1)">
       <use xlink:href="#LiberationSans-31"/>
       <use xlink:href="#LiberationSans-2e" x="55.615234"/>
       <use xlink:href="#LiberationSans-30" x="83.398438"/>
      </g>
     </g>
    </g>
    <g id="ytick_4">
     <g id="line2d_13"/>
     <g id="text_13">
      <!-- 1.5 -->
      <g style="fill: #262626" transform="translate(87.1 151.108251)scale(0.1 -0.1)">
       <use xlink:href="#LiberationSans-31"/>
       <use xlink:href="#LiberationSans-2e" x="55.615234"/>
       <use xlink:href="#LiberationSans-35" x="83.398438"/>
      </g>
     </g>
    </g>
    <g id="ytick_5">
     <g id="line2d_14"/>
     <g id="text_14">
      <!-- 2.0 -->
      <g style="fill: #262626" transform="translate(87.1 101.696768)scale(0.1 -0.1)">
       <use xlink:href="#LiberationSans-32"/>
       <use xlink:href="#LiberationSans-2e" x="55.615234"/>
       <use xlink:href="#LiberationSans-30" x="83.398438"/>
      </g>
     </g>
    </g>
   </g>
   <g id="line2d_15">
    <path d="M 138.436364 88.069091 
L 141.495295 118.797931 
L 144.554226 136.26803 
L 147.613157 150.402342 
L 150.672088 163.412182 
L 153.731019 177.159642 
L 156.78995 181.382368 
L 159.848881 189.015665 
L 162.907812 195.295959 
L 165.966743 198.487651 
L 169.025674 204.724156 
L 172.084605 211.2204 
L 175.143536 212.706513 
L 178.202467 215.602412 
L 181.261398 220.365279 
L 184.320329 219.893136 
L 187.37926 221.667473 
L 190.438191 227.286273 
L 193.497122 229.550978 
L 199.614984 235.899022 
L 202.673915 233.560576 
L 205.732846 239.949321 
L 208.791777 240.24601 
L 211.850708 244.763405 
L 214.909639 244.613579 
L 217.96857 245.3299 
L 221.027501 250.346109 
L 224.086432 249.401501 
L 227.145363 251.980078 
L 230.204294 256.821319 
L 233.263225 252.90581 
L 236.322156 257.002016 
L 239.381087 257.729324 
L 242.440018 258.09819 
L 245.498949 259.891915 
L 248.55788 260.81751 
L 251.616811 263.390894 
L 254.675742 263.525107 
L 257.734673 267.984677 
L 260.793604 264.348142 
L 263.852535 266.935189 
L 266.911466 265.837194 
L 269.970397 270.037078 
L 273.029328 268.040567 
L 276.088259 270.718239 
L 279.14719 272.828577 
L 282.206122 271.157622 
L 285.265053 273.530715 
L 288.323984 275.532559 
L 291.382915 271.920547 
L 294.441846 274.716137 
L 297.500777 276.845951 
L 300.559708 277.859928 
L 303.618639 275.544215 
L 306.67757 279.577412 
L 309.736501 277.096743 
L 312.795432 278.858209 
L 315.854363 278.141142 
L 318.913294 280.125245 
L 321.972225 278.642681 
L 325.031156 283.034431 
L 328.090087 279.62224 
L 331.149018 281.651273 
L 334.207949 282.556908 
L 337.26688 282.382939 
L 340.325811 279.931234 
L 343.384742 284.825741 
L 346.443673 283.143836 
L 349.502604 285.862165 
L 352.561535 282.400367 
L 355.620466 283.56622 
L 358.679397 285.389674 
L 361.738328 283.018437 
L 367.85619 284.842786 
L 370.915121 286.009111 
L 373.974052 283.371937 
L 377.032983 285.080511 
L 380.091914 286.179705 
L 383.150845 287.824098 
L 386.209776 286.92829 
L 389.268707 286.847095 
L 392.327638 284.506886 
L 395.386569 286.556705 
L 398.4455 286.539141 
L 401.504431 288.47612 
L 404.563362 287.456035 
L 407.622293 288.871266 
L 410.681224 287.017129 
L 413.740155 287.886139 
L 416.799086 288.417038 
L 419.858017 287.691103 
L 422.916948 282.39531 
L 425.975879 289.378505 
L 429.03481 289.020922 
L 432.093741 287.765201 
L 435.152672 288.734304 
L 438.211603 289.505611 
L 441.270534 288.225423 
L 444.329466 289.023912 
L 447.388397 289.673116 
L 450.447328 290.087156 
L 453.506259 290.717726 
L 456.56519 287.710308 
L 459.624121 288.600032 
L 462.683052 288.001529 
L 465.741983 288.753451 
L 468.800914 290.51195 
L 471.859845 289.580314 
L 474.918776 290.465073 
L 477.977707 288.305181 
L 481.036638 289.428532 
L 484.095569 290.208143 
L 487.1545 291.308115 
L 490.213431 291.312327 
L 493.272362 289.769207 
L 496.331293 291.337162 
L 499.390224 289.767913 
L 502.449155 290.435269 
L 505.508086 288.329968 
L 508.567017 290.348996 
L 511.625948 289.634921 
L 514.684879 289.943146 
L 517.74381 290.644649 
L 520.802741 292.001434 
L 523.861672 290.297953 
L 529.979534 291.40493 
L 533.038465 291.043245 
L 536.097396 291.466962 
L 539.156327 291.156659 
L 542.215258 289.642598 
L 545.274189 290.936895 
L 548.33312 291.184841 
L 551.392051 290.055175 
L 554.450982 291.230032 
L 557.509913 291.79501 
L 560.568844 291.689345 
L 563.627775 290.754492 
L 566.686706 290.826443 
L 572.804568 292.025582 
L 575.863499 290.839094 
L 578.92243 288.394143 
L 581.981361 291.711427 
L 585.040292 291.018877 
L 588.099223 292.852347 
L 591.158154 292.232479 
L 594.217085 291.862434 
L 597.276016 291.300546 
L 600.334947 291.189426 
L 603.393878 291.637644 
L 606.45281 290.695641 
L 609.511741 290.779686 
L 612.570672 289.883399 
L 615.629603 293.016641 
L 618.688534 291.462954 
L 621.747465 292.209242 
L 624.806396 290.721196 
L 627.865327 290.644298 
L 630.924258 292.212044 
L 633.983189 292.770732 
L 637.04212 291.479225 
L 640.101051 293.652552 
L 643.159982 292.39497 
L 646.218913 292.98511 
L 649.277844 291.755231 
L 652.336775 293.018483 
L 655.395706 290.467025 
L 658.454637 290.850305 
L 661.513568 290.144318 
L 664.572499 292.038433 
L 667.63143 292.514707 
L 670.690361 292.557492 
L 673.749292 293.945783 
L 676.808223 291.157048 
L 679.867154 292.54092 
L 682.926085 293.574395 
L 685.985016 293.227381 
L 689.043947 291.415215 
L 692.102878 291.718238 
L 695.161809 292.623906 
L 698.22074 292.349551 
L 701.279671 292.471136 
L 704.338602 289.491201 
L 707.397533 291.75042 
L 710.456464 293.131328 
L 713.515395 291.860555 
L 716.574326 291.24515 
L 719.633257 291.747483 
L 722.692188 292.80771 
L 725.751119 293.708771 
L 728.81005 294.250909 
L 731.868981 294.192324 
L 734.927912 293.587036 
L 737.986843 291.660659 
L 741.045774 290.687633 
L 744.104705 292.574143 
L 747.163636 293.942913 
L 747.163636 293.942913 
" clip-path="url(#pe4c8c21d9f)" style="fill: none; stroke: #ff0000; stroke-width: 1.75; stroke-linecap: round"/>
   </g>
   <g id="line2d_16">
    <path d="M 138.436364 110.9912 
L 141.495295 131.939243 
L 144.554226 143.982743 
L 147.613157 161.994456 
L 153.731019 179.633901 
L 156.78995 186.981141 
L 159.848881 195.572426 
L 162.907812 194.154711 
L 165.966743 206.081701 
L 169.025674 204.74562 
L 172.084605 204.415904 
L 175.143536 209.004383 
L 178.202467 216.506438 
L 181.261398 216.528138 
L 184.320329 225.94128 
L 187.37926 221.356989 
L 193.497122 225.659564 
L 196.556053 222.803236 
L 199.614984 220.131899 
L 202.673915 232.198866 
L 208.791777 233.545579 
L 211.850708 239.7851 
L 214.909639 228.32507 
L 217.96857 238.819384 
L 221.027501 238.456918 
L 224.086432 239.018376 
L 227.145363 238.73014 
L 230.204294 236.792287 
L 233.263225 242.083227 
L 236.322156 236.901523 
L 239.381087 241.032885 
L 242.440018 242.991754 
L 245.498949 236.785313 
L 248.55788 236.451209 
L 251.616811 244.207425 
L 254.675742 241.492458 
L 257.734673 243.272162 
L 260.793604 245.198787 
L 263.852535 239.824812 
L 266.911466 248.21522 
L 269.970397 233.926953 
L 273.029328 246.700601 
L 276.088259 248.863265 
L 279.14719 243.561293 
L 285.265053 248.225855 
L 288.323984 234.528736 
L 291.382915 246.969858 
L 294.441846 244.372271 
L 297.500777 247.982267 
L 300.559708 243.105283 
L 303.618639 244.791166 
L 306.67757 241.822934 
L 309.736501 248.038328 
L 312.795432 245.276639 
L 315.854363 242.827385 
L 318.913294 241.899844 
L 321.972225 244.455801 
L 325.031156 240.466108 
L 328.090087 242.396915 
L 331.149018 242.739171 
L 334.207949 238.080651 
L 337.26688 236.840682 
L 340.325811 239.882567 
L 343.384742 235.095413 
L 346.443673 239.888745 
L 349.502604 236.562512 
L 352.561535 233.791658 
L 355.620466 240.360141 
L 358.679397 236.411667 
L 361.738328 235.523067 
L 364.797259 244.897745 
L 367.85619 240.88902 
L 370.915121 220.160715 
L 373.974052 244.52589 
L 377.032983 241.961427 
L 380.091914 243.623307 
L 383.150845 235.022662 
L 386.209776 242.103218 
L 389.268707 240.607899 
L 392.327638 234.124343 
L 395.386569 235.155795 
L 398.4455 243.130806 
L 401.504431 230.359629 
L 404.563362 238.440572 
L 407.622293 238.380968 
L 410.681224 230.23482 
L 413.740155 233.943805 
L 416.799086 240.348472 
L 419.858017 237.686448 
L 422.916948 236.569881 
L 425.975879 238.789396 
L 429.03481 233.794922 
L 432.093741 231.871942 
L 435.152672 236.261093 
L 438.211603 236.933054 
L 441.270534 238.563715 
L 444.329466 235.080022 
L 447.388397 230.701656 
L 450.447328 236.161264 
L 453.506259 231.319013 
L 456.56519 235.738582 
L 459.624121 233.035461 
L 462.683052 236.365635 
L 465.741983 234.958222 
L 468.800914 241.668431 
L 471.859845 235.750881 
L 474.918776 225.324076 
L 477.977707 237.269184 
L 481.036638 230.48656 
L 484.095569 234.781719 
L 487.1545 238.295753 
L 490.213431 220.852302 
L 493.272362 224.895709 
L 496.331293 234.963759 
L 499.390224 229.147186 
L 502.449155 227.656078 
L 505.508086 235.669377 
L 508.567017 232.042785 
L 511.625948 221.913582 
L 514.684879 227.292405 
L 517.74381 222.017558 
L 520.802741 236.15012 
L 523.861672 226.820679 
L 526.920603 237.187739 
L 529.979534 229.716696 
L 533.038465 233.561023 
L 536.097396 227.121256 
L 539.156327 236.572638 
L 542.215258 225.882595 
L 545.274189 228.676068 
L 548.33312 230.369125 
L 551.392051 237.333471 
L 554.450982 223.324458 
L 557.509913 229.428925 
L 560.568844 234.541748 
L 563.627775 226.990862 
L 566.686706 230.787266 
L 569.745637 229.103286 
L 572.804568 224.385479 
L 575.863499 221.246681 
L 578.92243 235.673447 
L 581.981361 237.998546 
L 585.040292 235.777051 
L 588.099223 232.092729 
L 591.158154 227.964389 
L 594.217085 219.854283 
L 597.276016 230.341222 
L 600.334947 227.181691 
L 603.393878 221.485781 
L 606.45281 229.294297 
L 609.511741 228.096679 
L 612.570672 222.514782 
L 615.629603 220.717632 
L 618.688534 227.759094 
L 621.747465 220.212155 
L 624.806396 221.843081 
L 627.865327 228.166603 
L 630.924258 228.082902 
L 633.983189 226.101461 
L 637.04212 233.105997 
L 640.101051 230.415805 
L 643.159982 233.046428 
L 646.218913 220.625466 
L 649.277844 224.6624 
L 652.336775 225.773542 
L 655.395706 222.731475 
L 658.454637 225.395066 
L 661.513568 227.712525 
L 664.572499 232.44041 
L 667.63143 212.192601 
L 670.690361 223.088174 
L 673.749292 222.855807 
L 676.808223 220.807058 
L 679.867154 229.73905 
L 682.926085 224.363119 
L 685.985016 215.832917 
L 689.043947 222.227954 
L 692.102878 229.191269 
L 695.161809 212.987875 
L 698.22074 227.488699 
L 701.279671 213.383709 
L 704.338602 201.395225 
L 707.397533 229.124709 
L 710.456464 215.439556 
L 713.515395 218.863563 
L 716.574326 228.456489 
L 719.633257 224.523901 
L 722.692188 227.341565 
L 725.751119 223.956859 
L 728.81005 224.116787 
L 731.868981 217.127972 
L 734.927912 215.06528 
L 737.986843 216.105574 
L 741.045774 221.220269 
L 744.104705 230.659629 
L 747.163636 220.577289 
L 747.163636 220.577289 
" clip-path="url(#pe4c8c21d9f)" style="fill: none; stroke: #008000; stroke-width: 1.75; stroke-linecap: round"/>
   </g>
   <g id="patch_3">
    <path d="M 108 304.56 
L 108 77.76 
" style="fill: none"/>
   </g>
   <g id="patch_4">
    <path d="M 777.6 304.56 
L 777.6 77.76 
" style="fill: none"/>
   </g>
   <g id="patch_5">
    <path d="M 108 304.56 
L 777.6 304.56 
" style="fill: none"/>
   </g>
   <g id="patch_6">
    <path d="M 108 77.76 
L 777.6 77.76 
" style="fill: none"/>
   </g>
  </g>
  <g id="axes_2">
   <g id="patch_7">
    <path d="M 108 576.72 
L 777.6 576.72 
L 777.6 349.92 
L 108 349.92 
z
" style="fill: #eaeaf2"/>
   </g>
   <g id="matplotlib.axis_3">
    <g id="xtick_10">
     <g id="line2d_17"/>
     <g id="text_15">
      <!-- 0 -->
      <g style="fill: #262626" transform="translate(135.655895 590.966875)scale(0.1 -0.1)">
       <use xlink:href="#LiberationSans-30"/>
      </g>
     </g>
    </g>
    <g id="xtick_11">
     <g id="line2d_18"/>
     <g id="text_16">
      <!-- 25 -->
      <g style="fill: #262626" transform="translate(209.348702 590.966875)scale(0.1 -0.1)">
       <use xlink:href="#LiberationSans-32"/>
       <use xlink:href="#LiberationSans-35" x="55.615234"/>
      </g>
     </g>
    </g>
    <g id="xtick_12">
     <g id="line2d_19"/>
     <g id="text_17">
      <!-- 50 -->
      <g style="fill: #262626" transform="translate(285.821977 590.966875)scale(0.1 -0.1)">
       <use xlink:href="#LiberationSans-35"/>
       <use xlink:href="#LiberationSans-30" x="55.615234"/>
      </g>
     </g>
    </g>
    <g id="xtick_13">
     <g id="line2d_20"/>
     <g id="text_18">
      <!-- 75 -->
      <g style="fill: #262626" transform="translate(362.295253 590.966875)scale(0.1 -0.1)">
       <use xlink:href="#LiberationSans-37"/>
       <use xlink:href="#LiberationSans-35" x="55.615234"/>
      </g>
     </g>
    </g>
    <g id="xtick_14">
     <g id="line2d_21"/>
     <g id="text_19">
      <!-- 100 -->
      <g style="fill: #262626" transform="translate(435.988059 590.966875)scale(0.1 -0.1)">
       <use xlink:href="#LiberationSans-31"/>
       <use xlink:href="#LiberationSans-30" x="55.615234"/>
       <use xlink:href="#LiberationSans-30" x="111.230469"/>
      </g>
     </g>
    </g>
    <g id="xtick_15">
     <g id="line2d_22"/>
     <g id="text_20">
      <!-- 125 -->
      <g style="fill: #262626" transform="translate(512.461335 590.966875)scale(0.1 -0.1)">
       <use xlink:href="#LiberationSans-31"/>
       <use xlink:href="#LiberationSans-32" x="55.615234"/>
       <use xlink:href="#LiberationSans-35" x="111.230469"/>
      </g>
     </g>
    </g>
    <g id="xtick_16">
     <g id="line2d_23"/>
     <g id="text_21">
      <!-- 150 -->
      <g style="fill: #262626" transform="translate(588.93461 590.966875)scale(0.1 -0.1)">
       <use xlink:href="#LiberationSans-31"/>
       <use xlink:href="#LiberationSans-35" x="55.615234"/>
       <use xlink:href="#LiberationSans-30" x="111.230469"/>
      </g>
     </g>
    </g>
    <g id="xtick_17">
     <g id="line2d_24"/>
     <g id="text_22">
      <!-- 175 -->
      <g style="fill: #262626" transform="translate(665.407886 590.966875)scale(0.1 -0.1)">
       <use xlink:href="#LiberationSans-31"/>
       <use xlink:href="#LiberationSans-37" x="55.615234"/>
       <use xlink:href="#LiberationSans-35" x="111.230469"/>
      </g>
     </g>
    </g>
    <g id="xtick_18">
     <g id="line2d_25"/>
     <g id="text_23">
      <!-- 200 -->
      <g style="fill: #262626" transform="translate(741.881161 590.966875)scale(0.1 -0.1)">
       <use xlink:href="#LiberationSans-32"/>
       <use xlink:href="#LiberationSans-30" x="55.615234"/>
       <use xlink:href="#LiberationSans-30" x="111.230469"/>
      </g>
     </g>
    </g>
   </g>
   <g id="matplotlib.axis_4">
    <g id="ytick_6">
     <g id="line2d_26"/>
     <g id="text_24">
      <!-- 0.3 -->
      <g style="fill: #262626" transform="translate(87.1 564.209763)scale(0.1 -0.1)">
       <defs>
        <path id="LiberationSans-33" d="M 3278 1216 
Q 3278 913 3179 675 
Q 3081 438 2892 273 
Q 2703 109 2423 23 
Q 2144 -63 1784 -63 
Q 1375 -63 1095 39 
Q 816 141 634 308 
Q 453 475 362 689 
Q 272 903 244 1131 
L 825 1184 
Q 850 1009 917 865 
Q 984 722 1100 619 
Q 1216 516 1384 459 
Q 1553 403 1784 403 
Q 2209 403 2451 612 
Q 2694 822 2694 1234 
Q 2694 1478 2586 1626 
Q 2478 1775 2317 1858 
Q 2156 1941 1967 1969 
Q 1778 1997 1619 1997 
L 1300 1997 
L 1300 2484 
L 1606 2484 
Q 1766 2484 1937 2517 
Q 2109 2550 2251 2636 
Q 2394 2722 2486 2869 
Q 2578 3016 2578 3244 
Q 2578 3597 2370 3801 
Q 2163 4006 1753 4006 
Q 1381 4006 1151 3815 
Q 922 3625 884 3278 
L 319 3322 
Q 353 3613 478 3828 
Q 603 4044 795 4186 
Q 988 4328 1234 4398 
Q 1481 4469 1759 4469 
Q 2128 4469 2393 4376 
Q 2659 4284 2828 4126 
Q 2997 3969 3076 3756 
Q 3156 3544 3156 3303 
Q 3156 3109 3103 2940 
Q 3050 2772 2937 2637 
Q 2825 2503 2651 2406 
Q 2478 2309 2234 2259 
L 2234 2247 
Q 2500 2219 2697 2126 
Q 2894 2034 3022 1896 
Q 3150 1759 3214 1584 
Q 3278 1409 3278 1216 
z
" transform="scale(0.015625)"/>
       </defs>
       <use xlink:href="#LiberationSans-30"/>
       <use xlink:href="#LiberationSans-2e" x="55.615234"/>
       <use xlink:href="#LiberationSans-33" x="83.398438"/>
      </g>
     </g>
    </g>
    <g id="ytick_7">
     <g id="line2d_27"/>
     <g id="text_25">
      <!-- 0.4 -->
      <g style="fill: #262626" transform="translate(87.1 535.396364)scale(0.1 -0.1)">
       <defs>
        <path id="LiberationSans-34" d="M 2753 997 
L 2753 0 
L 2222 0 
L 2222 997 
L 147 997 
L 147 1434 
L 2163 4403 
L 2753 4403 
L 2753 1441 
L 3372 1441 
L 3372 997 
L 2753 997 
z
M 2222 3769 
Q 2216 3753 2191 3708 
Q 2166 3663 2134 3606 
Q 2103 3550 2070 3492 
Q 2038 3434 2013 3397 
L 884 1734 
Q 869 1709 839 1668 
Q 809 1628 778 1586 
Q 747 1544 715 1503 
Q 684 1463 666 1441 
L 2222 1441 
L 2222 3769 
z
" transform="scale(0.015625)"/>
       </defs>
       <use xlink:href="#LiberationSans-30"/>
       <use xlink:href="#LiberationSans-2e" x="55.615234"/>
       <use xlink:href="#LiberationSans-34" x="83.398438"/>
      </g>
     </g>
    </g>
    <g id="ytick_8">
     <g id="line2d_28"/>
     <g id="text_26">
      <!-- 0.5 -->
      <g style="fill: #262626" transform="translate(87.1 506.582965)scale(0.1 -0.1)">
       <use xlink:href="#LiberationSans-30"/>
       <use xlink:href="#LiberationSans-2e" x="55.615234"/>
       <use xlink:href="#LiberationSans-35" x="83.398438"/>
      </g>
     </g>
    </g>
    <g id="ytick_9">
     <g id="line2d_29"/>
     <g id="text_27">
      <!-- 0.6 -->
      <g style="fill: #262626" transform="translate(87.1 477.769566)scale(0.1 -0.1)">
       <defs>
        <path id="LiberationSans-36" d="M 3278 1441 
Q 3278 1109 3186 832 
Q 3094 556 2914 357 
Q 2734 159 2468 48 
Q 2203 -63 1856 -63 
Q 1472 -63 1184 84 
Q 897 231 706 507 
Q 516 784 420 1186 
Q 325 1588 325 2100 
Q 325 2688 433 3131 
Q 541 3575 744 3872 
Q 947 4169 1239 4319 
Q 1531 4469 1900 4469 
Q 2125 4469 2322 4422 
Q 2519 4375 2680 4270 
Q 2841 4166 2962 3994 
Q 3084 3822 3156 3572 
L 2619 3475 
Q 2531 3759 2339 3886 
Q 2147 4013 1894 4013 
Q 1663 4013 1475 3903 
Q 1288 3794 1156 3576 
Q 1025 3359 954 3031 
Q 884 2703 884 2266 
Q 1038 2550 1316 2698 
Q 1594 2847 1953 2847 
Q 2253 2847 2497 2750 
Q 2741 2653 2914 2470 
Q 3088 2288 3183 2027 
Q 3278 1766 3278 1441 
z
M 2706 1416 
Q 2706 1644 2650 1828 
Q 2594 2013 2481 2142 
Q 2369 2272 2203 2342 
Q 2038 2413 1819 2413 
Q 1666 2413 1509 2367 
Q 1353 2322 1226 2220 
Q 1100 2119 1020 1953 
Q 941 1788 941 1550 
Q 941 1306 1003 1095 
Q 1066 884 1183 728 
Q 1300 572 1465 481 
Q 1631 391 1838 391 
Q 2041 391 2202 461 
Q 2363 531 2475 664 
Q 2588 797 2647 987 
Q 2706 1178 2706 1416 
z
" transform="scale(0.015625)"/>
       </defs>
       <use xlink:href="#LiberationSans-30"/>
       <use xlink:href="#LiberationSans-2e" x="55.615234"/>
       <use xlink:href="#LiberationSans-36" x="83.398438"/>
      </g>
     </g>
    </g>
    <g id="ytick_10">
     <g id="line2d_30"/>
     <g id="text_28">
      <!-- 0.7 -->
      <g style="fill: #262626" transform="translate(87.1 448.956167)scale(0.1 -0.1)">
       <use xlink:href="#LiberationSans-30"/>
       <use xlink:href="#LiberationSans-2e" x="55.615234"/>
       <use xlink:href="#LiberationSans-37" x="83.398438"/>
      </g>
     </g>
    </g>
    <g id="ytick_11">
     <g id="line2d_31"/>
     <g id="text_29">
      <!-- 0.8 -->
      <g style="fill: #262626" transform="translate(87.1 420.142768)scale(0.1 -0.1)">
       <defs>
        <path id="LiberationSans-38" d="M 3281 1228 
Q 3281 947 3192 711 
Q 3103 475 2920 303 
Q 2738 131 2453 34 
Q 2169 -63 1781 -63 
Q 1394 -63 1111 34 
Q 828 131 642 301 
Q 456 472 367 708 
Q 278 944 278 1222 
Q 278 1463 351 1650 
Q 425 1838 548 1973 
Q 672 2109 830 2192 
Q 988 2275 1156 2303 
L 1156 2316 
Q 972 2359 826 2456 
Q 681 2553 582 2689 
Q 484 2825 432 2990 
Q 381 3156 381 3341 
Q 381 3572 470 3776 
Q 559 3981 734 4136 
Q 909 4291 1168 4380 
Q 1428 4469 1769 4469 
Q 2128 4469 2392 4378 
Q 2656 4288 2829 4133 
Q 3003 3978 3087 3772 
Q 3172 3566 3172 3334 
Q 3172 3153 3120 2987 
Q 3069 2822 2970 2686 
Q 2872 2550 2726 2454 
Q 2581 2359 2391 2322 
L 2391 2309 
Q 2581 2278 2743 2195 
Q 2906 2113 3025 1977 
Q 3144 1841 3212 1653 
Q 3281 1466 3281 1228 
z
M 2588 3303 
Q 2588 3469 2545 3606 
Q 2503 3744 2406 3842 
Q 2309 3941 2153 3995 
Q 1997 4050 1769 4050 
Q 1547 4050 1394 3995 
Q 1241 3941 1142 3842 
Q 1044 3744 1000 3606 
Q 956 3469 956 3303 
Q 956 3172 990 3034 
Q 1025 2897 1115 2784 
Q 1206 2672 1365 2600 
Q 1525 2528 1775 2528 
Q 2041 2528 2202 2600 
Q 2363 2672 2448 2784 
Q 2534 2897 2561 3034 
Q 2588 3172 2588 3303 
z
M 2697 1281 
Q 2697 1441 2653 1589 
Q 2609 1738 2503 1852 
Q 2397 1966 2217 2036 
Q 2038 2106 1769 2106 
Q 1522 2106 1348 2036 
Q 1175 1966 1067 1850 
Q 959 1734 909 1582 
Q 859 1431 859 1269 
Q 859 1066 909 898 
Q 959 731 1068 611 
Q 1178 491 1356 425 
Q 1534 359 1788 359 
Q 2044 359 2219 425 
Q 2394 491 2500 611 
Q 2606 731 2651 901 
Q 2697 1072 2697 1281 
z
" transform="scale(0.015625)"/>
       </defs>
       <use xlink:href="#LiberationSans-30"/>
       <use xlink:href="#LiberationSans-2e" x="55.615234"/>
       <use xlink:href="#LiberationSans-38" x="83.398438"/>
      </g>
     </g>
    </g>
    <g id="ytick_12">
     <g id="line2d_32"/>
     <g id="text_30">
      <!-- 0.9 -->
      <g style="fill: #262626" transform="translate(87.1 391.329368)scale(0.1 -0.1)">
       <defs>
        <path id="LiberationSans-39" d="M 3256 2291 
Q 3256 1703 3145 1261 
Q 3034 819 2828 525 
Q 2622 231 2326 84 
Q 2031 -63 1663 -63 
Q 1409 -63 1206 -11 
Q 1003 41 843 150 
Q 684 259 571 434 
Q 459 609 391 856 
L 928 941 
Q 1016 656 1202 523 
Q 1388 391 1672 391 
Q 1900 391 2089 498 
Q 2278 606 2411 822 
Q 2544 1038 2619 1363 
Q 2694 1688 2700 2125 
Q 2634 1978 2520 1862 
Q 2406 1747 2261 1667 
Q 2116 1588 1947 1545 
Q 1778 1503 1606 1503 
Q 1306 1503 1064 1611 
Q 822 1719 653 1912 
Q 484 2106 392 2379 
Q 300 2653 300 2988 
Q 300 3328 398 3603 
Q 497 3878 684 4070 
Q 872 4263 1145 4366 
Q 1419 4469 1766 4469 
Q 2500 4469 2878 3925 
Q 3256 3381 3256 2291 
z
M 2644 2834 
Q 2644 3078 2586 3293 
Q 2528 3509 2414 3668 
Q 2300 3828 2133 3920 
Q 1966 4013 1747 4013 
Q 1544 4013 1381 3941 
Q 1219 3869 1106 3736 
Q 994 3603 933 3412 
Q 872 3222 872 2988 
Q 872 2766 926 2575 
Q 981 2384 1090 2245 
Q 1200 2106 1362 2026 
Q 1525 1947 1741 1947 
Q 1897 1947 2058 2000 
Q 2219 2053 2348 2162 
Q 2478 2272 2561 2439 
Q 2644 2606 2644 2834 
z
" transform="scale(0.015625)"/>
       </defs>
       <use xlink:href="#LiberationSans-30"/>
       <use xlink:href="#LiberationSans-2e" x="55.615234"/>
       <use xlink:href="#LiberationSans-39" x="83.398438"/>
      </g>
     </g>
    </g>
    <g id="ytick_13">
     <g id="line2d_33"/>
     <g id="text_31">
      <!-- 1.0 -->
      <g style="fill: #262626" transform="translate(87.1 362.515969)scale(0.1 -0.1)">
       <use xlink:href="#LiberationSans-31"/>
       <use xlink:href="#LiberationSans-2e" x="55.615234"/>
       <use xlink:href="#LiberationSans-30" x="83.398438"/>
      </g>
     </g>
    </g>
   </g>
   <g id="line2d_34">
    <path d="M 138.436364 566.410909 
L 141.495295 528.846566 
L 144.554226 512.526476 
L 147.613157 497.19122 
L 150.672088 486.709783 
L 153.731019 470.389694 
L 156.78995 471.093146 
L 159.848881 466.028291 
L 162.907812 458.360663 
L 165.966743 454.773057 
L 169.025674 447.738535 
L 172.084605 441.970228 
L 175.143536 440.844705 
L 178.202467 436.201921 
L 181.261398 433.388112 
L 184.320329 432.332934 
L 187.37926 432.332934 
L 190.438191 426.916352 
L 193.497122 423.750818 
L 196.556053 423.610127 
L 199.614984 418.896998 
L 202.673915 421.640462 
L 205.732846 413.902488 
L 208.791777 413.339726 
L 211.850708 409.61143 
L 214.909639 408.626597 
L 217.96857 411.22937 
L 221.027501 401.873457 
L 224.086432 404.054158 
L 227.145363 405.038991 
L 230.204294 397.230673 
L 233.263225 401.029314 
L 236.322156 396.24584 
L 239.381087 396.316185 
L 242.440018 395.401697 
L 245.498949 394.065138 
L 248.55788 395.120316 
L 251.616811 388.296831 
L 254.675742 390.125806 
L 257.734673 385.553367 
L 260.793604 389.914771 
L 263.852535 386.39751 
L 266.911466 385.975439 
L 269.970397 382.598869 
L 273.029328 384.287154 
L 276.088259 383.583701 
L 279.14719 381.262309 
L 282.206122 382.458178 
L 285.265053 379.574024 
L 288.323984 378.518846 
L 291.382915 382.036107 
L 294.441846 379.151953 
L 297.500777 376.900906 
L 300.559708 376.197454 
L 303.618639 378.378156 
L 306.67757 375.071931 
L 309.736501 377.463668 
L 312.795432 375.845728 
L 315.854363 375.212621 
L 318.913294 372.961574 
L 321.972225 374.860895 
L 325.031156 370.429147 
L 328.090087 374.298133 
L 334.207949 371.273289 
L 337.26688 371.625015 
L 340.325811 374.579514 
L 343.384742 369.373969 
L 346.443673 371.55467 
L 349.502604 367.896719 
L 352.561535 371.695361 
L 355.620466 370.640182 
L 358.679397 368.389136 
L 361.738328 371.273289 
L 364.797259 370.077421 
L 367.85619 369.444314 
L 370.915121 368.107755 
L 373.974052 370.780873 
L 377.032983 369.092588 
L 380.091914 368.389136 
L 383.150845 366.70085 
L 386.209776 367.333957 
L 389.268707 367.333957 
L 392.327638 370.077421 
L 395.386569 367.615338 
L 398.4455 368.1781 
L 401.504431 366.138089 
L 404.563362 367.193267 
L 407.622293 364.660839 
L 410.681224 367.756029 
L 413.740155 367.122922 
L 416.799086 366.067744 
L 419.858017 367.052577 
L 422.916948 370.569837 
L 425.975879 365.153256 
L 432.093741 366.982231 
L 435.152672 365.575327 
L 438.211603 364.80153 
L 441.270534 365.504982 
L 444.329466 365.575327 
L 450.447328 364.449804 
L 453.506259 362.972554 
L 456.56519 366.138089 
L 459.624121 364.94222 
L 462.683052 366.56016 
L 468.800914 363.816697 
L 471.859845 364.871875 
L 474.918776 363.887042 
L 477.977707 365.927053 
L 481.036638 365.223601 
L 484.095569 364.871875 
L 487.1545 363.535316 
L 490.213431 363.113245 
L 493.272362 363.957387 
L 496.331293 362.620828 
L 499.390224 364.238768 
L 502.449155 363.816697 
L 505.508086 365.364291 
L 508.567017 364.027732 
L 511.625948 364.660839 
L 514.684879 363.535316 
L 517.74381 363.535316 
L 520.802741 362.339447 
L 523.861672 363.042899 
L 526.920603 362.831864 
L 533.038465 363.32428 
L 536.097396 363.113245 
L 539.156327 363.113245 
L 542.215258 364.309113 
L 545.274189 363.32428 
L 548.33312 363.042899 
L 551.392051 364.168423 
L 554.450982 363.18359 
L 557.509913 363.18359 
L 560.568844 362.691173 
L 563.627775 364.098078 
L 566.686706 363.042899 
L 569.745637 363.042899 
L 572.804568 362.550483 
L 575.863499 363.887042 
L 578.92243 366.208434 
L 581.981361 362.550483 
L 585.040292 363.18359 
L 588.099223 361.42496 
L 591.158154 361.56565 
L 594.217085 362.691173 
L 597.276016 363.394625 
L 600.334947 363.32428 
L 603.393878 362.198757 
L 606.45281 363.605661 
L 609.511741 363.042899 
L 612.570672 364.098078 
L 615.629603 361.495305 
L 618.688534 362.902209 
L 621.747465 362.269102 
L 624.806396 363.18359 
L 627.865327 363.816697 
L 630.924258 362.198757 
L 633.983189 361.70634 
L 637.04212 362.761519 
L 640.101051 360.440127 
L 643.159982 361.917376 
L 646.218913 361.143579 
L 649.277844 362.339447 
L 652.336775 361.143579 
L 655.395706 362.831864 
L 658.454637 362.620828 
L 661.513568 363.394625 
L 667.63143 361.354614 
L 670.690361 362.198757 
L 673.749292 360.862198 
L 676.808223 363.253935 
L 679.867154 361.917376 
L 682.926085 361.284269 
L 685.985016 361.073233 
L 689.043947 362.902209 
L 695.161809 361.42496 
L 698.22074 361.776686 
L 701.279671 361.635995 
L 704.338602 364.871875 
L 707.397533 362.691173 
L 710.456464 361.354614 
L 713.515395 362.761519 
L 719.633257 362.128412 
L 722.692188 361.495305 
L 725.751119 360.721507 
L 728.81005 360.229091 
L 731.868981 360.229091 
L 734.927912 361.002888 
L 737.986843 362.480138 
L 741.045774 363.816697 
L 744.104705 361.917376 
L 747.163636 360.369781 
L 747.163636 360.369781 
" clip-path="url(#p07173d04ff)" style="fill: none; stroke: #ff0000; stroke-width: 1.75; stroke-linecap: round"/>
   </g>
   <g id="line2d_35">
    <path d="M 138.436364 533.431327 
L 141.495295 513.48985 
L 144.554226 508.504477 
L 147.613157 486.985995 
L 150.672088 478.032677 
L 153.731019 474.166473 
L 156.78995 465.009676 
L 159.848881 458.24381 
L 162.907812 459.05776 
L 165.966743 446.390848 
L 169.025674 449.137883 
L 172.084605 450.867506 
L 175.143536 447.662626 
L 178.202467 437.43753 
L 181.261398 437.4884 
L 184.320329 426.856346 
L 187.37926 433.418716 
L 190.438191 431.536484 
L 193.497122 430.519054 
L 196.556053 429.705121 
L 199.614984 431.841702 
L 202.673915 422.532297 
L 205.732846 420.650064 
L 208.791777 420.599194 
L 211.850708 414.952497 
L 214.909639 423.854945 
L 217.96857 416.580381 
L 221.027501 413.833328 
L 224.086432 413.578979 
L 227.145363 414.443782 
L 230.204294 413.833328 
L 233.263225 412.40894 
L 236.322156 417.241705 
L 239.381087 412.052852 
L 242.440018 410.679334 
L 245.498949 415.410342 
L 248.55788 415.817317 
L 251.616811 408.949711 
L 254.675742 411.238902 
L 257.734673 409.10232 
L 260.793604 405.744831 
L 263.852535 407.983151 
L 266.911466 404.218686 
L 269.970397 412.765046 
L 273.029328 404.320443 
L 276.088259 404.473052 
L 279.14719 406.81313 
L 285.265053 403.862598 
L 288.323984 413.731588 
L 291.382915 403.048665 
L 294.441846 404.829141 
L 297.500777 400.861197 
L 300.559708 405.693961 
L 303.618639 403.252144 
L 306.67757 406.507894 
L 309.736501 401.369911 
L 312.795432 403.608249 
L 315.854363 407.270958 
L 318.913294 403.709989 
L 321.972225 403.303014 
L 325.031156 403.608249 
L 328.090087 402.387341 
L 331.149018 402.234714 
L 334.207949 407.779672 
L 337.26688 407.474454 
L 340.325811 405.643091 
L 343.384742 407.932282 
L 346.443673 403.048665 
L 349.502604 403.557362 
L 352.561535 405.541352 
L 355.620466 401.726017 
L 358.679397 407.169218 
L 361.738328 408.797102 
L 364.797259 401.166432 
L 367.85619 402.285584 
L 370.915121 412.358071 
L 373.974052 400.199873 
L 377.032983 403.099535 
L 380.091914 401.878626 
L 383.150845 403.964338 
L 386.209776 401.064693 
L 389.268707 401.115563 
L 392.327638 407.627063 
L 395.386569 404.422183 
L 398.4455 399.2842 
L 401.504431 406.762243 
L 404.563362 402.285584 
L 407.622293 400.098133 
L 410.681224 405.236116 
L 413.740155 403.862598 
L 416.799086 400.912066 
L 419.858017 401.369911 
L 422.916948 402.692559 
L 425.975879 398.724615 
L 429.03481 403.964338 
L 432.093741 404.473052 
L 435.152672 402.285584 
L 438.211603 398.41938 
L 441.270534 402.132975 
L 444.329466 401.319042 
L 447.388397 403.048665 
L 450.447328 399.436809 
L 453.506259 401.57339 
L 456.56519 404.320443 
L 459.624121 404.015207 
L 465.741983 400.301612 
L 468.800914 400.708587 
L 471.859845 401.522521 
L 474.918776 404.930897 
L 477.977707 401.929496 
L 481.036638 402.48908 
L 484.095569 404.574792 
L 487.1545 399.080704 
L 490.213431 407.677933 
L 493.272362 405.84657 
L 496.331293 400.403369 
L 499.390224 405.7957 
L 502.449155 402.59082 
L 505.508086 402.031235 
L 508.567017 402.183845 
L 511.625948 403.964338 
L 514.684879 399.945524 
L 517.74381 404.574792 
L 520.802741 401.013806 
L 523.861672 406.507894 
L 526.920603 399.691158 
L 529.979534 401.369911 
L 533.038465 400.912066 
L 536.097396 402.48908 
L 539.156327 400.606848 
L 542.215258 403.811728 
L 545.274189 403.811728 
L 548.33312 399.589418 
L 551.392051 401.980366 
L 554.450982 403.709989 
L 560.568844 399.742045 
L 563.627775 403.913468 
L 566.686706 402.946908 
L 569.745637 402.845169 
L 572.804568 404.269573 
L 575.863499 404.930897 
L 578.92243 398.673746 
L 581.981361 398.928094 
L 585.040292 402.48908 
L 588.099223 400.403369 
L 591.158154 401.471651 
L 594.217085 400.759457 
L 597.276016 401.57339 
L 600.334947 401.726017 
L 603.393878 403.659119 
L 606.45281 400.657718 
L 609.511741 402.794299 
L 612.570672 403.709989 
L 615.629603 402.132975 
L 618.688534 400.250742 
L 621.747465 402.53995 
L 624.806396 403.506493 
L 627.865327 401.471651 
L 630.924258 399.894654 
L 633.983189 399.33507 
L 637.04212 399.538549 
L 640.101051 399.18246 
L 643.159982 399.742045 
L 646.218913 403.811728 
L 649.277844 402.53995 
L 652.336775 399.2842 
L 655.395706 406.100919 
L 658.454637 402.946908 
L 661.513568 404.422183 
L 664.572499 400.657718 
L 667.63143 403.964338 
L 670.690361 399.792915 
L 673.749292 399.894654 
L 676.808223 405.388725 
L 679.867154 401.064693 
L 682.926085 402.692559 
L 685.985016 399.843784 
L 689.043947 402.997795 
L 692.102878 402.692559 
L 695.161809 401.471651 
L 698.22074 399.843784 
L 701.279671 402.336471 
L 704.338602 409.967123 
L 707.397533 399.640288 
L 713.515395 403.709989 
L 716.574326 401.726017 
L 719.633257 401.878626 
L 722.692188 401.471651 
L 725.751119 396.893253 
L 728.81005 398.41938 
L 731.868981 397.707186 
L 734.927912 404.116947 
L 737.986843 404.320443 
L 741.045774 403.760859 
L 744.104705 398.775485 
L 747.163636 398.775485 
L 747.163636 398.775485 
" clip-path="url(#p07173d04ff)" style="fill: none; stroke: #008000; stroke-width: 1.75; stroke-linecap: round"/>
   </g>
   <g id="patch_8">
    <path d="M 108 576.72 
L 108 349.92 
" style="fill: none"/>
   </g>
   <g id="patch_9">
    <path d="M 777.6 576.72 
L 777.6 349.92 
" style="fill: none"/>
   </g>
   <g id="patch_10">
    <path d="M 108 576.72 
L 777.6 576.72 
" style="fill: none"/>
   </g>
   <g id="patch_11">
    <path d="M 108 349.92 
L 777.6 349.92 
" style="fill: none"/>
   </g>
  </g>
  <g id="text_32">
   <!-- Plots of model performance: mel_spectrogram, chatfield14 - lr 0.0001, batch 32, 128 steps/epoch -->
   <g style="fill: #262626" transform="translate(174.21 21.65625)scale(0.12 -0.12)">
    <defs>
     <path id="LiberationSans-50" d="M 3931 3078 
Q 3931 2791 3836 2542 
Q 3741 2294 3552 2111 
Q 3363 1928 3078 1822 
Q 2794 1716 2416 1716 
L 1122 1716 
L 1122 0 
L 525 0 
L 525 4403 
L 2378 4403 
Q 2769 4403 3059 4308 
Q 3350 4213 3544 4039 
Q 3738 3866 3834 3620 
Q 3931 3375 3931 3078 
z
M 3331 3072 
Q 3331 3491 3075 3708 
Q 2819 3925 2306 3925 
L 1122 3925 
L 1122 2188 
L 2331 2188 
Q 2847 2188 3089 2416 
Q 3331 2644 3331 3072 
z
" transform="scale(0.015625)"/>
     <path id="LiberationSans-6c" d="M 431 0 
L 431 4638 
L 994 4638 
L 994 0 
L 431 0 
z
" transform="scale(0.015625)"/>
     <path id="LiberationSans-6f" d="M 3291 1694 
Q 3291 806 2900 371 
Q 2509 -63 1766 -63 
Q 1413 -63 1134 43 
Q 856 150 664 369 
Q 472 588 370 917 
Q 269 1247 269 1694 
Q 269 3444 1784 3444 
Q 2178 3444 2464 3334 
Q 2750 3225 2933 3006 
Q 3116 2788 3203 2459 
Q 3291 2131 3291 1694 
z
M 2700 1694 
Q 2700 2088 2639 2344 
Q 2578 2600 2461 2753 
Q 2344 2906 2175 2967 
Q 2006 3028 1794 3028 
Q 1578 3028 1404 2964 
Q 1231 2900 1109 2745 
Q 988 2591 923 2334 
Q 859 2078 859 1694 
Q 859 1300 928 1042 
Q 997 784 1117 631 
Q 1238 478 1402 415 
Q 1566 353 1759 353 
Q 1975 353 2150 414 
Q 2325 475 2447 628 
Q 2569 781 2634 1040 
Q 2700 1300 2700 1694 
z
" transform="scale(0.015625)"/>
     <path id="LiberationSans-74" d="M 1731 25 
Q 1603 -9 1470 -29 
Q 1338 -50 1163 -50 
Q 488 -50 488 716 
L 488 2972 
L 97 2972 
L 97 3381 
L 509 3381 
L 675 4138 
L 1050 4138 
L 1050 3381 
L 1675 3381 
L 1675 2972 
L 1050 2972 
L 1050 838 
Q 1050 594 1129 495 
Q 1209 397 1406 397 
Q 1488 397 1564 409 
Q 1641 422 1731 441 
L 1731 25 
z
" transform="scale(0.015625)"/>
     <path id="LiberationSans-73" d="M 2969 934 
Q 2969 697 2876 511 
Q 2784 325 2609 198 
Q 2434 72 2179 4 
Q 1925 -63 1597 -63 
Q 1303 -63 1067 -17 
Q 831 28 653 128 
Q 475 228 354 392 
Q 234 556 178 794 
L 675 891 
Q 747 619 972 492 
Q 1197 366 1597 366 
Q 1778 366 1929 391 
Q 2081 416 2190 477 
Q 2300 538 2361 639 
Q 2422 741 2422 891 
Q 2422 1044 2350 1142 
Q 2278 1241 2150 1306 
Q 2022 1372 1839 1420 
Q 1656 1469 1438 1528 
Q 1234 1581 1034 1647 
Q 834 1713 673 1820 
Q 513 1928 413 2087 
Q 313 2247 313 2488 
Q 313 2950 642 3192 
Q 972 3434 1603 3434 
Q 2163 3434 2492 3237 
Q 2822 3041 2909 2606 
L 2403 2544 
Q 2375 2675 2300 2764 
Q 2225 2853 2119 2908 
Q 2013 2963 1880 2986 
Q 1747 3009 1603 3009 
Q 1222 3009 1040 2893 
Q 859 2778 859 2544 
Q 859 2406 926 2317 
Q 994 2228 1114 2167 
Q 1234 2106 1403 2061 
Q 1572 2016 1775 1966 
Q 1909 1931 2050 1892 
Q 2191 1853 2323 1798 
Q 2456 1744 2573 1670 
Q 2691 1597 2778 1494 
Q 2866 1391 2917 1253 
Q 2969 1116 2969 934 
z
" transform="scale(0.015625)"/>
     <path id="LiberationSans-20" transform="scale(0.015625)"/>
     <path id="LiberationSans-66" d="M 1128 2972 
L 1128 0 
L 566 0 
L 566 2972 
L 91 2972 
L 91 3381 
L 566 3381 
L 566 3763 
Q 566 3947 600 4105 
Q 634 4263 726 4380 
Q 819 4497 978 4564 
Q 1138 4631 1391 4631 
Q 1491 4631 1598 4622 
Q 1706 4613 1788 4594 
L 1788 4166 
Q 1734 4175 1664 4183 
Q 1594 4191 1538 4191 
Q 1413 4191 1333 4156 
Q 1253 4122 1208 4058 
Q 1163 3994 1145 3900 
Q 1128 3806 1128 3684 
L 1128 3381 
L 1788 3381 
L 1788 2972 
L 1128 2972 
z
" transform="scale(0.015625)"/>
     <path id="LiberationSans-6d" d="M 2400 0 
L 2400 2144 
Q 2400 2391 2369 2556 
Q 2338 2722 2264 2823 
Q 2191 2925 2072 2967 
Q 1953 3009 1781 3009 
Q 1603 3009 1459 2939 
Q 1316 2869 1214 2736 
Q 1113 2603 1058 2408 
Q 1003 2213 1003 1959 
L 1003 0 
L 444 0 
L 444 2659 
Q 444 2766 442 2883 
Q 441 3000 437 3104 
Q 434 3209 431 3284 
Q 428 3359 425 3381 
L 956 3381 
Q 959 3366 962 3297 
Q 966 3228 970 3139 
Q 975 3050 978 2958 
Q 981 2866 981 2803 
L 991 2803 
Q 1066 2950 1153 3069 
Q 1241 3188 1358 3270 
Q 1475 3353 1626 3398 
Q 1778 3444 1978 3444 
Q 2363 3444 2586 3291 
Q 2809 3138 2897 2803 
L 2906 2803 
Q 2981 2950 3075 3069 
Q 3169 3188 3294 3270 
Q 3419 3353 3575 3398 
Q 3731 3444 3931 3444 
Q 4188 3444 4373 3375 
Q 4559 3306 4678 3162 
Q 4797 3019 4853 2792 
Q 4909 2566 4909 2253 
L 4909 0 
L 4353 0 
L 4353 2144 
Q 4353 2391 4322 2556 
Q 4291 2722 4217 2823 
Q 4144 2925 4025 2967 
Q 3906 3009 3734 3009 
Q 3556 3009 3412 2942 
Q 3269 2875 3167 2744 
Q 3066 2613 3011 2416 
Q 2956 2219 2956 1959 
L 2956 0 
L 2400 0 
z
" transform="scale(0.015625)"/>
     <path id="LiberationSans-64" d="M 2566 544 
Q 2409 219 2151 78 
Q 1894 -63 1513 -63 
Q 872 -63 570 368 
Q 269 800 269 1675 
Q 269 3444 1513 3444 
Q 1897 3444 2153 3303 
Q 2409 3163 2566 2856 
L 2572 2856 
Q 2572 2888 2570 2955 
Q 2569 3022 2567 3095 
Q 2566 3169 2566 3234 
Q 2566 3300 2566 3328 
L 2566 4638 
L 3128 4638 
L 3128 697 
Q 3128 575 3129 462 
Q 3131 350 3134 256 
Q 3138 163 3141 95 
Q 3144 28 3147 0 
L 2609 0 
Q 2603 31 2598 89 
Q 2594 147 2589 222 
Q 2584 297 2581 380 
Q 2578 463 2578 544 
L 2566 544 
z
M 859 1694 
Q 859 1344 903 1094 
Q 947 844 1044 683 
Q 1141 522 1291 447 
Q 1441 372 1656 372 
Q 1878 372 2048 444 
Q 2219 516 2333 677 
Q 2447 838 2506 1097 
Q 2566 1356 2566 1731 
Q 2566 2091 2506 2339 
Q 2447 2588 2331 2741 
Q 2216 2894 2048 2961 
Q 1881 3028 1663 3028 
Q 1456 3028 1306 2956 
Q 1156 2884 1056 2725 
Q 956 2566 907 2311 
Q 859 2056 859 1694 
z
" transform="scale(0.015625)"/>
     <path id="LiberationSans-65" d="M 863 1572 
Q 863 1306 917 1082 
Q 972 859 1086 698 
Q 1200 538 1378 448 
Q 1556 359 1806 359 
Q 2172 359 2392 506 
Q 2613 653 2691 878 
L 3184 738 
Q 3131 597 3036 455 
Q 2941 313 2781 198 
Q 2622 84 2383 10 
Q 2144 -63 1806 -63 
Q 1056 -63 664 384 
Q 272 831 272 1713 
Q 272 2188 390 2517 
Q 509 2847 715 3053 
Q 922 3259 1197 3351 
Q 1472 3444 1784 3444 
Q 2209 3444 2495 3306 
Q 2781 3169 2954 2926 
Q 3128 2684 3201 2356 
Q 3275 2028 3275 1647 
L 3275 1572 
L 863 1572 
z
M 2694 2003 
Q 2647 2538 2422 2783 
Q 2197 3028 1775 3028 
Q 1634 3028 1479 2983 
Q 1325 2938 1194 2822 
Q 1063 2706 972 2507 
Q 881 2309 869 2003 
L 2694 2003 
z
" transform="scale(0.015625)"/>
     <path id="LiberationSans-70" d="M 3291 1706 
Q 3291 1322 3228 997 
Q 3166 672 3020 437 
Q 2875 203 2636 70 
Q 2397 -63 2047 -63 
Q 1684 -63 1412 75 
Q 1141 213 997 525 
L 981 525 
Q 984 519 986 469 
Q 988 419 989 344 
Q 991 269 992 176 
Q 994 84 994 -6 
L 994 -1328 
L 431 -1328 
L 431 2691 
Q 431 2813 429 2925 
Q 428 3038 425 3130 
Q 422 3222 419 3287 
Q 416 3353 413 3381 
L 956 3381 
Q 959 3372 964 3315 
Q 969 3259 973 3179 
Q 978 3100 983 3009 
Q 988 2919 988 2838 
L 1000 2838 
Q 1078 3000 1178 3114 
Q 1278 3228 1406 3301 
Q 1534 3375 1692 3408 
Q 1850 3441 2047 3441 
Q 2397 3441 2636 3316 
Q 2875 3191 3020 2964 
Q 3166 2738 3228 2417 
Q 3291 2097 3291 1706 
z
M 2700 1694 
Q 2700 2006 2662 2250 
Q 2625 2494 2533 2662 
Q 2441 2831 2287 2918 
Q 2134 3006 1903 3006 
Q 1716 3006 1550 2953 
Q 1384 2900 1261 2750 
Q 1138 2600 1066 2336 
Q 994 2072 994 1650 
Q 994 1291 1053 1042 
Q 1113 794 1227 641 
Q 1341 488 1509 420 
Q 1678 353 1897 353 
Q 2131 353 2286 443 
Q 2441 534 2533 706 
Q 2625 878 2662 1126 
Q 2700 1375 2700 1694 
z
" transform="scale(0.015625)"/>
     <path id="LiberationSans-72" d="M 444 0 
L 444 2594 
Q 444 2700 442 2811 
Q 441 2922 437 3025 
Q 434 3128 431 3218 
Q 428 3309 425 3381 
L 956 3381 
Q 959 3309 964 3217 
Q 969 3125 973 3028 
Q 978 2931 979 2842 
Q 981 2753 981 2691 
L 994 2691 
Q 1053 2884 1120 3026 
Q 1188 3169 1278 3261 
Q 1369 3353 1494 3398 
Q 1619 3444 1797 3444 
Q 1866 3444 1928 3433 
Q 1991 3422 2025 3413 
L 2025 2897 
Q 1969 2913 1894 2920 
Q 1819 2928 1725 2928 
Q 1531 2928 1395 2840 
Q 1259 2753 1173 2598 
Q 1088 2444 1047 2230 
Q 1006 2016 1006 1763 
L 1006 0 
L 444 0 
z
" transform="scale(0.015625)"/>
     <path id="LiberationSans-61" d="M 1294 -63 
Q 784 -63 528 206 
Q 272 475 272 944 
Q 272 1278 398 1492 
Q 525 1706 729 1828 
Q 934 1950 1196 1997 
Q 1459 2044 1731 2050 
L 2491 2063 
L 2491 2247 
Q 2491 2456 2447 2603 
Q 2403 2750 2312 2840 
Q 2222 2931 2086 2973 
Q 1950 3016 1766 3016 
Q 1603 3016 1472 2992 
Q 1341 2969 1244 2908 
Q 1147 2847 1087 2742 
Q 1028 2638 1009 2478 
L 422 2531 
Q 453 2731 540 2898 
Q 628 3066 789 3187 
Q 950 3309 1192 3376 
Q 1434 3444 1778 3444 
Q 2416 3444 2737 3151 
Q 3059 2859 3059 2306 
L 3059 850 
Q 3059 600 3125 473 
Q 3191 347 3375 347 
Q 3422 347 3469 353 
Q 3516 359 3559 369 
L 3559 19 
Q 3453 -6 3348 -18 
Q 3244 -31 3125 -31 
Q 2966 -31 2852 11 
Q 2738 53 2666 139 
Q 2594 225 2556 351 
Q 2519 478 2509 647 
L 2491 647 
Q 2400 484 2292 353 
Q 2184 222 2040 130 
Q 1897 38 1714 -12 
Q 1531 -63 1294 -63 
z
M 1422 359 
Q 1691 359 1892 457 
Q 2094 556 2226 709 
Q 2359 863 2425 1044 
Q 2491 1225 2491 1391 
L 2491 1669 
L 1875 1656 
Q 1669 1653 1483 1626 
Q 1297 1600 1156 1522 
Q 1016 1444 933 1303 
Q 850 1163 850 934 
Q 850 659 998 509 
Q 1147 359 1422 359 
z
" transform="scale(0.015625)"/>
     <path id="LiberationSans-6e" d="M 2578 0 
L 2578 2144 
Q 2578 2391 2542 2556 
Q 2506 2722 2425 2823 
Q 2344 2925 2211 2967 
Q 2078 3009 1881 3009 
Q 1681 3009 1520 2939 
Q 1359 2869 1245 2736 
Q 1131 2603 1068 2408 
Q 1006 2213 1006 1959 
L 1006 0 
L 444 0 
L 444 2659 
Q 444 2766 442 2883 
Q 441 3000 437 3104 
Q 434 3209 431 3284 
Q 428 3359 425 3381 
L 956 3381 
Q 959 3366 962 3297 
Q 966 3228 970 3139 
Q 975 3050 978 2958 
Q 981 2866 981 2803 
L 991 2803 
Q 1072 2950 1169 3069 
Q 1266 3188 1394 3270 
Q 1522 3353 1687 3398 
Q 1853 3444 2072 3444 
Q 2353 3444 2556 3375 
Q 2759 3306 2890 3162 
Q 3022 3019 3083 2792 
Q 3144 2566 3144 2253 
L 3144 0 
L 2578 0 
z
" transform="scale(0.015625)"/>
     <path id="LiberationSans-63" d="M 859 1706 
Q 859 1416 901 1172 
Q 944 928 1044 751 
Q 1144 575 1308 478 
Q 1472 381 1713 381 
Q 2013 381 2214 543 
Q 2416 706 2463 1044 
L 3031 1006 
Q 3003 797 2909 603 
Q 2816 409 2655 262 
Q 2494 116 2262 26 
Q 2031 -63 1728 -63 
Q 1331 -63 1053 71 
Q 775 206 601 442 
Q 428 678 350 998 
Q 272 1319 272 1694 
Q 272 2034 328 2295 
Q 384 2556 486 2751 
Q 588 2947 725 3080 
Q 863 3213 1023 3292 
Q 1184 3372 1362 3408 
Q 1541 3444 1722 3444 
Q 2006 3444 2228 3366 
Q 2450 3288 2611 3152 
Q 2772 3016 2872 2831 
Q 2972 2647 3013 2434 
L 2434 2391 
Q 2391 2672 2212 2837 
Q 2034 3003 1706 3003 
Q 1466 3003 1305 2923 
Q 1144 2844 1044 2683 
Q 944 2522 901 2278 
Q 859 2034 859 1706 
z
" transform="scale(0.015625)"/>
     <path id="LiberationSans-3a" d="M 584 2734 
L 584 3381 
L 1194 3381 
L 1194 2734 
L 584 2734 
z
M 584 0 
L 584 647 
L 1194 647 
L 1194 0 
L 584 0 
z
" transform="scale(0.015625)"/>
     <path id="LiberationSans-5f" d="M -97 -1272 
L -97 -866 
L 3631 -866 
L 3631 -1272 
L -97 -1272 
z
" transform="scale(0.015625)"/>
     <path id="LiberationSans-67" d="M 1713 -1328 
Q 1422 -1328 1197 -1268 
Q 972 -1209 812 -1098 
Q 653 -988 553 -834 
Q 453 -681 409 -494 
L 975 -413 
Q 1031 -647 1223 -773 
Q 1416 -900 1728 -900 
Q 1919 -900 2075 -847 
Q 2231 -794 2340 -676 
Q 2450 -559 2509 -371 
Q 2569 -184 2569 84 
L 2569 628 
L 2563 628 
Q 2500 500 2408 383 
Q 2316 266 2183 175 
Q 2050 84 1875 29 
Q 1700 -25 1475 -25 
Q 1153 -25 923 83 
Q 694 191 548 406 
Q 403 622 336 942 
Q 269 1263 269 1684 
Q 269 2091 336 2416 
Q 403 2741 554 2967 
Q 706 3194 948 3314 
Q 1191 3434 1538 3434 
Q 1897 3434 2161 3270 
Q 2425 3106 2569 2803 
L 2575 2803 
Q 2575 2881 2579 2978 
Q 2584 3075 2589 3161 
Q 2594 3247 2600 3309 
Q 2606 3372 2613 3381 
L 3147 3381 
Q 3144 3353 3141 3286 
Q 3138 3219 3134 3125 
Q 3131 3031 3129 2917 
Q 3128 2803 3128 2681 
L 3128 97 
Q 3128 -613 2779 -970 
Q 2431 -1328 1713 -1328 
z
M 2569 1691 
Q 2569 2044 2492 2295 
Q 2416 2547 2291 2706 
Q 2166 2866 2005 2941 
Q 1844 3016 1675 3016 
Q 1459 3016 1304 2941 
Q 1150 2866 1048 2705 
Q 947 2544 898 2292 
Q 850 2041 850 1691 
Q 850 1325 898 1076 
Q 947 828 1047 675 
Q 1147 522 1300 456 
Q 1453 391 1666 391 
Q 1834 391 1995 462 
Q 2156 534 2284 690 
Q 2413 847 2491 1094 
Q 2569 1341 2569 1691 
z
" transform="scale(0.015625)"/>
     <path id="LiberationSans-2c" d="M 1203 684 
L 1203 159 
Q 1203 -6 1189 -142 
Q 1175 -278 1144 -395 
Q 1113 -513 1067 -616 
Q 1022 -719 959 -819 
L 575 -819 
Q 716 -616 792 -409 
Q 869 -203 869 0 
L 594 0 
L 594 684 
L 1203 684 
z
" transform="scale(0.015625)"/>
     <path id="LiberationSans-68" d="M 991 2803 
Q 1084 2975 1193 3095 
Q 1303 3216 1434 3294 
Q 1566 3372 1722 3408 
Q 1878 3444 2072 3444 
Q 2397 3444 2605 3356 
Q 2813 3269 2933 3111 
Q 3053 2953 3098 2734 
Q 3144 2516 3144 2253 
L 3144 0 
L 2578 0 
L 2578 2144 
Q 2578 2359 2551 2521 
Q 2525 2684 2450 2792 
Q 2375 2900 2237 2954 
Q 2100 3009 1881 3009 
Q 1681 3009 1520 2937 
Q 1359 2866 1245 2734 
Q 1131 2603 1068 2415 
Q 1006 2228 1006 1994 
L 1006 0 
L 444 0 
L 444 4638 
L 1006 4638 
L 1006 3431 
Q 1006 3328 1003 3225 
Q 1000 3122 995 3034 
Q 991 2947 987 2886 
Q 984 2825 981 2803 
L 991 2803 
z
" transform="scale(0.015625)"/>
     <path id="LiberationSans-69" d="M 428 4100 
L 428 4638 
L 991 4638 
L 991 4100 
L 428 4100 
z
M 428 0 
L 428 3381 
L 991 3381 
L 991 0 
L 428 0 
z
" transform="scale(0.015625)"/>
     <path id="LiberationSans-2d" d="M 284 1450 
L 284 1950 
L 1847 1950 
L 1847 1450 
L 284 1450 
z
" transform="scale(0.015625)"/>
     <path id="LiberationSans-62" d="M 3291 1706 
Q 3291 -63 2047 -63 
Q 1663 -63 1408 76 
Q 1153 216 994 525 
L 988 525 
Q 988 444 983 356 
Q 978 269 973 194 
Q 969 119 964 66 
Q 959 13 956 0 
L 413 0 
Q 416 28 419 95 
Q 422 163 425 256 
Q 428 350 429 462 
Q 431 575 431 697 
L 431 4638 
L 994 4638 
L 994 3316 
Q 994 3222 992 3136 
Q 991 3050 988 2984 
Q 984 2906 981 2838 
L 994 2838 
Q 1150 3163 1408 3303 
Q 1666 3444 2047 3444 
Q 2688 3444 2989 3012 
Q 3291 2581 3291 1706 
z
M 2700 1688 
Q 2700 2038 2656 2288 
Q 2613 2538 2516 2698 
Q 2419 2859 2269 2934 
Q 2119 3009 1903 3009 
Q 1681 3009 1511 2937 
Q 1341 2866 1227 2706 
Q 1113 2547 1053 2287 
Q 994 2028 994 1653 
Q 994 1291 1053 1044 
Q 1113 797 1227 642 
Q 1341 488 1509 420 
Q 1678 353 1897 353 
Q 2103 353 2253 425 
Q 2403 497 2503 656 
Q 2603 816 2651 1070 
Q 2700 1325 2700 1688 
z
" transform="scale(0.015625)"/>
     <path id="LiberationSans-2f" d="M 0 -63 
L 1284 4638 
L 1778 4638 
L 506 -63 
L 0 -63 
z
" transform="scale(0.015625)"/>
    </defs>
    <use xlink:href="#LiberationSans-50"/>
    <use xlink:href="#LiberationSans-6c" x="66.699219"/>
    <use xlink:href="#LiberationSans-6f" x="88.916016"/>
    <use xlink:href="#LiberationSans-74" x="144.53125"/>
    <use xlink:href="#LiberationSans-73" x="172.314453"/>
    <use xlink:href="#LiberationSans-20" x="222.314453"/>
    <use xlink:href="#LiberationSans-6f" x="250.097656"/>
    <use xlink:href="#LiberationSans-66" x="305.712891"/>
    <use xlink:href="#LiberationSans-20" x="333.496094"/>
    <use xlink:href="#LiberationSans-6d" x="361.279297"/>
    <use xlink:href="#LiberationSans-6f" x="444.580078"/>
    <use xlink:href="#LiberationSans-64" x="500.195312"/>
    <use xlink:href="#LiberationSans-65" x="555.810547"/>
    <use xlink:href="#LiberationSans-6c" x="611.425781"/>
    <use xlink:href="#LiberationSans-20" x="633.642578"/>
    <use xlink:href="#LiberationSans-70" x="661.425781"/>
    <use xlink:href="#LiberationSans-65" x="717.041016"/>
    <use xlink:href="#LiberationSans-72" x="772.65625"/>
    <use xlink:href="#LiberationSans-66" x="805.957031"/>
    <use xlink:href="#LiberationSans-6f" x="833.740234"/>
    <use xlink:href="#LiberationSans-72" x="889.355469"/>
    <use xlink:href="#LiberationSans-6d" x="922.65625"/>
    <use xlink:href="#LiberationSans-61" x="1005.957031"/>
    <use xlink:href="#LiberationSans-6e" x="1061.572266"/>
    <use xlink:href="#LiberationSans-63" x="1117.1875"/>
    <use xlink:href="#LiberationSans-65" x="1167.1875"/>
    <use xlink:href="#LiberationSans-3a" x="1222.802734"/>
    <use xlink:href="#LiberationSans-20" x="1250.585938"/>
    <use xlink:href="#LiberationSans-6d" x="1278.369141"/>
    <use xlink:href="#LiberationSans-65" x="1361.669922"/>
    <use xlink:href="#LiberationSans-6c" x="1417.285156"/>
    <use xlink:href="#LiberationSans-5f" x="1439.501953"/>
    <use xlink:href="#LiberationSans-73" x="1495.117188"/>
    <use xlink:href="#LiberationSans-70" x="1545.117188"/>
    <use xlink:href="#LiberationSans-65" x="1600.732422"/>
    <use xlink:href="#LiberationSans-63" x="1656.347656"/>
    <use xlink:href="#LiberationSans-74" x="1706.347656"/>
    <use xlink:href="#LiberationSans-72" x="1734.130859"/>
    <use xlink:href="#LiberationSans-6f" x="1767.431641"/>
    <use xlink:href="#LiberationSans-67" x="1823.046875"/>
    <use xlink:href="#LiberationSans-72" x="1878.662109"/>
    <use xlink:href="#LiberationSans-61" x="1911.962891"/>
    <use xlink:href="#LiberationSans-6d" x="1967.578125"/>
    <use xlink:href="#LiberationSans-2c" x="2050.878906"/>
    <use xlink:href="#LiberationSans-20" x="2078.662109"/>
    <use xlink:href="#LiberationSans-63" x="2106.445312"/>
    <use xlink:href="#LiberationSans-68" x="2156.445312"/>
    <use xlink:href="#LiberationSans-61" x="2212.060547"/>
    <use xlink:href="#LiberationSans-74" x="2267.675781"/>
    <use xlink:href="#LiberationSans-66" x="2295.458984"/>
    <use xlink:href="#LiberationSans-69" x="2323.242188"/>
    <use xlink:href="#LiberationSans-65" x="2345.458984"/>
    <use xlink:href="#LiberationSans-6c" x="2401.074219"/>
    <use xlink:href="#LiberationSans-64" x="2423.291016"/>
    <use xlink:href="#LiberationSans-31" x="2478.90625"/>
    <use xlink:href="#LiberationSans-34" x="2534.521484"/>
    <use xlink:href="#LiberationSans-20" x="2590.136719"/>
    <use xlink:href="#LiberationSans-2d" x="2617.919922"/>
    <use xlink:href="#LiberationSans-20" x="2651.220703"/>
    <use xlink:href="#LiberationSans-6c" x="2679.003906"/>
    <use xlink:href="#LiberationSans-72" x="2701.220703"/>
    <use xlink:href="#LiberationSans-20" x="2734.521484"/>
    <use xlink:href="#LiberationSans-30" x="2762.304688"/>
    <use xlink:href="#LiberationSans-2e" x="2817.919922"/>
    <use xlink:href="#LiberationSans-30" x="2845.703125"/>
    <use xlink:href="#LiberationSans-30" x="2901.318359"/>
    <use xlink:href="#LiberationSans-30" x="2956.933594"/>
    <use xlink:href="#LiberationSans-31" x="3012.548828"/>
    <use xlink:href="#LiberationSans-2c" x="3068.164062"/>
    <use xlink:href="#LiberationSans-20" x="3095.947266"/>
    <use xlink:href="#LiberationSans-62" x="3123.730469"/>
    <use xlink:href="#LiberationSans-61" x="3179.345703"/>
    <use xlink:href="#LiberationSans-74" x="3234.960938"/>
    <use xlink:href="#LiberationSans-63" x="3262.744141"/>
    <use xlink:href="#LiberationSans-68" x="3312.744141"/>
    <use xlink:href="#LiberationSans-20" x="3368.359375"/>
    <use xlink:href="#LiberationSans-33" x="3396.142578"/>
    <use xlink:href="#LiberationSans-32" x="3451.757812"/>
    <use xlink:href="#LiberationSans-2c" x="3507.373047"/>
    <use xlink:href="#LiberationSans-20" x="3535.15625"/>
    <use xlink:href="#LiberationSans-31" x="3562.939453"/>
    <use xlink:href="#LiberationSans-32" x="3618.554688"/>
    <use xlink:href="#LiberationSans-38" x="3674.169922"/>
    <use xlink:href="#LiberationSans-20" x="3729.785156"/>
    <use xlink:href="#LiberationSans-73" x="3757.568359"/>
    <use xlink:href="#LiberationSans-74" x="3807.568359"/>
    <use xlink:href="#LiberationSans-65" x="3835.351562"/>
    <use xlink:href="#LiberationSans-70" x="3890.966797"/>
    <use xlink:href="#LiberationSans-73" x="3946.582031"/>
    <use xlink:href="#LiberationSans-2f" x="3996.582031"/>
    <use xlink:href="#LiberationSans-65" x="4024.365234"/>
    <use xlink:href="#LiberationSans-70" x="4079.980469"/>
    <use xlink:href="#LiberationSans-6f" x="4135.595703"/>
    <use xlink:href="#LiberationSans-63" x="4191.210938"/>
    <use xlink:href="#LiberationSans-68" x="4241.210938"/>
   </g>
  </g>
 </g>
 <defs>
  <clipPath id="pe4c8c21d9f">
   <rect x="108" y="77.76" width="669.6" height="226.8"/>
  </clipPath>
  <clipPath id="p07173d04ff">
   <rect x="108" y="349.92" width="669.6" height="226.8"/>
  </clipPath>
 </defs>
</svg>
