<?xml version="1.0" encoding="utf-8" standalone="no"?>
<!DOCTYPE svg PUBLIC "-//W3C//DTD SVG 1.1//EN"
  "http://www.w3.org/Graphics/SVG/1.1/DTD/svg11.dtd">
<svg xmlns:xlink="http://www.w3.org/1999/xlink" width="1152pt" height="864pt" viewBox="0 0 1152 864" xmlns="http://www.w3.org/2000/svg" version="1.1">
 <metadata>
  <rdf:RDF xmlns:dc="http://purl.org/dc/elements/1.1/" xmlns:cc="http://creativecommons.org/ns#" xmlns:rdf="http://www.w3.org/1999/02/22-rdf-syntax-ns#">
   <cc:Work>
    <dc:type rdf:resource="http://purl.org/dc/dcmitype/StillImage"/>
    <dc:date>2022-03-12T02:19:42.889025</dc:date>
    <dc:format>image/svg+xml</dc:format>
    <dc:creator>
     <cc:Agent>
      <dc:title>Matplotlib v3.5.0, https://matplotlib.org/</dc:title>
     </cc:Agent>
    </dc:creator>
   </cc:Work>
  </rdf:RDF>
 </metadata>
 <defs>
  <style type="text/css">*{stroke-linejoin: round; stroke-linecap: butt}</style>
 </defs>
 <g id="figure_1">
  <g id="patch_1">
   <path d="M 0 864 
L 1152 864 
L 1152 0 
L 0 0 
z
" style="fill: #ffffff"/>
  </g>
  <g id="axes_1">
   <g id="patch_2">
    <path d="M 144 406.08 
L 1036.8 406.08 
L 1036.8 103.68 
L 144 103.68 
z
" style="fill: #eaeaf2"/>
   </g>
   <g id="matplotlib.axis_1">
    <g id="xtick_1">
     <g id="line2d_1"/>
     <g id="text_1">
      <!-- 0 -->
      <g style="fill: #262626" transform="translate(181.801349 420.326875)scale(0.1 -0.1)">
       <defs>
        <path id="LiberationSans-30" d="M 3309 2203 
Q 3309 1569 3189 1136 
Q 3069 703 2861 436 
Q 2653 169 2372 53 
Q 2091 -63 1772 -63 
Q 1450 -63 1172 53 
Q 894 169 689 434 
Q 484 700 367 1133 
Q 250 1566 250 2203 
Q 250 2869 367 3305 
Q 484 3741 690 4000 
Q 897 4259 1178 4364 
Q 1459 4469 1791 4469 
Q 2106 4469 2382 4364 
Q 2659 4259 2865 4000 
Q 3072 3741 3190 3305 
Q 3309 2869 3309 2203 
z
M 2738 2203 
Q 2738 2728 2675 3076 
Q 2613 3425 2491 3633 
Q 2369 3841 2192 3927 
Q 2016 4013 1791 4013 
Q 1553 4013 1372 3925 
Q 1191 3838 1067 3630 
Q 944 3422 881 3073 
Q 819 2725 819 2203 
Q 819 1697 883 1350 
Q 947 1003 1070 792 
Q 1194 581 1372 489 
Q 1550 397 1778 397 
Q 2000 397 2178 489 
Q 2356 581 2479 792 
Q 2603 1003 2670 1350 
Q 2738 1697 2738 2203 
z
" transform="scale(0.015625)"/>
       </defs>
       <use xlink:href="#LiberationSans-30"/>
      </g>
     </g>
    </g>
    <g id="xtick_2">
     <g id="line2d_2"/>
     <g id="text_2">
      <!-- 20 -->
      <g style="fill: #262626" transform="translate(287.965359 420.326875)scale(0.1 -0.1)">
       <defs>
        <path id="LiberationSans-32" d="M 322 0 
L 322 397 
Q 481 763 711 1042 
Q 941 1322 1194 1548 
Q 1447 1775 1695 1969 
Q 1944 2163 2144 2356 
Q 2344 2550 2467 2762 
Q 2591 2975 2591 3244 
Q 2591 3431 2534 3573 
Q 2478 3716 2372 3812 
Q 2266 3909 2117 3957 
Q 1969 4006 1788 4006 
Q 1619 4006 1470 3959 
Q 1322 3913 1206 3819 
Q 1091 3725 1017 3586 
Q 944 3447 922 3263 
L 347 3316 
Q 375 3553 478 3762 
Q 581 3972 762 4130 
Q 944 4288 1198 4378 
Q 1453 4469 1788 4469 
Q 2116 4469 2372 4391 
Q 2628 4313 2804 4159 
Q 2981 4006 3075 3781 
Q 3169 3556 3169 3263 
Q 3169 3041 3089 2841 
Q 3009 2641 2876 2459 
Q 2744 2278 2569 2109 
Q 2394 1941 2203 1780 
Q 2013 1619 1819 1461 
Q 1625 1303 1454 1143 
Q 1284 984 1150 820 
Q 1016 656 941 478 
L 3238 478 
L 3238 0 
L 322 0 
z
" transform="scale(0.015625)"/>
       </defs>
       <use xlink:href="#LiberationSans-32"/>
       <use xlink:href="#LiberationSans-30" x="55.615234"/>
      </g>
     </g>
    </g>
    <g id="xtick_3">
     <g id="line2d_3"/>
     <g id="text_3">
      <!-- 40 -->
      <g style="fill: #262626" transform="translate(396.909837 420.326875)scale(0.1 -0.1)">
       <defs>
        <path id="LiberationSans-34" d="M 2753 997 
L 2753 0 
L 2222 0 
L 2222 997 
L 147 997 
L 147 1434 
L 2163 4403 
L 2753 4403 
L 2753 1441 
L 3372 1441 
L 3372 997 
L 2753 997 
z
M 2222 3769 
Q 2216 3753 2191 3708 
Q 2166 3663 2134 3606 
Q 2103 3550 2070 3492 
Q 2038 3434 2013 3397 
L 884 1734 
Q 869 1709 839 1668 
Q 809 1628 778 1586 
Q 747 1544 715 1503 
Q 684 1463 666 1441 
L 2222 1441 
L 2222 3769 
z
" transform="scale(0.015625)"/>
       </defs>
       <use xlink:href="#LiberationSans-34"/>
       <use xlink:href="#LiberationSans-30" x="55.615234"/>
      </g>
     </g>
    </g>
    <g id="xtick_4">
     <g id="line2d_4"/>
     <g id="text_4">
      <!-- 60 -->
      <g style="fill: #262626" transform="translate(505.854316 420.326875)scale(0.1 -0.1)">
       <defs>
        <path id="LiberationSans-36" d="M 3278 1441 
Q 3278 1109 3186 832 
Q 3094 556 2914 357 
Q 2734 159 2468 48 
Q 2203 -63 1856 -63 
Q 1472 -63 1184 84 
Q 897 231 706 507 
Q 516 784 420 1186 
Q 325 1588 325 2100 
Q 325 2688 433 3131 
Q 541 3575 744 3872 
Q 947 4169 1239 4319 
Q 1531 4469 1900 4469 
Q 2125 4469 2322 4422 
Q 2519 4375 2680 4270 
Q 2841 4166 2962 3994 
Q 3084 3822 3156 3572 
L 2619 3475 
Q 2531 3759 2339 3886 
Q 2147 4013 1894 4013 
Q 1663 4013 1475 3903 
Q 1288 3794 1156 3576 
Q 1025 3359 954 3031 
Q 884 2703 884 2266 
Q 1038 2550 1316 2698 
Q 1594 2847 1953 2847 
Q 2253 2847 2497 2750 
Q 2741 2653 2914 2470 
Q 3088 2288 3183 2027 
Q 3278 1766 3278 1441 
z
M 2706 1416 
Q 2706 1644 2650 1828 
Q 2594 2013 2481 2142 
Q 2369 2272 2203 2342 
Q 2038 2413 1819 2413 
Q 1666 2413 1509 2367 
Q 1353 2322 1226 2220 
Q 1100 2119 1020 1953 
Q 941 1788 941 1550 
Q 941 1306 1003 1095 
Q 1066 884 1183 728 
Q 1300 572 1465 481 
Q 1631 391 1838 391 
Q 2041 391 2202 461 
Q 2363 531 2475 664 
Q 2588 797 2647 987 
Q 2706 1178 2706 1416 
z
" transform="scale(0.015625)"/>
       </defs>
       <use xlink:href="#LiberationSans-36"/>
       <use xlink:href="#LiberationSans-30" x="55.615234"/>
      </g>
     </g>
    </g>
    <g id="xtick_5">
     <g id="line2d_5"/>
     <g id="text_5">
      <!-- 80 -->
      <g style="fill: #262626" transform="translate(614.798794 420.326875)scale(0.1 -0.1)">
       <defs>
        <path id="LiberationSans-38" d="M 3281 1228 
Q 3281 947 3192 711 
Q 3103 475 2920 303 
Q 2738 131 2453 34 
Q 2169 -63 1781 -63 
Q 1394 -63 1111 34 
Q 828 131 642 301 
Q 456 472 367 708 
Q 278 944 278 1222 
Q 278 1463 351 1650 
Q 425 1838 548 1973 
Q 672 2109 830 2192 
Q 988 2275 1156 2303 
L 1156 2316 
Q 972 2359 826 2456 
Q 681 2553 582 2689 
Q 484 2825 432 2990 
Q 381 3156 381 3341 
Q 381 3572 470 3776 
Q 559 3981 734 4136 
Q 909 4291 1168 4380 
Q 1428 4469 1769 4469 
Q 2128 4469 2392 4378 
Q 2656 4288 2829 4133 
Q 3003 3978 3087 3772 
Q 3172 3566 3172 3334 
Q 3172 3153 3120 2987 
Q 3069 2822 2970 2686 
Q 2872 2550 2726 2454 
Q 2581 2359 2391 2322 
L 2391 2309 
Q 2581 2278 2743 2195 
Q 2906 2113 3025 1977 
Q 3144 1841 3212 1653 
Q 3281 1466 3281 1228 
z
M 2588 3303 
Q 2588 3469 2545 3606 
Q 2503 3744 2406 3842 
Q 2309 3941 2153 3995 
Q 1997 4050 1769 4050 
Q 1547 4050 1394 3995 
Q 1241 3941 1142 3842 
Q 1044 3744 1000 3606 
Q 956 3469 956 3303 
Q 956 3172 990 3034 
Q 1025 2897 1115 2784 
Q 1206 2672 1365 2600 
Q 1525 2528 1775 2528 
Q 2041 2528 2202 2600 
Q 2363 2672 2448 2784 
Q 2534 2897 2561 3034 
Q 2588 3172 2588 3303 
z
M 2697 1281 
Q 2697 1441 2653 1589 
Q 2609 1738 2503 1852 
Q 2397 1966 2217 2036 
Q 2038 2106 1769 2106 
Q 1522 2106 1348 2036 
Q 1175 1966 1067 1850 
Q 959 1734 909 1582 
Q 859 1431 859 1269 
Q 859 1066 909 898 
Q 959 731 1068 611 
Q 1178 491 1356 425 
Q 1534 359 1788 359 
Q 2044 359 2219 425 
Q 2394 491 2500 611 
Q 2606 731 2651 901 
Q 2697 1072 2697 1281 
z
" transform="scale(0.015625)"/>
       </defs>
       <use xlink:href="#LiberationSans-38"/>
       <use xlink:href="#LiberationSans-30" x="55.615234"/>
      </g>
     </g>
    </g>
    <g id="xtick_6">
     <g id="line2d_6"/>
     <g id="text_6">
      <!-- 100 -->
      <g style="fill: #262626" transform="translate(720.962804 420.326875)scale(0.1 -0.1)">
       <defs>
        <path id="LiberationSans-31" d="M 488 0 
L 488 478 
L 1609 478 
L 1609 3866 
L 616 3156 
L 616 3688 
L 1656 4403 
L 2175 4403 
L 2175 478 
L 3247 478 
L 3247 0 
L 488 0 
z
" transform="scale(0.015625)"/>
       </defs>
       <use xlink:href="#LiberationSans-31"/>
       <use xlink:href="#LiberationSans-30" x="55.615234"/>
       <use xlink:href="#LiberationSans-30" x="111.230469"/>
      </g>
     </g>
    </g>
    <g id="xtick_7">
     <g id="line2d_7"/>
     <g id="text_7">
      <!-- 120 -->
      <g style="fill: #262626" transform="translate(829.907282 420.326875)scale(0.1 -0.1)">
       <use xlink:href="#LiberationSans-31"/>
       <use xlink:href="#LiberationSans-32" x="55.615234"/>
       <use xlink:href="#LiberationSans-30" x="111.230469"/>
      </g>
     </g>
    </g>
    <g id="xtick_8">
     <g id="line2d_8"/>
     <g id="text_8">
      <!-- 140 -->
      <g style="fill: #262626" transform="translate(938.85176 420.326875)scale(0.1 -0.1)">
       <use xlink:href="#LiberationSans-31"/>
       <use xlink:href="#LiberationSans-34" x="55.615234"/>
       <use xlink:href="#LiberationSans-30" x="111.230469"/>
      </g>
     </g>
    </g>
   </g>
   <g id="matplotlib.axis_2">
    <g id="ytick_1">
     <g id="line2d_9"/>
     <g id="text_9">
      <!-- 0.25 -->
      <g style="fill: #262626" transform="translate(117.539062 385.585153)scale(0.1 -0.1)">
       <defs>
        <path id="LiberationSans-2e" d="M 584 0 
L 584 684 
L 1194 684 
L 1194 0 
L 584 0 
z
" transform="scale(0.015625)"/>
        <path id="LiberationSans-35" d="M 3291 1434 
Q 3291 1103 3191 828 
Q 3091 553 2894 354 
Q 2697 156 2405 46 
Q 2113 -63 1728 -63 
Q 1381 -63 1123 18 
Q 866 100 687 242 
Q 509 384 404 575 
Q 300 766 256 984 
L 825 1050 
Q 859 925 921 808 
Q 984 691 1092 598 
Q 1200 506 1358 451 
Q 1516 397 1741 397 
Q 1959 397 2137 464 
Q 2316 531 2442 662 
Q 2569 794 2637 984 
Q 2706 1175 2706 1422 
Q 2706 1625 2640 1795 
Q 2575 1966 2453 2089 
Q 2331 2213 2154 2281 
Q 1978 2350 1753 2350 
Q 1613 2350 1494 2325 
Q 1375 2300 1273 2256 
Q 1172 2213 1089 2155 
Q 1006 2097 934 2034 
L 384 2034 
L 531 4403 
L 3034 4403 
L 3034 3925 
L 1044 3925 
L 959 2528 
Q 1109 2644 1334 2726 
Q 1559 2809 1869 2809 
Q 2197 2809 2459 2709 
Q 2722 2609 2906 2426 
Q 3091 2244 3191 1991 
Q 3291 1738 3291 1434 
z
" transform="scale(0.015625)"/>
       </defs>
       <use xlink:href="#LiberationSans-30"/>
       <use xlink:href="#LiberationSans-2e" x="55.615234"/>
       <use xlink:href="#LiberationSans-32" x="83.398438"/>
       <use xlink:href="#LiberationSans-35" x="139.013672"/>
      </g>
     </g>
    </g>
    <g id="ytick_2">
     <g id="line2d_10"/>
     <g id="text_10">
      <!-- 0.50 -->
      <g style="fill: #262626" transform="translate(117.539062 351.551719)scale(0.1 -0.1)">
       <use xlink:href="#LiberationSans-30"/>
       <use xlink:href="#LiberationSans-2e" x="55.615234"/>
       <use xlink:href="#LiberationSans-35" x="83.398438"/>
       <use xlink:href="#LiberationSans-30" x="139.013672"/>
      </g>
     </g>
    </g>
    <g id="ytick_3">
     <g id="line2d_11"/>
     <g id="text_11">
      <!-- 0.75 -->
      <g style="fill: #262626" transform="translate(117.539062 317.518285)scale(0.1 -0.1)">
       <defs>
        <path id="LiberationSans-37" d="M 3238 3947 
Q 2906 3441 2628 2973 
Q 2350 2506 2150 2032 
Q 1950 1559 1839 1061 
Q 1728 563 1728 0 
L 1141 0 
Q 1141 528 1266 1036 
Q 1391 1544 1603 2033 
Q 1816 2522 2097 2994 
Q 2378 3466 2694 3925 
L 328 3925 
L 328 4403 
L 3238 4403 
L 3238 3947 
z
" transform="scale(0.015625)"/>
       </defs>
       <use xlink:href="#LiberationSans-30"/>
       <use xlink:href="#LiberationSans-2e" x="55.615234"/>
       <use xlink:href="#LiberationSans-37" x="83.398438"/>
       <use xlink:href="#LiberationSans-35" x="139.013672"/>
      </g>
     </g>
    </g>
    <g id="ytick_4">
     <g id="line2d_12"/>
     <g id="text_12">
      <!-- 1.00 -->
      <g style="fill: #262626" transform="translate(117.539062 283.48485)scale(0.1 -0.1)">
       <use xlink:href="#LiberationSans-31"/>
       <use xlink:href="#LiberationSans-2e" x="55.615234"/>
       <use xlink:href="#LiberationSans-30" x="83.398438"/>
       <use xlink:href="#LiberationSans-30" x="139.013672"/>
      </g>
     </g>
    </g>
    <g id="ytick_5">
     <g id="line2d_13"/>
     <g id="text_13">
      <!-- 1.25 -->
      <g style="fill: #262626" transform="translate(117.539062 249.451416)scale(0.1 -0.1)">
       <use xlink:href="#LiberationSans-31"/>
       <use xlink:href="#LiberationSans-2e" x="55.615234"/>
       <use xlink:href="#LiberationSans-32" x="83.398438"/>
       <use xlink:href="#LiberationSans-35" x="139.013672"/>
      </g>
     </g>
    </g>
    <g id="ytick_6">
     <g id="line2d_14"/>
     <g id="text_14">
      <!-- 1.50 -->
      <g style="fill: #262626" transform="translate(117.539062 215.417982)scale(0.1 -0.1)">
       <use xlink:href="#LiberationSans-31"/>
       <use xlink:href="#LiberationSans-2e" x="55.615234"/>
       <use xlink:href="#LiberationSans-35" x="83.398438"/>
       <use xlink:href="#LiberationSans-30" x="139.013672"/>
      </g>
     </g>
    </g>
    <g id="ytick_7">
     <g id="line2d_15"/>
     <g id="text_15">
      <!-- 1.75 -->
      <g style="fill: #262626" transform="translate(117.539062 181.384548)scale(0.1 -0.1)">
       <use xlink:href="#LiberationSans-31"/>
       <use xlink:href="#LiberationSans-2e" x="55.615234"/>
       <use xlink:href="#LiberationSans-37" x="83.398438"/>
       <use xlink:href="#LiberationSans-35" x="139.013672"/>
      </g>
     </g>
    </g>
    <g id="ytick_8">
     <g id="line2d_16"/>
     <g id="text_16">
      <!-- 2.00 -->
      <g style="fill: #262626" transform="translate(117.539062 147.351114)scale(0.1 -0.1)">
       <use xlink:href="#LiberationSans-32"/>
       <use xlink:href="#LiberationSans-2e" x="55.615234"/>
       <use xlink:href="#LiberationSans-30" x="83.398438"/>
       <use xlink:href="#LiberationSans-30" x="139.013672"/>
      </g>
     </g>
    </g>
    <g id="ytick_9">
     <g id="line2d_17"/>
     <g id="text_17">
      <!-- 2.25 -->
      <g style="fill: #262626" transform="translate(117.539062 113.317679)scale(0.1 -0.1)">
       <use xlink:href="#LiberationSans-32"/>
       <use xlink:href="#LiberationSans-2e" x="55.615234"/>
       <use xlink:href="#LiberationSans-32" x="83.398438"/>
       <use xlink:href="#LiberationSans-35" x="139.013672"/>
      </g>
     </g>
    </g>
   </g>
   <g id="line2d_18">
    <path d="M 184.581818 117.425455 
L 190.029042 151.424046 
L 195.476266 160.40053 
L 200.92349 171.836493 
L 206.370714 180.761093 
L 211.817938 187.080532 
L 217.265162 198.417502 
L 222.712386 204.776765 
L 228.15961 209.581785 
L 233.606833 210.040092 
L 239.054057 219.732085 
L 244.501281 220.563434 
L 249.948505 225.694548 
L 255.395729 227.241991 
L 260.842953 230.984375 
L 266.290177 232.375523 
L 271.737401 241.726411 
L 277.184625 245.398916 
L 282.631849 243.365383 
L 288.079073 245.351399 
L 293.526297 248.927734 
L 298.97352 253.206694 
L 304.420744 250.943318 
L 309.867968 254.332978 
L 315.315192 261.296879 
L 320.762416 257.030042 
L 326.20964 263.60365 
L 331.656864 264.712683 
L 337.104088 268.388693 
L 342.551312 268.404564 
L 347.998536 272.297126 
L 353.44576 275.020139 
L 358.892984 275.553209 
L 364.340207 280.246805 
L 369.787431 280.067392 
L 375.234655 283.534883 
L 380.681879 286.61428 
L 386.129103 281.926364 
L 391.576327 281.439293 
L 397.023551 288.067753 
L 402.470775 287.52815 
L 407.917999 290.059668 
L 413.365223 291.352341 
L 418.812447 293.038286 
L 424.259671 296.47672 
L 429.706894 300.367667 
L 435.154118 298.069676 
L 440.601342 300.857084 
L 446.048566 301.899126 
L 451.49579 298.894542 
L 456.943014 303.914702 
L 467.837462 304.21638 
L 473.284686 308.3123 
L 478.73191 310.895789 
L 484.179134 313.015665 
L 489.626358 313.323096 
L 495.073581 316.205375 
L 500.520805 312.555298 
L 505.968029 316.643347 
L 511.415253 319.360136 
L 516.862477 320.99217 
L 522.309701 318.54956 
L 527.756925 320.813073 
L 533.204149 319.965261 
L 538.651373 321.672895 
L 544.098597 324.172134 
L 549.545821 328.634337 
L 554.993045 329.466254 
L 560.440268 327.265187 
L 565.887492 328.803348 
L 571.334716 332.727636 
L 576.78194 331.914561 
L 582.229164 331.681026 
L 587.676388 334.106442 
L 593.123612 341.621947 
L 598.570836 330.124276 
L 604.01806 336.675375 
L 609.465284 337.861971 
L 614.912508 336.980112 
L 620.359732 342.030781 
L 625.806955 340.912214 
L 631.254179 339.946843 
L 636.701403 341.954183 
L 642.148627 345.111014 
L 647.595851 343.178129 
L 653.043075 346.829488 
L 658.490299 344.903639 
L 663.937523 351.009118 
L 669.384747 349.551913 
L 674.831971 352.57546 
L 680.279195 350.484689 
L 685.726419 350.287916 
L 691.173642 353.877952 
L 696.620866 354.807507 
L 702.06809 354.364463 
L 707.515314 354.377101 
L 718.409762 357.881986 
L 723.856986 360.143094 
L 729.30421 356.545244 
L 734.751434 359.507265 
L 740.198658 358.357884 
L 745.645882 362.512048 
L 751.093106 361.245364 
L 756.540329 361.921216 
L 761.987553 364.572573 
L 767.434777 363.825835 
L 772.882001 366.722617 
L 778.329225 366.741195 
L 783.776449 365.060812 
L 789.223673 368.099967 
L 794.670897 366.012219 
L 800.118121 369.035997 
L 805.565345 371.619381 
L 811.012569 367.384444 
L 816.459793 374.784107 
L 821.907016 371.381123 
L 827.35424 374.053504 
L 832.801464 373.722152 
L 838.248688 374.049386 
L 849.143136 375.5169 
L 854.59036 375.668068 
L 860.037584 377.222485 
L 870.932032 376.831324 
L 876.379256 382.064851 
L 881.82648 380.928639 
L 887.273703 379.009894 
L 892.720927 379.430149 
L 898.168151 378.813729 
L 903.615375 378.076331 
L 909.062599 381.535618 
L 914.509823 383.462792 
L 925.404271 384.874544 
L 930.851495 383.92345 
L 936.298719 386.14139 
L 941.745943 386.782118 
L 947.193167 386.111765 
L 952.64039 386.94054 
L 958.087614 386.597264 
L 963.534838 386.544388 
L 974.429286 389.767488 
L 979.87651 389.132231 
L 985.323734 390.703548 
L 990.770958 389.695711 
L 996.218182 392.334545 
L 996.218182 392.334545 
" clip-path="url(#pcbe5703981)" style="fill: none; stroke: #ff0000; stroke-width: 1.75; stroke-linecap: round"/>
   </g>
   <g id="line2d_19">
    <path d="M 184.581818 149.524593 
L 190.029042 163.458221 
L 195.476266 177.923654 
L 200.92349 187.404808 
L 206.370714 193.669995 
L 211.817938 202.318616 
L 217.265162 209.486086 
L 222.712386 212.069892 
L 228.15961 218.121107 
L 233.606833 223.188492 
L 239.054057 225.299191 
L 244.501281 228.53744 
L 249.948505 231.14033 
L 255.395729 235.895724 
L 260.842953 237.243201 
L 266.290177 239.804773 
L 271.737401 238.989523 
L 277.184625 244.391456 
L 282.631849 244.359129 
L 288.079073 250.012863 
L 293.526297 252.675555 
L 298.97352 252.360853 
L 304.420744 254.173534 
L 309.867968 254.793394 
L 315.315192 257.489208 
L 320.762416 260.661375 
L 326.20964 265.118961 
L 331.656864 264.215315 
L 337.104088 267.478393 
L 342.551312 270.172097 
L 347.998536 266.191204 
L 353.44576 269.676303 
L 358.892984 271.575724 
L 364.340207 274.416912 
L 369.787431 276.566008 
L 375.234655 276.136263 
L 380.681879 278.752737 
L 386.129103 273.601792 
L 391.576327 278.886151 
L 397.023551 281.00842 
L 402.470775 280.389299 
L 407.917999 280.994878 
L 413.365223 283.594685 
L 418.812447 284.388692 
L 424.259671 284.897071 
L 435.154118 283.118064 
L 440.601342 288.753557 
L 446.048566 285.58707 
L 451.49579 290.132209 
L 456.943014 289.64375 
L 462.390238 291.498275 
L 467.837462 286.868344 
L 473.284686 292.850589 
L 478.73191 289.139266 
L 484.179134 291.26586 
L 489.626358 293.078898 
L 495.073581 292.266617 
L 500.520805 293.354829 
L 505.968029 294.867041 
L 511.415253 294.347107 
L 516.862477 297.922793 
L 522.309701 292.348043 
L 527.756925 298.217785 
L 533.204149 298.301426 
L 538.651373 295.408981 
L 544.098597 297.929293 
L 549.545821 297.702127 
L 554.993045 299.364768 
L 560.440268 301.903167 
L 576.78194 297.670823 
L 582.229164 292.571574 
L 587.676388 299.970607 
L 593.123612 300.860078 
L 598.570836 302.491552 
L 604.01806 298.714731 
L 609.465284 301.218287 
L 614.912508 302.624536 
L 620.359732 302.695226 
L 625.806955 298.369667 
L 631.254179 299.863467 
L 636.701403 304.52205 
L 642.148627 303.360031 
L 647.595851 303.38521 
L 653.043075 299.057621 
L 658.490299 297.751429 
L 663.937523 300.420028 
L 669.384747 302.406044 
L 674.831971 303.494475 
L 680.279195 304.051167 
L 685.726419 305.26712 
L 691.173642 302.646858 
L 696.620866 302.208764 
L 702.06809 300.498103 
L 707.515314 305.964479 
L 718.409762 300.482629 
L 723.856986 300.374216 
L 729.30421 304.780041 
L 734.751434 305.550834 
L 740.198658 301.68354 
L 745.645882 306.224953 
L 756.540329 304.29486 
L 761.987553 300.964978 
L 767.434777 304.377479 
L 772.882001 297.879009 
L 778.329225 304.135076 
L 783.776449 304.53199 
L 789.223673 302.331605 
L 794.670897 303.858884 
L 800.118121 304.220129 
L 805.565345 303.265192 
L 811.012569 301.465876 
L 816.459793 301.441679 
L 821.907016 297.774076 
L 827.35424 303.98377 
L 832.801464 303.106454 
L 838.248688 299.649658 
L 843.695912 300.262791 
L 849.143136 302.99064 
L 854.59036 294.357631 
L 860.037584 303.001351 
L 865.484808 304.997867 
L 870.932032 301.063541 
L 876.379256 304.600969 
L 881.82648 298.711201 
L 887.273703 303.777255 
L 892.720927 295.896173 
L 898.168151 300.504538 
L 903.615375 303.37914 
L 909.062599 302.007743 
L 914.509823 302.823447 
L 919.957047 299.848107 
L 930.851495 296.895381 
L 936.298719 300.123397 
L 941.745943 299.56871 
L 947.193167 299.363916 
L 952.64039 296.501022 
L 958.087614 295.630003 
L 963.534838 300.914199 
L 968.982062 299.440725 
L 974.429286 294.585681 
L 979.87651 293.755225 
L 985.323734 295.45175 
L 990.770958 295.749477 
L 996.218182 293.161557 
L 996.218182 293.161557 
" clip-path="url(#pcbe5703981)" style="fill: none; stroke: #008000; stroke-width: 1.75; stroke-linecap: round"/>
   </g>
   <g id="patch_3">
    <path d="M 144 406.08 
L 144 103.68 
" style="fill: none"/>
   </g>
   <g id="patch_4">
    <path d="M 1036.8 406.08 
L 1036.8 103.68 
" style="fill: none"/>
   </g>
   <g id="patch_5">
    <path d="M 144 406.08 
L 1036.8 406.08 
" style="fill: none"/>
   </g>
   <g id="patch_6">
    <path d="M 144 103.68 
L 1036.8 103.68 
" style="fill: none"/>
   </g>
  </g>
  <g id="axes_2">
   <g id="patch_7">
    <path d="M 144 768.96 
L 1036.8 768.96 
L 1036.8 466.56 
L 144 466.56 
z
" style="fill: #eaeaf2"/>
   </g>
   <g id="matplotlib.axis_3">
    <g id="xtick_9">
     <g id="line2d_20"/>
     <g id="text_18">
      <!-- 0 -->
      <g style="fill: #262626" transform="translate(181.801349 783.206875)scale(0.1 -0.1)">
       <use xlink:href="#LiberationSans-30"/>
      </g>
     </g>
    </g>
    <g id="xtick_10">
     <g id="line2d_21"/>
     <g id="text_19">
      <!-- 20 -->
      <g style="fill: #262626" transform="translate(287.965359 783.206875)scale(0.1 -0.1)">
       <use xlink:href="#LiberationSans-32"/>
       <use xlink:href="#LiberationSans-30" x="55.615234"/>
      </g>
     </g>
    </g>
    <g id="xtick_11">
     <g id="line2d_22"/>
     <g id="text_20">
      <!-- 40 -->
      <g style="fill: #262626" transform="translate(396.909837 783.206875)scale(0.1 -0.1)">
       <use xlink:href="#LiberationSans-34"/>
       <use xlink:href="#LiberationSans-30" x="55.615234"/>
      </g>
     </g>
    </g>
    <g id="xtick_12">
     <g id="line2d_23"/>
     <g id="text_21">
      <!-- 60 -->
      <g style="fill: #262626" transform="translate(505.854316 783.206875)scale(0.1 -0.1)">
       <use xlink:href="#LiberationSans-36"/>
       <use xlink:href="#LiberationSans-30" x="55.615234"/>
      </g>
     </g>
    </g>
    <g id="xtick_13">
     <g id="line2d_24"/>
     <g id="text_22">
      <!-- 80 -->
      <g style="fill: #262626" transform="translate(614.798794 783.206875)scale(0.1 -0.1)">
       <use xlink:href="#LiberationSans-38"/>
       <use xlink:href="#LiberationSans-30" x="55.615234"/>
      </g>
     </g>
    </g>
    <g id="xtick_14">
     <g id="line2d_25"/>
     <g id="text_23">
      <!-- 100 -->
      <g style="fill: #262626" transform="translate(720.962804 783.206875)scale(0.1 -0.1)">
       <use xlink:href="#LiberationSans-31"/>
       <use xlink:href="#LiberationSans-30" x="55.615234"/>
       <use xlink:href="#LiberationSans-30" x="111.230469"/>
      </g>
     </g>
    </g>
    <g id="xtick_15">
     <g id="line2d_26"/>
     <g id="text_24">
      <!-- 120 -->
      <g style="fill: #262626" transform="translate(829.907282 783.206875)scale(0.1 -0.1)">
       <use xlink:href="#LiberationSans-31"/>
       <use xlink:href="#LiberationSans-32" x="55.615234"/>
       <use xlink:href="#LiberationSans-30" x="111.230469"/>
      </g>
     </g>
    </g>
    <g id="xtick_16">
     <g id="line2d_27"/>
     <g id="text_25">
      <!-- 140 -->
      <g style="fill: #262626" transform="translate(938.85176 783.206875)scale(0.1 -0.1)">
       <use xlink:href="#LiberationSans-31"/>
       <use xlink:href="#LiberationSans-34" x="55.615234"/>
       <use xlink:href="#LiberationSans-30" x="111.230469"/>
      </g>
     </g>
    </g>
   </g>
   <g id="matplotlib.axis_4">
    <g id="ytick_10">
     <g id="line2d_28"/>
     <g id="text_26">
      <!-- 0.3 -->
      <g style="fill: #262626" transform="translate(123.1 748.453862)scale(0.1 -0.1)">
       <defs>
        <path id="LiberationSans-33" d="M 3278 1216 
Q 3278 913 3179 675 
Q 3081 438 2892 273 
Q 2703 109 2423 23 
Q 2144 -63 1784 -63 
Q 1375 -63 1095 39 
Q 816 141 634 308 
Q 453 475 362 689 
Q 272 903 244 1131 
L 825 1184 
Q 850 1009 917 865 
Q 984 722 1100 619 
Q 1216 516 1384 459 
Q 1553 403 1784 403 
Q 2209 403 2451 612 
Q 2694 822 2694 1234 
Q 2694 1478 2586 1626 
Q 2478 1775 2317 1858 
Q 2156 1941 1967 1969 
Q 1778 1997 1619 1997 
L 1300 1997 
L 1300 2484 
L 1606 2484 
Q 1766 2484 1937 2517 
Q 2109 2550 2251 2636 
Q 2394 2722 2486 2869 
Q 2578 3016 2578 3244 
Q 2578 3597 2370 3801 
Q 2163 4006 1753 4006 
Q 1381 4006 1151 3815 
Q 922 3625 884 3278 
L 319 3322 
Q 353 3613 478 3828 
Q 603 4044 795 4186 
Q 988 4328 1234 4398 
Q 1481 4469 1759 4469 
Q 2128 4469 2393 4376 
Q 2659 4284 2828 4126 
Q 2997 3969 3076 3756 
Q 3156 3544 3156 3303 
Q 3156 3109 3103 2940 
Q 3050 2772 2937 2637 
Q 2825 2503 2651 2406 
Q 2478 2309 2234 2259 
L 2234 2247 
Q 2500 2219 2697 2126 
Q 2894 2034 3022 1896 
Q 3150 1759 3214 1584 
Q 3278 1409 3278 1216 
z
" transform="scale(0.015625)"/>
       </defs>
       <use xlink:href="#LiberationSans-30"/>
       <use xlink:href="#LiberationSans-2e" x="55.615234"/>
       <use xlink:href="#LiberationSans-33" x="83.398438"/>
      </g>
     </g>
    </g>
    <g id="ytick_11">
     <g id="line2d_29"/>
     <g id="text_27">
      <!-- 0.4 -->
      <g style="fill: #262626" transform="translate(123.1 707.477602)scale(0.1 -0.1)">
       <use xlink:href="#LiberationSans-30"/>
       <use xlink:href="#LiberationSans-2e" x="55.615234"/>
       <use xlink:href="#LiberationSans-34" x="83.398438"/>
      </g>
     </g>
    </g>
    <g id="ytick_12">
     <g id="line2d_30"/>
     <g id="text_28">
      <!-- 0.5 -->
      <g style="fill: #262626" transform="translate(123.1 666.501341)scale(0.1 -0.1)">
       <use xlink:href="#LiberationSans-30"/>
       <use xlink:href="#LiberationSans-2e" x="55.615234"/>
       <use xlink:href="#LiberationSans-35" x="83.398438"/>
      </g>
     </g>
    </g>
    <g id="ytick_13">
     <g id="line2d_31"/>
     <g id="text_29">
      <!-- 0.6 -->
      <g style="fill: #262626" transform="translate(123.1 625.525081)scale(0.1 -0.1)">
       <use xlink:href="#LiberationSans-30"/>
       <use xlink:href="#LiberationSans-2e" x="55.615234"/>
       <use xlink:href="#LiberationSans-36" x="83.398438"/>
      </g>
     </g>
    </g>
    <g id="ytick_14">
     <g id="line2d_32"/>
     <g id="text_30">
      <!-- 0.7 -->
      <g style="fill: #262626" transform="translate(123.1 584.548821)scale(0.1 -0.1)">
       <use xlink:href="#LiberationSans-30"/>
       <use xlink:href="#LiberationSans-2e" x="55.615234"/>
       <use xlink:href="#LiberationSans-37" x="83.398438"/>
      </g>
     </g>
    </g>
    <g id="ytick_15">
     <g id="line2d_33"/>
     <g id="text_31">
      <!-- 0.8 -->
      <g style="fill: #262626" transform="translate(123.1 543.57256)scale(0.1 -0.1)">
       <use xlink:href="#LiberationSans-30"/>
       <use xlink:href="#LiberationSans-2e" x="55.615234"/>
       <use xlink:href="#LiberationSans-38" x="83.398438"/>
      </g>
     </g>
    </g>
    <g id="ytick_16">
     <g id="line2d_34"/>
     <g id="text_32">
      <!-- 0.9 -->
      <g style="fill: #262626" transform="translate(123.1 502.5963)scale(0.1 -0.1)">
       <defs>
        <path id="LiberationSans-39" d="M 3256 2291 
Q 3256 1703 3145 1261 
Q 3034 819 2828 525 
Q 2622 231 2326 84 
Q 2031 -63 1663 -63 
Q 1409 -63 1206 -11 
Q 1003 41 843 150 
Q 684 259 571 434 
Q 459 609 391 856 
L 928 941 
Q 1016 656 1202 523 
Q 1388 391 1672 391 
Q 1900 391 2089 498 
Q 2278 606 2411 822 
Q 2544 1038 2619 1363 
Q 2694 1688 2700 2125 
Q 2634 1978 2520 1862 
Q 2406 1747 2261 1667 
Q 2116 1588 1947 1545 
Q 1778 1503 1606 1503 
Q 1306 1503 1064 1611 
Q 822 1719 653 1912 
Q 484 2106 392 2379 
Q 300 2653 300 2988 
Q 300 3328 398 3603 
Q 497 3878 684 4070 
Q 872 4263 1145 4366 
Q 1419 4469 1766 4469 
Q 2500 4469 2878 3925 
Q 3256 3381 3256 2291 
z
M 2644 2834 
Q 2644 3078 2586 3293 
Q 2528 3509 2414 3668 
Q 2300 3828 2133 3920 
Q 1966 4013 1747 4013 
Q 1544 4013 1381 3941 
Q 1219 3869 1106 3736 
Q 994 3603 933 3412 
Q 872 3222 872 2988 
Q 872 2766 926 2575 
Q 981 2384 1090 2245 
Q 1200 2106 1362 2026 
Q 1525 1947 1741 1947 
Q 1897 1947 2058 2000 
Q 2219 2053 2348 2162 
Q 2478 2272 2561 2439 
Q 2644 2606 2644 2834 
z
" transform="scale(0.015625)"/>
       </defs>
       <use xlink:href="#LiberationSans-30"/>
       <use xlink:href="#LiberationSans-2e" x="55.615234"/>
       <use xlink:href="#LiberationSans-39" x="83.398438"/>
      </g>
     </g>
    </g>
   </g>
   <g id="line2d_35">
    <path d="M 184.581818 755.214545 
L 190.029042 727.20343 
L 195.476266 716.799301 
L 200.92349 693.490052 
L 206.370714 685.887035 
L 211.817938 681.285208 
L 217.265162 671.181199 
L 222.712386 668.580167 
L 228.15961 660.576991 
L 233.606833 662.577785 
L 239.054057 653.274093 
L 244.501281 648.072029 
L 249.948505 643.870361 
L 255.395729 649.572624 
L 260.842953 641.369369 
L 266.290177 641.269329 
L 271.737401 632.165717 
L 277.184625 626.163335 
L 282.631849 629.464645 
L 288.079073 627.86401 
L 293.526297 623.362223 
L 298.97352 621.461469 
L 304.420744 623.762382 
L 309.867968 617.459881 
L 315.315192 609.556745 
L 320.762416 615.158968 
L 326.20964 608.956507 
L 337.104088 604.55476 
L 342.551312 606.355474 
L 347.998536 601.353489 
L 353.44576 597.051782 
L 358.892984 599.352696 
L 364.340207 591.849718 
L 369.787431 589.648845 
L 375.234655 590.449162 
L 380.681879 589.348726 
L 386.129103 589.848924 
L 391.576327 591.449559 
L 397.023551 584.946979 
L 402.470775 586.147455 
L 407.917999 581.745709 
L 413.365223 582.746106 
L 418.812447 581.645669 
L 424.259671 577.243922 
L 429.706894 577.444002 
L 435.154118 575.443208 
L 440.601342 569.941024 
L 446.048566 574.142692 
L 451.49579 573.242334 
L 462.390238 568.540468 
L 467.837462 572.742136 
L 473.284686 566.439635 
L 478.73191 561.837809 
L 484.179134 562.237967 
L 489.626358 559.736975 
L 495.073581 558.336419 
L 500.520805 561.33761 
L 505.968029 556.335625 
L 511.415253 553.234395 
L 516.862477 554.73499 
L 522.309701 553.534514 
L 527.756925 550.333243 
L 533.204149 554.73499 
L 538.651373 551.933879 
L 544.098597 548.532529 
L 549.545821 544.630981 
L 554.993045 545.431298 
L 565.887492 544.030742 
L 571.334716 540.229234 
L 576.78194 541.42971 
L 582.229164 541.729829 
L 587.676388 539.528956 
L 593.123612 532.426137 
L 598.570836 545.031139 
L 604.01806 537.428122 
L 609.465284 534.326892 
L 614.912508 536.327686 
L 620.359732 531.725859 
L 625.806955 531.925939 
L 631.254179 537.828281 
L 636.701403 530.425343 
L 642.148627 527.424152 
L 647.595851 530.625423 
L 653.043075 528.624629 
L 658.490299 529.124827 
L 663.937523 522.622247 
L 674.831971 520.921572 
L 680.279195 524.723081 
L 691.173642 520.421374 
L 696.620866 520.121254 
L 702.06809 520.521413 
L 707.515314 520.021215 
L 712.962538 514.91919 
L 718.409762 516.819944 
L 723.856986 509.517046 
L 729.30421 517.820341 
L 734.751434 514.218912 
L 740.198658 515.11927 
L 745.645882 510.817563 
L 751.093106 510.517443 
L 756.540329 511.417801 
L 761.987553 509.717126 
L 767.434777 511.117682 
L 772.882001 508.31657 
L 778.329225 505.815578 
L 783.776449 507.616292 
L 789.223673 504.715141 
L 794.670897 506.515855 
L 800.118121 503.414625 
L 805.565345 499.813196 
L 811.012569 504.014863 
L 816.459793 498.112521 
L 821.907016 502.314188 
L 827.35424 500.813593 
L 832.801464 499.913235 
L 838.248688 501.113712 
L 843.695912 497.412243 
L 849.143136 498.712759 
L 854.59036 499.513077 
L 860.037584 493.910854 
L 865.484808 495.911647 
L 870.932032 495.611528 
L 876.379256 491.70998 
L 881.82648 493.110536 
L 887.273703 493.710774 
L 892.720927 494.010893 
L 898.168151 495.01129 
L 903.615375 494.010893 
L 909.062599 489.809226 
L 914.509823 490.909663 
L 919.957047 489.609146 
L 925.404271 485.707598 
L 930.851495 490.609543 
L 936.298719 486.207797 
L 941.745943 485.407479 
L 947.193167 487.008114 
L 952.64039 486.607956 
L 958.087614 485.707598 
L 963.534838 485.707598 
L 968.982062 484.707201 
L 974.429286 482.706407 
L 979.87651 484.407082 
L 985.323734 481.405891 
L 990.770958 484.507122 
L 996.218182 480.305455 
L 996.218182 480.305455 
" clip-path="url(#p3494c49a2a)" style="fill: none; stroke: #ff0000; stroke-width: 1.75; stroke-linecap: round"/>
   </g>
   <g id="line2d_36">
    <path d="M 184.581818 729.941809 
L 190.029042 711.85553 
L 195.476266 683.206869 
L 200.92349 674.091399 
L 206.370714 678.070371 
L 211.817938 659.622364 
L 217.265162 657.090305 
L 222.712386 663.60136 
L 228.15961 652.966622 
L 233.606833 647.830136 
L 239.054057 642.331909 
L 244.501281 644.791625 
L 249.948505 640.306227 
L 255.395729 637.267741 
L 260.842953 636.399599 
L 266.290177 636.037883 
L 271.737401 638.352913 
L 277.184625 631.118402 
L 282.631849 630.611999 
L 288.079073 624.535003 
L 293.526297 622.219973 
L 298.97352 621.20712 
L 309.867968 619.977262 
L 315.315192 617.662232 
L 320.762416 612.236348 
L 326.20964 607.96798 
L 331.656864 609.414892 
L 337.104088 608.908465 
L 342.551312 605.146523 
L 347.998536 607.895636 
L 353.44576 603.627268 
L 358.892984 604.567753 
L 364.340207 600.371752 
L 369.787431 596.754497 
L 375.234655 598.852497 
L 380.681879 597.043869 
L 386.129103 601.239895 
L 391.576327 594.222413 
L 397.023551 592.992554 
L 402.470775 595.741668 
L 407.917999 594.222413 
L 413.365223 590.460471 
L 418.812447 587.928387 
L 424.259671 589.158245 
L 429.706894 590.89453 
L 435.154118 590.966873 
L 440.601342 584.52816 
L 446.048566 590.6775 
L 451.49579 582.936586 
L 456.943014 583.370645 
L 462.390238 581.779047 
L 467.837462 587.421985 
L 473.284686 581.706704 
L 478.73191 585.613357 
L 484.179134 582.357817 
L 489.626358 581.923733 
L 495.073581 582.719533 
L 500.520805 580.187473 
L 505.968029 580.332159 
L 511.415253 582.43016 
L 516.862477 575.485021 
L 522.309701 581.706704 
L 527.756925 577.076619 
L 533.204149 575.774418 
L 538.651373 577.655389 
L 544.098597 576.570217 
L 549.545821 575.123305 
L 554.993045 574.472192 
L 560.440268 572.663565 
L 565.887492 574.761589 
L 571.334716 574.255163 
L 576.78194 573.169991 
L 582.229164 581.85139 
L 587.676388 573.387021 
L 593.123612 572.952962 
L 598.570836 571.650736 
L 604.01806 572.808275 
L 609.465284 573.097648 
L 614.912508 570.637907 
L 620.359732 570.203848 
L 625.806955 574.038133 
L 631.254179 575.195648 
L 636.701403 568.684593 
L 642.148627 570.420878 
L 647.595851 569.335706 
L 653.043075 574.110477 
L 658.490299 574.544536 
L 663.937523 571.50605 
L 669.384747 569.118652 
L 674.831971 568.03348 
L 680.279195 569.263363 
L 685.726419 566.731279 
L 691.173642 570.276191 
L 696.620866 570.92728 
L 702.06809 570.565564 
L 707.515314 566.297195 
L 712.962538 570.348535 
L 718.409762 568.539907 
L 723.856986 569.914451 
L 729.30421 565.71845 
L 734.751434 567.165338 
L 740.198658 569.986794 
L 745.645882 566.441906 
L 751.093106 565.429053 
L 756.540329 566.658936 
L 761.987553 567.671764 
L 767.434777 566.658936 
L 772.882001 571.867765 
L 778.329225 563.837479 
L 783.776449 564.922651 
L 789.223673 565.646107 
L 794.670897 567.744108 
L 800.118121 564.271538 
L 805.565345 564.199195 
L 811.012569 567.599421 
L 816.459793 563.837479 
L 821.907016 571.433706 
L 827.35424 565.212024 
L 832.801464 564.705621 
L 838.248688 567.527078 
L 843.695912 565.284367 
L 849.143136 564.416224 
L 854.59036 571.50605 
L 860.037584 563.258709 
L 865.484808 560.437253 
L 870.932032 565.573764 
L 876.379256 562.67994 
L 881.82648 564.994994 
L 887.273703 562.607597 
L 892.720927 567.671764 
L 898.168151 564.343881 
L 903.615375 564.633278 
L 909.062599 562.245881 
L 914.509823 562.318224 
L 919.957047 564.054509 
L 925.404271 561.305395 
L 930.851495 563.982165 
L 936.298719 561.739454 
L 941.745943 561.522425 
L 947.193167 562.101194 
L 952.64039 561.160709 
L 958.087614 563.548082 
L 963.534838 561.667111 
L 968.982062 562.607597 
L 974.429286 564.705621 
L 979.87651 563.475739 
L 985.323734 561.088366 
L 990.770958 563.475739 
L 996.218182 561.594768 
L 996.218182 561.594768 
" clip-path="url(#p3494c49a2a)" style="fill: none; stroke: #008000; stroke-width: 1.75; stroke-linecap: round"/>
   </g>
   <g id="patch_8">
    <path d="M 144 768.96 
L 144 466.56 
" style="fill: none"/>
   </g>
   <g id="patch_9">
    <path d="M 1036.8 768.96 
L 1036.8 466.56 
" style="fill: none"/>
   </g>
   <g id="patch_10">
    <path d="M 144 768.96 
L 1036.8 768.96 
" style="fill: none"/>
   </g>
   <g id="patch_11">
    <path d="M 144 466.56 
L 1036.8 466.56 
" style="fill: none"/>
   </g>
  </g>
  <g id="text_33">
   <!-- Plots of model performance: mel_spectrogram, baseline -->
   <g style="fill: #262626" transform="translate(427.273125 25.97625)scale(0.12 -0.12)">
    <defs>
     <path id="LiberationSans-50" d="M 3931 3078 
Q 3931 2791 3836 2542 
Q 3741 2294 3552 2111 
Q 3363 1928 3078 1822 
Q 2794 1716 2416 1716 
L 1122 1716 
L 1122 0 
L 525 0 
L 525 4403 
L 2378 4403 
Q 2769 4403 3059 4308 
Q 3350 4213 3544 4039 
Q 3738 3866 3834 3620 
Q 3931 3375 3931 3078 
z
M 3331 3072 
Q 3331 3491 3075 3708 
Q 2819 3925 2306 3925 
L 1122 3925 
L 1122 2188 
L 2331 2188 
Q 2847 2188 3089 2416 
Q 3331 2644 3331 3072 
z
" transform="scale(0.015625)"/>
     <path id="LiberationSans-6c" d="M 431 0 
L 431 4638 
L 994 4638 
L 994 0 
L 431 0 
z
" transform="scale(0.015625)"/>
     <path id="LiberationSans-6f" d="M 3291 1694 
Q 3291 806 2900 371 
Q 2509 -63 1766 -63 
Q 1413 -63 1134 43 
Q 856 150 664 369 
Q 472 588 370 917 
Q 269 1247 269 1694 
Q 269 3444 1784 3444 
Q 2178 3444 2464 3334 
Q 2750 3225 2933 3006 
Q 3116 2788 3203 2459 
Q 3291 2131 3291 1694 
z
M 2700 1694 
Q 2700 2088 2639 2344 
Q 2578 2600 2461 2753 
Q 2344 2906 2175 2967 
Q 2006 3028 1794 3028 
Q 1578 3028 1404 2964 
Q 1231 2900 1109 2745 
Q 988 2591 923 2334 
Q 859 2078 859 1694 
Q 859 1300 928 1042 
Q 997 784 1117 631 
Q 1238 478 1402 415 
Q 1566 353 1759 353 
Q 1975 353 2150 414 
Q 2325 475 2447 628 
Q 2569 781 2634 1040 
Q 2700 1300 2700 1694 
z
" transform="scale(0.015625)"/>
     <path id="LiberationSans-74" d="M 1731 25 
Q 1603 -9 1470 -29 
Q 1338 -50 1163 -50 
Q 488 -50 488 716 
L 488 2972 
L 97 2972 
L 97 3381 
L 509 3381 
L 675 4138 
L 1050 4138 
L 1050 3381 
L 1675 3381 
L 1675 2972 
L 1050 2972 
L 1050 838 
Q 1050 594 1129 495 
Q 1209 397 1406 397 
Q 1488 397 1564 409 
Q 1641 422 1731 441 
L 1731 25 
z
" transform="scale(0.015625)"/>
     <path id="LiberationSans-73" d="M 2969 934 
Q 2969 697 2876 511 
Q 2784 325 2609 198 
Q 2434 72 2179 4 
Q 1925 -63 1597 -63 
Q 1303 -63 1067 -17 
Q 831 28 653 128 
Q 475 228 354 392 
Q 234 556 178 794 
L 675 891 
Q 747 619 972 492 
Q 1197 366 1597 366 
Q 1778 366 1929 391 
Q 2081 416 2190 477 
Q 2300 538 2361 639 
Q 2422 741 2422 891 
Q 2422 1044 2350 1142 
Q 2278 1241 2150 1306 
Q 2022 1372 1839 1420 
Q 1656 1469 1438 1528 
Q 1234 1581 1034 1647 
Q 834 1713 673 1820 
Q 513 1928 413 2087 
Q 313 2247 313 2488 
Q 313 2950 642 3192 
Q 972 3434 1603 3434 
Q 2163 3434 2492 3237 
Q 2822 3041 2909 2606 
L 2403 2544 
Q 2375 2675 2300 2764 
Q 2225 2853 2119 2908 
Q 2013 2963 1880 2986 
Q 1747 3009 1603 3009 
Q 1222 3009 1040 2893 
Q 859 2778 859 2544 
Q 859 2406 926 2317 
Q 994 2228 1114 2167 
Q 1234 2106 1403 2061 
Q 1572 2016 1775 1966 
Q 1909 1931 2050 1892 
Q 2191 1853 2323 1798 
Q 2456 1744 2573 1670 
Q 2691 1597 2778 1494 
Q 2866 1391 2917 1253 
Q 2969 1116 2969 934 
z
" transform="scale(0.015625)"/>
     <path id="LiberationSans-20" transform="scale(0.015625)"/>
     <path id="LiberationSans-66" d="M 1128 2972 
L 1128 0 
L 566 0 
L 566 2972 
L 91 2972 
L 91 3381 
L 566 3381 
L 566 3763 
Q 566 3947 600 4105 
Q 634 4263 726 4380 
Q 819 4497 978 4564 
Q 1138 4631 1391 4631 
Q 1491 4631 1598 4622 
Q 1706 4613 1788 4594 
L 1788 4166 
Q 1734 4175 1664 4183 
Q 1594 4191 1538 4191 
Q 1413 4191 1333 4156 
Q 1253 4122 1208 4058 
Q 1163 3994 1145 3900 
Q 1128 3806 1128 3684 
L 1128 3381 
L 1788 3381 
L 1788 2972 
L 1128 2972 
z
" transform="scale(0.015625)"/>
     <path id="LiberationSans-6d" d="M 2400 0 
L 2400 2144 
Q 2400 2391 2369 2556 
Q 2338 2722 2264 2823 
Q 2191 2925 2072 2967 
Q 1953 3009 1781 3009 
Q 1603 3009 1459 2939 
Q 1316 2869 1214 2736 
Q 1113 2603 1058 2408 
Q 1003 2213 1003 1959 
L 1003 0 
L 444 0 
L 444 2659 
Q 444 2766 442 2883 
Q 441 3000 437 3104 
Q 434 3209 431 3284 
Q 428 3359 425 3381 
L 956 3381 
Q 959 3366 962 3297 
Q 966 3228 970 3139 
Q 975 3050 978 2958 
Q 981 2866 981 2803 
L 991 2803 
Q 1066 2950 1153 3069 
Q 1241 3188 1358 3270 
Q 1475 3353 1626 3398 
Q 1778 3444 1978 3444 
Q 2363 3444 2586 3291 
Q 2809 3138 2897 2803 
L 2906 2803 
Q 2981 2950 3075 3069 
Q 3169 3188 3294 3270 
Q 3419 3353 3575 3398 
Q 3731 3444 3931 3444 
Q 4188 3444 4373 3375 
Q 4559 3306 4678 3162 
Q 4797 3019 4853 2792 
Q 4909 2566 4909 2253 
L 4909 0 
L 4353 0 
L 4353 2144 
Q 4353 2391 4322 2556 
Q 4291 2722 4217 2823 
Q 4144 2925 4025 2967 
Q 3906 3009 3734 3009 
Q 3556 3009 3412 2942 
Q 3269 2875 3167 2744 
Q 3066 2613 3011 2416 
Q 2956 2219 2956 1959 
L 2956 0 
L 2400 0 
z
" transform="scale(0.015625)"/>
     <path id="LiberationSans-64" d="M 2566 544 
Q 2409 219 2151 78 
Q 1894 -63 1513 -63 
Q 872 -63 570 368 
Q 269 800 269 1675 
Q 269 3444 1513 3444 
Q 1897 3444 2153 3303 
Q 2409 3163 2566 2856 
L 2572 2856 
Q 2572 2888 2570 2955 
Q 2569 3022 2567 3095 
Q 2566 3169 2566 3234 
Q 2566 3300 2566 3328 
L 2566 4638 
L 3128 4638 
L 3128 697 
Q 3128 575 3129 462 
Q 3131 350 3134 256 
Q 3138 163 3141 95 
Q 3144 28 3147 0 
L 2609 0 
Q 2603 31 2598 89 
Q 2594 147 2589 222 
Q 2584 297 2581 380 
Q 2578 463 2578 544 
L 2566 544 
z
M 859 1694 
Q 859 1344 903 1094 
Q 947 844 1044 683 
Q 1141 522 1291 447 
Q 1441 372 1656 372 
Q 1878 372 2048 444 
Q 2219 516 2333 677 
Q 2447 838 2506 1097 
Q 2566 1356 2566 1731 
Q 2566 2091 2506 2339 
Q 2447 2588 2331 2741 
Q 2216 2894 2048 2961 
Q 1881 3028 1663 3028 
Q 1456 3028 1306 2956 
Q 1156 2884 1056 2725 
Q 956 2566 907 2311 
Q 859 2056 859 1694 
z
" transform="scale(0.015625)"/>
     <path id="LiberationSans-65" d="M 863 1572 
Q 863 1306 917 1082 
Q 972 859 1086 698 
Q 1200 538 1378 448 
Q 1556 359 1806 359 
Q 2172 359 2392 506 
Q 2613 653 2691 878 
L 3184 738 
Q 3131 597 3036 455 
Q 2941 313 2781 198 
Q 2622 84 2383 10 
Q 2144 -63 1806 -63 
Q 1056 -63 664 384 
Q 272 831 272 1713 
Q 272 2188 390 2517 
Q 509 2847 715 3053 
Q 922 3259 1197 3351 
Q 1472 3444 1784 3444 
Q 2209 3444 2495 3306 
Q 2781 3169 2954 2926 
Q 3128 2684 3201 2356 
Q 3275 2028 3275 1647 
L 3275 1572 
L 863 1572 
z
M 2694 2003 
Q 2647 2538 2422 2783 
Q 2197 3028 1775 3028 
Q 1634 3028 1479 2983 
Q 1325 2938 1194 2822 
Q 1063 2706 972 2507 
Q 881 2309 869 2003 
L 2694 2003 
z
" transform="scale(0.015625)"/>
     <path id="LiberationSans-70" d="M 3291 1706 
Q 3291 1322 3228 997 
Q 3166 672 3020 437 
Q 2875 203 2636 70 
Q 2397 -63 2047 -63 
Q 1684 -63 1412 75 
Q 1141 213 997 525 
L 981 525 
Q 984 519 986 469 
Q 988 419 989 344 
Q 991 269 992 176 
Q 994 84 994 -6 
L 994 -1328 
L 431 -1328 
L 431 2691 
Q 431 2813 429 2925 
Q 428 3038 425 3130 
Q 422 3222 419 3287 
Q 416 3353 413 3381 
L 956 3381 
Q 959 3372 964 3315 
Q 969 3259 973 3179 
Q 978 3100 983 3009 
Q 988 2919 988 2838 
L 1000 2838 
Q 1078 3000 1178 3114 
Q 1278 3228 1406 3301 
Q 1534 3375 1692 3408 
Q 1850 3441 2047 3441 
Q 2397 3441 2636 3316 
Q 2875 3191 3020 2964 
Q 3166 2738 3228 2417 
Q 3291 2097 3291 1706 
z
M 2700 1694 
Q 2700 2006 2662 2250 
Q 2625 2494 2533 2662 
Q 2441 2831 2287 2918 
Q 2134 3006 1903 3006 
Q 1716 3006 1550 2953 
Q 1384 2900 1261 2750 
Q 1138 2600 1066 2336 
Q 994 2072 994 1650 
Q 994 1291 1053 1042 
Q 1113 794 1227 641 
Q 1341 488 1509 420 
Q 1678 353 1897 353 
Q 2131 353 2286 443 
Q 2441 534 2533 706 
Q 2625 878 2662 1126 
Q 2700 1375 2700 1694 
z
" transform="scale(0.015625)"/>
     <path id="LiberationSans-72" d="M 444 0 
L 444 2594 
Q 444 2700 442 2811 
Q 441 2922 437 3025 
Q 434 3128 431 3218 
Q 428 3309 425 3381 
L 956 3381 
Q 959 3309 964 3217 
Q 969 3125 973 3028 
Q 978 2931 979 2842 
Q 981 2753 981 2691 
L 994 2691 
Q 1053 2884 1120 3026 
Q 1188 3169 1278 3261 
Q 1369 3353 1494 3398 
Q 1619 3444 1797 3444 
Q 1866 3444 1928 3433 
Q 1991 3422 2025 3413 
L 2025 2897 
Q 1969 2913 1894 2920 
Q 1819 2928 1725 2928 
Q 1531 2928 1395 2840 
Q 1259 2753 1173 2598 
Q 1088 2444 1047 2230 
Q 1006 2016 1006 1763 
L 1006 0 
L 444 0 
z
" transform="scale(0.015625)"/>
     <path id="LiberationSans-61" d="M 1294 -63 
Q 784 -63 528 206 
Q 272 475 272 944 
Q 272 1278 398 1492 
Q 525 1706 729 1828 
Q 934 1950 1196 1997 
Q 1459 2044 1731 2050 
L 2491 2063 
L 2491 2247 
Q 2491 2456 2447 2603 
Q 2403 2750 2312 2840 
Q 2222 2931 2086 2973 
Q 1950 3016 1766 3016 
Q 1603 3016 1472 2992 
Q 1341 2969 1244 2908 
Q 1147 2847 1087 2742 
Q 1028 2638 1009 2478 
L 422 2531 
Q 453 2731 540 2898 
Q 628 3066 789 3187 
Q 950 3309 1192 3376 
Q 1434 3444 1778 3444 
Q 2416 3444 2737 3151 
Q 3059 2859 3059 2306 
L 3059 850 
Q 3059 600 3125 473 
Q 3191 347 3375 347 
Q 3422 347 3469 353 
Q 3516 359 3559 369 
L 3559 19 
Q 3453 -6 3348 -18 
Q 3244 -31 3125 -31 
Q 2966 -31 2852 11 
Q 2738 53 2666 139 
Q 2594 225 2556 351 
Q 2519 478 2509 647 
L 2491 647 
Q 2400 484 2292 353 
Q 2184 222 2040 130 
Q 1897 38 1714 -12 
Q 1531 -63 1294 -63 
z
M 1422 359 
Q 1691 359 1892 457 
Q 2094 556 2226 709 
Q 2359 863 2425 1044 
Q 2491 1225 2491 1391 
L 2491 1669 
L 1875 1656 
Q 1669 1653 1483 1626 
Q 1297 1600 1156 1522 
Q 1016 1444 933 1303 
Q 850 1163 850 934 
Q 850 659 998 509 
Q 1147 359 1422 359 
z
" transform="scale(0.015625)"/>
     <path id="LiberationSans-6e" d="M 2578 0 
L 2578 2144 
Q 2578 2391 2542 2556 
Q 2506 2722 2425 2823 
Q 2344 2925 2211 2967 
Q 2078 3009 1881 3009 
Q 1681 3009 1520 2939 
Q 1359 2869 1245 2736 
Q 1131 2603 1068 2408 
Q 1006 2213 1006 1959 
L 1006 0 
L 444 0 
L 444 2659 
Q 444 2766 442 2883 
Q 441 3000 437 3104 
Q 434 3209 431 3284 
Q 428 3359 425 3381 
L 956 3381 
Q 959 3366 962 3297 
Q 966 3228 970 3139 
Q 975 3050 978 2958 
Q 981 2866 981 2803 
L 991 2803 
Q 1072 2950 1169 3069 
Q 1266 3188 1394 3270 
Q 1522 3353 1687 3398 
Q 1853 3444 2072 3444 
Q 2353 3444 2556 3375 
Q 2759 3306 2890 3162 
Q 3022 3019 3083 2792 
Q 3144 2566 3144 2253 
L 3144 0 
L 2578 0 
z
" transform="scale(0.015625)"/>
     <path id="LiberationSans-63" d="M 859 1706 
Q 859 1416 901 1172 
Q 944 928 1044 751 
Q 1144 575 1308 478 
Q 1472 381 1713 381 
Q 2013 381 2214 543 
Q 2416 706 2463 1044 
L 3031 1006 
Q 3003 797 2909 603 
Q 2816 409 2655 262 
Q 2494 116 2262 26 
Q 2031 -63 1728 -63 
Q 1331 -63 1053 71 
Q 775 206 601 442 
Q 428 678 350 998 
Q 272 1319 272 1694 
Q 272 2034 328 2295 
Q 384 2556 486 2751 
Q 588 2947 725 3080 
Q 863 3213 1023 3292 
Q 1184 3372 1362 3408 
Q 1541 3444 1722 3444 
Q 2006 3444 2228 3366 
Q 2450 3288 2611 3152 
Q 2772 3016 2872 2831 
Q 2972 2647 3013 2434 
L 2434 2391 
Q 2391 2672 2212 2837 
Q 2034 3003 1706 3003 
Q 1466 3003 1305 2923 
Q 1144 2844 1044 2683 
Q 944 2522 901 2278 
Q 859 2034 859 1706 
z
" transform="scale(0.015625)"/>
     <path id="LiberationSans-3a" d="M 584 2734 
L 584 3381 
L 1194 3381 
L 1194 2734 
L 584 2734 
z
M 584 0 
L 584 647 
L 1194 647 
L 1194 0 
L 584 0 
z
" transform="scale(0.015625)"/>
     <path id="LiberationSans-5f" d="M -97 -1272 
L -97 -866 
L 3631 -866 
L 3631 -1272 
L -97 -1272 
z
" transform="scale(0.015625)"/>
     <path id="LiberationSans-67" d="M 1713 -1328 
Q 1422 -1328 1197 -1268 
Q 972 -1209 812 -1098 
Q 653 -988 553 -834 
Q 453 -681 409 -494 
L 975 -413 
Q 1031 -647 1223 -773 
Q 1416 -900 1728 -900 
Q 1919 -900 2075 -847 
Q 2231 -794 2340 -676 
Q 2450 -559 2509 -371 
Q 2569 -184 2569 84 
L 2569 628 
L 2563 628 
Q 2500 500 2408 383 
Q 2316 266 2183 175 
Q 2050 84 1875 29 
Q 1700 -25 1475 -25 
Q 1153 -25 923 83 
Q 694 191 548 406 
Q 403 622 336 942 
Q 269 1263 269 1684 
Q 269 2091 336 2416 
Q 403 2741 554 2967 
Q 706 3194 948 3314 
Q 1191 3434 1538 3434 
Q 1897 3434 2161 3270 
Q 2425 3106 2569 2803 
L 2575 2803 
Q 2575 2881 2579 2978 
Q 2584 3075 2589 3161 
Q 2594 3247 2600 3309 
Q 2606 3372 2613 3381 
L 3147 3381 
Q 3144 3353 3141 3286 
Q 3138 3219 3134 3125 
Q 3131 3031 3129 2917 
Q 3128 2803 3128 2681 
L 3128 97 
Q 3128 -613 2779 -970 
Q 2431 -1328 1713 -1328 
z
M 2569 1691 
Q 2569 2044 2492 2295 
Q 2416 2547 2291 2706 
Q 2166 2866 2005 2941 
Q 1844 3016 1675 3016 
Q 1459 3016 1304 2941 
Q 1150 2866 1048 2705 
Q 947 2544 898 2292 
Q 850 2041 850 1691 
Q 850 1325 898 1076 
Q 947 828 1047 675 
Q 1147 522 1300 456 
Q 1453 391 1666 391 
Q 1834 391 1995 462 
Q 2156 534 2284 690 
Q 2413 847 2491 1094 
Q 2569 1341 2569 1691 
z
" transform="scale(0.015625)"/>
     <path id="LiberationSans-2c" d="M 1203 684 
L 1203 159 
Q 1203 -6 1189 -142 
Q 1175 -278 1144 -395 
Q 1113 -513 1067 -616 
Q 1022 -719 959 -819 
L 575 -819 
Q 716 -616 792 -409 
Q 869 -203 869 0 
L 594 0 
L 594 684 
L 1203 684 
z
" transform="scale(0.015625)"/>
     <path id="LiberationSans-62" d="M 3291 1706 
Q 3291 -63 2047 -63 
Q 1663 -63 1408 76 
Q 1153 216 994 525 
L 988 525 
Q 988 444 983 356 
Q 978 269 973 194 
Q 969 119 964 66 
Q 959 13 956 0 
L 413 0 
Q 416 28 419 95 
Q 422 163 425 256 
Q 428 350 429 462 
Q 431 575 431 697 
L 431 4638 
L 994 4638 
L 994 3316 
Q 994 3222 992 3136 
Q 991 3050 988 2984 
Q 984 2906 981 2838 
L 994 2838 
Q 1150 3163 1408 3303 
Q 1666 3444 2047 3444 
Q 2688 3444 2989 3012 
Q 3291 2581 3291 1706 
z
M 2700 1688 
Q 2700 2038 2656 2288 
Q 2613 2538 2516 2698 
Q 2419 2859 2269 2934 
Q 2119 3009 1903 3009 
Q 1681 3009 1511 2937 
Q 1341 2866 1227 2706 
Q 1113 2547 1053 2287 
Q 994 2028 994 1653 
Q 994 1291 1053 1044 
Q 1113 797 1227 642 
Q 1341 488 1509 420 
Q 1678 353 1897 353 
Q 2103 353 2253 425 
Q 2403 497 2503 656 
Q 2603 816 2651 1070 
Q 2700 1325 2700 1688 
z
" transform="scale(0.015625)"/>
     <path id="LiberationSans-69" d="M 428 4100 
L 428 4638 
L 991 4638 
L 991 4100 
L 428 4100 
z
M 428 0 
L 428 3381 
L 991 3381 
L 991 0 
L 428 0 
z
" transform="scale(0.015625)"/>
    </defs>
    <use xlink:href="#LiberationSans-50"/>
    <use xlink:href="#LiberationSans-6c" x="66.699219"/>
    <use xlink:href="#LiberationSans-6f" x="88.916016"/>
    <use xlink:href="#LiberationSans-74" x="144.53125"/>
    <use xlink:href="#LiberationSans-73" x="172.314453"/>
    <use xlink:href="#LiberationSans-20" x="222.314453"/>
    <use xlink:href="#LiberationSans-6f" x="250.097656"/>
    <use xlink:href="#LiberationSans-66" x="305.712891"/>
    <use xlink:href="#LiberationSans-20" x="333.496094"/>
    <use xlink:href="#LiberationSans-6d" x="361.279297"/>
    <use xlink:href="#LiberationSans-6f" x="444.580078"/>
    <use xlink:href="#LiberationSans-64" x="500.195312"/>
    <use xlink:href="#LiberationSans-65" x="555.810547"/>
    <use xlink:href="#LiberationSans-6c" x="611.425781"/>
    <use xlink:href="#LiberationSans-20" x="633.642578"/>
    <use xlink:href="#LiberationSans-70" x="661.425781"/>
    <use xlink:href="#LiberationSans-65" x="717.041016"/>
    <use xlink:href="#LiberationSans-72" x="772.65625"/>
    <use xlink:href="#LiberationSans-66" x="805.957031"/>
    <use xlink:href="#LiberationSans-6f" x="833.740234"/>
    <use xlink:href="#LiberationSans-72" x="889.355469"/>
    <use xlink:href="#LiberationSans-6d" x="922.65625"/>
    <use xlink:href="#LiberationSans-61" x="1005.957031"/>
    <use xlink:href="#LiberationSans-6e" x="1061.572266"/>
    <use xlink:href="#LiberationSans-63" x="1117.1875"/>
    <use xlink:href="#LiberationSans-65" x="1167.1875"/>
    <use xlink:href="#LiberationSans-3a" x="1222.802734"/>
    <use xlink:href="#LiberationSans-20" x="1250.585938"/>
    <use xlink:href="#LiberationSans-6d" x="1278.369141"/>
    <use xlink:href="#LiberationSans-65" x="1361.669922"/>
    <use xlink:href="#LiberationSans-6c" x="1417.285156"/>
    <use xlink:href="#LiberationSans-5f" x="1439.501953"/>
    <use xlink:href="#LiberationSans-73" x="1495.117188"/>
    <use xlink:href="#LiberationSans-70" x="1545.117188"/>
    <use xlink:href="#LiberationSans-65" x="1600.732422"/>
    <use xlink:href="#LiberationSans-63" x="1656.347656"/>
    <use xlink:href="#LiberationSans-74" x="1706.347656"/>
    <use xlink:href="#LiberationSans-72" x="1734.130859"/>
    <use xlink:href="#LiberationSans-6f" x="1767.431641"/>
    <use xlink:href="#LiberationSans-67" x="1823.046875"/>
    <use xlink:href="#LiberationSans-72" x="1878.662109"/>
    <use xlink:href="#LiberationSans-61" x="1911.962891"/>
    <use xlink:href="#LiberationSans-6d" x="1967.578125"/>
    <use xlink:href="#LiberationSans-2c" x="2050.878906"/>
    <use xlink:href="#LiberationSans-20" x="2078.662109"/>
    <use xlink:href="#LiberationSans-62" x="2106.445312"/>
    <use xlink:href="#LiberationSans-61" x="2162.060547"/>
    <use xlink:href="#LiberationSans-73" x="2217.675781"/>
    <use xlink:href="#LiberationSans-65" x="2267.675781"/>
    <use xlink:href="#LiberationSans-6c" x="2323.291016"/>
    <use xlink:href="#LiberationSans-69" x="2345.507812"/>
    <use xlink:href="#LiberationSans-6e" x="2367.724609"/>
    <use xlink:href="#LiberationSans-65" x="2423.339844"/>
   </g>
  </g>
 </g>
 <defs>
  <clipPath id="pcbe5703981">
   <rect x="144" y="103.68" width="892.8" height="302.4"/>
  </clipPath>
  <clipPath id="p3494c49a2a">
   <rect x="144" y="466.56" width="892.8" height="302.4"/>
  </clipPath>
 </defs>
</svg>
